<?xml version="1.0" encoding="utf-8"?>

<!DOCTYPE svg PUBLIC "-//W3C//DTD SVG 1.1//EN" "http://www.w3.org/Graphics/SVG/1.1/DTD/svg11.dtd">
<svg version="1.1" id="Layer_1" xmlns="http://www.w3.org/2000/svg" xmlns:xlink="http://www.w3.org/1999/xlink" x="0px" y="0px"
	 width="502px" height="212px" viewBox="0 0 502 212" enable-background="new 0 0 502 212" xml:space="preserve">

<defs>
	<style type="text/css">
	text {
	  font-family: Helvetica, Verdana, ArialUnicodeMS, san-serif
	}
	</style>
</defs>

<g>
   <desc>
	PS 3.4 Service Class Specifications
   </desc>
</g>

<g>
	<rect x="1" y="1" fill="#F5EED6" width="500" height="210"/>
	<g>
		<rect x="31.263" y="16" fill="#CCDEF0" stroke="#000000" stroke-width="0.75" width="100" height="180"/>
		<rect x="350.739" y="16.863" fill="#CCDEF0" stroke="#000000" stroke-width="0.75" width="120" height="150"/>
		<rect x="360.741" y="56.863" fill="#B2CEE7" stroke="#000000" stroke-width="0.75" width="100" height="100"/>
		<text transform="matrix(1 0 0 1 160.4126 77.5596)"><tspan x="0" y="0" font-size="9">DIMSE</tspan><tspan x="-3.004" y="10.8" font-size="9">Services</tspan></text>
		
			<polygon fill="#FFFFFF" stroke="#4F8ABE" stroke-width="2" stroke-linecap="round" stroke-linejoin="round" stroke-miterlimit="1" points="
			185.101,111.898 185.101,117.93 211.139,105.937 185.101,93.93 185.101,101.043 163.5,101.043 163.5,93.93 137.463,105.937 
			163.5,117.93 163.5,111.898 		"/>
		<text transform="matrix(1 0 0 1 285.0596 88.3599)" font-size="9">Non-DIMSE</text>
		
			<polygon fill="#B2CEE7" stroke="#4F8ABE" stroke-width="2" stroke-linecap="round" stroke-linejoin="round" stroke-miterlimit="1" points="
			319.506,111.898 319.506,117.93 345.544,105.937 319.506,93.93 319.506,101.043 297.904,101.043 297.904,93.93 271.868,105.937 
			297.904,117.93 297.904,111.898 		"/>
		<text transform="matrix(1 0 0 1 34.873 30.2368)" font-size="12">Applications</text>
		<text transform="matrix(1 0 0 1 354.3379 31.1001)" font-size="12">Display System</text>
		<text transform="matrix(1 0 0 1 391.0645 103.0063)"><tspan x="0" y="0" font-size="12">Display</tspan><tspan x="-10.005" y="14.4" font-size="12">Subsystem</tspan></text>
		
			<path fill="#B2CEE7" stroke="#010101" stroke-width="0.75" stroke-linecap="round" stroke-linejoin="round" stroke-miterlimit="1" d="
			M74.104,106.396c0-13.802,11.19-24.99,24.99-24.99c13.812,0,25.009,11.188,25.009,24.99c0,13.803-11.196,25.01-25.009,25.01
			C85.294,131.406,74.104,120.199,74.104,106.396z"/>
		<text transform="matrix(1 0 0 1 87.4897 109.4688)" font-size="11">SCU</text>
		
			<path fill="#B2CEE7" stroke="#010101" stroke-width="0.75" stroke-linecap="round" stroke-linejoin="round" stroke-miterlimit="1" d="
			M216.384,106.396c0-13.802,11.19-24.99,24.983-24.99c13.814,0,25.012,11.188,25.012,24.99c0,13.803-11.197,25.01-25.012,25.01
			C227.574,131.406,216.384,120.199,216.384,106.396z"/>
		<text transform="matrix(1 0 0 1 230.0737 109.4688)" font-size="11">SCP</text>
	</g>
</g>
</svg>
