<?xml version="1.0" encoding="utf-8"?>

<!DOCTYPE svg PUBLIC "-//W3C//DTD SVG 1.1//EN" "http://www.w3.org/Graphics/SVG/1.1/DTD/svg11.dtd">
<svg version="1.1" id="Layer_1" xmlns="http://www.w3.org/2000/svg" xmlns:xlink="http://www.w3.org/1999/xlink" x="0px" y="0px"
	 width="502px" height="427px" viewBox="0 0 502 427" enable-background="new 0 0 502 427" xml:space="preserve">

<defs>
	<style type="text/css">
	text {
	  font-family: Helvetica, Verdana, ArialUnicodeMS, san-serif
	}
	</style>
</defs>

<g>
   <desc>
	PS 3.4 Service Class Specifications
   </desc>
</g>

<g>
	<rect x="1" y="1" fill="#F5EED6" width="500" height="425"/>
	<g>
		
			<path fill="#CCDEF0" stroke="#000000" stroke-width="0.75" stroke-linecap="round" stroke-linejoin="round" stroke-miterlimit="1" d="
			M366.001,410.602H136V50.882h230.001V410.602z"/>
		<g>
			<g>
				
					<line fill="none" stroke="#005695" stroke-width="2" stroke-linecap="round" stroke-miterlimit="1" x1="251" y1="39.536" x2="251" y2="61.417"/>
				<g>
					<polygon fill="#005695" points="247.514,59.04 251,72.049 254.486,59.04 					"/>
				</g>
			</g>
		</g>
		
			<rect x="201.502" y="16.399" fill="#86B2D8" stroke="#010101" stroke-width="0.75" stroke-linecap="round" stroke-linejoin="round" stroke-miterlimit="1" width="98.997" height="22.5"/>
		<g>
			<text transform="matrix(1 0 0 1 225.0005 30.1528)" font-size="9">Worklist Item</text>
		</g>
		<g>
			<g>
				
					<line fill="none" stroke="#005695" stroke-width="2" stroke-linecap="round" stroke-miterlimit="1" x1="251" y1="95.944" x2="251" y2="108.179"/>
				<g>
					<polygon fill="#005695" points="247.514,105.802 251,118.811 254.486,105.802 					"/>
				</g>
			</g>
		</g>
		<g>
			<g>
				
					<line fill="none" stroke="#005695" stroke-width="2" stroke-linecap="round" stroke-miterlimit="1" x1="251" y1="145.305" x2="251" y2="157.539"/>
				<g>
					<polygon fill="#005695" points="247.514,155.161 251,168.17 254.486,155.161 					"/>
				</g>
			</g>
		</g>
		<g>
			<g>
				<polyline fill="none" stroke="#005695" stroke-width="2" stroke-linecap="round" stroke-miterlimit="1" points="251,189.982 
					251,211.776 195.5,211.776 195.5,222.938 				"/>
				<g>
					<polygon fill="#005695" points="192.014,220.561 195.5,233.569 198.986,220.561 					"/>
				</g>
			</g>
		</g>
		<g>
			<g>
				<polyline fill="none" stroke="#005695" stroke-width="2" stroke-linecap="round" stroke-miterlimit="1" points="251,211.776 
					306.5,211.776 306.5,222.938 				"/>
				<g>
					<polygon fill="#005695" points="303.014,220.561 306.5,233.569 309.986,220.561 					"/>
				</g>
			</g>
		</g>
		
			<rect x="201.501" y="167.574" fill="#86B2D8" stroke="#010101" stroke-width="0.75" stroke-linecap="round" stroke-linejoin="round" stroke-miterlimit="1" width="98.998" height="22.5"/>
		<g>
			<text transform="matrix(1 0 0 1 207.2222 181.332)" font-size="9">Requested Procedure</text>
		</g>
		
			<rect x="210.501" y="72.049" fill="#86B2D8" stroke="#010101" stroke-width="0.75" stroke-linecap="round" stroke-linejoin="round" stroke-miterlimit="1" width="80.998" height="22.485"/>
		<g>
			<text transform="matrix(1 0 0 1 229.7334 80.4268)"><tspan x="0" y="0" font-size="9">Scheduled</tspan><tspan x="-10.002" y="8.8" font-size="9">Procedure Step</tspan></text>
		</g>
		<g>
			<text transform="matrix(1 0 0 1 284.1699 123.458)" font-size="9">0-n</text>
		</g>
		<g>
			<text transform="matrix(1 0 0 1 292.1699 145.4629)" font-size="9">1</text>
		</g>
		
			<polygon fill="#B2CEE7" stroke="#010101" stroke-width="0.75" stroke-linecap="round" stroke-linejoin="round" stroke-miterlimit="1" points="
			201.503,131.521 250.923,118.229 300.497,131.713 300.497,131.743 250.923,145.228 		"/>
		<g>
			<text transform="matrix(1 0 0 1 222.2314 134.2349)" font-size="9">is contained in</text>
		</g>
		<g>
			<g>
				
					<line fill="none" stroke="#005695" stroke-width="2" stroke-linecap="round" stroke-miterlimit="1" x1="195.501" y1="260.586" x2="195.501" y2="272.281"/>
				<g>
					<polygon fill="#005695" points="192.015,269.903 195.501,282.912 198.987,269.903 					"/>
				</g>
			</g>
		</g>
		<g>
			<g>
				
					<line fill="none" stroke="#005695" stroke-width="2" stroke-linecap="round" stroke-miterlimit="1" x1="195.501" y1="304.547" x2="195.501" y2="316.779"/>
				<g>
					<polygon fill="#005695" points="192.015,314.401 195.501,327.41 198.987,314.401 					"/>
				</g>
			</g>
		</g>
		<g>
			<g>
				
					<line fill="none" stroke="#005695" stroke-width="2" stroke-linecap="round" stroke-miterlimit="1" x1="195.501" y1="353.547" x2="195.501" y2="365.779"/>
				<g>
					<polygon fill="#005695" points="192.015,363.401 195.501,376.41 198.987,363.401 					"/>
				</g>
			</g>
		</g>
		<g>
			<g>
				
					<line fill="none" stroke="#005695" stroke-width="2" stroke-linecap="round" stroke-miterlimit="1" x1="306.501" y1="260.467" x2="306.501" y2="272.697"/>
				<g>
					<polygon fill="#005695" points="303.015,270.319 306.501,283.328 309.987,270.319 					"/>
				</g>
			</g>
		</g>
		
			<rect x="153.5" y="376.654" fill="#86B2D8" stroke="#010101" stroke-width="0.75" stroke-linecap="round" stroke-linejoin="round" stroke-miterlimit="1" width="84.001" height="22.5"/>
		<g>
			<text transform="matrix(1 0 0 1 176.8208 391.2461)" font-size="12">Patient</text>
		</g>
		
			<rect x="155.002" y="282.912" fill="#86B2D8" stroke="#010101" stroke-width="0.75" stroke-linecap="round" stroke-linejoin="round" stroke-miterlimit="1" width="80.997" height="22.5"/>
		<g>
			<text transform="matrix(1 0 0 1 179.4912 291.3027)"><tspan x="0" y="0" font-size="9">Imaging</tspan><tspan x="-17.007" y="8.8" font-size="9">Service Request</tspan></text>
		</g>
		<g>
			<text transform="matrix(1 0 0 1 228.6694 238.7979)" font-size="9">0-n</text>
		</g>
		<g>
			<text transform="matrix(1 0 0 1 236.6704 260.8027)" font-size="9">1</text>
		</g>
		
			<polygon fill="#B2CEE7" stroke="#010101" stroke-width="0.75" stroke-linecap="round" stroke-linejoin="round" stroke-miterlimit="1" points="
			146.004,246.862 195.424,233.57 244.997,247.056 244.997,247.085 195.424,260.568 		"/>
		<g>
			<text transform="matrix(1 0 0 1 164.9824 249.5752)" font-size="9">is requested by</text>
		</g>
		<g>
			<text transform="matrix(1 0 0 1 228.6694 332.5391)" font-size="9">0-n</text>
		</g>
		<g>
			<text transform="matrix(1 0 0 1 236.6704 354.5439)" font-size="9">1</text>
		</g>
		
			<polygon fill="#B2CEE7" stroke="#010101" stroke-width="0.75" stroke-linecap="round" stroke-linejoin="round" stroke-miterlimit="1" points="
			146.004,340.6 195.424,327.307 244.997,340.793 244.997,340.822 195.424,354.307 		"/>
		<g>
			<text transform="matrix(1 0 0 1 174.4287 343.3164)" font-size="9">is done for</text>
		</g>
		
			<rect x="264.499" y="282.912" fill="#86B2D8" stroke="#010101" stroke-width="0.75" stroke-linecap="round" stroke-linejoin="round" stroke-miterlimit="1" width="84.002" height="22.5"/>
		<g>
			<text transform="matrix(1 0 0 1 295.166 297.5049)" font-size="12">Visit</text>
		</g>
		<g>
			<text transform="matrix(1 0 0 1 339.6699 238.7979)" font-size="9">0-1</text>
		</g>
		<g>
			<text transform="matrix(1 0 0 1 347.6699 260.8027)" font-size="9">1</text>
		</g>
		
			<polygon fill="#B2CEE7" stroke="#010101" stroke-width="0.75" stroke-linecap="round" stroke-linejoin="round" stroke-miterlimit="1" points="
			257.003,246.861 306.423,233.57 355.997,247.055 355.997,247.084 306.423,260.567 		"/>
		<g>
			<text transform="matrix(1 0 0 1 280.4844 249.5752)" font-size="9">is included in</text>
		</g>
	</g>
</g>
</svg>
