<?xml version="1.0" encoding="utf-8"?>

<!DOCTYPE svg PUBLIC "-//W3C//DTD SVG 1.1//EN" "http://www.w3.org/Graphics/SVG/1.1/DTD/svg11.dtd">
<svg version="1.1" id="Layer_1" xmlns="http://www.w3.org/2000/svg" xmlns:xlink="http://www.w3.org/1999/xlink" x="0px" y="0px"
	 width="502px" height="137px" viewBox="0 0 502 137" enable-background="new 0 0 502 137" xml:space="preserve">
<defs>
	<style type="text/css">
	text {
	  font-family: Helvetica, Verdana, ArialUnicodeMS, san-serif
	}
	</style>
</defs>

<g>
   <desc>
	PS 3.16 Part 16: Content Mapping Resource
   </desc>
</g>

<g>
	<rect x="1" y="1" fill="#F5EED6" width="500" height="135"/>
	<g>
		<g>
			<path fill="#CCDEF0" d="M216.466,66.441c0-1.98,1.62-3.6,3.6-3.6h67.631c1.979,0,3.6,1.62,3.6,3.6v19.566
				c0,1.979-1.62,3.6-3.6,3.6h-67.631c-1.98,0-3.6-1.62-3.6-3.6V66.441z"/>
			<path fill="none" stroke="#010101" stroke-width="0.75" stroke-linecap="square" stroke-miterlimit="1" d="M216.466,66.441
				c0-1.98,1.62-3.6,3.6-3.6h67.631c1.979,0,3.6,1.62,3.6,3.6v19.566c0,1.979-1.62,3.6-3.6,3.6h-67.631c-1.98,0-3.6-1.62-3.6-3.6
				V66.441z"/>
		</g>
		<g>
			<path fill="#CCDEF0" d="M216.43,27.285c0-1.98,1.62-3.6,3.6-3.6h68.356c1.979,0,3.6,1.62,3.6,3.6V46.85c0,1.98-1.62,3.6-3.6,3.6
				H220.03c-1.98,0-3.6-1.62-3.6-3.6V27.285z"/>
			<path fill="none" stroke="#010101" stroke-width="0.75" stroke-linecap="square" stroke-miterlimit="1" d="M216.43,27.285
				c0-1.98,1.62-3.6,3.6-3.6h68.356c1.979,0,3.6,1.62,3.6,3.6V46.85c0,1.98-1.62,3.6-3.6,3.6H220.03c-1.98,0-3.6-1.62-3.6-3.6
				V27.285z"/>
		</g>
		<g>
			<path fill="none" stroke="#000000" stroke-width="0.75" stroke-linecap="square" stroke-miterlimit="10" d="M299.756,32.081"/>
		</g>
		<g>
			<path fill="#CCDEF0" d="M312.363,27.375c0-1.98,1.62-3.6,3.6-3.6h53.827c1.979,0,3.6,1.62,3.6,3.6v12.948
				c0,1.98-1.62,3.6-3.6,3.6h-53.827c-1.979,0-3.6-1.62-3.6-3.6V27.375z"/>
			<path fill="none" stroke="#010101" stroke-width="0.75" stroke-linecap="square" stroke-miterlimit="1" d="M312.363,27.375
				c0-1.98,1.62-3.6,3.6-3.6h53.827c1.979,0,3.6,1.62,3.6,3.6v12.948c0,1.98-1.62,3.6-3.6,3.6h-53.827c-1.979,0-3.6-1.62-3.6-3.6
				V27.375z"/>
		</g>
		<text transform="matrix(1 0 0 1 319.3672 35.5151)" font-size="6">Observer Context</text>
		<text transform="matrix(1 0 0 1 312.3633 20.8208)" font-size="7">TID 1002</text>
		<g>
			<path fill="#CCDEF0" d="M312.363,66.441c0-1.98,1.62-3.6,3.6-3.6h53.83c1.979,0,3.6,1.62,3.6,3.6V79.39c0,1.979-1.62,3.6-3.6,3.6
				h-53.83c-1.979,0-3.6-1.62-3.6-3.6V66.441z"/>
			<path fill="none" stroke="#010101" stroke-width="0.75" stroke-linecap="square" stroke-miterlimit="1" d="M312.363,66.441
				c0-1.98,1.62-3.6,3.6-3.6h53.83c1.979,0,3.6,1.62,3.6,3.6V79.39c0,1.979-1.62,3.6-3.6,3.6h-53.83c-1.979,0-3.6-1.62-3.6-3.6
				V66.441z"/>
		</g>
		<g>
			<path fill="#CCDEF0" d="M312.363,105.835c0-1.979,1.62-3.6,3.6-3.6h53.827c1.979,0,3.6,1.62,3.6,3.6v12.949
				c0,1.979-1.62,3.6-3.6,3.6h-53.827c-1.979,0-3.6-1.62-3.6-3.6V105.835z"/>
			<path fill="none" stroke="#010101" stroke-width="0.75" stroke-linecap="square" stroke-miterlimit="1" d="M312.363,105.835
				c0-1.979,1.62-3.6,3.6-3.6h53.827c1.979,0,3.6,1.62,3.6,3.6v12.949c0,1.979-1.62,3.6-3.6,3.6h-53.827c-1.979,0-3.6-1.62-3.6-3.6
				V105.835z"/>
		</g>
		<text transform="matrix(1 0 0 1 318.3643 113.9766)" font-size="6">Person Participant</text>
		<text transform="matrix(1 0 0 1 312.3633 99.3506)" font-size="7">TID 1020</text>
		<text transform="matrix(1 0 0 1 219.1646 71.0625)"><tspan x="0" y="0" font-size="6">Radiopharmaceutical</tspan><tspan x="0" y="7.2" font-size="6">Administration Patient</tspan><tspan x="0" y="14.4" font-size="6">Characteristics</tspan></text>
		<text transform="matrix(1 0 0 1 216.0552 59.5991)" font-size="7">TID 10024</text>
		<text transform="matrix(1 0 0 1 219.1646 35.1372)"><tspan x="0" y="0" font-size="6">Radiopharmaceutical</tspan><tspan x="0" y="7.2" font-size="6">Administration Event</tspan></text>
		<text transform="matrix(1 0 0 1 216.0552 20.8208)" font-size="7">TID 10022</text>
		<g>
			<path fill="#CCDEF0" d="M119.818,27.285c0-1.98,1.62-3.6,3.6-3.6h68.355c1.98,0,3.6,1.62,3.6,3.6V46.85c0,1.98-1.62,3.6-3.6,3.6
				h-68.355c-1.98,0-3.6-1.62-3.6-3.6V27.285z"/>
			<path fill="none" stroke="#010101" stroke-width="0.75" stroke-linecap="square" stroke-miterlimit="1" d="M119.818,27.285
				c0-1.98,1.62-3.6,3.6-3.6h68.355c1.98,0,3.6,1.62,3.6,3.6V46.85c0,1.98-1.62,3.6-3.6,3.6h-68.355c-1.98,0-3.6-1.62-3.6-3.6
				V27.285z"/>
		</g>
		<text transform="matrix(1 0 0 1 122.5532 35.1372)"><tspan x="0" y="0" font-size="6">Radiopharmaceutical</tspan><tspan x="0" y="7.2" font-size="6">Radiation Dose</tspan></text>
		<text transform="matrix(1 0 0 1 119.4438 20.8208)" font-size="7">TID 10021</text>
		<g>
			<g>
				<polyline fill="none" stroke="#000000" stroke-width="0.75" stroke-linecap="square" stroke-miterlimit="10" points="
					299.653,72.809 299.653,112.258 305.848,112.258 				"/>
				<g>
					<polygon points="304.361,114.437 312.492,112.258 304.361,110.079 					"/>
				</g>
			</g>
		</g>
		<text transform="matrix(1 0 0 1 312.3633 59.5991)" font-size="7">TID 10023</text>
		<g>
			<g>
				<polyline fill="none" stroke="#000000" stroke-width="0.75" stroke-linecap="square" stroke-miterlimit="10" points="
					299.653,33.882 299.653,72.695 305.584,72.695 				"/>
				<g>
					<polygon points="304.098,74.874 312.229,72.695 304.098,70.517 					"/>
				</g>
			</g>
		</g>
		<g>
			<g>
				
					<line fill="none" stroke="#000000" stroke-width="0.75" stroke-linecap="square" stroke-miterlimit="10" x1="291.985" y1="33.849" x2="305.758" y2="33.849"/>
				<g>
					<polygon points="304.271,36.027 312.402,33.849 304.271,31.67 					"/>
				</g>
			</g>
		</g>
		<g>
			<path fill="none" stroke="#000000" stroke-width="0.75" stroke-linecap="square" stroke-miterlimit="10" d="M382.557,32.081"/>
		</g>
		<g>
			<path fill="none" stroke="#000000" stroke-width="0.75" stroke-linecap="square" stroke-miterlimit="10" d="M382.557,116.683"/>
		</g>
		<g>
			<g>
				<polyline fill="none" stroke="#000000" stroke-width="0.75" stroke-linecap="square" stroke-miterlimit="10" points="
					204.121,33.792 204.121,72.729 210.055,72.729 				"/>
				<g>
					<polygon points="208.568,74.907 216.699,72.729 208.568,70.55 					"/>
				</g>
			</g>
		</g>
		<g>
			<g>
				
					<line fill="none" stroke="#000000" stroke-width="0.75" stroke-linecap="square" stroke-miterlimit="10" x1="195.374" y1="33.759" x2="210.229" y2="33.759"/>
				<g>
					<polygon points="208.742,35.938 216.873,33.759 208.742,31.58 					"/>
				</g>
			</g>
		</g>
		<rect x="317.913" y="69.408" fill="none" width="48.176" height="7.016"/>
		<text transform="matrix(1 0 0 1 317.9131 73.7012)" font-size="6">Organ Dose</text>
	</g>
</g>
</svg>
