<?xml version="1.0" encoding="utf-8"?>

<!DOCTYPE svg PUBLIC "-//W3C//DTD SVG 1.1//EN" "http://www.w3.org/Graphics/SVG/1.1/DTD/svg11.dtd">
<svg version="1.1" id="Layer_1" xmlns="http://www.w3.org/2000/svg" xmlns:xlink="http://www.w3.org/1999/xlink" x="0px" y="0px"
	 width="502px" height="247px" viewBox="0 0 502 247" enable-background="new 0 0 502 247" xml:space="preserve">

<defs>
	<style type="text/css">
	text {
	  font-family: Helvetica, Verdana, ArialUnicodeMS, san-serif
	}
	</style>
</defs>

<g>
   <desc>
	PS 3.7 Part 7: Message Exchange
   </desc>
</g>

<g>
	<rect x="1" y="1" fill="#F5EED6" width="500" height="245"/>
	<g>
		<rect x="75.5" y="15.092" fill="#FFFFFF" width="105.958" height="217"/>
		<rect x="181.458" y="15.092" fill="#CCDEF0" width="134.501" height="217"/>
		<rect x="315.458" y="15.092" fill="#B2CEE7" width="111.042" height="217"/>
		<g>
			<text transform="matrix(0.8815 0 0 1 229.0352 39.1782)"><tspan x="0" y="0" font-size="11">Message</tspan><tspan x="-26.898" y="11.208" font-size="11">(Command Request</tspan><tspan x="-30.269" y="22.417" font-size="11">and Associated Data)</tspan></text>
		</g>
		<g>
			<text transform="matrix(0.8815 0 0 1 110.9771 208.6211)"><tspan x="0" y="0" font-size="11">Invoking</tspan><tspan x="-30.548" y="11.209" font-size="11">DIMSE-Service-User</tspan></text>
		</g>
		<g>
			<text transform="matrix(0.8815 0 0 1 231.6753 208.6211)"><tspan x="0" y="0" font-size="11">DIMSE-</tspan><tspan x="-21.401" y="11.209" font-size="11">Service-Provider</tspan></text>
		</g>
		<g>
			<text transform="matrix(0.8815 0 0 1 347.207 208.6211)"><tspan x="0" y="0" font-size="11">Performing</tspan><tspan x="-24.134" y="11.209" font-size="11">DIMSE-Service-User</tspan></text>
		</g>
		<g>
			<text transform="matrix(0.8144 0.3373 -0.3827 0.9239 92.8594 30.1807)" font-size="11">Request Primitive</text>
		</g>
		<g>
			<text transform="matrix(0.8144 -0.3373 0.3827 0.9239 96.1523 188.3691)" font-size="11">Confirm Primitive</text>
		</g>
		<g>
			<line fill="#4F8ABE" x1="84.101" y1="31.462" x2="174.101" y2="68.739"/>
			<g>
				
					<line fill="none" stroke="#005695" stroke-width="2" stroke-linecap="round" stroke-miterlimit="1" x1="84.101" y1="31.462" x2="164.279" y2="64.671"/>
				<g>
					<polygon fill="#005695" points="160.748,66.982 174.101,68.739 163.417,60.54 					"/>
				</g>
			</g>
		</g>
		<g>
			<line fill="#4F8ABE" x1="174.101" y1="159.13" x2="84.101" y2="196.408"/>
			<g>
				
					<line fill="none" stroke="#005695" stroke-width="2" stroke-linecap="round" stroke-miterlimit="1" x1="174.101" y1="159.13" x2="93.923" y2="192.34"/>
				<g>
					<polygon fill="#005695" points="94.785,188.209 84.101,196.408 97.454,194.651 					"/>
				</g>
			</g>
		</g>
		<g>
			<text transform="matrix(0.8144 0.3373 -0.3827 0.9239 332.25 69.1807)" font-size="11">Indication Primitive</text>
		</g>
		<g>
			<text transform="matrix(0.8144 -0.3373 0.3827 0.9239 333.5439 152.1055)" font-size="11">Response Primitive</text>
		</g>
		<g>
			<line fill="#4F8ABE" x1="325.984" y1="68.874" x2="415.984" y2="106.152"/>
			<g>
				
					<line fill="none" stroke="#005695" stroke-width="2" stroke-linecap="round" stroke-miterlimit="1" x1="325.984" y1="68.874" x2="406.162" y2="102.084"/>
				<g>
					<polygon fill="#005695" points="402.632,104.395 415.984,106.152 405.3,97.953 					"/>
				</g>
			</g>
		</g>
		<g>
			<line fill="#4F8ABE" x1="415.984" y1="122.037" x2="325.984" y2="159.315"/>
			<g>
				
					<line fill="none" stroke="#005695" stroke-width="2" stroke-linecap="round" stroke-miterlimit="1" x1="415.984" y1="122.037" x2="335.807" y2="155.247"/>
				<g>
					<polygon fill="#005695" points="336.669,151.116 325.984,159.315 339.337,157.559 					"/>
				</g>
			</g>
		</g>
		
			<line fill="#4F8ABE" stroke="#005695" stroke-width="4" stroke-linecap="round" stroke-miterlimit="1" x1="315.959" y1="231.514" x2="315.959" y2="14.908"/>
		
			<line fill="#4F8ABE" stroke="#005695" stroke-width="4" stroke-linecap="round" stroke-miterlimit="1" x1="181.458" y1="231.514" x2="181.458" y2="14.908"/>
		
			<line fill="#4F8ABE" stroke="#005695" stroke-width="2" stroke-linecap="round" stroke-miterlimit="1" stroke-dasharray="4" x1="310.959" y1="68.874" x2="186.458" y2="68.874"/>
		<g>
			<text transform="matrix(0.8815 0 0 1 229.0352 129.1113)"><tspan x="0" y="0" font-size="11">Message</tspan><tspan x="-31.179" y="11.208" font-size="11">(Command Response</tspan><tspan x="-30.269" y="22.416" font-size="11">and Associated Data)</tspan></text>
		</g>
		
			<line fill="#4F8ABE" stroke="#005695" stroke-width="2" stroke-linecap="round" stroke-miterlimit="1" stroke-dasharray="4" x1="310.959" y1="158.809" x2="186.458" y2="158.809"/>
	</g>
</g>
</svg>
