<?xml version="1.0" encoding="utf-8"?>

<!DOCTYPE svg PUBLIC "-//W3C//DTD SVG 1.1//EN" "http://www.w3.org/Graphics/SVG/1.1/DTD/svg11.dtd">
<svg version="1.1" id="Layer_1" xmlns="http://www.w3.org/2000/svg" xmlns:xlink="http://www.w3.org/1999/xlink" x="0px" y="0px"
	 width="502px" height="227px" viewBox="0 0 502 227" enable-background="new 0 0 502 227" xml:space="preserve">

<defs>
	<style type="text/css">
	text {
	  font-family: Helvetica, Verdana, ArialUnicodeMS, san-serif
	}
	</style>
</defs>

<g>
   <desc>
	PS 3.7 Part 7: Message Exchange
   </desc>
</g>

<g>
	<rect x="1" y="1" fill="#F5EED6" width="500" height="225"/>
	<g>
		<rect x="62" y="15.893" fill="#FFFFFF" width="126" height="195.398"/>
		<rect x="188" y="15.893" fill="#CCDEF0" width="126" height="195.398"/>
		<rect x="314" y="15.893" fill="#B2CEE7" width="126" height="195.398"/>
		<g>
			<text transform="matrix(0.8815 0 0 1 101.2236 179.8975)"><tspan x="0" y="0" font-size="11">Performing</tspan><tspan x="-24.135" y="11.208" font-size="11">DIMSE-Service-User</tspan></text>
		</g>
		<g>
			<text transform="matrix(0.8815 0 0 1 106.877 38.2178)"><tspan x="0" y="0" font-size="11">Invoking</tspan><tspan x="-30.548" y="11.208" font-size="11">DIMSE-Service-User</tspan></text>
		</g>
		<g>
			<text transform="matrix(0.8815 0 0 1 227.0156 173.418)" font-size="11">Notification</text>
		</g>
		<g>
			<text transform="matrix(0.8815 0 0 1 229.7075 57.8979)" font-size="11">Operation</text>
		</g>
		<g>
			<text transform="matrix(0.8815 0 0 1 355.1523 179.8975)"><tspan x="0" y="0" font-size="11">Invoking</tspan><tspan x="-30.548" y="11.208" font-size="11">DIMSE-Service-User</tspan></text>
		</g>
		<g>
			<text transform="matrix(0.8815 0 0 1 349.498 38.2178)"><tspan x="0" y="0" font-size="11">Performing</tspan><tspan x="-24.134" y="11.208" font-size="11">DIMSE-Service-User</tspan></text>
		</g>
		<path fill="#4F8ABE" stroke="#005695" stroke-width="4" stroke-linecap="round" stroke-miterlimit="1" d="M314,15.709"/>
		<path fill="#4F8ABE" stroke="#005695" stroke-width="4" stroke-linecap="round" stroke-miterlimit="1" d="M314,210.713"/>
		<path fill="#4F8ABE" stroke="#005695" stroke-width="4" stroke-linecap="round" stroke-miterlimit="1" d="M188,15.709"/>
		<path fill="#4F8ABE" stroke="#005695" stroke-width="4" stroke-linecap="round" stroke-miterlimit="1" d="M188,210.713"/>
		<g>
			<g>
				
					<line fill="none" stroke="#005695" stroke-width="2" stroke-linecap="round" stroke-miterlimit="1" x1="87.2" y1="63.286" x2="404.168" y2="63.286"/>
				<g>
					<polygon fill="#005695" points="401.79,66.772 414.799,63.286 401.79,59.8 					"/>
				</g>
			</g>
		</g>
		<g>
			<text transform="matrix(0.8815 0 0 1 75.8521 106.1309)"><tspan x="0" y="0" font-size="12">DIMSE-Service-User</tspan><tspan x="34.333" y="12.408" font-size="12">(Role b)</tspan></text>
		</g>
		<g>
			<text transform="matrix(0.8815 0 0 1 324.1328 106.1309)"><tspan x="0" y="0" font-size="12">DIMSE-Service-User</tspan><tspan x="34.333" y="12.408" font-size="12">(Role a)</tspan></text>
		</g>
		<g>
			<g>
				
					<line fill="none" stroke="#005695" stroke-width="2" stroke-linecap="round" stroke-miterlimit="1" x1="414.799" y1="159.686" x2="97.831" y2="159.686"/>
				<g>
					<polygon fill="#005695" points="100.208,156.199 87.2,159.686 100.208,163.172 					"/>
				</g>
			</g>
		</g>
	</g>
</g>
</svg>
