<?xml version="1.0" encoding="utf-8"?>

<!DOCTYPE svg PUBLIC "-//W3C//DTD SVG 1.1//EN" "http://www.w3.org/Graphics/SVG/1.1/DTD/svg11.dtd">
<svg version="1.1" id="Layer_1" xmlns="http://www.w3.org/2000/svg" xmlns:xlink="http://www.w3.org/1999/xlink" x="0px" y="0px"
	 width="502px" height="222px" viewBox="0 0 502 222" enable-background="new 0 0 502 222" xml:space="preserve">

<defs>
	<style type="text/css">
	text {
	  font-family: Helvetica, Verdana, ArialUnicodeMS, san-serif
	}
	</style>
</defs>

<g>
   <desc>
	PS 3.7 Part 7: Message Exchange
   </desc>
</g>

<g>
	<rect x="1" y="1" fill="#F5EED6" width="500" height="220"/>
	<g>
		<text transform="matrix(1 0 0 1 137.0845 115.6328)"><tspan x="0" y="0" font-size="10">A-ASSOCIATE-Request</tspan><tspan x="28.625" y="12" font-size="10">( A          B)</tspan></text>
		<text transform="matrix(1 0 0 1 299.3525 115.6328)"><tspan x="0" y="0" font-size="10">A-ASSOCIATE-Response</tspan><tspan x="33.906" y="12" font-size="10">(B          A)</tspan></text>
		<text transform="matrix(1 0 0 1 31.3242 27.6313)" font-size="12">DICOM AE “A”</text>
		
			<rect x="31.323" y="34.006" fill="#86B2D8" stroke="#000000" stroke-width="0.9072" stroke-linecap="round" stroke-linejoin="round" stroke-miterlimit="1" width="439.354" height="45.001"/>
		<rect x="85.665" y="44.968" fill="#CCDEF0" stroke="#000000" width="128.992" height="23.4"/>
		<rect x="85.665" y="47.812" fill="none" width="127.986" height="17.71"/>
		<text transform="matrix(1 0 0 1 100.5249 53.5396)"><tspan x="0" y="0" font-size="8">User Identification Sub-item</tspan><tspan x="39.131" y="9.6" font-size="8">(58H)</tspan></text>
		<rect x="214.325" y="44.968" fill="#CCDEF0" stroke="#000000" width="124.791" height="23.4"/>
		<rect x="217.128" y="47.812" fill="none" width="119.184" height="17.71"/>
		<text transform="matrix(1 0 0 1 244.2568 53.5396)"><tspan x="0" y="0" font-size="8">Identification Type</tspan><tspan x="27.574" y="9.6" font-size="8">(3)</tspan></text>
		<rect x="339.115" y="44.968" fill="#CCDEF0" stroke="#000000" width="124.791" height="23.4"/>
		<rect x="341.92" y="47.812" fill="none" width="119.184" height="17.71"/>
		<text transform="matrix(1 0 0 1 393.0654 53.5396)"><tspan x="0" y="0" font-size="8">User</tspan><tspan x="-14.014" y="9.6" font-size="8">Identification</tspan></text>
		
			<rect x="31.323" y="160.007" fill="#86B2D8" stroke="#000000" stroke-width="0.9072" stroke-linecap="round" stroke-linejoin="round" stroke-miterlimit="1" width="439.354" height="45"/>
		<rect x="85.665" y="170.968" fill="#CCDEF0" stroke="#000000" width="128.992" height="23.4"/>
		<rect x="85.665" y="173.813" fill="none" width="127.986" height="17.709"/>
		<text transform="matrix(1 0 0 1 100.5249 179.541)"><tspan x="0" y="0" font-size="8">User identification Sub-Item</tspan><tspan x="39.131" y="9.601" font-size="8">(58H)</tspan></text>
		<rect x="214.325" y="170.968" fill="#CCDEF0" stroke="#000000" width="124.791" height="23.4"/>
		<rect x="217.128" y="178.241" fill="none" width="119.184" height="8.854"/>
		<text transform="matrix(1 0 0 1 245.8154 183.9688)" font-size="8">Server Response</text>
		<rect x="339.115" y="170.968" fill="#CCDEF0" stroke="#000000" width="124.791" height="23.4"/>
		<text transform="matrix(1 0 0 1 31.3242 153.6309)" font-size="12">DICOM AE “B”</text>
		<g>
			<line fill="#4F8ABE" x1="130.048" y1="80.446" x2="130.048" y2="157.848"/>
			<g>
				
					<line fill="none" stroke="#005695" stroke-width="3" stroke-linecap="round" stroke-miterlimit="1" x1="130.048" y1="80.446" x2="130.048" y2="147.217"/>
				<g>
					<polygon fill="#005695" points="126.562,144.839 130.048,157.848 133.535,144.839 					"/>
				</g>
			</g>
		</g>
		<g>
			<line fill="#4F8ABE" x1="294.051" y1="157.848" x2="294.051" y2="80.446"/>
			<g>
				
					<line fill="none" stroke="#005695" stroke-width="3" stroke-linecap="round" stroke-miterlimit="1" x1="294.051" y1="157.848" x2="294.051" y2="91.078"/>
				<g>
					<polygon fill="#005695" points="297.537,93.455 294.051,80.446 290.564,93.455 					"/>
				</g>
			</g>
		</g>
		<g>
			<line fill="#4F8ABE" x1="181.457" y1="124.54" x2="204.065" y2="124.54"/>
			<g>
				
					<line fill="none" stroke="#005695" stroke-width="2" stroke-linecap="round" stroke-miterlimit="1" x1="181.457" y1="124.54" x2="196.978" y2="124.54"/>
				<g>
					<polygon fill="#005695" points="195.393,126.864 204.065,124.54 195.393,122.216 					"/>
				</g>
			</g>
		</g>
		<g>
			<line fill="#4F8ABE" x1="368.158" y1="124.54" x2="345.551" y2="124.54"/>
			<g>
				
					<line fill="none" stroke="#005695" stroke-width="2" stroke-linecap="round" stroke-miterlimit="1" x1="368.158" y1="124.54" x2="352.639" y2="124.54"/>
				<g>
					<polygon fill="#005695" points="354.224,122.216 345.551,124.54 354.224,126.864 					"/>
				</g>
			</g>
		</g>
	</g>
</g>
</svg>
