<?xml version="1.0" encoding="utf-8"?>

<!DOCTYPE svg PUBLIC "-//W3C//DTD SVG 1.1//EN" "http://www.w3.org/Graphics/SVG/1.1/DTD/svg11.dtd">
<svg version="1.1" id="Layer_1" xmlns="http://www.w3.org/2000/svg" xmlns:xlink="http://www.w3.org/1999/xlink" x="0px" y="0px"
	 width="502px" height="237px" viewBox="0 0 502 237" enable-background="new 0 0 502 237" xml:space="preserve">

<defs>
	<style type="text/css">
	text {
	  font-family: Helvetica, Verdana, ArialUnicodeMS, san-serif
	}
	</style>
</defs>

<g>
   <desc>
	PS 3.7 Part 7: Message Exchange
   </desc>
</g>

<g>
	<rect x="1" y="1" fill="#F5EED6" width="500" height="235"/>
	<g>
		<rect x="96.302" y="29.423" fill="#FFFFFF" stroke="#000000" width="355.676" height="58.323"/>
		<rect x="108.58" y="41.746" fill="#B2CEE7" stroke="#000000" width="164.799" height="36"/>
		<rect x="273.379" y="41.746" fill="#CCDEF0" stroke="#000000" width="169" height="36"/>
		
			<line fill="none" stroke="#000000" stroke-linecap="square" stroke-linejoin="bevel" stroke-dasharray="4" x1="273.422" y1="41.746" x2="332.027" y2="113.746"/>
		
			<line fill="none" stroke="#000000" stroke-linecap="square" stroke-linejoin="bevel" stroke-dasharray="4" x1="108.554" y1="41.674" x2="50.199" y2="113.674"/>
		
			<line fill="none" stroke="#000000" stroke-linecap="square" stroke-linejoin="bevel" stroke-dasharray="4" x1="273.422" y1="77.458" x2="332.34" y2="149.458"/>
		
			<line fill="none" stroke="#000000" stroke-linecap="square" stroke-linejoin="bevel" stroke-dasharray="4" x1="108.554" y1="77.458" x2="50.772" y2="149.458"/>
		<rect x="50.022" y="113.458" fill="#B2CEE7" stroke="#000000" width="281.914" height="36"/>
		
			<line fill="none" stroke="#000000" stroke-linecap="square" stroke-linejoin="bevel" stroke-dasharray="4" x1="273.422" y1="113.183" x2="332.027" y2="185.183"/>
		
			<line fill="none" stroke="#000000" stroke-linecap="square" stroke-linejoin="bevel" stroke-dasharray="4" x1="108.554" y1="113.11" x2="50.199" y2="185.11"/>
		
			<line fill="none" stroke="#000000" stroke-linecap="square" stroke-linejoin="bevel" stroke-dasharray="4" x1="273.422" y1="148.895" x2="332.34" y2="220.895"/>
		
			<line fill="none" stroke="#000000" stroke-linecap="square" stroke-linejoin="bevel" stroke-dasharray="4" x1="107.981" y1="148.895" x2="50.199" y2="220.895"/>
		<rect x="137.979" y="184.895" fill="#86B2D8" stroke="#000000" width="193.957" height="36"/>
		<rect x="95.156" y="184.895" fill="#86B2D8" stroke="#000000" width="42.823" height="36"/>
		<rect x="50.199" y="184.895" fill="#86B2D8" stroke="#000000" width="44.957" height="36"/>
		<rect x="108.58" y="113.458" fill="#86B2D8" stroke="#000000" width="164.799" height="36"/>
		<g>
			<text transform="matrix(0.8815 0 0 1 64.3228 205.9375)" font-size="11">Tag</text>
		</g>
		<g>
			<text transform="matrix(0.8815 0 0 1 101.7378 205.9375)" font-size="11">Length</text>
		</g>
		<g>
			<text transform="matrix(0.8815 0 0 1 222.5566 205.9375)" font-size="11">Value</text>
		</g>
		<g>
			<text transform="matrix(0.8815 0 0 1 159.9893 63.9375)" font-size="11">Command Set</text>
		</g>
		<g>
			<text transform="matrix(0.8815 0 0 1 96.3027 25.8574)" font-size="11">DICOM Message</text>
		</g>
		<g>
			<text transform="matrix(0.8815 0 0 1 149.4805 134.5234)" font-size="11">Command Element</text>
		</g>
		<g>
			<text transform="matrix(0.8815 0 0 1 339.0127 56.9756)"><tspan x="0" y="0" font-size="11">Data Set</tspan><tspan x="-36.396" y="10.008" font-size="10">(defined in DICOM Part 5)</tspan></text>
		</g>
	</g>
</g>
</svg>
