<?xml version="1.0" encoding="utf-8"?>

<!DOCTYPE svg PUBLIC "-//W3C//DTD SVG 1.1//EN" "http://www.w3.org/Graphics/SVG/1.1/DTD/svg11.dtd">
<svg version="1.1" id="Layer_1" xmlns="http://www.w3.org/2000/svg" xmlns:xlink="http://www.w3.org/1999/xlink" x="0px" y="0px"
	 width="502px" height="222px" viewBox="0 0 502 222" enable-background="new 0 0 502 222" xml:space="preserve">

<defs>
	<style type="text/css">
	text {
	  font-family: Helvetica, Verdana, ArialUnicodeMS, san-serif
	}
	</style>
</defs>

<g>
   <desc>
	PS 3.7 Part 7: Message Exchange
   </desc>
</g>

<g>
	<rect x="1" y="1" fill="#F5EED6" width="500" height="220"/>
	<g>
		<g>
			<line fill="#4F8ABE" x1="129.991" y1="80.147" x2="129.991" y2="157.547"/>
			<g>
				
					<line fill="none" stroke="#005695" stroke-width="3" stroke-linecap="round" stroke-miterlimit="1" x1="129.991" y1="80.147" x2="129.991" y2="146.916"/>
				<g>
					<polygon fill="#005695" points="126.505,144.538 129.991,157.547 133.478,144.538 					"/>
				</g>
			</g>
		</g>
		<g>
			<line fill="#4F8ABE" x1="293.992" y1="157.547" x2="293.992" y2="80.147"/>
			<g>
				
					<line fill="none" stroke="#005695" stroke-width="3" stroke-linecap="round" stroke-miterlimit="1" x1="293.992" y1="157.547" x2="293.992" y2="90.779"/>
				<g>
					<polygon fill="#005695" points="297.479,93.156 293.992,80.147 290.506,93.156 					"/>
				</g>
			</g>
		</g>
		<text transform="matrix(1 0 0 1 137.0845 115.6328)"><tspan x="0" y="0" font-size="10">A-ASSOCIATE-Request</tspan><tspan x="28.625" y="12" font-size="10">( A          B)</tspan></text>
		<g>
			<line fill="#4F8ABE" x1="181.4" y1="124.239" x2="204.008" y2="124.239"/>
			<g>
				
					<line fill="none" stroke="#005695" stroke-width="2" stroke-linecap="round" stroke-miterlimit="1" x1="181.4" y1="124.239" x2="196.921" y2="124.239"/>
				<g>
					<polygon fill="#005695" points="195.335,126.563 204.008,124.239 195.335,121.915 					"/>
				</g>
			</g>
		</g>
		<text transform="matrix(1 0 0 1 299.3525 115.6328)"><tspan x="0" y="0" font-size="10">A-ASSOCIATE-Response</tspan><tspan x="33.906" y="12" font-size="10">(B          A)</tspan></text>
		<g>
			<line fill="#4F8ABE" x1="368.1" y1="124.239" x2="345.492" y2="124.239"/>
			<g>
				
					<line fill="none" stroke="#005695" stroke-width="2" stroke-linecap="round" stroke-miterlimit="1" x1="368.1" y1="124.239" x2="352.58" y2="124.239"/>
				<g>
					<polygon fill="#005695" points="354.165,121.915 345.492,124.239 354.165,126.563 					"/>
				</g>
			</g>
		</g>
		<text transform="matrix(1 0 0 1 31.3242 27.6313)" font-size="12">DICOM AE “A”</text>
		
			<rect x="31.323" y="34.007" fill="#86B2D8" stroke="#000000" stroke-width="0.9072" stroke-linecap="round" stroke-linejoin="round" stroke-miterlimit="1" width="439.354" height="45"/>
		<rect x="85.665" y="44.968" fill="#CCDEF0" stroke="#000000" width="128.993" height="23.4"/>
		<rect x="85.665" y="47.812" fill="none" width="127.985" height="17.71"/>
		<text transform="matrix(1 0 0 1 100.5249 53.5396)"><tspan x="0" y="0" font-size="8">User Identification Sub-item</tspan><tspan x="39.131" y="9.6" font-size="8">(58H)</tspan></text>
		<rect x="214.324" y="44.968" fill="#CCDEF0" stroke="#000000" width="124.792" height="23.4"/>
		<rect x="217.128" y="47.812" fill="none" width="119.184" height="17.71"/>
		<text transform="matrix(1 0 0 1 244.2568 53.5396)"><tspan x="0" y="0" font-size="8">Identification Type</tspan><tspan x="27.574" y="9.6" font-size="8">(1)</tspan></text>
		<rect x="339.115" y="44.968" fill="#CCDEF0" stroke="#000000" width="124.791" height="23.4"/>
		<rect x="341.92" y="53.663" fill="none" width="119.184" height="6.009"/>
		<text transform="matrix(1 0 0 1 385.2842 59.3911)" font-size="8">Usernme</text>
		
			<rect x="31.323" y="160.007" fill="#86B2D8" stroke="#000000" stroke-width="0.9072" stroke-linecap="round" stroke-linejoin="round" stroke-miterlimit="1" width="439.354" height="45"/>
		<rect x="191.409" y="178.241" fill="none" width="119.183" height="8.854"/>
		<text transform="matrix(1 0 0 1 217.4336 183.9688)" font-size="8">(No Sub-Item 58H)</text>
		<text transform="matrix(1 0 0 1 31.3242 153.6309)" font-size="12">DICOM AE “B”</text>
	</g>
</g>
</svg>
