<?xml version="1.0" encoding="utf-8"?>

<!DOCTYPE svg PUBLIC "-//W3C//DTD SVG 1.1//EN" "http://www.w3.org/Graphics/SVG/1.1/DTD/svg11.dtd">
<svg version="1.1" id="Layer_1" xmlns="http://www.w3.org/2000/svg" xmlns:xlink="http://www.w3.org/1999/xlink" x="0px" y="0px"
	 width="502px" height="282px" viewBox="0 0 502 282" enable-background="new 0 0 502 282" xml:space="preserve">

<defs>
	<style type="text/css">
	text {
	  font-family: Helvetica, Verdana, ArialUnicodeMS, san-serif
	}
	</style>
</defs>

<g>
   <desc>
	PS 3.7 Part 7: Message Exchange
   </desc>
</g>

<g>
	<rect x="1" y="1" fill="#F5EED6" width="500" height="280"/>
	<g>
		
			<rect x="11.367" y="30.525" fill="#86B2D8" stroke="#010101" stroke-width="0.4887" stroke-linecap="round" stroke-linejoin="round" stroke-miterlimit="1" width="180" height="128.938"/>
		<text transform="matrix(1 0 0 1 11.1865 27.998)"><tspan x="0" y="0" font-size="9">Service Class </tspan><tspan x="57.516" y="0" font-size="14">a</tspan></text>
		<g>
			<path fill="#B2CEE7" d="M105.142,52.048c0-1.98,1.62-3.6,3.6-3.6h73.16c1.98,0,3.6,1.62,3.6,3.6v77.978c0,1.98-1.62,3.6-3.6,3.6
				h-73.16c-1.98,0-3.6-1.62-3.6-3.6V52.048z"/>
			
				<path fill="none" stroke="#010101" stroke-width="0.75" stroke-linecap="round" stroke-linejoin="round" stroke-miterlimit="10" d="
				M105.142,52.048c0-1.98,1.62-3.6,3.6-3.6h73.16c1.98,0,3.6,1.62,3.6,3.6v77.978c0,1.98-1.62,3.6-3.6,3.6h-73.16
				c-1.98,0-3.6-1.62-3.6-3.6V52.048z"/>
		</g>
		<text transform="matrix(1 0 0 1 108.3398 56.6499)"><tspan x="0" y="0" font-size="5.4944">Identified by SOP Class UID </tspan><tspan x="70.54" y="0" font-size="6.1812">2</tspan></text>
		<text transform="matrix(1 0 0 1 105.2158 45.3818)"><tspan x="0" y="0" font-size="6.1812">SOP CLASS </tspan><tspan x="36.758" y="0" font-size="9.6152">2</tspan></text>
		
			<rect x="111.322" y="79.905" fill="#CCDEF0" stroke="#000000" stroke-width="0.75" stroke-linecap="round" stroke-linejoin="round" stroke-miterlimit="1" width="67.992" height="19.161"/>
		<text transform="matrix(1 0 0 1 111.729 77.3101)"><tspan x="0" y="0" font-size="6.1812">DSG </tspan><tspan x="15.112" y="0" font-size="9.6152">2</tspan></text>
		<g>
			<path fill="#FFFFFF" d="M114.63,86.906c0-1.98,1.62-3.6,3.6-3.6h54.18c1.98,0,3.6,1.62,3.6,3.6v5.161c0,1.98-1.62,3.6-3.6,3.6
				h-54.18c-1.98,0-3.6-1.62-3.6-3.6V86.906z"/>
			
				<path fill="none" stroke="#010101" stroke-width="0.75" stroke-linecap="round" stroke-linejoin="round" stroke-miterlimit="10" d="
				M114.63,86.906c0-1.98,1.62-3.6,3.6-3.6h54.18c1.98,0,3.6,1.62,3.6,3.6v5.161c0,1.98-1.62,3.6-3.6,3.6h-54.18
				c-1.98,0-3.6-1.62-3.6-3.6V86.906z"/>
		</g>
		<text transform="matrix(1 0 0 1 123.3291 92.0054)"><tspan x="0" y="0" font-size="6.1812">OPERATION </tspan><tspan x="38.123" y="0" font-size="9.6152">Z</tspan></text>
		
			<rect x="111.322" y="110.059" fill="#CCDEF0" stroke="#000000" stroke-width="0.75" stroke-linecap="round" stroke-linejoin="round" stroke-miterlimit="1" width="67.992" height="19.16"/>
		<text transform="matrix(1 0 0 1 142.5195 107.4648)" font-size="9.6152">+</text>
		<text transform="matrix(1 0 0 1 135.7627 122.1597)"><tspan x="0" y="0" font-size="6.1812">IOD </tspan><tspan x="12.707" y="0" font-size="9.6152">A</tspan></text>
		<g>
			<path fill="#B2CEE7" d="M17.232,52.048c0-1.98,1.62-3.6,3.6-3.6h73.155c1.98,0,3.6,1.62,3.6,3.6v92.178c0,1.979-1.62,3.6-3.6,3.6
				H20.833c-1.98,0-3.6-1.62-3.6-3.6V52.048z"/>
			
				<path fill="none" stroke="#010101" stroke-width="0.75" stroke-linecap="round" stroke-linejoin="round" stroke-miterlimit="10" d="
				M17.232,52.048c0-1.98,1.62-3.6,3.6-3.6h73.155c1.98,0,3.6,1.62,3.6,3.6v92.178c0,1.979-1.62,3.6-3.6,3.6H20.833
				c-1.98,0-3.6-1.62-3.6-3.6V52.048z"/>
		</g>
		<text transform="matrix(1 0 0 1 20.4282 56.6499)"><tspan x="0" y="0" font-size="5.4944">Identified by SOP Class UID </tspan><tspan x="70.54" y="0" font-size="6.1812">1</tspan></text>
		<text transform="matrix(1 0 0 1 17.3052 45.3818)"><tspan x="0" y="0" font-size="6.1812">SOP CLASS </tspan><tspan x="36.758" y="0" font-size="9.6152">1</tspan></text>
		
			<rect x="23.411" y="79.905" fill="#CCDEF0" stroke="#000000" stroke-width="0.75" stroke-linecap="round" stroke-linejoin="round" stroke-miterlimit="1" width="67.993" height="31.421"/>
		<text transform="matrix(1 0 0 1 23.8159 77.3101)"><tspan x="0" y="0" font-size="6.1812">DSG </tspan><tspan x="15.112" y="0" font-size="9.6152">1</tspan></text>
		<g>
			<path fill="#FFFFFF" d="M26.721,86.906c0-1.98,1.62-3.6,3.6-3.6h54.175c1.98,0,3.6,1.62,3.6,3.6v5.161c0,1.98-1.62,3.6-3.6,3.6
				H30.321c-1.98,0-3.6-1.62-3.6-3.6V86.906z"/>
			
				<path fill="none" stroke="#010101" stroke-width="0.75" stroke-linecap="round" stroke-linejoin="round" stroke-miterlimit="10" d="
				M26.721,86.906c0-1.98,1.62-3.6,3.6-3.6h54.175c1.98,0,3.6,1.62,3.6,3.6v5.161c0,1.98-1.62,3.6-3.6,3.6H30.321
				c-1.98,0-3.6-1.62-3.6-3.6V86.906z"/>
		</g>
		<text transform="matrix(1 0 0 1 35.146 92.0054)"><tspan x="0" y="0" font-size="6.1812">OPERATION </tspan><tspan x="38.123" y="0" font-size="9.6152">X</tspan></text>
		<g>
			<path fill="#FFFFFF" d="M26.721,99.267c0-1.98,1.62-3.6,3.6-3.6h54.175c1.98,0,3.6,1.62,3.6,3.6v5.162c0,1.98-1.62,3.6-3.6,3.6
				H30.321c-1.98,0-3.6-1.62-3.6-3.6V99.267z"/>
			
				<path fill="none" stroke="#010101" stroke-width="0.75" stroke-linecap="round" stroke-linejoin="round" stroke-miterlimit="10" d="
				M26.721,99.267c0-1.98,1.62-3.6,3.6-3.6h54.175c1.98,0,3.6,1.62,3.6,3.6v5.162c0,1.98-1.62,3.6-3.6,3.6H30.321
				c-1.98,0-3.6-1.62-3.6-3.6V99.267z"/>
		</g>
		<text transform="matrix(1 0 0 1 35.146 104.3672)"><tspan x="0" y="0" font-size="6.1812">OPERATION </tspan><tspan x="38.123" y="0" font-size="9.6152">Y</tspan></text>
		
			<rect x="23.411" y="123.076" fill="#CCDEF0" stroke="#000000" stroke-width="0.75" stroke-linecap="round" stroke-linejoin="round" stroke-miterlimit="1" width="67.993" height="19.147"/>
		<text transform="matrix(1 0 0 1 54.6064 120.4761)" font-size="9.6152">+</text>
		<text transform="matrix(1 0 0 1 47.8525 135.3291)"><tspan x="0" y="0" font-size="6.1812">IOD </tspan><tspan x="12.707" y="0" font-size="9.6152">A</tspan></text>
		
			<rect x="196.813" y="30.525" fill="#86B2D8" stroke="#010101" stroke-width="0.4887" stroke-linecap="round" stroke-linejoin="round" stroke-miterlimit="1" width="294" height="159.988"/>
		<text transform="matrix(1 0 0 1 196.8135 27.998)"><tspan x="0" y="0" font-size="9">Service Class </tspan><tspan x="57.516" y="0" font-size="14">b</tspan></text>
		<g>
			<path fill="#CCDEF0" d="M205.154,52.048c0-1.98,1.62-3.6,3.6-3.6h181.459c1.979,0,3.6,1.62,3.6,3.6v125.866
				c0,1.979-1.62,3.6-3.6,3.6H208.754c-1.98,0-3.6-1.62-3.6-3.6V52.048z"/>
			
				<path fill="none" stroke="#010101" stroke-width="0.75" stroke-linecap="round" stroke-linejoin="round" stroke-miterlimit="10" d="
				M205.154,52.048c0-1.98,1.62-3.6,3.6-3.6h181.459c1.979,0,3.6,1.62,3.6,3.6v125.866c0,1.979-1.62,3.6-3.6,3.6H208.754
				c-1.98,0-3.6-1.62-3.6-3.6V52.048z"/>
		</g>
		<text transform="matrix(1 0 0 1 208.3477 56.6499)"><tspan x="0" y="0" font-size="5.4944">Identified by SOP Class UID </tspan><tspan x="70.539" y="0" font-size="9">c</tspan></text>
		<text transform="matrix(1 0 0 1 205.2422 45.3818)"><tspan x="0" y="0" font-size="6.1812">META SOP CLASS </tspan><tspan x="55.646" y="0" font-size="11">c</tspan></text>
		<g>
			<path fill="#B2CEE7" d="M401.855,50.821c0-1.98,1.62-3.6,3.6-3.6h73.156c1.979,0,3.6,1.62,3.6,3.6v92.178
				c0,1.979-1.62,3.6-3.6,3.6h-73.156c-1.979,0-3.6-1.62-3.6-3.6V50.821z"/>
			
				<path fill="none" stroke="#010101" stroke-width="0.75" stroke-linecap="round" stroke-linejoin="round" stroke-miterlimit="10" d="
				M401.855,50.821c0-1.98,1.62-3.6,3.6-3.6h73.156c1.979,0,3.6,1.62,3.6,3.6v92.178c0,1.979-1.62,3.6-3.6,3.6h-73.156
				c-1.979,0-3.6-1.62-3.6-3.6V50.821z"/>
		</g>
		<text transform="matrix(1 0 0 1 405.0488 55.4224)"><tspan x="0" y="0" font-size="5.4944">Identified by SOP Class UID </tspan><tspan x="70.539" y="0" font-size="6.1812">5</tspan></text>
		<text transform="matrix(1 0 0 1 401.9258 44.1543)"><tspan x="0" y="0" font-size="6.1812">SOP CLASS </tspan><tspan x="36.758" y="0" font-size="9.6152">5</tspan></text>
		
			<rect x="408.034" y="78.678" fill="#CCDEF0" stroke="#000000" stroke-width="0.75" stroke-linecap="round" stroke-linejoin="round" stroke-miterlimit="1" width="67.993" height="31.421"/>
		<text transform="matrix(1 0 0 1 408.4365 76.0825)"><tspan x="0" y="0" font-size="6.1812">DSG </tspan><tspan x="15.112" y="0" font-size="9.6152">5</tspan></text>
		<g>
			<path fill="#FFFFFF" d="M411.344,85.678c0-1.98,1.62-3.6,3.6-3.6h54.176c1.979,0,3.6,1.62,3.6,3.6v5.161c0,1.98-1.62,3.6-3.6,3.6
				h-54.176c-1.979,0-3.6-1.62-3.6-3.6V85.678z"/>
			
				<path fill="none" stroke="#010101" stroke-width="0.75" stroke-linecap="round" stroke-linejoin="round" stroke-miterlimit="10" d="
				M411.344,85.678c0-1.98,1.62-3.6,3.6-3.6h54.176c1.979,0,3.6,1.62,3.6,3.6v5.161c0,1.98-1.62,3.6-3.6,3.6h-54.176
				c-1.979,0-3.6-1.62-3.6-3.6V85.678z"/>
		</g>
		<text transform="matrix(1 0 0 1 418.4355 90.7778)"><tspan x="0" y="0" font-size="6.1812">OPERATION </tspan><tspan x="38.123" y="0" font-size="9.6152">W</tspan></text>
		<g>
			<path fill="#FFFFFF" d="M411.344,98.04c0-1.98,1.62-3.6,3.6-3.6h54.176c1.979,0,3.6,1.62,3.6,3.6v5.162c0,1.98-1.62,3.6-3.6,3.6
				h-54.176c-1.979,0-3.6-1.62-3.6-3.6V98.04z"/>
			
				<path fill="none" stroke="#010101" stroke-width="0.75" stroke-linecap="round" stroke-linejoin="round" stroke-miterlimit="10" d="
				M411.344,98.04c0-1.98,1.62-3.6,3.6-3.6h54.176c1.979,0,3.6,1.62,3.6,3.6v5.162c0,1.98-1.62,3.6-3.6,3.6h-54.176
				c-1.979,0-3.6-1.62-3.6-3.6V98.04z"/>
		</g>
		<text transform="matrix(1 0 0 1 419.7666 103.1396)"><tspan x="0" y="0" font-size="6.1812">OPERATION </tspan><tspan x="38.122" y="0" font-size="9.6152">X</tspan></text>
		
			<rect x="408.034" y="121.849" fill="#CCDEF0" stroke="#000000" stroke-width="0.75" stroke-linecap="round" stroke-linejoin="round" stroke-miterlimit="1" width="67.993" height="19.147"/>
		<text transform="matrix(1 0 0 1 439.2266 119.2485)" font-size="9.6152">+</text>
		<text transform="matrix(1 0 0 1 432.4727 134.1016)"><tspan x="0" y="0" font-size="6.1812">IOD </tspan><tspan x="12.707" y="0" font-size="9.6152">B</tspan></text>
		<g>
			<path fill="#B2CEE7" d="M303.063,80.048c0-1.98,1.62-3.6,3.6-3.6h73.161c1.979,0,3.6,1.62,3.6,3.6v77.978
				c0,1.979-1.62,3.6-3.6,3.6h-73.161c-1.979,0-3.6-1.62-3.6-3.6V80.048z"/>
			
				<path fill="none" stroke="#010101" stroke-width="0.75" stroke-linecap="round" stroke-linejoin="round" stroke-miterlimit="10" d="
				M303.063,80.048c0-1.98,1.62-3.6,3.6-3.6h73.161c1.979,0,3.6,1.62,3.6,3.6v77.978c0,1.979-1.62,3.6-3.6,3.6h-73.161
				c-1.979,0-3.6-1.62-3.6-3.6V80.048z"/>
		</g>
		<text transform="matrix(1 0 0 1 306.2598 84.6499)"><tspan x="0" y="0" font-size="5.4944">Identified by SOP Class UID </tspan><tspan x="70.539" y="0" font-size="6.1812">4</tspan></text>
		<text transform="matrix(1 0 0 1 303.1348 73.3818)"><tspan x="0" y="0" font-size="6.1812">SOP CLASS </tspan><tspan x="36.759" y="0" font-size="9.6152">4</tspan></text>
		
			<rect x="309.244" y="107.905" fill="#CCDEF0" stroke="#000000" stroke-width="0.75" stroke-linecap="round" stroke-linejoin="round" stroke-miterlimit="1" width="67.992" height="19.161"/>
		<text transform="matrix(1 0 0 1 309.6484 105.3101)"><tspan x="0" y="0" font-size="6.1812">DSG </tspan><tspan x="15.111" y="0" font-size="9.6152">4</tspan></text>
		<g>
			<path fill="#FFFFFF" d="M312.552,114.906c0-1.98,1.62-3.6,3.6-3.6h54.181c1.979,0,3.6,1.62,3.6,3.6v5.161
				c0,1.98-1.62,3.6-3.6,3.6h-54.181c-1.979,0-3.6-1.62-3.6-3.6V114.906z"/>
			
				<path fill="none" stroke="#010101" stroke-width="0.75" stroke-linecap="round" stroke-linejoin="round" stroke-miterlimit="10" d="
				M312.552,114.906c0-1.98,1.62-3.6,3.6-3.6h54.181c1.979,0,3.6,1.62,3.6,3.6v5.161c0,1.98-1.62,3.6-3.6,3.6h-54.181
				c-1.979,0-3.6-1.62-3.6-3.6V114.906z"/>
		</g>
		<text transform="matrix(1 0 0 1 320.9785 120.0054)"><tspan x="0" y="0" font-size="6.1812">OPERATION </tspan><tspan x="38.123" y="0" font-size="9.6152">V</tspan></text>
		
			<rect x="309.244" y="138.059" fill="#CCDEF0" stroke="#000000" stroke-width="0.75" stroke-linecap="round" stroke-linejoin="round" stroke-miterlimit="1" width="67.992" height="19.16"/>
		<text transform="matrix(1 0 0 1 340.4395 135.4648)" font-size="9.6152">+</text>
		<text transform="matrix(1 0 0 1 333.6816 150.1602)"><tspan x="0" y="0" font-size="6.1812">IOD </tspan><tspan x="12.707" y="0" font-size="9.6152">A</tspan></text>
		<g>
			<path fill="#B2CEE7" d="M215.154,80.048c0-1.98,1.62-3.6,3.6-3.6h73.156c1.979,0,3.6,1.62,3.6,3.6v92.178
				c0,1.979-1.62,3.6-3.6,3.6h-73.156c-1.98,0-3.6-1.62-3.6-3.6V80.048z"/>
			
				<path fill="none" stroke="#010101" stroke-width="0.75" stroke-linecap="round" stroke-linejoin="round" stroke-miterlimit="10" d="
				M215.154,80.048c0-1.98,1.62-3.6,3.6-3.6h73.156c1.979,0,3.6,1.62,3.6,3.6v92.178c0,1.979-1.62,3.6-3.6,3.6h-73.156
				c-1.98,0-3.6-1.62-3.6-3.6V80.048z"/>
		</g>
		<text transform="matrix(1 0 0 1 218.3477 84.6499)"><tspan x="0" y="0" font-size="5.4944">Identified by SOP Class UID </tspan><tspan x="70.539" y="0" font-size="6.1812">3</tspan></text>
		<text transform="matrix(1 0 0 1 215.2246 73.3818)"><tspan x="0" y="0" font-size="6.1812">SOP CLASS </tspan><tspan x="36.758" y="0" font-size="9.6152">3</tspan></text>
		
			<rect x="221.333" y="107.905" fill="#CCDEF0" stroke="#000000" stroke-width="0.75" stroke-linecap="round" stroke-linejoin="round" stroke-miterlimit="1" width="67.993" height="31.421"/>
		<g>
			<path fill="#FFFFFF" d="M224.643,114.906c0-1.98,1.62-3.6,3.6-3.6h54.175c1.979,0,3.6,1.62,3.6,3.6v5.161
				c0,1.98-1.62,3.6-3.6,3.6h-54.175c-1.98,0-3.6-1.62-3.6-3.6V114.906z"/>
			
				<path fill="none" stroke="#010101" stroke-width="0.75" stroke-linecap="round" stroke-linejoin="round" stroke-miterlimit="10" d="
				M224.643,114.906c0-1.98,1.62-3.6,3.6-3.6h54.175c1.979,0,3.6,1.62,3.6,3.6v5.161c0,1.98-1.62,3.6-3.6,3.6h-54.175
				c-1.98,0-3.6-1.62-3.6-3.6V114.906z"/>
		</g>
		<text transform="matrix(1 0 0 1 231.7344 120.0054)"><tspan x="0" y="0" font-size="6.1812">OPERATION </tspan><tspan x="38.123" y="0" font-size="9.6152">W</tspan></text>
		<g>
			<path fill="#FFFFFF" d="M224.643,127.267c0-1.98,1.62-3.6,3.6-3.6h54.175c1.979,0,3.6,1.62,3.6,3.6v5.162
				c0,1.98-1.62,3.6-3.6,3.6h-54.175c-1.98,0-3.6-1.62-3.6-3.6V127.267z"/>
			
				<path fill="none" stroke="#010101" stroke-width="0.75" stroke-linecap="round" stroke-linejoin="round" stroke-miterlimit="10" d="
				M224.643,127.267c0-1.98,1.62-3.6,3.6-3.6h54.175c1.979,0,3.6,1.62,3.6,3.6v5.162c0,1.98-1.62,3.6-3.6,3.6h-54.175
				c-1.98,0-3.6-1.62-3.6-3.6V127.267z"/>
		</g>
		<text transform="matrix(1 0 0 1 233.0654 132.3672)"><tspan x="0" y="0" font-size="6.1812">OPERATION </tspan><tspan x="38.122" y="0" font-size="9.6152">X</tspan></text>
		
			<rect x="221.333" y="151.076" fill="#CCDEF0" stroke="#000000" stroke-width="0.75" stroke-linecap="round" stroke-linejoin="round" stroke-miterlimit="1" width="67.993" height="19.147"/>
		<text transform="matrix(1 0 0 1 252.5254 148.4766)" font-size="9.6152">+</text>
		<text transform="matrix(1 0 0 1 245.772 163.3291)"><tspan x="0" y="0" font-size="6.1812">IOD </tspan><tspan x="12.707" y="0" font-size="9.6152">A</tspan></text>
		<text transform="matrix(1 0 0 1 221.7354 105.3101)"><tspan x="0" y="0" font-size="6.1812">DSG </tspan><tspan x="15.112" y="0" font-size="9.6152">3</tspan></text>
		<g>
			<line fill="#4F8ABE" x1="442.033" y1="146.599" x2="442.033" y2="238.724"/>
			<g>
				
					<line fill="none" stroke="#005695" stroke-width="3" stroke-linecap="round" stroke-miterlimit="1" x1="442.033" y1="146.599" x2="442.033" y2="228.093"/>
				<g>
					<polygon fill="#005695" points="438.547,225.715 442.033,238.724 445.52,225.715 					"/>
				</g>
			</g>
		</g>
		<g>
			<line fill="#4F8ABE" x1="299.483" y1="181.514" x2="299.483" y2="238.724"/>
			<g>
				
					<line fill="none" stroke="#005695" stroke-width="3" stroke-linecap="round" stroke-miterlimit="1" x1="299.483" y1="181.514" x2="299.483" y2="228.093"/>
				<g>
					<polygon fill="#005695" points="295.997,225.715 299.483,238.724 302.97,225.715 					"/>
				</g>
			</g>
		</g>
		<g>
			<line fill="#4F8ABE" x1="145.324" y1="133.626" x2="145.324" y2="238.724"/>
			<g>
				
					<line fill="none" stroke="#005695" stroke-width="3" stroke-linecap="round" stroke-miterlimit="1" x1="145.324" y1="133.626" x2="145.324" y2="228.093"/>
				<g>
					<polygon fill="#005695" points="141.838,225.715 145.324,238.724 148.811,225.715 					"/>
				</g>
			</g>
		</g>
		<g>
			<line fill="#4F8ABE" x1="57.412" y1="147.826" x2="57.412" y2="238.724"/>
			<g>
				
					<line fill="none" stroke="#005695" stroke-width="3" stroke-linecap="round" stroke-miterlimit="1" x1="57.412" y1="147.826" x2="57.412" y2="228.093"/>
				<g>
					<polygon fill="#005695" points="53.926,225.715 57.412,238.724 60.898,225.715 					"/>
				</g>
			</g>
		</g>
		<g>
			<path fill="#CCDEF0" d="M16.912,198.39c0-1.979,1.62-3.6,3.6-3.6h73.8c1.98,0,3.6,1.62,3.6,3.6v10.801c0,1.979-1.62,3.6-3.6,3.6
				h-73.8c-1.98,0-3.6-1.62-3.6-3.6V198.39z"/>
		</g>
		<text transform="matrix(1 0 0 1 19.0957 206.0205)" font-size="9">SOP CLASS UID 1</text>
		<g>
			<path fill="#CCDEF0" d="M21.354,243.013c0-1.979,1.62-3.6,3.6-3.6h64.8c1.98,0,3.6,1.62,3.6,3.6v19.801c0,1.979-1.62,3.6-3.6,3.6
				h-64.8c-1.98,0-3.6-1.62-3.6-3.6V243.013z"/>
		</g>
		<text transform="matrix(1 0 0 1 25.8457 250.0205)"><tspan x="0" y="0" font-size="9">Abstract Syntax</tspan><tspan x="15.757" y="10.8" font-size="9">Name 1</tspan></text>
		<g>
			<path fill="#CCDEF0" d="M104.877,198.39c0-1.979,1.62-3.6,3.6-3.6h73.8c1.98,0,3.6,1.62,3.6,3.6v10.801c0,1.979-1.62,3.6-3.6,3.6
				h-73.8c-1.98,0-3.6-1.62-3.6-3.6V198.39z"/>
		</g>
		<text transform="matrix(1 0 0 1 107.0605 206.0205)" font-size="9">SOP CLASS UID 2</text>
		<g>
			<path fill="#CCDEF0" d="M109.319,243.013c0-1.979,1.62-3.6,3.6-3.6h64.8c1.98,0,3.6,1.62,3.6,3.6v19.801
				c0,1.979-1.62,3.6-3.6,3.6h-64.8c-1.98,0-3.6-1.62-3.6-3.6V243.013z"/>
		</g>
		<text transform="matrix(1 0 0 1 113.8105 250.0205)"><tspan x="0" y="0" font-size="9">Abstract Syntax</tspan><tspan x="15.757" y="10.8" font-size="9">Name 2</tspan></text>
		<g>
			<path fill="#CCDEF0" d="M245.537,198.39c0-1.979,1.62-3.6,3.6-3.6h100.8c1.979,0,3.6,1.62,3.6,3.6v10.801
				c0,1.979-1.62,3.6-3.6,3.6h-100.8c-1.98,0-3.6-1.62-3.6-3.6V198.39z"/>
		</g>
		<text transform="matrix(1 0 0 1 246.7227 206.0205)" font-size="9">META SOP CLASS UID C</text>
		<g>
			<path fill="#CCDEF0" d="M263.479,243.013c0-1.979,1.62-3.6,3.6-3.6h64.801c1.979,0,3.6,1.62,3.6,3.6v19.801
				c0,1.979-1.62,3.6-3.6,3.6h-64.801c-1.979,0-3.6-1.62-3.6-3.6V243.013z"/>
		</g>
		<text transform="matrix(1 0 0 1 267.9707 250.0205)"><tspan x="0" y="0" font-size="9">Abstract Syntax</tspan><tspan x="15.01" y="10.8" font-size="9">Name C</tspan></text>
		<g>
			<path fill="#CCDEF0" d="M401.587,198.39c0-1.979,1.62-3.6,3.6-3.6h73.801c1.979,0,3.6,1.62,3.6,3.6v10.801
				c0,1.979-1.62,3.6-3.6,3.6h-73.801c-1.979,0-3.6-1.62-3.6-3.6V198.39z"/>
		</g>
		<text transform="matrix(1 0 0 1 403.7695 206.0205)" font-size="9">SOP CLASS UID 5</text>
		<g>
			<path fill="#CCDEF0" d="M406.028,243.013c0-1.979,1.62-3.6,3.6-3.6h64.801c1.979,0,3.6,1.62,3.6,3.6v19.801
				c0,1.979-1.62,3.6-3.6,3.6h-64.801c-1.979,0-3.6-1.62-3.6-3.6V243.013z"/>
		</g>
		<text transform="matrix(1 0 0 1 410.5195 250.0205)"><tspan x="0" y="0" font-size="9">Abstract Syntax</tspan><tspan x="15.758" y="10.8" font-size="9">Name 5</tspan></text>
	</g>
</g>
</svg>
