<?xml version="1.0" encoding="utf-8"?>

<!DOCTYPE svg PUBLIC "-//W3C//DTD SVG 1.1//EN" "http://www.w3.org/Graphics/SVG/1.1/DTD/svg11.dtd">
<svg version="1.1" id="Layer_1" xmlns="http://www.w3.org/2000/svg" xmlns:xlink="http://www.w3.org/1999/xlink" x="0px" y="0px"
	 width="502px" height="177px" viewBox="0 0 502 177" enable-background="new 0 0 502 177" xml:space="preserve">

<defs>
	<style type="text/css">
	text {
	  font-family: Helvetica, Verdana, ArialUnicodeMS, san-serif
	}
	</style>
</defs>

<g>
   <desc>
	PS 3.7 Part 7: Message Exchange
   </desc>
</g>

<g>
	<rect x="1" y="1" fill="#F5EED6" width="500" height="175"/>
	<g>
		
			<rect x="19.642" y="31.5" fill="#86B2D8" stroke="#010101" stroke-width="0.4887" stroke-linecap="round" stroke-linejoin="round" stroke-miterlimit="1" width="180" height="128.938"/>
		<text transform="matrix(1 0 0 1 19.459 28.9727)"><tspan x="0" y="0" font-size="9">Service Class </tspan><tspan x="57.516" y="0" font-size="14">a</tspan></text>
		<g>
			<path fill="#B2CEE7" d="M113.416,53.023c0-1.98,1.62-3.6,3.6-3.6h73.16c1.98,0,3.6,1.62,3.6,3.6v77.978c0,1.979-1.62,3.6-3.6,3.6
				h-73.16c-1.98,0-3.6-1.62-3.6-3.6V53.023z"/>
			
				<path fill="none" stroke="#010101" stroke-width="0.75" stroke-linecap="round" stroke-linejoin="round" stroke-miterlimit="10" d="
				M113.416,53.023c0-1.98,1.62-3.6,3.6-3.6h73.16c1.98,0,3.6,1.62,3.6,3.6v77.978c0,1.979-1.62,3.6-3.6,3.6h-73.16
				c-1.98,0-3.6-1.62-3.6-3.6V53.023z"/>
		</g>
		<text transform="matrix(1 0 0 1 116.6123 57.6245)"><tspan x="0" y="0" font-size="5.4944">Identified by SOP Class UID </tspan><tspan x="70.54" y="0" font-size="6.1812">2</tspan></text>
		<text transform="matrix(1 0 0 1 113.4883 46.3564)"><tspan x="0" y="0" font-size="6.1812">SOP CLASS </tspan><tspan x="36.758" y="0" font-size="9.6152">2</tspan></text>
		
			<rect x="119.597" y="80.88" fill="#CCDEF0" stroke="#000000" stroke-width="0.75" stroke-linecap="round" stroke-linejoin="round" stroke-miterlimit="1" width="67.992" height="19.161"/>
		<text transform="matrix(1 0 0 1 120.0015 78.2847)"><tspan x="0" y="0" font-size="6.1812">DSG </tspan><tspan x="15.112" y="0" font-size="9.6152">2</tspan></text>
		<g>
			<path fill="#FFFFFF" d="M122.904,87.88c0-1.98,1.62-3.6,3.6-3.6h54.18c1.98,0,3.6,1.62,3.6,3.6v5.162c0,1.979-1.62,3.6-3.6,3.6
				h-54.18c-1.98,0-3.6-1.62-3.6-3.6V87.88z"/>
			
				<path fill="none" stroke="#010101" stroke-width="0.75" stroke-linecap="round" stroke-linejoin="round" stroke-miterlimit="10" d="
				M122.904,87.88c0-1.98,1.62-3.6,3.6-3.6h54.18c1.98,0,3.6,1.62,3.6,3.6v5.162c0,1.979-1.62,3.6-3.6,3.6h-54.18
				c-1.98,0-3.6-1.62-3.6-3.6V87.88z"/>
		</g>
		<text transform="matrix(1 0 0 1 131.6016 92.9805)"><tspan x="0" y="0" font-size="6.1812">OPERATION </tspan><tspan x="38.123" y="0" font-size="9.6152">Z</tspan></text>
		
			<rect x="119.597" y="111.033" fill="#CCDEF0" stroke="#000000" stroke-width="0.75" stroke-linecap="round" stroke-linejoin="round" stroke-miterlimit="1" width="67.992" height="19.16"/>
		<text transform="matrix(1 0 0 1 150.792 108.4395)" font-size="9.6152">+</text>
		<text transform="matrix(1 0 0 1 144.0352 123.1348)"><tspan x="0" y="0" font-size="6.1812">IOD </tspan><tspan x="12.707" y="0" font-size="9.6152">A</tspan></text>
		<g>
			<path fill="#B2CEE7" d="M25.507,53.023c0-1.98,1.62-3.6,3.6-3.6h73.155c1.98,0,3.6,1.62,3.6,3.6v92.178c0,1.979-1.62,3.6-3.6,3.6
				H29.107c-1.98,0-3.6-1.62-3.6-3.6V53.023z"/>
			
				<path fill="none" stroke="#010101" stroke-width="0.75" stroke-linecap="round" stroke-linejoin="round" stroke-miterlimit="10" d="
				M25.507,53.023c0-1.98,1.62-3.6,3.6-3.6h73.155c1.98,0,3.6,1.62,3.6,3.6v92.178c0,1.979-1.62,3.6-3.6,3.6H29.107
				c-1.98,0-3.6-1.62-3.6-3.6V53.023z"/>
		</g>
		<text transform="matrix(1 0 0 1 28.7007 57.6245)"><tspan x="0" y="0" font-size="5.4944">Identified by SOP Class UID </tspan><tspan x="70.54" y="0" font-size="6.1812">1</tspan></text>
		<text transform="matrix(1 0 0 1 25.5776 46.3564)"><tspan x="0" y="0" font-size="6.1812">SOP CLASS </tspan><tspan x="36.758" y="0" font-size="9.6152">1</tspan></text>
		
			<rect x="31.686" y="80.88" fill="#CCDEF0" stroke="#000000" stroke-width="0.75" stroke-linecap="round" stroke-linejoin="round" stroke-miterlimit="1" width="67.993" height="31.421"/>
		<text transform="matrix(1 0 0 1 32.0884 78.2847)"><tspan x="0" y="0" font-size="6.1812">DSG </tspan><tspan x="15.112" y="0" font-size="9.6152">1</tspan></text>
		<g>
			<path fill="#FFFFFF" d="M34.995,87.88c0-1.98,1.62-3.6,3.6-3.6H92.77c1.98,0,3.6,1.62,3.6,3.6v5.162c0,1.979-1.62,3.6-3.6,3.6
				H38.595c-1.98,0-3.6-1.62-3.6-3.6V87.88z"/>
			
				<path fill="none" stroke="#010101" stroke-width="0.75" stroke-linecap="round" stroke-linejoin="round" stroke-miterlimit="10" d="
				M34.995,87.88c0-1.98,1.62-3.6,3.6-3.6H92.77c1.98,0,3.6,1.62,3.6,3.6v5.162c0,1.979-1.62,3.6-3.6,3.6H38.595
				c-1.98,0-3.6-1.62-3.6-3.6V87.88z"/>
		</g>
		<text transform="matrix(1 0 0 1 43.4185 92.9805)"><tspan x="0" y="0" font-size="6.1812">OPERATION </tspan><tspan x="38.123" y="0" font-size="9.6152">X</tspan></text>
		<g>
			<path fill="#FFFFFF" d="M34.995,100.241c0-1.979,1.62-3.6,3.6-3.6H92.77c1.98,0,3.6,1.62,3.6,3.6v5.163c0,1.979-1.62,3.6-3.6,3.6
				H38.595c-1.98,0-3.6-1.62-3.6-3.6V100.241z"/>
			
				<path fill="none" stroke="#010101" stroke-width="0.75" stroke-linecap="round" stroke-linejoin="round" stroke-miterlimit="10" d="
				M34.995,100.241c0-1.979,1.62-3.6,3.6-3.6H92.77c1.98,0,3.6,1.62,3.6,3.6v5.163c0,1.979-1.62,3.6-3.6,3.6H38.595
				c-1.98,0-3.6-1.62-3.6-3.6V100.241z"/>
		</g>
		<text transform="matrix(1 0 0 1 43.4185 105.3418)"><tspan x="0" y="0" font-size="6.1812">OPERATION </tspan><tspan x="38.123" y="0" font-size="9.6152">Y</tspan></text>
		
			<rect x="31.686" y="124.051" fill="#CCDEF0" stroke="#000000" stroke-width="0.75" stroke-linecap="round" stroke-linejoin="round" stroke-miterlimit="1" width="67.993" height="19.147"/>
		<text transform="matrix(1 0 0 1 62.8789 121.4512)" font-size="9.6152">+</text>
		<text transform="matrix(1 0 0 1 56.125 136.3037)"><tspan x="0" y="0" font-size="6.1812">IOD </tspan><tspan x="12.707" y="0" font-size="9.6152">A</tspan></text>
		
			<rect x="213.642" y="31.5" fill="#86B2D8" stroke="#010101" stroke-width="0.4887" stroke-linecap="round" stroke-linejoin="round" stroke-miterlimit="1" width="268.899" height="128.938"/>
		<text transform="matrix(1 0 0 1 213.459 28.9727)"><tspan x="0" y="0" font-size="9">Service Class </tspan><tspan x="57.516" y="0" font-size="14">b</tspan></text>
		<g>
			<path fill="#B2CEE7" d="M307.416,53.023c0-1.98,1.62-3.6,3.6-3.6h73.161c1.979,0,3.6,1.62,3.6,3.6v77.978
				c0,1.979-1.62,3.6-3.6,3.6h-73.161c-1.979,0-3.6-1.62-3.6-3.6V53.023z"/>
			
				<path fill="none" stroke="#010101" stroke-width="0.75" stroke-linecap="round" stroke-linejoin="round" stroke-miterlimit="10" d="
				M307.416,53.023c0-1.98,1.62-3.6,3.6-3.6h73.161c1.979,0,3.6,1.62,3.6,3.6v77.978c0,1.979-1.62,3.6-3.6,3.6h-73.161
				c-1.979,0-3.6-1.62-3.6-3.6V53.023z"/>
		</g>
		<text transform="matrix(1 0 0 1 310.6113 57.6245)"><tspan x="0" y="0" font-size="5.4944">Identified by SOP Class UID </tspan><tspan x="70.54" y="0" font-size="6.1812">4</tspan></text>
		<text transform="matrix(1 0 0 1 307.4883 46.3564)"><tspan x="0" y="0" font-size="6.1812">SOP CLASS </tspan><tspan x="36.758" y="0" font-size="9.6152">4</tspan></text>
		
			<rect x="313.597" y="80.88" fill="#CCDEF0" stroke="#000000" stroke-width="0.75" stroke-linecap="round" stroke-linejoin="round" stroke-miterlimit="1" width="67.992" height="19.161"/>
		<text transform="matrix(1 0 0 1 314.001 78.2847)"><tspan x="0" y="0" font-size="6.1812">DSG </tspan><tspan x="15.112" y="0" font-size="9.6152">4</tspan></text>
		<g>
			<path fill="#FFFFFF" d="M316.904,87.88c0-1.98,1.62-3.6,3.6-3.6h54.181c1.979,0,3.6,1.62,3.6,3.6v5.162c0,1.979-1.62,3.6-3.6,3.6
				h-54.181c-1.979,0-3.6-1.62-3.6-3.6V87.88z"/>
			
				<path fill="none" stroke="#010101" stroke-width="0.75" stroke-linecap="round" stroke-linejoin="round" stroke-miterlimit="10" d="
				M316.904,87.88c0-1.98,1.62-3.6,3.6-3.6h54.181c1.979,0,3.6,1.62,3.6,3.6v5.162c0,1.979-1.62,3.6-3.6,3.6h-54.181
				c-1.979,0-3.6-1.62-3.6-3.6V87.88z"/>
		</g>
		<text transform="matrix(1 0 0 1 325.3311 92.9805)"><tspan x="0" y="0" font-size="6.1812">OPERATION </tspan><tspan x="38.122" y="0" font-size="9.6152">V</tspan></text>
		
			<rect x="313.597" y="111.033" fill="#CCDEF0" stroke="#000000" stroke-width="0.75" stroke-linecap="round" stroke-linejoin="round" stroke-miterlimit="1" width="67.992" height="19.16"/>
		<text transform="matrix(1 0 0 1 344.791 108.4395)" font-size="9.6152">+</text>
		<text transform="matrix(1 0 0 1 338.0352 123.1348)"><tspan x="0" y="0" font-size="6.1812">IOD </tspan><tspan x="12.706" y="0" font-size="9.6152">A</tspan></text>
		<g>
			<path fill="#B2CEE7" d="M219.507,53.023c0-1.98,1.62-3.6,3.6-3.6h73.156c1.979,0,3.6,1.62,3.6,3.6v92.178
				c0,1.979-1.62,3.6-3.6,3.6h-73.156c-1.98,0-3.6-1.62-3.6-3.6V53.023z"/>
			
				<path fill="none" stroke="#010101" stroke-width="0.75" stroke-linecap="round" stroke-linejoin="round" stroke-miterlimit="10" d="
				M219.507,53.023c0-1.98,1.62-3.6,3.6-3.6h73.156c1.979,0,3.6,1.62,3.6,3.6v92.178c0,1.979-1.62,3.6-3.6,3.6h-73.156
				c-1.98,0-3.6-1.62-3.6-3.6V53.023z"/>
		</g>
		<text transform="matrix(1 0 0 1 222.7002 57.6245)"><tspan x="0" y="0" font-size="5.4944">Identified by SOP Class UID </tspan><tspan x="70.54" y="0" font-size="6.1812">3</tspan></text>
		<text transform="matrix(1 0 0 1 219.5771 46.3564)"><tspan x="0" y="0" font-size="6.1812">SOP CLASS </tspan><tspan x="36.759" y="0" font-size="9.6152">3</tspan></text>
		
			<rect x="225.686" y="80.88" fill="#CCDEF0" stroke="#000000" stroke-width="0.75" stroke-linecap="round" stroke-linejoin="round" stroke-miterlimit="1" width="67.993" height="31.421"/>
		<text transform="matrix(1 0 0 1 226.0879 78.2847)"><tspan x="0" y="0" font-size="6.1812">DSG </tspan><tspan x="15.112" y="0" font-size="9.6152">3</tspan></text>
		<g>
			<path fill="#FFFFFF" d="M228.995,87.88c0-1.98,1.62-3.6,3.6-3.6h54.175c1.979,0,3.6,1.62,3.6,3.6v5.162c0,1.979-1.62,3.6-3.6,3.6
				h-54.175c-1.98,0-3.6-1.62-3.6-3.6V87.88z"/>
			
				<path fill="none" stroke="#010101" stroke-width="0.75" stroke-linecap="round" stroke-linejoin="round" stroke-miterlimit="10" d="
				M228.995,87.88c0-1.98,1.62-3.6,3.6-3.6h54.175c1.979,0,3.6,1.62,3.6,3.6v5.162c0,1.979-1.62,3.6-3.6,3.6h-54.175
				c-1.98,0-3.6-1.62-3.6-3.6V87.88z"/>
		</g>
		<text transform="matrix(1 0 0 1 236.0869 92.9805)"><tspan x="0" y="0" font-size="6.1812">OPERATION </tspan><tspan x="38.122" y="0" font-size="9.6152">W</tspan></text>
		<g>
			<path fill="#FFFFFF" d="M228.995,100.241c0-1.979,1.62-3.6,3.6-3.6h54.175c1.979,0,3.6,1.62,3.6,3.6v5.163
				c0,1.979-1.62,3.6-3.6,3.6h-54.175c-1.98,0-3.6-1.62-3.6-3.6V100.241z"/>
			
				<path fill="none" stroke="#010101" stroke-width="0.75" stroke-linecap="round" stroke-linejoin="round" stroke-miterlimit="10" d="
				M228.995,100.241c0-1.979,1.62-3.6,3.6-3.6h54.175c1.979,0,3.6,1.62,3.6,3.6v5.163c0,1.979-1.62,3.6-3.6,3.6h-54.175
				c-1.98,0-3.6-1.62-3.6-3.6V100.241z"/>
		</g>
		<text transform="matrix(1 0 0 1 237.418 105.3418)"><tspan x="0" y="0" font-size="6.1812">OPERATION </tspan><tspan x="38.123" y="0" font-size="9.6152">X</tspan></text>
		
			<rect x="225.686" y="124.051" fill="#CCDEF0" stroke="#000000" stroke-width="0.75" stroke-linecap="round" stroke-linejoin="round" stroke-miterlimit="1" width="67.993" height="19.147"/>
		<text transform="matrix(1 0 0 1 256.8789 121.4512)" font-size="9.6152">+</text>
		<text transform="matrix(1 0 0 1 250.1245 136.3037)"><tspan x="0" y="0" font-size="6.1812">IOD </tspan><tspan x="12.707" y="0" font-size="9.6152">A</tspan></text>
		<g>
			<path fill="#B2CEE7" d="M396.208,53.023c0-1.98,1.62-3.6,3.6-3.6h73.156c1.979,0,3.6,1.62,3.6,3.6v92.178
				c0,1.979-1.62,3.6-3.6,3.6h-73.156c-1.979,0-3.6-1.62-3.6-3.6V53.023z"/>
			
				<path fill="none" stroke="#010101" stroke-width="0.75" stroke-linecap="round" stroke-linejoin="round" stroke-miterlimit="10" d="
				M396.208,53.023c0-1.98,1.62-3.6,3.6-3.6h73.156c1.979,0,3.6,1.62,3.6,3.6v92.178c0,1.979-1.62,3.6-3.6,3.6h-73.156
				c-1.979,0-3.6-1.62-3.6-3.6V53.023z"/>
		</g>
		<text transform="matrix(1 0 0 1 399.4014 57.6245)"><tspan x="0" y="0" font-size="5.4944">Identified by SOP Class UID </tspan><tspan x="70.54" y="0" font-size="6.1812">5</tspan></text>
		<text transform="matrix(1 0 0 1 396.2783 46.3564)"><tspan x="0" y="0" font-size="6.1812">SOP CLASS </tspan><tspan x="36.759" y="0" font-size="9.6152">5</tspan></text>
		
			<rect x="402.387" y="80.88" fill="#CCDEF0" stroke="#000000" stroke-width="0.75" stroke-linecap="round" stroke-linejoin="round" stroke-miterlimit="1" width="67.993" height="31.421"/>
		<text transform="matrix(1 0 0 1 402.7891 78.2847)"><tspan x="0" y="0" font-size="6.1812">DSG </tspan><tspan x="15.111" y="0" font-size="9.6152">5</tspan></text>
		<g>
			<path fill="#FFFFFF" d="M405.696,87.88c0-1.98,1.62-3.6,3.6-3.6h54.176c1.979,0,3.6,1.62,3.6,3.6v5.162c0,1.979-1.62,3.6-3.6,3.6
				h-54.176c-1.979,0-3.6-1.62-3.6-3.6V87.88z"/>
			
				<path fill="none" stroke="#010101" stroke-width="0.75" stroke-linecap="round" stroke-linejoin="round" stroke-miterlimit="10" d="
				M405.696,87.88c0-1.98,1.62-3.6,3.6-3.6h54.176c1.979,0,3.6,1.62,3.6,3.6v5.162c0,1.979-1.62,3.6-3.6,3.6h-54.176
				c-1.979,0-3.6-1.62-3.6-3.6V87.88z"/>
		</g>
		<text transform="matrix(1 0 0 1 412.7881 92.9805)"><tspan x="0" y="0" font-size="6.1812">OPERATION </tspan><tspan x="38.122" y="0" font-size="9.6152">W</tspan></text>
		<g>
			<path fill="#FFFFFF" d="M405.696,100.241c0-1.979,1.62-3.6,3.6-3.6h54.176c1.979,0,3.6,1.62,3.6,3.6v5.163
				c0,1.979-1.62,3.6-3.6,3.6h-54.176c-1.979,0-3.6-1.62-3.6-3.6V100.241z"/>
			
				<path fill="none" stroke="#010101" stroke-width="0.75" stroke-linecap="round" stroke-linejoin="round" stroke-miterlimit="10" d="
				M405.696,100.241c0-1.979,1.62-3.6,3.6-3.6h54.176c1.979,0,3.6,1.62,3.6,3.6v5.163c0,1.979-1.62,3.6-3.6,3.6h-54.176
				c-1.979,0-3.6-1.62-3.6-3.6V100.241z"/>
		</g>
		<text transform="matrix(1 0 0 1 414.1191 105.3418)"><tspan x="0" y="0" font-size="6.1812">OPERATION </tspan><tspan x="38.123" y="0" font-size="9.6152">X</tspan></text>
		
			<rect x="402.387" y="124.051" fill="#CCDEF0" stroke="#000000" stroke-width="0.75" stroke-linecap="round" stroke-linejoin="round" stroke-miterlimit="1" width="67.993" height="19.147"/>
		<text transform="matrix(1 0 0 1 433.5801 121.4512)" font-size="9.6152">+</text>
		<text transform="matrix(1 0 0 1 426.8262 136.3037)"><tspan x="0" y="0" font-size="6.1812">IOD </tspan><tspan x="12.706" y="0" font-size="9.6152">B</tspan></text>
	</g>
</g>
</svg>
