<?xml version="1.0" encoding="utf-8"?>

<!DOCTYPE svg PUBLIC "-//W3C//DTD SVG 1.1//EN" "http://www.w3.org/Graphics/SVG/1.1/DTD/svg11.dtd">
<svg version="1.1" id="Layer_1" xmlns="http://www.w3.org/2000/svg" xmlns:xlink="http://www.w3.org/1999/xlink" x="0px" y="0px"
	 width="502px" height="347px" viewBox="0 0 502 347" enable-background="new 0 0 502 347" xml:space="preserve">

<defs>
	<style type="text/css">
	text {
	  font-family: Helvetica, Verdana, ArialUnicodeMS, san-serif
	}
	</style>
</defs>

<g>
   <desc>
	PS 3.7 Part 7: Message Exchange
   </desc>
</g>

<g>
	<rect x="1" y="1" fill="#F5EED6" width="500" height="345"/>
	<g>
		<text transform="matrix(1 0 0 1 171.2817 178.4517)"><tspan x="0" y="0" font-size="10">A-ASSOCIATE-Request</tspan><tspan x="28.625" y="12" font-size="10">( A          B)</tspan></text>
		<text transform="matrix(1 0 0 1 333.5498 178.4517)"><tspan x="0" y="0" font-size="10">A-ASSOCIATE-Response</tspan><tspan x="33.906" y="12" font-size="10">(B          A)</tspan></text>
		<text transform="matrix(1 0 0 1 52.855 25.8052)" font-size="12">DICOM AE “A”</text>
		
			<rect x="52.854" y="32.535" fill="#86B2D8" stroke="#000000" stroke-width="0.9072" stroke-linecap="round" stroke-linejoin="round" stroke-miterlimit="1" width="325.146" height="108.648"/>
		<rect x="63.333" y="44.563" fill="#CCDEF0" stroke="#000000" width="99" height="23.4"/>
		<rect x="64.487" y="47.409" fill="none" width="96.692" height="17.709"/>
		<text transform="matrix(1 0 0 1 68.375 53.1362)"><tspan x="0" y="0" font-size="8">SCU/SCP Role Sub-Item</tspan><tspan x="34.457" y="9.6" font-size="8">(54H)</tspan></text>
		<rect x="162" y="44.563" fill="#CCDEF0" stroke="#000000" width="99" height="23.4"/>
		<rect x="173.966" y="47.409" fill="none" width="75.069" height="17.709"/>
		<text transform="matrix(1 0 0 1 176.8208 53.1362)"><tspan x="0" y="0" font-size="8">Abs. Syn. Name for </tspan><tspan x="3.779" y="9.6" font-size="8">Storage MR SOP</tspan></text>
		<rect x="260.239" y="44.563" fill="#CCDEF0" stroke="#000000" width="54" height="23.4"/>
		<rect x="263.337" y="47.409" fill="none" width="47.805" height="17.709"/>
		<text transform="matrix(1 0 0 1 269.4551 53.1396)"><tspan x="0" y="0" font-size="8">SCU Role</tspan><tspan x="12.895" y="9.6" font-size="8">(1)</tspan></text>
		<rect x="313.905" y="44.563" fill="#CCDEF0" stroke="#000000" width="54" height="23.4"/>
		<rect x="317.003" y="47.409" fill="none" width="47.805" height="17.709"/>
		<text transform="matrix(1 0 0 1 323.3418 53.1396)"><tspan x="0" y="0" font-size="8">SCP Role</tspan><tspan x="12.674" y="9.6" font-size="8">(1)</tspan></text>
		<rect x="63.333" y="75.369" fill="#CCDEF0" stroke="#000000" width="99" height="23.4"/>
		<rect x="64.487" y="78.214" fill="none" width="96.692" height="17.709"/>
		<text transform="matrix(1 0 0 1 68.375 83.9419)"><tspan x="0" y="0" font-size="8">SCU/SCP Role Sub-Item</tspan><tspan x="34.457" y="9.6" font-size="8">(54H)</tspan></text>
		<rect x="162" y="75.369" fill="#CCDEF0" stroke="#000000" width="99" height="23.4"/>
		<rect x="173.966" y="78.214" fill="none" width="75.069" height="17.709"/>
		<text transform="matrix(1 0 0 1 176.8208 83.9419)"><tspan x="0" y="0" font-size="8">Abs. Syn. Name for </tspan><tspan x="4.668" y="9.6" font-size="8">Storage CT SOP</tspan></text>
		<rect x="260.239" y="75.369" fill="#CCDEF0" stroke="#000000" width="54" height="23.4"/>
		<rect x="263.337" y="78.215" fill="none" width="47.805" height="17.709"/>
		<text transform="matrix(1 0 0 1 269.4551 83.9458)"><tspan x="0" y="0" font-size="8">SCU Role</tspan><tspan x="12.895" y="9.6" font-size="8">(1)</tspan></text>
		<rect x="313.905" y="75.369" fill="#CCDEF0" stroke="#000000" width="54" height="23.4"/>
		<rect x="317.003" y="78.215" fill="none" width="47.805" height="17.709"/>
		<text transform="matrix(1 0 0 1 323.3418 83.9458)"><tspan x="0" y="0" font-size="8">SCP Role</tspan><tspan x="12.674" y="9.6" font-size="8">(1)</tspan></text>
		<rect x="63.333" y="106.175" fill="#CCDEF0" stroke="#000000" width="99" height="23.4"/>
		<rect x="64.487" y="109.021" fill="none" width="96.692" height="17.71"/>
		<text transform="matrix(1 0 0 1 68.375 114.748)"><tspan x="0" y="0" font-size="8">SCU/SCP Role Sub-Item</tspan><tspan x="34.457" y="9.6" font-size="8">(54H)</tspan></text>
		<rect x="162" y="106.175" fill="#CCDEF0" stroke="#000000" width="99" height="23.4"/>
		<rect x="168.966" y="109.021" fill="none" width="85.069" height="17.71"/>
		<text transform="matrix(1 0 0 1 176.8208 114.748)"><tspan x="0" y="0" font-size="8">Abs. Syn. Name for </tspan><tspan x="6.004" y="9.6" font-size="8">Basic Print SOP</tspan></text>
		<rect x="260.239" y="106.175" fill="#CCDEF0" stroke="#000000" width="54" height="23.4"/>
		<rect x="263.337" y="109.021" fill="none" width="47.805" height="17.709"/>
		<text transform="matrix(1 0 0 1 269.4551 114.752)"><tspan x="0" y="0" font-size="8">SCU Role</tspan><tspan x="12.895" y="9.6" font-size="8">(1)</tspan></text>
		<rect x="313.905" y="106.175" fill="#CCDEF0" stroke="#000000" width="54" height="23.4"/>
		<rect x="317.003" y="109.021" fill="none" width="47.805" height="17.709"/>
		<text transform="matrix(1 0 0 1 323.3418 114.752)"><tspan x="0" y="0" font-size="8">SCP Role</tspan><tspan x="12.674" y="9.6" font-size="8">(0)</tspan></text>
		<text transform="matrix(1 0 0 1 52.855 216.4536)" font-size="12">DICOM AE “B”</text>
		
			<rect x="52.854" y="223.183" fill="#86B2D8" stroke="#000000" stroke-width="0.9072" stroke-linecap="round" stroke-linejoin="round" stroke-miterlimit="1" width="325.146" height="108.648"/>
		<rect x="63.333" y="235.211" fill="#CCDEF0" stroke="#000000" width="99" height="23.4"/>
		<rect x="64.487" y="238.056" fill="none" width="96.692" height="17.711"/>
		<text transform="matrix(1 0 0 1 68.375 243.7847)"><tspan x="0" y="0" font-size="8">SCU/SCP Role Sub-Item</tspan><tspan x="34.457" y="9.6" font-size="8">(54H)</tspan></text>
		<rect x="162" y="235.211" fill="#CCDEF0" stroke="#000000" width="99" height="23.4"/>
		<rect x="173.966" y="238.056" fill="none" width="75.069" height="17.711"/>
		<text transform="matrix(1 0 0 1 176.8208 243.7847)"><tspan x="0" y="0" font-size="8">Abs. Syn. Name for </tspan><tspan x="-2.221" y="9.6" font-size="8">Storage MR SOP (1)</tspan></text>
		<rect x="260.239" y="235.211" fill="#CCDEF0" stroke="#000000" width="54" height="23.4"/>
		<rect x="263.337" y="238.056" fill="none" width="47.805" height="17.711"/>
		<text transform="matrix(1 0 0 1 269.4551 243.7886)"><tspan x="0" y="0" font-size="8">SCU Role</tspan><tspan x="12.895" y="9.6" font-size="8">(1)</tspan></text>
		<rect x="313.905" y="235.211" fill="#CCDEF0" stroke="#000000" width="54" height="23.4"/>
		<rect x="317.003" y="238.056" fill="none" width="47.805" height="17.711"/>
		<text transform="matrix(1 0 0 1 323.3418 243.7886)"><tspan x="0" y="0" font-size="8">SCP Role</tspan><tspan x="12.674" y="9.6" font-size="8">(0)</tspan></text>
		<rect x="63.333" y="266.017" fill="#CCDEF0" stroke="#000000" width="99" height="23.4"/>
		<rect x="64.487" y="268.863" fill="none" width="96.692" height="17.709"/>
		<text transform="matrix(1 0 0 1 68.375 274.5903)"><tspan x="0" y="0" font-size="8">SCU/SCP Role Sub-Item</tspan><tspan x="34.457" y="9.601" font-size="8">(54H)</tspan></text>
		<rect x="162" y="266.017" fill="#CCDEF0" stroke="#000000" width="99" height="23.4"/>
		<rect x="173.966" y="268.863" fill="none" width="75.069" height="17.709"/>
		<text transform="matrix(1 0 0 1 176.8208 274.5903)"><tspan x="0" y="0" font-size="8">Abs. Syn. Name for </tspan><tspan x="-1.332" y="9.601" font-size="8">Storage CT SOP (3)</tspan></text>
		<rect x="260.239" y="266.017" fill="#CCDEF0" stroke="#000000" width="54" height="23.4"/>
		<rect x="263.337" y="268.863" fill="none" width="47.805" height="17.709"/>
		<text transform="matrix(1 0 0 1 269.4551 274.5942)"><tspan x="0" y="0" font-size="8">SCU Role</tspan><tspan x="12.895" y="9.601" font-size="8">(1)</tspan></text>
		<rect x="313.905" y="266.017" fill="#CCDEF0" stroke="#000000" width="54" height="23.4"/>
		<rect x="317.003" y="268.863" fill="none" width="47.805" height="17.709"/>
		<text transform="matrix(1 0 0 1 323.3418 274.5942)"><tspan x="0" y="0" font-size="8">SCP Role</tspan><tspan x="12.674" y="9.601" font-size="8">(1)</tspan></text>
		<rect x="63.333" y="296.824" fill="#CCDEF0" stroke="#000000" width="99" height="23.4"/>
		<rect x="64.487" y="299.669" fill="none" width="96.692" height="17.709"/>
		<text transform="matrix(1 0 0 1 68.375 305.396)"><tspan x="0" y="0" font-size="8">SCU/SCP Role Sub-Item</tspan><tspan x="34.457" y="9.601" font-size="8">(54H)</tspan></text>
		<rect x="162" y="296.824" fill="#CCDEF0" stroke="#000000" width="99" height="23.4"/>
		<rect x="168.966" y="299.669" fill="none" width="85.069" height="17.709"/>
		<text transform="matrix(1 0 0 1 176.8208 305.396)"><tspan x="0" y="0" font-size="8">Abs. Syn. Name for </tspan><tspan x="0.004" y="9.601" font-size="8">Basic Print SOP (5)</tspan></text>
		<rect x="260.239" y="296.824" fill="#CCDEF0" stroke="#000000" width="54" height="23.4"/>
		<rect x="263.337" y="299.669" fill="none" width="47.805" height="17.709"/>
		<text transform="matrix(1 0 0 1 269.4551 305.3999)"><tspan x="0" y="0" font-size="8">SCU Role</tspan><tspan x="12.895" y="9.601" font-size="8">(1)</tspan></text>
		<rect x="313.905" y="296.824" fill="#CCDEF0" stroke="#000000" width="54" height="23.4"/>
		<rect x="317.003" y="299.669" fill="none" width="47.805" height="17.709"/>
		<text transform="matrix(1 0 0 1 323.3418 305.3999)"><tspan x="0" y="0" font-size="8">SCP Role</tspan><tspan x="12.674" y="9.601" font-size="8">(0)</tspan></text>
		<g>
			<line fill="#4F8ABE" x1="163.053" y1="142.982" x2="163.053" y2="220.384"/>
			<g>
				
					<line fill="none" stroke="#005695" stroke-width="3" stroke-linecap="round" stroke-miterlimit="1" x1="163.053" y1="142.982" x2="163.053" y2="209.753"/>
				<g>
					<polygon fill="#005695" points="159.566,207.375 163.053,220.384 166.539,207.375 					"/>
				</g>
			</g>
		</g>
		<g>
			<line fill="#4F8ABE" x1="327.055" y1="220.384" x2="327.055" y2="142.982"/>
			<g>
				
					<line fill="none" stroke="#005695" stroke-width="3" stroke-linecap="round" stroke-miterlimit="1" x1="327.055" y1="220.384" x2="327.055" y2="153.614"/>
				<g>
					<polygon fill="#005695" points="330.541,155.991 327.055,142.982 323.568,155.991 					"/>
				</g>
			</g>
		</g>
		<g>
			<line fill="#4F8ABE" x1="214.461" y1="187.077" x2="237.07" y2="187.077"/>
			<g>
				
					<line fill="none" stroke="#005695" stroke-width="2" stroke-linecap="round" stroke-miterlimit="1" x1="214.461" y1="187.077" x2="229.982" y2="187.077"/>
				<g>
					<polygon fill="#005695" points="228.397,189.401 237.07,187.077 228.397,184.752 					"/>
				</g>
			</g>
		</g>
		<g>
			<line fill="#4F8ABE" x1="401.162" y1="187.077" x2="378.555" y2="187.077"/>
			<g>
				
					<line fill="none" stroke="#005695" stroke-width="2" stroke-linecap="round" stroke-miterlimit="1" x1="401.162" y1="187.077" x2="385.643" y2="187.077"/>
				<g>
					<polygon fill="#005695" points="387.228,184.752 378.555,187.077 387.228,189.401 					"/>
				</g>
			</g>
		</g>
	</g>
</g>
</svg>
