<?xml version="1.0" encoding="utf-8"?>

<!DOCTYPE svg PUBLIC "-//W3C//DTD SVG 1.1//EN" "http://www.w3.org/Graphics/SVG/1.1/DTD/svg11.dtd">
<svg version="1.1" id="Layer_1" xmlns="http://www.w3.org/2000/svg" xmlns:xlink="http://www.w3.org/1999/xlink" x="0px" y="0px"
	 width="502px" height="222px" viewBox="0 0 502 222" enable-background="new 0 0 502 222" xml:space="preserve">

<defs>
	<style type="text/css">
	text {
	  font-family: Helvetica, Verdana, ArialUnicodeMS, san-serif
	}
	</style>
</defs>

<g>
   <desc>
	PS 3.7 Part 7: Message Exchange
   </desc>
</g>

<g>
	<rect x="1" y="1" fill="#F5EED6" width="500" height="220"/>
	<g>
		<text transform="matrix(1 0 0 1 164.9482 115.6328)"><tspan x="0" y="0" font-size="10">A-ASSOCIATE-Request</tspan><tspan x="28.625" y="12" font-size="10">( A          B)</tspan></text>
		<text transform="matrix(1 0 0 1 327.2168 115.6328)"><tspan x="0" y="0" font-size="10">A-ASSOCIATE-Response</tspan><tspan x="33.906" y="12" font-size="10">(B          A)</tspan></text>
		<text transform="matrix(1 0 0 1 59.188 27.6313)" font-size="12">DICOM AE “A”</text>
		
			<rect x="59.188" y="34.006" fill="#86B2D8" stroke="#000000" stroke-width="0.9072" stroke-linecap="round" stroke-linejoin="round" stroke-miterlimit="1" width="288.001" height="45"/>
		<rect x="143.521" y="44.967" fill="#CCDEF0" stroke="#000000" width="99" height="23.4"/>
		<rect x="158.987" y="47.812" fill="none" width="68.07" height="17.709"/>
		<text transform="matrix(1 0 0 1 159.9023 53.5396)"><tspan x="0" y="0" font-size="8">Imp. UID Sub-Item</tspan><tspan x="23.117" y="9.6" font-size="8">(52H)</tspan></text>
		<rect x="242.188" y="44.967" fill="#CCDEF0" stroke="#000000" width="99" height="23.4"/>
		<rect x="246.736" y="47.812" fill="none" width="88.571" height="17.709"/>
		<text transform="matrix(1 0 0 1 248.5728 53.5396)"><tspan x="0" y="0" font-size="8">Imp. UID for DICOM AE</tspan><tspan x="37.117" y="9.6" font-size="8">“A”</tspan></text>
		<text transform="matrix(1 0 0 1 59.188 153.6309)" font-size="12">DICOM AE “B”</text>
		
			<rect x="59.188" y="160.006" fill="#86B2D8" stroke="#000000" stroke-width="0.9072" stroke-linecap="round" stroke-linejoin="round" stroke-miterlimit="1" width="288.001" height="45"/>
		<rect x="143.521" y="170.967" fill="#CCDEF0" stroke="#000000" width="99" height="23.4"/>
		<rect x="158.987" y="173.812" fill="none" width="68.07" height="17.709"/>
		<text transform="matrix(1 0 0 1 159.9023 179.5391)"><tspan x="0" y="0" font-size="8">Imp. UID Sub-Item</tspan><tspan x="23.117" y="9.601" font-size="8">(52H)</tspan></text>
		<rect x="242.188" y="170.967" fill="#CCDEF0" stroke="#000000" width="99" height="23.4"/>
		<rect x="247.236" y="173.812" fill="none" width="87.571" height="17.709"/>
		<text transform="matrix(1 0 0 1 248.5728 179.5391)"><tspan x="0" y="0" font-size="8">Imp. UID for DICOM AE</tspan><tspan x="37.117" y="9.601" font-size="8">“B”</tspan></text>
		<g>
			<line fill="#4F8ABE" x1="157.816" y1="80.085" x2="157.816" y2="157.486"/>
			<g>
				
					<line fill="none" stroke="#005695" stroke-width="3" stroke-linecap="round" stroke-miterlimit="1" x1="157.816" y1="80.085" x2="157.816" y2="146.855"/>
				<g>
					<polygon fill="#005695" points="154.33,144.478 157.816,157.486 161.303,144.478 					"/>
				</g>
			</g>
		</g>
		<g>
			<line fill="#4F8ABE" x1="321.82" y1="157.486" x2="321.82" y2="80.085"/>
			<g>
				
					<line fill="none" stroke="#005695" stroke-width="3" stroke-linecap="round" stroke-miterlimit="1" x1="321.82" y1="157.486" x2="321.82" y2="90.717"/>
				<g>
					<polygon fill="#005695" points="325.307,93.094 321.82,80.085 318.334,93.094 					"/>
				</g>
			</g>
		</g>
		<g>
			<line fill="#4F8ABE" x1="209.225" y1="124.179" x2="231.833" y2="124.179"/>
			<g>
				
					<line fill="none" stroke="#005695" stroke-width="2" stroke-linecap="round" stroke-miterlimit="1" x1="209.225" y1="124.179" x2="224.746" y2="124.179"/>
				<g>
					<polygon fill="#005695" points="223.161,126.503 231.833,124.179 223.161,121.854 					"/>
				</g>
			</g>
		</g>
		<g>
			<line fill="#4F8ABE" x1="395.928" y1="124.179" x2="373.32" y2="124.179"/>
			<g>
				
					<line fill="none" stroke="#005695" stroke-width="2" stroke-linecap="round" stroke-miterlimit="1" x1="395.928" y1="124.179" x2="380.408" y2="124.179"/>
				<g>
					<polygon fill="#005695" points="381.993,121.854 373.32,124.179 381.993,126.503 					"/>
				</g>
			</g>
		</g>
	</g>
</g>
</svg>
