<?xml version="1.0" encoding="utf-8"?>

<!DOCTYPE svg PUBLIC "-//W3C//DTD SVG 1.1//EN" "http://www.w3.org/Graphics/SVG/1.1/DTD/svg11.dtd">
<svg version="1.1" id="Layer_1" xmlns="http://www.w3.org/2000/svg" xmlns:xlink="http://www.w3.org/1999/xlink" x="0px" y="0px"
	 width="502px" height="477px" viewBox="0 0 502 477" enable-background="new 0 0 502 477" xml:space="preserve">

<defs>
	<style type="text/css">
	text {
	  font-family: Helvetica, Verdana, ArialUnicodeMS, san-serif
	}
	</style>
</defs>

<g>
   <desc>
	PS 3.7 Part 7: Message Exchange
   </desc>
</g>

<g>
	<rect x="1" y="1" fill="#F5EED6" width="500" height="475"/>
	<g>
		<text transform="matrix(1 0 0 1 52.855 281.998)" font-size="12">DICOM AE “B”</text>
		<text transform="matrix(1 0 0 1 171.2817 244.6445)"><tspan x="0" y="0" font-size="10">A-ASSOCIATE-Request</tspan><tspan x="28.625" y="12" font-size="10">( A          B)</tspan></text>
		<text transform="matrix(1 0 0 1 333.5498 244.6445)"><tspan x="0" y="0" font-size="10">A-ASSOCIATE-Response</tspan><tspan x="33.906" y="12" font-size="10">(B          A)</tspan></text>
		<text transform="matrix(1 0 0 1 52.855 25.9976)" font-size="12">DICOM AE “A”</text>
		
			<rect x="52.855" y="32.728" fill="#86B2D8" stroke="#000000" stroke-width="0.9072" stroke-linecap="round" stroke-linejoin="round" stroke-miterlimit="1" width="369" height="172.956"/>
		<rect x="115.855" y="107.506" fill="#CCDEF0" stroke="#000000" width="99" height="23.4"/>
		<rect x="61.855" y="107.506" fill="#CCDEF0" stroke="#000000" width="54" height="23.4"/>
		<rect x="65.119" y="110.351" fill="none" width="47.805" height="17.709"/>
		<text transform="matrix(1 0 0 1 70.1245 116.082)"><tspan x="0" y="0" font-size="8">Pres. Cont</tspan><tspan x="7.785" y="9.6" font-size="8"> ID (5)</tspan></text>
		<rect x="115.855" y="75.419" fill="#CCDEF0" stroke="#000000" width="99" height="23.4"/>
		<rect x="61.855" y="75.419" fill="#CCDEF0" stroke="#000000" width="54" height="23.4"/>
		<rect x="65.119" y="78.265" fill="none" width="47.805" height="17.709"/>
		<text transform="matrix(1 0 0 1 70.1245 83.9956)"><tspan x="0" y="0" font-size="8">Pres. Cont</tspan><tspan x="7.785" y="9.6" font-size="8"> ID (3)</tspan></text>
		<rect x="115.855" y="43.333" fill="#CCDEF0" stroke="#000000" width="99" height="23.4"/>
		<rect x="61.855" y="43.333" fill="#CCDEF0" stroke="#000000" width="54" height="23.4"/>
		<rect x="127.82" y="46.178" fill="none" width="75.069" height="17.709"/>
		<text transform="matrix(1 0 0 1 130.6748 51.9058)"><tspan x="0" y="0" font-size="8">Abs. Syn. Name for </tspan><tspan x="3.779" y="9.6" font-size="8">Storage MR SOP</tspan></text>
		<rect x="127.82" y="78.265" fill="none" width="75.069" height="17.709"/>
		<text transform="matrix(1 0 0 1 130.6748 83.9922)"><tspan x="0" y="0" font-size="8">Abs. Syn. Name for </tspan><tspan x="4.668" y="9.6" font-size="8">Storage CT SOP</tspan></text>
		<rect x="122.82" y="110.351" fill="none" width="85.069" height="17.709"/>
		<text transform="matrix(1 0 0 1 130.6748 116.0786)"><tspan x="0" y="0" font-size="8">Abs. Syn. Name for </tspan><tspan x="-4" y="9.6" font-size="8">Basic Print Meta SOP</tspan></text>
		<rect x="65.119" y="46.178" fill="none" width="47.805" height="17.709"/>
		<text transform="matrix(1 0 0 1 70.1245 51.9092)"><tspan x="0" y="0" font-size="8">Pres. Cont</tspan><tspan x="7.785" y="9.6" font-size="8"> ID (1)</tspan></text>
		<rect x="61.855" y="139.592" fill="#CCDEF0" stroke="#000000" width="54" height="23.4"/>
		<rect x="65.119" y="142.437" fill="none" width="47.805" height="17.709"/>
		<text transform="matrix(1 0 0 1 70.1245 148.168)"><tspan x="0" y="0" font-size="8">Pres. Cont</tspan><tspan x="7.785" y="9.6" font-size="8"> ID (7)</tspan></text>
		<rect x="115.855" y="171.678" fill="#CCDEF0" stroke="#000000" width="99" height="23.4"/>
		<rect x="61.855" y="171.678" fill="#CCDEF0" stroke="#000000" width="54" height="23.4"/>
		<rect x="65.119" y="174.523" fill="none" width="47.805" height="17.71"/>
		<text transform="matrix(1 0 0 1 70.1245 180.2544)"><tspan x="0" y="0" font-size="8">Pres. Cont</tspan><tspan x="7.785" y="9.6" font-size="8"> ID (9)</tspan></text>
		<rect x="115.855" y="139.592" fill="#CCDEF0" stroke="#000000" width="99" height="23.4"/>
		<rect x="118.82" y="142.438" fill="none" width="93.069" height="17.71"/>
		<text transform="matrix(1 0 0 1 130.6748 148.165)"><tspan x="0" y="0" font-size="8">Abs. Syn. Name for </tspan><tspan x="-11.121" y="9.6" font-size="8">Detached Study Mg. SOP</tspan></text>
		<rect x="127.82" y="174.523" fill="none" width="75.069" height="17.71"/>
		<text transform="matrix(1 0 0 1 130.6748 180.251)"><tspan x="0" y="0" font-size="8">Abs. Syn. Name for </tspan><tspan x="14.229" y="9.6" font-size="8">Query SOP</tspan></text>
		<rect x="214.522" y="107.506" fill="#CCDEF0" stroke="#000000" width="98.999" height="23.4"/>
		<rect x="214.522" y="75.419" fill="#CCDEF0" stroke="#000000" width="98.999" height="23.4"/>
		<rect x="214.522" y="43.333" fill="#CCDEF0" stroke="#000000" width="98.999" height="23.4"/>
		<rect x="226.487" y="46.178" fill="none" width="75.069" height="17.709"/>
		<text transform="matrix(1 0 0 1 231.7896 51.9058)"><tspan x="0" y="0" font-size="8">Trans. Syn. Name </tspan><tspan x="4.438" y="9.6" font-size="8">for Little Endian</tspan></text>
		<rect x="226.487" y="78.265" fill="none" width="75.069" height="17.709"/>
		<text transform="matrix(1 0 0 1 231.7896 83.9922)"><tspan x="0" y="0" font-size="8">Trans. Syn. Name </tspan><tspan x="4.438" y="9.6" font-size="8">for Little Endian</tspan></text>
		<rect x="221.487" y="110.351" fill="none" width="85.069" height="17.709"/>
		<text transform="matrix(1 0 0 1 226.0103 116.0786)"><tspan x="0" y="0" font-size="8">Trans. Syn. Name for </tspan><tspan x="15.996" y="9.6" font-size="8">Little Endian</tspan></text>
		<rect x="214.522" y="171.678" fill="#CCDEF0" stroke="#000000" width="98.999" height="23.4"/>
		<rect x="214.522" y="139.592" fill="#CCDEF0" stroke="#000000" width="98.999" height="23.4"/>
		<rect x="217.487" y="142.438" fill="none" width="93.069" height="17.71"/>
		<text transform="matrix(1 0 0 1 226.0103 148.165)"><tspan x="0" y="0" font-size="8">Trans. Syn. Name for </tspan><tspan x="15.996" y="9.6" font-size="8">Little Endian</tspan></text>
		<rect x="226.487" y="174.523" fill="none" width="75.069" height="17.71"/>
		<text transform="matrix(1 0 0 1 231.7896 180.251)"><tspan x="0" y="0" font-size="8">Trans. Syn. Name </tspan><tspan x="4.438" y="9.6" font-size="8">for Little Endian</tspan></text>
		<rect x="313.521" y="75.419" fill="#CCDEF0" stroke="#000000" width="99" height="23.4"/>
		<rect x="313.521" y="43.333" fill="#CCDEF0" stroke="#000000" width="99" height="23.4"/>
		<rect x="325.488" y="46.178" fill="none" width="75.068" height="17.709"/>
		<text transform="matrix(1 0 0 1 330.793 51.9058)"><tspan x="0" y="0" font-size="8">Trans. Syn. Name </tspan><tspan x="7.105" y="9.6" font-size="8">for Big Endian</tspan></text>
		<rect x="325.488" y="78.265" fill="none" width="75.068" height="17.709"/>
		<text transform="matrix(1 0 0 1 330.793 83.9922)"><tspan x="0" y="0" font-size="8">Trans. Syn. Name </tspan><tspan x="7.115" y="9.6" font-size="8">for Compress.</tspan></text>
		
			<rect x="52.855" y="288.684" fill="#86B2D8" stroke="#000000" stroke-width="0.9072" stroke-linecap="round" stroke-linejoin="round" stroke-miterlimit="1" width="369" height="172.956"/>
		<rect x="115.855" y="363.462" fill="#CCDEF0" stroke="#000000" width="99" height="23.4"/>
		<rect x="61.855" y="363.462" fill="#CCDEF0" stroke="#000000" width="54" height="23.4"/>
		<rect x="65.119" y="366.307" fill="none" width="47.805" height="17.71"/>
		<text transform="matrix(1 0 0 1 70.1245 372.0381)"><tspan x="0" y="0" font-size="8">Pres. Cont</tspan><tspan x="7.785" y="9.601" font-size="8"> ID (5)</tspan></text>
		<rect x="115.855" y="331.375" fill="#CCDEF0" stroke="#000000" width="99" height="23.4"/>
		<rect x="61.855" y="331.375" fill="#CCDEF0" stroke="#000000" width="54" height="23.4"/>
		<rect x="65.119" y="334.221" fill="none" width="47.805" height="17.709"/>
		<text transform="matrix(1 0 0 1 70.1245 339.9512)"><tspan x="0" y="0" font-size="8">Pres. Cont</tspan><tspan x="7.785" y="9.601" font-size="8"> ID (3)</tspan></text>
		<rect x="115.855" y="299.289" fill="#CCDEF0" stroke="#000000" width="99" height="23.4"/>
		<rect x="61.855" y="299.289" fill="#CCDEF0" stroke="#000000" width="54" height="23.4"/>
		<rect x="127.82" y="306.562" fill="none" width="75.069" height="8.854"/>
		<text transform="matrix(1 0 0 1 153.126 312.2891)" font-size="8">Accept</text>
		<rect x="127.82" y="338.648" fill="none" width="75.069" height="8.854"/>
		<text transform="matrix(1 0 0 1 153.126 344.375)" font-size="8">Accept</text>
		<rect x="122.82" y="371.224" fill="none" width="85.069" height="7.877"/>
		<text transform="matrix(1 0 0 1 154.0166 376.9512)" font-size="8">Reject</text>
		<rect x="65.119" y="302.135" fill="none" width="47.805" height="17.709"/>
		<text transform="matrix(1 0 0 1 70.1245 307.8652)"><tspan x="0" y="0" font-size="8">Pres. Cont</tspan><tspan x="7.785" y="9.6" font-size="8"> ID (1)</tspan></text>
		<rect x="61.855" y="395.548" fill="#CCDEF0" stroke="#000000" width="54" height="23.4"/>
		<rect x="65.119" y="398.393" fill="none" width="47.805" height="17.71"/>
		<text transform="matrix(1 0 0 1 70.1245 404.124)"><tspan x="0" y="0" font-size="8">Pres. Cont</tspan><tspan x="7.785" y="9.601" font-size="8"> ID (7)</tspan></text>
		<rect x="115.855" y="427.634" fill="#CCDEF0" stroke="#000000" width="99" height="23.4"/>
		<rect x="61.855" y="427.634" fill="#CCDEF0" stroke="#000000" width="54" height="23.4"/>
		<rect x="65.119" y="430.479" fill="none" width="47.805" height="17.71"/>
		<text transform="matrix(1 0 0 1 70.1245 436.2109)"><tspan x="0" y="0" font-size="8">Pres. Cont</tspan><tspan x="7.785" y="9.6" font-size="8"> ID (9)</tspan></text>
		<rect x="115.855" y="395.548" fill="#CCDEF0" stroke="#000000" width="99" height="23.4"/>
		<rect x="118.82" y="402.087" fill="none" width="93.069" height="10.322"/>
		<text transform="matrix(1 0 0 1 154.0166 407.8145)" font-size="8">Reject</text>
		<rect x="127.82" y="434.906" fill="none" width="75.069" height="8.855"/>
		<text transform="matrix(1 0 0 1 153.126 440.6348)" font-size="8">Accept</text>
		<rect x="214.522" y="331.375" fill="#CCDEF0" stroke="#000000" width="98.999" height="23.4"/>
		<rect x="214.522" y="299.289" fill="#CCDEF0" stroke="#000000" width="98.999" height="23.4"/>
		<rect x="226.487" y="302.135" fill="none" width="75.069" height="17.709"/>
		<text transform="matrix(1 0 0 1 231.7896 307.8613)"><tspan x="0" y="0" font-size="8">Trans. Syn. Name </tspan><tspan x="4.438" y="9.601" font-size="8">for Little Endian</tspan></text>
		<rect x="226.487" y="334.221" fill="none" width="75.069" height="17.709"/>
		<text transform="matrix(1 0 0 1 231.7896 339.9482)"><tspan x="0" y="0" font-size="8">Trans. Syn. Name </tspan><tspan x="7.115" y="9.601" font-size="8">for Compress.</tspan></text>
		<rect x="214.522" y="427.634" fill="#CCDEF0" stroke="#000000" width="98.999" height="23.4"/>
		<rect x="226.487" y="430.479" fill="none" width="75.069" height="17.71"/>
		<text transform="matrix(1 0 0 1 231.7896 436.207)"><tspan x="0" y="0" font-size="8">Trans. Syn. Name </tspan><tspan x="4.438" y="9.6" font-size="8">for Little Endian</tspan></text>
		<g>
			<line fill="#4F8ABE" x1="164.248" y1="209.485" x2="164.248" y2="286.882"/>
			<g>
				
					<line fill="none" stroke="#005695" stroke-width="3" stroke-linecap="round" stroke-miterlimit="1" x1="164.248" y1="209.485" x2="164.248" y2="276.251"/>
				<g>
					<polygon fill="#005695" points="160.761,273.873 164.248,286.882 167.734,273.873 					"/>
				</g>
			</g>
		</g>
		<g>
			<line fill="#4F8ABE" x1="328.251" y1="286.882" x2="328.251" y2="209.485"/>
			<g>
				
					<line fill="none" stroke="#005695" stroke-width="3" stroke-linecap="round" stroke-miterlimit="1" x1="328.251" y1="286.882" x2="328.251" y2="220.117"/>
				<g>
					<polygon fill="#005695" points="331.737,222.494 328.251,209.485 324.765,222.494 					"/>
				</g>
			</g>
		</g>
		<g>
			<line fill="#4F8ABE" x1="215.656" y1="253.574" x2="238.265" y2="253.574"/>
			<g>
				
					<line fill="none" stroke="#005695" stroke-width="2" stroke-linecap="round" stroke-miterlimit="1" x1="215.656" y1="253.574" x2="231.177" y2="253.574"/>
				<g>
					<polygon fill="#005695" points="229.592,255.898 238.265,253.574 229.592,251.25 					"/>
				</g>
			</g>
		</g>
		<g>
			<line fill="#4F8ABE" x1="402.358" y1="253.574" x2="379.751" y2="253.574"/>
			<g>
				
					<line fill="none" stroke="#005695" stroke-width="2" stroke-linecap="round" stroke-miterlimit="1" x1="402.358" y1="253.574" x2="386.839" y2="253.574"/>
				<g>
					<polygon fill="#005695" points="388.424,251.25 379.751,253.574 388.424,255.898 					"/>
				</g>
			</g>
		</g>
	</g>
</g>
</svg>
