<?xml version="1.0" encoding="utf-8"?>

<!DOCTYPE svg PUBLIC "-//W3C//DTD SVG 1.1//EN" "http://www.w3.org/Graphics/SVG/1.1/DTD/svg11.dtd">
<svg version="1.1" id="Layer_1" xmlns="http://www.w3.org/2000/svg" xmlns:xlink="http://www.w3.org/1999/xlink" x="0px" y="0px"
	 width="502px" height="462px" viewBox="0 0 502 462" enable-background="new 0 0 502 462" xml:space="preserve">

<defs>
	<style type="text/css">
	text {
	  font-family: Helvetica, Verdana, ArialUnicodeMS, san-serif
	}
	</style>
</defs>

<g>
   <desc>
	PS 3.7 Part 7: Message Exchange
   </desc>
</g>

<g>
	<rect x="1" y="1" fill="#F5EED6" width="500" height="460"/>
	<g>
		<rect x="23.5" y="37.319" fill="#6799C8" width="455" height="78"/>
		<rect x="23.5" y="115.319" fill="#86B2D8" width="455" height="97.001"/>
		<rect x="23.5" y="212.32" fill="#B2CEE7" width="455" height="95"/>
		<rect x="23.5" y="307.32" fill="#FFFFFF" width="455" height="114"/>
		<path fill="#CCDEF0" stroke="#000000" stroke-width="0.75" d="M208.634,368.182c6.792,0,218.875,0,244.885,0
			c1.816,0,3.648,1.637,3.648,4.463v34.213c0,1.664-1.797,4.252-3.445,4.252c0,0-353.574,0-357.561,0
			c-3.989,0-4.033-5.486-4.033-5.486s0-70.994,0-74.154s1.495-6.211,4.033-6.211c2.536,0,99.695,0,99.695,0
			c4.183,0,4.792,2.193,4.792,5.779v25.297C200.649,367.299,200.649,368.182,208.634,368.182z"/>
		<rect x="26.412" y="45.32" fill="none" width="50.354" height="20"/>
		<text transform="matrix(0.9288 0 0 1 26.4136 52.4746)"><tspan x="0" y="0" font-size="10">DICOM</tspan><tspan x="0" y="12" font-size="10">PART 4</tspan></text>
		<rect x="26.412" y="127.34" fill="none" width="50.354" height="20"/>
		<text transform="matrix(0.9288 0 0 1 26.4136 134.4941)"><tspan x="0" y="0" font-size="10">DICOM</tspan><tspan x="0" y="12" font-size="10">PART 3</tspan></text>
		<rect x="26.412" y="217.33" fill="none" width="50.354" height="20"/>
		<text transform="matrix(0.9288 0 0 1 26.4136 224.4844)"><tspan x="0" y="0" font-size="10">DICOM</tspan><tspan x="0" y="12" font-size="10">PART 7</tspan></text>
		<rect x="26.412" y="317.098" fill="none" width="50.354" height="20"/>
		<text transform="matrix(0.9288 0 0 1 26.4136 324.2441)"><tspan x="0" y="0" font-size="10">DICOM</tspan><tspan x="0" y="12" font-size="10">PART 8 &amp; 9</tspan></text>
		
			<rect x="80.5" y="30.319" fill="none" stroke="#003468" stroke-width="2" stroke-linecap="round" stroke-linejoin="round" stroke-miterlimit="1" stroke-dasharray="8" width="388" height="325.583"/>
		<g>
			<path fill="#CCDEF0" d="M251.834,381.32"/>
			<path fill="none" stroke="#000000" stroke-width="0.75" d="M251.834,381.32"/>
		</g>
		<text transform="matrix(1 0 0 1 180.0293 385.4629)"><tspan x="0" y="0" font-size="9">Upper Layer Presentation Data Service</tspan><tspan x="44.024" y="10.8" font-size="9">(see figure 6.1-1)</tspan></text>
		<text transform="matrix(1 0 0 1 116.4844 432.9609)"><tspan x="0" y="0" font-size="9">* This figure expands upon figure 6.1-1 by showing that the Association</tspan><tspan x="4.271" y="10.801" font-size="9">Services specified in Part 8 are formally part of the Application Entity.</tspan></text>
		<text transform="matrix(1 0 0 1 97.7046 337.3242)"><tspan x="0" y="0" font-size="9">Upper Layer Association</tspan><tspan x="28.769" y="10.801" font-size="9">Services *</tspan></text>
		<text transform="matrix(1 0 0 1 80.062 25.9106)" font-size="12">DICOM Application Entity</text>
		<g>
			<path fill="#CCDEF0" d="M213.533,252.145c0-1.979,1.62-3.6,3.6-3.6h237.6c1.979,0,3.6,1.62,3.6,3.6v35.662
				c0,1.979-1.62,3.6-3.6,3.6h-237.6c-1.98,0-3.6-1.62-3.6-3.6V252.145z"/>
			<path fill="none" stroke="#000000" stroke-width="0.75" d="M213.533,252.145c0-1.979,1.62-3.6,3.6-3.6h237.6
				c1.979,0,3.6,1.62,3.6,3.6v35.662c0,1.979-1.62,3.6-3.6,3.6h-237.6c-1.98,0-3.6-1.62-3.6-3.6V252.145z"/>
		</g>
		<text transform="matrix(1 0 0 1 267.4111 261.6836)"><tspan x="0" y="0" font-size="9">DICOM Message Service Element</tspan><tspan x="51.273" y="10.8" font-size="9">(DIMSE)</tspan><tspan x="-40.265" y="21.6" font-size="9">(DIMSE-C and DIMSE-N Operations and Notifications)</tspan></text>
		<g>
			<text transform="matrix(1 0 0 1 332.333 129.7544)" font-size="12">Information Objects</text>
		</g>
		<g>
			<path fill="#CCDEF0" d="M332.332,136.315c0-1.98,1.62-3.6,3.6-3.6h118.801c1.979,0,3.6,1.62,3.6,3.6v46.05
				c0,1.98-1.62,3.6-3.6,3.6H335.932c-1.979,0-3.6-1.62-3.6-3.6V136.315z"/>
			<path fill="none" stroke="#000000" stroke-width="0.75" d="M332.332,136.315c0-1.98,1.62-3.6,3.6-3.6h118.801
				c1.979,0,3.6,1.62,3.6,3.6v46.05c0,1.98-1.62,3.6-3.6,3.6H335.932c-1.979,0-3.6-1.62-3.6-3.6V136.315z"/>
		</g>
		<g>
			<text transform="matrix(1 0 0 1 339.083 147.4307)"><tspan x="0" y="0" font-size="10">Normalized</tspan><tspan x="0" y="10.8" font-size="9">- Patient</tspan><tspan x="0" y="21.6" font-size="9">- Study</tspan><tspan x="0" y="32.4" font-size="9">- Visit</tspan></text>
		</g>
		<g>
			<text transform="matrix(1 0 0 1 402.4199 147.4307)"><tspan x="0" y="0" font-size="10">Composite</tspan><tspan x="0" y="10.8" font-size="9">- CT image</tspan><tspan x="0" y="21.6" font-size="9">- MR image</tspan><tspan x="0" y="32.4" font-size="9">- CR image</tspan></text>
		</g>
		<path fill="#CCDEF0" stroke="#000000" stroke-width="0.75" d="M328.141,106.671c4.607,0,110.076,0,127.717,0
			c1.232,0,2.475-1.715,2.475-4.677V55.599c0-1.741-1.219-4.452-2.336-4.452c0,0-234.202,0-236.906,0
			c-5.341,0-5.616,5.745-5.616,5.745s0,119.177,0,122.485s0.348,6.504,6.336,6.504c1.721,0,93.907,0,93.907,0
			c6.115,0,6.85-2.297,6.85-6.051v-60.75C320.566,107.596,320.566,106.671,328.141,106.671z"/>
		<path fill="#CCDEF0" stroke="#000000" stroke-width="0.75" d="M200.73,59.63c0-3.318-2.125-8.483-4.535-8.483
			c0,0-94.336,0-97.062,0c-7.054,0-6.386,8.065-6.386,8.065s0,217.097,0,223.401c0,6.303,0.592,8.793,6.386,8.793
			c1.734,0,98.277,0,98.277,0c2.859,0,3.276-4.377,3.276-11.531L200.73,59.63z"/>
		
			<polygon fill="#FFFFFF" stroke="#4F8ABE" stroke-width="2" stroke-linecap="round" stroke-linejoin="round" stroke-miterlimit="1" points="
			331.457,226.025 326.934,226.025 335.928,244.996 344.934,226.025 339.598,226.025 339.598,210.289 344.934,210.289 
			335.928,191.32 326.934,210.289 331.457,210.289 		"/>
		
			<polygon fill="#FFFFFF" stroke="#4F8ABE" stroke-width="2" stroke-linecap="round" stroke-linejoin="round" stroke-miterlimit="1" points="
			142.818,312.529 139.426,312.529 146.171,322.748 152.926,312.529 148.924,312.529 148.924,304.053 152.926,304.053 
			146.171,293.834 139.426,304.053 142.818,304.053 		"/>
		
			<polygon fill="#FFFFFF" stroke="#4F8ABE" stroke-width="2" stroke-linecap="round" stroke-linejoin="round" stroke-miterlimit="1" points="
			331.457,340.004 326.934,340.004 335.928,364.32 344.934,340.004 339.598,340.004 339.598,319.832 344.934,319.832 
			335.928,295.52 326.934,319.832 331.457,319.832 		"/>
		<text transform="matrix(1 0 0 1 116.0532 68.6377)"><tspan x="0" y="0" font-size="12">Association</tspan><tspan x="0" y="14.4" font-size="12">Negotiation</tspan></text>
		<g>
			<text transform="matrix(1 0 0 1 218.1416 63.1621)" font-size="12">Service Classes</text>
		</g>
		<g>
			<text transform="matrix(1 0 0 1 230.7627 76.4565)"><tspan x="0" y="0" font-size="9">- Study Mgt.</tspan><tspan x="0" y="10.8" font-size="9">- Patient Image Mgt.</tspan><tspan x="0" y="21.6" font-size="9">- Resutls Mgt.</tspan></text>
		</g>
		<g>
			<text transform="matrix(1 0 0 1 342.0996 75.4565)"><tspan x="0" y="0" font-size="9">- Storage</tspan><tspan x="0" y="10.8" font-size="9">- Print</tspan><tspan x="0" y="21.6" font-size="9">- Query / Retrieve</tspan></text>
		</g>
	</g>
</g>
</svg>
