<?xml version="1.0" encoding="utf-8"?>

<!DOCTYPE svg PUBLIC "-//W3C//DTD SVG 1.1//EN" "http://www.w3.org/Graphics/SVG/1.1/DTD/svg11.dtd">
<svg version="1.1" id="Layer_1" xmlns="http://www.w3.org/2000/svg" xmlns:xlink="http://www.w3.org/1999/xlink" x="0px" y="0px"
	 width="502px" height="222px" viewBox="0 0 502 222" enable-background="new 0 0 502 222" xml:space="preserve">

<defs>
	<style type="text/css">
	text {
	  font-family: Helvetica, Verdana, ArialUnicodeMS, san-serif
	}
	</style>
</defs>

<g>
   <desc>
	PS 3.7 Part 7: Message Exchange
   </desc>
</g>

<g>
	<rect x="1" y="1" fill="#F5EED6" width="500" height="220"/>
	<g>
		<text transform="matrix(1 0 0 1 137.0845 115.6328)"><tspan x="0" y="0" font-size="10">A-ASSOCIATE-Request</tspan><tspan x="28.625" y="12" font-size="10">( A          B)</tspan></text>
		<text transform="matrix(1 0 0 1 299.3525 115.6328)"><tspan x="0" y="0" font-size="10">A-ASSOCIATE-Response</tspan><tspan x="33.906" y="12" font-size="10">(B          A)</tspan></text>
		<text transform="matrix(1 0 0 1 31.3242 27.6313)" font-size="12">DICOM AE “A”</text>
		
			<rect x="31.323" y="34.007" fill="#86B2D8" stroke="#000000" stroke-width="0.9072" stroke-linecap="round" stroke-linejoin="round" stroke-miterlimit="1" width="439.354" height="45"/>
		<rect x="85.665" y="44.968" fill="#CCDEF0" stroke="#000000" width="128.992" height="23.4"/>
		<rect x="85.665" y="47.812" fill="none" width="127.986" height="17.71"/>
		<text transform="matrix(1 0 0 1 91.6362 53.5396)"><tspan x="0" y="0" font-size="8">Asynch. Oper. Window Sub-Item</tspan><tspan x="48.02" y="9.6" font-size="8">(53H)</tspan></text>
		<rect x="214.325" y="44.968" fill="#CCDEF0" stroke="#000000" width="124.791" height="23.4"/>
		<rect x="217.128" y="47.812" fill="none" width="119.184" height="17.71"/>
		<text transform="matrix(1 0 0 1 218.3076 53.5396)"><tspan x="0" y="0" font-size="8">Max. no. of Oper. DICOM AE &quot;A&quot;</tspan><tspan x="31.959" y="9.6" font-size="8">may Invoke (3)</tspan></text>
		<rect x="339.115" y="44.968" fill="#CCDEF0" stroke="#000000" width="124.791" height="23.4"/>
		<rect x="341.92" y="47.812" fill="none" width="119.184" height="17.71"/>
		<text transform="matrix(1 0 0 1 343.0986 53.5396)"><tspan x="0" y="0" font-size="8">Max. no. of Oper. DICOM AE &quot;A&quot;</tspan><tspan x="29.52" y="9.6" font-size="8">may Perform (2)</tspan></text>
		
			<rect x="31.323" y="160.007" fill="#86B2D8" stroke="#000000" stroke-width="0.9072" stroke-linecap="round" stroke-linejoin="round" stroke-miterlimit="1" width="439.354" height="45"/>
		<rect x="85.665" y="170.968" fill="#CCDEF0" stroke="#000000" width="128.992" height="23.4"/>
		<rect x="85.665" y="173.812" fill="none" width="127.986" height="17.709"/>
		<text transform="matrix(1 0 0 1 91.6362 179.5391)"><tspan x="0" y="0" font-size="8">Asynch. Oper. Window Sub-Item</tspan><tspan x="48.02" y="9.601" font-size="8">(53H)</tspan></text>
		<rect x="214.325" y="170.968" fill="#CCDEF0" stroke="#000000" width="124.791" height="23.4"/>
		<rect x="217.128" y="173.812" fill="none" width="119.184" height="17.709"/>
		<text transform="matrix(1 0 0 1 218.3076 179.5391)"><tspan x="0" y="0" font-size="8">Max. no. of Oper. DICOM AE &quot;A&quot;</tspan><tspan x="31.959" y="9.601" font-size="8">may Invoke (2)</tspan></text>
		<rect x="339.115" y="170.968" fill="#CCDEF0" stroke="#000000" width="124.791" height="23.4"/>
		<rect x="341.92" y="173.812" fill="none" width="119.184" height="17.709"/>
		<text transform="matrix(1 0 0 1 343.0986 179.5391)"><tspan x="0" y="0" font-size="8">Max. no. of Oper. DICOM AE &quot;A&quot;</tspan><tspan x="29.52" y="9.601" font-size="8">may Perform (1)</tspan></text>
		<text transform="matrix(1 0 0 1 31.3242 153.6309)" font-size="12">DICOM AE “B”</text>
		<g>
			<line fill="#4F8ABE" x1="129.167" y1="80.533" x2="129.167" y2="157.932"/>
			<g>
				
					<line fill="none" stroke="#005695" stroke-width="3" stroke-linecap="round" stroke-miterlimit="1" x1="129.167" y1="80.533" x2="129.167" y2="147.301"/>
				<g>
					<polygon fill="#005695" points="125.681,144.923 129.167,157.932 132.654,144.923 					"/>
				</g>
			</g>
		</g>
		<g>
			<line fill="#4F8ABE" x1="293.169" y1="157.932" x2="293.169" y2="80.533"/>
			<g>
				
					<line fill="none" stroke="#005695" stroke-width="3" stroke-linecap="round" stroke-miterlimit="1" x1="293.169" y1="157.932" x2="293.169" y2="91.165"/>
				<g>
					<polygon fill="#005695" points="296.655,93.542 293.169,80.533 289.683,93.542 					"/>
				</g>
			</g>
		</g>
		<g>
			<line fill="#4F8ABE" x1="180.576" y1="124.624" x2="203.185" y2="124.624"/>
			<g>
				
					<line fill="none" stroke="#005695" stroke-width="2" stroke-linecap="round" stroke-miterlimit="1" x1="180.576" y1="124.624" x2="196.097" y2="124.624"/>
				<g>
					<polygon fill="#005695" points="194.512,126.948 203.185,124.624 194.512,122.3 					"/>
				</g>
			</g>
		</g>
		<g>
			<line fill="#4F8ABE" x1="367.276" y1="124.624" x2="344.669" y2="124.624"/>
			<g>
				
					<line fill="none" stroke="#005695" stroke-width="2" stroke-linecap="round" stroke-miterlimit="1" x1="367.276" y1="124.624" x2="351.757" y2="124.624"/>
				<g>
					<polygon fill="#005695" points="353.342,122.3 344.669,124.624 353.342,126.948 					"/>
				</g>
			</g>
		</g>
	</g>
</g>
</svg>
