<?xml version="1.0" encoding="utf-8"?>

<!DOCTYPE svg PUBLIC "-//W3C//DTD SVG 1.1//EN" "http://www.w3.org/Graphics/SVG/1.1/DTD/svg11.dtd">
<svg version="1.1" id="Layer_1" xmlns="http://www.w3.org/2000/svg" xmlns:xlink="http://www.w3.org/1999/xlink" x="0px" y="0px"
	 width="502px" height="447px" viewBox="0 0 502 447" enable-background="new 0 0 502 447" xml:space="preserve">

<defs>
	<style type="text/css">
	text {
	  font-family: Helvetica, Verdana, ArialUnicodeMS, san-serif
	}
	</style>
</defs>

<g>
   <desc>
	PS 3.7 Part 7: Message Exchange
   </desc>
</g>

<g>
	<rect x="1" y="1" fill="#F5EED6" width="500" height="445"/>
	<g>
		<rect x="23.5" y="36.624" fill="#6799C8" width="455" height="78"/>
		<rect x="23.5" y="114.624" fill="#86B2D8" width="455" height="97"/>
		<rect x="23.5" y="211.624" fill="#B2CEE7" width="455" height="95.001"/>
		<rect x="23.5" y="306.625" fill="#FFFFFF" width="455" height="125.798"/>
		<path fill="#CCDEF0" stroke="#000000" stroke-width="0.75" d="M208.635,379.003c6.791,0,218.875,0,244.885,0
			c1.816,0,3.648,1.637,3.648,4.463v34.213c0,1.664-1.797,4.252-3.445,4.252c0,0-353.574,0-357.561,0
			c-3.989,0-4.033-5.486-4.033-5.486s0-82.511,0-85.671s1.494-6.211,4.033-6.211c2.536,0,99.694,0,99.694,0
			c4.183,0,4.792,2.193,4.792,5.779v25.298C200.648,366.604,200.648,379.003,208.635,379.003z"/>
		<rect x="26.412" y="44.625" fill="none" width="50.354" height="20"/>
		<text transform="matrix(0.9288 0 0 1 26.4131 51.7793)"><tspan x="0" y="0" font-size="10">DICOM</tspan><tspan x="0" y="12" font-size="10">PART 4</tspan></text>
		<rect x="26.412" y="126.644" fill="none" width="50.354" height="20"/>
		<text transform="matrix(0.9288 0 0 1 26.4131 133.7988)"><tspan x="0" y="0" font-size="10">DICOM</tspan><tspan x="0" y="12" font-size="10">PART 3</tspan></text>
		<rect x="26.412" y="216.634" fill="none" width="50.354" height="20.001"/>
		<text transform="matrix(0.9288 0 0 1 26.4131 223.7891)"><tspan x="0" y="0" font-size="10">DICOM</tspan><tspan x="0" y="12" font-size="10">PART 7</tspan></text>
		<rect x="26.412" y="316.402" fill="none" width="50.354" height="20"/>
		<text transform="matrix(0.9288 0 0 1 26.4131 323.5488)"><tspan x="0" y="0" font-size="10">DICOM</tspan><tspan x="0" y="12" font-size="10">PART 8 &amp; 9</tspan></text>
		
			<rect x="80.5" y="29.624" fill="none" stroke="#003468" stroke-width="2" stroke-linecap="round" stroke-linejoin="round" stroke-miterlimit="1" stroke-dasharray="8" width="388" height="342.104"/>
		<g>
			<path fill="#CCDEF0" d="M251.834,380.626"/>
			<path fill="none" stroke="#000000" stroke-width="0.75" d="M251.834,380.626"/>
		</g>
		<text transform="matrix(1 0 0 1 150.9321 402.0479)" font-size="12">Upper Layer Presentation Data Services</text>
		<text transform="matrix(1 0 0 1 113.7124 336.6289)"><tspan x="0" y="0" font-size="12">Upper Layer</tspan><tspan x="2.335" y="14.4" font-size="12">Association</tspan><tspan x="10.011" y="28.801" font-size="12">Services</tspan></text>
		<text transform="matrix(1 0 0 1 80.062 25.2153)" font-size="12">DICOM Application Entity</text>
		<g>
			<path fill="#CCDEF0" d="M258.123,251.449c0-1.979,1.62-3.6,3.6-3.6h193.01c1.979,0,3.6,1.62,3.6,3.6v35.662
				c0,1.979-1.62,3.6-3.6,3.6h-193.01c-1.979,0-3.6-1.62-3.6-3.6V251.449z"/>
			<path fill="none" stroke="#000000" stroke-width="0.75" d="M258.123,251.449c0-1.979,1.62-3.6,3.6-3.6h193.01
				c1.979,0,3.6,1.62,3.6,3.6v35.662c0,1.979-1.62,3.6-3.6,3.6h-193.01c-1.979,0-3.6-1.62-3.6-3.6V251.449z"/>
		</g>
		<text transform="matrix(1 0 0 1 339.2266 272.623)" font-size="12">DIMSE</text>
		<text transform="matrix(1 0 0 1 214.8843 230.1113)"><tspan x="0" y="0" font-size="9">DIMSE</tspan><tspan x="-8.761" y="10.8" font-size="9">Association</tspan><tspan x="-8.26" y="21.6" font-size="9">Information</tspan></text>
		<text transform="matrix(1 0 0 1 353.7939 334.0205)"><tspan x="0" y="0" font-size="9">Message</tspan><tspan x="-3.247" y="10.8" font-size="9">Fragments</tspan></text>
		<g>
			<path fill="#CCDEF0" d="M332.332,124.327c0-1.98,1.62-3.6,3.6-3.6h118.801c1.979,0,3.6,1.62,3.6,3.6v57.342
				c0,1.98-1.62,3.6-3.6,3.6H335.932c-1.979,0-3.6-1.62-3.6-3.6V124.327z"/>
			<path fill="none" stroke="#000000" stroke-width="0.75" d="M332.332,124.327c0-1.98,1.62-3.6,3.6-3.6h118.801
				c1.979,0,3.6,1.62,3.6,3.6v57.342c0,1.98-1.62,3.6-3.6,3.6H335.932c-1.979,0-3.6-1.62-3.6-3.6V124.327z"/>
		</g>
		<path fill="#CCDEF0" stroke="#000000" stroke-width="0.75" d="M328.141,105.976c4.607,0,110.076,0,127.717,0
			c1.232,0,2.475-1.715,2.475-4.677V54.903c0-1.741-1.219-4.452-2.336-4.452c0,0-189.559,0-192.261,0
			c-5.337,0-5.612,5.745-5.612,5.745s0,119.178,0,122.486s0.347,6.504,6.332,6.504c1.719,0,49.262,0,49.262,0
			c6.115,0,6.85-2.297,6.85-6.053v-60.75C320.566,106.9,320.566,105.976,328.141,105.976z"/>
		<path fill="#CCDEF0" stroke="#000000" stroke-width="0.75" d="M200.73,58.935c0-3.318-2.126-8.483-4.535-8.483
			c0,0-94.336,0-97.062,0c-7.055,0-6.387,8.065-6.387,8.065s0,217.097,0,223.401c0,6.303,0.592,8.793,6.387,8.793
			c1.733,0,98.276,0,98.276,0c2.859,0,3.277-4.377,3.277-11.531L200.73,58.935z"/>
		
			<polygon fill="#FFFFFF" stroke="#4F8ABE" stroke-width="2" stroke-linecap="round" stroke-linejoin="round" stroke-miterlimit="1" points="
			331.456,225.331 326.933,225.331 335.928,244.301 344.933,225.331 339.598,225.331 339.598,209.593 344.933,209.593 
			335.928,190.624 326.933,209.593 331.456,209.593 		"/>
		
			<polygon fill="#FFFFFF" stroke="#4F8ABE" stroke-width="2" stroke-linecap="round" stroke-linejoin="round" stroke-miterlimit="1" points="
			236.999,138.727 236.999,143.25 255.969,134.255 236.999,125.25 236.999,130.585 221.262,130.585 221.262,125.25 202.293,134.255 
			221.262,143.25 221.262,138.727 		"/>
		
			<polygon fill="#FFFFFF" stroke="#4F8ABE" stroke-width="2" stroke-linecap="round" stroke-linejoin="round" stroke-miterlimit="1" points="
			236.999,273.757 236.999,278.28 255.969,269.285 236.999,260.28 236.999,265.615 221.262,265.615 221.262,260.28 202.293,269.285 
			221.262,278.28 221.262,273.757 		"/>
		
			<polygon fill="#FFFFFF" stroke="#4F8ABE" stroke-width="2" stroke-linecap="round" stroke-linejoin="round" stroke-miterlimit="1" points="
			142.818,311.834 139.426,311.834 146.172,322.053 152.926,311.834 148.925,311.834 148.925,303.357 152.926,303.357 
			146.172,293.139 139.426,303.357 142.818,303.357 		"/>
		
			<polygon fill="#FFFFFF" stroke="#4F8ABE" stroke-width="2" stroke-linecap="round" stroke-linejoin="round" stroke-miterlimit="1" points="
			331.456,349.251 326.933,349.251 335.928,379.003 344.933,349.251 339.598,349.251 339.598,324.571 344.933,324.571 
			335.928,294.824 326.933,324.571 331.456,324.571 		"/>
		<text transform="matrix(1 0 0 1 116.0532 67.9424)"><tspan x="0" y="0" font-size="12">Association</tspan><tspan x="0" y="14.4" font-size="12">Negotiation</tspan></text>
		<g>
			<text transform="matrix(1 0 0 1 315.2148 81.627)" font-size="12">Service Classes</text>
		</g>
		<g>
			<text transform="matrix(1 0 0 1 343.3105 156.3403)" font-size="12">Information Objects</text>
		</g>
		<text transform="matrix(1 0 0 1 207.1216 94.8862)"><tspan x="0" y="0" font-size="9">Application</tspan><tspan x="-0.998" y="10.8" font-size="9">Association</tspan><tspan x="-0.497" y="21.6" font-size="9">Information</tspan></text>
	</g>
</g>
</svg>
