<?xml version="1.0" encoding="utf-8"?>

<!DOCTYPE svg PUBLIC "-//W3C//DTD SVG 1.1//EN" "http://www.w3.org/Graphics/SVG/1.1/DTD/svg11.dtd">
<svg version="1.1" id="Layer_1" xmlns="http://www.w3.org/2000/svg" xmlns:xlink="http://www.w3.org/1999/xlink" x="0px" y="0px"
	 width="502px" height="222px" viewBox="0 0 502 222" enable-background="new 0 0 502 222" xml:space="preserve">

<defs>
	<style type="text/css">
	text {
	  font-family: Helvetica, Verdana, ArialUnicodeMS, san-serif
	}
	</style>
</defs>

<g>
   <desc>
	PS 3.7 Part 7: Message Exchange
   </desc>
</g>

<g>
	<rect x="1" y="1" fill="#F5EED6" width="500" height="220"/>
	<g>
		<text transform="matrix(1 0 0 1 137.0845 115.6328)"><tspan x="0" y="0" font-size="10">A-ASSOCIATE-Request</tspan><tspan x="28.625" y="12" font-size="10">( A          B)</tspan></text>
		<text transform="matrix(1 0 0 1 299.3525 115.6328)"><tspan x="0" y="0" font-size="10">A-ASSOCIATE-Response</tspan><tspan x="33.906" y="12" font-size="10">(B          A)</tspan></text>
		<text transform="matrix(1 0 0 1 31.3242 27.6313)" font-size="12">DICOM AE “A”</text>
		
			<rect x="31.323" y="34.006" fill="#86B2D8" stroke="#000000" stroke-width="0.9072" stroke-linecap="round" stroke-linejoin="round" stroke-miterlimit="1" width="439.354" height="45.001"/>
		<rect x="85.665" y="44.967" fill="#CCDEF0" stroke="#000000" width="128.992" height="23.401"/>
		<rect x="85.665" y="47.812" fill="none" width="127.986" height="17.71"/>
		<text transform="matrix(1 0 0 1 91.6362 53.5396)"><tspan x="0" y="0" font-size="8">Asynch. Oper. Window Sub-Item</tspan><tspan x="48.02" y="9.6" font-size="8">(53H)</tspan></text>
		<rect x="214.325" y="44.967" fill="#CCDEF0" stroke="#000000" width="124.791" height="23.401"/>
		<rect x="217.128" y="47.812" fill="none" width="119.184" height="17.71"/>
		<text transform="matrix(1 0 0 1 218.3076 53.5396)"><tspan x="0" y="0" font-size="8">Max. no. of Oper. DICOM AE &quot;A&quot;</tspan><tspan x="31.959" y="9.6" font-size="8">may Invoke (3)</tspan></text>
		<rect x="339.115" y="44.967" fill="#CCDEF0" stroke="#000000" width="124.791" height="23.401"/>
		<rect x="341.92" y="47.812" fill="none" width="119.184" height="17.71"/>
		<text transform="matrix(1 0 0 1 343.0986 53.5396)"><tspan x="0" y="0" font-size="8">Max. no. of Oper. DICOM AE &quot;A&quot;</tspan><tspan x="29.52" y="9.6" font-size="8">may Perform (2)</tspan></text>
		
			<rect x="31.323" y="160.007" fill="#86B2D8" stroke="#000000" stroke-width="0.9072" stroke-linecap="round" stroke-linejoin="round" stroke-miterlimit="1" width="439.354" height="45"/>
		<rect x="191.409" y="178.079" fill="none" width="119.183" height="8.855"/>
		<text transform="matrix(1 0 0 1 215.2109 183.8066)" font-size="8"> (No Sub-Item 53H )</text>
		<text transform="matrix(1 0 0 1 31.3242 153.6309)" font-size="12">DICOM AE “B”</text>
		<g>
			<line fill="#4F8ABE" x1="130.146" y1="80.086" x2="130.146" y2="157.487"/>
			<g>
				
					<line fill="none" stroke="#005695" stroke-width="3" stroke-linecap="round" stroke-miterlimit="1" x1="130.146" y1="80.086" x2="130.146" y2="146.856"/>
				<g>
					<polygon fill="#005695" points="126.66,144.479 130.146,157.487 133.632,144.479 					"/>
				</g>
			</g>
		</g>
		<g>
			<line fill="#4F8ABE" x1="294.145" y1="157.487" x2="294.145" y2="80.086"/>
			<g>
				
					<line fill="none" stroke="#005695" stroke-width="3" stroke-linecap="round" stroke-miterlimit="1" x1="294.145" y1="157.487" x2="294.145" y2="90.718"/>
				<g>
					<polygon fill="#005695" points="297.631,93.095 294.145,80.086 290.658,93.095 					"/>
				</g>
			</g>
		</g>
		<g>
			<line fill="#4F8ABE" x1="181.555" y1="124.18" x2="204.163" y2="124.18"/>
			<g>
				
					<line fill="none" stroke="#005695" stroke-width="2" stroke-linecap="round" stroke-miterlimit="1" x1="181.555" y1="124.18" x2="197.076" y2="124.18"/>
				<g>
					<polygon fill="#005695" points="195.49,126.504 204.163,124.18 195.49,121.855 					"/>
				</g>
			</g>
		</g>
		<g>
			<line fill="#4F8ABE" x1="368.252" y1="124.18" x2="345.645" y2="124.18"/>
			<g>
				
					<line fill="none" stroke="#005695" stroke-width="2" stroke-linecap="round" stroke-miterlimit="1" x1="368.252" y1="124.18" x2="352.732" y2="124.18"/>
				<g>
					<polygon fill="#005695" points="354.317,121.855 345.645,124.18 354.317,126.504 					"/>
				</g>
			</g>
		</g>
	</g>
</g>
</svg>
