<?xml version="1.0" encoding="utf-8"?>

<!DOCTYPE svg PUBLIC "-//W3C//DTD SVG 1.1//EN" "http://www.w3.org/Graphics/SVG/1.1/DTD/svg11.dtd">
<svg version="1.1" id="Layer_1" xmlns="http://www.w3.org/2000/svg" xmlns:xlink="http://www.w3.org/1999/xlink" x="0px" y="0px"
	 width="502px" height="222px" viewBox="0 0 502 222" enable-background="new 0 0 502 222" xml:space="preserve">

<defs>
	<style type="text/css">
	text {
	  font-family: Helvetica, Verdana, ArialUnicodeMS, san-serif
	}
	</style>
</defs>

<g>
   <desc>
	PS 3.7 Part 7: Message Exchange
   </desc>
</g>

<g>
	<rect x="1" y="1" fill="#F5EED6" width="500" height="220"/>
	<g>
		<text transform="matrix(1 0 0 1 164.9482 115.6328)"><tspan x="0" y="0" font-size="10">A-ASSOCIATE-Request</tspan><tspan x="28.625" y="12" font-size="10">( A          B)</tspan></text>
		<text transform="matrix(1 0 0 1 327.2168 115.6328)"><tspan x="0" y="0" font-size="10">A-ASSOCIATE-Response</tspan><tspan x="33.906" y="12" font-size="10">(B          A)</tspan></text>
		<text transform="matrix(1 0 0 1 59.188 27.6313)" font-size="12">DICOM AE “A”</text>
		
			<rect x="59.188" y="34.006" fill="#86B2D8" stroke="#000000" stroke-width="0.9072" stroke-linecap="round" stroke-linejoin="round" stroke-miterlimit="1" width="288.001" height="45"/>
		<rect x="143.521" y="44.967" fill="#CCDEF0" stroke="#000000" width="99" height="23.4"/>
		<rect x="144.529" y="47.812" fill="none" width="96.985" height="17.709"/>
		<text transform="matrix(1 0 0 1 147.6738 53.5396)"><tspan x="0" y="0" font-size="8">Imp. Ver. Name Sub-Item</tspan><tspan x="35.346" y="9.6" font-size="8">(55H)</tspan></text>
		<rect x="242.188" y="44.967" fill="#CCDEF0" stroke="#000000" width="99" height="23.4"/>
		<rect x="241.486" y="47.812" fill="none" width="99.071" height="17.709"/>
		<text transform="matrix(1 0 0 1 245.2349 53.5396)"><tspan x="0" y="0" font-size="8">Ver. Name for DICOM AE</tspan><tspan x="40.455" y="9.6" font-size="8">“A”</tspan></text>
		<text transform="matrix(1 0 0 1 59.188 153.6309)" font-size="12">DICOM AE “B”</text>
		
			<rect x="59.188" y="160.006" fill="#86B2D8" stroke="#000000" stroke-width="0.9072" stroke-linecap="round" stroke-linejoin="round" stroke-miterlimit="1" width="288.001" height="45"/>
		<rect x="143.521" y="170.967" fill="#CCDEF0" stroke="#000000" width="99" height="23.4"/>
		<rect x="142.529" y="173.812" fill="none" width="100.985" height="17.709"/>
		<text transform="matrix(1 0 0 1 147.6738 179.5391)"><tspan x="0" y="0" font-size="8">Imp. Ver. Name Sub-Item</tspan><tspan x="35.346" y="9.601" font-size="8">(55H)</tspan></text>
		<rect x="242.188" y="170.967" fill="#CCDEF0" stroke="#000000" width="99" height="23.4"/>
		<rect x="241.486" y="173.812" fill="none" width="99.071" height="17.709"/>
		<text transform="matrix(1 0 0 1 245.2349 179.5391)"><tspan x="0" y="0" font-size="8">Ver. Name for DICOM AE</tspan><tspan x="40.455" y="9.601" font-size="8">“B”</tspan></text>
		<g>
			<line fill="#4F8ABE" x1="158.342" y1="80.446" x2="158.342" y2="157.848"/>
			<g>
				
					<line fill="none" stroke="#005695" stroke-width="3" stroke-linecap="round" stroke-miterlimit="1" x1="158.342" y1="80.446" x2="158.342" y2="147.217"/>
				<g>
					<polygon fill="#005695" points="154.855,144.839 158.342,157.848 161.828,144.839 					"/>
				</g>
			</g>
		</g>
		<g>
			<line fill="#4F8ABE" x1="322.343" y1="157.848" x2="322.343" y2="80.446"/>
			<g>
				
					<line fill="none" stroke="#005695" stroke-width="3" stroke-linecap="round" stroke-miterlimit="1" x1="322.343" y1="157.848" x2="322.343" y2="91.078"/>
				<g>
					<polygon fill="#005695" points="325.829,93.455 322.343,80.446 318.856,93.455 					"/>
				</g>
			</g>
		</g>
		<g>
			<line fill="#4F8ABE" x1="209.75" y1="124.54" x2="232.359" y2="124.54"/>
			<g>
				
					<line fill="none" stroke="#005695" stroke-width="2" stroke-linecap="round" stroke-miterlimit="1" x1="209.75" y1="124.54" x2="225.271" y2="124.54"/>
				<g>
					<polygon fill="#005695" points="223.686,126.864 232.359,124.54 223.686,122.216 					"/>
				</g>
			</g>
		</g>
		<g>
			<line fill="#4F8ABE" x1="396.45" y1="124.54" x2="373.843" y2="124.54"/>
			<g>
				
					<line fill="none" stroke="#005695" stroke-width="2" stroke-linecap="round" stroke-miterlimit="1" x1="396.45" y1="124.54" x2="380.931" y2="124.54"/>
				<g>
					<polygon fill="#005695" points="382.516,122.216 373.843,124.54 382.516,126.864 					"/>
				</g>
			</g>
		</g>
	</g>
</g>
</svg>
