<?xml version="1.0" encoding="utf-8"?>

<!DOCTYPE svg PUBLIC "-//W3C//DTD SVG 1.1//EN" "http://www.w3.org/Graphics/SVG/1.1/DTD/svg11.dtd">
<svg version="1.1" id="Layer_1" xmlns="http://www.w3.org/2000/svg" xmlns:xlink="http://www.w3.org/1999/xlink" x="0px" y="0px"
	 width="502px" height="222px" viewBox="0 0 502 222" enable-background="new 0 0 502 222" xml:space="preserve">

<defs>
	<style type="text/css">
	text {
	  font-family: Helvetica, Verdana, ArialUnicodeMS, san-serif
	}
	</style>
</defs>

<g>
   <desc>
	PS 3.7 Part 7: Message Exchange
   </desc>
</g>

<g>
	<rect x="1" y="1" fill="#F5EED6" width="500" height="220"/>
	<g>
		<text transform="matrix(1 0 0 1 164.9482 115.6328)"><tspan x="0" y="0" font-size="10">A-ASSOCIATE-Request</tspan><tspan x="28.625" y="12" font-size="10">( A          B)</tspan></text>
		<text transform="matrix(1 0 0 1 327.2168 115.6328)"><tspan x="0" y="0" font-size="10">A-ASSOCIATE-Response</tspan><tspan x="33.906" y="12" font-size="10">(B          A)</tspan></text>
		<text transform="matrix(1 0 0 1 59.188 27.6313)" font-size="12">DICOM AE “A”</text>
		
			<rect x="59.188" y="34.006" fill="#86B2D8" stroke="#000000" stroke-width="0.9072" stroke-linecap="round" stroke-linejoin="round" stroke-miterlimit="1" width="288.001" height="45"/>
		<rect x="143.521" y="44.967" fill="#CCDEF0" stroke="#000000" width="99" height="23.4"/>
		<rect x="151.487" y="47.812" fill="none" width="83.07" height="17.709"/>
		<text transform="matrix(1 0 0 1 153.668 53.5396)"><tspan x="0" y="0" font-size="8">Max. Length Sub-Item</tspan><tspan x="29.352" y="9.6" font-size="8">(51H)</tspan></text>
		<rect x="242.188" y="44.967" fill="#CCDEF0" stroke="#000000" width="99" height="23.4"/>
		<rect x="243.528" y="47.812" fill="none" width="94.987" height="17.709"/>
		<text transform="matrix(1 0 0 1 243.8892 53.5396)"><tspan x="0" y="0" font-size="8">Max. PDU Length Receive</tspan><tspan x="35.57" y="9.6" font-size="8">(4096)</tspan></text>
		<text transform="matrix(1 0 0 1 59.188 153.6309)" font-size="12">DICOM AE “B”</text>
		
			<rect x="59.188" y="160.006" fill="#86B2D8" stroke="#000000" stroke-width="0.9072" stroke-linecap="round" stroke-linejoin="round" stroke-miterlimit="1" width="288.001" height="45"/>
		<rect x="143.521" y="170.967" fill="#CCDEF0" stroke="#000000" width="99" height="23.4"/>
		<rect x="151.487" y="173.812" fill="none" width="83.07" height="17.709"/>
		<text transform="matrix(1 0 0 1 153.668 179.5391)"><tspan x="0" y="0" font-size="8">Max. Length Sub-Item</tspan><tspan x="29.352" y="9.601" font-size="8">(51H)</tspan></text>
		<rect x="242.188" y="170.967" fill="#CCDEF0" stroke="#000000" width="99" height="23.4"/>
		<rect x="243.674" y="173.812" fill="none" width="94.696" height="17.709"/>
		<text transform="matrix(1 0 0 1 243.8892 179.5391)"><tspan x="0" y="0" font-size="8">Max. PDU Length Receive</tspan><tspan x="33.345" y="9.601" font-size="8">(16384)</tspan></text>
		<g>
			<line fill="#4F8ABE" x1="157.658" y1="80.445" x2="157.658" y2="157.847"/>
			<g>
				
					<line fill="none" stroke="#005695" stroke-width="3" stroke-linecap="round" stroke-miterlimit="1" x1="157.658" y1="80.445" x2="157.658" y2="147.216"/>
				<g>
					<polygon fill="#005695" points="154.172,144.838 157.658,157.847 161.145,144.838 					"/>
				</g>
			</g>
		</g>
		<g>
			<line fill="#4F8ABE" x1="321.659" y1="157.847" x2="321.659" y2="80.445"/>
			<g>
				
					<line fill="none" stroke="#005695" stroke-width="3" stroke-linecap="round" stroke-miterlimit="1" x1="321.659" y1="157.847" x2="321.659" y2="91.077"/>
				<g>
					<polygon fill="#005695" points="325.146,93.454 321.659,80.445 318.173,93.454 					"/>
				</g>
			</g>
		</g>
		<g>
			<line fill="#4F8ABE" x1="209.067" y1="124.539" x2="231.675" y2="124.539"/>
			<g>
				
					<line fill="none" stroke="#005695" stroke-width="2" stroke-linecap="round" stroke-miterlimit="1" x1="209.067" y1="124.539" x2="224.588" y2="124.539"/>
				<g>
					<polygon fill="#005695" points="223.002,126.863 231.675,124.539 223.002,122.215 					"/>
				</g>
			</g>
		</g>
		<g>
			<line fill="#4F8ABE" x1="395.767" y1="124.539" x2="373.159" y2="124.539"/>
			<g>
				
					<line fill="none" stroke="#005695" stroke-width="2" stroke-linecap="round" stroke-miterlimit="1" x1="395.767" y1="124.539" x2="380.247" y2="124.539"/>
				<g>
					<polygon fill="#005695" points="381.832,122.215 373.159,124.539 381.832,126.863 					"/>
				</g>
			</g>
		</g>
	</g>
</g>
</svg>
