<?xml version="1.0" encoding="utf-8"?>

<!DOCTYPE svg PUBLIC "-//W3C//DTD SVG 1.1//EN" "http://www.w3.org/Graphics/SVG/1.1/DTD/svg11.dtd">
<svg version="1.1" id="Layer_1" xmlns="http://www.w3.org/2000/svg" xmlns:xlink="http://www.w3.org/1999/xlink" x="0px" y="0px"
	 width="502px" height="322px" viewBox="0 0 502 322" enable-background="new 0 0 502 322" xml:space="preserve">

<defs>
	<style type="text/css">
	text {
	  font-family: Helvetica, Verdana, ArialUnicodeMS, san-serif
	}
	</style>
</defs>

<g>
   <desc>
	PS 3.7 Part 7: Message Exchange
   </desc>
</g>

<g>
	<rect x="1" y="1" fill="#F5EED6" width="500" height="320"/>
	<g>
		
			<line fill="none" stroke="#005695" stroke-width="7" stroke-linecap="round" stroke-miterlimit="1" x1="251.001" y1="101.321" x2="251.001" y2="276.491"/>
		<g>
			<path fill="#CCDEF0" d="M140.941,127.482c0-1.98,1.62-3.6,3.6-3.6h212.919c1.979,0,3.6,1.62,3.6,3.6v24.762
				c0,1.98-1.62,3.6-3.6,3.6H144.542c-1.98,0-3.6-1.62-3.6-3.6V127.482z"/>
		</g>
		<text transform="matrix(1 0 0 1 146.7798 139.8604)" font-size="11">BOUNDARY: DICOM Upper Layer Service</text>
		
			<line fill="#4F8ABE" stroke="#005695" stroke-width="4" stroke-linecap="round" stroke-miterlimit="1" x1="155.079" y1="147.959" x2="346.923" y2="147.959"/>
		<g>
			<path fill="#CCDEF0" d="M141.329,280.592c0-1.979,1.62-3.6,3.6-3.6h212.143c1.979,0,3.6,1.62,3.6,3.6v22.229
				c0,1.979-1.62,3.6-3.6,3.6H144.929c-1.98,0-3.6-1.62-3.6-3.6V280.592z"/>
			<path fill="none" stroke="#000000" stroke-width="0.75" d="M141.329,280.592c0-1.979,1.62-3.6,3.6-3.6h212.143
				c1.979,0,3.6,1.62,3.6,3.6v22.229c0,1.979-1.62,3.6-3.6,3.6H144.929c-1.98,0-3.6-1.62-3.6-3.6V280.592z"/>
		</g>
		<g>
			<text transform="matrix(1 0 0 1 230.8291 294.7715)" font-size="11">Network</text>
		</g>
		<g>
			<path fill="#CCDEF0" d="M141.329,229.978c0-1.979,1.62-3.6,3.6-3.6h212.143c1.979,0,3.6,1.62,3.6,3.6v22.229
				c0,1.979-1.62,3.6-3.6,3.6H144.929c-1.98,0-3.6-1.62-3.6-3.6V229.978z"/>
			<path fill="none" stroke="#000000" stroke-width="0.75" d="M141.329,229.978c0-1.979,1.62-3.6,3.6-3.6h212.143
				c1.979,0,3.6,1.62,3.6,3.6v22.229c0,1.979-1.62,3.6-3.6,3.6H144.929c-1.98,0-3.6-1.62-3.6-3.6V229.978z"/>
		</g>
		<g>
			<text transform="matrix(1 0 0 1 192.853 244.1572)" font-size="11">TCP/IP Transport Layer</text>
		</g>
		<g>
			<path fill="#CCDEF0" d="M141.002,179.363c0-1.979,1.62-3.6,3.6-3.6h212.797c1.979,0,3.6,1.62,3.6,3.6v22.229
				c0,1.979-1.62,3.6-3.6,3.6H144.602c-1.98,0-3.6-1.62-3.6-3.6V179.363z"/>
			<path fill="none" stroke="#000000" stroke-width="0.75" d="M141.002,179.363c0-1.979,1.62-3.6,3.6-3.6h212.797
				c1.979,0,3.6,1.62,3.6,3.6v22.229c0,1.979-1.62,3.6-3.6,3.6H144.602c-1.98,0-3.6-1.62-3.6-3.6V179.363z"/>
		</g>
		<g>
			<text transform="matrix(1 0 0 1 151.9707 193.543)" font-size="11">DICOM Upper Layer Protocol for TCP/IP</text>
		</g>
		<g>
			<path fill="#CCDEF0" d="M140.941,79.603c0-1.98,1.62-3.6,3.6-3.6h212.919c1.979,0,3.6,1.62,3.6,3.6v19.291
				c0,1.98-1.62,3.6-3.6,3.6H144.542c-1.98,0-3.6-1.62-3.6-3.6V79.603z"/>
			<path fill="none" stroke="#000000" stroke-width="0.75" d="M140.941,79.603c0-1.98,1.62-3.6,3.6-3.6h212.919
				c1.979,0,3.6,1.62,3.6,3.6v19.291c0,1.98-1.62,3.6-3.6,3.6H144.542c-1.98,0-3.6-1.62-3.6-3.6V79.603z"/>
		</g>
		<text transform="matrix(1.1108 0 0 1 148.6172 92.2593)" font-size="10.8028">DICOM Application Message Exhange</text>
		<polygon fill="#4F8ABE" points="159.497,15.58 346.565,15.58 346.084,33.243 391.663,33.243 251.464,74.349 110.338,33.243 
			159.497,33.243 		"/>
		<text transform="matrix(1.1937 0 0 1 190.5278 30.3193)"><tspan x="0" y="0" fill="#FFFFFF" font-size="13.4035"> Medical Imaging</tspan><tspan x="17.873" y="16.084" fill="#FFFFFF" font-size="13.4035">Application</tspan></text>
	</g>
</g>
</svg>
