<?xml version="1.0" encoding="utf-8"?>

<!DOCTYPE svg PUBLIC "-//W3C//DTD SVG 1.1//EN" "http://www.w3.org/Graphics/SVG/1.1/DTD/svg11.dtd">
<svg version="1.1" id="Layer_1" xmlns="http://www.w3.org/2000/svg" xmlns:xlink="http://www.w3.org/1999/xlink" x="0px" y="0px"
	 width="502px" height="213.344px" viewBox="0 0 502 213.344" enable-background="new 0 0 502 213.344" xml:space="preserve">

<defs>
	<style type="text/css">
	text {
	  font-family: Helvetica, Verdana, ArialUnicodeMS, san-serif
	}
	</style>
</defs>

<g>
   <desc>
	PS 3.3 Part 3: Information Object Definitions
   </desc>
</g>

<g>
	<rect x="1" y="1" fill="#F5EED6" width="500" height="211.344"/>
	<g>
		<rect x="129.329" y="165.798" fill="#BCBEC0" stroke="#000000" width="287.999" height="30.404"/>
		<text transform="matrix(1 0 0 1 455.7344 160.5859)" fill="#0DB14B" font-size="14">Y</text>
		<text transform="matrix(1 0 0 1 159.7935 29.543)" fill="#00AEEF" font-size="14">Z</text>
		<g>
			<text transform="matrix(0.963 0 0 1 41.3188 82.854)"><tspan x="0" y="0" font-size="10.2494">Cover Slip</tspan><tspan x="1.702" y="26.298" font-size="10.2494">Specimen</tspan><tspan x="19.938" y="52.599" font-size="10.2494">Origin</tspan><tspan x="-4.559" y="78.898" font-size="10.2494">Glass Slide</tspan><tspan x="3.408" y="91.197" font-size="10.2494">Substrate</tspan></text>
		</g>
		<rect x="163.53" y="156.798" fill="#E6E7E8" stroke="#000000" width="197.998" height="9"/>
		<rect x="195.229" y="147.202" fill="#005695" stroke="#000000" width="53.999" height="9"/>
		<rect x="195.229" y="137.868" fill="#CCDEF0" stroke="#000000" width="53.999" height="9"/>
		<g>
			<g>
				
					<line fill="none" stroke="#00AEEF" stroke-width="2" stroke-linejoin="round" x1="163.53" y1="156.798" x2="163.53" y2="47.292"/>
				<g>
					<polygon fill="#00AEEF" points="167.017,49.669 163.53,36.66 160.044,49.669 					"/>
				</g>
			</g>
		</g>
		<g>
			<g>
				<line fill="none" stroke="#0DB14B" stroke-width="2" x1="163.53" y1="156.798" x2="440.519" y2="156.798"/>
				<g>
					<polygon fill="#0DB14B" points="438.141,160.284 451.149,156.798 438.141,153.312 					"/>
				</g>
			</g>
		</g>
		<g>
			<text transform="matrix(0.963 0 0 1 130.876 192.3281)" font-size="10.2494">Microscope Stage</text>
		</g>
		<g>
			<g>
				<polyline fill="none" stroke="#000000" stroke-miterlimit="1" points="91.385,131.736 108.018,131.736 158.006,154.494 				"/>
				<g>
					<polygon points="156.202,155.588 162.844,156.696 157.646,152.415 					"/>
				</g>
			</g>
		</g>
		<g>
			<g>
				<line fill="none" stroke="#000000" stroke-miterlimit="1" x1="91.385" y1="159.956" x2="157.292" y2="160.066"/>
				<g>
					<polygon points="156.101,161.808 162.608,160.075 156.106,158.321 					"/>
				</g>
			</g>
		</g>
		<g>
			<g>
				<polyline fill="none" stroke="#000000" stroke-miterlimit="1" points="91.385,107.374 107.771,107.374 190.574,147.966 				"/>
				<g>
					<polygon points="188.739,149.008 195.347,150.306 190.273,145.877 					"/>
				</g>
			</g>
		</g>
		<g>
			<g>
				<polyline fill="none" stroke="#000000" stroke-miterlimit="1" points="91.385,80.276 108.018,80.276 191.184,133.783 				"/>
				<g>
					<polygon points="189.241,134.605 195.654,136.659 191.127,131.674 					"/>
				</g>
			</g>
		</g>
	</g>
</g>
</svg>
