<?xml version="1.0" encoding="utf-8"?>

<!DOCTYPE svg PUBLIC "-//W3C//DTD SVG 1.1//EN" "http://www.w3.org/Graphics/SVG/1.1/DTD/svg11.dtd">
<svg version="1.1" id="Layer_1" xmlns="http://www.w3.org/2000/svg" xmlns:xlink="http://www.w3.org/1999/xlink" x="0px" y="0px"
	 width="602px" height="532px" viewBox="0 0 602 532" enable-background="new 0 0 602 532" xml:space="preserve">

<defs>
	<style type="text/css">
	text {
	  font-family: Helvetica, Verdana, ArialUnicodeMS, san-serif
	}
	</style>
</defs>

<g>
   <desc>
	PS 3.3 Part 3: Information Object Definitions
   </desc>
</g>

<g>
	<rect x="1" y="1" fill="#F5EED6" width="600" height="530"/>
	<g>
		<g>
			<g>
				
					<line fill="none" stroke="#005695" stroke-width="2" stroke-linejoin="round" x1="150.398" y1="42.891" x2="150.361" y2="59.464"/>
				<g>
					<polygon fill="#005695" points="148.041,57.874 150.346,66.552 152.689,57.884 					"/>
				</g>
			</g>
		</g>
		<g>
			<g>
				
					<line fill="none" stroke="#005695" stroke-width="2" stroke-linejoin="round" x1="150.136" y1="85.424" x2="150.178" y2="92.665"/>
				<g>
					<polygon fill="#005695" points="147.844,91.093 150.218,99.752 152.493,91.066 					"/>
				</g>
			</g>
		</g>
		
			<polygon fill="#CCDEF0" stroke="#010101" stroke-width="0.75" stroke-linecap="round" stroke-linejoin="round" stroke-miterlimit="1" points="
			195.137,75.755 150.208,66.893 105.143,75.882 105.143,75.903 150.208,84.893 		"/>
		<g>
			<text transform="matrix(1 0 0 1 143.0894 78.3755)" font-size="9">has</text>
		</g>
		
			<rect x="108.137" y="15.666" fill="#86B2D8" stroke="#010101" stroke-width="0.75" stroke-linecap="round" stroke-linejoin="round" stroke-miterlimit="1" width="83.99" height="27.225"/>
		<g>
			<text transform="matrix(1 0 0 1 130.46 26.7681)"><tspan x="0" y="0" font-size="12">Display</tspan><tspan x="-0.331" y="11.733" font-size="12">System</tspan></text>
		</g>
		
			<rect x="108.137" y="489.109" fill="#86B2D8" stroke="#010101" stroke-width="0.75" stroke-linecap="round" stroke-linejoin="round" stroke-miterlimit="1" width="83.99" height="27.225"/>
		<g>
			<text transform="matrix(1 0 0 1 141.4639 500.2109)"><tspan x="0" y="0" font-size="12">QA</tspan><tspan x="-11.338" y="11.732" font-size="12">Results</tspan></text>
		</g>
		
			<rect x="108.181" y="99.303" fill="#86B2D8" stroke="#010101" stroke-width="0.75" stroke-linecap="round" stroke-linejoin="round" stroke-miterlimit="1" width="83.99" height="27.225"/>
		
			<rect x="108.299" y="195.595" fill="#86B2D8" stroke="#010101" stroke-width="0.75" stroke-linecap="round" stroke-linejoin="round" stroke-miterlimit="1" width="83.994" height="39.477"/>
		<g>
			<text transform="matrix(1 0 0 1 136.2886 206.6973)"><tspan x="0" y="0" font-size="9">&lt;Item&gt;</tspan><tspan x="-0.747" y="8.133" font-size="9">Display</tspan><tspan x="-8.25" y="16.267" font-size="9">Subsystem</tspan><tspan x="-12.759" y="24.4" font-size="9">Configuration</tspan></text>
		</g>
		<g>
			<text transform="matrix(1 0 0 1 183.6807 68.8735)" font-size="9">1</text>
		</g>
		<g>
			<text transform="matrix(1 0 0 1 175.6777 88.7197)" font-size="9">1-n</text>
		</g>
		<g>
			<g>
				
					<line fill="none" stroke="#005695" stroke-width="2" stroke-linejoin="round" x1="150.383" y1="439.336" x2="150.346" y2="455.908"/>
				<g>
					<polygon fill="#005695" points="148.055,440.915 150.398,432.248 152.703,440.926 					"/>
				</g>
			</g>
		</g>
		<g>
			<g>
				
					<line fill="none" stroke="#005695" stroke-width="2" stroke-linejoin="round" x1="150.175" y1="481.148" x2="150.218" y2="489.109"/>
				<g>
					<polygon fill="#005695" points="147.859,482.746 150.136,474.061 152.508,482.721 					"/>
				</g>
			</g>
		</g>
		
			<polygon fill="#CCDEF0" stroke="#010101" stroke-width="0.75" stroke-linecap="round" stroke-linejoin="round" stroke-miterlimit="1" points="
			195.137,465.111 150.208,456.25 105.143,465.238 105.143,465.26 150.208,474.25 		"/>
		<g>
			<text transform="matrix(1 0 0 1 143.0894 467.7324)" font-size="9">has</text>
		</g>
		<g>
			<text transform="matrix(1 0 0 1 175.9902 458.2305)" font-size="9">1-n</text>
		</g>
		<g>
			<text transform="matrix(1 0 0 1 183.9922 478.0762)" font-size="9">1</text>
		</g>
		<g>
			<g>
				
					<line fill="none" stroke="#005695" stroke-width="2" stroke-linejoin="round" x1="150.455" y1="126.527" x2="150.455" y2="144.561"/>
				<g>
					<polygon fill="#005695" points="148.13,142.976 150.455,151.648 152.779,142.976 					"/>
				</g>
			</g>
		</g>
		<g>
			<g>
				<polyline fill="none" stroke="#005695" stroke-width="2" stroke-linejoin="round" points="53.468,355.076 53.468,112.03 
					101.808,112.03 				"/>
				<g>
					<polygon fill="#005695" points="100.222,114.354 108.895,112.03 100.222,109.706 					"/>
				</g>
			</g>
		</g>
		<g>
			<line fill="#4F8ABE" x1="150.453" y1="170.585" x2="150.453" y2="195.708"/>
			<g>
				
					<line fill="none" stroke="#005695" stroke-width="2" stroke-miterlimit="1" x1="150.453" y1="170.585" x2="150.453" y2="188.621"/>
				<g>
					<polygon fill="#005695" points="148.128,187.035 150.453,195.708 152.777,187.035 					"/>
				</g>
			</g>
		</g>
		
			<polygon fill="#CCDEF0" stroke="#010101" stroke-width="0.75" stroke-linecap="round" stroke-linejoin="round" stroke-miterlimit="1" points="
			195.452,161.448 150.518,152.585 105.454,161.575 105.454,161.597 150.518,170.585 		"/>
		<g>
			<text transform="matrix(1 0 0 1 143.041 164.0708)" font-size="9">has</text>
		</g>
		<g>
			<text transform="matrix(1 0 0 1 183.9917 153.1484)" font-size="9">1</text>
		</g>
		<g>
			<text transform="matrix(1 0 0 1 175.9897 175.1533)" font-size="9">1-n</text>
		</g>
		
			<rect x="207.78" y="295.152" fill="#86B2D8" stroke="#010101" stroke-width="0.75" stroke-linecap="round" stroke-linejoin="round" stroke-miterlimit="1" width="84.006" height="39.475"/>
		<g>
			<text transform="matrix(1 0 0 1 235.7744 306.5205)"><tspan x="0" y="0" font-size="9">&lt;Item&gt;</tspan><tspan x="-0.747" y="8.134" font-size="9">Display</tspan><tspan x="-7.503" y="16.267" font-size="9">Calibration</tspan><tspan x="1.253" y="24.399" font-size="9">Result</tspan></text>
		</g>
		<g>
			<line fill="#4F8ABE" x1="249.783" y1="354.408" x2="249.783" y2="334.621"/>
			<g>
				
					<line fill="none" stroke="#005695" stroke-width="2" stroke-miterlimit="1" x1="249.783" y1="354.408" x2="249.783" y2="341.709"/>
				<g>
					<polygon fill="#005695" points="252.107,343.294 249.783,334.621 247.458,343.294 					"/>
				</g>
			</g>
		</g>
		<g>
			<line fill="#4F8ABE" x1="349.274" y1="354.408" x2="349.274" y2="334.621"/>
			<g>
				
					<line fill="none" stroke="#005695" stroke-width="2" stroke-miterlimit="1" x1="349.274" y1="354.408" x2="349.274" y2="341.709"/>
				<g>
					<polygon fill="#005695" points="351.599,343.294 349.274,334.621 346.95,343.294 					"/>
				</g>
			</g>
		</g>
		<g>
			<line fill="#4F8ABE" x1="448.766" y1="354.408" x2="448.766" y2="334.621"/>
			<g>
				
					<line fill="none" stroke="#005695" stroke-width="2" stroke-miterlimit="1" x1="448.766" y1="354.408" x2="448.766" y2="341.709"/>
				<g>
					<polygon fill="#005695" points="451.09,343.294 448.766,334.621 446.441,343.294 					"/>
				</g>
			</g>
		</g>
		<g>
			<line fill="#4F8ABE" x1="548.257" y1="354.408" x2="548.257" y2="334.621"/>
			<g>
				
					<line fill="none" stroke="#005695" stroke-width="2" stroke-miterlimit="1" x1="548.257" y1="354.408" x2="548.257" y2="341.709"/>
				<g>
					<polygon fill="#005695" points="550.581,343.294 548.257,334.621 545.933,343.294 					"/>
				</g>
			</g>
		</g>
		<g>
			<text transform="matrix(1 0 0 1 274.8809 356.2949)" font-size="9">0-1</text>
		</g>
		
			<rect x="307.273" y="295.152" fill="#86B2D8" stroke="#010101" stroke-width="0.75" stroke-linecap="round" stroke-linejoin="round" stroke-miterlimit="1" width="84.002" height="39.475"/>
		<g>
			<text transform="matrix(1 0 0 1 335.2656 309.2617)"><tspan x="0" y="0" font-size="9">&lt;Item&gt;</tspan><tspan x="-10.257" y="8.133" font-size="9">Luminance</tspan><tspan x="1.253" y="16.267" font-size="9">Result</tspan></text>
		</g>
		<g>
			<text transform="matrix(1 0 0 1 374.3721 356.2949)" font-size="9">0-1</text>
		</g>
		
			<rect x="406.769" y="295.152" fill="#86B2D8" stroke="#010101" stroke-width="0.75" stroke-linecap="round" stroke-linejoin="round" stroke-miterlimit="1" width="83.994" height="39.475"/>
		<g>
			<text transform="matrix(1 0 0 1 434.7578 306.5205)"><tspan x="0" y="0" font-size="9">&lt;Item&gt;</tspan><tspan x="-9.258" y="8.134" font-size="9">Luminance </tspan><tspan x="-6.244" y="16.267" font-size="9">Uniformity</tspan><tspan x="1.252" y="24.399" font-size="9">Result</tspan></text>
		</g>
		
			<rect x="506.26" y="295.152" fill="#86B2D8" stroke="#010101" stroke-width="0.75" stroke-linecap="round" stroke-linejoin="round" stroke-miterlimit="1" width="83.994" height="39.475"/>
		<g>
			<text transform="matrix(1 0 0 1 534.248 306.5205)"><tspan x="0" y="0" font-size="9">&lt;Item&gt;</tspan><tspan x="1.752" y="8.134" font-size="9">Visual</tspan><tspan x="-7.007" y="16.267" font-size="9">Evaluation</tspan><tspan x="1.253" y="24.399" font-size="9">Result</tspan></text>
		</g>
		<g>
			<g>
				
					<line fill="none" stroke="#005695" stroke-width="2" stroke-linejoin="round" x1="150.292" y1="242.158" x2="150.292" y2="256.571"/>
				<g>
					<polygon fill="#005695" points="147.967,243.743 150.292,235.07 152.616,243.743 					"/>
				</g>
			</g>
		</g>
		<g>
			<line fill="#4F8ABE" x1="150.567" y1="274.787" x2="150.567" y2="306.242"/>
			<g>
				
					<line fill="none" stroke="#005695" stroke-width="2" stroke-miterlimit="1" x1="150.567" y1="281.875" x2="150.567" y2="306.242"/>
				<g>
					<polygon fill="#005695" points="148.243,283.46 150.567,274.787 152.891,283.46 					"/>
				</g>
			</g>
		</g>
		
			<polygon fill="#CCDEF0" stroke="#010101" stroke-width="0.75" stroke-linecap="round" stroke-linejoin="round" stroke-miterlimit="1" points="
			195.568,265.65 150.632,256.787 105.568,265.777 105.568,265.799 150.632,274.787 		"/>
		<g>
			<text transform="matrix(1 0 0 1 129.0308 268.2979)" font-size="9">references</text>
		</g>
		<g>
			<text transform="matrix(1 0 0 1 175.9893 257.3765)" font-size="9">1-n</text>
		</g>
		<g>
			<text transform="matrix(1 0 0 1 183.3916 279.3809)" font-size="9">1</text>
		</g>
		
			<polygon fill="#CCDEF0" stroke="#010101" stroke-width="0.75" stroke-linecap="round" stroke-linejoin="round" stroke-miterlimit="1" points="
			98.743,364.572 53.808,355.709 8.743,364.699 8.743,364.721 53.808,373.709 		"/>
		<g>
			<text transform="matrix(1 0 0 1 32.207 367.2158)" font-size="9">references</text>
		</g>
		<g>
			<text transform="matrix(1 0 0 1 86.5679 356.2949)" font-size="9">1</text>
		</g>
		<g>
			<text transform="matrix(1 0 0 1 86.5679 378.2988)" font-size="9">1</text>
		</g>
		<g>
			<text transform="matrix(1 0 0 1 136.1685 107.2935)"><tspan x="0" y="0" font-size="9">&lt;Item&gt;</tspan><tspan x="-0.747" y="8.133" font-size="9">Display</tspan><tspan x="-8.25" y="16.267" font-size="9">Subsystem</tspan></text>
		</g>
		
			<rect x="108.181" y="306.242" fill="#86B2D8" stroke="#010101" stroke-width="0.75" stroke-linecap="round" stroke-linejoin="round" stroke-miterlimit="1" width="83.99" height="27.225"/>
		<g>
			<text transform="matrix(1 0 0 1 136.1685 314.2324)"><tspan x="0" y="0" font-size="9">&lt;Item&gt;</tspan><tspan x="-14.253" y="8.133" font-size="9">QA Result per</tspan><tspan x="-12.759" y="16.266" font-size="9">Configuration</tspan></text>
		</g>
		<g>
			<g>
				
					<line fill="none" stroke="#005695" stroke-width="2" stroke-linejoin="round" x1="150.292" y1="340.555" x2="150.292" y2="354.967"/>
				<g>
					<polygon fill="#005695" points="147.967,342.14 150.292,333.467 152.616,342.14 					"/>
				</g>
			</g>
		</g>
		<g>
			<line fill="#4F8ABE" x1="150.567" y1="373.184" x2="150.567" y2="404.637"/>
			<g>
				
					<line fill="none" stroke="#005695" stroke-width="2" stroke-miterlimit="1" x1="150.567" y1="380.271" x2="150.567" y2="404.637"/>
				<g>
					<polygon fill="#005695" points="148.243,381.856 150.567,373.184 152.891,381.856 					"/>
				</g>
			</g>
		</g>
		
			<polygon fill="#CCDEF0" stroke="#010101" stroke-width="0.75" stroke-linecap="round" stroke-linejoin="round" stroke-miterlimit="1" points="
			195.568,364.047 150.632,355.184 105.568,364.174 105.568,364.195 150.632,373.184 		"/>
		<g>
			<text transform="matrix(1 0 0 1 133.7812 366.6934)" font-size="9">includes</text>
		</g>
		<g>
			<text transform="matrix(1 0 0 1 183.3916 377.7773)" font-size="9">1</text>
		</g>
		
			<polygon fill="#CCDEF0" stroke="#010101" stroke-width="0.75" stroke-linecap="round" stroke-linejoin="round" stroke-miterlimit="1" points="
			294.783,364.047 249.847,355.184 204.783,364.174 204.783,364.195 249.847,373.184 		"/>
		<g>
			<text transform="matrix(1 0 0 1 233.2725 366.6934)" font-size="9">includes</text>
		</g>
		<g>
			<text transform="matrix(1 0 0 1 282.8828 377.7773)" font-size="9">1</text>
		</g>
		
			<polygon fill="#CCDEF0" stroke="#010101" stroke-width="0.75" stroke-linecap="round" stroke-linejoin="round" stroke-miterlimit="1" points="
			394.274,364.047 349.339,355.184 304.274,364.174 304.274,364.195 349.339,373.184 		"/>
		<g>
			<text transform="matrix(1 0 0 1 332.7637 366.6934)" font-size="9">includes</text>
		</g>
		<g>
			<text transform="matrix(1 0 0 1 382.374 377.7773)" font-size="9">1</text>
		</g>
		<g>
			<text transform="matrix(1 0 0 1 473.8633 356.2949)" font-size="9">0-1</text>
		</g>
		
			<polygon fill="#CCDEF0" stroke="#010101" stroke-width="0.75" stroke-linecap="round" stroke-linejoin="round" stroke-miterlimit="1" points="
			493.766,364.047 448.83,355.184 403.766,364.174 403.766,364.195 448.83,373.184 		"/>
		<g>
			<text transform="matrix(1 0 0 1 481.8652 377.7773)" font-size="9">1</text>
		</g>
		<g>
			<text transform="matrix(1 0 0 1 573.3545 356.2949)" font-size="9">0-1</text>
		</g>
		
			<polygon fill="#CCDEF0" stroke="#010101" stroke-width="0.75" stroke-linecap="round" stroke-linejoin="round" stroke-miterlimit="1" points="
			593.257,364.047 548.321,355.184 503.257,364.174 503.257,364.195 548.321,373.184 		"/>
		<g>
			<text transform="matrix(1 0 0 1 581.3564 377.7773)" font-size="9">1</text>
		</g>
		<g>
			<text transform="matrix(1 0 0 1 432.2549 366.6934)" font-size="9">includes</text>
		</g>
		<g>
			<text transform="matrix(1 0 0 1 531.7461 366.6934)" font-size="9">includes</text>
		</g>
		
			<rect x="102.175" y="404.637" fill="#86B2D8" stroke="#010101" stroke-width="0.75" stroke-linecap="round" stroke-linejoin="round" stroke-miterlimit="1" width="96" height="27.225"/>
		<g>
			<text transform="matrix(1 0 0 1 136.1685 412.627)"><tspan x="0" y="0" font-size="9">&lt;Item&gt;</tspan><tspan x="-30.258" y="8.134" font-size="9">QA Result per Display</tspan><tspan x="-14.001" y="16.268" font-size="9">Subsystem ID</tspan></text>
		</g>
		<g>
			<g>
				<polyline fill="none" stroke="#005695" stroke-width="2" stroke-linejoin="round" points="150.652,404.232 150.652,393.055 
					250.059,393.055 250.059,381.158 				"/>
				<g>
					<polygon fill="#005695" points="252.383,382.743 250.059,374.07 247.735,382.743 					"/>
				</g>
			</g>
		</g>
		<g>
			<g>
				<polyline fill="none" stroke="#005695" stroke-width="2" stroke-linejoin="round" points="249.783,393.055 349.189,393.055 
					349.189,381.158 				"/>
				<g>
					<polygon fill="#005695" points="351.514,382.743 349.189,374.07 346.865,382.743 					"/>
				</g>
			</g>
		</g>
		<g>
			<g>
				<polyline fill="none" stroke="#005695" stroke-width="2" stroke-linejoin="round" points="348.913,393.055 448.319,393.055 
					448.319,381.158 				"/>
				<g>
					<polygon fill="#005695" points="450.644,382.743 448.319,374.07 445.995,382.743 					"/>
				</g>
			</g>
		</g>
		<g>
			<g>
				<polyline fill="none" stroke="#005695" stroke-width="2" stroke-linejoin="round" points="448.043,393.055 547.449,393.055 
					547.449,381.158 				"/>
				<g>
					<polygon fill="#005695" points="549.773,382.743 547.449,374.07 545.125,382.743 					"/>
				</g>
			</g>
		</g>
		<g>
			<g>
				<polyline fill="none" stroke="#005695" stroke-width="2" stroke-linejoin="round" points="150.294,404.594 150.294,393.055 
					53.744,393.055 53.744,380.799 				"/>
				<g>
					<polygon fill="#005695" points="56.068,382.384 53.744,373.711 51.42,382.384 					"/>
				</g>
			</g>
		</g>
	</g>
</g>
</svg>
