<?xml version="1.0" encoding="utf-8"?>

<!DOCTYPE svg PUBLIC "-//W3C//DTD SVG 1.1//EN" "http://www.w3.org/Graphics/SVG/1.1/DTD/svg11.dtd">
<svg version="1.1" id="Layer_1" xmlns="http://www.w3.org/2000/svg" xmlns:xlink="http://www.w3.org/1999/xlink" x="0px" y="0px"
	 width="502px" height="370.988px" viewBox="0 0 502 370.988" enable-background="new 0 0 502 370.988" xml:space="preserve">

<defs>
	<style type="text/css">
	text {
	  font-family: Helvetica, Verdana, ArialUnicodeMS, san-serif
	}
	</style>
</defs>

<g>
   <desc>
	PS 3.3 Part 3: Information Object Definitions
   </desc>
</g>

<g>
	<rect x="1" y="1" fill="#F5EED6" width="500" height="368.988"/>
	<g>
		<path fill="#E6E7E8" stroke="#010101" stroke-linecap="round" stroke-linejoin="round" d="M337.412,222.521l24.865,23.603l0,0
			c0.508,8.623-1.883,18.043-7.34,26.41c-11.42,17.518-31.945,23.797-45.844,14.027c-1.9-1.336-3.875-3.52-5.326-5.273
			c-2.373-1.666-4.107-3.65-5.779-5.953h-0.002c-1.617-1.264-3.059-2.705-4.32-4.291l0.002,0.002
			c-0.459-0.332-0.904-0.68-1.338-1.039L337.412,222.521z"/>
		<polygon fill="#E6E7E8" stroke="#010101" stroke-linecap="round" stroke-linejoin="round" points="305.006,266.032 
			305.006,154.38 315.838,132.344 317.986,140.628 317.986,255.052 		"/>
		<polygon fill="#D1D3D4" stroke="#010101" stroke-linecap="round" stroke-linejoin="round" points="317.986,255.052 
			337.412,229.62 337.412,138.28 334.451,131.522 315.947,132.338 317.986,140.628 		"/>
		<polygon fill="#FFFFFF" stroke="#010101" stroke-linecap="round" stroke-linejoin="round" points="183.56,297.948 
			237.847,308.198 237.847,295.372 183.56,285.122 		"/>
		<path fill="#FFFFFF" stroke="#010101" stroke-linecap="round" stroke-linejoin="round" d="M230.901,86.478
			c-4.49-7.424-10.471-12.086-17.27-12.556c-7.477-0.517-14.621,4.13-20.303,12.179l0.195,49.976h37.836L230.901,86.478z"/>
		<path fill="#BCBEC0" stroke="#010101" stroke-linecap="round" stroke-linejoin="round" d="M334.596,86.052
			c-4.461-7.176-10.34-11.668-17.008-12.13H213.632c6.816,0.472,12.809,5.155,17.303,12.611L334.596,86.052z"/>
		<polygon fill="#D1D3D4" stroke="#010101" stroke-linecap="round" stroke-linejoin="round" points="334.451,131.521 
			231.36,136.077 230.901,86.478 334.451,86.478 		"/>
		<polygon fill="#BCBEC0" stroke="#010101" stroke-linecap="round" stroke-linejoin="round" points="304.703,154.697 
			228.343,159.348 231.36,136.077 315.947,132.338 		"/>
		<path fill="none" stroke="#010101" stroke-linecap="round" stroke-linejoin="round" d="M352.252,236.628
			c0.281,8.357-2.131,17.391-7.385,25.449c-11.422,17.516-31.947,23.797-45.844,14.025c-0.354-0.248-0.699-0.504-1.037-0.768"/>
		<path fill="none" stroke="#010101" stroke-linecap="round" stroke-linejoin="round" d="M341.871,226.895
			c0.279,8.358-2.133,17.392-7.387,25.45c-9.924,15.223-26.725,21.959-40.076,17.049"/>
		<path fill="none" stroke="#010101" stroke-linecap="round" stroke-linejoin="round" d="M347.197,231.786
			c0.281,8.357-2.131,17.389-7.387,25.447c-11.42,17.518-31.945,23.797-45.844,14.027c-0.1-0.07-0.199-0.143-0.299-0.215"/>
		<path fill="none" stroke="#010101" stroke-linecap="round" stroke-linejoin="round" d="M357.268,241.384
			c0.391,8.488-2.014,17.711-7.365,25.922c-6.674,10.234-16.453,16.633-26.205,18.236"/>
		<polygon fill="#FFFFFF" stroke="#010101" stroke-linecap="round" stroke-linejoin="round" points="183.56,285.122 280.07,261.46 
			323.719,269.847 237.847,295.372 		"/>
		<polygon fill="#6799C8" stroke="#010101" stroke-linecap="round" stroke-linejoin="round" points="269.783,285.835 
			237.847,295.372 183.56,285.122 221.255,276.19 		"/>
		<polygon fill="#E6E7E8" stroke="#000000" stroke-linecap="round" stroke-linejoin="round" points="193.524,136.077 
			202.571,159.184 228.343,159.348 231.36,136.077 		"/>
		<g>
			<g>
				<line fill="none" stroke="#00AEEF" stroke-width="2" x1="214.602" y1="289.704" x2="214.602" y2="48.192"/>
				<g>
					<polygon fill="#00AEEF" points="220.412,52.155 214.602,30.473 208.791,52.155 					"/>
				</g>
			</g>
		</g>
		<text transform="matrix(0.963 0 0 1 354.8281 324.1182)" fill="#ED1C24" font-size="13.6658">X</text>
		<g>
			<text transform="matrix(0.963 0 0 1 202.0205 298.708)" font-size="10.2494">O</text>
		</g>
		<text transform="matrix(0.963 0 0 1 429.3496 230.0986)" fill="#0DB14B" font-size="13.6658">Y</text>
		<text transform="matrix(0.963 0 0 1 210.772 25.7349)" fill="#00AEEF" font-size="13.6658">Z</text>
		<g>
			<text transform="matrix(0.963 0 0 1 66.1016 201.1934)"><tspan x="0" y="0" font-size="10.2494">X-Ray Beam</tspan><tspan x="-32.469" y="24.6" font-size="10.2494">X-Ray Beam Vector</tspan><tspan x="0.551" y="49.197" font-size="10.2494">Image Plane</tspan></text>
		</g>
		<g>
			<text transform="matrix(0.963 0 0 1 324.6523 350.7305)" font-size="10.2494">positive rotation</text>
		</g>
		<g>
			<text transform="matrix(0.963 0 0 1 399.7188 256.834)" font-size="10">positive rotation</text>
		</g>
		<g>
			<line fill="#003468" x1="212.203" y1="128.674" x2="212.203" y2="287.823"/>
			<g>
				<line fill="none" stroke="#003468" stroke-width="2" x1="212.203" y1="128.674" x2="212.203" y2="270.104"/>
				<g>
					<polygon fill="#003468" points="206.393,266.142 212.203,287.823 218.014,266.142 					"/>
				</g>
			</g>
		</g>
		<line fill="#ED1C24" stroke="#ED1C24" stroke-dasharray="2" x1="212.13" y1="126.785" x2="237.847" y2="295.372"/>
		<line fill="none" stroke="#ED1C24" stroke-dasharray="2" x1="212.13" y1="126.785" x2="183.56" y2="285.122"/>
		<line fill="none" stroke="#ED1C24" stroke-dasharray="2" x1="212.13" y1="126.785" x2="242.986" y2="280.511"/>
		<g>
			<g>
				<polyline fill="none" stroke="#000000" stroke-miterlimit="1" points="126.196,245.913 145.082,245.913 196.897,276.908 				"/>
				<g>
					<polygon points="194.982,277.794 201.459,279.637 196.772,274.802 					"/>
				</g>
			</g>
		</g>
		<g>
			<g>
				<line fill="none" stroke="#000000" stroke-miterlimit="1" x1="126.196" y1="223.135" x2="205.5" y2="223.135"/>
				<g>
					<polygon points="204.312,224.878 210.816,223.135 204.312,221.392 					"/>
				</g>
			</g>
		</g>
		<g>
			<g>
				<line fill="none" stroke="#000000" stroke-miterlimit="1" x1="126.196" y1="200.357" x2="192.282" y2="200.357"/>
				<g>
					<polygon points="191.093,202.101 197.598,200.357 191.093,198.614 					"/>
				</g>
			</g>
		</g>
		<g>
			<ellipse fill="#FEDA00" cx="212.131" cy="126.786" rx="7.773" ry="7.99"/>
			<circle cx="212.203" cy="126.938" r="0.785"/>
			<path d="M213.152,125.153c0.602,0.342,1.008,1.002,1.008,1.76c0,0.057-0.002,0.111-0.008,0.168h4.764
				c0.002-0.057,0.002-0.113,0.002-0.168c0-2.562-1.357-4.799-3.373-5.988L213.152,125.153z"/>
			<path d="M211.285,125.153c-0.602,0.342-1.008,1.002-1.008,1.76c0,0.057,0.002,0.111,0.006,0.168h-4.764c0-0.057,0-0.113,0-0.168
				c0-2.562,1.357-4.799,3.373-5.988L211.285,125.153z"/>
			<path d="M213.314,128.586c-0.598,0.35-1.371,0.469-2.027,0.09c-0.049-0.027-0.096-0.059-0.143-0.09l-2.383,4.125
				c0.049,0.029,0.098,0.057,0.146,0.086c2.219,1.281,4.834,1.064,6.873-0.086L213.314,128.586z"/>
		</g>
		<polygon fill="#E6E7E8" stroke="#010101" stroke-linecap="round" stroke-linejoin="round" points="265.139,157.106 
			265.139,268.341 284.551,272.308 284.551,156.174 		"/>
		<polygon fill="#D1D3D4" stroke="#010101" stroke-linecap="round" stroke-linejoin="round" points="304.703,266.349 
			284.551,272.308 284.551,156.174 304.703,154.696 		"/>
		<polygon fill="#D1D3D4" stroke="#010101" stroke-linecap="round" stroke-linejoin="round" points="323.719,282.671 
			237.847,308.198 237.847,295.372 323.719,269.847 		"/>
		<g>
			<g>
				<line fill="none" stroke="#ED1C24" stroke-width="2" x1="214.735" y1="289.261" x2="333.488" y2="314.074"/>
				<g>
					<polygon fill="#ED1C24" points="328.42,318.951 350.832,317.698 330.797,307.576 					"/>
				</g>
			</g>
		</g>
		<g>
			<g>
				<line fill="none" stroke="#0DB14B" stroke-width="2" x1="215.675" y1="287.97" x2="409.461" y2="231.825"/>
				<g>
					<polygon fill="#0DB14B" points="407.271,238.509 426.479,226.895 404.037,227.347 					"/>
				</g>
			</g>
		</g>
		<g>
			<g>
				<path fill="none" stroke="#000000" d="M351.824,305.267c2.039-3.54,4.822-5.721,7.891-5.721c6.249,0,11.314,9.045,11.314,20.202
					s-5.065,20.202-11.314,20.202c-5.364,0-9.856-6.663-11.021-15.605"/>
				<g>
					<polygon points="353.985,304.931 349.75,310.166 350.8,303.515 					"/>
				</g>
			</g>
		</g>
		<g>
			<g>
				<path fill="none" stroke="#000000" d="M421.989,222.181c0.845-9.696,5.622-17.124,11.389-17.124
					c6.362,0,11.521,9.045,11.521,20.201c0,11.159-5.158,20.202-11.521,20.202c-2.888,0-5.527-1.862-7.55-4.94"/>
				<g>
					<polygon points="427.999,240.749 423.52,235.721 424.884,242.315 					"/>
				</g>
			</g>
		</g>
	</g>
</g>
</svg>
