<?xml version="1.0" encoding="utf-8"?>

<!DOCTYPE svg PUBLIC "-//W3C//DTD SVG 1.1//EN" "http://www.w3.org/Graphics/SVG/1.1/DTD/svg11.dtd">
<svg version="1.1" id="Layer_1" xmlns="http://www.w3.org/2000/svg" xmlns:xlink="http://www.w3.org/1999/xlink" x="0px" y="0px"
	 width="602px" height="517px" viewBox="0 0 602 517" enable-background="new 0 0 602 517" xml:space="preserve">

<defs>
	<style type="text/css">
	text {
	  font-family: Helvetica, Verdana, ArialUnicodeMS, san-serif
	}
	</style>
</defs>

<g>
   <desc>
	PS 3.3 Part 3: Information Object Definitions
   </desc>
</g>

<g>
	<rect x="1" y="1" fill="#F5EED6" width="600" height="515"/>
	<g>
		<g>
			<g>
				
					<line fill="none" stroke="#005695" stroke-width="2" stroke-linejoin="round" x1="242.285" y1="43.177" x2="242.248" y2="59.75"/>
				<g>
					<polygon fill="#005695" points="239.927,58.16 242.232,66.838 244.576,58.17 					"/>
				</g>
			</g>
		</g>
		<g>
			<g>
				<polyline fill="none" stroke="#005695" stroke-width="2" stroke-linejoin="round" points="233.214,126.813 233.214,137.271 
					187.459,137.271 187.459,144.847 				"/>
				<g>
					<polygon fill="#005695" points="185.135,143.262 187.459,151.935 189.784,143.262 					"/>
				</g>
			</g>
		</g>
		<g>
			<g>
				
					<line fill="none" stroke="#005695" stroke-width="2" stroke-linejoin="round" x1="242.022" y1="85.71" x2="242.064" y2="92.951"/>
				<g>
					<polygon fill="#005695" points="239.73,91.379 242.104,100.038 244.379,91.352 					"/>
				</g>
			</g>
		</g>
		
			<polygon fill="#CCDEF0" stroke="#010101" stroke-width="0.75" stroke-linecap="round" stroke-linejoin="round" stroke-miterlimit="1" points="
			287.027,76.041 242.094,67.179 197.029,76.168 197.029,76.189 242.094,85.179 		"/>
		<g>
			<text transform="matrix(1 0 0 1 234.9766 78.6611)" font-size="9">has</text>
		</g>
		
			<rect x="200.023" y="15.952" fill="#86B2D8" stroke="#010101" stroke-width="0.75" stroke-linecap="round" stroke-linejoin="round" stroke-miterlimit="1" width="83.994" height="27.225"/>
		<g>
			<text transform="matrix(1 0 0 1 222.3472 27.0537)"><tspan x="0" y="0" font-size="12">Display</tspan><tspan x="-0.331" y="11.733" font-size="12">System</tspan></text>
		</g>
		
			<rect x="200.067" y="99.589" fill="#86B2D8" stroke="#010101" stroke-width="0.75" stroke-linecap="round" stroke-linejoin="round" stroke-miterlimit="1" width="83.994" height="27.225"/>
		<g>
			<text transform="matrix(1 0 0 1 222.3906 110.6909)"><tspan x="0" y="0" font-size="12">Display</tspan><tspan x="-10.005" y="11.733" font-size="12">Subsystem</tspan></text>
		</g>
		
			<rect x="255.267" y="195.881" fill="#86B2D8" stroke="#010101" stroke-width="0.75" stroke-linecap="round" stroke-linejoin="round" stroke-miterlimit="1" width="83.994" height="39.476"/>
		<g>
			<text transform="matrix(1 0 0 1 277.5908 206.9829)"><tspan x="0" y="0" font-size="12">Display</tspan><tspan x="-10.005" y="11.733" font-size="12">Subsystem</tspan><tspan x="-16.017" y="23.467" font-size="12">Configuration</tspan></text>
		</g>
		
			<polygon fill="#CCDEF0" stroke="#010101" stroke-width="0.75" stroke-linecap="round" stroke-linejoin="round" stroke-miterlimit="1" points="
			152.14,436.378 197.073,424.561 242.137,436.548 242.137,436.576 197.073,448.56 		"/>
		<g>
			<text transform="matrix(1 0 0 1 231.7593 428.2109)" font-size="9">1</text>
		</g>
		<g>
			<text transform="matrix(1 0 0 1 223.7568 449.8232)" font-size="9">1-n</text>
		</g>
		<g>
			<text transform="matrix(1 0 0 1 177.3555 439.0449)" font-size="9">measures</text>
		</g>
		
			<polygon fill="#CCDEF0" stroke="#010101" stroke-width="0.75" stroke-linecap="round" stroke-linejoin="round" stroke-miterlimit="1" points="
			252.056,436.378 296.989,424.561 342.054,436.548 342.054,436.576 296.989,448.56 		"/>
		<g>
			<text transform="matrix(1 0 0 1 331.6758 428.2109)" font-size="9">1</text>
		</g>
		<g>
			<text transform="matrix(1 0 0 1 323.6738 449.8232)" font-size="9">1-n</text>
		</g>
		<g>
			<text transform="matrix(1 0 0 1 277.2725 439.0449)" font-size="9">measures</text>
		</g>
		
			<polygon fill="#CCDEF0" stroke="#010101" stroke-width="0.75" stroke-linecap="round" stroke-linejoin="round" stroke-miterlimit="1" points="
			351.974,436.378 396.907,424.561 441.972,436.548 441.972,436.576 396.907,448.56 		"/>
		<g>
			<text transform="matrix(1 0 0 1 431.5938 428.2109)" font-size="9">1</text>
		</g>
		<g>
			<text transform="matrix(1 0 0 1 423.5908 449.8232)" font-size="9">1-n</text>
		</g>
		<g>
			<text transform="matrix(1 0 0 1 377.1895 439.0449)" font-size="9">measures</text>
		</g>
		<g>
			<text transform="matrix(1 0 0 1 275.5679 69.1592)" font-size="9">1</text>
		</g>
		<g>
			<text transform="matrix(1 0 0 1 267.5649 89.0054)" font-size="9">1-n</text>
		</g>
		
			<rect x="255.296" y="474.048" fill="#86B2D8" stroke="#010101" stroke-width="0.75" stroke-linecap="round" stroke-linejoin="round" stroke-miterlimit="1" width="84.97" height="27"/>
		<g>
			<text transform="matrix(1 0 0 1 261.0986 487.1904)"><tspan x="0" y="0" font-size="12">Measurement</tspan><tspan x="7.998" y="9" font-size="12">Equipment</tspan></text>
		</g>
		<g>
			<g>
				<polyline fill="none" stroke="#005695" stroke-width="2" stroke-linejoin="round" points="251.663,126.813 251.663,137.271 
					297.422,137.271 297.422,144.847 				"/>
				<g>
					<polygon fill="#005695" points="295.098,143.262 297.422,151.935 299.746,143.262 					"/>
				</g>
			</g>
		</g>
		<g>
			<g>
				<polyline fill="none" stroke="#005695" stroke-width="2" stroke-linejoin="round" points="297.422,235.357 297.422,245.814 
					186.861,245.814 186.861,253.391 				"/>
				<g>
					<polygon fill="#005695" points="184.537,251.806 186.861,260.479 189.185,251.806 					"/>
				</g>
			</g>
		</g>
		<g>
			<g>
				<polyline fill="none" stroke="#005695" stroke-width="2" stroke-linejoin="round" points="190.282,245.814 79.721,245.814 
					79.721,260.229 				"/>
				<g>
					<polygon fill="#005695" points="77.397,258.644 79.721,267.316 82.045,258.644 					"/>
				</g>
			</g>
		</g>
		<g>
			<g>
				<polyline fill="none" stroke="#005695" stroke-width="2" stroke-linejoin="round" points="297.42,235.357 297.42,245.814 
					407.98,245.814 407.98,253.391 				"/>
				<g>
					<polygon fill="#005695" points="405.656,251.806 407.98,260.479 410.305,251.806 					"/>
				</g>
			</g>
		</g>
		<g>
			<g>
				<polyline fill="none" stroke="#005695" stroke-width="2" stroke-linejoin="round" points="407.026,245.814 517.587,245.814 
					517.587,253.391 				"/>
				<g>
					<polygon fill="#005695" points="515.263,251.806 517.587,260.479 519.911,251.806 					"/>
				</g>
			</g>
		</g>
		<g>
			<line fill="#4F8ABE" x1="187.459" y1="170.871" x2="187.459" y2="195.994"/>
			<g>
				
					<line fill="none" stroke="#005695" stroke-width="2" stroke-miterlimit="1" x1="187.459" y1="170.871" x2="187.459" y2="188.907"/>
				<g>
					<polygon fill="#005695" points="185.135,187.321 187.459,195.994 189.784,187.321 					"/>
				</g>
			</g>
		</g>
		<g>
			<line fill="#4F8ABE" x1="297.42" y1="170.871" x2="297.42" y2="195.994"/>
			<g>
				
					<line fill="none" stroke="#005695" stroke-width="2" stroke-miterlimit="1" x1="297.42" y1="170.871" x2="297.42" y2="188.907"/>
				<g>
					<polygon fill="#005695" points="295.096,187.321 297.42,195.994 299.744,187.321 					"/>
				</g>
			</g>
		</g>
		<g>
			<line fill="#4F8ABE" x1="297.42" y1="235.356" x2="297.42" y2="260.479"/>
			<g>
				
					<line fill="none" stroke="#005695" stroke-width="2" stroke-miterlimit="1" x1="297.42" y1="235.356" x2="297.42" y2="253.391"/>
				<g>
					<polygon fill="#005695" points="295.096,251.806 297.42,260.479 299.744,251.806 					"/>
				</g>
			</g>
		</g>
		<g>
			<g>
				<polyline fill="none" stroke="#005695" stroke-width="2" stroke-linejoin="round" points="296.896,474.047 296.896,463.59 
					396.659,463.59 396.659,456.014 				"/>
				<g>
					<polygon fill="#005695" points="398.983,457.599 396.659,448.926 394.335,457.599 					"/>
				</g>
			</g>
		</g>
		<g>
			<g>
				<polyline fill="none" stroke="#005695" stroke-width="2" stroke-linejoin="round" points="296.898,474.047 296.898,463.59 
					197.138,463.59 197.138,456.014 				"/>
				<g>
					<polygon fill="#005695" points="199.462,457.599 197.138,448.926 194.814,457.599 					"/>
				</g>
			</g>
		</g>
		<g>
			<line fill="#4F8ABE" x1="296.898" y1="474.048" x2="296.898" y2="448.925"/>
			<g>
				
					<line fill="none" stroke="#005695" stroke-width="2" stroke-miterlimit="1" x1="296.898" y1="474.048" x2="296.898" y2="456.013"/>
				<g>
					<polygon fill="#005695" points="299.223,457.598 296.898,448.925 294.574,457.598 					"/>
				</g>
			</g>
		</g>
		<g>
			<g>
				
					<line fill="none" stroke="#005695" stroke-width="2" stroke-linejoin="round" x1="396.659" y1="423.826" x2="396.659" y2="364.062"/>
				<g>
					<polygon fill="#005695" points="398.983,365.647 396.659,356.975 394.335,365.647 					"/>
				</g>
			</g>
		</g>
		<g>
			<g>
				
					<line fill="none" stroke="#005695" stroke-width="2" stroke-linejoin="round" x1="197.138" y1="423.826" x2="197.138" y2="363.703"/>
				<g>
					<polygon fill="#005695" points="199.462,365.288 197.138,356.615 194.814,365.288 					"/>
				</g>
			</g>
		</g>
		<g>
			<line fill="#4F8ABE" x1="296.898" y1="424.561" x2="296.898" y2="356.976"/>
			<g>
				
					<line fill="none" stroke="#005695" stroke-width="2" stroke-miterlimit="1" x1="296.898" y1="424.561" x2="296.898" y2="364.063"/>
				<g>
					<polygon fill="#005695" points="299.223,365.648 296.898,356.976 294.574,365.648 					"/>
				</g>
			</g>
		</g>
		
			<polygon fill="#CCDEF0" stroke="#010101" stroke-width="0.75" stroke-linecap="round" stroke-linejoin="round" stroke-miterlimit="1" points="
			342.419,161.734 297.485,152.871 252.421,161.861 252.421,161.883 297.485,170.871 		"/>
		<g>
			<text transform="matrix(1 0 0 1 290.0083 164.3564)" font-size="9">has</text>
		</g>
		
			<polygon fill="#CCDEF0" stroke="#010101" stroke-width="0.75" stroke-linecap="round" stroke-linejoin="round" stroke-miterlimit="1" points="
			232.458,161.734 187.525,152.871 142.46,161.861 142.46,161.883 187.525,170.871 		"/>
		<g>
			<text transform="matrix(1 0 0 1 165.9199 164.3564)" font-size="9">consists of</text>
		</g>
		<g>
			<text transform="matrix(1 0 0 1 330.959 153.4341)" font-size="9">1</text>
		</g>
		<g>
			<text transform="matrix(1 0 0 1 322.957 175.439)" font-size="9">1-n</text>
		</g>
		<g>
			<text transform="matrix(1 0 0 1 220.2788 153.4341)" font-size="9">1</text>
		</g>
		<g>
			<text transform="matrix(1 0 0 1 220.2788 175.439)" font-size="9">1</text>
		</g>
		
			<rect x="144.739" y="195.993" fill="#86B2D8" stroke="#010101" stroke-width="0.75" stroke-linecap="round" stroke-linejoin="round" stroke-miterlimit="1" width="84.97" height="27"/>
		<g>
			<text transform="matrix(1 0 0 1 167.5513 206.9663)"><tspan x="0" y="0" font-size="12">Display</tspan><tspan x="1.333" y="11.733" font-size="12">Device</tspan></text>
		</g>
		
			<rect x="144.929" y="317.14" fill="#86B2D8" stroke="#010101" stroke-width="0.75" stroke-linecap="round" stroke-linejoin="round" stroke-miterlimit="1" width="84.006" height="39.476"/>
		<g>
			<text transform="matrix(1 0 0 1 167.2529 328.4863)"><tspan x="0" y="0" font-size="12">Display</tspan><tspan x="-9.009" y="11.733" font-size="12">Calibration</tspan><tspan x="2.666" y="23.467" font-size="12">Result</tspan></text>
		</g>
		<g>
			<line fill="#4F8ABE" x1="79.997" y1="285.532" x2="79.997" y2="316.986"/>
			<g>
				
					<line fill="none" stroke="#005695" stroke-width="2" stroke-miterlimit="1" x1="79.997" y1="285.532" x2="79.997" y2="309.898"/>
				<g>
					<polygon fill="#005695" points="77.672,308.313 79.997,316.986 82.321,308.313 					"/>
				</g>
			</g>
		</g>
		<g>
			<line fill="#4F8ABE" x1="186.93" y1="292.172" x2="186.93" y2="316.986"/>
			<g>
				
					<line fill="none" stroke="#005695" stroke-width="2" stroke-miterlimit="1" x1="186.93" y1="292.172" x2="186.93" y2="309.898"/>
				<g>
					<polygon fill="#005695" points="184.606,308.313 186.93,316.986 189.254,308.313 					"/>
				</g>
			</g>
		</g>
		<g>
			<line fill="#4F8ABE" x1="297.264" y1="292.172" x2="297.264" y2="316.986"/>
			<g>
				
					<line fill="none" stroke="#005695" stroke-width="2" stroke-miterlimit="1" x1="297.264" y1="292.172" x2="297.264" y2="309.898"/>
				<g>
					<polygon fill="#005695" points="294.939,308.313 297.264,316.986 299.588,308.313 					"/>
				</g>
			</g>
		</g>
		<g>
			<line fill="#4F8ABE" x1="407.98" y1="292.172" x2="407.98" y2="316.986"/>
			<g>
				
					<line fill="none" stroke="#005695" stroke-width="2" stroke-miterlimit="1" x1="407.98" y1="292.172" x2="407.98" y2="309.898"/>
				<g>
					<polygon fill="#005695" points="405.656,308.313 407.98,316.986 410.305,308.313 					"/>
				</g>
			</g>
		</g>
		<g>
			<line fill="#4F8ABE" x1="517.977" y1="292.172" x2="517.977" y2="316.986"/>
			<g>
				
					<line fill="none" stroke="#005695" stroke-width="2" stroke-miterlimit="1" x1="517.977" y1="292.172" x2="517.977" y2="309.898"/>
				<g>
					<polygon fill="#005695" points="515.652,308.313 517.977,316.986 520.301,308.313 					"/>
				</g>
			</g>
		</g>
		
			<polygon fill="#CCDEF0" stroke="#010101" stroke-width="0.75" stroke-linecap="round" stroke-linejoin="round" stroke-miterlimit="1" points="
			237.095,275.93 187.161,260.172 137.081,276.154 137.081,276.193 187.161,292.172 		"/>
		<g>
			<text transform="matrix(1 0 0 1 162.9097 275.3398)"><tspan x="0" y="0" font-size="9">is evaluated</tspan><tspan x="3.01" y="8.8" font-size="9">in terms of</tspan></text>
		</g>
		
			<polygon fill="#CCDEF0" stroke="#010101" stroke-width="0.75" stroke-linecap="round" stroke-linejoin="round" stroke-miterlimit="1" points="
			124.997,276.396 80.062,267.532 34.998,276.522 34.998,276.544 80.062,285.532 		"/>
		<g>
			<text transform="matrix(1 0 0 1 65.2104 279.0195)" font-size="9">defines</text>
		</g>
		<g>
			<text transform="matrix(1 0 0 1 220.6216 267.7373)" font-size="9">1</text>
		</g>
		<g>
			<text transform="matrix(1 0 0 1 212.6196 292.2627)" font-size="9">0-1</text>
		</g>
		
			<rect x="254.914" y="317.14" fill="#86B2D8" stroke="#010101" stroke-width="0.75" stroke-linecap="round" stroke-linejoin="round" stroke-miterlimit="1" width="84.001" height="39.476"/>
		<g>
			<text transform="matrix(1 0 0 1 267.5449 334.3516)"><tspan x="0" y="0" font-size="12">Luminance</tspan><tspan x="12.346" y="11.732" font-size="12">Result</tspan></text>
		</g>
		
			<polygon fill="#CCDEF0" stroke="#010101" stroke-width="0.75" stroke-linecap="round" stroke-linejoin="round" stroke-miterlimit="1" points="
			347.074,275.93 297.147,260.172 247.066,276.154 247.066,276.193 297.147,292.172 		"/>
		<g>
			<text transform="matrix(1 0 0 1 272.8813 275.3398)"><tspan x="0" y="0" font-size="9">is evaluated</tspan><tspan x="3.01" y="8.8" font-size="9">in terms of</tspan></text>
		</g>
		<g>
			<text transform="matrix(1 0 0 1 330.5938 267.7373)" font-size="9">1</text>
		</g>
		<g>
			<text transform="matrix(1 0 0 1 322.5918 292.2627)" font-size="9">0-1</text>
		</g>
		
			<rect x="364.896" y="317.14" fill="#86B2D8" stroke="#010101" stroke-width="0.75" stroke-linecap="round" stroke-linejoin="round" stroke-miterlimit="1" width="83.994" height="39.476"/>
		<g>
			<text transform="matrix(1 0 0 1 377.5166 328.4863)"><tspan x="0" y="0" font-size="12">Luminance</tspan><tspan x="2.35" y="11.733" font-size="12">Uniformity</tspan><tspan x="12.346" y="23.467" font-size="12">Result</tspan></text>
		</g>
		
			<polygon fill="#CCDEF0" stroke="#010101" stroke-width="0.75" stroke-linecap="round" stroke-linejoin="round" stroke-miterlimit="1" points="
			457.049,275.93 407.122,260.172 357.049,276.154 357.049,276.193 407.122,292.172 		"/>
		<g>
			<text transform="matrix(1 0 0 1 382.8535 275.3398)"><tspan x="0" y="0" font-size="9">is evaluated</tspan><tspan x="3.01" y="8.8" font-size="9">in terms of</tspan></text>
		</g>
		<g>
			<text transform="matrix(1 0 0 1 440.5645 267.7373)" font-size="9">1</text>
		</g>
		<g>
			<text transform="matrix(1 0 0 1 432.5625 292.2627)" font-size="9">0-1</text>
		</g>
		
			<rect x="474.87" y="317.14" fill="#86B2D8" stroke="#010101" stroke-width="0.75" stroke-linecap="round" stroke-linejoin="round" stroke-miterlimit="1" width="83.994" height="39.476"/>
		<g>
			<text transform="matrix(1 0 0 1 500.5 328.4863)"><tspan x="0" y="0" font-size="12">Visual</tspan><tspan x="-11.678" y="11.733" font-size="12">Evaluation</tspan><tspan x="-0.666" y="23.467" font-size="12">Result</tspan></text>
		</g>
		
			<polygon fill="#CCDEF0" stroke="#010101" stroke-width="0.75" stroke-linecap="round" stroke-linejoin="round" stroke-miterlimit="1" points="
			567.023,275.93 517.097,260.172 467.023,276.154 467.023,276.193 517.097,292.172 		"/>
		<g>
			<text transform="matrix(1 0 0 1 492.8252 275.3398)"><tspan x="0" y="0" font-size="9">is evaluated</tspan><tspan x="3.011" y="8.8" font-size="9">in terms of</tspan></text>
		</g>
		<g>
			<text transform="matrix(1 0 0 1 550.5361 267.7373)" font-size="9">1</text>
		</g>
		<g>
			<text transform="matrix(1 0 0 1 542.5342 292.2627)" font-size="9">0-1</text>
		</g>
		<g>
			<text transform="matrix(1 0 0 1 112.8213 268.0977)" font-size="9">1</text>
		</g>
		<g>
			<text transform="matrix(1 0 0 1 112.8213 290.1025)" font-size="9">1</text>
		</g>
		<g>
			<g>
				<polyline fill="none" stroke="#005695" stroke-width="2" stroke-linejoin="round" points="170.247,356.615 170.247,411.228 
					79.721,411.228 79.721,401.494 				"/>
				<g>
					<polygon fill="#005695" points="82.045,403.079 79.721,394.406 77.397,403.079 					"/>
				</g>
			</g>
		</g>
		<g>
			<line fill="#4F8ABE" x1="79.997" y1="375.094" x2="79.997" y2="356.976"/>
			<g>
				
					<line fill="none" stroke="#005695" stroke-width="2" stroke-miterlimit="1" x1="79.997" y1="375.094" x2="79.997" y2="364.063"/>
				<g>
					<polygon fill="#005695" points="82.321,365.648 79.997,356.976 77.672,365.648 					"/>
				</g>
			</g>
		</g>
		
			<polygon fill="#CCDEF0" stroke="#010101" stroke-width="0.75" stroke-linecap="round" stroke-linejoin="round" stroke-miterlimit="1" points="
			124.997,383.957 80.062,375.094 34.998,384.084 34.998,384.105 80.062,393.094 		"/>
		<g>
			<text transform="matrix(1 0 0 1 63.2085 386.582)" font-size="9">targeted</text>
		</g>
		<g>
			<text transform="matrix(1 0 0 1 112.8213 375.6592)" font-size="9">1</text>
		</g>
		<g>
			<text transform="matrix(1 0 0 1 112.8213 397.6641)" font-size="9">1</text>
		</g>
		
			<rect x="37.276" y="317.198" fill="#86B2D8" stroke="#010101" stroke-width="0.75" stroke-linecap="round" stroke-linejoin="round" stroke-miterlimit="1" width="84.971" height="39.363"/>
		<g>
			<text transform="matrix(1 0 0 1 62.4258 328.4863)"><tspan x="0" y="0" font-size="12">Target</tspan><tspan x="-12.012" y="11.733" font-size="12">Luminance</tspan><tspan x="-22.336" y="23.467" font-size="12">Characteristics</tspan></text>
		</g>
	</g>
</g>
</svg>
