<?xml version="1.0" encoding="utf-8"?>

<!DOCTYPE svg PUBLIC "-//W3C//DTD SVG 1.1//EN" "http://www.w3.org/Graphics/SVG/1.1/DTD/svg11.dtd">
<svg version="1.1" id="Layer_1" xmlns="http://www.w3.org/2000/svg" xmlns:xlink="http://www.w3.org/1999/xlink" x="0px" y="0px"
	 width="502px" height="247px" viewBox="0 0 502 247" enable-background="new 0 0 502 247" xml:space="preserve">

<defs>
	<style type="text/css">
	text {
	  font-family: Helvetica, Verdana, ArialUnicodeMS, san-serif
	}
	</style>
</defs>

<g>
   <desc>
	PS 3.3 Part 3: Information Object Definitions
   </desc>
</g>

<g>
	<rect x="1" y="1" fill="#F5EED6" width="500" height="245"/>
	<g>
		<rect x="248.567" y="15.704" fill="#B2CEE7" stroke="#B2CEE7" stroke-miterlimit="1" width="176" height="52"/>
		
			<line fill="none" stroke="#000000" stroke-width="0.75" stroke-linecap="round" stroke-miterlimit="1" stroke-dasharray="4,4" x1="290.565" y1="50.704" x2="290.565" y2="231.296"/>
		
			<line fill="none" stroke="#000000" stroke-width="0.75" stroke-miterlimit="1" x1="183.568" y1="86.495" x2="444.567" y2="86.495"/>
		
			<line fill="none" stroke="#000000" stroke-width="0.75" stroke-miterlimit="1" x1="183.568" y1="112.162" x2="444.567" y2="112.162"/>
		
			<line fill="none" stroke="#000000" stroke-width="0.75" stroke-miterlimit="1" x1="183.568" y1="137.495" x2="444.567" y2="137.495"/>
		
			<line fill="none" stroke="#000000" stroke-width="0.75" stroke-miterlimit="1" x1="183.568" y1="166.162" x2="444.567" y2="166.162"/>
		
			<line fill="none" stroke="#000000" stroke-width="0.75" stroke-miterlimit="1" x1="183.568" y1="192.668" x2="444.567" y2="192.668"/>
		
			<line fill="none" stroke="#000000" stroke-width="0.75" stroke-miterlimit="1" x1="183.568" y1="219.895" x2="444.567" y2="219.895"/>
		<rect x="448.769" y="37.704" fill="none" width="17.379" height="8.51"/>
		<text transform="matrix(0.9288 0 0 1 448.7676 44.1338)" font-size="9">time</text>
		
			<rect x="215.568" y="32.704" fill="#FFFFFF" stroke="#000000" stroke-width="0.75" stroke-linecap="round" stroke-linejoin="round" stroke-miterlimit="1" width="18" height="18"/>
		
			<rect x="189.568" y="32.704" fill="#FFFFFF" stroke="#000000" stroke-width="0.75" stroke-linecap="round" stroke-linejoin="round" stroke-miterlimit="1" width="18" height="18"/>
		
			<rect x="248.567" y="32.704" fill="#6799C8" stroke="#010101" stroke-width="0.75" stroke-linecap="round" stroke-linejoin="round" stroke-miterlimit="1" width="176" height="18"/>
		
			<line fill="none" stroke="#000000" stroke-width="0.75" stroke-linecap="round" stroke-miterlimit="1" stroke-dasharray="6,2" x1="207.568" y1="54.892" x2="207.568" y2="86.495"/>
		
			<line fill="none" stroke="#000000" stroke-width="0.75" stroke-linecap="round" stroke-miterlimit="1" stroke-dasharray="6,2" x1="189.568" y1="54.892" x2="189.568" y2="86.495"/>
		
			<line fill="none" stroke="#000000" stroke-width="0.75" stroke-linecap="round" stroke-miterlimit="1" stroke-dasharray="6,2" x1="215.568" y1="54.891" x2="215.568" y2="112.162"/>
		
			<line fill="none" stroke="#000000" stroke-width="0.75" stroke-linecap="round" stroke-miterlimit="1" stroke-dasharray="4,4" x1="233.568" y1="54.891" x2="233.568" y2="118.149"/>
		
			<line fill="none" stroke="#000000" stroke-width="0.75" stroke-linecap="round" stroke-miterlimit="1" stroke-dasharray="4,4" x1="248.567" y1="60.6" x2="248.567" y2="166.162"/>
		
			<line fill="none" stroke="#000000" stroke-width="0.75" stroke-linecap="round" stroke-miterlimit="1" stroke-dasharray="4,4" x1="308.565" y1="50.704" x2="308.565" y2="231.296"/>
		
			<line fill="none" stroke="#000000" stroke-width="0.75" stroke-linecap="round" stroke-miterlimit="1" stroke-dasharray="4,4" x1="424.567" y1="68.822" x2="424.567" y2="166.162"/>
		
			<line fill="none" stroke="#005695" stroke-width="6" stroke-linecap="round" stroke-miterlimit="1" x1="189.568" y1="86.495" x2="207.568" y2="86.495"/>
		
			<line fill="none" stroke="#005695" stroke-width="6" stroke-linecap="round" stroke-miterlimit="1" x1="215.568" y1="112.162" x2="233.568" y2="112.162"/>
		
			<line fill="none" stroke="#005695" stroke-width="6" stroke-linecap="round" stroke-miterlimit="1" x1="247.683" y1="137.495" x2="249.122" y2="137.495"/>
		
			<line fill="none" stroke="#005695" stroke-width="6" stroke-linecap="round" stroke-miterlimit="1" x1="289.845" y1="192.668" x2="291.286" y2="192.668"/>
		
			<line fill="none" stroke="#005695" stroke-width="6" stroke-linecap="round" stroke-miterlimit="1" x1="290.565" y1="219.895" x2="308.565" y2="219.895"/>
		
			<line fill="none" stroke="#005695" stroke-width="6" stroke-linecap="round" stroke-miterlimit="1" x1="249.235" y1="166.162" x2="424.567" y2="166.162"/>
		<text transform="matrix(0.9288 0 0 1 106.9297 89.752)"><tspan x="0" y="0" font-size="9">Patient preparation</tspan><tspan x="-45.518" y="24.8" font-size="9">Scanner Adjustment to Patient</tspan><tspan x="-61.018" y="51.6" font-size="9">Acquisition DateTime (0008,002A)</tspan><tspan x="-55.028" y="78.4" font-size="9">Acquisition Duration (0018,9073)</tspan><tspan x="-76.522" y="105.2" font-size="9">Exclusion Start DateTime (0018,9804)</tspan><tspan x="-50.023" y="132" font-size="9">Exclusion Duration (0018,9805)</tspan></text>
		
			<rect x="290.566" y="32.704" fill="#E6E7E8" stroke="#000000" stroke-width="0.75" stroke-linecap="round" stroke-linejoin="round" stroke-miterlimit="1" width="17.999" height="18"/>
		
			<line fill="none" stroke="#000000" stroke-width="0.75" stroke-linecap="round" stroke-miterlimit="1" stroke-dasharray="4,4" x1="344.56" y1="50.704" x2="344.56" y2="231.296"/>
		
			<line fill="none" stroke="#000000" stroke-width="0.75" stroke-linecap="round" stroke-miterlimit="1" stroke-dasharray="4,4" x1="362.56" y1="50.704" x2="362.56" y2="231.296"/>
		
			<line fill="none" stroke="#005695" stroke-width="6" stroke-linecap="round" stroke-miterlimit="1" x1="343.839" y1="192.668" x2="345.28" y2="192.668"/>
		
			<line fill="none" stroke="#005695" stroke-width="6" stroke-linecap="round" stroke-miterlimit="1" x1="344.56" y1="219.895" x2="362.56" y2="219.895"/>
		
			<rect x="344.561" y="32.704" fill="#E6E7E8" stroke="#000000" stroke-width="0.75" stroke-linecap="round" stroke-linejoin="round" stroke-miterlimit="1" width="17.999" height="18"/>
		<g>
			<g>
				
					<line fill="none" stroke="#000000" stroke-width="2" stroke-linecap="round" stroke-miterlimit="1" x1="183.568" y1="41.697" x2="437.479" y2="41.697"/>
				<g>
					<polygon points="435.895,44.021 444.567,41.697 435.895,39.373 					"/>
				</g>
			</g>
		</g>
	</g>
</g>
</svg>
