<?xml version="1.0" encoding="utf-8"?>

<!DOCTYPE svg PUBLIC "-//W3C//DTD SVG 1.1//EN" "http://www.w3.org/Graphics/SVG/1.1/DTD/svg11.dtd">
<svg version="1.1" id="Layer_1" xmlns="http://www.w3.org/2000/svg" xmlns:xlink="http://www.w3.org/1999/xlink" x="0px" y="0px"
	 width="502px" height="452px" viewBox="0 0 502 452" enable-background="new 0 0 502 452" xml:space="preserve">

<defs>
	<style type="text/css">
	text {
	  font-family: Helvetica, Verdana, ArialUnicodeMS, san-serif
	}
	</style>
</defs>

<g>
   <desc>
	PS 3.3 Part 3: Information Object Definitions
   </desc>
</g>

<g>
	<rect x="1" y="1" fill="#F5EED6" width="500" height="450"/>
	<g>
		<g>
			<rect x="133.186" y="306.002" fill="#B2CEE7" width="57.819" height="12"/>
			<g>
				<text transform="matrix(1 0 0 1 151.3848 314.2305)" font-size="8">Gantry Tilt</text>
			</g>
			<g>
				<g>
					<text transform="matrix(1 0 0 1 269.8955 284.4844)" font-size="10.1445">0</text>
				</g>
				<g>
					<text transform="matrix(1 0 0 1 256.3867 289.5566)" font-size="10.1445">-</text>
				</g>
				<g>
					<text transform="matrix(1 0 0 1 285.4482 288.8105)" font-size="10.1445">+</text>
				</g>
				<path fill="#005695" stroke="#000000" d="M260.072,373.896c0-2.27,0.23-4.46,0.658-6.532l-19.53-6.069l-29.563,11.342
					l59.34,23.177C264.62,392.598,260.072,384.002,260.072,373.896z"/>
				<path fill="#CCCCCC" stroke="#000000" stroke-linecap="round" stroke-linejoin="round" d="M307.332,326.221l-2.349,74.368
					l-61.849,35.229l-7.111-103.717L307.332,326.221z M292.747,373.707c0-12.854-7.357-23.274-16.434-23.274
					c-9.079,0-16.435,10.421-16.435,23.274c0,12.851,7.355,23.27,16.435,23.27C285.39,396.977,292.747,386.558,292.747,373.707z"/>
				<polygon fill="#FFFFFF" stroke="#000000" stroke-linecap="round" stroke-linejoin="round" points="231.417,426.41 
					222.244,330.42 236.023,332.102 243.135,435.818 				"/>
				<polygon fill="none" stroke="#000000" stroke-dasharray="2,2" points="247.001,436.501 208.487,336.691 219.627,331.233 
					258.416,429.868 				"/>
				<path fill="#808080" stroke="#000000" stroke-linecap="round" stroke-linejoin="round" d="M268.88,394.468
					c2.233,1.605,4.757,2.509,7.434,2.509c9.076,0,16.434-10.419,16.434-23.27c0-12.854-7.357-23.274-16.434-23.274
					c-2.979,0-5.779,1.123-8.188,3.089h-0.021c6.517,1.057,11.606,9.857,11.606,20.556c0,10.267-4.686,18.785-10.827,20.389
					L268.88,394.468z"/>
				<polygon fill="#808080" stroke="#000000" stroke-linecap="round" stroke-linejoin="round" points="222.244,330.42 
					293.164,325.453 307.332,326.221 236.023,332.102 				"/>
				<path fill="#005695" stroke="#000000" d="M344.907,393.521l-84.177-26.156c-0.428,2.072-0.658,4.263-0.658,6.532
					c0,10.105,4.548,18.701,10.904,21.917l50.571,19.755L344.907,393.521z"/>
				<path fill="#B2CEE7" stroke="#000000" d="M264.108,372.865l0.874,0.143l5.952,0.897l0.319-0.014l0.717-0.442l0.176-0.158
					l0.553-0.811l0.36-1.075l0.086-1.122l-0.193-0.957l-0.096-0.238l-0.491-0.662l-0.288-0.166l-5.753-1.968l-3.699-1.224
					l-0.973-0.207l-0.291-0.016c-0.684,2.285-1.111,4.757-1.244,7.347l0.08,0.04L264.108,372.865z"/>
				<path fill="#B2CEE7" stroke="#000000" d="M260.602,371.324l-0.334-1.038c-0.125,1.15-0.194,2.323-0.194,3.524l0.312-0.649
					L260.602,371.324z"/>
				<polygon fill="#B2CEE7" stroke="#000000" points="275.42,370.291 274.881,369.5 274.164,368.987 273.553,368.876 
					272.625,368.711 271.844,369.053 271.118,369.457 270.644,370.238 270.376,370.891 270.312,371.742 270.579,372.651 
					271.12,373.441 271.831,373.956 272.575,374.101 273.372,374.223 274.158,373.896 274.871,373.478 275.359,372.71 
					275.604,372.047 275.676,371.203 				"/>
				<polygon fill="#B2CEE7" stroke="#000000" points="288.746,372.512 288.626,372.27 288.172,371.664 287.83,371.501 
					282.662,369.877 281.848,369.705 275.883,368.876 275.04,368.886 274.578,369.038 273.865,369.435 273.273,370.297 
					273.203,370.422 272.894,371.453 272.858,372.529 272.887,372.668 273.171,373.691 273.711,374.319 274.1,374.621 
					274.889,374.936 280.751,376.27 281.571,376.398 286.953,376.705 287.331,376.676 287.949,376.271 288.141,376.084 
					288.604,375.349 288.888,374.383 288.937,373.374 				"/>
				<path fill="#B2CEE7" stroke="#000000" d="M263.566,378.775l1.216-1.482l0.772-1.956l0.179-2.058l-0.446-1.769l-1.08-1.364
					l-1.251-1.42l-1.937-0.606l-0.426-0.086c-0.341,1.872-0.521,3.839-0.521,5.862c0,2.087,0.191,4.113,0.559,6.044l1.502-0.433
					L263.566,378.775z"/>
				<path fill="#B2CEE7" stroke="#000000" d="M276.559,373.673l-0.116-0.245l-1.405-1.267l-1.603-1.127l-2.473-0.807l-5.419-0.38
					l-1.849-0.127l-2.017,0.938l-0.177,0.091l-1.384,1.43c-0.03,0.567-0.045,1.14-0.045,1.717c0,2.24,0.227,4.405,0.641,6.454
					l4.104,2.76l2.485,0.851l2.11,0.095l2.035-0.031l0.284-0.118l2.07-1.145l1.782-2.013l0.035-0.069l1.109-2.368l0.026-0.061
					l0.35-2.513L276.559,373.673z"/>
				<polygon fill="#B2CEE7" stroke="#000000" points="291.435,373.538 291,372.826 290.382,372.332 289.698,372.156 
					289.093,372.043 288.331,372.263 287.755,372.625 287.245,373.246 287.064,373.853 286.929,374.563 287.096,375.358 
					287.528,376.07 288.146,376.568 288.829,376.75 289.433,376.848 290.194,376.64 290.76,376.262 291.285,375.655 291.45,375.043 
					291.595,374.331 				"/>
				<polygon fill="#B2CEE7" stroke="#000000" points="281.677,376.284 281.417,375.167 280.856,374.463 279.867,373.494 
					278.522,373.204 277.578,373.025 276.33,373.505 275.532,373.955 274.853,374.912 274.612,375.429 274.382,376.131 
					274.346,376.864 274.363,377.524 274.654,378.642 275.243,379.319 276.212,380.307 277.553,380.623 278.496,380.756 
					279.754,380.312 280.534,379.832 281.188,378.869 281.475,378.38 281.706,377.673 281.751,376.937 				"/>
				<polygon fill="#B2CEE7" stroke="#000000" points="298.787,375.955 298.229,375.202 297.879,375.047 295.255,373.898 
					293.59,373.607 291.604,373.665 291.158,373.769 290.397,374.092 290.119,374.272 289.869,374.541 289.698,374.843 
					289.638,375.121 289.792,375.619 289.91,375.971 291.207,376.878 291.651,377.064 293.188,377.613 296.281,377.961 
					297.586,377.663 297.902,377.581 298.25,377.333 298.464,377.177 298.652,376.963 298.784,376.721 298.828,376.504 
					298.863,376.213 				"/>
				<polygon fill="#B2CEE7" stroke="#000000" points="301.297,379.523 301.229,379.333 300.709,378.56 300.393,378.394 
					299.644,378.254 299.423,378.236 299.429,378.236 299.423,378.236 299.03,378.198 299.423,378.236 289.406,375.349 
					282.284,373.428 281.216,373.219 280.336,373.676 279.364,374.237 278.531,375.437 278.016,377.027 277.917,378.686 
					278.265,380.072 278.783,380.738 279.61,381.714 286.94,383.066 297.719,384.868 298.299,385.081 299.058,385.176 
					299.407,385.163 300.188,384.598 300.318,384.46 300.954,383.424 301.374,382.081 301.496,380.692 				"/>
				<polygon fill="#B2CEE7" stroke="#000000" points="274.304,379.155 273.621,378.264 272.768,377.358 271.521,376.976 
					270.373,376.786 269.212,377.203 268.245,377.657 267.418,378.642 266.917,379.945 266.836,381.315 267.188,382.463 
					267.839,383.381 268.727,384.251 269.963,384.669 271.113,384.812 272.286,384.435 273.237,383.948 274.037,382.962 
					274.534,381.662 274.63,380.311 				"/>
				<path fill="#B2CEE7" stroke="#000000" d="M268.58,386.958l0.356,0.002l0.871-0.438l0.153-0.179l0.646-0.799l0.395-1.047
					l0.061-1.093l-0.014-0.177l-0.318-1.042l-0.637-0.65l-0.312-0.209l-4.734-2.238l-4.737-1.214c0.356,2.928,1.1,5.668,2.15,8.111
					l5.236,0.867L268.58,386.958z"/>
				<polygon fill="#B2CEE7" stroke="#000000" points="293.249,386.007 292.957,384.714 292.282,383.913 291.989,383.717 
					291.391,383.616 281.681,379.853 275.068,377.425 273.753,377.202 272.36,377.873 271.74,378.191 270.727,379.42 
					270.099,381.053 269.989,382.757 270.413,384.186 270.797,384.919 271.814,385.928 278.659,387.802 288.843,390.384 
					289.386,390.649 290.354,390.75 290.687,390.759 291.686,390.174 291.8,390.043 292.604,388.967 293.124,387.576 
					293.263,386.134 				"/>
				<polygon fill="#B2CEE7" stroke="#000000" points="303.915,381.153 303.653,380.644 302.917,379.656 301.815,379.162 
					301.214,379.055 300.086,379.171 299.485,379.53 298.82,380.065 298.492,380.477 298.23,381.012 298.091,381.564 
					298.105,382.027 298.188,383.082 298.471,383.586 299.191,384.571 300.288,385.081 300.891,385.16 302.021,385.067 
					302.606,384.685 303.292,384.178 303.615,383.761 303.874,383.225 304.02,382.673 304.02,382.208 				"/>
				<polygon fill="#B2CEE7" stroke="#000000" points="328.646,392.06 328.458,391.511 326.792,390.312 323.149,388.511 
					314.498,383.923 305.51,380.163 304.81,380.041 303.468,379.822 302.921,380.09 302.24,380.508 301.562,381.363 
					301.021,382.482 300.727,383.634 300.739,384.588 300.896,385.133 301.266,385.796 302.343,386.701 311.065,391.034 
					320.228,394.588 323.98,396.166 325.998,396.646 326.437,396.662 326.92,396.385 327.413,395.979 327.933,395.228 
					328.387,394.287 328.676,393.337 328.756,392.558 				"/>
				<polygon fill="#B2CEE7" stroke="#000000" points="273.176,383.866 272.74,383.054 272.142,382.465 271.498,382.212 
					270.665,382.085 269.971,382.255 269.154,382.651 268.707,383.268 268.303,383.955 268.212,384.711 268.403,385.577 
					268.446,385.702 268.69,386.156 268.836,386.384 269.433,386.979 270.076,387.241 270.908,387.345 271.608,387.196 
					272.408,386.784 272.871,386.182 273.261,385.485 273.363,384.736 				"/>
				<polygon fill="#B2CEE7" stroke="#000000" points="280.038,386.716 279.839,386.273 277.585,384.81 276.906,384.59 
					275.296,384.124 273.291,384.032 272.651,384.146 271.9,384.434 271.503,384.627 271.15,384.92 270.919,385.248 
					270.844,385.549 270.749,386.16 270.935,386.535 271.959,387.681 273.344,388.423 274.041,388.627 277.078,389.282 
					278.462,389.06 278.928,388.964 279.437,388.691 279.885,388.296 280.189,387.858 280.29,387.462 				"/>
				<polygon fill="#B2CEE7" stroke="#000000" points="295.388,387.789 295.311,386.647 294.983,386.151 294.229,385.1 
					293.098,384.565 292.41,384.505 291.263,384.604 290.599,385.022 289.958,385.544 289.603,385.985 289.335,386.554 
					289.205,387.129 289.233,387.897 289.299,388.744 289.953,389.688 290.382,390.282 291.512,390.833 292.198,390.859 
					293.347,390.786 293.998,390.348 294.661,389.852 295.011,389.399 295.276,388.834 295.416,388.259 				"/>
				<polygon fill="#B2CEE7" stroke="#000000" points="320.841,398.48 320.593,397.958 318.871,396.663 315.097,394.706 
					306.164,389.741 296.9,385.66 295.45,385.407 294.722,385.348 294.172,385.617 293.42,386.1 292.686,387.027 292.127,388.212 
					291.852,389.408 291.915,390.37 292.06,390.96 292.515,391.599 293.622,392.575 302.603,397.266 312.061,401.141 
					315.941,402.862 318.029,403.397 318.54,403.354 319.031,403.079 319.579,402.607 320.145,401.792 320.613,400.796 
					320.898,399.81 320.944,399.023 				"/>
				<polygon fill="#B2CEE7" stroke="#000000" points="331.974,394.108 331.782,393.787 331.012,392.994 329.946,392.592 
					329.501,392.615 328.439,392.678 327.59,393.188 327.343,393.391 327.096,393.737 326.897,394.167 326.797,394.59 
					326.8,394.922 327.013,395.808 327.223,396.123 327.981,396.923 329.043,397.338 330.201,397.281 330.556,397.248 
					331.419,396.745 331.659,396.537 331.9,396.182 332.099,395.75 332.204,395.327 332.205,394.995 				"/>
				<polygon fill="#B2CEE7" stroke="#000000" points="331.38,393.853 333.158,384.666 333.786,383.359 334.057,382.989 
					334.454,382.602 334.821,382.4 335.034,382.398 334.59,382.312 334.104,382.335 333.682,382.466 333.405,382.679 
					332.48,383.438 332.335,383.892 330.219,392.667 329.816,395.817 329.998,397.253 330.278,397.835 330.97,398.278 
					330.95,397.005 				"/>
				<polyline fill="#B2CEE7" stroke="#000000" points="334.454,382.602 334.057,382.989 333.786,383.359 333.158,384.666 
					331.38,393.853 330.95,397.005 330.97,398.278 331.151,398.359 333.424,396.394 333.679,395.935 334.113,394.302 334.6,391.165 
					335.386,382.932 335.034,382.398 334.821,382.4 334.454,382.602 				"/>
				<polygon fill="#B2CEE7" stroke="#000000" points="324.178,401.895 323.962,400.919 323.718,400.62 322.923,399.757 
					321.82,399.314 320.63,399.368 320.216,399.434 319.35,399.948 319.073,400.18 318.804,400.563 318.597,401.02 318.496,401.459 
					318.522,401.792 318.714,402.771 318.973,403.062 319.753,403.929 320.853,404.389 322.055,404.342 322.469,404.263 
					323.347,403.756 323.617,403.513 323.884,403.127 324.089,402.67 324.193,402.229 				"/>
				<polygon fill="#B2CEE7" stroke="#000000" points="323.036,400.976 324.641,391.447 325.312,390.048 325.61,389.64 
					326.054,389.199 326.47,388.95 326.72,388.923 326.248,388.827 325.732,388.864 325.274,389.023 324.959,389.269 
					324.02,390.044 323.829,390.57 321.884,399.631 321.569,402.869 321.819,404.337 322.073,405 322.779,405.495 322.688,404.214 
									"/>
				<polyline fill="#B2CEE7" stroke="#000000" points="326.054,389.199 325.61,389.64 325.312,390.048 324.641,391.447 
					323.036,400.976 322.688,404.214 322.779,405.495 322.998,405.553 325.544,403.28 325.818,402.79 326.245,401.087 
					326.652,397.857 327.156,389.424 326.72,388.923 326.47,388.95 326.054,389.199 				"/>
				<g>
					<g>
						<line fill="none" stroke="#00AEEF" stroke-width="2" x1="272.492" y1="374.561" x2="272.492" y2="297.728"/>
						<g>
							<polygon fill="#00AEEF" points="275.979,300.105 272.492,287.097 269.006,300.105 							"/>
						</g>
					</g>
				</g>
				<g>
					<g>
						
							<line fill="none" stroke="#00AEEF" stroke-width="2" stroke-dasharray="2,2" x1="272.492" y1="374.54" x2="260.006" y2="304.104"/>
						<g>
							<polygon fill="#00AEEF" points="263.854,305.837 258.15,293.636 256.988,307.054 							"/>
						</g>
					</g>
				</g>
				<g>
					<g>
						
							<line fill="none" stroke="#00AEEF" stroke-width="2" stroke-dasharray="2,2" x1="272.66" y1="374.54" x2="285.146" y2="304.104"/>
						<g>
							<polygon fill="#00AEEF" points="288.163,307.054 287.001,293.636 281.298,305.837 							"/>
						</g>
					</g>
				</g>
				<g>
					<g>
						<path fill="none" stroke="#003468" stroke-width="0.5" d="M267.141,311.05c1.74-0.15,3.501-0.227,5.28-0.227
							c1.828,0,3.638,0.081,5.425,0.239"/>
						<g>
							<polygon fill="#003468" points="268.658,312.823 261.433,311.816 268.193,309.075 							"/>
						</g>
						<g>
							<polygon fill="#003468" points="276.325,312.83 283.553,311.841 276.799,309.083 							"/>
						</g>
					</g>
				</g>
			</g>
			<g>
				<g>
					<line fill="none" stroke="#000000" stroke-miterlimit="1" x1="248.869" y1="311.521" x2="193.099" y2="311.521"/>
					<g>
						<polygon points="247.68,309.777 254.185,311.521 247.68,313.264 						"/>
					</g>
				</g>
			</g>
		</g>
		<g>
			<rect x="53.505" y="66.746" fill="#B2CEE7" width="137.5" height="137.577"/>
			<g>
				<text transform="matrix(1 0 0 1 150.377 76.4727)"><tspan x="0" y="0" font-size="8">Scan Field</tspan><tspan x="-51.129" y="14.052" font-size="8">Data Collection Diameter</tspan><tspan x="-42.688" y="28.048" font-size="8">Data Collection Center</tspan><tspan x="-23.121" y="45.63" font-size="8">Image Pixel Data</tspan><tspan x="-41.797" y="70.949" font-size="8">Reconstruction Center</tspan><tspan x="-50.238" y="88.531" font-size="8">Reconstruction Diameter</tspan><tspan x="-92.93" y="106.113" font-size="8">Reconstruction Field of View (height)</tspan><tspan x="-89.809" y="123.694" font-size="8">Reconstruction Field of View (width)</tspan></text>
			</g>
			<path fill="#B2CEE7" stroke="#003468" stroke-width="0.5" d="M328.495,15.5c-66.279,0-120.008,53.726-120.008,120
				c0,66.275,53.729,120,120.008,120c66.273,0,120-53.725,120-120C448.495,69.225,394.769,15.5,328.495,15.5z M328.495,237.874
				c-56.544,0-102.383-45.835-102.383-102.375c0-56.54,45.839-102.375,102.383-102.375c56.539,0,102.373,45.835,102.373,102.375
				C430.868,192.039,385.034,237.874,328.495,237.874z"/>
			<path fill="#FFFFFF" stroke="#003468" d="M328.495,33.125c-56.544,0-102.383,45.835-102.383,102.375
				c0,56.54,45.839,102.375,102.383,102.375c56.539,0,102.373-45.835,102.373-102.375C430.868,78.959,385.034,33.125,328.495,33.125
				z M328.495,229.418c-51.871,0-93.925-42.049-93.925-93.918s42.054-93.918,93.925-93.918c51.869,0,93.916,42.049,93.916,93.918
				S380.364,229.418,328.495,229.418z"/>
			<g>
				<line fill="none" stroke="#003468" stroke-width="0.25" x1="328.495" y1="15.5" x2="328.495" y2="41.581"/>
				<line fill="none" stroke="#003468" stroke-width="0.25" x1="307.657" y1="17.322" x2="312.187" y2="43.008"/>
				<line fill="none" stroke="#003468" stroke-width="0.25" x1="287.453" y1="22.735" x2="296.374" y2="47.245"/>
				<line fill="none" stroke="#003468" stroke-width="0.25" x1="268.492" y1="31.576" x2="281.534" y2="54.164"/>
				<line fill="none" stroke="#003468" stroke-width="0.25" x1="251.355" y1="43.572" x2="268.123" y2="63.553"/>
				<line fill="none" stroke="#003468" stroke-width="0.25" x1="236.564" y1="58.362" x2="256.546" y2="75.129"/>
				<line fill="none" stroke="#003468" stroke-width="0.25" x1="224.566" y1="75.497" x2="247.155" y2="88.539"/>
				<line fill="none" stroke="#003468" stroke-width="0.25" x1="215.727" y1="94.454" x2="240.236" y2="103.375"/>
				<line fill="none" stroke="#003468" stroke-width="0.25" x1="210.313" y1="114.658" x2="236" y2="119.188"/>
				<line fill="none" stroke="#003468" stroke-width="0.25" x1="208.489" y1="135.495" x2="234.572" y2="135.497"/>
				<line fill="none" stroke="#003468" stroke-width="0.25" x1="210.312" y1="156.333" x2="236" y2="151.805"/>
				<line fill="none" stroke="#003468" stroke-width="0.25" x1="215.727" y1="176.536" x2="240.237" y2="167.618"/>
				<line fill="none" stroke="#003468" stroke-width="0.25" x1="224.566" y1="195.494" x2="247.155" y2="182.453"/>
				<line fill="none" stroke="#003468" stroke-width="0.25" x1="236.563" y1="212.628" x2="256.547" y2="195.863"/>
				<line fill="none" stroke="#003468" stroke-width="0.25" x1="251.354" y1="227.418" x2="268.125" y2="207.438"/>
				<line fill="none" stroke="#003468" stroke-width="0.25" x1="268.492" y1="239.416" x2="281.536" y2="216.828"/>
				<line fill="none" stroke="#003468" stroke-width="0.25" x1="287.451" y1="248.255" x2="296.374" y2="223.746"/>
				<line fill="none" stroke="#003468" stroke-width="0.25" x1="307.657" y1="253.67" x2="312.187" y2="227.982"/>
				<line fill="none" stroke="#003468" stroke-width="0.25" x1="328.493" y1="255.493" x2="328.495" y2="229.409"/>
				<line fill="none" stroke="#003468" stroke-width="0.25" x1="349.331" y1="253.67" x2="344.802" y2="227.982"/>
				<line fill="none" stroke="#003468" stroke-width="0.25" x1="369.534" y1="248.255" x2="360.616" y2="223.746"/>
				<line fill="none" stroke="#003468" stroke-width="0.25" x1="388.493" y1="239.416" x2="375.45" y2="216.827"/>
				<line fill="none" stroke="#003468" stroke-width="0.25" x1="405.626" y1="227.418" x2="388.862" y2="207.438"/>
				<line fill="none" stroke="#003468" stroke-width="0.25" x1="420.417" y1="212.628" x2="400.437" y2="195.861"/>
				<line fill="none" stroke="#003468" stroke-width="0.25" x1="432.415" y1="195.494" x2="409.825" y2="182.452"/>
				<line fill="none" stroke="#003468" stroke-width="0.25" x1="441.255" y1="176.536" x2="416.745" y2="167.615"/>
				<line fill="none" stroke="#003468" stroke-width="0.25" x1="446.667" y1="156.333" x2="420.981" y2="151.804"/>
				<line fill="none" stroke="#003468" stroke-width="0.25" x1="448.491" y1="135.495" x2="422.407" y2="135.495"/>
				<line fill="none" stroke="#003468" stroke-width="0.25" x1="446.667" y1="114.658" x2="420.981" y2="119.187"/>
				<line fill="none" stroke="#003468" stroke-width="0.25" x1="441.255" y1="94.454" x2="416.745" y2="103.375"/>
				<line fill="none" stroke="#003468" stroke-width="0.25" x1="432.415" y1="75.497" x2="409.825" y2="88.538"/>
				<line fill="none" stroke="#003468" stroke-width="0.25" x1="420.417" y1="58.363" x2="400.437" y2="75.128"/>
				<line fill="none" stroke="#003468" stroke-width="0.25" x1="405.628" y1="43.572" x2="388.862" y2="63.553"/>
				<line fill="none" stroke="#003468" stroke-width="0.25" x1="388.493" y1="31.575" x2="375.45" y2="54.163"/>
				<line fill="none" stroke="#003468" stroke-width="0.25" x1="369.536" y1="22.734" x2="360.614" y2="47.245"/>
				<line fill="none" stroke="#003468" stroke-width="0.25" x1="349.331" y1="17.32" x2="344.802" y2="43.008"/>
			</g>
			<g>
				<line fill="none" stroke="#003468" stroke-width="0.5" x1="318.036" y1="15.956" x2="320.31" y2="41.938"/>
				<line fill="none" stroke="#003468" stroke-width="0.5" x1="297.437" y1="19.588" x2="304.188" y2="44.781"/>
				<line fill="none" stroke="#003468" stroke-width="0.5" x1="277.78" y1="26.742" x2="288.805" y2="50.381"/>
				<line fill="none" stroke="#003468" stroke-width="0.5" x1="259.662" y1="37.2" x2="274.624" y2="58.565"/>
				<line fill="none" stroke="#003468" stroke-width="0.5" x1="243.637" y1="50.645" x2="262.082" y2="69.088"/>
				<line fill="none" stroke="#003468" stroke-width="0.5" x1="230.191" y1="66.668" x2="251.558" y2="81.629"/>
				<line fill="none" stroke="#003468" stroke-width="0.5" x1="219.732" y1="84.782" x2="243.371" y2="95.806"/>
				<line fill="none" stroke="#003468" stroke-width="0.5" x1="212.579" y1="104.438" x2="237.773" y2="111.189"/>
				<line fill="none" stroke="#003468" stroke-width="0.5" x1="208.946" y1="125.037" x2="234.931" y2="127.311"/>
				<line fill="none" stroke="#003468" stroke-width="0.5" x1="208.946" y1="145.954" x2="234.931" y2="143.682"/>
				<line fill="none" stroke="#003468" stroke-width="0.5" x1="212.578" y1="166.553" x2="237.773" y2="159.803"/>
				<line fill="none" stroke="#003468" stroke-width="0.5" x1="219.732" y1="186.208" x2="243.371" y2="175.187"/>
				<line fill="none" stroke="#003468" stroke-width="0.5" x1="230.19" y1="204.323" x2="251.559" y2="189.363"/>
				<line fill="none" stroke="#003468" stroke-width="0.5" x1="243.636" y1="220.346" x2="262.083" y2="201.903"/>
				<line fill="none" stroke="#003468" stroke-width="0.5" x1="259.661" y1="233.791" x2="274.626" y2="212.426"/>
				<line fill="none" stroke="#003468" stroke-width="0.5" x1="277.778" y1="244.249" x2="288.805" y2="220.611"/>
				<line fill="none" stroke="#003468" stroke-width="0.5" x1="297.437" y1="251.403" x2="304.188" y2="226.209"/>
				<line fill="none" stroke="#003468" stroke-width="0.5" x1="318.036" y1="255.036" x2="320.31" y2="229.052"/>
				<line fill="none" stroke="#003468" stroke-width="0.5" x1="338.952" y1="255.036" x2="336.679" y2="229.052"/>
				<line fill="none" stroke="#003468" stroke-width="0.5" x1="359.552" y1="251.403" x2="352.802" y2="226.209"/>
				<line fill="none" stroke="#003468" stroke-width="0.5" x1="379.206" y1="244.249" x2="368.185" y2="220.61"/>
				<line fill="none" stroke="#003468" stroke-width="0.5" x1="397.321" y1="233.791" x2="382.362" y2="212.425"/>
				<line fill="none" stroke="#003468" stroke-width="0.5" x1="413.345" y1="220.346" x2="394.901" y2="201.902"/>
				<line fill="none" stroke="#003468" stroke-width="0.5" x1="426.79" y1="204.323" x2="405.425" y2="189.361"/>
				<line fill="none" stroke="#003468" stroke-width="0.5" x1="437.249" y1="186.208" x2="413.608" y2="175.185"/>
				<line fill="none" stroke="#003468" stroke-width="0.5" x1="444.403" y1="166.553" x2="419.208" y2="159.802"/>
				<line fill="none" stroke="#003468" stroke-width="0.5" x1="448.034" y1="145.954" x2="422.052" y2="143.681"/>
				<line fill="none" stroke="#003468" stroke-width="0.5" x1="448.034" y1="125.037" x2="422.052" y2="127.31"/>
				<line fill="none" stroke="#003468" stroke-width="0.5" x1="444.403" y1="104.438" x2="419.208" y2="111.188"/>
				<line fill="none" stroke="#003468" stroke-width="0.5" x1="437.249" y1="84.782" x2="413.608" y2="95.805"/>
				<line fill="none" stroke="#003468" stroke-width="0.5" x1="426.79" y1="66.668" x2="405.425" y2="81.628"/>
				<line fill="none" stroke="#003468" stroke-width="0.5" x1="413.345" y1="50.645" x2="394.901" y2="69.087"/>
				<line fill="none" stroke="#003468" stroke-width="0.5" x1="397.321" y1="37.199" x2="382.362" y2="58.565"/>
				<line fill="none" stroke="#003468" stroke-width="0.5" x1="379.208" y1="26.741" x2="368.183" y2="50.38"/>
				<line fill="none" stroke="#003468" stroke-width="0.5" x1="359.552" y1="19.586" x2="352.8" y2="44.781"/>
				<line fill="none" stroke="#003468" stroke-width="0.5" x1="338.952" y1="15.954" x2="336.679" y2="41.938"/>
			</g>
			<circle fill="#CCDEF0" stroke="#003468" cx="329.001" cy="135.5" r="81.836"/>
			<path fill="#D1D3D4" stroke="#000000" stroke-width="0.5" d="M302.687,145.026c0-20.466,16.6-37.062,37.061-37.062
				c20.473,0,37.07,16.595,37.07,37.062c0,20.475-16.598,37.062-37.07,37.062C319.286,182.089,302.687,165.501,302.687,145.026z"/>
			<g>
				<g>
					<line fill="none" stroke="#003468" stroke-width="0.5" x1="361.851" y1="122.892" x2="317.657" y2="167.163"/>
					<g>
						<polygon fill="#003468" points="359.604,122.469 365.919,118.816 362.277,125.138 						"/>
					</g>
					<g>
						<polygon fill="#003468" points="317.23,164.917 313.589,171.238 319.903,167.585 						"/>
					</g>
				</g>
			</g>
			<g>
				<g>
					<line fill="none" stroke="#003468" stroke-width="0.5" x1="387.25" y1="89.015" x2="269.732" y2="181.989"/>
					<g>
						<polygon fill="#003468" points="385.068,88.333 391.767,85.442 387.412,91.295 						"/>
					</g>
					<g>
						<polygon fill="#003468" points="269.57,179.708 265.216,185.562 271.914,182.67 						"/>
					</g>
				</g>
			</g>
			<path fill="#6799C8" stroke="#003468" stroke-width="0.5" d="M332.093,135.486c0-1.706-1.383-3.088-3.092-3.088
				c-1.707,0-3.086,1.382-3.086,3.088c0,1.706,1.379,3.087,3.086,3.087C330.71,138.573,332.093,137.192,332.093,135.486z"/>
			<path fill="#939598" stroke="#000000" stroke-width="0.5" d="M342.841,145.026c0-1.705-1.385-3.088-3.092-3.088
				c-1.705,0-3.088,1.383-3.088,3.088c0,1.709,1.383,3.09,3.088,3.09C341.456,148.116,342.841,146.735,342.841,145.026z"/>
			
				<rect x="302.687" y="108.022" fill="none" stroke="#000000" stroke-width="0.5" stroke-dasharray="2,2" width="74.131" height="74.013"/>
			<g>
				<g>
					<path fill="none" stroke="#000000" stroke-miterlimit="1" d="M328.741,145.026c-25.671-0.001-135.643,0-135.643,0"/>
					<g>
						<polygon points="327.549,143.283 334.054,145.026 327.549,146.77 						"/>
					</g>
				</g>
			</g>
			<g>
				<g>
					<path fill="none" stroke="#000000" stroke-miterlimit="1" d="M314.998,162.458c-24.088-0.001-121.899,0-121.899,0"/>
					<g>
						<polygon points="313.805,160.715 320.31,162.458 313.805,164.201 						"/>
					</g>
				</g>
			</g>
			<g>
				<g>
					<polyline fill="none" stroke="#000000" stroke-miterlimit="1" points="298.696,173.331 292.294,180.233 193.099,180.234 					
						"/>
					<g>
						<polygon points="296.61,173.017 302.312,169.434 299.166,175.388 						"/>
					</g>
				</g>
			</g>
			<g>
				<g>
					<path fill="none" stroke="#000000" stroke-miterlimit="1" d="M312.22,185.019c-7.052,4.471-19.926,12.635-19.926,12.635
						l-99.195,0.001"/>
					<g>
						<polygon points="310.283,184.183 316.71,182.172 312.15,187.127 						"/>
					</g>
				</g>
			</g>
			<g>
				<g>
					<line fill="none" stroke="#000000" stroke-miterlimit="1" x1="306.653" y1="119.03" x2="193.099" y2="119.031"/>
					<g>
						<polygon points="305.464,117.287 311.969,119.03 305.464,120.773 						"/>
					</g>
				</g>
			</g>
			<g>
				<g>
					<polyline fill="none" stroke="#000000" stroke-miterlimit="1" points="325.783,127.264 313.771,102.709 193.099,102.709 					
						"/>
					<g>
						<polygon points="326.826,125.43 328.119,132.039 323.695,126.962 						"/>
					</g>
				</g>
			</g>
			<g>
				<g>
					<polyline fill="none" stroke="#000000" stroke-miterlimit="1" points="368.998,97.013 348.706,88.309 193.099,88.309 					"/>
					<g>
						<polygon points="368.593,94.942 373.883,99.109 367.218,98.146 						"/>
					</g>
				</g>
			</g>
			<g>
				<g>
					<line fill="none" stroke="#000000" stroke-miterlimit="1" x1="324.854" y1="73.908" x2="193.099" y2="73.908"/>
					<g>
						<polygon points="323.664,72.165 330.169,73.908 323.664,75.651 						"/>
					</g>
				</g>
			</g>
		</g>
	</g>
</g>
</svg>
