<?xml version="1.0" encoding="utf-8"?>

<!DOCTYPE svg PUBLIC "-//W3C//DTD SVG 1.1//EN" "http://www.w3.org/Graphics/SVG/1.1/DTD/svg11.dtd">
<svg version="1.1" id="Layer_1" xmlns="http://www.w3.org/2000/svg" xmlns:xlink="http://www.w3.org/1999/xlink" x="0px" y="0px"
	 width="502px" height="427px" viewBox="0 0 502 427" enable-background="new 0 0 502 427" xml:space="preserve">

<defs>
	<style type="text/css">
	text {
	  font-family: Helvetica, Verdana, ArialUnicodeMS, san-serif
	}
	</style>
</defs>

<g>
   <desc>
	PS 3.3 Part 3: Information Object Definitions
   </desc>
</g>

<g>
	<rect x="1" y="1" fill="#F5EED6" width="500" height="425"/>
	<g>
		
			<line fill="none" stroke="#000000" stroke-width="0.75" stroke-miterlimit="1" x1="168.307" y1="153.965" x2="450.465" y2="153.965"/>
		
			<line fill="none" stroke="#000000" stroke-width="0.75" stroke-miterlimit="1" x1="168.307" y1="192.635" x2="450.465" y2="192.635"/>
		
			<line fill="none" stroke="#000000" stroke-width="0.75" stroke-miterlimit="1" x1="168.735" y1="269.001" x2="449.6" y2="269.001"/>
		<rect x="28.961" y="48.349" fill="none" width="128.657" height="357.771"/>
		<text transform="matrix(0.9288 0 0 1 95.8169 54.7896)"><tspan x="0" y="0" font-size="9">Echo Acquisition</tspan><tspan x="3.498" y="35.8" font-size="9">Acquired Signal</tspan><tspan x="-29.742" y="46.6" font-size="9">(Signal Domain = TIME)</tspan><tspan x="-13.5" y="69.4" font-size="9">Data Point Columns</tspan><tspan x="18" y="80.2" font-size="9">(0018,9002)</tspan><tspan x="-11.509" y="102" font-size="9">Echo Peak Position</tspan><tspan x="19.01" y="112.8" font-size="9">(0018,xx02)</tspan><tspan x="-21.485" y="140.6" font-size="9">Time Domain Filtering</tspan><tspan x="34.035" y="175.4" font-size="9">Zero Fill</tspan><tspan x="-14.981" y="218.201" font-size="9">Number of Zero Fills</tspan><tspan x="18" y="229" font-size="9">(0018,9066)</tspan><tspan x="-24.992" y="251.8" font-size="9">Fourier Transformation</tspan><tspan x="-16.998" y="305.599" font-size="9">Frequency Spectrum</tspan><tspan x="-64.749" y="316.4" font-size="9">(Signal Domain = FREQUENCY)</tspan><tspan x="-13.5" y="339.201" font-size="9">Data Point Columns</tspan><tspan x="18" y="350" font-size="9">(0018,9002)</tspan></text>
		
			<line fill="none" stroke="#000000" stroke-width="0.75" stroke-miterlimit="1" x1="168.307" y1="88.332" x2="450.465" y2="88.332"/>
		<g>
			<g>
				
					<line fill="none" stroke="#000000" stroke-width="2" stroke-miterlimit="1" x1="168.307" y1="52.692" x2="441.605" y2="52.692"/>
				<g>
					<polygon points="439.624,55.598 450.465,52.692 439.624,49.787 					"/>
				</g>
			</g>
		</g>
		
			<line fill="none" stroke="#000000" stroke-width="0.75" stroke-miterlimit="1" x1="168.307" y1="120.745" x2="450.465" y2="120.745"/>
		
			<line fill="none" stroke="#000000" stroke-width="0.75" stroke-linecap="round" stroke-miterlimit="1" stroke-dasharray="6,2" x1="238.738" y1="34.062" x2="238.738" y2="269.001"/>
		
			<line fill="none" stroke="#000000" stroke-width="0.75" stroke-linecap="round" stroke-miterlimit="1" stroke-dasharray="4,4" x1="309.168" y1="77.501" x2="309.168" y2="195.633"/>
		
			<line fill="none" stroke="#000000" stroke-width="0.75" stroke-linecap="round" stroke-miterlimit="1" stroke-dasharray="4,4" x1="379.6" y1="34.062" x2="379.6" y2="269.001"/>
		
			<line fill="none" stroke="#000000" stroke-width="0.75" stroke-linecap="round" stroke-miterlimit="1" stroke-dasharray="4,4" x1="449.6" y1="216.683" x2="449.6" y2="269.001"/>
		
			<line fill="none" stroke="#000000" stroke-width="0.75" stroke-linecap="round" stroke-miterlimit="1" stroke-dasharray="4,4" x1="168.735" y1="216.683" x2="168.735" y2="269.001"/>
		
			<line fill="none" stroke="#005695" stroke-width="4" stroke-linecap="round" stroke-miterlimit="1" x1="238.738" y1="120.745" x2="379.6" y2="120.745"/>
		
			<line fill="none" stroke="#005695" stroke-width="4" stroke-linecap="round" stroke-miterlimit="1" x1="168.307" y1="269.001" x2="238.608" y2="269.001"/>
		
			<line fill="none" stroke="#005695" stroke-width="4" stroke-linecap="round" stroke-miterlimit="1" x1="168.307" y1="391.38" x2="449.6" y2="391.38"/>
		
			<line fill="none" stroke="#005695" stroke-width="4" stroke-linecap="round" stroke-miterlimit="1" x1="379.6" y1="269.001" x2="449.9" y2="269.001"/>
		
			<line fill="none" stroke="#005695" stroke-width="6" stroke-linecap="round" stroke-miterlimit="1" x1="308.447" y1="153.965" x2="309.889" y2="153.965"/>
		<rect x="454.615" y="48.438" fill="none" width="18.424" height="8.51"/>
		<text transform="matrix(0.9848 0 0 1 454.6152 54.8779)" font-size="9">time</text>
		<path fill="none" stroke="#010101" stroke-linecap="round" stroke-linejoin="round" stroke-miterlimit="8" d="M238.607,186.615
			c23.613-8.781,46.414-18.913,70.029-18.913c23.615,0.677,59.447,16.211,70.848,18.913"/>
		<g>
			<path fill="none" stroke="#000000" stroke-width="0.75" stroke-miterlimit="1" d="M238.738,52.693c0.008,0,1.79,0,3.56,0.04
				s1.771-0.119,3.516-0.197s1.745,0.392,3.464,0.507s1.721-0.815,3.413-0.967c1.692-0.152,1.692,1.385,3.354,1.573
				c1.663,0.188,1.664-2.101,3.295-2.323c1.631-0.223,1.63,2.954,3.227,3.21c1.598,0.256,1.6-3.945,3.16-4.235
				s1.558,5.07,3.08,5.392c1.521,0.321,1.523-6.324,3.004-6.676c1.479-0.352,1.48,7.701,2.917,8.083
				c1.436,0.382,1.436-9.198,2.827-9.609s1.393,10.813,2.736,11.252s1.344-12.542,2.638-13.008
				c1.295-0.466,1.296,14.378,2.54,14.871s1.241-16.324,2.432-16.842c1.191-0.519,1.193,18.372,2.329,18.914
				c1.137,0.543,1.136-20.518,2.214-21.085c1.078-0.566,1.081,22.762,2.1,23.351c1.018,0.589,1.929-25.725,1.97-25.706
				c1.344,0.621,1.853,28.146,1.853,28.146c0.115,0,1.711-30.669,1.711-30.669c0.077,0,1.584,33.27,1.584,33.27
				c0.052,0,1.439-35.948,1.439-35.948c0.058,0,1.309,38.698,1.309,38.698c0.037,0,1.149-41.516,1.149-41.516
				c0.038,0,1.007,44.397,1.007,44.397c0.024,0,0.841-47.337,0.841-47.337c0.017,0,0.692,50.333,0.692,50.333
				c0.011,0,0.515-53.384,0.515-53.384c0.007,0,0.362,56.485,0.362,56.485c0.002,0,0.173-59.629,0.173-59.629l0.034,61.304
				l0.164-59.804c0.002,0,0.352,56.658,0.352,56.658c0.006,0,0.507-53.555,0.507-53.555c0.01,0,0.683,50.502,0.683,50.502
				c0.016,0,0.831-47.505,0.831-47.505c0.022,0,0.996,44.566,0.996,44.566c0.034,0,1.14-41.688,1.14-41.688
				c0.033,0,1.293,38.871,1.293,38.871c0.053,0,1.433-36.119,1.433-36.119c0.062,0,1.578,33.434,1.578,33.434
				c0.07,0,1.709-30.823,1.709-30.823c0.105,0,1.515,28.146,1.839,28.295c0.161,0.074,0.949-26.442,1.964-25.852
				c1.016,0.591,1.017,24.059,2.092,23.49s1.078-21.762,2.211-21.217s1.131,19.559,2.319,19.039
				c1.188-0.521,1.192-17.453,2.436-16.958c1.245,0.496,1.245,15.447,2.541,14.978c1.295-0.469,1.294-13.544,2.639-13.103
				c1.347,0.442,1.349,11.75,2.742,11.336s1.392-10.067,2.83-9.683c1.439,0.384,1.438,8.5,2.921,8.146
				c1.481-0.354,1.485-7.052,3.01-6.729c1.519,0.322,1.516,5.729,3.073,5.439c1.562-0.291,1.566-4.536,3.168-4.277
				c1.599,0.258,1.596,3.468,3.229,3.244c1.635-0.224,1.638-2.54,3.306-2.35c1.669,0.189,1.668,1.748,3.368,1.594
				c1.698-0.153,1.7-1.097,3.427-0.98c1.73,0.117,1.729,0.592,3.486,0.513c1.759-0.079,1.762-0.239,3.545-0.199
				s3.582,0.04,3.588,0.04"/>
		</g>
		
			<rect x="238.738" y="85.334" fill="#58595B" stroke="#000000" stroke-width="0.5" stroke-miterlimit="1" width="140.861" height="6"/>
		
			<line fill="none" stroke="#000000" stroke-width="0.75" stroke-miterlimit="1" x1="168.738" y1="304.238" x2="449.6" y2="304.238"/>
		
			<rect x="168.738" y="355.599" fill="#58595B" stroke="#000000" stroke-width="0.5" stroke-miterlimit="1" width="280.861" height="6"/>
		<rect x="168.738" y="223.933" fill="#FFFFFF" stroke="#000000" stroke-width="0.5" stroke-miterlimit="1" width="70" height="6"/>
		<rect x="379.6" y="223.933" fill="#FFFFFF" stroke="#000000" stroke-width="0.5" stroke-miterlimit="1" width="70" height="6"/>
		<radialGradient id="SVGID_1_" cx="309.1689" cy="192.6338" r="49.8472" gradientUnits="userSpaceOnUse">
			<stop  offset="0" style="stop-color:#000000"/>
			<stop  offset="0.1344" style="stop-color:#040404"/>
			<stop  offset="0.2745" style="stop-color:#111111"/>
			<stop  offset="0.4171" style="stop-color:#262626"/>
			<stop  offset="0.5616" style="stop-color:#434343"/>
			<stop  offset="0.7075" style="stop-color:#686868"/>
			<stop  offset="0.8537" style="stop-color:#969696"/>
			<stop  offset="1" style="stop-color:#CCCCCC"/>
		</radialGradient>
		
			<rect x="238.738" y="189.634" fill="url(#SVGID_1_)" stroke="#000000" stroke-width="0.5" stroke-miterlimit="1" width="140.861" height="6"/>
		<radialGradient id="SVGID_2_" cx="309.1689" cy="226.9326" r="49.8472" gradientUnits="userSpaceOnUse">
			<stop  offset="0" style="stop-color:#000000"/>
			<stop  offset="0.1344" style="stop-color:#040404"/>
			<stop  offset="0.2745" style="stop-color:#111111"/>
			<stop  offset="0.4171" style="stop-color:#262626"/>
			<stop  offset="0.5616" style="stop-color:#434343"/>
			<stop  offset="0.7075" style="stop-color:#686868"/>
			<stop  offset="0.8537" style="stop-color:#969696"/>
			<stop  offset="1" style="stop-color:#CCCCCC"/>
		</radialGradient>
		
			<rect x="238.738" y="223.933" fill="url(#SVGID_2_)" stroke="#000000" stroke-width="0.5" stroke-miterlimit="1" width="140.861" height="6"/>
		<g>
			<g>
				
					<line fill="none" stroke="#ED1C24" stroke-width="2" stroke-miterlimit="1" x1="309.313" y1="318.931" x2="309.313" y2="325.272"/>
				<g>
					<polygon fill="#ED1C24" points="306.989,323.688 309.313,332.36 311.638,323.688 					"/>
				</g>
			</g>
		</g>
		<g>
			<g>
				
					<line fill="none" stroke="#ED1C24" stroke-width="2" stroke-miterlimit="1" x1="309.313" y1="250.62" x2="309.313" y2="282.169"/>
				<g>
					<polygon fill="#ED1C24" points="306.989,280.584 309.313,289.257 311.638,280.584 					"/>
				</g>
			</g>
		</g>
		<g>
			<g>
				
					<line fill="none" stroke="#ED1C24" stroke-width="2" stroke-miterlimit="1" x1="287.355" y1="197.137" x2="287.355" y2="216.845"/>
				<g>
					<polygon fill="#ED1C24" points="285.031,215.26 287.355,223.933 289.68,215.26 					"/>
				</g>
			</g>
		</g>
		<g>
			<g>
				
					<line fill="none" stroke="#ED1C24" stroke-width="2" stroke-miterlimit="1" x1="287.355" y1="170.016" x2="287.355" y2="181.765"/>
				<g>
					<polygon fill="#ED1C24" points="285.031,180.18 287.355,188.853 289.68,180.18 					"/>
				</g>
			</g>
		</g>
		<g>
			<g>
				
					<line fill="none" stroke="#ED1C24" stroke-width="2" stroke-miterlimit="1" x1="287.355" y1="92.413" x2="287.355" y2="157.888"/>
				<g>
					<polygon fill="#ED1C24" points="285.031,156.303 287.355,164.976 289.68,156.303 					"/>
				</g>
			</g>
		</g>
		<g>
			<path fill="none" stroke="#ED1C24" stroke-width="2" d="M449.698,230.686c-0.326,4.586-2.282,6.366-8.148,8.283
				c-5.866,1.916-19.229,3.012-37.481,3.012h-57.689c-22.489,0-30.312,1.231-37.156,5.818c-6.518-4.587-14.015-5.818-36.829-5.818
				h-58.016c-18.577,0-31.289-1.027-37.155-3.012c-5.867-1.985-7.822-3.766-8.148-8.283"/>
		</g>
		<g>
			<path fill="none" stroke="#ED1C24" stroke-width="2" d="M169.074,353.073c0.326-4.518,2.281-6.298,8.148-8.283
				c5.866-1.984,18.578-3.012,37.155-3.012h58.016c22.814,0,30.312-1.231,36.829-5.818c6.845,4.587,14.667,5.818,37.156,5.818
				h57.689c18.252,0,31.615,1.096,37.481,3.012c5.866,1.917,7.822,3.697,8.148,8.283"/>
		</g>
		<circle fill="#FFFFFF" stroke="#6799C8" stroke-miterlimit="1" cx="309.538" cy="304.257" r="15"/>
		<g>
			<path fill="#ED1C24" d="M314.323,298.842c-1.177,1.15-1.824,2.904-2.568,5.207c0.959-0.191,1.92-0.336,2.904-0.359
				c0.623-0.936,1.416-1.367,1.871-1.367c0.289,0,0.553,0.143,0.553,0.527c0,0.455-0.672,1.295-1.729,1.801
				c-0.191,0.527-0.191,0.982-0.191,1.439c0,0.145,0.023,0.408,0.072,0.623l-1.416,0.48v-0.432c0-0.48,0.071-1.031,0.264-1.68
				c-0.504,0.023-1.488,0.072-2.761,0.287c-1.849,4.969-5.064,6.77-8.497,6.77c-1.68,0-3.576-0.793-3.576-2.664
				c0-1.033,0.601-1.656,1.44-1.656c0.647,0,1.2,0.527,1.2,1.176c0,0.623-0.385,1.199-1.057,1.199c-0.191,0-0.552-0.072-0.695-0.311
				h-0.049c0.121,0.84,1.129,1.512,2.545,1.512c2.328,0,3.961-1.129,6.072-5.4c-1.368,0.432-2.832,1.08-4.248,2.039l-0.312-0.359
				c0.937-1.129,2.929-2.209,5.185-2.977c0.12-0.24,0.216-0.48,0.337-0.744c1.031-2.352,2.399-3.816,4.32-5.447L314.323,298.842z
				 M319.987,296.609c-1.08,0.887-2.664,1.752-4.225,1.752c-2.616,0-6.145-1.441-8.377-1.441c-3,0-4.872,1.369-4.872,3.434
				c0,1.92,1.32,2.688,2.568,2.688c2.353,0,3.601-1.512,4.464-4.225l0.48,0.025c-0.624,3.24-2.305,4.92-5.017,4.92
				c-1.8,0-3.479-1.201-3.479-3.24c0-1.271,0.6-2.377,1.535-3.168c1.2-1.008,3.024-1.537,5.449-1.537
				c2.64,0,6.096,1.344,8.496,1.344c1.008,0,1.92-0.455,2.713-0.912L319.987,296.609z"/>
		</g>
		<rect x="385.718" y="259.622" fill="none" width="58.228" height="5.146"/>
		<text transform="matrix(0.9288 0 0 1 388.8203 263.916)" font-size="6">Number of Zero Fills/2</text>
		<polygon fill="none" points="232.12,264.768 173.893,264.768 173.173,259.622 231.4,259.622 		"/>
		<text transform="matrix(0.9288 0 0 1 176.3345 263.916)" font-size="6">Number of Zero Fills/2</text>
	</g>
</g>
</svg>
