<?xml version="1.0" encoding="utf-8"?>

<!DOCTYPE svg PUBLIC "-//W3C//DTD SVG 1.1//EN" "http://www.w3.org/Graphics/SVG/1.1/DTD/svg11.dtd">
<svg version="1.1" id="Layer_1" xmlns="http://www.w3.org/2000/svg" xmlns:xlink="http://www.w3.org/1999/xlink" x="0px" y="0px"
	 width="502px" height="427px" viewBox="0 0 502 427" enable-background="new 0 0 502 427" xml:space="preserve">

<defs>
	<style type="text/css">
	text {
	  font-family: Helvetica, Verdana, ArialUnicodeMS, san-serif
	}
	</style>
</defs>

<g>
   <desc>
	PS 3.3 Part 3: Information Object Definitions
   </desc>
</g>

<g>
	<rect x="1" y="1" fill="#F5EED6" width="500" height="425"/>
	<g>
		
			<line fill="none" stroke="#000000" stroke-width="0.75" stroke-miterlimit="1" x1="225.907" y1="153.965" x2="392.878" y2="153.965"/>
		
			<line fill="none" stroke="#000000" stroke-width="0.75" stroke-miterlimit="1" x1="225.907" y1="192.635" x2="392.878" y2="192.635"/>
		
			<line fill="none" stroke="#000000" stroke-width="0.75" stroke-miterlimit="1" x1="225.907" y1="227.234" x2="392.878" y2="227.234"/>
		
			<line fill="none" stroke="#000000" stroke-width="0.75" stroke-miterlimit="1" x1="226.336" y1="269.001" x2="392.013" y2="269.001"/>
		<rect x="86.562" y="48.349" fill="none" width="128.657" height="357.771"/>
		<text transform="matrix(0.9288 0 0 1 93.0161 54.7896)"><tspan x="0" y="0" font-size="9">Free Induction Decay Acquisition</tspan><tspan x="68.528" y="35.8" font-size="9">Acquired Signal</tspan><tspan x="35.288" y="46.6" font-size="9">(Signal Domain = TIME)</tspan><tspan x="51.53" y="69.4" font-size="9">Data Point Columns</tspan><tspan x="83.03" y="80.2" font-size="9">(0018,9002)</tspan><tspan x="53.521" y="102" font-size="9">Echo Peak Position</tspan><tspan x="84.041" y="112.8" font-size="9">(0018,xx02)</tspan><tspan x="43.545" y="140.6" font-size="9">Time Domain Filtering</tspan><tspan x="99.066" y="175.4" font-size="9">Zero Fill</tspan><tspan x="50.049" y="218.201" font-size="9">Number of Zero Fills</tspan><tspan x="83.03" y="229" font-size="9">(0018,9066)</tspan><tspan x="40.038" y="251.8" font-size="9">Fourier Transformation</tspan><tspan x="48.032" y="305.599" font-size="9">Frequency Spectrum</tspan><tspan x="0.281" y="316.4" font-size="9">(Signal Domain = FREQUENCY)</tspan><tspan x="51.53" y="339.201" font-size="9">Data Point Columns</tspan><tspan x="83.03" y="350" font-size="9">(0018,9002)</tspan></text>
		
			<line fill="none" stroke="#000000" stroke-width="0.75" stroke-miterlimit="1" x1="225.907" y1="88.332" x2="392.878" y2="88.332"/>
		<g>
			<g>
				
					<line fill="none" stroke="#000000" stroke-width="2" stroke-miterlimit="1" x1="225.907" y1="52.692" x2="384.019" y2="52.692"/>
				<g>
					<polygon points="382.037,55.598 392.878,52.692 382.037,49.787 					"/>
				</g>
			</g>
		</g>
		
			<line fill="none" stroke="#000000" stroke-width="0.75" stroke-miterlimit="1" x1="225.907" y1="120.745" x2="392.878" y2="120.745"/>
		
			<line fill="none" stroke="#000000" stroke-width="0.75" stroke-linecap="round" stroke-miterlimit="1" stroke-dasharray="6,2" x1="251.357" y1="52.692" x2="251.357" y2="269.001"/>
		
			<line fill="none" stroke="#000000" stroke-width="0.75" stroke-linecap="round" stroke-miterlimit="1" stroke-dasharray="4,4" x1="322.013" y1="34.062" x2="322.013" y2="269.001"/>
		
			<line fill="none" stroke="#000000" stroke-width="0.75" stroke-linecap="round" stroke-miterlimit="1" stroke-dasharray="4,4" x1="392.013" y1="216.683" x2="392.013" y2="269.001"/>
		
			<line fill="none" stroke="#005695" stroke-width="4" stroke-linecap="round" stroke-miterlimit="1" x1="251.45" y1="120.745" x2="322.013" y2="120.745"/>
		
			<line fill="none" stroke="#005695" stroke-width="4" stroke-linecap="round" stroke-miterlimit="1" x1="251.515" y1="391.38" x2="392.013" y2="391.38"/>
		
			<line fill="none" stroke="#005695" stroke-width="4" stroke-linecap="round" stroke-miterlimit="1" x1="322.013" y1="269.001" x2="392.313" y2="269.001"/>
		
			<line fill="none" stroke="#005695" stroke-width="6" stroke-linecap="round" stroke-miterlimit="1" x1="250.852" y1="153.965" x2="252.294" y2="153.965"/>
		<rect x="397.028" y="48.438" fill="none" width="18.424" height="8.51"/>
		<text transform="matrix(0.9848 0 0 1 397.0156 54.8779)" font-size="9">time</text>
		<path fill="none" stroke="#010101" stroke-linecap="round" stroke-linejoin="round" stroke-miterlimit="8" d="M251.041,167.702
			c23.619,0.677,59.456,16.211,70.856,18.913"/>
		
			<rect x="251.45" y="85.334" fill="#58595B" stroke="#000000" stroke-width="0.5" stroke-miterlimit="1" width="70.562" height="6"/>
		
			<line fill="none" stroke="#000000" stroke-width="0.75" stroke-miterlimit="1" x1="226.339" y1="304.238" x2="392.013" y2="304.238"/>
		
			<line fill="none" stroke="#000000" stroke-width="0.75" stroke-miterlimit="1" x1="226.339" y1="358.599" x2="392.013" y2="358.599"/>
		
			<line fill="none" stroke="#000000" stroke-width="0.75" stroke-miterlimit="1" x1="226.339" y1="391.38" x2="392.013" y2="391.38"/>
		
			<rect x="251.729" y="355.599" fill="#58595B" stroke="#000000" stroke-width="0.5" stroke-miterlimit="1" width="140.283" height="6"/>
		<rect x="322.013" y="223.933" fill="#FFFFFF" stroke="#000000" stroke-width="0.5" stroke-miterlimit="1" width="70" height="6"/>
		<linearGradient id="SVGID_1_" gradientUnits="userSpaceOnUse" x1="250.8516" y1="192.6338" x2="322.0127" y2="192.6338">
			<stop  offset="0" style="stop-color:#000000"/>
			<stop  offset="1" style="stop-color:#CCCCCC"/>
		</linearGradient>
		
			<rect x="250.852" y="189.634" fill="url(#SVGID_1_)" stroke="#000000" stroke-width="0.5" stroke-miterlimit="1" width="71.161" height="6"/>
		<linearGradient id="SVGID_2_" gradientUnits="userSpaceOnUse" x1="250.8516" y1="226.9326" x2="322.0127" y2="226.9326">
			<stop  offset="0" style="stop-color:#000000"/>
			<stop  offset="1" style="stop-color:#CCCCCC"/>
		</linearGradient>
		
			<rect x="250.852" y="223.933" fill="url(#SVGID_2_)" stroke="#000000" stroke-width="0.5" stroke-miterlimit="1" width="71.161" height="6"/>
		<g>
			<g>
				
					<line fill="none" stroke="#ED1C24" stroke-width="2" stroke-miterlimit="1" x1="321.673" y1="318.931" x2="321.673" y2="325.272"/>
				<g>
					<polygon fill="#ED1C24" points="319.349,323.688 321.673,332.36 323.997,323.688 					"/>
				</g>
			</g>
		</g>
		<g>
			<g>
				
					<line fill="none" stroke="#ED1C24" stroke-width="2" stroke-miterlimit="1" x1="321.673" y1="250.62" x2="321.673" y2="282.169"/>
				<g>
					<polygon fill="#ED1C24" points="319.349,280.584 321.673,289.257 323.997,280.584 					"/>
				</g>
			</g>
		</g>
		<g>
			<g>
				
					<line fill="none" stroke="#ED1C24" stroke-width="2" stroke-miterlimit="1" x1="258.558" y1="197.137" x2="258.558" y2="216.845"/>
				<g>
					<polygon fill="#ED1C24" points="256.233,215.26 258.558,223.933 260.882,215.26 					"/>
				</g>
			</g>
		</g>
		<g>
			<g>
				
					<line fill="none" stroke="#ED1C24" stroke-width="2" stroke-miterlimit="1" x1="258.558" y1="170.016" x2="258.558" y2="181.765"/>
				<g>
					<polygon fill="#ED1C24" points="256.233,180.18 258.558,188.853 260.882,180.18 					"/>
				</g>
			</g>
		</g>
		<g>
			<g>
				
					<line fill="none" stroke="#ED1C24" stroke-width="2" stroke-miterlimit="1" x1="258.558" y1="92.413" x2="258.558" y2="157.888"/>
				<g>
					<polygon fill="#ED1C24" points="256.233,156.303 258.558,164.976 260.882,156.303 					"/>
				</g>
			</g>
		</g>
		<g>
			<path fill="none" stroke="#ED1C24" stroke-width="2" d="M392.111,230.686c-0.164,4.586-1.146,6.366-4.089,8.283
				c-2.943,1.916-9.648,3.012-18.808,3.012h-28.947c-11.284,0-15.209,1.231-18.644,5.818c-3.271-4.587-7.032-5.818-18.481-5.818
				h-29.115c-9.323,0-15.702-1.027-18.646-3.012c-2.943-1.985-3.926-3.766-4.09-8.283"/>
		</g>
		<g>
			<path fill="none" stroke="#ED1C24" stroke-width="2" d="M251.291,353.073c0.164-4.518,1.146-6.298,4.09-8.283
				c2.944-1.984,9.323-3.012,18.646-3.012h29.115c11.449,0,15.211-1.231,18.481-5.818c3.435,4.587,7.359,5.818,18.644,5.818h28.947
				c9.159,0,15.864,1.096,18.808,3.012c2.943,1.917,3.925,3.697,4.089,8.283"/>
		</g>
		<circle fill="#FFFFFF" stroke="#6799C8" stroke-miterlimit="1" cx="321.897" cy="304.257" r="15"/>
		<g>
			<path fill="#ED1C24" d="M326.683,298.842c-1.177,1.15-1.824,2.904-2.568,5.207c0.959-0.191,1.92-0.336,2.904-0.359
				c0.623-0.936,1.416-1.367,1.871-1.367c0.289,0,0.553,0.143,0.553,0.527c0,0.455-0.672,1.295-1.729,1.801
				c-0.191,0.527-0.191,0.982-0.191,1.439c0,0.145,0.023,0.408,0.072,0.623l-1.416,0.48v-0.432c0-0.48,0.071-1.031,0.264-1.68
				c-0.504,0.023-1.488,0.072-2.761,0.287c-1.849,4.969-5.064,6.77-8.497,6.77c-1.68,0-3.576-0.793-3.576-2.664
				c0-1.033,0.601-1.656,1.44-1.656c0.647,0,1.2,0.527,1.2,1.176c0,0.623-0.385,1.199-1.057,1.199c-0.191,0-0.552-0.072-0.695-0.311
				h-0.049c0.121,0.84,1.129,1.512,2.545,1.512c2.328,0,3.961-1.129,6.072-5.4c-1.368,0.432-2.832,1.08-4.248,2.039l-0.312-0.359
				c0.937-1.129,2.929-2.209,5.185-2.977c0.12-0.24,0.216-0.48,0.337-0.744c1.031-2.352,2.399-3.816,4.32-5.447L326.683,298.842z
				 M332.347,296.609c-1.08,0.887-2.664,1.752-4.225,1.752c-2.616,0-6.145-1.441-8.377-1.441c-3,0-4.872,1.369-4.872,3.434
				c0,1.92,1.32,2.688,2.568,2.688c2.353,0,3.601-1.512,4.464-4.225l0.48,0.025c-0.624,3.24-2.305,4.92-5.017,4.92
				c-1.8,0-3.479-1.201-3.479-3.24c0-1.271,0.6-2.377,1.535-3.168c1.2-1.008,3.024-1.537,5.449-1.537
				c2.64,0,6.096,1.344,8.496,1.344c1.008,0,1.92-0.455,2.713-0.912L332.347,296.609z"/>
		</g>
		<g>
			<defs>
				<rect id="SVGID_3_" x="251.45" y="20.88" width="70.562" height="63.625"/>
			</defs>
			<clipPath id="SVGID_4_">
				<use xlink:href="#SVGID_3_"  overflow="visible"/>
			</clipPath>
			<g clip-path="url(#SVGID_4_)">
				<path fill="none" stroke="#000000" stroke-width="0.75" stroke-miterlimit="1" d="M181.135,52.692c0.008,0,1.79,0,3.56,0.039
					s1.772-0.117,3.518-0.195s1.743,0.39,3.463,0.505s1.722-0.814,3.414-0.966c1.692-0.152,1.692,1.384,3.354,1.572
					c1.663,0.188,1.664-2.099,3.295-2.321c1.631-0.223,1.631,2.954,3.228,3.21c1.598,0.256,1.599-3.945,3.16-4.235
					s1.561,5.07,3.083,5.391c1.521,0.321,1.521-6.324,3.002-6.676c1.479-0.352,1.48,7.7,2.917,8.082
					c1.436,0.382,1.436-9.198,2.827-9.609s1.393,10.813,2.736,11.252s1.344-12.541,2.638-13.007
					c1.295-0.466,1.297,14.379,2.542,14.872c1.245,0.493,1.243-16.324,2.433-16.842c1.191-0.519,1.194,18.372,2.33,18.914
					c1.137,0.543,1.134-20.519,2.213-21.086c1.078-0.566,1.082,22.763,2.1,23.352c1.018,0.589,1.93-25.725,1.971-25.706
					c1.343,0.621,1.85,28.146,1.85,28.146c0.116,0,1.712-30.669,1.712-30.669c0.077,0,1.587,33.27,1.587,33.27
					c0.052,0,1.438-35.947,1.438-35.947c0.058,0,1.308,38.697,1.308,38.697c0.037,0,1.149-41.516,1.149-41.516
					c0.038,0,1.009,44.396,1.009,44.396c0.024,0,0.838-47.337,0.838-47.337c0.017,0,0.694,50.335,0.694,50.335
					c0.011,0,0.514-53.384,0.514-53.384c0.006,0,0.364,56.484,0.364,56.484c0.002,0,0.172-59.63,0.172-59.63
					c0,0,0.033,61.306,0.033,61.306l0.166-59.805c0.002,0,0.35,56.657,0.35,56.657c0.006,0,0.509-53.554,0.509-53.554
					c0.01,0,0.683,50.5,0.683,50.5c0.016,0,0.832-47.504,0.832-47.504c0.022,0,0.995,44.566,0.995,44.566
					c0.034,0,1.139-41.688,1.139-41.688c0.033,0,1.293,38.87,1.293,38.87c0.053,0,1.435-36.118,1.435-36.118
					c0.062,0,1.578,33.434,1.578,33.434c0.07,0,1.707-30.824,1.707-30.824c0.104,0,1.515,28.146,1.841,28.297
					c0.161,0.074,0.95-26.442,1.965-25.852c1.016,0.591,1.018,24.057,2.094,23.488s1.074-21.76,2.208-21.216
					s1.134,19.558,2.322,19.038c1.189-0.521,1.188-17.454,2.432-16.959c1.245,0.496,1.246,15.448,2.542,14.979
					c1.295-0.469,1.297-13.544,2.642-13.103c1.347,0.442,1.345,11.75,2.738,11.337s1.395-10.068,2.833-9.684
					c1.439,0.384,1.439,8.501,2.923,8.146c1.482-0.354,1.483-7.054,3.008-6.73c1.52,0.322,1.519,5.729,3.076,5.439
					c1.563-0.291,1.566-4.536,3.168-4.277c1.599,0.258,1.597,3.47,3.229,3.246c1.635-0.224,1.637-2.54,3.305-2.351
					c1.67,0.189,1.668,1.747,3.368,1.593c1.698-0.153,1.699-1.096,3.426-0.979c1.73,0.117,1.73,0.593,3.487,0.514
					c1.759-0.079,1.761-0.239,3.544-0.199s3.585,0.04,3.591,0.04"/>
			</g>
		</g>
	</g>
</g>
</svg>
