<?xml version="1.0" encoding="utf-8"?>

<!DOCTYPE svg PUBLIC "-//W3C//DTD SVG 1.1//EN" "http://www.w3.org/Graphics/SVG/1.1/DTD/svg11.dtd">
<svg version="1.1" id="Layer_1" xmlns="http://www.w3.org/2000/svg" xmlns:xlink="http://www.w3.org/1999/xlink" x="0px" y="0px"
	 width="502px" height="222px" viewBox="0 0 502 222" enable-background="new 0 0 502 222" xml:space="preserve">

<defs>
	<style type="text/css">
	text {
	  font-family: Helvetica, Verdana, ArialUnicodeMS, san-serif
	}
	</style>
</defs>

<g>
   <desc>
	PS 3.3 Part 3: Information Object Definitions
   </desc>
</g>

<g>
	<rect x="1" y="1" fill="#F5EED6" width="500" height="220"/>
	<g>
		<rect x="201.229" y="44.206" fill="#B2CEE7" stroke="#B2CEE7" stroke-miterlimit="1" width="176.006" height="52"/>
		
			<line fill="none" stroke="#000000" stroke-width="0.75" stroke-linecap="round" stroke-miterlimit="1" stroke-dasharray="4,4" x1="243.231" y1="79.206" x2="243.231" y2="179.889"/>
		
			<line fill="none" stroke="#000000" stroke-width="0.75" stroke-miterlimit="1" x1="175.831" y1="114.996" x2="436.83" y2="114.996"/>
		
			<line fill="none" stroke="#000000" stroke-width="0.75" stroke-miterlimit="1" x1="175.831" y1="142.105" x2="436.83" y2="142.105"/>
		
			<line fill="none" stroke="#000000" stroke-width="0.75" stroke-miterlimit="1" x1="175.831" y1="168.879" x2="436.83" y2="168.879"/>
		
			<line fill="none" stroke="#000000" stroke-width="0.75" stroke-miterlimit="1" x1="175.831" y1="198.988" x2="436.83" y2="198.988"/>
		<rect x="442.112" y="66.205" fill="none" width="17.379" height="8.511"/>
		<text transform="matrix(0.9288 0 0 1 442.1113 72.6353)" font-size="9">time</text>
		
			<rect x="201.229" y="61.206" fill="#6799C8" stroke="#010101" stroke-width="0.75" stroke-linecap="round" stroke-linejoin="round" stroke-miterlimit="1" width="176.006" height="18"/>
		
			<line fill="none" stroke="#000000" stroke-width="0.75" stroke-linecap="round" stroke-miterlimit="1" stroke-dasharray="4,4" x1="201.229" y1="79.384" x2="201.229" y2="206.186"/>
		
			<line fill="none" stroke="#000000" stroke-width="0.75" stroke-linecap="round" stroke-miterlimit="1" stroke-dasharray="4,4" x1="261.232" y1="79.206" x2="261.232" y2="151.283"/>
		
			<line fill="none" stroke="#005695" stroke-width="6" stroke-linecap="round" stroke-miterlimit="1" x1="200.344" y1="115.236" x2="201.783" y2="115.236"/>
		
			<line fill="none" stroke="#005695" stroke-width="6" stroke-linecap="round" stroke-miterlimit="1" x1="243.229" y1="142.338" x2="261.232" y2="142.338"/>
		<g>
			<g>
				
					<line fill="none" stroke="#005695" stroke-width="2" stroke-linecap="round" stroke-miterlimit="1" x1="201.232" y1="168.848" x2="233.972" y2="168.848"/>
				<g>
					<polygon fill="#005695" points="231.595,172.334 244.604,168.848 231.595,165.361 					"/>
				</g>
			</g>
		</g>
		<g>
			<g>
				
					<line fill="none" stroke="#005695" stroke-linecap="round" stroke-miterlimit="1" x1="243.231" y1="29.501" x2="243.231" y2="55.89"/>
				<g>
					<polygon fill="#005695" points="241.488,54.701 243.231,61.206 244.975,54.701 					"/>
				</g>
			</g>
		</g>
		<g>
			<g>
				
					<line fill="none" stroke="#005695" stroke-linecap="round" stroke-miterlimit="1" x1="297.224" y1="29.501" x2="297.224" y2="55.89"/>
				<g>
					<polygon fill="#005695" points="295.48,54.701 297.224,61.206 298.967,54.701 					"/>
				</g>
			</g>
		</g>
		<g>
			<g>
				
					<line fill="none" stroke="#005695" stroke-width="2" stroke-linecap="round" stroke-miterlimit="1" x1="201.064" y1="179.646" x2="286.593" y2="179.646"/>
				<g>
					<polygon fill="#005695" points="284.215,183.133 297.224,179.646 284.215,176.16 					"/>
				</g>
			</g>
		</g>
		<text transform="matrix(0.9288 0 0 1 42.5176 118.2539)"><tspan x="0" y="0" font-size="9">Acquisition DateTime (0008,002A)</tspan><tspan x="8.499" y="26.799" font-size="9">Shot Duration Time (0080,0004)</tspan><tspan x="18.51" y="53.6" font-size="9">Shot Offset Time (0080,0005)</tspan></text>
		
			<rect x="243.232" y="61.206" fill="#E6E7E8" stroke="#000000" stroke-width="0.75" stroke-linecap="round" stroke-linejoin="round" stroke-miterlimit="1" width="18" height="18"/>
		
			<line fill="none" stroke="#000000" stroke-width="0.75" stroke-linecap="round" stroke-miterlimit="1" stroke-dasharray="4,4" x1="297.227" y1="79.206" x2="297.227" y2="179.889"/>
		
			<line fill="none" stroke="#000000" stroke-width="0.75" stroke-linecap="round" stroke-miterlimit="1" stroke-dasharray="4,4" x1="315.227" y1="79.206" x2="315.227" y2="151.283"/>
		
			<rect x="297.228" y="61.206" fill="#E6E7E8" stroke="#000000" stroke-width="0.75" stroke-linecap="round" stroke-linejoin="round" stroke-miterlimit="1" width="17.999" height="18"/>
		<g>
			<g>
				
					<line fill="none" stroke="#000000" stroke-width="2" stroke-linecap="round" stroke-miterlimit="1" x1="175.831" y1="70.199" x2="429.742" y2="70.199"/>
				<g>
					<polygon points="428.157,72.523 436.83,70.199 428.157,67.875 					"/>
				</g>
			</g>
		</g>
		
			<line fill="none" stroke="#005695" stroke-width="6" stroke-linecap="round" stroke-miterlimit="1" x1="297.227" y1="142.338" x2="315.229" y2="142.338"/>
		<text transform="matrix(0.9288 0 0 1 231.1475 23.792)" font-size="9">Shot 1</text>
		<text transform="matrix(0.9288 0 0 1 285.1387 23.792)" font-size="9">Shot 2</text>
	</g>
</g>
</svg>
