<?xml version="1.0" encoding="utf-8"?>
<!-- Generator: Adobe Illustrator 16.0.4, SVG Export Plug-In . SVG Version: 6.00 Build 0)  -->
<!DOCTYPE svg PUBLIC "-//W3C//DTD SVG 1.1//EN" "http://www.w3.org/Graphics/SVG/1.1/DTD/svg11.dtd">
<svg version="1.1" id="Layer_1" xmlns="http://www.w3.org/2000/svg" xmlns:xlink="http://www.w3.org/1999/xlink" x="0px" y="0px"
	 width="502px" height="567.001px" viewBox="0 0 502 567.001" enable-background="new 0 0 502 567.001" xml:space="preserve">

<defs>
	<style type="text/css">
	text {
	  font-family: Helvetica, Verdana, ArialUnicodeMS, san-serif
	}
	</style>
</defs>

<g>
   <desc>
	PS 3.3 Part 3: Information Object Definitions
   </desc>
</g>

<g>
	<rect x="1" y="1" fill="#F5EED6" width="500" height="565.001"/>
	<g>
		<polygon fill="#4F8ABE" stroke="#000000" stroke-width="0.5" points="241.919,87.402 226.95,81.101 249.046,76.495 
			264.771,82.235 279.249,78.858 401.629,119.725 343.242,147.41 224.497,91.406 		"/>
		<polygon opacity="0.7" fill="#CCDEF0" stroke="#000000" stroke-width="0.5" stroke-dasharray="1" points="217.265,109.565 
			186.494,106.89 202.158,97.458 230.665,99.705 238.54,93.722 392.383,105.103 396.893,135.491 206.031,117.601 		"/>
		<text transform="matrix(1 0 0 1 350.04 86.459)"><tspan x="0" y="0" fill="#ED1C24" font-size="12">X</tspan><tspan x="8.004" y="5" fill="#ED1C24" font-size="12">t</tspan></text>
		<text transform="matrix(1 0 0 1 369.0684 98.4722)" fill="#ED1C24" font-size="12">X</text>
		<text transform="matrix(1 0 0 1 156.0498 99.9238)"><tspan x="0" y="0" fill="#00AEEF" font-size="12">Z</tspan><tspan x="8.415" y="5" fill="#00AEEF" font-size="9">t</tspan></text>
		<text transform="matrix(1 0 0 1 203.2349 67.8989)" fill="#00AEEF" font-size="12">Z</text>
		<text transform="matrix(1 0 0 1 299.8623 166.5322)"><tspan x="0" y="0" fill="#0DB14B" font-size="12">Y, Y</tspan><tspan x="22.676" y="5" fill="#0DB14B" font-size="12">t</tspan></text>
		<text transform="matrix(1 0 0 1 302.7324 103.2886)"><tspan x="0" y="0" font-size="12">O</tspan><tspan x="9.416" y="5" font-size="9">t</tspan></text>
		<g>
			<g>
				<line fill="none" stroke="#0DB14B" stroke-width="2" x1="318.787" y1="115.212" x2="318.787" y2="150.142"/>
				<g>
					<polygon fill="#0DB14B" points="316.463,148.557 318.787,157.229 321.111,148.557 					"/>
				</g>
			</g>
		</g>
		<g>
			<g>
				<line fill="none" stroke="#ED1C24" stroke-width="2" x1="318.787" y1="115.212" x2="360.419" y2="100.65"/>
				<g>
					<polygon fill="#ED1C24" points="359.69,103.368 367.109,98.311 358.155,98.98 					"/>
				</g>
			</g>
		</g>
		<g>
			<g>
				<line fill="none" stroke="#00AEEF" stroke-width="2" x1="318.787" y1="115.212" x2="220.719" y2="68.066"/>
				<g>
					<polygon fill="#00AEEF" points="223.154,66.658 214.331,64.995 221.14,70.848 					"/>
				</g>
			</g>
		</g>
		<g>
			<g>
				
					<line fill="none" stroke="#ED1C24" stroke-width="2" stroke-dasharray="1,1" x1="318.784" y1="115.903" x2="347.708" y2="93.612"/>
				<g>
					<polygon fill="#ED1C24" points="347.871,96.421 353.322,89.286 345.034,92.739 					"/>
				</g>
			</g>
		</g>
		<g>
			<text transform="matrix(1 0 0 1 100.3813 65.0522)"><tspan x="0" y="0" font-size="10">At</tspan><tspan x="9.448" y="5" font-size="10">1</tspan><tspan x="15.01" y="0" font-size="10">, Table Horizontal</tspan><tspan x="27.778" y="12" font-size="10">Rotation Angle</tspan></text>
		</g>
		<g>
			<g>
				
					<line fill="none" stroke="#00AEEF" stroke-width="2" stroke-dasharray="1,1" x1="318.787" y1="115.212" x2="176.646" y2="98.078"/>
				<g>
					<polygon fill="#00AEEF" points="178.498,95.96 169.609,97.229 177.941,100.575 					"/>
				</g>
			</g>
		</g>
		<ellipse fill="#FFFFFF" stroke="#010101" stroke-miterlimit="1" cx="318.992" cy="56.023" rx="22.735" ry="8.971"/>
		<g>
			<g>
				<path fill="none" stroke="#010101" stroke-miterlimit="1" d="M198.334,95.228c3.292-10.378,13.17-19.462,24.99-21.687"/>
				<g>
					<polygon fill="#010101" points="199.706,94.763 197.497,98.672 197.455,94.183 					"/>
				</g>
				<g>
					<polygon fill="#010101" points="222.716,74.85 226.847,73.091 222.39,72.548 					"/>
				</g>
			</g>
		</g>
		<g>
			<g>
				<path fill="none" stroke="#010101" stroke-miterlimit="1" d="M300.869,31.131c-2.895-1.505-4.612-3.382-4.612-5.417
					c0-4.954,10.18-8.971,22.736-8.971s22.734,4.017,22.734,8.971c0,3.17-4.168,5.956-10.459,7.552"/>
				<g>
					<polygon fill="#010101" points="300.438,29.009 305.839,33.031 299.15,32.249 					"/>
				</g>
			</g>
		</g>
		
			<line fill="none" stroke="#000000" stroke-linecap="round" stroke-linejoin="round" x1="318.97" y1="114.263" x2="318.993" y2="57.028"/>
		<text transform="matrix(1 -7.700000e-04 7.700000e-04 1 223.751 37.4126)" font-size="9">Axis of Rotation</text>
		<line fill="none" stroke="#000000" x1="288.923" y1="46.166" x2="352.073" y2="67.41"/>
		<line fill="none" stroke="#000000" x1="288.923" y1="66.129" x2="346.915" y2="47.052"/>
		<polyline fill="#6799C8" stroke="#000000" stroke-linecap="round" stroke-linejoin="round" points="319.083,55.872 
			311.698,32.611 327.181,32.819 319.101,55.838 		"/>
		
			<ellipse transform="matrix(0.0107 0.9999 -0.9999 0.0107 348.5919 -287.3411)" fill="#CCDEF0" stroke="#000000" cx="319.507" cy="32.494" rx="2.381" ry="7.791"/>
		<path fill="none" stroke="#000000" stroke-linecap="round" d="M312.935,36.501c1.406,0.619,3.605,0.921,6.293,0.894
			c2.934-0.032,5.482-0.554,6.803-1.301"/>
		<path fill="none" stroke="#000000" stroke-linecap="round" d="M313.851,39.394c1.367,0.342,3.141,0.539,5.074,0.519
			c2.48-0.025,4.686-0.403,6.107-0.972"/>
		<path fill="none" stroke="#000000" stroke-linecap="round" d="M314.726,42.155c1.148,0.189,2.479,0.29,3.898,0.275
			c2.318-0.024,4.02-0.23,5.439-0.735"/>
		<path fill="none" stroke="#000000" stroke-linecap="round" d="M315.577,44.826c0.852,0.089,1.777,0.132,2.744,0.122
			c1.812-0.019,3.477-0.225,4.797-0.558"/>
		<path fill="none" stroke="#000000" stroke-linecap="round" d="M316.403,47.435c0.521,0.026,1.061,0.038,1.615,0.032
			c1.533-0.016,2.963-0.167,4.166-0.414"/>
		<path fill="none" stroke="#000000" stroke-linecap="round" d="M317.214,49.986c0.166,0,0.334,0.001,0.5-0.001
			c1.279-0.013,2.484-0.12,3.547-0.297"/>
		<line fill="none" stroke="#000000" stroke-linecap="round" x1="316.218" y1="34.685" x2="322.755" y2="30.3"/>
	</g>
	<g>
		<polygon fill="#CCDEF0" stroke="#000000" stroke-width="0.5" stroke-dasharray="1" points="299.125,262.552 284.891,266.325 
			269.746,264.761 248.062,270.161 260.939,272.546 245.841,276.776 294.863,285.354 354.959,267.181 		"/>
		<polygon fill="#4F8ABE" stroke="#000000" stroke-width="0.5" points="258.482,255.974 243.515,249.671 265.609,245.065 
			281.336,250.806 295.814,247.431 418.191,288.297 359.805,315.982 241.062,259.978 		"/>
		<text transform="matrix(1 0 0 1 358.7344 255.1899)"><tspan x="0" y="0" fill="#ED1C24" font-size="12">X, X</tspan><tspan x="22.676" y="5" fill="#ED1C24" font-size="12">t</tspan></text>
		<text transform="matrix(1 0 0 1 176.73 261.0112)"><tspan x="0" y="0" fill="#00AEEF" font-size="12">Z</tspan><tspan x="8.415" y="5" fill="#00AEEF" font-size="9">t</tspan></text>
		<text transform="matrix(1 0 0 1 186.355 225.1362)" fill="#00AEEF" font-size="12">Z</text>
		<text transform="matrix(1 0 0 1 318.5889 338.7031)" fill="#0DB14B" font-size="12">Y</text>
		<text transform="matrix(1 0 0 1 338.9453 333.8369)"><tspan x="0" y="0" fill="#0DB14B" font-size="12">Y</tspan><tspan x="8.752" y="5" fill="#0DB14B" font-size="9">t</tspan></text>
		<g>
			<g>
				<line fill="none" stroke="#0DB14B" stroke-width="2" x1="322.93" y1="277.128" x2="322.93" y2="319.452"/>
				<g>
					<polygon fill="#0DB14B" points="320.605,317.867 322.93,326.54 325.254,317.867 					"/>
				</g>
			</g>
		</g>
		<g>
			<g>
				<line fill="none" stroke="#00AEEF" stroke-width="2" x1="323.068" y1="276.989" x2="206.967" y2="224.78"/>
				<g>
					<polygon fill="#00AEEF" points="209.366,223.31 200.503,221.873 207.459,227.55 					"/>
				</g>
			</g>
		</g>
		<g>
			<g>
				
					<line fill="none" stroke="#0DB14B" stroke-width="2" stroke-dasharray="1,1" x1="322.926" y1="276.51" x2="334.244" y2="317.293"/>
				<g>
					<polygon fill="#0DB14B" points="331.581,316.387 336.14,324.122 336.06,315.144 					"/>
				</g>
			</g>
		</g>
		<g>
			<text transform="matrix(1 0 0 1 80.9824 242.4321)" font-size="10">At2, Table Head Tilt Angle</text>
		</g>
		<g>
			<g>
				
					<line fill="none" stroke="#00AEEF" stroke-width="2" stroke-dasharray="1,1" x1="323.656" y1="276.867" x2="196.863" y2="258.786"/>
				<g>
					<polygon fill="#00AEEF" points="198.761,256.708 189.847,257.785 198.104,261.311 					"/>
				</g>
			</g>
		</g>
		<polyline opacity="0.7" fill="#CCDEF0" stroke="#000000" stroke-width="0.5" stroke-dasharray="1" points="294.377,285.268 
			354.953,267.179 294.377,285.268 361.658,297.037 421.027,272.657 354.953,267.179 		"/>
		<text transform="matrix(1 0 0 1 315.2578 266.0884)"><tspan x="0" y="0" font-size="12">O</tspan><tspan x="9.418" y="5" font-size="9">t</tspan></text>
		<g>
			<g>
				<line fill="none" stroke="#ED1C24" stroke-width="2" x1="323.482" y1="276.575" x2="364.933" y2="264.53"/>
				<g>
					<polygon fill="#ED1C24" points="364.059,267.204 371.738,262.552 362.762,262.74 					"/>
				</g>
			</g>
		</g>
		<line fill="none" stroke="#000000" x1="294.293" y1="285.39" x2="236.889" y2="300.528"/>
		<text transform="matrix(1 0 0 1 202.3799 330.666)" font-size="9">Axis of Rotation</text>
		<path fill="#FFFFFF" stroke="#000000" d="M245.542,298.978c1.149,8.637-1.345,16.092-5.574,16.656s-8.59-5.979-9.741-14.609
			c-1.152-8.635,1.344-16.092,5.574-16.656C240.03,283.803,244.39,290.349,245.542,298.978z"/>
		<g>
			<g>
				<path fill="none" stroke="#000000" d="M198.472,312.595c-0.056-0.337-0.107-0.678-0.153-1.021
					c-1.152-8.639,1.344-16.093,5.574-16.657c4.229-0.564,8.589,5.978,9.741,14.61c0.669,5.027,0.104,9.654-1.32,12.754"/>
				<g>
					<polygon points="200.793,309.799 201.243,321.013 195.245,311.526 					"/>
				</g>
			</g>
		</g>
		<line fill="none" stroke="#000000" x1="221.522" y1="293.331" x2="254.996" y2="309.009"/>
		<g>
			<polygon fill="#6799C8" stroke="#000000" stroke-linecap="round" stroke-linejoin="round" points="221.403,310.765 
				236.619,300.382 236.619,300.382 217.863,297.511 			"/>
			
				<ellipse transform="matrix(0.9781 -0.208 0.208 0.9781 -58.5126 52.2123)" fill="#CCDEF0" stroke="#000000" cx="219.065" cy="304.392" rx="3.428" ry="7.001"/>
			<path fill="none" stroke="#000000" d="M222.187,298.171c1.041,1.09,1.903,3.092,2.364,5.271c0.412,1.932,0.39,3.762,0.022,5.141"
				/>
			<path fill="none" stroke="#000000" d="M224.699,298.556c0.81,1.104,1.603,2.855,1.982,4.646c0.283,1.334,0.361,2.611,0.264,3.732
				"/>
			<path fill="none" stroke="#000000" d="M227.249,298.944c0.625,1.033,1.253,2.549,1.565,4.023c0.191,0.902,0.29,1.781,0.301,2.604
				"/>
			<path fill="none" stroke="#000000" d="M229.722,299.323c0.47,0.92,0.971,2.211,1.224,3.406c0.091,0.432,0.161,0.854,0.21,1.27"/>
			
				<line fill="none" stroke="#000000" stroke-linecap="round" stroke-linejoin="round" x1="215.779" y1="299.657" x2="221.558" y2="309.792"/>
		</g>
		<line fill="none" stroke="#000000" x1="237.204" y1="277.629" x2="237.204" y2="322.272"/>
		<g>
			<g>
				<path fill="none" stroke="#000000" d="M210.688,253.672c1.394-6.844,3.424-13.458,6.026-19.774"/>
				<g>
					<polygon points="212.041,253.138 210.038,257.156 209.763,252.675 					"/>
				</g>
				<g>
					<polygon points="217.536,235.094 218.117,230.643 215.388,234.207 					"/>
				</g>
			</g>
		</g>
	</g>
	<g>
		<polygon fill="#CCDEF0" stroke="#000000" stroke-width="0.5" stroke-dasharray="1" points="145.31,408.436 134.941,416.229 
			149.876,422.811 134.891,434.543 251.873,495.516 279.367,464.961 		"/>
		<polygon fill="#4F8ABE" stroke="#000000" stroke-width="0.5" points="150.263,417.408 135.294,411.107 157.39,406.502 
			173.115,412.242 187.593,408.865 309.973,449.732 251.583,477.416 132.841,421.412 		"/>
		<text transform="matrix(1 0 0 1 210.7075 504.1611)" fill="#0DB14B" font-size="12">Y</text>
		<text transform="matrix(1 0 0 1 243.1299 495.5127)"><tspan x="0" y="0" fill="#0DB14B" font-size="12">Y</tspan><tspan x="8.752" y="5" fill="#0DB14B" font-size="9">t</tspan></text>
		<text transform="matrix(0.9694 0 0 1 91.8955 397.4326)"><tspan x="0" y="0" fill="#00AEEF" font-size="12">Z, Z</tspan><tspan x="21.328" y="5" fill="#00AEEF" font-size="9">t</tspan></text>
		<g>
			<g>
				<line fill="none" stroke="#0DB14B" stroke-width="2" x1="214.709" y1="438.564" x2="214.709" y2="484.027"/>
				<g>
					<polygon fill="#0DB14B" points="212.385,482.442 214.709,491.115 217.034,482.442 					"/>
				</g>
			</g>
		</g>
		<polygon opacity="0.7" fill="#CCDEF0" stroke="#000000" stroke-width="0.5" stroke-dasharray="1" points="279.367,464.961 
			307.949,433.201 183.242,396.686 170.13,407.109 154.357,401.637 145.31,408.436 		"/>
		<text transform="matrix(1 0 0 1 207.0386 427.5225)"><tspan x="0" y="0" font-size="12">O</tspan><tspan x="9.417" y="5" font-size="9">t</tspan></text>
		<text transform="matrix(1 0 0 1 292.3809 417.9951)" fill="#ED1C24" font-size="12">X</text>
		<text transform="matrix(1 0 0 1 263.751 370.1074)"><tspan x="0" y="0" fill="#ED1C24" font-size="12">X</tspan><tspan x="8.752" y="5" fill="#ED1C24" font-size="9">t</tspan></text>
		<g>
			<g>
				<line fill="none" stroke="#ED1C24" stroke-width="2" x1="215.262" y1="438.012" x2="281.057" y2="417.554"/>
				<g>
					<polygon fill="#ED1C24" points="280.232,420.244 287.824,415.449 278.853,415.805 					"/>
				</g>
			</g>
		</g>
		<g>
			<g>
				
					<line fill="none" stroke="#0DB14B" stroke-width="2" stroke-dasharray="1,1" x1="215.09" y1="438.479" x2="239.212" y2="478.784"/>
				<g>
					<polygon fill="#0DB14B" points="236.403,478.618 242.852,484.866 240.392,476.23 					"/>
				</g>
			</g>
		</g>
		<g>
			<g>
				
					<line fill="none" stroke="#ED1C24" stroke-width="2" stroke-dasharray="1,1" x1="215.262" y1="438.012" x2="266.075" y2="383.477"/>
				<g>
					<polygon fill="#ED1C24" points="266.694,386.221 270.906,378.291 263.294,383.052 					"/>
				</g>
			</g>
		</g>
		<g>
			<g>
				<line fill="none" stroke="#00AEEF" stroke-width="2" x1="214.848" y1="438.426" x2="123.024" y2="399.148"/>
				<g>
					<polygon fill="#00AEEF" points="125.395,397.635 116.507,396.361 123.567,401.909 					"/>
				</g>
			</g>
		</g>
		<text transform="matrix(1 0 0 1 287.8242 392.0205)" font-size="10">At3, Table Cradle Tilt Angle</text>
		<ellipse fill="#FFFFFF" stroke="#000000" cx="314.844" cy="482.339" rx="9.039" ry="21.827"/>
		<g>
			<g>
				<path fill="none" stroke="#000000" d="M348.82,476.892c1.203-1.43,2.557-2.232,3.988-2.232c4.992,0,9.039,9.771,9.039,21.826
					c0,12.054-4.047,21.825-9.039,21.825c-4.025,0-7.434-6.35-8.605-15.125"/>
				<g>
					<polygon points="352.544,476.53 345.131,484.957 347.337,473.952 					"/>
				</g>
			</g>
		</g>
		
			<line fill="none" stroke="#000000" stroke-linecap="round" stroke-linejoin="round" x1="279.367" y1="464.961" x2="314.094" y2="481.371"/>
		<text transform="matrix(1 0 0 1 307.7285 527.2832)" font-size="9">Axis of Rotation</text>
		<line fill="none" stroke="#000000" x1="336.998" y1="470.233" x2="284.027" y2="496.078"/>
		<line fill="none" stroke="#000000" x1="314.541" y1="452.717" x2="314.541" y2="509.492"/>
		<polyline fill="#6799C8" stroke="#000000" stroke-linecap="round" stroke-linejoin="round" points="314.844,481.258 
			339.244,481.668 334.115,496.277 314.869,481.285 		"/>
		
			<ellipse transform="matrix(-0.9513 -0.3083 0.3083 -0.9513 506.5076 1058.2502)" fill="#CCDEF0" stroke="#000000" cx="336.867" cy="489.105" rx="2.382" ry="7.792"/>
		<path fill="none" stroke="#000000" stroke-linecap="round" d="M335.162,481.6c-1.035,1.137-2.021,3.125-2.852,5.682
			c-0.902,2.789-1.221,5.371-0.934,6.861"/>
		<path fill="none" stroke="#000000" stroke-linecap="round" d="M332.129,481.549c-0.76,1.186-1.512,2.803-2.107,4.645
			c-0.766,2.359-1.109,4.568-1.025,6.098"/>
		<path fill="none" stroke="#000000" stroke-linecap="round" d="M329.232,481.498c-0.545,1.027-1.064,2.258-1.502,3.605
			c-0.717,2.207-1.062,3.883-1.035,5.393"/>
		<path fill="none" stroke="#000000" stroke-linecap="round" d="M326.43,481.453c-0.355,0.779-0.691,1.645-0.99,2.562
			c-0.559,1.723-0.893,3.367-1,4.725"/>
		<path fill="none" stroke="#000000" stroke-linecap="round" d="M323.693,481.406c-0.191,0.484-0.373,0.992-0.545,1.52
			c-0.473,1.459-0.785,2.861-0.934,4.082"/>
		<path fill="none" stroke="#000000" stroke-linecap="round" d="M321.018,481.361c-0.055,0.156-0.107,0.316-0.158,0.475
			c-0.396,1.217-0.678,2.393-0.85,3.457"/>
		<line fill="none" stroke="#000000" stroke-linecap="round" x1="335.84" y1="485.291" x2="337.912" y2="492.885"/>
		<g>
			<g>
				<path fill="none" stroke="#000000" d="M272.142,415.104c0.348-1.694,0.53-3.447,0.53-5.243c0-6.965-2.747-13.295-7.226-17.991"
					/>
				<g>
					<polygon points="273.432,414.628 271.191,418.519 271.186,414.029 					"/>
				</g>
				<g>
					<polygon points="266.781,391.612 262.834,389.475 265.184,393.3 					"/>
				</g>
			</g>
		</g>
	</g>
</g>
</svg>
