<?xml version="1.0" encoding="utf-8"?>

<!DOCTYPE svg PUBLIC "-//W3C//DTD SVG 1.1//EN" "http://www.w3.org/Graphics/SVG/1.1/DTD/svg11.dtd">
<svg version="1.1" id="Layer_1" xmlns="http://www.w3.org/2000/svg" xmlns:xlink="http://www.w3.org/1999/xlink" x="0px" y="0px"
	 width="502px" height="387px" viewBox="0 0 502 387" enable-background="new 0 0 502 387" xml:space="preserve">

<defs>
	<style type="text/css">
	text {
	  font-family: Helvetica, Verdana, ArialUnicodeMS, san-serif
	}
	</style>
</defs>

<g>
   <desc>
	PS 3.3 Part 3: Information Object Definitions
   </desc>
</g>

<g>
	<rect x="1" y="1" fill="#F5EED6" width="500" height="385"/>
	<g>
		<rect x="11.015" y="308.161" fill="#B2CEE7" width="481" height="63.355"/>
		
			<rect x="334.015" y="37.083" fill="#CCDEF0" stroke="#003468" stroke-miterlimit="1" stroke-dasharray="6,2" width="145" height="325.334"/>
		<g>
			<g>
				<line fill="none" stroke="#003468" stroke-miterlimit="1" x1="96.515" y1="267.167" x2="96.515" y2="317.237"/>
				<g>
					<polygon fill="#003468" points="95.062,316.246 96.515,321.667 97.967,316.246 					"/>
				</g>
			</g>
		</g>
		<g>
			<g>
				<line fill="none" stroke="#003468" stroke-miterlimit="1" x1="96.515" y1="223.667" x2="96.515" y2="240.737"/>
				<g>
					<polygon fill="#003468" points="95.062,239.746 96.515,245.167 97.967,239.746 					"/>
				</g>
			</g>
		</g>
		<g>
			<g>
				<line fill="none" stroke="#003468" stroke-miterlimit="1" x1="96.515" y1="188.667" x2="96.515" y2="205.234"/>
				<g>
					<polygon fill="#003468" points="95.062,204.244 96.515,209.664 97.967,204.244 					"/>
				</g>
			</g>
		</g>
		<g>
			<g>
				<line fill="none" stroke="#003468" stroke-miterlimit="1" x1="96.515" y1="154.083" x2="96.515" y2="170.234"/>
				<g>
					<polygon fill="#003468" points="95.062,169.244 96.515,174.664 97.967,169.244 					"/>
				</g>
			</g>
		</g>
		<g>
			<g>
				<line fill="none" stroke="#003468" stroke-miterlimit="1" x1="96.515" y1="108.867" x2="96.515" y2="127.235"/>
				<g>
					<polygon fill="#003468" points="95.062,126.245 96.515,131.665 97.967,126.245 					"/>
				</g>
			</g>
		</g>
		<g>
			<g>
				<line fill="none" stroke="#003468" stroke-miterlimit="1" x1="96.515" y1="72.665" x2="96.515" y2="90.436"/>
				<g>
					<polygon fill="#003468" points="95.062,89.445 96.515,94.865 97.967,89.445 					"/>
				</g>
			</g>
		</g>
		<rect x="29.015" y="94.865" fill="#FFFFFF" stroke="#6799C8" stroke-miterlimit="1" width="135" height="14"/>
		<rect x="29.015" y="50.665" fill="#86B2D8" stroke="#003468" stroke-miterlimit="1" width="135" height="22"/>
		<rect x="29.015" y="131.664" fill="#86B2D8" stroke="#003468" stroke-miterlimit="1" width="135" height="22"/>
		<rect x="29.015" y="245.167" fill="#FFFFFF" stroke="#6799C8" stroke-miterlimit="1" width="135" height="22"/>
		<rect x="29.015" y="209.664" fill="#86B2D8" stroke="#003468" stroke-miterlimit="1" width="135" height="14"/>
		<rect x="29.015" y="174.664" fill="#FFFFFF" stroke="#6799C8" stroke-miterlimit="1" width="135" height="14"/>
		<rect x="29.015" y="321.667" fill="#86B2D8" stroke="#003468" stroke-miterlimit="1" width="135" height="34"/>
		<g>
			<rect x="52.512" y="53.667" fill="none" width="88" height="19"/>
			<text transform="matrix(0.9288 0 0 1 74.0054 59.3926)"><tspan x="0" y="0" font-size="8">K-space Data</tspan><tspan x="-20.012" y="9.6" font-size="8">Spectroscopy acquisition</tspan></text>
		</g>
		<g>
			<rect x="65.164" y="133.667" fill="none" width="62.696" height="20"/>
			<text transform="matrix(0.9288 0 0 1 75.041 139.3926)"><tspan x="0" y="0" font-size="8">Time Signals</tspan><tspan x="-10.225" y="9.6" font-size="8">Time Domain Data</tspan></text>
		</g>
		<g>
			<rect x="48.762" y="213.667" fill="none" width="95.5" height="10"/>
			<text transform="matrix(0.9288 0 0 1 51.291 219.3926)" font-size="8">Frequency Domain Spectra</text>
		</g>
		<g>
			<rect x="59.762" y="247.167" fill="none" width="73.5" height="20"/>
			<text transform="matrix(0.9288 0 0 1 61.8218 252.8926)"><tspan x="0" y="0" font-size="8">Image reconstruction</tspan><tspan x="9.78" y="9.6" font-size="8">Diagnostic data</tspan></text>
		</g>
		<g>
			<rect x="39.262" y="98.667" fill="none" width="114.5" height="10"/>
			<text transform="matrix(0.9288 0 0 1 40.5571 104.3926)" font-size="8">Spatial direction Fourier transform</text>
		</g>
		<g>
			<rect x="33.965" y="178.667" fill="none" width="125.093" height="10"/>
			<text transform="matrix(0.9288 0 0 1 36.0181 184.3926)" font-size="8">Spectrum direction Fourier transform</text>
		</g>
		<g>
			<rect x="53.664" y="325.667" fill="none" width="85.696" height="30"/>
			<text transform="matrix(0.9288 0 0 1 71.1138 331.3926)"><tspan x="0" y="0" font-size="8">Metabolite Map</tspan><tspan x="-18.01" y="9.6" font-size="8">Represents distribution of </tspan><tspan x="-5.557" y="19.2" font-size="8">specific metabolite</tspan></text>
		</g>
		<g>
			<g>
				<line fill="none" stroke="#003468" stroke-miterlimit="1" x1="251.515" y1="227.664" x2="251.515" y2="321.237"/>
				<g>
					<polygon fill="#003468" points="250.062,320.246 251.515,325.667 252.967,320.246 					"/>
				</g>
			</g>
		</g>
		<g>
			<g>
				<line fill="none" stroke="#003468" stroke-miterlimit="1" x1="251.516" y1="181.664" x2="168.445" y2="181.664"/>
				<g>
					<polygon fill="#003468" points="169.436,180.211 164.015,181.664 169.436,183.117 					"/>
				</g>
			</g>
		</g>
		<g>
			<g>
				<line fill="none" stroke="#003468" stroke-miterlimit="1" x1="178.68" y1="143.667" x2="164.015" y2="143.667"/>
				<g>
					<polygon fill="#003468" points="177.689,142.214 183.11,143.667 177.689,145.12 					"/>
				</g>
			</g>
		</g>
		<g>
			<g>
				<line fill="none" stroke="#003468" stroke-miterlimit="1" x1="339.028" y1="143.667" x2="324.364" y2="143.667"/>
				<g>
					<polygon fill="#003468" points="325.355,142.214 319.935,143.667 325.355,145.12 					"/>
				</g>
			</g>
		</g>
		<g>
			<g>
				<line fill="none" stroke="#003468" stroke-miterlimit="1" x1="251.515" y1="154.083" x2="251.515" y2="201.234"/>
				<g>
					<polygon fill="#003468" points="250.062,200.244 251.515,205.664 252.967,200.244 					"/>
				</g>
			</g>
		</g>
		<rect x="182.935" y="131.664" fill="#D1D3D4" stroke="#003468" stroke-miterlimit="1" width="136.999" height="22"/>
		<rect x="182.935" y="205.664" fill="#D1D3D4" stroke="#003468" stroke-miterlimit="1" width="136.999" height="22"/>
		<rect x="182.935" y="326.39" fill="#D1D3D4" stroke="#003468" stroke-miterlimit="1" width="136.999" height="22"/>
		<g>
			<rect x="182.215" y="133.667" fill="none" width="138.598" height="20"/>
			<text transform="matrix(0.9288 0 0 1 186.2544 139.3926)"><tspan x="0" y="0" font-size="8">Optional usage of Time domain data for</tspan><tspan x="39.357" y="9.6" font-size="8">Phase Correction</tspan></text>
		</g>
		<g>
			<rect x="182.215" y="208.667" fill="none" width="138.598" height="20"/>
			<text transform="matrix(0.9288 0 0 1 191.6294 214.3926)"><tspan x="0" y="0" font-size="8">Water Referenced Phase Correction</tspan><tspan x="30.34" y="9.6" font-size="8">(0018,9199) = YES</tspan></text>
		</g>
		<g>
			<rect x="337.212" y="15.483" fill="none" width="138.599" height="20"/>
			<text transform="matrix(0.9288 0 0 1 359.4297 21.209)"><tspan x="0" y="0" font-size="8">Water Reference Acquisition</tspan><tspan x="-16.105" y="9.6" font-size="8">(0018,xx01) = WATER_REFERENCE</tspan></text>
		</g>
		<g>
			<g>
				<line fill="none" stroke="#003468" stroke-miterlimit="1" x1="406.515" y1="267.167" x2="406.515" y2="317.237"/>
				<g>
					<polygon fill="#003468" points="405.062,316.246 406.515,321.667 407.967,316.246 					"/>
				</g>
			</g>
		</g>
		<g>
			<g>
				<line fill="none" stroke="#003468" stroke-miterlimit="1" x1="406.515" y1="223.667" x2="406.515" y2="240.737"/>
				<g>
					<polygon fill="#003468" points="405.062,239.746 406.515,245.167 407.967,239.746 					"/>
				</g>
			</g>
		</g>
		<g>
			<g>
				<line fill="none" stroke="#003468" stroke-miterlimit="1" x1="406.515" y1="188.667" x2="406.515" y2="205.234"/>
				<g>
					<polygon fill="#003468" points="405.062,204.244 406.515,209.664 407.967,204.244 					"/>
				</g>
			</g>
		</g>
		<g>
			<g>
				<line fill="none" stroke="#003468" stroke-miterlimit="1" x1="406.515" y1="154.083" x2="406.515" y2="170.234"/>
				<g>
					<polygon fill="#003468" points="405.062,169.244 406.515,174.664 407.967,169.244 					"/>
				</g>
			</g>
		</g>
		<g>
			<g>
				<line fill="none" stroke="#003468" stroke-miterlimit="1" x1="406.515" y1="108.867" x2="406.515" y2="127.235"/>
				<g>
					<polygon fill="#003468" points="405.062,126.245 406.515,131.665 407.967,126.245 					"/>
				</g>
			</g>
		</g>
		<g>
			<g>
				<line fill="none" stroke="#003468" stroke-miterlimit="1" x1="406.515" y1="72.665" x2="406.515" y2="90.436"/>
				<g>
					<polygon fill="#003468" points="405.062,89.445 406.515,94.865 407.967,89.445 					"/>
				</g>
			</g>
		</g>
		<rect x="339.015" y="94.865" fill="#FFFFFF" stroke="#6799C8" stroke-miterlimit="1" width="135" height="14"/>
		<rect x="339.015" y="50.665" fill="#86B2D8" stroke="#003468" stroke-miterlimit="1" width="135" height="22"/>
		<rect x="339.015" y="131.664" fill="#86B2D8" stroke="#003468" stroke-miterlimit="1" width="135" height="22"/>
		<rect x="339.015" y="245.167" fill="#FFFFFF" stroke="#6799C8" stroke-miterlimit="1" width="135" height="22"/>
		<rect x="339.015" y="209.664" fill="#86B2D8" stroke="#003468" stroke-miterlimit="1" width="135" height="14"/>
		<rect x="339.015" y="174.664" fill="#FFFFFF" stroke="#6799C8" stroke-miterlimit="1" width="135" height="14"/>
		<rect x="339.015" y="321.667" fill="#86B2D8" stroke="#003468" stroke-miterlimit="1" width="135" height="34"/>
		<g>
			<rect x="362.512" y="53.667" fill="none" width="88" height="19"/>
			<text transform="matrix(0.9288 0 0 1 384.0059 59.3926)"><tspan x="0" y="0" font-size="8">K-space Data</tspan><tspan x="-20.012" y="9.6" font-size="8">Spectroscopy acquisition</tspan></text>
		</g>
		<g>
			<rect x="375.163" y="133.667" fill="none" width="62.697" height="20"/>
			<text transform="matrix(0.9288 0 0 1 385.041 139.3926)"><tspan x="0" y="0" font-size="8">Time Signals</tspan><tspan x="-10.225" y="9.6" font-size="8">Time Domain Data</tspan></text>
		</g>
		<g>
			<rect x="358.762" y="213.667" fill="none" width="95.5" height="10"/>
			<text transform="matrix(0.9288 0 0 1 361.291 219.3926)" font-size="8">Frequency Domain Spectra</text>
		</g>
		<g>
			<rect x="369.762" y="247.167" fill="none" width="73.5" height="20"/>
			<text transform="matrix(0.9288 0 0 1 371.8223 252.8926)"><tspan x="0" y="0" font-size="8">Image reconstruction</tspan><tspan x="9.779" y="9.6" font-size="8">Diagnostic data</tspan></text>
		</g>
		<g>
			<rect x="349.262" y="98.667" fill="none" width="114.5" height="10"/>
			<text transform="matrix(0.9288 0 0 1 350.5566 104.3926)" font-size="8">Spatial direction Fourier transform</text>
		</g>
		<g>
			<rect x="343.966" y="178.667" fill="none" width="125.092" height="10"/>
			<text transform="matrix(0.9288 0 0 1 346.0176 184.3926)" font-size="8">Spectrum direction Fourier transform</text>
		</g>
		<g>
			<rect x="363.663" y="325.667" fill="none" width="85.697" height="30"/>
			<text transform="matrix(0.9288 0 0 1 378.4326 331.3926)"><tspan x="0" y="0" font-size="8">Water Reference</tspan><tspan x="-15.123" y="9.6" font-size="8">Represents distribution of</tspan><tspan x="20.453" y="19.2" font-size="8">water</tspan></text>
		</g>
		<g>
			<rect x="9.986" y="298.155" fill="none" width="75" height="10"/>
			<text transform="matrix(0.9288 0 0 1 11.1421 303.8809)" font-size="8">Spectroscopic images</text>
		</g>
		<g>
			<rect x="182.215" y="328.39" fill="none" width="138.598" height="20"/>
			<text transform="matrix(0.9288 0 0 1 191.6294 334.1143)"><tspan x="0" y="0" font-size="8">Water Referenced Phase Correction</tspan><tspan x="30.34" y="9.6" font-size="8">(0018,9199) = YES</tspan></text>
		</g>
		<rect x="11.015" y="308.161" fill="none" stroke="#003468" stroke-miterlimit="1" width="481" height="63.355"/>
	</g>
</g>
</svg>
