<?xml version="1.0" encoding="utf-8"?>

<!DOCTYPE svg PUBLIC "-//W3C//DTD SVG 1.1//EN" "http://www.w3.org/Graphics/SVG/1.1/DTD/svg11.dtd">
<svg version="1.1" id="Layer_1" xmlns="http://www.w3.org/2000/svg" xmlns:xlink="http://www.w3.org/1999/xlink" x="0px" y="0px"
	 width="502px" height="667px" viewBox="0 0 502 667" enable-background="new 0 0 502 667" xml:space="preserve">

<defs>
	<style type="text/css">
	text {
	  font-family: Helvetica, Verdana, ArialUnicodeMS, san-serif
	}
	</style>
</defs>

<g>
   <desc>
	PS 3.3 Part 3: Information Object Definitions
   </desc>
</g>

<g>
	<rect x="1" y="1" fill="#F5EED6" width="500" height="665"/>
	<g>
		
			<rect x="81.137" y="192.423" fill="none" stroke="#010101" stroke-width="0.75" stroke-linecap="round" stroke-linejoin="round" stroke-miterlimit="1" width="169.483" height="42.05"/>
		
			<rect x="35.608" y="40.34" fill="#86B2D8" stroke="#010101" stroke-width="0.75" stroke-linecap="round" stroke-linejoin="round" stroke-miterlimit="1" width="215.012" height="97.158"/>
		
			<rect x="35.608" y="26.658" fill="#86B2D8" stroke="#010101" stroke-width="0.75" stroke-linecap="round" stroke-linejoin="round" stroke-miterlimit="1" width="215.012" height="13.745"/>
		
			<rect x="50.816" y="54.085" fill="#B2CEE7" stroke="#010101" stroke-width="0.75" stroke-linecap="round" stroke-linejoin="round" stroke-miterlimit="1" width="199.804" height="83.413"/>
		
			<rect x="66.017" y="67.635" fill="#FFFFFF" stroke="#010101" stroke-width="0.75" stroke-linecap="round" stroke-linejoin="round" stroke-miterlimit="1" width="184.608" height="28.099"/>
		
			<line fill="#FFFFFF" stroke="#010101" stroke-width="0.75" stroke-linecap="round" stroke-linejoin="round" stroke-miterlimit="1" x1="66.017" y1="81.586" x2="250.625" y2="81.586"/>
		<rect x="73.394" y="71.972" fill="none" width="173.212" height="7.714"/>
		<text transform="matrix(0.9288 0 0 1 73.394 77.6982)" font-size="8">1&gt; Referenced SOP Class UID &lt;CDA R2&gt;</text>
		<rect x="73.393" y="85.479" fill="none" width="173.213" height="7.715"/>
		<text transform="matrix(0.9288 0 0 1 73.3936 91.2061)" font-size="8">1&gt; Referenced SOP Instance UID 1.2.3.4.1</text>
		<rect x="39.541" y="43.615" fill="none" width="159.87" height="7.715"/>
		<text transform="matrix(0.9288 0 0 1 39.5435 49.3193)" font-size="8">X Document Sequence</text>
		<rect x="35.608" y="17.248" fill="none" width="185.985" height="7.715"/>
		<text transform="matrix(0.9288 0 0 1 35.6108 22.9482)" font-size="8">DICOM SOP Instance 1</text>
		<rect x="39.541" y="30.431" fill="none" width="159.87" height="7.715"/>
		<text transform="matrix(0.9288 0 0 1 39.5435 36.1353)" font-size="8">...</text>
		
			<rect x="35.608" y="137.62" fill="#86B2D8" stroke="#010101" stroke-width="0.75" stroke-linecap="round" stroke-linejoin="round" stroke-miterlimit="1" width="215.012" height="13.745"/>
		<rect x="39.541" y="141.394" fill="none" width="159.87" height="7.715"/>
		<text transform="matrix(0.9288 0 0 1 39.5435 147.0977)" font-size="8">...</text>
		
			<rect x="35.608" y="274.572" fill="#86B2D8" stroke="#010101" stroke-width="0.75" stroke-linecap="round" stroke-linejoin="round" stroke-miterlimit="1" width="215.012" height="13.745"/>
		<rect x="39.541" y="278.705" fill="none" width="159.87" height="7.715"/>
		<text transform="matrix(0.9288 0 0 1 39.5435 284.4092)" font-size="8">...</text>
		
			<rect x="50.807" y="95.733" fill="#B2CEE7" stroke="#010101" stroke-width="0.75" stroke-linecap="round" stroke-linejoin="round" stroke-miterlimit="1" width="199.818" height="41.764"/>
		
			<rect x="66.017" y="109.398" fill="#FFFFFF" stroke="#010101" stroke-width="0.75" stroke-linecap="round" stroke-linejoin="round" stroke-miterlimit="1" width="184.608" height="28.099"/>
		
			<line fill="#FFFFFF" stroke="#010101" stroke-width="0.75" stroke-linecap="round" stroke-linejoin="round" stroke-miterlimit="1" x1="66.017" y1="123.349" x2="250.625" y2="123.349"/>
		<rect x="73.394" y="113.068" fill="none" width="173.212" height="7.715"/>
		<text transform="matrix(0.9288 0 0 1 73.394 118.7944)" font-size="8">2&gt; Referenced SOP Class UID &lt;CDA R2&gt;</text>
		<rect x="73.393" y="126.576" fill="none" width="173.213" height="7.715"/>
		<text transform="matrix(0.9288 0 0 1 73.3936 132.3022)" font-size="8">2&gt; Referenced SOP Instance UID 1.2.55.33.9.5</text>
		
			<rect x="35.608" y="151.45" fill="#86B2D8" stroke="#010101" stroke-width="0.75" stroke-linecap="round" stroke-linejoin="round" stroke-miterlimit="1" width="215.012" height="123.122"/>
		
			<rect x="50.816" y="165.192" fill="#B2CEE7" stroke="#010101" stroke-width="0.75" stroke-linecap="round" stroke-linejoin="round" stroke-miterlimit="1" width="199.804" height="54.39"/>
		<rect x="39.541" y="154.725" fill="none" width="191.953" height="7.715"/>
		<text transform="matrix(0.9288 0 0 1 39.5425 160.4302)" font-size="8">HL7 Structured Document Reference Sequence</text>
		
			<rect x="50.768" y="219.646" fill="#B2CEE7" stroke="#010101" stroke-width="0.75" stroke-linecap="round" stroke-linejoin="round" stroke-miterlimit="1" width="199.853" height="54.926"/>
		<rect x="66.017" y="233.683" fill="#FFFFFF" stroke="#010101" stroke-width="0.75" width="184.807" height="13.745"/>
		<rect x="66.017" y="247.255" fill="#FFFFFF" stroke="#010101" stroke-width="0.75" width="184.807" height="13.745"/>
		
			<rect x="310.816" y="260.576" fill="#BCBEC0" stroke="#010101" stroke-width="0.75" stroke-linecap="round" stroke-linejoin="round" stroke-miterlimit="1" width="141.611" height="13.745"/>
		
			<rect x="66.017" y="260.827" fill="#BCBEC0" stroke="#010101" stroke-width="0.75" stroke-linecap="round" stroke-linejoin="round" stroke-miterlimit="1" width="184.807" height="13.745"/>
		<rect x="73.393" y="237.353" fill="none" width="158.087" height="7.715"/>
		<text transform="matrix(0.9288 0 0 1 73.395 243.0605)" font-size="8">2&gt; Referenced SOP Class UID &lt;CDA R2&gt;</text>
		<rect x="73.393" y="250.86" fill="none" width="172.785" height="7.715"/>
		<text transform="matrix(0.9288 0 0 1 73.3936 256.7007)" font-size="8.1589">2&gt; Referenced SOP Instance UID 1.2.55.33.9.5</text>
		<rect x="73.393" y="264.458" fill="none" width="173.374" height="7.716"/>
		<text transform="matrix(0.9288 0 0 1 73.3936 270.1846)" font-size="8">2&gt; HL7 Instance Identifier 1.2.55.33.9.5</text>
		<rect x="54.956" y="57.891" fill="none" width="112.381" height="7.715"/>
		<text transform="matrix(0.9288 0 0 1 54.9585 63.5991)" font-size="8">Item 1</text>
		<rect x="54.956" y="99.653" fill="none" width="112.381" height="7.715"/>
		<text transform="matrix(0.9288 0 0 1 54.9585 105.3613)" font-size="8">Item 2</text>
		<rect x="54.956" y="168.999" fill="none" width="112.381" height="7.715"/>
		<text transform="matrix(0.9288 0 0 1 54.9585 174.7056)" font-size="8">Item 1</text>
		<rect x="54.956" y="224.712" fill="none" width="112.381" height="7.715"/>
		<text transform="matrix(0.9288 0 0 1 54.9585 230.4189)" font-size="8">Item 2</text>
		<g>
			<g>
				<path fill="none" stroke="#ED1C24" stroke-width="2" d="M250.823,122.863c10.453,0,19.72,28.733,19.72,69.058
					c0,24.944-6.917,46.967-13.52,60.139"/>
				<g>
					<polygon fill="#ED1C24" points="255.152,248.189 251.521,261.158 261.151,251.743 					"/>
				</g>
			</g>
		</g>
		<g>
			<g>
				<path fill="none" stroke="#ED1C24" stroke-width="2" d="M250.823,80.964c10.453,0,19.72,26.132,19.72,62.804
					c0,22.302-6.686,42.038-13.186,54.08"/>
				<g>
					<polygon fill="#ED1C24" points="255.62,193.904 251.521,206.733 261.486,197.673 					"/>
				</g>
			</g>
		</g>
		<g>
			<g>
				<path fill="none" stroke="#ED1C24" stroke-width="2" d="M250.823,378.579c10.453,0,19.72,17.128,19.72,41.165
					c0,13.505-5.706,25.574-11.701,33.558"/>
				<g>
					<polygon fill="#ED1C24" points="257.746,449.071 251.521,461.015 262.885,453.785 					"/>
				</g>
			</g>
		</g>
		<g>
			<circle fill="#FFFFFF" stroke="#000000" cx="35.046" cy="95.691" r="8"/>
			<rect x="31.831" y="90.919" fill="none" width="6.43" height="10.261"/>
			<text transform="matrix(0.9288 0 0 1 31.832 99.4937)" font-size="12">1</text>
		</g>
		<g>
			<circle fill="#FFFFFF" stroke="#000000" cx="260.325" cy="140.186" r="8"/>
			<rect x="257.11" y="135.414" fill="none" width="6.43" height="10.261"/>
			<text transform="matrix(0.9288 0 0 1 257.1094 143.9858)" font-size="12">2</text>
		</g>
		<g>
			<circle fill="#FFFFFF" stroke="#000000" cx="236.6" cy="204.694" r="8"/>
			<rect x="233.745" y="199.923" fill="none" width="6.43" height="10.262"/>
			<text transform="matrix(0.9288 0 0 1 233.7446 205.627)" font-size="8">2</text>
		</g>
		<g>
			<circle fill="#FFFFFF" stroke="#000000" cx="265.106" cy="103.507" r="8"/>
			<rect x="262.252" y="98.735" fill="none" width="6.43" height="10.262"/>
			<text transform="matrix(0.9288 0 0 1 262.249 107.3027)" font-size="12">2</text>
		</g>
		<g>
			<circle fill="#FFFFFF" stroke="#000000" cx="152.28" cy="260.375" r="8"/>
			<rect x="149.425" y="255.963" fill="none" width="6.43" height="10.261"/>
			<text transform="matrix(0.9288 0 0 1 149.4204 264.5308)" font-size="12">3</text>
		</g>
		<rect x="66.017" y="178.757" fill="#FFFFFF" stroke="#010101" stroke-width="0.75" width="184.604" height="13.745"/>
		<rect x="66.017" y="192.329" fill="#FFFFFF" stroke="#010101" stroke-width="0.75" width="184.604" height="13.745"/>
		
			<rect x="66.017" y="205.901" fill="#DCDDDE" stroke="#010101" stroke-width="0.75" stroke-linecap="round" stroke-linejoin="round" stroke-miterlimit="1" width="184.604" height="13.745"/>
		<rect x="73.393" y="182.72" fill="none" width="158.087" height="7.715"/>
		<text transform="matrix(0.9288 0 0 1 73.395 188.4268)" font-size="8">1&gt; Referenced SOP Class UID &lt;CDA R2&gt;</text>
		<rect x="73.393" y="196.228" fill="none" width="158.087" height="7.715"/>
		<text transform="matrix(0.9288 0 0 1 73.395 201.9336)" font-size="8">1&gt; Referenced SOP Instance UID 1.2.3.4.1</text>
		<rect x="73.393" y="209.826" fill="none" width="158.087" height="7.715"/>
		<text transform="matrix(0.9288 0 0 1 73.395 215.5322)" font-size="8">1&gt; HL7 Instance Identifier 1.2.55.33.11.2.1^23</text>
		
			<rect x="310.815" y="274.148" fill="#BCBEC0" stroke="#010101" stroke-width="0.75" stroke-linecap="round" stroke-linejoin="round" stroke-miterlimit="1" width="141.587" height="13.745"/>
		<rect x="310.942" y="250.673" fill="none" width="129.269" height="7.715"/>
		<text transform="matrix(0.9288 0 0 1 310.9424 256.3999)" font-size="8">CDA Document 2</text>
		<rect x="318.191" y="264.181" fill="none" width="129.566" height="7.715"/>
		<text transform="matrix(0.9288 0 0 1 318.1914 269.9077)" font-size="8">Instance Identifier 1.2.55.33.9.5</text>
		<rect x="318.191" y="277.779" fill="none" width="130.155" height="7.716"/>
		<text transform="matrix(0.9288 0 0 1 318.1914 283.5054)" font-size="8">...</text>
		
			<rect x="310.815" y="205.649" fill="#DCDDDE" stroke="#010101" stroke-width="0.75" stroke-linecap="round" stroke-linejoin="round" stroke-miterlimit="1" width="141.384" height="13.745"/>
		
			<rect x="310.815" y="219.222" fill="#DCDDDE" stroke="#010101" stroke-width="0.75" stroke-linecap="round" stroke-linejoin="round" stroke-miterlimit="1" width="141.384" height="13.745"/>
		<rect x="310.942" y="196.041" fill="none" width="129.269" height="7.715"/>
		<text transform="matrix(0.9288 0 0 1 310.9424 201.7671)" font-size="8">CDA Document 1</text>
		<rect x="318.191" y="209.548" fill="none" width="129.269" height="7.715"/>
		<text transform="matrix(0.9288 0 0 1 318.1914 215.2749)" font-size="8">Instance Identifier 1.2.55.33.11.2.1^23</text>
		<rect x="318.191" y="223.147" fill="none" width="129.269" height="7.715"/>
		<text transform="matrix(0.9288 0 0 1 318.1914 228.8735)" font-size="8">...</text>
		<line fill="none" stroke="#ED1C24" stroke-width="2" x1="250.625" y1="67.801" x2="250.625" y2="95.733"/>
		<line fill="none" stroke="#ED1C24" stroke-width="2" x1="250.62" y1="192.443" x2="250.62" y2="220.544"/>
		<line fill="none" stroke="#ED1C24" stroke-width="2" x1="250.625" y1="109.207" x2="250.625" y2="137.498"/>
		<line fill="none" stroke="#ED1C24" stroke-width="2" x1="250.62" y1="247.432" x2="250.62" y2="275.53"/>
		<g>
			<circle fill="#FFFFFF" stroke="#000000" cx="139.421" cy="206.074" r="8"/>
			<rect x="136.566" y="201.662" fill="none" width="6.43" height="10.262"/>
			<text transform="matrix(0.9288 0 0 1 136.5605 210.2266)" font-size="12">4</text>
		</g>
		<g>
			<circle fill="#FFFFFF" stroke="#000000" cx="154.901" cy="206.074" r="8"/>
			<rect x="152.046" y="201.662" fill="none" width="6.43" height="10.262"/>
			<text transform="matrix(0.9288 0 0 1 152.0405 210.2266)" font-size="12">5</text>
		</g>
		
			<rect x="35.608" y="337.939" fill="#86B2D8" stroke="#010101" stroke-width="0.75" stroke-linecap="round" stroke-linejoin="round" stroke-miterlimit="1" width="215.012" height="55.393"/>
		
			<rect x="35.608" y="324.258" fill="#86B2D8" stroke="#010101" stroke-width="0.75" stroke-linecap="round" stroke-linejoin="round" stroke-miterlimit="1" width="215.012" height="13.745"/>
		
			<rect x="50.816" y="351.685" fill="#B2CEE7" stroke="#010101" stroke-width="0.75" stroke-linecap="round" stroke-linejoin="round" stroke-miterlimit="1" width="199.804" height="41.647"/>
		
			<rect x="66.017" y="365.234" fill="#FFFFFF" stroke="#010101" stroke-width="0.75" stroke-linecap="round" stroke-linejoin="round" stroke-miterlimit="1" width="184.608" height="28.098"/>
		
			<line fill="#FFFFFF" stroke="#010101" stroke-width="0.75" stroke-linecap="round" stroke-linejoin="round" stroke-miterlimit="1" x1="66.017" y1="379.186" x2="250.625" y2="379.186"/>
		<rect x="73.394" y="369.571" fill="none" width="173.212" height="7.714"/>
		<text transform="matrix(0.9288 0 0 1 73.394 375.2988)" font-size="8">1&gt; Referenced SOP Class UID &lt;CDA R2&gt;</text>
		<rect x="73.393" y="383.079" fill="none" width="173.213" height="7.715"/>
		<text transform="matrix(0.9288 0 0 1 73.3936 388.8066)" font-size="8">1&gt; Referenced SOP Instance UID 1.2.55.88.1</text>
		<rect x="39.541" y="341.215" fill="none" width="159.87" height="7.715"/>
		<text transform="matrix(0.9288 0 0 1 39.5435 346.9189)" font-size="8">X Document Sequence</text>
		<rect x="35.608" y="314.848" fill="none" width="185.985" height="7.715"/>
		<text transform="matrix(0.9288 0 0 1 35.6108 320.5483)" font-size="8">DICOM SOP Instance 2</text>
		<rect x="39.541" y="328.031" fill="none" width="159.87" height="7.715"/>
		<text transform="matrix(0.9288 0 0 1 39.5435 333.7354)" font-size="8">...</text>
		
			<rect x="35.608" y="393.454" fill="#86B2D8" stroke="#010101" stroke-width="0.75" stroke-linecap="round" stroke-linejoin="round" stroke-miterlimit="1" width="215.012" height="13.745"/>
		<rect x="39.541" y="397.228" fill="none" width="159.87" height="7.716"/>
		<text transform="matrix(0.9288 0 0 1 39.5435 402.9375)" font-size="8">...</text>
		
			<rect x="35.608" y="475.331" fill="#86B2D8" stroke="#010101" stroke-width="0.75" stroke-linecap="round" stroke-linejoin="round" stroke-miterlimit="1" width="215.012" height="13.744"/>
		<rect x="39.541" y="479.464" fill="none" width="159.87" height="7.715"/>
		<text transform="matrix(0.9288 0 0 1 39.5435 485.1699)" font-size="8">...</text>
		
			<rect x="35.608" y="407.283" fill="#86B2D8" stroke="#010101" stroke-width="0.75" stroke-linecap="round" stroke-linejoin="round" stroke-miterlimit="1" width="215.012" height="68.198"/>
		
			<rect x="50.816" y="421.026" fill="#B2CEE7" stroke="#010101" stroke-width="0.75" stroke-linecap="round" stroke-linejoin="round" stroke-miterlimit="1" width="199.804" height="54.39"/>
		<rect x="39.541" y="410.559" fill="none" width="191.953" height="7.715"/>
		<text transform="matrix(0.9288 0 0 1 39.5425 416.2705)" font-size="8">HL7 Structured Document Reference Sequence</text>
		<rect x="54.956" y="355.49" fill="none" width="112.381" height="7.715"/>
		<text transform="matrix(0.9288 0 0 1 54.9585 361.1992)" font-size="8">Item 1</text>
		<rect x="54.956" y="424.833" fill="none" width="112.381" height="7.715"/>
		<text transform="matrix(0.9288 0 0 1 54.9585 430.5449)" font-size="8">Item 1</text>
		<g>
			<circle fill="#FFFFFF" stroke="#000000" cx="35.046" cy="378.896" r="8"/>
			<rect x="31.831" y="374.125" fill="none" width="6.43" height="10.26"/>
			<text transform="matrix(0.9288 0 0 1 31.832 382.6934)" font-size="12">1</text>
		</g>
		<g>
			<circle fill="#FFFFFF" stroke="#000000" cx="236.6" cy="460.528" r="8"/>
			<rect x="233.745" y="455.758" fill="none" width="6.43" height="10.262"/>
			<text transform="matrix(0.9288 0 0 1 233.7446 461.4678)" font-size="8">2</text>
		</g>
		<g>
			<circle fill="#FFFFFF" stroke="#000000" cx="265.106" cy="401.105" r="8"/>
			<rect x="262.252" y="396.334" fill="none" width="6.43" height="10.262"/>
			<text transform="matrix(0.9288 0 0 1 262.249 404.9033)" font-size="12">2</text>
		</g>
		<rect x="66.017" y="434.59" fill="#FFFFFF" stroke="#010101" stroke-width="0.75" width="184.604" height="13.746"/>
		<rect x="66.017" y="448.162" fill="#FFFFFF" stroke="#010101" stroke-width="0.75" width="184.604" height="13.746"/>
		
			<rect x="66.017" y="461.734" fill="#DCDDDE" stroke="#010101" stroke-width="0.75" stroke-linecap="round" stroke-linejoin="round" stroke-miterlimit="1" width="184.604" height="13.746"/>
		<rect x="73.393" y="438.554" fill="none" width="158.087" height="7.715"/>
		<text transform="matrix(0.9288 0 0 1 73.395 444.2666)" font-size="8">1&gt; Referenced SOP Class UID &lt;CDA R2&gt;</text>
		<rect x="73.393" y="452.062" fill="none" width="158.087" height="7.715"/>
		<text transform="matrix(0.9288 0 0 1 73.395 457.7734)" font-size="8">1&gt; Referenced SOP Instance UID 1.2.55.88.1</text>
		<rect x="73.393" y="465.66" fill="none" width="158.087" height="7.715"/>
		<text transform="matrix(0.9288 0 0 1 73.395 471.3721)" font-size="8">1&gt; HL7 Instance Identifier 1.2.55.33.11.2.1^23</text>
		<line fill="none" stroke="#ED1C24" stroke-width="2" x1="250.625" y1="365.4" x2="250.625" y2="393.332"/>
		<line fill="none" stroke="#ED1C24" stroke-width="2" x1="250.62" y1="448.277" x2="250.62" y2="476.378"/>
		<g>
			<circle fill="#FFFFFF" stroke="#000000" cx="139.421" cy="461.908" r="8"/>
			<rect x="136.566" y="457.496" fill="none" width="6.43" height="10.262"/>
			<text transform="matrix(0.9288 0 0 1 136.5605 466.0674)" font-size="12">4</text>
		</g>
		<g>
			<circle fill="#FFFFFF" stroke="#000000" cx="154.901" cy="461.908" r="8"/>
			<rect x="152.046" y="457.496" fill="none" width="6.43" height="10.262"/>
			<text transform="matrix(0.9288 0 0 1 152.0405 466.0674)" font-size="12">5</text>
		</g>
		<g>
			<g>
				<line fill="none" stroke="#0DB14B" stroke-width="2" x1="250.823" y1="210.852" x2="303.854" y2="210.852"/>
				<g>
					<polygon fill="#0DB14B" points="302.27,213.176 310.942,210.852 302.27,208.527 					"/>
				</g>
			</g>
		</g>
		<g>
			<g>
				<polyline fill="none" stroke="#0DB14B" stroke-width="2" points="250.823,468.958 275.269,468.958 294.47,216.97 
					303.854,216.97 				"/>
				<g>
					<polygon fill="#0DB14B" points="302.27,219.294 310.942,216.97 302.27,214.646 					"/>
				</g>
			</g>
		</g>
		<g>
			<g>
				<line fill="none" stroke="#00AEEF" stroke-width="2" x1="250.823" y1="266.223" x2="303.854" y2="266.223"/>
				<g>
					<polygon fill="#00AEEF" points="302.27,268.547 310.942,266.223 302.27,263.898 					"/>
				</g>
			</g>
		</g>
		<g>
			<g>
				
					<rect x="22.399" y="520.957" fill="#FFFFFF" stroke="#000000" stroke-linecap="round" stroke-linejoin="round" stroke-miterlimit="1" width="457.201" height="127.799"/>
				<rect x="25.601" y="524.158" fill="none" width="445.199" height="125.594"/>
				<text transform="matrix(0.9288 0 0 1 25.6006 530.5801)"><tspan x="0" y="0" font-size="9">Notes:</tspan><tspan x="25.839" y="15.8" font-size="9">DICOM SOP Instances internally reference HL7-SD by Referenced SOP Class/Instance UIDs.</tspan><tspan x="25.839" y="31.6" font-size="9">The Referenced SOP Class/Instance UIDs are mapped to an HL7 Instance Identifier through the HL7 Structured </tspan><tspan x="25.839" y="42.4" font-size="9">Document Reference Sequence</tspan><tspan x="25.839" y="58.2" font-size="9">The internal Referenced SOP Instance UID may or may not be identical to the HL7 Instance Identifier</tspan><tspan x="25.839" y="74" font-size="9">The internal Referenced SOP Instance UID must be locally generated if the HL7 Instance Identifier includes an </tspan><tspan x="25.839" y="84.8" font-size="9">extension (“^23” in CDA Document 1) </tspan><tspan x="25.839" y="100.6" font-size="9">The internal Referenced SOP Instance UID may be different in different DICOM SOP Instances, even though they </tspan><tspan x="25.839" y="111.4" font-size="9">map to the same HL7 Instance Identifier</tspan></text>
			</g>
			<g>
				<circle fill="#FFFFFF" stroke="#000000" cx="35.941" cy="543.262" r="8"/>
				<rect x="32.726" y="538.49" fill="none" width="6.43" height="10.26"/>
				<text transform="matrix(0.9288 0 0 1 32.7236 547.0566)" font-size="12">1</text>
			</g>
			<g>
				<circle fill="#FFFFFF" stroke="#000000" cx="35.941" cy="566.306" r="8"/>
				<rect x="33.086" y="561.534" fill="none" width="6.43" height="10.261"/>
				<text transform="matrix(0.9288 0 0 1 33.0781 570.0967)" font-size="12">2</text>
			</g>
			<g>
				<circle fill="#FFFFFF" stroke="#000000" cx="35.941" cy="586.107" r="8"/>
				<rect x="33.085" y="581.695" fill="none" width="6.43" height="10.262"/>
				<text transform="matrix(0.9288 0 0 1 33.0752 590.2568)" font-size="12">3</text>
			</g>
			<g>
				<circle fill="#FFFFFF" stroke="#000000" cx="35.941" cy="629.665" r="8"/>
				<rect x="33.086" y="625.253" fill="none" width="6.43" height="10.262"/>
				<text transform="matrix(0.9288 0 0 1 33.0732 633.8174)" font-size="12">5</text>
			</g>
			<g>
				<circle fill="#FFFFFF" stroke="#000000" cx="35.941" cy="603.391" r="8"/>
				<rect x="33.086" y="598.979" fill="none" width="6.43" height="10.262"/>
				<text transform="matrix(0.9288 0 0 1 33.0732 607.5371)" font-size="12">4</text>
			</g>
		</g>
	</g>
</g>
</svg>
