<?xml version="1.0" encoding="utf-8"?>

<!DOCTYPE svg PUBLIC "-//W3C//DTD SVG 1.1//EN" "http://www.w3.org/Graphics/SVG/1.1/DTD/svg11.dtd">
<svg version="1.1" id="Layer_1" xmlns="http://www.w3.org/2000/svg" xmlns:xlink="http://www.w3.org/1999/xlink" x="0px" y="0px"
	 width="502px" height="272px" viewBox="0 0 502 272" enable-background="new 0 0 502 272" xml:space="preserve">

<defs>
	<style type="text/css">
	text {
	  font-family: Helvetica, Verdana, ArialUnicodeMS, san-serif
	}
	</style>
</defs>

<g>
   <desc>
	PS 3.3 Part 3: Information Object Definitions
   </desc>
</g>

<g>
	<rect x="1" y="1" fill="#F5EED6" width="500" height="270"/>
	<g>
		
			<rect x="223.656" y="49.309" fill="#86B2D8" stroke="#010101" stroke-width="0.75" stroke-linecap="round" stroke-linejoin="round" stroke-miterlimit="1" width="252" height="126"/>
		
			<path fill="#86B2D8" stroke="#010101" stroke-width="0.75" stroke-linecap="round" stroke-linejoin="round" stroke-miterlimit="1" d="
			M475.656,91.329"/>
		
			<path fill="#86B2D8" stroke="#010101" stroke-width="0.75" stroke-linecap="round" stroke-linejoin="round" stroke-miterlimit="1" d="
			M223.656,91.329"/>
		<g>
			<text transform="matrix(0.8815 0 0 1 226.0649 24.6899)"><tspan x="0" y="0" font-size="10">Image Matrix</tspan><tspan x="0" y="11" font-size="10">• Columns: 1024</tspan><tspan x="0" y="22" font-size="10">• Rows: 512</tspan></text>
		</g>
		<g>
			<text transform="matrix(0.8815 0 0 1 26.3447 61.4272)"><tspan x="0" y="0" font-size="10">Upper Horizontal Edge (0018,1606)</tspan><tspan x="55.029" y="10.008" font-size="10">Value: 256</tspan></text>
		</g>
		<g>
			<text transform="matrix(0.8815 0 0 1 26.3447 93.3628)"><tspan x="0" y="0" font-size="10">Lower Horizontal Edge (0018,1608)</tspan><tspan x="55.029" y="10.008" font-size="10">Value: 768</tspan></text>
		</g>
		
			<line fill="none" stroke="#010101" stroke-miterlimit="1" stroke-dasharray="12,6" x1="198.291" y1="80.827" x2="286.005" y2="80.827"/>
		
			<line fill="none" stroke="#010101" stroke-miterlimit="1" stroke-dasharray="12,6" x1="198.291" y1="143.809" x2="286.005" y2="143.809"/>
		<line fill="none" stroke="#010101" stroke-miterlimit="1" x1="171.332" y1="64.67" x2="201.535" y2="64.67"/>
		<line fill="none" stroke="#010101" stroke-miterlimit="1" x1="171.332" y1="96.592" x2="211.616" y2="96.592"/>
		<rect x="286.657" y="80.809" fill="#B2CEE7" stroke="#000000" stroke-miterlimit="1" width="125.998" height="63"/>
		<g>
			<text transform="matrix(0.8815 0 0 1 292.417 92.0405)"><tspan x="0" y="0" font-size="10">Display Area</tspan><tspan x="0" y="11" font-size="10">• Columns: 512</tspan><tspan x="0" y="22" font-size="10">• Rows: 256</tspan></text>
		</g>
		<line fill="none" stroke="#010101" stroke-miterlimit="1" x1="254.005" y1="209.309" x2="254.005" y2="193.277"/>
		<line fill="none" stroke="#010101" stroke-miterlimit="1" x1="358.845" y1="231.058" x2="358.845" y2="186.011"/>
		
			<line fill="none" stroke="#010101" stroke-miterlimit="1" stroke-dasharray="12,6" x1="223.656" y1="195.097" x2="223.656" y2="175.309"/>
		
			<line fill="none" stroke="#010101" stroke-miterlimit="1" stroke-dasharray="12,6" x1="286.656" y1="195.097" x2="286.656" y2="144.401"/>
		
			<line fill="none" stroke="#010101" stroke-miterlimit="1" stroke-dasharray="12,6" x1="412.656" y1="195.097" x2="412.656" y2="144.401"/>
		<g>
			<line fill="#4F8ABE" x1="224.251" y1="185.822" x2="412.655" y2="185.822"/>
			<g>
				
					<line fill="none" stroke="#005695" stroke-width="2" stroke-miterlimit="1" x1="224.251" y1="185.822" x2="405.567" y2="185.822"/>
				<g>
					<polygon fill="#005695" points="403.982,188.146 412.655,185.822 403.982,183.498 					"/>
				</g>
			</g>
		</g>
		<g>
			<line fill="#4F8ABE" x1="224.251" y1="193.277" x2="286.656" y2="193.277"/>
			<g>
				
					<line fill="none" stroke="#005695" stroke-width="2" stroke-miterlimit="1" x1="224.251" y1="193.277" x2="279.568" y2="193.277"/>
				<g>
					<polygon fill="#005695" points="277.983,195.602 286.656,193.277 277.983,190.953 					"/>
				</g>
			</g>
		</g>
		<g>
			<line fill="#4F8ABE" x1="201.535" y1="49.088" x2="201.535" y2="80.809"/>
			<g>
				
					<line fill="none" stroke="#005695" stroke-width="2" stroke-miterlimit="1" x1="201.535" y1="49.088" x2="201.535" y2="73.721"/>
				<g>
					<polygon fill="#005695" points="199.211,72.136 201.535,80.809 203.859,72.136 					"/>
				</g>
			</g>
		</g>
		<g>
			<line fill="#4F8ABE" x1="211.388" y1="49.088" x2="211.388" y2="143.809"/>
			<g>
				
					<line fill="none" stroke="#005695" stroke-width="2" stroke-miterlimit="1" x1="211.388" y1="49.088" x2="211.388" y2="136.721"/>
				<g>
					<polygon fill="#005695" points="209.063,135.136 211.388,143.809 213.712,135.136 					"/>
				</g>
			</g>
		</g>
		
			<line fill="none" stroke="#010101" stroke-miterlimit="1" stroke-dasharray="12,6" x1="198.29" y1="49.472" x2="223.656" y2="49.472"/>
		<g>
			<text transform="matrix(0.8815 0 0 1 194.2173 221.3711)"><tspan x="0" y="0" font-size="10">Left Vertical Edge (0018,1602)</tspan><tspan x="43.913" y="10.008" font-size="10">Value: 256</tspan></text>
		</g>
		<g>
			<text transform="matrix(0.8815 0 0 1 296.1191 242.8711)"><tspan x="0" y="0" font-size="10">Right Vertical Edge (0018,1604)</tspan><tspan x="47.246" y="10.008" font-size="10">Value: 768</tspan></text>
		</g>
	</g>
</g>
</svg>
