<?xml version="1.0" encoding="utf-8"?>

<!DOCTYPE svg PUBLIC "-//W3C//DTD SVG 1.1//EN" "http://www.w3.org/Graphics/SVG/1.1/DTD/svg11.dtd">
<svg version="1.1" id="Layer_1" xmlns="http://www.w3.org/2000/svg" xmlns:xlink="http://www.w3.org/1999/xlink" x="0px" y="0px"
	 width="502px" height="397px" viewBox="0 0 502 397" enable-background="new 0 0 502 397" xml:space="preserve">

<defs>
	<style type="text/css">
	text {
	  font-family: Helvetica, Verdana, ArialUnicodeMS, san-serif
	}
	</style>
</defs>

<g>
   <desc>
	PS 3.3 Part 3: Information Object Definitions
   </desc>
</g>

<g>
	<rect x="1" y="1" fill="#F5EED6" width="500" height="395"/>
	<g>
		<g>
			<line fill="#4F8ABE" x1="222.251" y1="309.682" x2="410.496" y2="309.682"/>
			<g>
				
					<line fill="none" stroke="#005695" stroke-width="2" stroke-miterlimit="1" x1="222.251" y1="309.682" x2="403.408" y2="309.682"/>
				<g>
					<polygon fill="#005695" points="401.823,312.006 410.496,309.682 401.823,307.357 					"/>
				</g>
			</g>
		</g>
		<g>
			<line fill="#4F8ABE" x1="222.251" y1="317.137" x2="283.845" y2="317.137"/>
			<g>
				
					<line fill="none" stroke="#005695" stroke-width="2" stroke-miterlimit="1" x1="222.251" y1="317.137" x2="276.757" y2="317.137"/>
				<g>
					<polygon fill="#005695" points="275.172,319.461 283.845,317.137 275.172,314.812 					"/>
				</g>
			</g>
		</g>
		
			<rect x="221.496" y="50.014" fill="#86B2D8" stroke="#010101" stroke-width="0.75" stroke-linecap="round" stroke-linejoin="round" stroke-miterlimit="1" width="252" height="252"/>
		
			<path fill="#86B2D8" stroke="#010101" stroke-width="0.75" stroke-linecap="round" stroke-linejoin="round" stroke-miterlimit="1" d="
			M473.496,134.056"/>
		
			<path fill="#86B2D8" stroke="#010101" stroke-width="0.75" stroke-linecap="round" stroke-linejoin="round" stroke-miterlimit="1" d="
			M221.496,134.056"/>
		<g>
			<text transform="matrix(0.8815 0 0 1 224.7358 25.7461)"><tspan x="0" y="0" font-size="10">Image Matrix</tspan><tspan x="0" y="10.008" font-size="10">• Columns: 1024</tspan><tspan x="0" y="20.017" font-size="10">• Rows: 1024</tspan></text>
		</g>
		<g>
			<text transform="matrix(0.8815 0 0 1 28.5044 85.686)"><tspan x="0" y="0" font-size="10">Upper Horizontal Edge (0018,1606)</tspan><tspan x="55.029" y="10.008" font-size="10">Value: 256</tspan></text>
		</g>
		<g>
			<text transform="matrix(0.8815 0 0 1 28.5044 148.5854)"><tspan x="0" y="0" font-size="10">Lower Horizontal Edge (0018,1608)</tspan><tspan x="55.029" y="10.008" font-size="10">Value: 768</tspan></text>
		</g>
		<g>
			<text transform="matrix(0.8815 0 0 1 192.0571 345.3145)"><tspan x="0" y="0" font-size="10">Left Vertical Edge (0018,1602)</tspan><tspan x="43.913" y="10.008" font-size="10">Value: 256</tspan></text>
		</g>
		<g>
			<text transform="matrix(0.8815 0 0 1 293.959 366.8145)"><tspan x="0" y="0" font-size="10">Right Vertical Edge (0018,1604)</tspan><tspan x="47.246" y="10.008" font-size="10">Value: 768</tspan></text>
		</g>
		
			<line fill="none" stroke="#010101" stroke-miterlimit="1" stroke-dasharray="12,6" x1="196.13" y1="50.014" x2="221.496" y2="50.014"/>
		
			<line fill="none" stroke="#010101" stroke-miterlimit="1" stroke-dasharray="12,6" x1="196.131" y1="113.014" x2="283.845" y2="113.014"/>
		
			<line fill="none" stroke="#010101" stroke-miterlimit="1" stroke-dasharray="12,6" x1="196.131" y1="239.014" x2="283.845" y2="239.014"/>
		<line fill="none" stroke="#010101" stroke-miterlimit="1" x1="171.332" y1="82.435" x2="201.535" y2="82.435"/>
		<line fill="none" stroke="#010101" stroke-miterlimit="1" x1="171.332" y1="145.335" x2="209.456" y2="145.335"/>
		<rect x="284.497" y="113.014" fill="#B2CEE7" stroke="#000000" stroke-miterlimit="1" width="125.998" height="126"/>
		<g>
			<text transform="matrix(0.8815 0 0 1 290.2568 124.7466)"><tspan x="0" y="0" font-size="10">Display Area</tspan><tspan x="0" y="10.008" font-size="10">• Columns: 512</tspan><tspan x="0" y="20.017" font-size="10">• Rows: 512</tspan></text>
		</g>
		<line fill="none" stroke="#010101" stroke-miterlimit="1" x1="251.845" y1="334.158" x2="251.845" y2="318.125"/>
		<line fill="none" stroke="#010101" stroke-miterlimit="1" x1="356.685" y1="355.906" x2="356.685" y2="310.857"/>
		
			<line fill="none" stroke="#010101" stroke-miterlimit="1" stroke-dasharray="12,6" x1="221.496" y1="323.545" x2="221.496" y2="303.756"/>
		
			<line fill="none" stroke="#010101" stroke-miterlimit="1" stroke-dasharray="12,6" x1="284.496" y1="323.545" x2="284.496" y2="239"/>
		
			<line fill="none" stroke="#010101" stroke-miterlimit="1" stroke-dasharray="12,6" x1="410.496" y1="323.545" x2="410.496" y2="239"/>
		<g>
			<line fill="#4F8ABE" x1="202.5" y1="50.722" x2="202.5" y2="113.014"/>
			<g>
				<line fill="none" stroke="#005695" stroke-width="2" stroke-miterlimit="1" x1="202.5" y1="50.722" x2="202.5" y2="105.927"/>
				<g>
					<polygon fill="#005695" points="200.176,104.341 202.5,113.014 204.824,104.341 					"/>
				</g>
			</g>
		</g>
		<g>
			<line fill="#4F8ABE" x1="209.953" y1="50.722" x2="209.953" y2="239.014"/>
			<g>
				
					<line fill="none" stroke="#005695" stroke-width="2" stroke-miterlimit="1" x1="209.953" y1="50.722" x2="209.953" y2="231.926"/>
				<g>
					<polygon fill="#005695" points="207.629,230.341 209.953,239.014 212.277,230.341 					"/>
				</g>
			</g>
		</g>
	</g>
</g>
</svg>
