<?xml version="1.0" encoding="utf-8"?>

<!DOCTYPE svg PUBLIC "-//W3C//DTD SVG 1.1//EN" "http://www.w3.org/Graphics/SVG/1.1/DTD/svg11.dtd">
<svg version="1.1" id="Layer_1" xmlns="http://www.w3.org/2000/svg" xmlns:xlink="http://www.w3.org/1999/xlink" x="0px" y="0px"
	 width="502px" height="344.199px" viewBox="0 0 502 344.199" enable-background="new 0 0 502 344.199" xml:space="preserve">

<defs>
	<style type="text/css">
	text {
	  font-family: Helvetica, Verdana, ArialUnicodeMS, san-serif
	}
	</style>
</defs>

<g>
   <desc>
	PS 3.3 Part 3: Information Object Definitions
   </desc>
</g>

<g>
	<rect x="1" y="1" fill="#F5EED6" width="500" height="342.199"/>
	<g>
		<g>
			<text transform="matrix(1 0 0 1 268.0352 24.0615)"><tspan x="0" y="0" font-size="10">Processing for</tspan><tspan x="3.885" y="12" font-size="10">Presentation</tspan></text>
		</g>
		<g>
			<text transform="matrix(1 0 0 1 132.2329 24.0615)"><tspan x="0" y="0" font-size="10">Detector</tspan><tspan x="-4.167" y="12" font-size="10">Correction</tspan></text>
		</g>
		<rect x="31.021" y="67.741" fill="#CCDEF0" width="90" height="165.6"/>
		<rect x="180.955" y="67.741" fill="#B2CEE7" width="90" height="165.6"/>
		<rect x="328.956" y="67.741" fill="#86B2D8" width="90" height="165.6"/>
		<g>
			<g>
				<polyline fill="none" stroke="#005695" stroke-width="3" stroke-miterlimit="1" points="112.008,215.091 132.461,215.091 
					132.357,182.689 178.08,182.689 				"/>
				<g>
					<polygon fill="#005695" points="175.702,186.176 188.711,182.689 175.702,179.203 					"/>
				</g>
			</g>
		</g>
		<g>
			<g>
				<polyline fill="none" stroke="#005695" stroke-width="3" stroke-miterlimit="1" points="112.008,121.77 132.357,121.77 
					132.357,158.142 178.08,158.142 				"/>
				<g>
					<polygon fill="#005695" points="175.702,161.628 188.711,158.142 175.702,154.655 					"/>
				</g>
			</g>
		</g>
		<g>
			<g>
				
					<line fill="none" stroke="#005695" stroke-width="3" stroke-miterlimit="1" x1="112.008" y1="169.938" x2="178.08" y2="169.938"/>
				<g>
					<polygon fill="#005695" points="175.702,173.424 188.711,169.938 175.702,166.451 					"/>
				</g>
			</g>
		</g>
		<g>
			<g>
				
					<line fill="none" stroke="#005695" stroke-width="3" stroke-miterlimit="1" x1="285.661" y1="171.907" x2="285.661" y2="281.999"/>
				<g>
					<rect x="281.7" y="168.145" fill="#005695" width="7.922" height="7.922"/>
				</g>
				<g>
					<polygon fill="#005695" points="282.175,279.621 285.661,292.63 289.147,279.621 					"/>
				</g>
			</g>
		</g>
		<g>
			<g>
				
					<line fill="none" stroke="#005695" stroke-width="3" stroke-miterlimit="1" x1="261.94" y1="171.803" x2="326.934" y2="171.803"/>
				<g>
					<polygon fill="#005695" points="324.556,175.289 337.564,171.803 324.556,168.316 					"/>
				</g>
			</g>
		</g>
		<g>
			<text transform="matrix(1 0 0 1 68.5205 215.4453)" font-size="18">...</text>
		</g>
		
			<rect x="338.534" y="149.53" fill="none" stroke="#010101" stroke-width="0.75" stroke-linecap="round" stroke-linejoin="round" stroke-miterlimit="1" width="72" height="44.999"/>
		<g>
			<text transform="matrix(1 0 0 1 359.0283 165.377)"><tspan x="0" y="0" font-size="9">Original</tspan><tspan x="11.006" y="10.8" font-size="9">––</tspan><tspan x="-17.761" y="21.6" font-size="9">For Presentation</tspan></text>
		</g>
		
			<rect x="249.661" y="292.993" fill="#6799C8" stroke="#010101" stroke-width="0.75" stroke-linecap="round" stroke-linejoin="round" stroke-miterlimit="1" width="72" height="36"/>
		<g>
			<text transform="matrix(1 0 0 1 270.1553 313.4805)" font-size="9">Derived</text>
		</g>
		
			<rect x="189.598" y="149.531" fill="none" stroke="#010101" stroke-width="0.75" stroke-linecap="round" stroke-linejoin="round" stroke-miterlimit="1" width="72" height="44.998"/>
		<g>
			<text transform="matrix(1 0 0 1 210.0918 165.377)"><tspan x="0" y="0" font-size="9">Original</tspan><tspan x="11.006" y="10.8" font-size="9">––</tspan><tspan x="-14.755" y="21.6" font-size="9">For Processing</tspan></text>
		</g>
		<g>
			<text transform="matrix(1 0 0 1 42.2139 83.2617)" font-size="10">Detector Data</text>
		</g>
		
			<line fill="none" stroke="#000000" stroke-miterlimit="1" stroke-dasharray="6" x1="151.13" y1="46.033" x2="151.13" y2="248.034"/>
		
			<line fill="none" stroke="#000000" stroke-miterlimit="1" stroke-dasharray="6" x1="300.065" y1="46.033" x2="300.065" y2="248.034"/>
		<g>
			<text transform="matrix(1 0 0 1 354.7979 261.8965)"><tspan x="0" y="0" font-size="10">Advanced Processing, eg.</tspan><tspan x="2.224" y="12" font-size="10">morphological operations</tspan></text>
		</g>
		
			<line fill="none" stroke="#000000" stroke-miterlimit="1" stroke-dasharray="6" x1="347.36" y1="265.452" x2="148.96" y2="265.452"/>
		<g>
			<text transform="matrix(1 0 0 1 206.7012 83.2622)"><tspan x="0" y="0" font-size="10">Detector</tspan><tspan x="-15.007" y="12" font-size="10">Corrected Data</tspan></text>
		</g>
		<g>
			<text transform="matrix(1 0 0 1 351.1836 83.2622)"><tspan x="0" y="0" font-size="10">Viewed on</tspan><tspan x="-3.047" y="12" font-size="10">Workstation</tspan><tspan x="-9.709" y="24" font-size="10">(with VOI LUT)</tspan></text>
		</g>
		<g>
			<text transform="matrix(1 0 0 1 51.2812 158.3179)"><tspan x="0" y="0" font-size="9">Defect Map,</tspan><tspan x="6.998" y="10.8" font-size="9">Baseline</tspan><tspan x="2.252" y="21.6" font-size="9">Correction,</tspan><tspan x="17.007" y="32.4" font-size="9">etc.</tspan></text>
		</g>
		<rect x="39.541" y="149.53" fill="none" stroke="#000000" stroke-miterlimit="1" width="72" height="44.999"/>
		<g>
			<text transform="matrix(1 0 0 1 64.563 118.0127)"><tspan x="0" y="0" font-size="9">From</tspan><tspan x="-8.512" y="10.8" font-size="9">Exposure</tspan></text>
		</g>
		<rect x="39.061" y="107.425" fill="none" stroke="#000000" stroke-miterlimit="1" width="72" height="27"/>
	</g>
</g>
</svg>
