<?xml version="1.0" encoding="utf-8"?>

<!DOCTYPE svg PUBLIC "-//W3C//DTD SVG 1.1//EN" "http://www.w3.org/Graphics/SVG/1.1/DTD/svg11.dtd">
<svg version="1.1" id="Layer_1" xmlns="http://www.w3.org/2000/svg" xmlns:xlink="http://www.w3.org/1999/xlink" x="0px" y="0px"
	 width="502px" height="322px" viewBox="0 0 502 322" enable-background="new 0 0 502 322" xml:space="preserve">

<defs>
	<style type="text/css">
	text {
	  font-family: Helvetica, Verdana, ArialUnicodeMS, san-serif
	}
	</style>
</defs>

<g>
   <desc>
	PS 3.3 Part 3: Information Object Definitions
   </desc>
</g>

<g>
	<rect x="1" y="1" fill="#F5EED6" width="500" height="320"/>
	<g>
		
			<line fill="none" stroke="#000000" stroke-width="0.75" stroke-miterlimit="1" x1="187.521" y1="87.076" x2="448.521" y2="87.076"/>
		
			<line fill="none" stroke="#000000" stroke-width="0.75" stroke-miterlimit="1" x1="187.521" y1="112.743" x2="448.521" y2="112.743"/>
		
			<line fill="none" stroke="#000000" stroke-width="0.75" stroke-miterlimit="1" x1="187.521" y1="138.076" x2="448.521" y2="138.076"/>
		
			<line fill="none" stroke="#000000" stroke-width="0.75" stroke-miterlimit="1" x1="187.521" y1="166.743" x2="448.521" y2="166.743"/>
		
			<line fill="none" stroke="#000000" stroke-width="0.75" stroke-miterlimit="1" x1="187.521" y1="193.249" x2="448.521" y2="193.249"/>
		
			<line fill="none" stroke="#000000" stroke-width="0.75" stroke-miterlimit="1" x1="187.521" y1="220.476" x2="448.521" y2="220.476"/>
		
			<line fill="none" stroke="#000000" stroke-width="0.75" stroke-miterlimit="1" x1="187.521" y1="246.263" x2="448.521" y2="246.263"/>
		
			<line fill="none" stroke="#000000" stroke-width="0.75" stroke-miterlimit="1" x1="187.521" y1="272.769" x2="448.521" y2="272.769"/>
		
			<line fill="none" stroke="#000000" stroke-width="0.75" stroke-miterlimit="1" x1="187.521" y1="300.722" x2="448.521" y2="300.722"/>
		<rect x="455.953" y="38.285" fill="none" width="17.379" height="8.51"/>
		<text transform="matrix(0.9288 0 0 1 455.9609 44.7148)" font-size="9">time</text>
		
			<rect x="219.521" y="33.285" fill="#FFFFFF" stroke="#000000" stroke-width="0.75" stroke-linecap="round" stroke-linejoin="round" stroke-miterlimit="1" width="18" height="18"/>
		<rect x="252.521" y="16.285" fill="#B2CEE7" stroke="#B2CEE7" stroke-miterlimit="1" width="175.999" height="52"/>
		
			<rect x="193.521" y="33.285" fill="#FFFFFF" stroke="#000000" stroke-width="0.75" stroke-linecap="round" stroke-linejoin="round" stroke-miterlimit="1" width="18" height="18"/>
		
			<rect x="252.521" y="33.285" fill="#6799C8" stroke="#010101" stroke-width="0.75" stroke-linecap="round" stroke-linejoin="round" stroke-miterlimit="1" width="175.999" height="18"/>
		
			<rect x="276.688" y="28.285" fill="#4F8ABE" stroke="#010101" stroke-width="0.75" stroke-linecap="round" stroke-linejoin="round" stroke-miterlimit="1" width="46" height="28"/>
		
			<rect x="341.521" y="28.285" fill="#4F8ABE" stroke="#010101" stroke-width="0.75" stroke-linecap="round" stroke-linejoin="round" stroke-miterlimit="1" width="27" height="28"/>
		
			<rect x="386.521" y="28.285" fill="#4F8ABE" stroke="#010101" stroke-width="0.75" stroke-linecap="round" stroke-linejoin="round" stroke-miterlimit="1" width="27" height="28"/>
		
			<line fill="none" stroke="#000000" stroke-width="0.75" stroke-linecap="round" stroke-miterlimit="1" stroke-dasharray="6,2" x1="211.521" y1="55.472" x2="211.521" y2="87.076"/>
		
			<line fill="none" stroke="#000000" stroke-width="0.75" stroke-linecap="round" stroke-miterlimit="1" stroke-dasharray="6,2" x1="193.521" y1="55.472" x2="193.521" y2="87.076"/>
		
			<line fill="none" stroke="#000000" stroke-width="0.75" stroke-linecap="round" stroke-miterlimit="1" stroke-dasharray="6,2" x1="219.521" y1="55.471" x2="219.521" y2="112.743"/>
		
			<line fill="none" stroke="#000000" stroke-width="0.75" stroke-linecap="round" stroke-miterlimit="1" stroke-dasharray="4,4" x1="237.521" y1="55.471" x2="237.521" y2="118.73"/>
		
			<line fill="none" stroke="#000000" stroke-width="0.75" stroke-linecap="round" stroke-miterlimit="1" stroke-dasharray="4,4" x1="252.521" y1="61.18" x2="252.521" y2="220.487"/>
		
			<line fill="none" stroke="#000000" stroke-width="0.75" stroke-linecap="round" stroke-miterlimit="1" stroke-dasharray="4,4" x1="276.521" y1="56.285" x2="276.521" y2="272.356"/>
		
			<line fill="none" stroke="#000000" stroke-width="0.75" stroke-linecap="round" stroke-miterlimit="1" stroke-dasharray="4,4" x1="299.688" y1="37.484" x2="299.688" y2="300.722"/>
		
			<line fill="none" stroke="#000000" stroke-width="0.75" stroke-linecap="round" stroke-miterlimit="1" stroke-dasharray="4,4" x1="341.521" y1="56.285" x2="341.521" y2="272.474"/>
		
			<line fill="none" stroke="#000000" stroke-width="0.75" stroke-linecap="round" stroke-miterlimit="1" stroke-dasharray="4,4" x1="386.521" y1="56.285" x2="386.521" y2="272.769"/>
		
			<line fill="none" stroke="#000000" stroke-width="0.75" stroke-linecap="round" stroke-miterlimit="1" stroke-dasharray="4,4" x1="322.521" y1="61.18" x2="322.521" y2="246.263"/>
		
			<line fill="none" stroke="#000000" stroke-width="0.75" stroke-linecap="round" stroke-miterlimit="1" stroke-dasharray="4,4" x1="428.521" y1="69.403" x2="428.521" y2="220.476"/>
		<g>
			<g>
				
					<line fill="none" stroke="#000000" stroke-width="2" stroke-linecap="round" stroke-miterlimit="1" x1="187.521" y1="42.278" x2="441.433" y2="42.278"/>
				<g>
					<polygon points="439.848,44.602 448.521,42.278 439.848,39.954 					"/>
				</g>
			</g>
		</g>
		
			<line fill="none" stroke="#005695" stroke-width="6" stroke-linecap="round" stroke-miterlimit="1" x1="193.521" y1="87.076" x2="211.521" y2="87.076"/>
		
			<line fill="none" stroke="#005695" stroke-width="6" stroke-linecap="round" stroke-miterlimit="1" x1="219.521" y1="112.743" x2="237.521" y2="112.743"/>
		
			<line fill="none" stroke="#005695" stroke-width="6" stroke-linecap="round" stroke-miterlimit="1" x1="251.635" y1="138.076" x2="253.074" y2="138.076"/>
		
			<line fill="none" stroke="#005695" stroke-width="6" stroke-linecap="round" stroke-miterlimit="1" x1="251.635" y1="166.731" x2="253.074" y2="166.731"/>
		
			<line fill="none" stroke="#005695" stroke-width="6" stroke-linecap="round" stroke-miterlimit="1" x1="427.847" y1="193.249" x2="429.286" y2="193.249"/>
		
			<line fill="none" stroke="#005695" stroke-width="6" stroke-linecap="round" stroke-miterlimit="1" x1="275.8" y1="272.573" x2="277.241" y2="272.573"/>
		
			<line fill="none" stroke="#005695" stroke-width="6" stroke-linecap="round" stroke-miterlimit="1" x1="299.323" y1="300.722" x2="300.765" y2="300.722"/>
		
			<line fill="none" stroke="#005695" stroke-width="6" stroke-linecap="round" stroke-miterlimit="1" x1="340.8" y1="272.278" x2="342.241" y2="272.278"/>
		
			<line fill="none" stroke="#005695" stroke-width="6" stroke-linecap="round" stroke-miterlimit="1" x1="385.8" y1="272.841" x2="387.241" y2="272.841"/>
		
			<line fill="none" stroke="#005695" stroke-width="6" stroke-linecap="round" stroke-miterlimit="1" x1="276.521" y1="246.263" x2="322.521" y2="246.263"/>
		
			<line fill="none" stroke="#005695" stroke-width="6" stroke-linecap="round" stroke-miterlimit="1" x1="253.188" y1="220.476" x2="428.521" y2="220.476"/>
		<text transform="matrix(0.9288 0 0 1 110.8828 90.333)"><tspan x="0" y="0" font-size="9">Patient preparation</tspan><tspan x="-45.518" y="24.8" font-size="9">Scanner Adjustment to Patient</tspan><tspan x="-61.018" y="51.6" font-size="9">Acquisition DateTime (0008,002A)</tspan><tspan x="-81.527" y="78.399" font-size="9">Start Acquisition DateTime (0018,9516)</tspan><tspan x="-78.534" y="105.2" font-size="9">End Acquisition DateTime (0018,9517)</tspan><tspan x="-3.99" y="132" font-size="9">Acquisition Duration</tspan><tspan x="-83.531" y="158.8" font-size="9">Frame Acquisition Duration (0018,9220)</tspan><tspan x="-88.523" y="185.601" font-size="9">Frame Acquisition DateTime (0018,9074)</tspan><tspan x="-86.524" y="212.399" font-size="9">Frame Reference DateTime (0018,9151)</tspan></text>
	</g>
</g>
</svg>
