<?xml version="1.0" encoding="utf-8"?>

<!DOCTYPE svg PUBLIC "-//W3C//DTD SVG 1.1//EN" "http://www.w3.org/Graphics/SVG/1.1/DTD/svg11.dtd">
<svg version="1.1" id="Layer_1" xmlns="http://www.w3.org/2000/svg" xmlns:xlink="http://www.w3.org/1999/xlink" x="0px" y="0px"
	 width="502px" height="577px" viewBox="0 0 502 577" enable-background="new 0 0 502 577" xml:space="preserve">

<defs>
	<style type="text/css">
	text {
	  font-family: Helvetica, Verdana, ArialUnicodeMS, san-serif
	}
	</style>
</defs>

<g>
   <desc>
	PS 3.3 Part 3: Information Object Definitions
   </desc>
</g>

<rect x="1" y="1" fill="#F5EED6" width="500" height="575"/>
<g>
	
		<rect x="237.725" y="31.413" fill="#CCDEF0" stroke="#010101" stroke-width="0.75" stroke-linecap="round" stroke-linejoin="round" stroke-miterlimit="1" width="205.439" height="529.995"/>
	<path fill="none" stroke="#FFF200" stroke-width="2" stroke-linecap="round" stroke-linejoin="round" stroke-miterlimit="1" d="
		M354.116,101.221h55.609c7.92,0,14.399,6.483,14.399,14.405v378.022c0,7.923-6.479,14.407-14.399,14.407h-55.609"/>
	<path fill="none" stroke="#FFF200" stroke-width="2" stroke-linecap="round" stroke-linejoin="round" stroke-miterlimit="1" d="
		M354.116,125.388h37.609c7.92,0,14.399,6.48,14.399,14.4v263.533c0,7.92-6.479,14.4-14.399,14.4h-37.609"/>
	<path fill="none" stroke="#FFF200" stroke-width="2" stroke-linecap="round" stroke-linejoin="round" stroke-miterlimit="1" d="
		M354.116,148.244h19.608c7.921,0,14.4,6.486,14.4,14.413v83.949c0,7.928-6.479,14.413-14.4,14.413h-19.608"/>
	<path fill="none" stroke="#FFF200" stroke-width="2" stroke-linecap="round" stroke-linejoin="round" stroke-miterlimit="1" d="
		M354.116,261.02h19.608c7.921,0,14.4,5.153,14.4,11.451v66.69c0,6.3-6.479,11.452-14.4,11.452h-19.608"/>
	<path fill="none" stroke="#FFF200" stroke-width="2" stroke-linecap="round" stroke-linejoin="round" stroke-miterlimit="1" d="
		M355.725,171.121c7.92,0,14.399,5.042,14.399,11.203c0,6.163-6.479,11.203-14.399,11.203h-1.608"/>
	<path fill="none" stroke="#FFF200" stroke-width="2" stroke-linecap="round" stroke-linejoin="round" stroke-miterlimit="1" d="
		M354.116,283.356h1.608c7.92,0,14.399,5.06,14.399,11.243c0,6.183-6.479,11.242-14.399,11.242h-1.608"/>
	<path fill="none" stroke="#FFF200" stroke-width="2" stroke-linecap="round" stroke-linejoin="round" stroke-miterlimit="1" d="
		M354.116,193.84h1.608c7.92,0,14.399,4.934,14.399,10.962c0,6.029-6.479,10.961-14.399,10.961h-1.608"/>
	<path fill="none" stroke="#0DB14B" stroke-width="2" stroke-linecap="round" stroke-linejoin="round" stroke-miterlimit="1" d="
		M354.116,77.221h1.608c7.92,0,14.399,5.428,14.399,12.062s-6.479,12.062-14.399,12.062h-1.608"/>
	<path fill="none" stroke="#0DB14B" stroke-width="2" stroke-linecap="round" stroke-linejoin="round" stroke-miterlimit="1" d="
		M354.116,101.453h1.608c7.92,0,14.399,5.372,14.399,11.938c0,6.566-6.479,11.938-14.399,11.938h-1.608"/>
	<path fill="none" stroke="#0DB14B" stroke-width="2" stroke-linecap="round" stroke-linejoin="round" stroke-miterlimit="1" d="
		M354.116,125.455h1.608c7.92,0,14.399,5.085,14.399,11.3s-6.479,11.3-14.399,11.3h-1.608"/>
	<path fill="none" stroke="#0DB14B" stroke-width="2" stroke-linecap="round" stroke-linejoin="round" stroke-miterlimit="1" d="
		M354.116,418.128h1.608c7.92,0,14.399,5.142,14.399,11.426s-6.479,11.426-14.399,11.426h-1.608"/>
	<path fill="none" stroke="#0DB14B" stroke-width="2" stroke-linecap="round" stroke-linejoin="round" stroke-miterlimit="1" d="
		M354.116,441.114h1.608c7.92,0,14.399,5.256,14.399,11.683c0,6.425-6.479,11.683-14.399,11.683h-1.608"/>
	<path fill="none" stroke="#0DB14B" stroke-width="2" stroke-linecap="round" stroke-linejoin="round" stroke-miterlimit="1" d="
		M354.116,148.366h1.608c7.92,0,14.399,5.077,14.399,11.282c0,6.206-6.479,11.282-14.399,11.282h-1.608"/>
	<path fill="none" stroke="#0DB14B" stroke-width="2" stroke-linecap="round" stroke-linejoin="round" stroke-miterlimit="1" d="
		M354.116,261.02h1.608c7.92,0,14.399,5.051,14.399,11.221c0,6.172-6.479,11.221-14.399,11.221h-1.608"/>
	<path fill="none" stroke="#0DB14B" stroke-width="2" stroke-linecap="round" stroke-linejoin="round" stroke-miterlimit="1" d="
		M354.116,350.749h1.608c7.92,0,14.399,5.115,14.399,11.368c0,6.254-6.479,11.367-14.399,11.367h-1.608"/>
	
		<rect x="58.836" y="69.546" fill="#CCDEF0" stroke="#010101" stroke-width="0.75" stroke-linecap="round" stroke-linejoin="round" stroke-miterlimit="1" stroke-dasharray="4" width="128" height="314.795"/>
	<g>
		<text transform="matrix(1 0 0 1 61.2925 36.3438)"><tspan x="0" y="0" font-size="11">Files containing</tspan><tspan x="0" y="13.2" font-size="11">Objects referenced</tspan><tspan x="0" y="26.4" font-size="11">by the Directory</tspan></text>
	</g>
	<g>
		
			<rect x="97.266" y="204.458" fill="#FFFFFF" stroke="#010101" stroke-width="0.75" stroke-linecap="round" stroke-linejoin="round" stroke-miterlimit="1" width="81.004" height="27"/>
	</g>
	<g>
		
			<rect x="82.104" y="181.971" fill="#FFFFFF" stroke="#010101" stroke-width="0.75" stroke-linecap="round" stroke-linejoin="round" stroke-miterlimit="1" width="81" height="27"/>
	</g>
	<text transform="matrix(1 0 0 1 241.2124 25.3438)" font-size="11">DICOMDIR File Content</text>
	
		<rect x="254.774" y="47.061" fill="#B2CEE7" stroke="#010101" stroke-width="0.75" stroke-linecap="round" stroke-linejoin="round" stroke-miterlimit="1" width="98.999" height="22.485"/>
	<g>
		<text transform="matrix(1 0 0 1 262.502 60.7935)" font-size="9">File Set Identification</text>
	</g>
	<g>
		<text transform="matrix(1 0 0 1 254.7754 42.7329)" font-size="9">Beginning of File</text>
	</g>
	<g>
		<text transform="matrix(1 0 0 1 254.7754 555.3066)" font-size="9">End of File</text>
	</g>
	
		<rect x="254.774" y="69.546" fill="#B2CEE7" stroke="#010101" stroke-width="0.75" stroke-linecap="round" stroke-linejoin="round" stroke-miterlimit="1" width="98.999" height="22.485"/>
	<g>
		<text transform="matrix(1 0 0 1 259.7549 83.2788)" font-size="9">Directory Identification</text>
	</g>
	
		<rect x="254.774" y="92.031" fill="#B2CEE7" stroke="#010101" stroke-width="0.75" stroke-linecap="round" stroke-linejoin="round" stroke-miterlimit="1" width="98.999" height="22.485"/>
	<g>
		<text transform="matrix(1 0 0 1 286.0117 105.7642)" font-size="9">Patient A</text>
	</g>
	
		<rect x="254.774" y="114.517" fill="#B2CEE7" stroke="#010101" stroke-width="0.75" stroke-linecap="round" stroke-linejoin="round" stroke-miterlimit="1" width="98.999" height="22.485"/>
	<g>
		<text transform="matrix(1 0 0 1 289.0137 128.2495)" font-size="9">Study 1</text>
	</g>
	
		<rect x="254.774" y="137.002" fill="#B2CEE7" stroke="#010101" stroke-width="0.75" stroke-linecap="round" stroke-linejoin="round" stroke-miterlimit="1" width="98.999" height="22.485"/>
	<g>
		<text transform="matrix(1 0 0 1 287.7656 150.7349)" font-size="9">Series 1</text>
	</g>
	
		<rect x="254.774" y="159.487" fill="#B2CEE7" stroke="#010101" stroke-width="0.75" stroke-linecap="round" stroke-linejoin="round" stroke-miterlimit="1" width="98.999" height="22.485"/>
	<g>
		<text transform="matrix(1 0 0 1 288.0137 173.2202)" font-size="9">Image 1</text>
	</g>
	
		<rect x="254.774" y="181.973" fill="#B2CEE7" stroke="#010101" stroke-width="0.75" stroke-linecap="round" stroke-linejoin="round" stroke-miterlimit="1" width="98.999" height="22.485"/>
	<g>
		<text transform="matrix(1 0 0 1 288.0137 195.7056)" font-size="9">Image 2</text>
	</g>
	
		<rect x="254.774" y="204.458" fill="#B2CEE7" stroke="#010101" stroke-width="0.75" stroke-linecap="round" stroke-linejoin="round" stroke-miterlimit="1" width="98.999" height="22.485"/>
	<g>
		<text transform="matrix(1 0 0 1 288.0137 218.1909)" font-size="9">Image 3</text>
	</g>
	<g>
		<text transform="matrix(1 0 0 1 300.5225 240.6763)" font-size="9">...</text>
	</g>
	
		<rect x="254.774" y="249.429" fill="#B2CEE7" stroke="#010101" stroke-width="0.75" stroke-linecap="round" stroke-linejoin="round" stroke-miterlimit="1" width="98.999" height="22.485"/>
	<g>
		<text transform="matrix(1 0 0 1 287.7656 263.1772)" font-size="9">Series 2</text>
	</g>
	
		<rect x="254.774" y="271.914" fill="#B2CEE7" stroke="#010101" stroke-width="0.75" stroke-linecap="round" stroke-linejoin="round" stroke-miterlimit="1" width="98.999" height="22.485"/>
	<g>
		<text transform="matrix(1 0 0 1 291.7666 285.647)" font-size="9">Image</text>
	</g>
	
		<rect x="254.774" y="294.399" fill="#B2CEE7" stroke="#010101" stroke-width="0.75" stroke-linecap="round" stroke-linejoin="round" stroke-miterlimit="1" width="98.999" height="22.485"/>
	<g>
		<text transform="matrix(1 0 0 1 291.7666 308.1328)" font-size="9">Image</text>
	</g>
	<g>
		<text transform="matrix(1 0 0 1 300.5225 330.6172)" font-size="9">...</text>
	</g>
	
		<rect x="254.774" y="339.37" fill="#B2CEE7" stroke="#010101" stroke-width="0.75" stroke-linecap="round" stroke-linejoin="round" stroke-miterlimit="1" width="98.999" height="22.486"/>
	<g>
		<text transform="matrix(1 0 0 1 287.7656 353.1035)" font-size="9">Series 3</text>
	</g>
	
		<rect x="254.774" y="361.856" fill="#B2CEE7" stroke="#010101" stroke-width="0.75" stroke-linecap="round" stroke-linejoin="round" stroke-miterlimit="1" width="98.999" height="22.484"/>
	<g>
		<text transform="matrix(1 0 0 1 291.7666 375.5879)" font-size="9">Image</text>
	</g>
	<g>
		<text transform="matrix(1 0 0 1 300.5225 398.0742)" font-size="9">...</text>
	</g>
	
		<rect x="254.774" y="406.827" fill="#B2CEE7" stroke="#010101" stroke-width="0.75" stroke-linecap="round" stroke-linejoin="round" stroke-miterlimit="1" width="98.999" height="22.484"/>
	<g>
		<text transform="matrix(1 0 0 1 289.0137 420.5586)" font-size="9">Study 2</text>
	</g>
	
		<rect x="254.774" y="429.312" fill="#B2CEE7" stroke="#010101" stroke-width="0.75" stroke-linecap="round" stroke-linejoin="round" stroke-miterlimit="1" width="98.999" height="22.486"/>
	<g>
		<text transform="matrix(1 0 0 1 291.5186 443.0449)" font-size="9">Series</text>
	</g>
	
		<rect x="254.774" y="451.798" fill="#B2CEE7" stroke="#010101" stroke-width="0.75" stroke-linecap="round" stroke-linejoin="round" stroke-miterlimit="1" width="98.999" height="22.484"/>
	<g>
		<text transform="matrix(1 0 0 1 291.7666 465.5293)" font-size="9">Image</text>
	</g>
	<g>
		<text transform="matrix(1 0 0 1 300.5225 488.0156)" font-size="9">...</text>
	</g>
	
		<rect x="254.774" y="496.769" fill="#B2CEE7" stroke="#010101" stroke-width="0.75" stroke-linecap="round" stroke-linejoin="round" stroke-miterlimit="1" width="98.999" height="22.484"/>
	<g>
		<text transform="matrix(1 0 0 1 286.0117 510.5)" font-size="9">Patient B</text>
	</g>
	<g>
		
			<rect x="66.461" y="160.217" fill="#FFFFFF" stroke="#010101" stroke-width="0.75" stroke-linecap="round" stroke-linejoin="round" stroke-miterlimit="1" width="81.002" height="27"/>
		<g>
			<text transform="matrix(1 0 0 1 83.6934 170.8091)"><tspan x="0" y="0" font-size="9">Referenced</tspan><tspan x="-3.498" y="10.8" font-size="9">Image Object</tspan></text>
		</g>
	</g>
	<g>
		<g>
			
				<line fill="none" stroke="#005695" stroke-width="2" stroke-linecap="round" stroke-linejoin="round" x1="265.638" y1="170.73" x2="156.126" y2="170.73"/>
			<g>
				<polygon fill="#005695" points="157.712,168.406 149.039,170.73 157.712,173.055 				"/>
			</g>
		</g>
	</g>
	<g>
		<g>
			
				<line fill="none" stroke="#005695" stroke-width="2" stroke-linecap="round" stroke-linejoin="round" x1="265.638" y1="193.055" x2="170.191" y2="193.055"/>
			<g>
				<polygon fill="#005695" points="171.776,190.73 163.104,193.055 171.776,195.379 				"/>
			</g>
		</g>
	</g>
	<g>
		<g>
			
				<line fill="none" stroke="#005695" stroke-width="2" stroke-linecap="round" stroke-linejoin="round" x1="265.638" y1="215.379" x2="185.357" y2="215.379"/>
			<g>
				<polygon fill="#005695" points="186.942,213.055 178.27,215.379 186.942,217.703 				"/>
			</g>
		</g>
	</g>
	<g>
		<circle fill="#FFFFFF" stroke="#000000" cx="422.487" cy="102.508" r="8"/>
		<rect x="419.272" y="97.736" fill="none" width="6.43" height="10.261"/>
		<text transform="matrix(0.9288 0 0 1 419.2695 106.3081)" font-size="12">1</text>
	</g>
	<g>
		<circle fill="#FFFFFF" stroke="#000000" cx="404.133" cy="127.35" r="8"/>
		<rect x="401.278" y="122.579" fill="none" width="6.43" height="10.261"/>
		<text transform="matrix(0.9288 0 0 1 401.2695 131.1479)" font-size="12">2</text>
	</g>
	<g>
		<circle fill="#FFFFFF" stroke="#000000" cx="386.495" cy="150.751" r="8"/>
		<rect x="383.64" y="146.34" fill="none" width="6.43" height="10.261"/>
		<text transform="matrix(0.9288 0 0 1 383.6289 154.9082)" font-size="12">3</text>
	</g>
	<circle fill="#FFFFFF" stroke="#000000" cx="372.457" cy="181.713" r="8"/>
	<rect x="369.603" y="177.301" fill="none" width="6.43" height="10.261"/>
	<text transform="matrix(0.9288 0 0 1 369.5898 185.8682)" font-size="12">4</text>
	<g>
		<text transform="matrix(1 0 0 1 300.5225 532.9863)" font-size="9">...</text>
	</g>
</g>
</svg>
