<?xml version="1.0" encoding="utf-8"?>

<!DOCTYPE svg PUBLIC "-//W3C//DTD SVG 1.1//EN" "http://www.w3.org/Graphics/SVG/1.1/DTD/svg11.dtd">
<svg version="1.1" id="Layer_1" xmlns="http://www.w3.org/2000/svg" xmlns:xlink="http://www.w3.org/1999/xlink" x="0px" y="0px"
	 width="702px" height="247px" viewBox="0 0 702 247" enable-background="new 0 0 702 247" xml:space="preserve">

<defs>
	<style type="text/css">
	text {
	  font-family: Helvetica, Verdana, ArialUnicodeMS, san-serif
	}
	</style>
</defs>

<g>
   <desc>
	PS3.19 2013 - Application Hosting
   </desc>
</g>

<g>
	<rect x="1" y="1" fill="#F5EED6" width="700" height="245"/>
	<g>
		<g>
			<rect x="299.523" y="15.202" fill="#FFFFFF" stroke="#000000" stroke-miterlimit="10" width="390.302" height="216.596"/>
			<rect x="299.527" y="15.202" fill="#B2CEE7" stroke="#1C3766" width="390.674" height="14"/>
			<rect x="299.527" y="47.231" fill="#B2CEE7" stroke="#1C3766" width="390.674" height="14"/>
			<rect x="299.527" y="104.868" fill="#B2CEE7" stroke="#1C3766" width="390.674" height="14"/>
			<rect x="299.527" y="165.388" fill="#B2CEE7" stroke="#1C3766" width="390.674" height="14"/>
			<text transform="matrix(1 0 0 1 303.8276 24.7578)" font-size="9">Component</text>
			<text transform="matrix(0.9288 0 0 1 303.8276 40.3579)" font-size="8">Dataset Component #1  - echo (non-parallel)</text>
			<text transform="matrix(0.9288 0 0 1 303.8276 57.1577)" font-size="9">Dimension</text>
			<text transform="matrix(0.9288 0 0 1 303.8276 72.7578)" font-size="8" letter-spacing="27.993">	</text>
			<text transform="matrix(0.9288 0 0 1 332.3174 72.7578)" font-size="8">Dataset dimension #1 - index along x</text>
			<text transform="matrix(0.9288 0 0 1 303.8276 85.3579)" font-size="8" letter-spacing="27.993">	</text>
			<text transform="matrix(0.9288 0 0 1 332.3174 85.3579)" font-size="8">Dataset dimension #2 - index along y</text>
			<text transform="matrix(0.9288 0 0 1 303.8276 97.958)" font-size="8" letter-spacing="27.993">	</text>
			<text transform="matrix(0.9288 0 0 1 332.3174 97.958)" font-size="8">Dataset dimension #3 - index along t</text>
			<text transform="matrix(0.9288 0 0 1 303.8276 114.7578)" font-size="9">Origin</text>
			<text transform="matrix(0.9288 0 0 1 303.8276 130.3574)" font-size="8">200 Occurrences</text>
			<text transform="matrix(0.9288 0 0 1 303.8276 145.958)" font-size="8" letter-spacing="27.993">	</text>
			<text transform="matrix(0.9288 0 0 1 332.3174 145.958)" font-size="8">- x,y coordinates of O1, O2, ..., O200</text>
			
				<text transform="matrix(0.9288 0 0 1 303.8276 158.5576)" font-size="8" letter-spacing="27.993">	</text>
			<text transform="matrix(0.9288 0 0 1 332.3174 158.5576)" font-size="8">indexedb Dataset dimension #3, corresponding to t1, t2, ..., t200</text>
			<text transform="matrix(0.9288 0 0 1 303.8276 175.3574)" font-size="9">Direction Cosines</text>
			<text transform="matrix(0.9288 0 0 1 303.8276 190.958)" font-size="8">400 Occurrences</text>
			
				<text transform="matrix(0.9288 0 0 1 303.8276 206.5576)" font-size="8" letter-spacing="27.993">	</text>
			<text transform="matrix(0.9288 0 0 1 332.3174 206.5576)" font-size="8">- 200 concerning Dataset dimension #1 (x) indexedb Dataset dimension #3, corresponding to t1, t2, ..., t200</text>
			
				<text transform="matrix(0.9288 0 0 1 303.8276 219.1582)" font-size="8" letter-spacing="27.993">	</text>
			<text transform="matrix(0.9288 0 0 1 332.3174 219.1582)" font-size="8">- 200 concerning Dataset dimension #2 (y) indexedb Dataset dimension #3, corresponding to t1, t2, ..., t200</text>
		</g>
		<g>
			<text transform="matrix(1 -0.0019 0.0019 1 45.5527 26.6709)" fill="#ED1C24" font-size="9">+X</text>
			<text transform="matrix(1 -0.0019 0.0019 1 16.1426 52.415)" fill="#0DB14B" font-size="9">+Y</text>
			<polygon fill="#CCDEF0" stroke="#000000" stroke-linecap="round" stroke-linejoin="round" points="72.426,89.048 32.519,93.325 
				34.041,30.794 79.666,29.856 76.587,88.598 72.426,89.048 			"/>
			<polygon fill="#CCDEF0" stroke="#000000" stroke-linecap="round" stroke-linejoin="round" points="109.106,107.323 
				65.241,110.39 69.959,46.396 120.064,46.702 113.698,107.004 109.106,107.323 			"/>
			<polygon fill="#CCDEF0" stroke="#000000" stroke-linecap="round" stroke-linejoin="round" points="143.298,127.723 
				92.19,126.887 102.071,62.637 160.814,66.706 148.716,127.81 143.298,127.723 			"/>
			<polygon fill="#CCDEF0" stroke="#000000" stroke-linecap="round" stroke-linejoin="round" points="168.918,150.028 
				111.772,145.496 123.239,78.629 189.322,86.345 175.046,150.519 168.918,150.028 			"/>
			<polygon fill="#CCDEF0" stroke="#000000" stroke-linecap="round" stroke-linejoin="round" points="204.448,109.453 
				129.497,95.49 116.893,166.105 186.9,184.341 			"/>
			<polygon fill="#CCDEF0" stroke="#000000" stroke-linecap="round" stroke-linejoin="round" points="122.13,181.621 
				134.639,114.006 212.604,129.831 193.873,208.424 120.818,188.697 122.13,181.621 			"/>
			<polygon fill="#CCDEF0" stroke="#000000" stroke-linecap="round" stroke-linejoin="round" points="127.425,203.253 
				143.618,137.479 225.566,151.585 201.662,217.465 			"/>
			<polygon fill="#CCDEF0" stroke="#000000" stroke-linecap="round" stroke-linejoin="round" points="131.586,225.46 
				149.816,164.492 236.446,167.283 209.623,227.335 130.732,228.327 131.586,225.46 			"/>
			<g>
				<g>
					<g>
						<line fill="none" stroke="#0DB14B" stroke-width="2" x1="34.294" y1="30.9" x2="33.727" y2="46.314"/>
						<g>
							<polygon fill="#0DB14B" points="32.029,45.062 33.531,51.626 35.513,45.19 							"/>
						</g>
					</g>
				</g>
				<g>
					<g>
						<line fill="none" stroke="#ED1C24" stroke-width="2" x1="34.213" y1="30.9" x2="51.148" y2="30.47"/>
						<g>
							<polygon fill="#ED1C24" points="50.004,32.243 56.462,30.335 49.915,28.758 							"/>
						</g>
					</g>
				</g>
			</g>
			<g>
				<g>
					<g>
						<line fill="none" stroke="#0DB14B" stroke-width="2" x1="69.909" y1="46.641" x2="68.846" y2="61.39"/>
						<g>
							<polygon fill="#0DB14B" points="67.192,60.079 68.463,66.691 70.67,60.329 							"/>
						</g>
					</g>
				</g>
				<g>
					<g>
						<line fill="none" stroke="#ED1C24" stroke-width="2" x1="69.946" y1="46.396" x2="87.338" y2="46.396"/>
						<g>
							<polygon fill="#ED1C24" points="86.149,48.14 92.653,46.396 86.149,44.653 							"/>
						</g>
					</g>
				</g>
			</g>
			<g>
				<g>
					<g>
						<line fill="none" stroke="#0DB14B" stroke-width="2" x1="102.051" y1="62.775" x2="99.726" y2="78.153"/>
						<g>
							<polygon fill="#0DB14B" points="98.18,76.717 98.931,83.409 101.627,77.238 							"/>
						</g>
					</g>
				</g>
				<g>
					<g>
						<line fill="none" stroke="#ED1C24" stroke-width="2" x1="102.051" y1="62.775" x2="117.668" y2="63.753"/>
						<g>
							<polygon fill="#ED1C24" points="116.373,65.419 122.974,64.086 116.591,61.939 							"/>
						</g>
					</g>
				</g>
			</g>
			<g>
				<g>
					<g>
						<line fill="none" stroke="#0DB14B" stroke-width="2" x1="122.893" y1="78.629" x2="120.44" y2="94.102"/>
						<g>
							<polygon fill="#0DB14B" points="118.904,92.654 119.608,99.352 122.348,93.2 							"/>
						</g>
					</g>
				</g>
				<g>
					<g>
						<line fill="none" stroke="#ED1C24" stroke-width="2" x1="122.893" y1="78.629" x2="139.4" y2="80.527"/>
						<g>
							<polygon fill="#ED1C24" points="138.02,82.124 144.681,81.135 138.418,78.66 							"/>
						</g>
					</g>
				</g>
			</g>
			<g>
				<g>
					<g>
						<line fill="none" stroke="#0DB14B" stroke-width="2" x1="129.497" y1="95.49" x2="126.915" y2="109.962"/>
						<g>
							<polygon fill="#0DB14B" points="125.407,108.486 125.98,115.195 128.839,109.098 							"/>
						</g>
					</g>
				</g>
				<g>
					<g>
						<line fill="none" stroke="#ED1C24" stroke-width="2" x1="129.497" y1="95.49" x2="145.335" y2="98.667"/>
						<g>
							<polygon fill="#ED1C24" points="143.827,100.143 150.547,99.713 144.513,96.725 							"/>
						</g>
					</g>
				</g>
			</g>
			<g>
				<g>
					<g>
						<line fill="none" stroke="#0DB14B" stroke-width="2" x1="134.535" y1="114.572" x2="131.658" y2="130.109"/>
						<g>
							<polygon fill="#0DB14B" points="130.161,128.623 130.69,135.336 133.589,129.258 							"/>
						</g>
					</g>
				</g>
				<g>
					<g>
						<line fill="none" stroke="#ED1C24" stroke-width="2" x1="134.639" y1="114.006" x2="152.234" y2="117.56"/>
						<g>
							<polygon fill="#ED1C24" points="150.724,119.033 157.444,118.612 151.414,115.615 							"/>
						</g>
					</g>
				</g>
			</g>
			<g>
				<g>
					<g>
						<line fill="none" stroke="#0DB14B" stroke-width="2" x1="143.684" y1="137.568" x2="139.622" y2="153.371"/>
						<g>
							<polygon fill="#0DB14B" points="138.229,151.786 138.298,158.52 141.606,152.653 							"/>
						</g>
					</g>
				</g>
				<g>
					<g>
						<line fill="none" stroke="#ED1C24" stroke-width="2" x1="143.229" y1="137.568" x2="161.08" y2="140.521"/>
						<g>
							<polygon fill="#ED1C24" points="159.622,142.047 166.324,141.389 160.191,138.607 							"/>
						</g>
					</g>
				</g>
			</g>
			<g>
				<g>
					<g>
						<line fill="none" stroke="#0DB14B" stroke-width="2" x1="149.936" y1="164.736" x2="145.514" y2="179.053"/>
						<g>
							<polygon fill="#0DB14B" points="144.199,177.402 143.945,184.132 147.53,178.432 							"/>
						</g>
					</g>
				</g>
				<g>
					<g>
						<line fill="none" stroke="#ED1C24" stroke-width="2" x1="149.936" y1="164.736" x2="165.404" y2="165.06"/>
						<g>
							<polygon fill="#ED1C24" points="164.179,166.777 170.719,165.171 164.252,163.292 							"/>
						</g>
					</g>
				</g>
			</g>
			<g>
				<path stroke="#000000" stroke-width="0.25" stroke-miterlimit="1" d="M38.251,32.143c0.004-2.112-1.709-3.815-3.813-3.815v3.815
					H38.251z"/>
				
					<path fill="#FFFFFF" stroke="#010101" stroke-width="0.25" stroke-linecap="round" stroke-linejoin="round" stroke-miterlimit="1" d="
					M34.438,28.327c-2.106,0-3.811,1.712-3.811,3.815h3.811V28.327z"/>
				<path stroke="#000000" stroke-width="0.25" stroke-miterlimit="1" d="M30.627,32.143c0,2.109,1.705,3.812,3.817,3.812
					l-0.006-3.812H30.627z"/>
				
					<path fill="#FFFFFF" stroke="#010101" stroke-width="0.25" stroke-linecap="round" stroke-linejoin="round" stroke-miterlimit="1" d="
					M34.438,32.143l0.006,3.812c2.101,0,3.812-1.707,3.807-3.812H34.438z"/>
			</g>
			<g>
				<path stroke="#000000" stroke-width="0.25" stroke-miterlimit="1" d="M74.478,46.398c0.005-2.111-1.708-3.815-3.813-3.815v3.815
					H74.478z"/>
				
					<path fill="#FFFFFF" stroke="#010101" stroke-width="0.25" stroke-linecap="round" stroke-linejoin="round" stroke-miterlimit="1" d="
					M70.664,42.583c-2.106,0-3.811,1.713-3.811,3.815h3.811V42.583z"/>
				<path stroke="#000000" stroke-width="0.25" stroke-miterlimit="1" d="M66.854,46.398c0,2.11,1.705,3.812,3.817,3.812
					l-0.007-3.812H66.854z"/>
				
					<path fill="#FFFFFF" stroke="#010101" stroke-width="0.25" stroke-linecap="round" stroke-linejoin="round" stroke-miterlimit="1" d="
					M70.664,46.398l0.007,3.812c2.101,0,3.812-1.706,3.807-3.812H70.664z"/>
			</g>
			<g>
				<path stroke="#000000" stroke-width="0.25" stroke-miterlimit="1" d="M105.892,62.777c0.005-2.112-1.704-3.815-3.813-3.815
					v3.815H105.892z"/>
				
					<path fill="#FFFFFF" stroke="#010101" stroke-width="0.25" stroke-linecap="round" stroke-linejoin="round" stroke-miterlimit="1" d="
					M102.078,58.962c-2.102,0-3.811,1.708-3.811,3.815h3.811V58.962z"/>
				<path stroke="#000000" stroke-width="0.25" stroke-miterlimit="1" d="M98.267,62.777c0,2.105,1.709,3.812,3.818,3.812
					l-0.007-3.812H98.267z"/>
				
					<path fill="#FFFFFF" stroke="#010101" stroke-width="0.25" stroke-linecap="round" stroke-linejoin="round" stroke-miterlimit="1" d="
					M102.078,62.777l0.007,3.812c2.104,0,3.812-1.711,3.807-3.812H102.078z"/>
			</g>
			<g>
				<path stroke="#000000" stroke-width="0.25" stroke-miterlimit="1" d="M126.97,78.397c0.005-2.112-1.703-3.815-3.813-3.815v3.815
					H126.97z"/>
				
					<path fill="#FFFFFF" stroke="#010101" stroke-width="0.25" stroke-linecap="round" stroke-linejoin="round" stroke-miterlimit="1" d="
					M123.157,74.582c-2.101,0-3.811,1.707-3.811,3.815h3.811V74.582z"/>
				<path stroke="#000000" stroke-width="0.25" stroke-miterlimit="1" d="M119.346,78.397c0,2.105,1.709,3.812,3.818,3.812
					l-0.007-3.812H119.346z"/>
				
					<path fill="#FFFFFF" stroke="#010101" stroke-width="0.25" stroke-linecap="round" stroke-linejoin="round" stroke-miterlimit="1" d="
					M123.157,78.397l0.007,3.812c2.105,0,3.811-1.71,3.806-3.812H123.157z"/>
			</g>
			<g>
				<path stroke="#000000" stroke-width="0.25" stroke-miterlimit="1" d="M134.495,95.491c0.004-2.111-1.704-3.815-3.813-3.815
					v3.815H134.495z"/>
				
					<path fill="#FFFFFF" stroke="#010101" stroke-width="0.25" stroke-linecap="round" stroke-linejoin="round" stroke-miterlimit="1" d="
					M130.682,91.676c-2.101,0-3.811,1.708-3.811,3.815h3.811V91.676z"/>
				<path stroke="#000000" stroke-width="0.25" stroke-miterlimit="1" d="M126.871,95.491c0,2.105,1.71,3.812,3.817,3.812
					l-0.006-3.812H126.871z"/>
				
					<path fill="#FFFFFF" stroke="#010101" stroke-width="0.25" stroke-linecap="round" stroke-linejoin="round" stroke-miterlimit="1" d="
					M130.682,95.491l0.006,3.812c2.105,0,3.812-1.711,3.807-3.812H130.682z"/>
			</g>
			<text transform="matrix(1 -0.0019 0.0019 1 73.2979 55.1416)"><tspan x="0" y="0" font-size="8">O</tspan><tspan x="6.223" y="3.814" font-size="8">2</tspan></text>
			<text transform="matrix(1 -0.0019 0.0019 1 104.8916 71.2393)"><tspan x="0" y="0" font-size="8">O</tspan><tspan x="6.223" y="3.815" font-size="8">3</tspan></text>
			<text transform="matrix(1 -0.0019 0.0019 1 125.269 87.7583)"><tspan x="0" y="0" font-size="8">O</tspan><tspan x="6.223" y="3.815" font-size="8">4</tspan></text>
			<text transform="matrix(1 -0.0019 0.0019 1 132.5049 104.6411)"><tspan x="0" y="0" font-size="8">O</tspan><tspan x="6.223" y="3.815" font-size="8">5</tspan></text>
			<text transform="matrix(1 -0.0019 0.0019 1 137.1074 124.0215)"><tspan x="0" y="0" font-size="8">O</tspan><tspan x="6.223" y="3.815" font-size="8">6</tspan></text>
			<text transform="matrix(1 -0.0019 0.0019 1 146.7573 147.1133)"><tspan x="0" y="0" font-size="8">O</tspan><tspan x="6.223" y="3.815" font-size="8">7</tspan></text>
			<text transform="matrix(1 -0.0019 0.0019 1 153.1284 174.0195)"><tspan x="0" y="0" font-size="8">O</tspan><tspan x="6.222" y="3.815" font-size="8">200</tspan></text>
			<text transform="matrix(1 -0.0019 0.0019 1 240.2271 170.6875)" font-size="9">Image 200</text>
			<text transform="matrix(1 -0.0019 0.0019 1 230.1812 153.9463)" font-size="9">Image 7-199</text>
			<text transform="matrix(1 -0.0019 0.0019 1 216.7871 133.6035)" font-size="9">Image 6</text>
			<text transform="matrix(1 -0.0019 0.0019 1 208.4155 114.2119)" font-size="9">Image 5</text>
			<text transform="matrix(1 -0.0019 0.0019 1 192.7891 89.1997)" font-size="9">Image 4</text>
			<text transform="matrix(1 -0.0019 0.0019 1 163.7666 70.2339)" font-size="9">Image 3</text>
			<text transform="matrix(1 -0.0019 0.0019 1 123.3687 49.3052)" font-size="9">Image 2</text>
			<text transform="matrix(1 -0.0019 0.0019 1 84.0903 33.1787)" font-size="9">Image 1</text>
			<text transform="matrix(1 -0.0019 0.0019 1 38.1621 39.7397)"><tspan x="0" y="0" font-size="8">O</tspan><tspan x="6.223" y="3.815" font-size="8">1</tspan></text>
			<g>
				<path stroke="#000000" stroke-width="0.25" stroke-miterlimit="1" d="M138.451,114.573c0.004-2.107-1.708-3.815-3.813-3.815
					v3.815H138.451z"/>
				
					<path fill="#FFFFFF" stroke="#010101" stroke-width="0.25" stroke-linecap="round" stroke-linejoin="round" stroke-miterlimit="1" d="
					M134.638,110.758c-2.106,0-3.811,1.713-3.811,3.815h3.811V110.758z"/>
				<path stroke="#000000" stroke-width="0.25" stroke-miterlimit="1" d="M130.827,114.573c0,2.11,1.704,3.812,3.817,3.812
					l-0.006-3.812H130.827z"/>
				
					<path fill="#FFFFFF" stroke="#010101" stroke-width="0.25" stroke-linecap="round" stroke-linejoin="round" stroke-miterlimit="1" d="
					M134.638,114.573l0.006,3.812c2.101,0,3.812-1.706,3.807-3.812H134.638z"/>
			</g>
			<g>
				<path stroke="#000000" stroke-width="0.25" stroke-miterlimit="1" d="M148.034,137.57c0.004-2.103-1.708-3.812-3.813-3.812
					v3.812H148.034z"/>
				
					<path fill="#FFFFFF" stroke="#010101" stroke-width="0.25" stroke-linecap="round" stroke-linejoin="round" stroke-miterlimit="1" d="
					M144.221,133.759c-2.106,0-3.811,1.714-3.811,3.812h3.811V133.759z"/>
				<path stroke="#000000" stroke-width="0.25" stroke-miterlimit="1" d="M140.41,137.57c0,2.11,1.705,3.816,3.817,3.816
					l-0.006-3.816H140.41z"/>
				
					<path fill="#FFFFFF" stroke="#010101" stroke-width="0.25" stroke-linecap="round" stroke-linejoin="round" stroke-miterlimit="1" d="
					M144.221,137.57l0.006,3.816c2.101,0,3.812-1.71,3.807-3.816H144.221z"/>
			</g>
			<g>
				<path stroke="#000000" stroke-width="0.25" stroke-miterlimit="1" d="M153.749,164.959c0.005-2.11-1.705-3.819-3.814-3.819
					v3.819H153.749z"/>
				
					<path fill="#FFFFFF" stroke="#010101" stroke-width="0.25" stroke-linecap="round" stroke-linejoin="round" stroke-miterlimit="1" d="
					M149.935,161.14c-2.102,0-3.812,1.713-3.812,3.819h3.812V161.14z"/>
				<path stroke="#000000" stroke-width="0.25" stroke-miterlimit="1" d="M146.123,164.959c0,2.102,1.71,3.809,3.818,3.809
					l-0.006-3.809H146.123z"/>
				
					<path fill="#FFFFFF" stroke="#010101" stroke-width="0.25" stroke-linecap="round" stroke-linejoin="round" stroke-miterlimit="1" d="
					M149.935,164.959l0.006,3.809c2.104,0,3.812-1.711,3.808-3.809H149.935z"/>
			</g>
		</g>
	</g>
</g>
</svg>
