<?xml version="1.0" encoding="utf-8"?>

<!DOCTYPE svg PUBLIC "-//W3C//DTD SVG 1.1//EN" "http://www.w3.org/Graphics/SVG/1.1/DTD/svg11.dtd">
<svg version="1.1" id="Layer_1" xmlns="http://www.w3.org/2000/svg" xmlns:xlink="http://www.w3.org/1999/xlink" x="0px" y="0px"
	 width="702px" height="267px" viewBox="0 0 702 267" enable-background="new 0 0 702 267" xml:space="preserve">

<defs>
	<style type="text/css">
	text {
	  font-family: Helvetica, Verdana, ArialUnicodeMS, san-serif
	}
	</style>
</defs>

<g>
   <desc>
	PS3.19 2013 - Application Hosting
   </desc>
</g>

<g>
	<rect x="1" y="1" fill="#F5EED6" width="700" height="265"/>
	<g>
		<g>
			<rect x="387.006" y="16.202" fill="#FFFFFF" stroke="#000000" stroke-miterlimit="10" width="260" height="234.596"/>
			<rect x="387.006" y="16.202" fill="#B2CEE7" stroke="#1C3766" width="260" height="14"/>
			<rect x="387.006" y="48.231" fill="#B2CEE7" stroke="#1C3766" width="260" height="14"/>
			<rect x="387.006" y="118.829" fill="#B2CEE7" stroke="#1C3766" width="260" height="14"/>
			<rect x="387.006" y="179.345" fill="#B2CEE7" stroke="#1C3766" width="260" height="14"/>
			<text transform="matrix(1 0 0 1 392.3848 25.7578)" font-size="9">Component</text>
			<text transform="matrix(0.9288 0 0 1 392.3848 41.3579)" font-size="8">Dataset Component #1  - T1-weighted MR Signal Intensity</text>
			<text transform="matrix(0.9288 0 0 1 392.3848 58.1577)" font-size="9">Dimension</text>
			<text transform="matrix(0.9288 0 0 1 392.3848 73.7578)" font-size="8" letter-spacing="27.993">	</text>
			<text transform="matrix(0.9288 0 0 1 420.875 73.7578)" font-size="8">Dataset dimension #1 - index along x</text>
			<text transform="matrix(0.9288 0 0 1 392.3848 86.3579)" font-size="8" letter-spacing="27.993">	</text>
			<text transform="matrix(0.9288 0 0 1 420.875 86.3579)" font-size="8">Dataset dimension #2 - index along y</text>
			<text transform="matrix(0.9288 0 0 1 392.3848 98.958)" font-size="8" letter-spacing="27.993">	</text>
			<text transform="matrix(0.9288 0 0 1 420.875 98.958)" font-size="8">Dataset dimension #3 - index along z</text>
			
				<text transform="matrix(0.9288 0 0 1 392.3848 111.5576)" font-size="8" letter-spacing="27.993">	</text>
			<text transform="matrix(0.9288 0 0 1 420.875 111.5576)" font-size="8">Dataset dimension #4 - index along time</text>
			<text transform="matrix(0.9288 0 0 1 392.3848 128.3579)" font-size="9">Origin</text>
			<text transform="matrix(0.9288 0 0 1 392.3848 143.958)" font-size="8">1 Occurrence</text>
			
				<text transform="matrix(0.9288 0 0 1 392.3848 159.5576)" font-size="8" letter-spacing="27.993">	</text>
			<text transform="matrix(0.9288 0 0 1 420.875 159.5576)" font-size="8">- x,y,z coordinates of O1</text>
			
				<text transform="matrix(0.9288 0 0 1 392.3848 172.1582)" font-size="8" letter-spacing="27.993">	</text>
			<text transform="matrix(0.9288 0 0 1 420.875 172.1582)" font-size="8">No index, because Origin is fixed for the whole dataset</text>
			<text transform="matrix(0.9288 0 0 1 392.3848 188.958)" font-size="9">Direction Cosines</text>
			<text transform="matrix(0.9288 0 0 1 392.3848 204.5576)" font-size="8">2 Occurrences</text>
			
				<text transform="matrix(0.9288 0 0 1 392.3848 220.1582)" font-size="8" letter-spacing="27.993">	</text>
			<text transform="matrix(0.9288 0 0 1 420.875 220.1582)" font-size="8">- Dataset dimension #1 (x)</text>
			
				<text transform="matrix(0.9288 0 0 1 392.3848 232.7578)" font-size="8" letter-spacing="27.993">	</text>
			<text transform="matrix(0.9288 0 0 1 420.875 232.7578)" font-size="8">- Dataset dimension #2 (y)</text>
			
				<text transform="matrix(0.9288 0 0 1 392.3848 245.3574)" font-size="8" letter-spacing="27.993">	</text>
			<text transform="matrix(0.9288 0 0 1 420.875 245.3574)" font-size="8">No index, because Direction cosines are fixed for the whole dataset</text>
		</g>
		<g>
			<rect x="190.718" y="15.097" fill="#CCDEF0" stroke="#000000" stroke-miterlimit="10" width="99.986" height="100"/>
			<rect x="185.721" y="20.097" fill="#CCDEF0" stroke="#000000" stroke-miterlimit="10" width="99.987" height="100"/>
			<rect x="180.681" y="25.137" fill="#CCDEF0" stroke="#000000" stroke-miterlimit="10" width="99.987" height="99.999"/>
			<rect x="175.682" y="30.137" fill="#CCDEF0" stroke="#000000" stroke-miterlimit="10" width="99.986" height="99.999"/>
			<rect x="165.685" y="40.137" fill="#CCDEF0" stroke="#000000" stroke-miterlimit="10" width="99.986" height="99.999"/>
			<rect x="160.686" y="45.137" fill="#CCDEF0" stroke="#000000" stroke-miterlimit="10" width="99.987" height="99.999"/>
			<rect x="155.686" y="50.137" fill="#CCDEF0" stroke="#000000" stroke-miterlimit="10" width="99.987" height="99.999"/>
			<rect x="150.687" y="55.137" fill="#CCDEF0" stroke="#000000" stroke-miterlimit="10" width="99.986" height="99.999"/>
			<rect x="140.727" y="65.097" fill="#CCDEF0" stroke="#000000" stroke-miterlimit="10" width="99.986" height="99.998"/>
			<rect x="135.728" y="70.097" fill="#CCDEF0" stroke="#000000" stroke-miterlimit="10" width="99.987" height="99.998"/>
			<rect x="130.69" y="75.137" fill="#CCDEF0" stroke="#000000" stroke-miterlimit="10" width="99.987" height="99.999"/>
			<rect x="125.69" y="80.137" fill="#CCDEF0" stroke="#000000" stroke-miterlimit="10" width="99.987" height="99.999"/>
			<rect x="115.692" y="90.137" fill="#CCDEF0" stroke="#000000" stroke-miterlimit="10" width="99.987" height="99.999"/>
			<rect x="110.693" y="95.137" fill="#CCDEF0" stroke="#000000" stroke-miterlimit="10" width="99.986" height="99.999"/>
			<rect x="105.693" y="100.137" fill="#CCDEF0" stroke="#000000" stroke-miterlimit="10" width="99.986" height="99.999"/>
			<rect x="100.694" y="105.137" fill="#CCDEF0" stroke="#000000" stroke-miterlimit="10" width="99.987" height="99.999"/>
			<rect x="90.695" y="115.137" fill="#CCDEF0" stroke="#000000" stroke-miterlimit="10" width="99.986" height="99.999"/>
			<rect x="85.696" y="120.137" fill="#CCDEF0" stroke="#000000" stroke-miterlimit="10" width="99.987" height="99.999"/>
			<rect x="80.697" y="125.137" fill="#CCDEF0" stroke="#000000" stroke-miterlimit="10" width="99.986" height="99.999"/>
			<rect x="75.697" y="130.137" fill="#CCDEF0" stroke="#000000" stroke-miterlimit="10" width="99.988" height="99.999"/>
			<g>
				<path fill="none" stroke="#00AEEF" d="M180.548,235.065l0.294,0.293c0.652,0.652,1.206,0.969,1.662,0.951
					c0.456-0.02,1.098-0.445,1.927-1.273c1.393-1.391,2.429-2.369,3.109-2.928c0.68-0.561,1.369-0.914,2.064-1.059
					c0.697-0.146,1.526-0.049,2.487,0.295c-0.379-0.912-0.448-1.828-0.204-2.75c0.244-0.92,1.083-2.1,2.521-3.535
					c1.323-1.322,2.102-2.16,2.34-2.51c0.237-0.352,0.354-0.688,0.351-1.008c-0.003-0.32-0.331-0.807-0.982-1.457l-0.294-0.295"/>
			</g>
			<rect x="194.278" y="230.704" fill="none" width="6.629" height="8.17"/>
			<text transform="matrix(1 0 0 1 194.2773 237.1445)" fill="#00AEEF" font-size="9">Z</text>
			<g>
				<g>
					<line fill="none" stroke="#00AEEF" stroke-miterlimit="10" x1="178.321" y1="232.839" x2="190.23" y2="220.463"/>
					<g>
						<polygon fill="#00AEEF" points="190.59,222.184 193.301,217.271 188.496,220.169 						"/>
					</g>
				</g>
			</g>
			<g>
				<path fill="none" stroke="#00AEEF" d="M206.61,209.224l0.294,0.291c0.652,0.652,1.206,0.971,1.662,0.951
					s1.098-0.443,1.927-1.273c1.393-1.391,2.429-2.367,3.109-2.928s1.369-0.914,2.064-1.059c0.697-0.146,1.526-0.047,2.487,0.295
					c-0.379-0.912-0.448-1.828-0.204-2.748c0.244-0.92,1.083-2.1,2.521-3.537c1.323-1.32,2.102-2.158,2.34-2.51
					c0.237-0.35,0.354-0.688,0.351-1.006c-0.003-0.32-0.331-0.807-0.982-1.457l-0.294-0.297"/>
			</g>
			<rect x="220.341" y="204.86" fill="none" width="6.629" height="8.17"/>
			<text transform="matrix(1 0 0 1 220.3398 211.3027)" fill="#00AEEF" font-size="9">Z</text>
			<g>
				<g>
					<line fill="none" stroke="#00AEEF" stroke-miterlimit="10" x1="204.384" y1="206.997" x2="216.292" y2="194.621"/>
					<g>
						<polygon fill="#00AEEF" points="216.652,196.342 219.364,191.429 214.559,194.327 						"/>
					</g>
				</g>
			</g>
			<g>
				<path fill="none" stroke="#00AEEF" d="M231.593,184.462l0.294,0.291c0.652,0.652,1.206,0.971,1.662,0.951
					s1.098-0.443,1.927-1.273c1.393-1.391,2.429-2.367,3.109-2.928s1.369-0.914,2.064-1.059c0.697-0.146,1.526-0.047,2.487,0.295
					c-0.379-0.912-0.448-1.828-0.204-2.748c0.244-0.92,1.083-2.1,2.521-3.537c1.323-1.32,2.102-2.158,2.34-2.51
					c0.237-0.35,0.354-0.688,0.351-1.006c-0.003-0.32-0.331-0.807-0.982-1.457l-0.294-0.297"/>
			</g>
			<rect x="245.324" y="180.099" fill="none" width="6.629" height="8.17"/>
			<text transform="matrix(1 0 0 1 245.3223 186.5391)" fill="#00AEEF" font-size="9">Z</text>
			<g>
				<g>
					<line fill="none" stroke="#00AEEF" stroke-miterlimit="10" x1="229.367" y1="182.235" x2="241.275" y2="169.859"/>
					<g>
						<polygon fill="#00AEEF" points="241.635,171.58 244.347,166.667 239.542,169.565 						"/>
					</g>
				</g>
			</g>
			<g>
				<path fill="none" stroke="#00AEEF" d="M256.936,159.337l0.294,0.293c0.652,0.652,1.206,0.971,1.662,0.951
					s1.098-0.443,1.927-1.274c1.393-1.391,2.429-2.368,3.109-2.928c0.68-0.561,1.369-0.914,2.064-1.059
					c0.697-0.146,1.526-0.048,2.487,0.295c-0.379-0.912-0.448-1.828-0.204-2.749c0.244-0.92,1.083-2.1,2.521-3.536
					c1.323-1.321,2.102-2.159,2.34-2.51c0.237-0.351,0.354-0.688,0.351-1.007c-0.003-0.32-0.331-0.807-0.982-1.457l-0.294-0.296"/>
			</g>
			<rect x="270.667" y="154.975" fill="none" width="6.629" height="8.173"/>
			<text transform="matrix(1 0 0 1 270.6641 161.416)" fill="#00AEEF" font-size="9">Z</text>
			<g>
				<g>
					<line fill="none" stroke="#00AEEF" stroke-miterlimit="10" x1="254.709" y1="157.11" x2="266.618" y2="144.734"/>
					<g>
						<polygon fill="#00AEEF" points="266.978,146.455 269.689,141.542 264.884,144.44 						"/>
					</g>
				</g>
			</g>
			<g>
				<path fill="none" stroke="#00AEEF" d="M281.198,135.295l0.294,0.292c0.652,0.652,1.206,0.97,1.662,0.951
					c0.456-0.02,1.098-0.444,1.927-1.273c1.393-1.391,2.429-2.368,3.109-2.928c0.68-0.561,1.369-0.914,2.064-1.059
					c0.697-0.146,1.526-0.048,2.487,0.295c-0.379-0.912-0.448-1.828-0.204-2.749c0.244-0.92,1.083-2.1,2.521-3.536
					c1.323-1.321,2.102-2.159,2.34-2.51c0.237-0.351,0.354-0.688,0.351-1.007c-0.003-0.32-0.331-0.807-0.982-1.457l-0.294-0.296"/>
			</g>
			<rect x="294.928" y="130.933" fill="none" width="6.629" height="8.17"/>
			<text transform="matrix(1 0 0 1 294.9268 137.373)" fill="#00AEEF" font-size="9">Z</text>
			<g>
				<g>
					<line fill="none" stroke="#00AEEF" stroke-miterlimit="10" x1="278.971" y1="133.068" x2="290.88" y2="120.692"/>
					<g>
						<polygon fill="#00AEEF" points="291.24,122.413 293.951,117.5 289.146,120.399 						"/>
					</g>
				</g>
			</g>
			<text transform="matrix(1 -0.0019 0.0019 1 100.6973 140.1348)" fill="#ED1C24" font-size="11">+X</text>
			<text transform="matrix(1 -0.0019 0.0019 1 57.2456 153.5703)" fill="#0DB14B" font-size="11">+Y</text>
			<text transform="matrix(1 -0.0019 0.0019 1 55.0186 124.6382)"><tspan x="0" y="0" font-size="11">O</tspan><tspan x="8.556" y="3" font-size="9">1</tspan></text>
			<g>
				<g>
					<g>
						<line fill="none" stroke="#0DB14B" stroke-width="2" x1="76.118" y1="130.454" x2="76.118" y2="147.944"/>
						<g>
							<polygon fill="#0DB14B" points="73.212,145.963 76.118,156.804 79.023,145.963 							"/>
						</g>
					</g>
				</g>
				<g>
					<g>
						<line fill="none" stroke="#ED1C24" stroke-width="2" x1="76.015" y1="130.454" x2="95.445" y2="130.454"/>
						<g>
							<polygon fill="#ED1C24" points="93.463,133.359 104.304,130.454 93.463,127.549 							"/>
						</g>
					</g>
				</g>
			</g>
			<g>
				<path stroke="#000000" stroke-miterlimit="1" d="M81.709,130.144c0.007-3.043-2.463-5.504-5.501-5.504v5.504H81.709z"/>
				
					<path fill="#FFFFFF" stroke="#010101" stroke-width="0.75" stroke-linecap="round" stroke-linejoin="round" stroke-miterlimit="1" d="
					M76.208,124.64c-3.035,0-5.499,2.467-5.499,5.504h5.499V124.64z"/>
				<path stroke="#000000" stroke-miterlimit="1" d="M70.709,130.144c0.002,3.043,2.464,5.5,5.507,5.5l-0.008-5.5H70.709z"/>
				
					<path fill="#FFFFFF" stroke="#010101" stroke-width="0.75" stroke-linecap="round" stroke-linejoin="round" stroke-miterlimit="1" d="
					M76.208,130.144l0.008,5.5c3.034,0,5.5-2.465,5.493-5.5H76.208z"/>
			</g>
			<g>
				<g>
					<line fill="none" stroke="#000000" stroke-miterlimit="10" x1="217.351" y1="238.595" x2="339.225" y2="117.338"/>
					<g>
						<polygon points="339.547,119.067 342.365,114.214 337.498,117.007 						"/>
					</g>
				</g>
			</g>
			<rect x="205.677" y="240.958" fill="none" width="20" height="10.945"/>
			<text transform="matrix(1 0 0 1 205.6753 247.3984)" font-size="9">Time</text>
		</g>
	</g>
</g>
</svg>
