<?xml version="1.0" encoding="utf-8"?>

<!DOCTYPE svg PUBLIC "-//W3C//DTD SVG 1.1//EN" "http://www.w3.org/Graphics/SVG/1.1/DTD/svg11.dtd">
<svg version="1.1" id="Layer_1" xmlns="http://www.w3.org/2000/svg" xmlns:xlink="http://www.w3.org/1999/xlink" x="0px" y="0px"
	 width="702px" height="637px" viewBox="0 0 702 637" enable-background="new 0 0 702 637" xml:space="preserve">

<defs>
	<style type="text/css">
	text {
	  font-family: Helvetica, Verdana, ArialUnicodeMS, san-serif
	}
	</style>
</defs>

<g>
   <desc>
	PS3.19 2013 - Application Hosting
   </desc>
</g>

<g>
	<rect x="1" y="1" fill="#F5EED6" width="700" height="635"/>
	<g>
		<g>
			<line fill="none" stroke="#1C3766" x1="645.092" y1="511.293" x2="645.092" y2="542.034"/>
			<line fill="none" stroke="#1C3766" x1="645.092" y1="395.472" x2="645.092" y2="426.213"/>
			<line fill="none" stroke="#1C3766" x1="645.092" y1="279.622" x2="645.092" y2="310.363"/>
			<g>
				<g>
					<line fill="none" stroke="#00AEEF" x1="53.513" y1="126.945" x2="53.513" y2="179.131"/>
					<g>
						<polygon fill="#00AEEF" points="51.188,177.545 53.513,186.218 55.837,177.545 						"/>
					</g>
				</g>
			</g>
			<line fill="none" stroke="#1C3766" x1="53.513" y1="212.474" x2="53.513" y2="254.842"/>
			<g>
				<g>
					<line fill="none" stroke="#00AEEF" x1="94.161" y1="151.184" x2="94.161" y2="179.131"/>
					<g>
						<polygon fill="#00AEEF" points="91.837,177.545 94.161,186.218 96.485,177.545 						"/>
					</g>
				</g>
			</g>
			<g>
				<g>
					<line fill="none" stroke="#00AEEF" x1="157.515" y1="151.184" x2="157.515" y2="179.131"/>
					<g>
						<polygon fill="#00AEEF" points="155.19,177.545 157.515,186.218 159.839,177.545 						"/>
					</g>
				</g>
			</g>
			<g>
				<g>
					<line fill="none" stroke="#00AEEF" x1="217.589" y1="151.184" x2="217.589" y2="179.131"/>
					<g>
						<polygon fill="#00AEEF" points="215.265,177.545 217.589,186.218 219.913,177.545 						"/>
					</g>
				</g>
			</g>
			<g>
				<g>
					<line fill="none" stroke="#ED1C24" x1="287.846" y1="165.211" x2="287.846" y2="179.131"/>
					<g>
						<polygon fill="#ED1C24" points="285.521,177.545 287.846,186.218 290.17,177.545 						"/>
					</g>
				</g>
			</g>
			<g>
				<g>
					<line fill="none" stroke="#ED1C24" x1="353.229" y1="165.211" x2="353.229" y2="179.131"/>
					<g>
						<polygon fill="#ED1C24" points="350.905,177.545 353.229,186.218 355.554,177.545 						"/>
					</g>
				</g>
			</g>
			<g>
				<g>
					<line fill="none" stroke="#ED1C24" x1="564.83" y1="165.211" x2="564.83" y2="179.131"/>
					<g>
						<polygon fill="#ED1C24" points="562.506,177.545 564.83,186.218 567.154,177.545 						"/>
					</g>
				</g>
			</g>
			<g>
				<g>
					<line fill="none" stroke="#ED1C24" x1="446.658" y1="126.945" x2="446.658" y2="179.131"/>
					<g>
						<polygon fill="#ED1C24" points="444.334,177.545 446.658,186.218 448.982,177.545 						"/>
					</g>
				</g>
			</g>
			<line fill="none" stroke="#1C3766" x1="446.658" y1="212.474" x2="446.658" y2="252.483"/>
			<line fill="none" stroke="#1C3766" x1="446.658" y1="279.85" x2="446.658" y2="338.214"/>
			<line fill="none" stroke="#1C3766" x1="353.229" y1="212.474" x2="353.229" y2="252.483"/>
			<g>
				<g>
					<line fill="none" stroke="#ED1C24" x1="504.977" y1="165.211" x2="504.977" y2="245.396"/>
					<g>
						<polygon fill="#ED1C24" points="502.652,243.81 504.977,252.483 507.301,243.81 						"/>
					</g>
				</g>
			</g>
			<line fill="none" stroke="#1C3766" x1="645.092" y1="212.474" x2="645.092" y2="252.342"/>
			<g>
				<g>
					<polyline fill="none" stroke="#00AEEF" points="53.513,150.345 261.179,150.345 261.179,179.131 					"/>
					<g>
						<polygon fill="#00AEEF" points="258.854,177.545 261.179,186.218 263.503,177.545 						"/>
					</g>
				</g>
			</g>
			<g>
				<g>
					<line fill="none" stroke="#1C3766" x1="174.763" y1="42.235" x2="174.763" y2="93.622"/>
					<g>
						<polygon fill="#1C3766" points="172.438,92.037 174.763,100.709 177.087,92.037 						"/>
					</g>
				</g>
			</g>
			<g>
				<g>
					<polyline fill="none" stroke="#1C3766" points="174.763,64.345 446.207,64.345 446.207,93.622 					"/>
					<g>
						<polygon fill="#1C3766" points="443.883,92.037 446.207,100.709 448.531,92.037 						"/>
					</g>
				</g>
			</g>
			<polyline fill="none" stroke="#1C3766" points="274.758,213.021 274.758,235.391 336.846,235.391 336.846,252.235 			"/>
			<g>
				<g>
					<polyline fill="none" stroke="#1C3766" points="336.846,43.169 336.846,78.899 193.73,78.899 193.73,93.438 					"/>
					<g>
						<polygon fill="#1C3766" points="191.406,91.853 193.73,100.526 196.055,91.853 						"/>
					</g>
				</g>
			</g>
			<g>
				<g>
					<polyline fill="none" stroke="#1C3766" points="195.845,78.899 52.729,78.899 52.729,93.438 					"/>
					<g>
						<polygon fill="#1C3766" points="50.405,91.853 52.729,100.526 55.054,91.853 						"/>
					</g>
				</g>
			</g>
			<polyline fill="none" stroke="#1C3766" points="353.229,280.246 353.229,301.286 436.746,301.286 436.746,337.819 			"/>
			<polyline fill="none" stroke="#1C3766" points="515.783,280.246 515.783,301.286 457.475,301.286 457.475,337.819 			"/>
			<polyline fill="none" stroke="#1C3766" points="533.771,539.688 533.771,567.927 464.662,567.927 464.662,587.544 			"/>
			<polyline fill="none" stroke="#1C3766" points="563.859,213.872 563.859,235.391 524.99,235.391 524.99,253.086 			"/>
			<polyline fill="none" stroke="#1C3766" points="626.012,213.482 626.012,235.391 587.861,235.391 587.861,342.063 
				510.592,342.063 510.592,513.886 			"/>
			<polyline fill="none" stroke="#1C3766" points="637.756,337.104 637.756,354.294 525.947,354.294 525.947,513.886 			"/>
			<polyline fill="none" stroke="#1C3766" points="638.046,453.063 638.046,470.324 544.381,470.324 544.381,513.886 			"/>
			<polyline fill="none" stroke="#1C3766" points="645.091,567.937 645.091,591.127 593.512,591.127 593.512,492.136 
				559.713,492.136 559.713,514.163 			"/>
			<line fill="none" stroke="#1C3766" x1="446.658" y1="365.927" x2="446.658" y2="587.31"/>
			<polyline fill="none" stroke="#1C3766" points="220.252,213.343 220.252,394.534 428.303,394.534 428.303,587.476 			"/>
			<g>
				<g>
					<polyline fill="none" stroke="#ED1C24" points="226.045,179.131 226.045,165.211 645.092,165.211 645.092,179.131 					"/>
					<g>
						<polygon fill="#ED1C24" points="228.369,177.545 226.045,186.218 223.721,177.545 						"/>
					</g>
					<g>
						<polygon fill="#ED1C24" points="642.768,177.545 645.092,186.218 647.416,177.545 						"/>
					</g>
				</g>
			</g>
			<g>
				<g>
					<line fill="none" stroke="#0DB14B" x1="180.476" y1="126.945" x2="180.476" y2="179.131"/>
					<g>
						<polygon fill="#0DB14B" points="178.151,177.545 180.476,186.218 182.8,177.545 						"/>
					</g>
				</g>
			</g>
			<g>
				<g>
					<polyline fill="none" stroke="#0DB14B" points="180.476,165.211 110.846,165.211 110.846,179.131 					"/>
					<g>
						<polygon fill="#0DB14B" points="108.521,177.545 110.846,186.218 113.17,177.545 						"/>
					</g>
				</g>
			</g>
			<line fill="none" stroke="#1C3766" x1="652.291" y1="336.266" x2="652.291" y2="367.007"/>
			<line fill="none" stroke="#1C3766" x1="652.292" y1="452.115" x2="652.292" y2="482.856"/>
		</g>
		<g>
			<rect x="80.85" y="191.979" fill="#B2CEE7" stroke="#1C3766" width="41.023" height="26.035"/>
			<rect x="248.912" y="191.979" fill="#B2CEE7" stroke="#1C3766" width="51.691" height="26.035"/>
			<rect x="315.604" y="191.979" fill="#B2CEE7" stroke="#1C3766" width="75.252" height="26.035"/>
			<rect x="405.857" y="191.979" fill="#B2CEE7" stroke="#1C3766" width="80.701" height="26.035"/>
			<rect x="525.16" y="191.979" fill="#B2CEE7" stroke="#1C3766" width="75.355" height="26.035"/>
			<rect x="136.873" y="191.979" fill="#B2CEE7" stroke="#1C3766" width="56.586" height="26.035"/>
			<rect x="207.571" y="191.979" fill="#B2CEE7" stroke="#1C3766" width="27.234" height="26.035"/>
			<rect x="38.17" y="191.979" fill="#B2CEE7" stroke="#1C3766" width="27.68" height="26.035"/>
			<rect x="32.113" y="106.429" fill="#B2CEE7" stroke="#1C3766" width="42.798" height="26.056"/>
			<rect x="158.403" y="106.449" fill="#B2CEE7" stroke="#1C3766" width="44.146" height="26.035"/>
			<rect x="417.918" y="106.449" fill="#B2CEE7" stroke="#1C3766" width="57.48" height="26.035"/>
			<rect x="28.17" y="258.138" fill="#B2CEE7" stroke="#1C3766" width="56.586" height="28.012"/>
			<rect x="328.5" y="257.776" fill="#B2CEE7" stroke="#1C3766" width="49.461" height="28.014"/>
			<rect x="490.602" y="257.776" fill="#B2CEE7" stroke="#1C3766" width="50.35" height="28.014"/>
			<rect x="418.76" y="257.782" fill="#B2CEE7" stroke="#1C3766" width="54.91" height="28.003"/>
			<rect x="615.393" y="192.002" fill="#B2CEE7" stroke="#1C3766" width="54.371" height="26.035"/>
			<rect x="487.711" y="519.173" fill="#B2CEE7" stroke="#1C3766" width="92.246" height="25.014"/>
			<rect x="433.041" y="343.554" fill="#B2CEE7" stroke="#1C3766" width="27.234" height="26.037"/>
			<rect x="616.357" y="257.351" fill="#B2CEE7" stroke="#1C3766" width="57.473" height="27.965"/>
			<rect x="414.318" y="593.243" fill="#B2CEE7" stroke="#1C3766" width="64.68" height="27.994"/>
			<rect x="294.053" y="20.804" fill="#FFC20E" stroke="#1C3766" width="86.375" height="27.905"/>
			<rect x="131.58" y="21.738" fill="#FFC20E" stroke="#1C3766" width="86.367" height="26.036"/>
			<rect x="616.354" y="372.546" fill="#B2CEE7" stroke="#1C3766" width="57.475" height="27.967"/>
			<rect x="616.355" y="488.631" fill="#B2CEE7" stroke="#1C3766" width="57.473" height="27.967"/>
			<rect x="80.85" y="186.939" fill="#B2CEE7" stroke="#1C3766" width="41.023" height="26.035"/>
			<rect x="248.912" y="186.939" fill="#B2CEE7" stroke="#1C3766" width="51.691" height="26.035"/>
			<rect x="315.604" y="186.939" fill="#B2CEE7" stroke="#1C3766" width="75.252" height="26.035"/>
			<rect x="405.857" y="186.939" fill="#B2CEE7" stroke="#1C3766" width="80.701" height="26.035"/>
			<rect x="525.16" y="186.939" fill="#B2CEE7" stroke="#1C3766" width="75.355" height="25.535"/>
			<rect x="136.873" y="186.939" fill="#B2CEE7" stroke="#1C3766" width="56.586" height="26.035"/>
			<rect x="207.571" y="186.939" fill="#B2CEE7" stroke="#1C3766" width="27.234" height="26.035"/>
			<rect x="38.17" y="186.939" fill="#B2CEE7" stroke="#1C3766" width="27.68" height="26.035"/>
			<rect x="32.113" y="101.389" fill="#B2CEE7" stroke="#1C3766" width="42.798" height="26.056"/>
			<rect x="158.403" y="101.41" fill="#B2CEE7" stroke="#1C3766" width="44.146" height="26.035"/>
			<rect x="417.918" y="101.41" fill="#B2CEE7" stroke="#1C3766" width="57.48" height="26.035"/>
			<rect x="28.17" y="253.098" fill="#B2CEE7" stroke="#1C3766" width="56.586" height="28.012"/>
			<rect x="328.5" y="252.737" fill="#B2CEE7" stroke="#1C3766" width="49.461" height="28.014"/>
			<rect x="490.602" y="252.737" fill="#B2CEE7" stroke="#1C3766" width="50.35" height="28.014"/>
			<rect x="418.76" y="252.743" fill="#B2CEE7" stroke="#1C3766" width="54.91" height="28.003"/>
			<rect x="615.393" y="186.962" fill="#B2CEE7" stroke="#1C3766" width="54.371" height="26.035"/>
			<rect x="487.711" y="514.132" fill="#B2CEE7" stroke="#1C3766" width="92.246" height="25.014"/>
			<rect x="433.041" y="338.513" fill="#B2CEE7" stroke="#1C3766" width="27.234" height="26.037"/>
			<rect x="616.357" y="252.311" fill="#B2CEE7" stroke="#1C3766" width="57.473" height="27.965"/>
			<rect x="414.318" y="588.202" fill="#B2CEE7" stroke="#1C3766" width="64.68" height="27.994"/>
			<rect x="294.053" y="15.764" fill="#FFC20E" stroke="#1C3766" width="86.375" height="27.905"/>
			<rect x="131.58" y="16.699" fill="#FFC20E" stroke="#1C3766" width="86.367" height="26.036"/>
			<rect x="616.354" y="367.505" fill="#B2CEE7" stroke="#1C3766" width="57.475" height="27.967"/>
			<rect x="616.355" y="483.59" fill="#B2CEE7" stroke="#1C3766" width="57.473" height="27.967"/>
			<rect x="630.139" y="315.855" fill="#B2CEE7" stroke="#1C3766" width="29.906" height="26.036"/>
			<rect x="630.139" y="310.814" fill="#B2CEE7" stroke="#1C3766" width="29.906" height="26.036"/>
			<rect x="627.165" y="431.705" fill="#B2CEE7" stroke="#1C3766" width="29.906" height="26.035"/>
			<rect x="627.165" y="426.664" fill="#B2CEE7" stroke="#1C3766" width="29.906" height="26.035"/>
			<rect x="630.139" y="547.526" fill="#B2CEE7" stroke="#1C3766" width="29.906" height="26.035"/>
			<rect x="630.139" y="542.485" fill="#B2CEE7" stroke="#1C3766" width="29.906" height="26.035"/>
			<rect x="28.815" y="16.497" fill="#FFFFFF" stroke="#000000" width="70" height="12"/>
		</g>
		<g>
			<g>
				<g opacity="0.8">
					<rect x="83.348" y="191.892" fill="none" width="36.023" height="21.17"/>
					<text transform="matrix(1 0 0 1 90.2432 197.6157)"><tspan x="0" y="0" font-size="8">`type</tspan><tspan x="17.785" y="-3" font-size="8">a</tspan><tspan x="-6.895" y="9.6" font-size="8">Rectangle</tspan></text>
				</g>
				<rect x="83.348" y="191.892" fill="none" width="36.023" height="21.17"/>
				<text transform="matrix(1 0 0 1 90.2432 197.6157)"><tspan x="0" y="0" font-size="8">`type</tspan><tspan x="17.785" y="-3" font-size="8">a</tspan><tspan x="-6.895" y="9.6" font-size="8">Rectangle</tspan></text>
			</g>
			<g>
				<g opacity="0.8">
					<rect x="251.413" y="191.892" fill="none" width="46.691" height="21.17"/>
					<text transform="matrix(1 0 0 1 263.6396 197.6157)"><tspan x="0" y="0" font-size="8">`type</tspan><tspan x="17.785" y="-3" font-size="8">a</tspan><tspan x="-12.225" y="9.6" font-size="8">ArrayofString</tspan></text>
				</g>
				<rect x="251.413" y="191.892" fill="none" width="46.691" height="21.17"/>
				<text transform="matrix(1 0 0 1 263.6396 197.6157)"><tspan x="0" y="0" font-size="8">`type</tspan><tspan x="17.785" y="-3" font-size="8">a</tspan><tspan x="-12.225" y="9.6" font-size="8">ArrayofString</tspan></text>
			</g>
			<g>
				<g opacity="0.8">
					<rect x="318.104" y="191.892" fill="none" width="70.253" height="21.17"/>
					<text transform="matrix(1 0 0 1 342.1118 197.6157)"><tspan x="0" y="0" font-size="8">`type</tspan><tspan x="17.785" y="-3" font-size="8">a</tspan><tspan x="-24.006" y="9.6" font-size="8">ArrayofQueryResult</tspan></text>
				</g>
				<rect x="318.104" y="191.892" fill="none" width="70.253" height="21.17"/>
				<text transform="matrix(1 0 0 1 342.1118 197.6157)"><tspan x="0" y="0" font-size="8">`type</tspan><tspan x="17.785" y="-3" font-size="8">a</tspan><tspan x="-24.006" y="9.6" font-size="8">ArrayofQueryResult</tspan></text>
			</g>
			<g>
				<g opacity="0.8">
					<rect x="408.357" y="191.892" fill="none" width="75.703" height="21.17"/>
					<text transform="matrix(1 0 0 1 435.0898 197.6157)"><tspan x="0" y="0" font-size="8">`type</tspan><tspan x="17.785" y="-3" font-size="8">a</tspan><tspan x="-26.678" y="9.6" font-size="8">ArrayofObjectLocator</tspan></text>
				</g>
				<rect x="408.357" y="191.892" fill="none" width="75.703" height="21.17"/>
				<text transform="matrix(1 0 0 1 435.0898 197.6157)"><tspan x="0" y="0" font-size="8">`type</tspan><tspan x="17.785" y="-3" font-size="8">a</tspan><tspan x="-26.678" y="9.6" font-size="8">ArrayofObjectLocator</tspan></text>
			</g>
			<g>
				<g opacity="0.8">
					<rect x="527.662" y="191.892" fill="none" width="70.355" height="23.04"/>
					<text transform="matrix(1 0 0 1 551.7158 197.6147)"><tspan x="0" y="0" font-size="8">`type</tspan><tspan x="17.785" y="-3" font-size="8">a</tspan><tspan x="-24.008" y="9.6" font-size="8">ModelSetDescriptor</tspan></text>
				</g>
				<rect x="527.662" y="191.892" fill="none" width="70.355" height="23.04"/>
				<text transform="matrix(1 0 0 1 551.7158 197.6147)"><tspan x="0" y="0" font-size="8">`type</tspan><tspan x="17.785" y="-3" font-size="8">a</tspan><tspan x="-24.008" y="9.6" font-size="8">ModelSetDescriptor</tspan></text>
			</g>
			<g>
				<g opacity="0.8">
					<rect x="139.372" y="191.892" fill="none" width="51.586" height="21.17"/>
					<text transform="matrix(1 0 0 1 139.3716 197.6147)"><tspan x="0" y="0" font-size="8">`enumeration</tspan><tspan x="47.137" y="-3" font-size="8">a</tspan><tspan x="16.453" y="9.6" font-size="8">State</tspan></text>
				</g>
				<rect x="139.372" y="191.892" fill="none" width="51.586" height="21.17"/>
				<text transform="matrix(1 0 0 1 139.3716 197.6147)"><tspan x="0" y="0" font-size="8">`enumeration</tspan><tspan x="47.137" y="-3" font-size="8">a</tspan><tspan x="16.453" y="9.6" font-size="8">State</tspan></text>
			</g>
			<g>
				<g opacity="0.8">
					<rect x="210.071" y="191.892" fill="none" width="22.236" height="21.17"/>
					<text transform="matrix(1 0 0 1 210.0708 197.6147)"><tspan x="0" y="0" font-size="8">`type</tspan><tspan x="17.785" y="-3" font-size="8">a</tspan><tspan x="4.229" y="9.6" font-size="8">UID</tspan></text>
				</g>
				<rect x="210.071" y="191.892" fill="none" width="22.236" height="21.17"/>
				<text transform="matrix(1 0 0 1 210.0708 197.6147)"><tspan x="0" y="0" font-size="8">`type</tspan><tspan x="17.785" y="-3" font-size="8">a</tspan><tspan x="4.229" y="9.6" font-size="8">UID</tspan></text>
			</g>
			<g>
				<g opacity="0.8">
					<rect x="40.668" y="191.892" fill="none" width="22.68" height="21.17"/>
					<text transform="matrix(1 0 0 1 40.8916 197.6157)"><tspan x="0" y="0" font-size="8">`type</tspan><tspan x="17.785" y="-3" font-size="8">a</tspan><tspan x="-0.223" y="9.6" font-size="8">Status</tspan></text>
				</g>
				<rect x="40.668" y="191.892" fill="none" width="22.68" height="21.17"/>
				<text transform="matrix(1 0 0 1 40.8916 197.6157)"><tspan x="0" y="0" font-size="8">`type</tspan><tspan x="17.785" y="-3" font-size="8">a</tspan><tspan x="-0.223" y="9.6" font-size="8">Status</tspan></text>
			</g>
			<g>
				<g opacity="0.8">
					<rect x="34.613" y="106.361" fill="none" width="37.797" height="21.17"/>
					<text transform="matrix(1 0 0 1 34.6133 112.0835)"><tspan x="0" y="0" font-size="8">`interface</tspan><tspan x="33.348" y="-3" font-size="8">a</tspan><tspan x="10.674" y="9.6" font-size="8">Host</tspan></text>
				</g>
				<rect x="34.613" y="106.361" fill="none" width="37.797" height="21.17"/>
				<text transform="matrix(1 0 0 1 34.6133 112.0835)"><tspan x="0" y="0" font-size="8">`interface</tspan><tspan x="33.348" y="-3" font-size="8">a</tspan><tspan x="10.674" y="9.6" font-size="8">Host</tspan></text>
			</g>
			<g>
				<g opacity="0.8">
					<rect x="160.902" y="106.361" fill="none" width="39.145" height="21.17"/>
					<text transform="matrix(1 0 0 1 161.5767 112.084)"><tspan x="0" y="0" font-size="8">`interface</tspan><tspan x="33.348" y="-3" font-size="8">a</tspan><tspan x="-0.67" y="9.6" font-size="8">Application</tspan></text>
				</g>
				<rect x="160.902" y="106.361" fill="none" width="39.145" height="21.17"/>
				<text transform="matrix(1 0 0 1 161.5767 112.084)"><tspan x="0" y="0" font-size="8">`interface</tspan><tspan x="33.348" y="-3" font-size="8">a</tspan><tspan x="-0.67" y="9.6" font-size="8">Application</tspan></text>
			</g>
			<g>
				<rect x="420.42" y="106.361" fill="none" width="52.48" height="21.17"/>
				<text transform="matrix(1 0 0 1 427.7598 112.0845)"><tspan x="0" y="0" font-size="8">`interface</tspan><tspan x="33.348" y="-3" font-size="8">a</tspan><tspan x="-7.342" y="9.6" font-size="8">DataExchange</tspan></text>
			</g>
			<g>
				<g opacity="0.8">
					<rect x="30.668" y="258.049" fill="none" width="51.586" height="23.147"/>
					<text transform="matrix(1 0 0 1 30.6685 263.7734)"><tspan x="0" y="0" font-size="8">`enumeration</tspan><tspan x="47.137" y="-3" font-size="8">a</tspan><tspan x="4.449" y="9.6" font-size="8">Status Type</tspan></text>
				</g>
				<rect x="30.668" y="258.049" fill="none" width="51.586" height="23.147"/>
				<text transform="matrix(1 0 0 1 30.6685 263.7734)"><tspan x="0" y="0" font-size="8">`enumeration</tspan><tspan x="47.137" y="-3" font-size="8">a</tspan><tspan x="4.449" y="9.6" font-size="8">Status Type</tspan></text>
			</g>
			<g>
				<g opacity="0.8">
					<rect x="331.001" y="257.689" fill="none" width="44.461" height="23.147"/>
					<text transform="matrix(1 0 0 1 342.1118 263.4131)"><tspan x="0" y="0" font-size="8">`type</tspan><tspan x="17.785" y="-3" font-size="8">a</tspan><tspan x="-11.113" y="9.6" font-size="8">QueryResult</tspan></text>
				</g>
				<rect x="331.001" y="257.689" fill="none" width="44.461" height="23.147"/>
				<text transform="matrix(1 0 0 1 342.1118 263.4131)"><tspan x="0" y="0" font-size="8">`type</tspan><tspan x="17.785" y="-3" font-size="8">a</tspan><tspan x="-11.113" y="9.6" font-size="8">QueryResult</tspan></text>
			</g>
			<g>
				<g opacity="0.8">
					<rect x="493.104" y="257.689" fill="none" width="45.348" height="23.147"/>
					<text transform="matrix(1 0 0 1 504.6562 263.4131)"><tspan x="0" y="0" font-size="8">`type</tspan><tspan x="17.785" y="-3" font-size="8">a</tspan><tspan x="-11.553" y="9.6" font-size="8">ArrayofUUID</tspan></text>
				</g>
				<rect x="493.104" y="257.689" fill="none" width="45.348" height="23.147"/>
				<text transform="matrix(1 0 0 1 504.6562 263.4131)"><tspan x="0" y="0" font-size="8">`type</tspan><tspan x="17.785" y="-3" font-size="8">a</tspan><tspan x="-11.553" y="9.6" font-size="8">ArrayofUUID</tspan></text>
			</g>
			<g>
				<g opacity="0.8">
					<rect x="421.262" y="257.694" fill="none" width="49.91" height="23.138"/>
					<text transform="matrix(1 0 0 1 435.0977 263.418)"><tspan x="0" y="0" font-size="8">`type</tspan><tspan x="17.785" y="-3" font-size="8">a</tspan><tspan x="-13.785" y="9.6" font-size="8">ObjectLocator</tspan></text>
				</g>
				<rect x="421.262" y="257.694" fill="none" width="49.91" height="23.138"/>
				<text transform="matrix(1 0 0 1 435.0977 263.418)"><tspan x="0" y="0" font-size="8">`type</tspan><tspan x="17.785" y="-3" font-size="8">a</tspan><tspan x="-13.785" y="9.6" font-size="8">ObjectLocator</tspan></text>
			</g>
			<g>
				<g opacity="0.8">
					<rect x="617.895" y="191.914" fill="none" width="49.371" height="21.17"/>
					<text transform="matrix(1 0 0 1 631.4609 197.6382)"><tspan x="0" y="0" font-size="8">`type</tspan><tspan x="17.785" y="-3" font-size="8">a</tspan><tspan x="-13.564" y="9.6" font-size="8">AvailableData</tspan></text>
				</g>
				<rect x="617.895" y="191.914" fill="none" width="49.371" height="21.17"/>
				<text transform="matrix(1 0 0 1 631.4609 197.6382)"><tspan x="0" y="0" font-size="8">`type</tspan><tspan x="17.785" y="-3" font-size="8">a</tspan><tspan x="-13.564" y="9.6" font-size="8">AvailableData</tspan></text>
			</g>
			<g>
				<g opacity="0.8">
					<rect x="490.213" y="516.088" fill="none" width="87.246" height="23.146"/>
					<text transform="matrix(1 0 0 1 490.2656 521.8066)" font-size="8">ArrayOfObjectDescriptor</text>
				</g>
				<rect x="490.213" y="516.088" fill="none" width="87.246" height="23.146"/>
				<text transform="matrix(1 0 0 1 490.2656 521.8066)" font-size="8">ArrayOfObjectDescriptor</text>
			</g>
			<g>
				<g opacity="0.8">
					<rect x="435.543" y="343.467" fill="none" width="22.234" height="21.174"/>
					<text transform="matrix(1 0 0 1 435.541 349.1895)"><tspan x="0" y="0" font-size="8">`type</tspan><tspan x="17.785" y="-3" font-size="8">a</tspan><tspan x="1.34" y="9.6" font-size="8">UUID</tspan></text>
				</g>
				<rect x="435.543" y="343.467" fill="none" width="22.234" height="21.174"/>
				<text transform="matrix(1 0 0 1 435.541 349.1895)"><tspan x="0" y="0" font-size="8">`type</tspan><tspan x="17.785" y="-3" font-size="8">a</tspan><tspan x="1.34" y="9.6" font-size="8">UUID</tspan></text>
			</g>
			<g>
				<g opacity="0.8">
					<rect x="618.857" y="254.262" fill="none" width="52.473" height="26.101"/>
					<text transform="matrix(1 0 0 1 618.8594 269.5854)" font-size="8">ArrayOfPatient</text>
				</g>
				<rect x="618.857" y="254.262" fill="none" width="52.473" height="26.101"/>
				<text transform="matrix(1 0 0 1 618.8594 269.5854)" font-size="8">ArrayOfPatient</text>
			</g>
			<g>
				<g opacity="0.8">
					<rect x="416.82" y="593.148" fill="none" width="59.68" height="23.137"/>
					<text transform="matrix(1 0 0 1 435.541 598.877)"><tspan x="0" y="0" font-size="8">`type</tspan><tspan x="17.785" y="-3" font-size="8">a</tspan><tspan x="-18.67" y="9.6" font-size="8">ObjectDescriptor</tspan></text>
				</g>
				<rect x="416.82" y="593.148" fill="none" width="59.68" height="23.137"/>
				<text transform="matrix(1 0 0 1 435.541 598.877)"><tspan x="0" y="0" font-size="8">`type</tspan><tspan x="17.785" y="-3" font-size="8">a</tspan><tspan x="-18.67" y="9.6" font-size="8">ObjectDescriptor</tspan></text>
			</g>
			<g>
				<g opacity="0.8">
					<rect x="296.554" y="20.716" fill="none" width="81.375" height="23.04"/>
					<text transform="matrix(1 0 0 1 296.5552 26.4385)"><tspan x="0" y="0" font-size="8">`implementationClass</tspan><tspan x="76.917" y="-3" font-size="8">a</tspan><tspan x="7.777" y="9.6" font-size="8">ApplicationService</tspan></text>
				</g>
				<rect x="296.554" y="20.716" fill="none" width="81.375" height="23.04"/>
				<text transform="matrix(1 0 0 1 296.5552 26.4385)"><tspan x="0" y="0" font-size="8">`implementationClass</tspan><tspan x="76.917" y="-3" font-size="8">a</tspan><tspan x="7.777" y="9.6" font-size="8">ApplicationService</tspan></text>
			</g>
			<g>
				<g opacity="0.8">
					<rect x="134.079" y="21.651" fill="none" width="81.367" height="21.17"/>
					<text transform="matrix(1 0 0 1 134.0786 27.3735)"><tspan x="0" y="0" font-size="8">`implementationClass</tspan><tspan x="76.918" y="-3" font-size="8">a</tspan><tspan x="19.121" y="9.6" font-size="8">HostService</tspan></text>
				</g>
				<rect x="134.079" y="21.651" fill="none" width="81.367" height="21.17"/>
				<text transform="matrix(1 0 0 1 134.0786 27.3735)"><tspan x="0" y="0" font-size="8">`implementationClass</tspan><tspan x="76.918" y="-3" font-size="8">a</tspan><tspan x="19.121" y="9.6" font-size="8">HostService</tspan></text>
			</g>
			<g>
				<g opacity="0.8">
					<rect x="618.857" y="369.459" fill="none" width="52.473" height="26.102"/>
					<text transform="matrix(1 0 0 1 621.084 384.7793)" font-size="8">ArrayOfStudy</text>
				</g>
				<rect x="618.857" y="369.459" fill="none" width="52.473" height="26.102"/>
				<text transform="matrix(1 0 0 1 621.084 384.7793)" font-size="8">ArrayOfStudy</text>
			</g>
			<g>
				<g opacity="0.8">
					<rect x="618.857" y="485.545" fill="none" width="52.473" height="26.1"/>
					<text transform="matrix(1 0 0 1 619.9756 500.8652)" font-size="8">ArrayOfSeries</text>
				</g>
				<rect x="618.857" y="485.545" fill="none" width="52.473" height="26.1"/>
				<text transform="matrix(1 0 0 1 619.9756 500.8652)" font-size="8">ArrayOfSeries</text>
			</g>
			<g>
				<g opacity="0.8">
					<rect x="57.402" y="220.245" fill="none" width="16.894" height="8.574"/>
					<text transform="matrix(1 0 0 1 57.4023 226.6841)" font-size="9">1</text>
				</g>
				<rect x="57.402" y="220.245" fill="none" width="16.894" height="8.574"/>
				<text transform="matrix(1 0 0 1 57.4023 226.6841)" font-size="9">1</text>
			</g>
			<g>
				<g opacity="0.8">
					<rect x="57.402" y="241.044" fill="none" width="16.894" height="8.574"/>
					<text transform="matrix(1 0 0 1 57.4023 247.4839)" font-size="9">1</text>
				</g>
				<rect x="57.402" y="241.044" fill="none" width="16.894" height="8.574"/>
				<text transform="matrix(1 0 0 1 57.4023 247.4839)" font-size="9">1</text>
			</g>
			<g>
				<g opacity="0.8">
					<rect x="223.858" y="220.245" fill="none" width="16.894" height="8.574"/>
					<text transform="matrix(1 0 0 1 223.8584 226.6841)" font-size="9">1</text>
				</g>
				<rect x="223.858" y="220.245" fill="none" width="16.894" height="8.574"/>
				<text transform="matrix(1 0 0 1 223.8584 226.6841)" font-size="9">1</text>
			</g>
			<g>
				<g opacity="0.8">
					<rect x="357.373" y="290.044" fill="none" width="16.895" height="8.574"/>
					<text transform="matrix(1 0 0 1 357.373 296.4839)" font-size="9">1</text>
				</g>
				<rect x="357.373" y="290.044" fill="none" width="16.895" height="8.574"/>
				<text transform="matrix(1 0 0 1 357.373 296.4839)" font-size="9">1</text>
			</g>
			<g>
				<g opacity="0.8">
					<rect x="449.027" y="290.044" fill="none" width="16.895" height="8.574"/>
					<text transform="matrix(1 0 0 1 449.0273 296.4839)" font-size="9">1</text>
				</g>
				<rect x="449.027" y="290.044" fill="none" width="16.895" height="8.574"/>
				<text transform="matrix(1 0 0 1 449.0273 296.4839)" font-size="9">1</text>
			</g>
			<g>
				<g opacity="0.8">
					<rect x="449.027" y="325.244" fill="none" width="16.895" height="8.574"/>
					<text transform="matrix(1 0 0 1 449.0273 331.6836)" font-size="9">1</text>
				</g>
				<rect x="449.027" y="325.244" fill="none" width="16.895" height="8.574"/>
				<text transform="matrix(1 0 0 1 449.0273 331.6836)" font-size="9">1</text>
			</g>
			<g>
				<g opacity="0.8">
					<rect x="437.76" y="325.244" fill="none" width="16.895" height="8.574"/>
					<text transform="matrix(1 0 0 1 437.7598 331.6836)" font-size="9">1</text>
				</g>
				<rect x="437.76" y="325.244" fill="none" width="16.895" height="8.574"/>
				<text transform="matrix(1 0 0 1 437.7598 331.6836)" font-size="9">1</text>
			</g>
			<g>
				<g opacity="0.8">
					<rect x="449.027" y="372.682" fill="none" width="16.895" height="8.574"/>
					<text transform="matrix(1 0 0 1 449.0273 379.123)" font-size="9">1</text>
				</g>
				<rect x="449.027" y="372.682" fill="none" width="16.895" height="8.574"/>
				<text transform="matrix(1 0 0 1 449.0273 379.123)" font-size="9">1</text>
			</g>
			<g>
				<g opacity="0.8">
					<rect x="460.275" y="325.244" fill="none" width="16.895" height="8.574"/>
					<text transform="matrix(1 0 0 1 460.2754 331.6836)" font-size="9">0..*</text>
				</g>
				<rect x="460.275" y="325.244" fill="none" width="16.895" height="8.574"/>
				<text transform="matrix(1 0 0 1 460.2754 331.6836)" font-size="9">0..*</text>
			</g>
			<g>
				<g opacity="0.8">
					<rect x="448.305" y="578.734" fill="none" width="16.895" height="8.574"/>
					<text transform="matrix(1 0 0 1 448.3047 585.1738)" font-size="9">1</text>
				</g>
				<rect x="448.305" y="578.734" fill="none" width="16.895" height="8.574"/>
				<text transform="matrix(1 0 0 1 448.3047 585.1738)" font-size="9">1</text>
			</g>
			<g>
				<g opacity="0.8">
					<rect x="429.478" y="578.734" fill="none" width="16.895" height="8.574"/>
					<text transform="matrix(1 0 0 1 429.4766 585.1738)" font-size="9">1</text>
				</g>
				<rect x="429.478" y="578.734" fill="none" width="16.895" height="8.574"/>
				<text transform="matrix(1 0 0 1 429.4766 585.1738)" font-size="9">1</text>
			</g>
			<g>
				<g opacity="0.8">
					<rect x="467.473" y="578.734" fill="none" width="16.895" height="8.574"/>
					<text transform="matrix(1 0 0 1 467.4727 585.1738)" font-size="9">0..*</text>
				</g>
				<rect x="467.473" y="578.734" fill="none" width="16.895" height="8.574"/>
				<text transform="matrix(1 0 0 1 467.4727 585.1738)" font-size="9">0..*</text>
			</g>
			<g>
				<g opacity="0.8">
					<rect x="517.984" y="290.044" fill="none" width="16.895" height="8.574"/>
					<text transform="matrix(1 0 0 1 517.9824 296.4839)" font-size="9">1</text>
				</g>
				<rect x="517.984" y="290.044" fill="none" width="16.895" height="8.574"/>
				<text transform="matrix(1 0 0 1 517.9824 296.4839)" font-size="9">1</text>
			</g>
			<g>
				<g opacity="0.8">
					<rect x="512.541" y="504.377" fill="none" width="16.895" height="8.574"/>
					<text transform="matrix(1 0 0 1 512.5391 510.8184)" font-size="9">1</text>
				</g>
				<rect x="512.541" y="504.377" fill="none" width="16.895" height="8.574"/>
				<text transform="matrix(1 0 0 1 512.5391 510.8184)" font-size="9">1</text>
			</g>
			<g>
				<g opacity="0.8">
					<rect x="527.637" y="504.377" fill="none" width="16.895" height="8.574"/>
					<text transform="matrix(1 0 0 1 527.6328 510.8184)" font-size="9">1</text>
				</g>
				<rect x="527.637" y="504.377" fill="none" width="16.895" height="8.574"/>
				<text transform="matrix(1 0 0 1 527.6328 510.8184)" font-size="9">1</text>
			</g>
			<g>
				<g opacity="0.8">
					<rect x="546.328" y="504.377" fill="none" width="16.895" height="8.574"/>
					<text transform="matrix(1 0 0 1 546.3262 510.8184)" font-size="9">1</text>
				</g>
				<rect x="546.328" y="504.377" fill="none" width="16.895" height="8.574"/>
				<text transform="matrix(1 0 0 1 546.3262 510.8184)" font-size="9">1</text>
			</g>
			<g>
				<g opacity="0.8">
					<rect x="562.141" y="504.377" fill="none" width="16.895" height="8.574"/>
					<text transform="matrix(1 0 0 1 562.1396 510.8184)" font-size="9">1</text>
				</g>
				<rect x="562.141" y="504.377" fill="none" width="16.895" height="8.574"/>
				<text transform="matrix(1 0 0 1 562.1396 510.8184)" font-size="9">1</text>
			</g>
			<g>
				<g opacity="0.8">
					<rect x="535.934" y="546.988" fill="none" width="16.895" height="8.574"/>
					<text transform="matrix(1 0 0 1 535.9326 553.4297)" font-size="9">1</text>
				</g>
				<rect x="535.934" y="546.988" fill="none" width="16.895" height="8.574"/>
				<text transform="matrix(1 0 0 1 535.9326 553.4297)" font-size="9">1</text>
			</g>
			<g>
				<g opacity="0.8">
					<rect x="639.208" y="345.248" fill="none" width="16.895" height="8.574"/>
					<text transform="matrix(1 0 0 1 639.207 351.6865)" font-size="9">1</text>
				</g>
				<rect x="639.208" y="345.248" fill="none" width="16.895" height="8.574"/>
				<text transform="matrix(1 0 0 1 639.207 351.6865)" font-size="9">1</text>
			</g>
			<g>
				<g opacity="0.8">
					<rect x="647.654" y="288.605" fill="none" width="16.895" height="20.316"/>
					<text transform="matrix(1 0 0 1 647.6553 295.0439)"><tspan x="0" y="0" font-size="9">1</tspan><tspan x="0" y="10.8" font-size="9">1</tspan></text>
				</g>
				<rect x="647.654" y="288.605" fill="none" width="16.895" height="20.316"/>
				<text transform="matrix(1 0 0 1 647.6553 295.0439)"><tspan x="0" y="0" font-size="9">1</tspan><tspan x="0" y="10.8" font-size="9">1</tspan></text>
			</g>
			<g>
				<g opacity="0.8">
					<rect x="632.641" y="315.767" fill="none" width="24.906" height="21.172"/>
					<text transform="matrix(1 0 0 1 633.9766 321.4863)"><tspan x="0" y="0" font-size="8">`type</tspan><tspan x="17.785" y="-3" font-size="8">a</tspan><tspan x="-1.336" y="9.6" font-size="8">Patient</tspan></text>
				</g>
				<rect x="632.641" y="315.767" fill="none" width="24.906" height="21.172"/>
				<text transform="matrix(1 0 0 1 633.9766 321.4863)"><tspan x="0" y="0" font-size="8">`type</tspan><tspan x="17.785" y="-3" font-size="8">a</tspan><tspan x="-1.336" y="9.6" font-size="8">Patient</tspan></text>
			</g>
			<g>
				<g opacity="0.8">
					<rect x="656.295" y="345.248" fill="none" width="16.895" height="20.316"/>
					<text transform="matrix(1 0 0 1 656.2949 351.6875)"><tspan x="0" y="0" font-size="9">1</tspan><tspan x="0" y="10.8" font-size="9">1</tspan></text>
				</g>
				<rect x="656.295" y="345.248" fill="none" width="16.895" height="20.316"/>
				<text transform="matrix(1 0 0 1 656.2949 351.6875)"><tspan x="0" y="0" font-size="9">1</tspan><tspan x="0" y="10.8" font-size="9">1</tspan></text>
			</g>
			<g>
				<g opacity="0.8">
					<rect x="639.208" y="459.914" fill="none" width="16.895" height="8.574"/>
					<text transform="matrix(1 0 0 1 639.207 466.3525)" font-size="9">1</text>
				</g>
				<rect x="639.208" y="459.914" fill="none" width="16.895" height="8.574"/>
				<text transform="matrix(1 0 0 1 639.207 466.3525)" font-size="9">1</text>
			</g>
			<g>
				<g opacity="0.8">
					<rect x="656.295" y="459.914" fill="none" width="16.895" height="20.316"/>
					<text transform="matrix(1 0 0 1 656.2949 466.3535)"><tspan x="0" y="0" font-size="9">1</tspan><tspan x="0" y="10.8" font-size="9">1</tspan></text>
				</g>
				<rect x="656.295" y="459.914" fill="none" width="16.895" height="20.316"/>
				<text transform="matrix(1 0 0 1 656.2949 466.3535)"><tspan x="0" y="0" font-size="9">1</tspan><tspan x="0" y="10.8" font-size="9">1</tspan></text>
			</g>
			<g>
				<g opacity="0.8">
					<rect x="647.654" y="403.246" fill="none" width="16.895" height="20.316"/>
					<text transform="matrix(1 0 0 1 647.6553 409.6855)"><tspan x="0" y="0" font-size="9">1</tspan><tspan x="0" y="10.799" font-size="9">0..*</tspan></text>
				</g>
				<rect x="647.654" y="403.246" fill="none" width="16.895" height="20.316"/>
				<text transform="matrix(1 0 0 1 647.6553 409.6855)"><tspan x="0" y="0" font-size="9">1</tspan><tspan x="0" y="10.799" font-size="9">0..*</tspan></text>
			</g>
			<g>
				<g opacity="0.8">
					<rect x="647.655" y="575.404" fill="none" width="16.895" height="8.574"/>
					<text transform="matrix(1 0 0 1 647.6543 581.8438)" font-size="9">1</text>
				</g>
				<rect x="647.655" y="575.404" fill="none" width="16.895" height="8.574"/>
				<text transform="matrix(1 0 0 1 647.6543 581.8438)" font-size="9">1</text>
			</g>
			<g>
				<g opacity="0.8">
					<rect x="647.654" y="518.738" fill="none" width="16.895" height="20.316"/>
					<text transform="matrix(1 0 0 1 647.6553 525.1758)"><tspan x="0" y="0" font-size="9">1</tspan><tspan x="0" y="10.801" font-size="9">0..*</tspan></text>
				</g>
				<rect x="647.654" y="518.738" fill="none" width="16.895" height="20.316"/>
				<text transform="matrix(1 0 0 1 647.6553 525.1758)"><tspan x="0" y="0" font-size="9">1</tspan><tspan x="0" y="10.801" font-size="9">0..*</tspan></text>
			</g>
			<g>
				<g opacity="0.8">
					<rect x="629.667" y="431.617" fill="none" width="24.906" height="21.172"/>
					<text transform="matrix(1 0 0 1 631.002 437.3359)"><tspan x="0" y="0" font-size="8">`type</tspan><tspan x="17.785" y="-3" font-size="8">a</tspan><tspan x="0.889" y="9.6" font-size="8">Study</tspan></text>
				</g>
				<rect x="629.667" y="431.617" fill="none" width="24.906" height="21.172"/>
				<text transform="matrix(1 0 0 1 631.002 437.3359)"><tspan x="0" y="0" font-size="8">`type</tspan><tspan x="17.785" y="-3" font-size="8">a</tspan><tspan x="0.889" y="9.6" font-size="8">Study</tspan></text>
			</g>
			<path fill="none" stroke="#1C3766" d="M645.092,591.479"/>
			<path fill="none" stroke="#1C3766" d="M645.092,567.937"/>
			<g>
				<g opacity="0.8">
					<rect x="632.641" y="547.438" fill="none" width="24.906" height="21.174"/>
					<text transform="matrix(1 0 0 1 633.9766 553.1582)"><tspan x="0" y="0" font-size="8">`type</tspan><tspan x="17.785" y="-3" font-size="8">a</tspan><tspan x="-0.221" y="9.6" font-size="8">Series</tspan></text>
				</g>
				<rect x="632.641" y="547.438" fill="none" width="24.906" height="21.174"/>
				<text transform="matrix(1 0 0 1 633.9766 553.1582)"><tspan x="0" y="0" font-size="8">`type</tspan><tspan x="17.785" y="-3" font-size="8">a</tspan><tspan x="-0.221" y="9.6" font-size="8">Series</tspan></text>
			</g>
			<g>
				<g opacity="0.8">
					<rect x="449.329" y="220.245" fill="none" width="16.894" height="8.574"/>
					<text transform="matrix(1 0 0 1 449.3291 226.6841)" font-size="9">1</text>
				</g>
				<rect x="449.329" y="220.245" fill="none" width="16.894" height="8.574"/>
				<text transform="matrix(1 0 0 1 449.3291 226.6841)" font-size="9">1</text>
			</g>
			<g>
				<g opacity="0.8">
					<rect x="449.329" y="241.044" fill="none" width="16.894" height="8.574"/>
					<text transform="matrix(1 0 0 1 449.3291 247.4839)" font-size="9">0..*</text>
				</g>
				<rect x="449.329" y="241.044" fill="none" width="16.894" height="8.574"/>
				<text transform="matrix(1 0 0 1 449.3291 247.4839)" font-size="9">0..*</text>
			</g>
			<g>
				<g opacity="0.8">
					<rect x="527.66" y="241.044" fill="none" width="16.894" height="8.574"/>
					<text transform="matrix(1 0 0 1 527.6602 247.4839)" font-size="9">1</text>
				</g>
				<rect x="527.66" y="241.044" fill="none" width="16.894" height="8.574"/>
				<text transform="matrix(1 0 0 1 527.6602 247.4839)" font-size="9">1</text>
			</g>
			<g>
				<g opacity="0.8">
					<rect x="567.055" y="220.245" fill="none" width="16.894" height="8.574"/>
					<text transform="matrix(1 0 0 1 567.0547 226.6841)" font-size="9">1</text>
				</g>
				<rect x="567.055" y="220.245" fill="none" width="16.894" height="8.574"/>
				<text transform="matrix(1 0 0 1 567.0547 226.6841)" font-size="9">1</text>
			</g>
			<g>
				<g opacity="0.8">
					<rect x="628.889" y="220.245" fill="none" width="16.894" height="8.574"/>
					<text transform="matrix(1 0 0 1 628.8887 226.6841)" font-size="9">1</text>
				</g>
				<rect x="628.889" y="220.245" fill="none" width="16.894" height="8.574"/>
				<text transform="matrix(1 0 0 1 628.8887 226.6841)" font-size="9">1</text>
			</g>
			<g>
				<g opacity="0.8">
					<rect x="651.041" y="220.245" fill="none" width="16.894" height="8.574"/>
					<text transform="matrix(1 0 0 1 651.041 226.6841)" font-size="9">1</text>
				</g>
				<rect x="651.041" y="220.245" fill="none" width="16.894" height="8.574"/>
				<text transform="matrix(1 0 0 1 651.041 226.6841)" font-size="9">1</text>
			</g>
			<g>
				<g opacity="0.8">
					<rect x="651.041" y="241.044" fill="none" width="16.894" height="8.574"/>
					<text transform="matrix(1 0 0 1 651.041 247.4839)" font-size="9">1</text>
				</g>
				<rect x="651.041" y="241.044" fill="none" width="16.894" height="8.574"/>
				<text transform="matrix(1 0 0 1 651.041 247.4839)" font-size="9">1</text>
			</g>
			<g>
				<g opacity="0.8">
					<rect x="279.398" y="220.245" fill="none" width="16.894" height="8.574"/>
					<text transform="matrix(1 0 0 1 279.3984 226.6841)" font-size="9">1</text>
				</g>
				<rect x="279.398" y="220.245" fill="none" width="16.894" height="8.574"/>
				<text transform="matrix(1 0 0 1 279.3984 226.6841)" font-size="9">1</text>
			</g>
			<g>
				<g opacity="0.8">
					<rect x="340.479" y="241.044" fill="none" width="16.894" height="8.574"/>
					<text transform="matrix(1 0 0 1 340.48 247.4839)" font-size="9">1</text>
				</g>
				<rect x="340.479" y="241.044" fill="none" width="16.894" height="8.574"/>
				<text transform="matrix(1 0 0 1 340.48 247.4839)" font-size="9">1</text>
			</g>
			<g>
				<g opacity="0.8">
					<rect x="358.197" y="220.245" fill="none" width="16.895" height="8.574"/>
					<text transform="matrix(1 0 0 1 358.1992 226.6841)" font-size="9">1</text>
				</g>
				<rect x="358.197" y="220.245" fill="none" width="16.895" height="8.574"/>
				<text transform="matrix(1 0 0 1 358.1992 226.6841)" font-size="9">1</text>
			</g>
			<g>
				<g opacity="0.8">
					<rect x="358.197" y="241.044" fill="none" width="16.895" height="8.574"/>
					<text transform="matrix(1 0 0 1 358.1992 247.4839)" font-size="9">0..*</text>
				</g>
				<rect x="358.197" y="241.044" fill="none" width="16.895" height="8.574"/>
				<text transform="matrix(1 0 0 1 358.1992 247.4839)" font-size="9">0..*</text>
			</g>
			<g>
				<g opacity="0.8">
					<rect x="28.641" y="18.644" fill="none" width="69.626" height="10.586"/>
					<text transform="matrix(1 0 0 1 31.2207 24.3672)" font-size="8">class Class Model</text>
				</g>
				<rect x="28.641" y="18.644" fill="none" width="69.626" height="10.586"/>
				<text transform="matrix(1 0 0 1 31.2207 24.3672)" font-size="8">class Class Model</text>
			</g>
		</g>
	</g>
</g>
</svg>
