<?xml version="1.0" encoding="utf-8"?>

<!DOCTYPE svg PUBLIC "-//W3C//DTD SVG 1.1//EN" "http://www.w3.org/Graphics/SVG/1.1/DTD/svg11.dtd">
<svg version="1.1" id="Layer_1" xmlns="http://www.w3.org/2000/svg" xmlns:xlink="http://www.w3.org/1999/xlink" x="0px" y="0px"
	 width="502px" height="492px" viewBox="0 0 502 492" enable-background="new 0 0 502 492" xml:space="preserve">

<defs>
	<style type="text/css">
	text {
	  font-family: Helvetica, Verdana, ArialUnicodeMS, san-serif
	}
	</style>
</defs>

<g>
   <desc>
	PS3.19 2013 - Application Hosting
   </desc>
</g>

<g>
	<rect x="1" y="1" fill="#F5EED6" width="500" height="490"/>
	<g>
		<text transform="matrix(1 0 0 1 90.6079 26.9492)" fill="#0DB14B" font-size="11">START</text>
		<g>
			<g>
				<path fill="none" stroke="#005695" d="M396.533,340.331c-11.53,11.062-26.771,17.791-43.483,17.791
					c-35.968,0-65.127-31.173-65.127-69.627"/>
				<g>
					<polygon fill="#005695" points="393.718,339.838 401.384,335.163 397.083,343.045 					"/>
				</g>
			</g>
		</g>
		<g>
			<g>
				<path fill="none" stroke="#005695" d="M303.922,242.785c11.939-14.654,29.522-23.917,49.128-23.917
					c35.969,0,65.129,31.173,65.129,69.627c0,2.135-0.09,4.247-0.266,6.333"/>
				<g>
					<polygon fill="#005695" points="306.766,242.922 299.731,248.502 303.033,240.152 					"/>
				</g>
			</g>
		</g>
		<g>
			<g>
				<path fill="none" stroke="#005695" d="M78.15,285.92c-14.854-18.434-23.722-41.727-23.722-67.052
					c0-29.678,12.178-56.564,31.896-76.11"/>
				<g>
					<polygon fill="#005695" points="86.804,145.577 91.516,137.934 83.613,142.196 					"/>
				</g>
			</g>
		</g>
		<g>
			<g>
				<path fill="none" stroke="#005695" d="M248.185,289.489c-20.216,23.003-50.132,37.563-83.515,37.563
					c-8.27,0-16.326-0.894-24.076-2.588"/>
				<g>
					<polygon fill="#005695" points="142.702,322.566 133.725,322.732 141.582,327.078 					"/>
				</g>
			</g>
		</g>
		<g>
			<g>
				<path fill="none" stroke="#005695" d="M143.598,112.658c6.82-1.296,13.865-1.975,21.072-1.975
					c60.004,0,108.812,47.045,110.209,105.601"/>
				<g>
					<polygon fill="#005695" points="272.502,214.698 274.816,223.373 277.15,214.703 					"/>
				</g>
			</g>
		</g>
		<g>
			<g>
				<path fill="none" stroke="#005695" d="M267.516,293.391c4.286,11.37,6.631,23.691,6.631,36.561
					c0,47.561-32.029,87.639-75.694,99.844"/>
				<g>
					<polygon fill="#005695" points="199.417,427.116 191.562,431.467 200.54,431.627 					"/>
				</g>
			</g>
		</g>
		<g>
			<g>
				<path fill="none" stroke="#005695" d="M135.361,84.722c29.257-15.783,62.939-24.773,98.784-24.773
					c38.909,0,75.27,10.592,106.188,28.968"/>
				<g>
					<polygon fill="#005695" points="337.755,90.086 346.362,92.642 340.187,86.124 					"/>
				</g>
			</g>
		</g>
		<g>
			<g>
				<path fill="none" stroke="#005695" d="M127.013,425.806C69.078,390.951,30.49,328.672,30.49,257.644
					c0-47.166,17.016-90.474,45.413-124.456"/>
				<g>
					<polygon fill="#005695" points="76.654,135.925 80.542,127.832 73.128,132.896 					"/>
				</g>
			</g>
		</g>
		<g>
			<g>
				<path fill="none" stroke="#005695" d="M413.22,351.876c-34.486,61.627-101.747,103.463-179.074,103.463
					c-11.423,0-22.627-0.913-33.538-2.668"/>
				<g>
					<polygon fill="#005695" points="202.572,450.598 193.632,451.427 201.789,455.18 					"/>
				</g>
			</g>
		</g>
		<g>
			<g>
				<line fill="none" stroke="#005695" x1="108.603" y1="29.422" x2="108.603" y2="64.293"/>
				<g>
					<polygon fill="#005695" points="106.278,62.708 108.603,71.381 110.927,62.708 					"/>
				</g>
			</g>
		</g>
		<g>
			<circle fill="#FFFFFF" stroke="#4F8ABE" stroke-width="3" cx="264.938" cy="257.644" r="33.5"/>
			<text transform="matrix(1 0 0 1 260.4375 253.9648)"><tspan x="0" y="0" font-size="9">IN</tspan><tspan x="-21.006" y="10.8" font-size="9">PROGRESS</tspan></text>
		</g>
		<circle fill="#FFFFFF" stroke="#000000" stroke-width="4" cx="377.543" cy="104.881" r="33.5"/>
		<g>
			<circle fill="#FFFFFF" stroke="#4F8ABE" stroke-width="3" cx="108.603" cy="104.881" r="33.504"/>
			<circle fill="#FFFFFF" stroke="#4F8ABE" cx="108.603" cy="104.881" r="29"/>
			<text transform="matrix(1 0 0 1 98.5991 108.3965)" font-size="9">IDLE</text>
		</g>
		<g>
			<circle fill="#FFFFFF" stroke="#4F8ABE" stroke-width="3" cx="104.103" cy="307.097" r="33.5"/>
			<text transform="matrix(1 0 0 1 76.0991 310.625)" font-size="9">COMPLETED</text>
		</g>
		<g>
			<circle fill="#FFFFFF" stroke="#4F8ABE" stroke-width="3" cx="156.719" cy="441.302" r="33.5"/>
			<text transform="matrix(1 0 0 1 132.2158 444.832)" font-size="9">CANCELED</text>
		</g>
		<g>
			<circle fill="#FFFFFF" stroke="#4F8ABE" stroke-width="3" cx="438.01" cy="327.143" r="33.5"/>
			<text transform="matrix(1 0 0 1 410.0078 330.6719)" font-size="9">SUSPENDED</text>
		</g>
		<rect x="189.998" y="139.981" fill="#F5EED6" width="117" height="24"/>
		<rect x="328.664" y="228.569" fill="#F5EED6" width="120" height="24.001"/>
		<rect x="143.268" y="297.545" fill="#F5EED6" width="122" height="24"/>
		<rect x="328.288" y="403.324" fill="#F5EED6" width="107" height="14"/>
		<rect x="283.47" y="321.134" fill="#F5EED6" width="110" height="14"/>
		<rect x="190.218" y="398.405" fill="#F5EED6" width="105" height="14"/>
		<rect x="48.791" y="388.206" fill="#F5EED6" width="81" height="14"/>
		<rect x="38.031" y="233.57" fill="#F5EED6" width="80" height="14"/>
		<rect x="204.017" y="47.402" fill="#F5EED6" width="82" height="24"/>
		<g>
			<text transform="matrix(1 0 0 1 367.541 107.3848)" font-size="9">EXIT</text>
		</g>
		<text transform="matrix(1 0 0 1 367.541 107.3867)" font-size="9">EXIT</text>
		<text transform="matrix(1 0 0 1 193.6313 149.4023)"><tspan x="0" y="0" font-size="8">setState(State.INPROGRESS)</tspan><tspan x="0" y="9.6" font-size="8">/host.notifyDataAvailable()</tspan></text>
		<text transform="matrix(1 0 0 1 193.6313 407.8008)" font-size="8">setState(State.CANCELED)</text>
		<text transform="matrix(1 0 0 1 209.2539 57.0801)"><tspan x="0" y="0" font-size="8">setState(State.EXIT)</tspan><tspan x="0" y="9.6" font-size="8">/Application.exit()</tspan></text>
		<text transform="matrix(1 0 0 1 286.6973 330.6699)" font-size="8">setState(State.SUSPENDED)</text>
		<text transform="matrix(1 0 0 1 146.4541 307.0957)"><tspan x="0" y="0" font-size="8">setState(State.COMPLETED)</tspan><tspan x="0" y="9.6" font-size="8">/Application.notifyDataAvailable()</tspan></text>
		<text transform="matrix(1 0 0 1 52.1353 397.625)" font-size="8">setState(State.IDLE)</text>
		<text transform="matrix(1 0 0 1 330.7363 412.625)" font-size="8">setState(State.CANCELED)</text>
		<text transform="matrix(1 0 0 1 330.7363 238.4688)"><tspan x="0" y="0" font-size="8">setState(State.INPROGRESS)</tspan><tspan x="0" y="9.6" font-size="8">/Application.resumeProcessing()</tspan></text>
		<text transform="matrix(1 0 0 1 41.1465 242.3711)" font-size="8">setState(State.IDLE)</text>
	</g>
</g>
</svg>
