<?xml version="1.0" encoding="utf-8"?>

<!DOCTYPE svg PUBLIC "-//W3C//DTD SVG 1.1//EN" "http://www.w3.org/Graphics/SVG/1.1/DTD/svg11.dtd">
<svg version="1.1" id="Layer_1" xmlns="http://www.w3.org/2000/svg" xmlns:xlink="http://www.w3.org/1999/xlink" x="0px" y="0px"
	 width="702px" height="287px" viewBox="0 0 702 287" enable-background="new 0 0 702 287" xml:space="preserve">

<defs>
	<style type="text/css">
	text {
	  font-family: Helvetica, Verdana, ArialUnicodeMS, san-serif
	}
	</style>
</defs>

<g>
   <desc>
	PS3.19 2013 - Application Hosting
   </desc>
</g>

<g>
	<rect x="1" y="1" fill="#F5EED6" width="700" height="285"/>
	<g>
		<g>
			<rect x="193.684" y="15.167" fill="#CCDEF0" stroke="#000000" stroke-miterlimit="10" width="99.986" height="100"/>
			<rect x="188.683" y="20.167" fill="#CCDEF0" stroke="#000000" stroke-miterlimit="10" width="99.987" height="100"/>
			<rect x="183.684" y="25.167" fill="#CCDEF0" stroke="#000000" stroke-miterlimit="10" width="99.986" height="100"/>
			<rect x="178.685" y="30.167" fill="#CCDEF0" stroke="#000000" stroke-miterlimit="10" width="99.987" height="100"/>
			<rect x="173.685" y="35.167" fill="#CCDEF0" stroke="#000000" stroke-miterlimit="10" width="99.987" height="100"/>
			<rect x="168.686" y="40.167" fill="#CCDEF0" stroke="#000000" stroke-miterlimit="10" width="99.986" height="100"/>
			<g>
				<g>
					<line fill="none" stroke="#000000" stroke-miterlimit="10" x1="163.687" y1="45.167" x2="165.687" y2="45.167"/>
					
						<line fill="none" stroke="#000000" stroke-miterlimit="10" stroke-dasharray="3.8395,3.8395" x1="169.526" y1="45.167" x2="259.754" y2="45.167"/>
					<polyline fill="none" stroke="#000000" stroke-miterlimit="10" points="261.674,45.167 263.674,45.167 263.674,47.167 					"/>
					
						<line fill="none" stroke="#000000" stroke-miterlimit="10" stroke-dasharray="3.84,3.84" x1="263.674" y1="51.007" x2="263.674" y2="141.246"/>
					<line fill="none" stroke="#000000" stroke-miterlimit="10" x1="263.674" y1="143.166" x2="263.674" y2="145.166"/>
				</g>
			</g>
			<g>
				<g>
					<line fill="none" stroke="#000000" stroke-miterlimit="10" x1="158.687" y1="50.167" x2="160.687" y2="50.167"/>
					
						<line fill="none" stroke="#000000" stroke-miterlimit="10" stroke-dasharray="3.8395,3.8395" x1="164.526" y1="50.167" x2="254.754" y2="50.167"/>
					<polyline fill="none" stroke="#000000" stroke-miterlimit="10" points="256.674,50.167 258.674,50.167 258.674,52.167 					"/>
					
						<line fill="none" stroke="#000000" stroke-miterlimit="10" stroke-dasharray="3.84,3.84" x1="258.674" y1="56.007" x2="258.674" y2="146.246"/>
					<line fill="none" stroke="#000000" stroke-miterlimit="10" x1="258.674" y1="148.166" x2="258.674" y2="150.166"/>
				</g>
			</g>
			<g>
				<g>
					<line fill="none" stroke="#000000" stroke-miterlimit="10" x1="153.688" y1="55.167" x2="155.688" y2="55.167"/>
					
						<line fill="none" stroke="#000000" stroke-miterlimit="10" stroke-dasharray="3.8394,3.8394" x1="159.527" y1="55.167" x2="249.754" y2="55.167"/>
					<polyline fill="none" stroke="#000000" stroke-miterlimit="10" points="251.674,55.167 253.674,55.167 253.674,57.167 					"/>
					
						<line fill="none" stroke="#000000" stroke-miterlimit="10" stroke-dasharray="3.84,3.84" x1="253.674" y1="61.007" x2="253.674" y2="151.246"/>
					<line fill="none" stroke="#000000" stroke-miterlimit="10" x1="253.674" y1="153.166" x2="253.674" y2="155.166"/>
				</g>
			</g>
			<rect x="148.689" y="60.167" fill="#CCDEF0" stroke="#000000" stroke-miterlimit="10" width="99.987" height="99.999"/>
			<rect x="143.689" y="65.167" fill="#CCDEF0" stroke="#000000" stroke-miterlimit="10" width="99.987" height="99.999"/>
			<rect x="138.69" y="70.167" fill="#CCDEF0" stroke="#000000" stroke-miterlimit="10" width="99.986" height="99.999"/>
			<rect x="133.691" y="75.167" fill="#CCDEF0" stroke="#000000" stroke-miterlimit="10" width="99.987" height="99.999"/>
			<rect x="128.692" y="80.167" fill="#CCDEF0" stroke="#000000" stroke-miterlimit="10" width="99.986" height="99.999"/>
			<rect x="123.692" y="85.167" fill="#CCDEF0" stroke="#000000" stroke-miterlimit="10" width="99.986" height="99.999"/>
			<rect x="118.693" y="90.167" fill="#CCDEF0" stroke="#000000" stroke-miterlimit="10" width="99.987" height="99.999"/>
			<rect x="113.694" y="95.167" fill="#CCDEF0" stroke="#000000" stroke-miterlimit="10" width="99.986" height="99.999"/>
			<rect x="108.694" y="100.167" fill="#CCDEF0" stroke="#000000" stroke-miterlimit="10" width="99.986" height="99.999"/>
			<rect x="103.695" y="105.167" fill="#CCDEF0" stroke="#000000" stroke-miterlimit="10" width="99.987" height="99.999"/>
			<rect x="98.696" y="110.167" fill="#CCDEF0" stroke="#000000" stroke-miterlimit="10" width="99.986" height="99.999"/>
			<rect x="93.696" y="115.167" fill="#CCDEF0" stroke="#000000" stroke-miterlimit="10" width="99.988" height="99.999"/>
			<rect x="118.689" y="150.166" fill="#86B2D8" stroke="#000000" stroke-miterlimit="10" width="4.999" height="5"/>
			<rect x="200.861" y="214.965" fill="none" width="10.502" height="6.064"/>
			<text transform="matrix(1 0 0 1 200.8594 219.2588)" font-size="6">Z1</text>
			<rect x="206.006" y="210.168" fill="none" width="10.504" height="6.062"/>
			<text transform="matrix(1 0 0 1 206.0039 214.4619)" font-size="6">Z2</text>
			<rect x="210.645" y="204.75" fill="none" width="10.504" height="6.064"/>
			<text transform="matrix(1 0 0 1 210.6426 209.0439)" font-size="6">Z3</text>
			<rect x="300.885" y="115.137" fill="none" width="10.504" height="6.063"/>
			<text transform="matrix(1 0 0 1 300.8833 119.4307)" font-size="6">Z64</text>
			<g>
				<g>
					<line fill="none" stroke="#00AEEF" stroke-miterlimit="10" x1="197.283" y1="215.166" x2="300.25" y2="113.283"/>
					<g>
						<polygon fill="#00AEEF" points="300.567,115.012 303.398,110.167 298.524,112.947 						"/>
					</g>
				</g>
			</g>
			<text transform="matrix(1 -0.0019 0.0019 1 97.8682 95.166)" fill="#00AEEF" font-size="11">+Z</text>
			<text transform="matrix(1 -0.0019 0.0019 1 118.6978 125.166)" fill="#ED1C24" font-size="11">+X</text>
			<text transform="matrix(1 -0.0019 0.0019 1 75.2461 138.6016)" fill="#0DB14B" font-size="11">+Y</text>
			<text transform="matrix(1 -0.0019 0.0019 1 73.019 109.6689)"><tspan x="0" y="0" font-size="11">O</tspan><tspan x="8.556" y="3" font-size="9">1</tspan></text>
			<g>
				<g>
					<g>
						<line fill="none" stroke="#0DB14B" stroke-width="2" x1="94.117" y1="115.484" x2="94.117" y2="132.975"/>
						<g>
							<polygon fill="#0DB14B" points="91.211,130.994 94.117,141.834 97.022,130.994 							"/>
						</g>
					</g>
				</g>
				<g>
					<g>
						<line fill="none" stroke="#ED1C24" stroke-width="2" x1="94.014" y1="115.484" x2="113.444" y2="115.484"/>
						<g>
							<polygon fill="#ED1C24" points="111.462,118.39 122.303,115.484 111.462,112.579 							"/>
						</g>
					</g>
				</g>
				<g>
					<g>
						<line fill="none" stroke="#00AEEF" stroke-width="2" x1="94.2" y1="115.008" x2="105.866" y2="102.73"/>
						<g>
							<polygon fill="#00AEEF" points="106.607,106.167 111.968,96.308 102.395,102.166 							"/>
						</g>
					</g>
				</g>
			</g>
			<g>
				<path stroke="#000000" stroke-miterlimit="1" d="M99.708,115.174c0.007-3.043-2.463-5.504-5.501-5.504v5.504H99.708z"/>
				
					<path fill="#FFFFFF" stroke="#010101" stroke-width="0.75" stroke-linecap="round" stroke-linejoin="round" stroke-miterlimit="1" d="
					M94.208,109.67c-3.035,0-5.499,2.467-5.499,5.504h5.499V109.67z"/>
				<path stroke="#000000" stroke-miterlimit="1" d="M88.708,115.174c0.002,3.043,2.464,5.5,5.507,5.5l-0.008-5.5H88.708z"/>
				
					<path fill="#FFFFFF" stroke="#010101" stroke-width="0.75" stroke-linecap="round" stroke-linejoin="round" stroke-miterlimit="1" d="
					M94.208,115.174l0.008,5.5c3.034,0,5.5-2.465,5.493-5.5H94.208z"/>
			</g>
			<g>
				<circle fill="#FFFFFF" stroke="#000000" stroke-miterlimit="10" cx="133.325" cy="142.618" r="7.5"/>
				<text transform="matrix(0.9288 0 0 1 130.2627 145.4512)" font-size="10">1</text>
			</g>
		</g>
		<g>
			<rect x="369.008" y="15.167" fill="#FFFFFF" stroke="#000000" stroke-miterlimit="10" width="260" height="256.666"/>
			<rect x="369.008" y="15.167" fill="#B2CEE7" stroke="#1C3766" width="260" height="14"/>
			<rect x="369.008" y="47.196" fill="#B2CEE7" stroke="#1C3766" width="260" height="14"/>
			<rect x="369.008" y="104.833" fill="#B2CEE7" stroke="#1C3766" width="260" height="14"/>
			<rect x="369.008" y="165.353" fill="#B2CEE7" stroke="#1C3766" width="260" height="14"/>
			<line fill="none" stroke="#1C3766" x1="369.008" y1="238.167" x2="629.008" y2="238.167"/>
			<text transform="matrix(1 0 0 1 374.3926 24.7227)" font-size="9">Component</text>
			<text transform="matrix(0.9288 0 0 1 374.3926 40.3228)" font-size="8">Dataset Component #1  - T1-weighted MR Signal Intensity</text>
			<text transform="matrix(0.9288 0 0 1 374.3926 57.1226)" font-size="9">Dimension</text>
			<text transform="matrix(0.9288 0 0 1 374.3926 72.7227)" font-size="8" letter-spacing="27.993">	</text>
			<text transform="matrix(0.9288 0 0 1 402.8828 72.7227)" font-size="8">Dataset dimension #1 - index along x</text>
			<text transform="matrix(0.9288 0 0 1 374.3926 85.3228)" font-size="8" letter-spacing="27.993">	</text>
			<text transform="matrix(0.9288 0 0 1 402.8828 85.3228)" font-size="8">Dataset dimension #2 - index along y</text>
			<text transform="matrix(0.9288 0 0 1 374.3926 97.9229)" font-size="8" letter-spacing="27.993">	</text>
			<text transform="matrix(0.9288 0 0 1 402.8828 97.9229)" font-size="8">Dataset dimension #3 - index along z</text>
			<text transform="matrix(0.9288 0 0 1 374.3926 114.7227)" font-size="9">Origin</text>
			<text transform="matrix(0.9288 0 0 1 374.3926 130.3228)" font-size="8">1 Occurrence</text>
			
				<text transform="matrix(0.9288 0 0 1 374.3926 145.9229)" font-size="8" letter-spacing="27.993">	</text>
			<text transform="matrix(0.9288 0 0 1 402.8828 145.9229)" font-size="8">- x,y,z coordinates of O1</text>
			
				<text transform="matrix(0.9288 0 0 1 374.3926 158.5225)" font-size="8" letter-spacing="27.993">	</text>
			<text transform="matrix(0.9288 0 0 1 402.8828 158.5225)" font-size="8">No index, because Origin is fixed for the whole dataset</text>
			<text transform="matrix(0.9288 0 0 1 374.3926 175.3223)" font-size="9">Direction Cosines</text>
			<text transform="matrix(0.9288 0 0 1 374.3926 190.9229)" font-size="8">2 Occurrences</text>
			
				<text transform="matrix(0.9288 0 0 1 374.3926 206.5225)" font-size="8" letter-spacing="27.993">	</text>
			<text transform="matrix(0.9288 0 0 1 402.8828 206.5225)" font-size="8">- Dataset dimension #1 (x)</text>
			<text transform="matrix(0.9288 0 0 1 374.3926 219.123)" font-size="8" letter-spacing="27.993">	</text>
			<text transform="matrix(0.9288 0 0 1 402.8828 219.123)" font-size="8">- Dataset dimension #2 (y)</text>
			
				<text transform="matrix(0.9288 0 0 1 374.3926 231.7227)" font-size="8" letter-spacing="27.993">	</text>
			<text transform="matrix(0.9288 0 0 1 402.8828 231.7227)" font-size="8">No index, because Direction cosines are fixed for the whole dataset</text>
			<text transform="matrix(0.9288 0 0 1 374.3926 248.5225)" font-size="9">Notes:</text>
			<text transform="matrix(0.9288 0 0 1 374.3926 264.123)" font-size="8">1.</text>
			<text transform="matrix(0.9288 0 0 1 380.5898 264.123)" font-size="8" letter-spacing="9.69">	</text>
			<text transform="matrix(0.9288 0 0 1 392.3926 264.123)" font-size="8">Each voxel contains 1 value</text>
		</g>
	</g>
</g>
</svg>
