<?xml version="1.0" encoding="utf-8"?>

<!DOCTYPE svg PUBLIC "-//W3C//DTD SVG 1.1//EN" "http://www.w3.org/Graphics/SVG/1.1/DTD/svg11.dtd">
<svg version="1.1" id="Layer_1" xmlns="http://www.w3.org/2000/svg" xmlns:xlink="http://www.w3.org/1999/xlink" x="0px" y="0px"
	 width="702px" height="267px" viewBox="0 0 702 267" enable-background="new 0 0 702 267" xml:space="preserve">

<defs>
	<style type="text/css">
	text {
	  font-family: Helvetica, Verdana, ArialUnicodeMS, san-serif
	}
	</style>
</defs>

<g>
   <desc>
	PS3.19 2013 - Application Hosting
   </desc>
</g>

<g>
	<rect x="1" y="1" fill="#F5EED6" width="700" height="265"/>
	<g>
		<g>
			<rect x="387.006" y="16.202" fill="#FFFFFF" stroke="#000000" stroke-miterlimit="10" width="260" height="234.596"/>
			<rect x="387.006" y="16.202" fill="#B2CEE7" stroke="#1C3766" width="260" height="14"/>
			<rect x="387.006" y="48.231" fill="#B2CEE7" stroke="#1C3766" width="260" height="14"/>
			<rect x="387.006" y="118.829" fill="#B2CEE7" stroke="#1C3766" width="260" height="14"/>
			<rect x="387.006" y="179.345" fill="#B2CEE7" stroke="#1C3766" width="260" height="14"/>
			<text transform="matrix(1 0 0 1 392.3848 25.7578)" font-size="9">Component</text>
			<text transform="matrix(0.9288 0 0 1 392.3848 41.3579)" font-size="8">Dataset Component #1  - Metabolite concentration</text>
			<text transform="matrix(0.9288 0 0 1 392.3848 58.1577)" font-size="9">Dimension</text>
			<text transform="matrix(0.9288 0 0 1 392.3848 73.7578)" font-size="8" letter-spacing="27.993">	</text>
			<text transform="matrix(0.9288 0 0 1 420.875 73.7578)" font-size="8">Dataset dimension #1 - index along x</text>
			<text transform="matrix(0.9288 0 0 1 392.3848 86.3579)" font-size="8" letter-spacing="27.993">	</text>
			<text transform="matrix(0.9288 0 0 1 420.875 86.3579)" font-size="8">Dataset dimension #2 - index along y</text>
			<text transform="matrix(0.9288 0 0 1 392.3848 98.958)" font-size="8" letter-spacing="27.993">	</text>
			<text transform="matrix(0.9288 0 0 1 420.875 98.958)" font-size="8">Dataset dimension #3 - index along metabolite</text>
			
				<text transform="matrix(0.9288 0 0 1 392.3848 111.5576)" font-size="8" letter-spacing="27.993">	</text>
			<text transform="matrix(0.9288 0 0 1 420.875 111.5576)" font-size="8">Dataset dimension #4 - index along z</text>
			<text transform="matrix(0.9288 0 0 1 392.3848 128.3579)" font-size="9">Origin</text>
			<text transform="matrix(0.9288 0 0 1 392.3848 143.958)" font-size="8">1 Occurrence</text>
			
				<text transform="matrix(0.9288 0 0 1 392.3848 159.5576)" font-size="8" letter-spacing="27.993">	</text>
			<text transform="matrix(0.9288 0 0 1 420.875 159.5576)" font-size="8">- x,y,z coordinates of O1</text>
			
				<text transform="matrix(0.9288 0 0 1 392.3848 172.1582)" font-size="8" letter-spacing="27.993">	</text>
			<text transform="matrix(0.9288 0 0 1 420.875 172.1582)" font-size="8">No index, because Origin is fixed for the whole dataset</text>
			<text transform="matrix(0.9288 0 0 1 392.3848 188.958)" font-size="9">Direction Cosines</text>
			<text transform="matrix(0.9288 0 0 1 392.3848 204.5576)" font-size="8">2 Occurrences</text>
			
				<text transform="matrix(0.9288 0 0 1 392.3848 220.1582)" font-size="8" letter-spacing="27.993">	</text>
			<text transform="matrix(0.9288 0 0 1 420.875 220.1582)" font-size="8">- Dataset dimension #1 (x)</text>
			
				<text transform="matrix(0.9288 0 0 1 392.3848 232.7578)" font-size="8" letter-spacing="27.993">	</text>
			<text transform="matrix(0.9288 0 0 1 420.875 232.7578)" font-size="8">- Dataset dimension #2 (y)</text>
			
				<text transform="matrix(0.9288 0 0 1 392.3848 245.3574)" font-size="8" letter-spacing="27.993">	</text>
			<text transform="matrix(0.9288 0 0 1 420.875 245.3574)" font-size="8">No index, because Direction cosines are fixed for the whole dataset</text>
		</g>
		<g>
			<rect x="190.718" y="21.611" fill="#005695" stroke="#000000" stroke-miterlimit="10" width="99.986" height="100"/>
			<rect x="185.721" y="26.611" fill="#4F8ABE" stroke="#000000" stroke-miterlimit="10" width="99.987" height="100"/>
			<rect x="180.681" y="31.651" fill="#86B2D8" stroke="#000000" stroke-miterlimit="10" width="99.987" height="99.999"/>
			<rect x="175.682" y="36.651" fill="#CCDEF0" stroke="#000000" stroke-miterlimit="10" width="99.986" height="99.999"/>
			<polyline fill="none" stroke="#000000" stroke-miterlimit="10" stroke-dasharray="4" points="165.685,46.651 265.671,46.651 
				265.671,146.65 			"/>
			<polyline fill="none" stroke="#000000" stroke-miterlimit="10" stroke-dasharray="4" points="160.686,51.651 260.673,51.651 
				260.673,151.65 			"/>
			<polyline fill="none" stroke="#000000" stroke-miterlimit="10" stroke-dasharray="4" points="155.686,56.651 255.673,56.651 
				255.673,156.65 			"/>
			<polyline fill="none" stroke="#000000" stroke-miterlimit="10" stroke-dasharray="4" points="150.687,61.651 250.673,61.651 
				250.673,161.65 			"/>
			<rect x="140.727" y="71.611" fill="#005695" stroke="#000000" stroke-miterlimit="10" width="99.986" height="99.998"/>
			<rect x="135.728" y="76.611" fill="#4F8ABE" stroke="#000000" stroke-miterlimit="10" width="99.987" height="99.998"/>
			<rect x="130.69" y="81.651" fill="#86B2D8" stroke="#000000" stroke-miterlimit="10" width="99.987" height="99.999"/>
			<rect x="125.69" y="86.651" fill="#CCDEF0" stroke="#000000" stroke-miterlimit="10" width="99.987" height="99.999"/>
			<rect x="115.692" y="96.651" fill="#005695" stroke="#000000" stroke-miterlimit="10" width="99.987" height="99.999"/>
			<rect x="110.693" y="101.651" fill="#4F8ABE" stroke="#000000" stroke-miterlimit="10" width="99.986" height="99.999"/>
			<rect x="105.693" y="106.651" fill="#86B2D8" stroke="#000000" stroke-miterlimit="10" width="99.986" height="99.999"/>
			<rect x="100.694" y="111.651" fill="#CCDEF0" stroke="#000000" stroke-miterlimit="10" width="99.987" height="99.999"/>
			<rect x="90.695" y="121.651" fill="#005695" stroke="#000000" stroke-miterlimit="10" width="99.986" height="99.999"/>
			<rect x="85.696" y="126.651" fill="#4F8ABE" stroke="#000000" stroke-miterlimit="10" width="99.987" height="99.999"/>
			<rect x="80.697" y="131.651" fill="#86B2D8" stroke="#000000" stroke-miterlimit="10" width="99.986" height="99.999"/>
			<rect x="75.697" y="136.651" fill="#CCDEF0" stroke="#000000" stroke-miterlimit="10" width="99.988" height="99.999"/>
			<g>
				<path fill="none" stroke="#00AEEF" d="M180.548,241.58l0.294,0.293c0.652,0.652,1.206,0.969,1.662,0.951
					c0.456-0.02,1.098-0.445,1.927-1.273c1.393-1.391,2.429-2.369,3.109-2.928c0.68-0.561,1.369-0.914,2.064-1.059
					c0.697-0.146,1.526-0.049,2.487,0.295c-0.379-0.912-0.448-1.828-0.204-2.75c0.244-0.92,1.083-2.1,2.521-3.535
					c1.323-1.322,2.102-2.16,2.34-2.51c0.237-0.352,0.354-0.688,0.351-1.008c-0.003-0.32-0.331-0.807-0.982-1.457l-0.294-0.295"/>
			</g>
			<rect x="194.279" y="237.219" fill="none" width="11.335" height="8.17"/>
			<text transform="matrix(1 0 0 1 194.2793 243.6611)" fill="#00AEEF" font-size="9">Z1</text>
			<g>
				<g>
					<line fill="none" stroke="#00AEEF" stroke-miterlimit="10" x1="178.321" y1="239.354" x2="190.23" y2="226.978"/>
					<g>
						<polygon fill="#00AEEF" points="190.59,228.698 193.301,223.785 188.496,226.684 						"/>
					</g>
				</g>
			</g>
			<g>
				<path fill="none" stroke="#00AEEF" d="M206.61,215.738l0.294,0.291c0.652,0.652,1.206,0.971,1.662,0.951
					s1.098-0.443,1.927-1.273c1.393-1.391,2.429-2.367,3.109-2.928s1.369-0.914,2.064-1.059c0.697-0.146,1.526-0.047,2.487,0.295
					c-0.379-0.912-0.448-1.828-0.204-2.748c0.244-0.92,1.083-2.1,2.521-3.537c1.323-1.32,2.102-2.158,2.34-2.51
					c0.237-0.35,0.354-0.688,0.351-1.006c-0.003-0.32-0.331-0.807-0.982-1.457l-0.294-0.297"/>
			</g>
			<rect x="220.342" y="211.375" fill="none" width="12.295" height="8.17"/>
			<text transform="matrix(1 0 0 1 220.3428 217.8164)" fill="#00AEEF" font-size="9">Z2</text>
			<g>
				<g>
					<line fill="none" stroke="#00AEEF" stroke-miterlimit="10" x1="204.384" y1="213.512" x2="216.292" y2="201.136"/>
					<g>
						<polygon fill="#00AEEF" points="216.652,202.856 219.364,197.943 214.559,200.842 						"/>
					</g>
				</g>
			</g>
			<g>
				<path fill="none" stroke="#00AEEF" d="M231.593,190.977l0.294,0.291c0.652,0.652,1.206,0.971,1.662,0.951
					s1.098-0.443,1.927-1.273c1.393-1.391,2.429-2.367,3.109-2.928s1.369-0.914,2.064-1.059c0.697-0.146,1.526-0.047,2.487,0.295
					c-0.379-0.912-0.448-1.828-0.204-2.748c0.244-0.92,1.083-2.1,2.521-3.537c1.323-1.32,2.102-2.158,2.34-2.51
					c0.237-0.35,0.354-0.688,0.351-1.006c-0.003-0.32-0.331-0.807-0.982-1.457l-0.294-0.297"/>
			</g>
			<rect x="245.325" y="186.613" fill="none" width="11.261" height="8.17"/>
			<text transform="matrix(1 0 0 1 245.3252 193.0557)" fill="#00AEEF" font-size="9">Z3</text>
			<g>
				<g>
					<line fill="none" stroke="#00AEEF" stroke-miterlimit="10" x1="229.367" y1="188.75" x2="241.275" y2="176.374"/>
					<g>
						<polygon fill="#00AEEF" points="241.635,178.095 244.347,173.182 239.542,176.08 						"/>
					</g>
				</g>
			</g>
			<g>
				<path fill="none" stroke="#00AEEF" d="M256.936,165.852l0.294,0.293c0.652,0.652,1.206,0.971,1.662,0.951
					s1.098-0.443,1.927-1.274c1.393-1.391,2.429-2.368,3.109-2.928c0.68-0.561,1.369-0.914,2.064-1.059
					c0.697-0.146,1.526-0.048,2.487,0.295c-0.379-0.912-0.448-1.828-0.204-2.749c0.244-0.92,1.083-2.1,2.521-3.536
					c1.323-1.321,2.102-2.159,2.34-2.51c0.237-0.351,0.354-0.688,0.351-1.007c-0.003-0.32-0.331-0.807-0.982-1.457l-0.294-0.296"/>
			</g>
			<rect x="270.668" y="161.489" fill="none" width="14.944" height="8.173"/>
			<text transform="matrix(1 0 0 1 270.668 167.9307)" fill="#00AEEF" font-size="9">Z...</text>
			<g>
				<g>
					<line fill="none" stroke="#00AEEF" stroke-miterlimit="10" x1="254.709" y1="163.625" x2="266.618" y2="151.249"/>
					<g>
						<polygon fill="#00AEEF" points="266.978,152.97 269.689,148.057 264.884,150.955 						"/>
					</g>
				</g>
			</g>
			<g>
				<path fill="none" stroke="#00AEEF" d="M281.198,141.81l0.294,0.292c0.652,0.652,1.206,0.97,1.662,0.951
					c0.456-0.02,1.098-0.444,1.927-1.273c1.393-1.391,2.429-2.368,3.109-2.928c0.68-0.561,1.369-0.914,2.064-1.059
					c0.697-0.146,1.526-0.048,2.487,0.295c-0.379-0.912-0.448-1.828-0.204-2.749c0.244-0.92,1.083-2.1,2.521-3.536
					c1.323-1.321,2.102-2.159,2.34-2.51c0.237-0.351,0.354-0.688,0.351-1.007c-0.003-0.32-0.331-0.807-0.982-1.457l-0.294-0.296"/>
			</g>
			<rect x="294.93" y="137.447" fill="none" width="16.295" height="8.17"/>
			<text transform="matrix(1 0 0 1 294.9297 143.8887)" fill="#00AEEF" font-size="9">Z64</text>
			<g>
				<g>
					<line fill="none" stroke="#00AEEF" stroke-miterlimit="10" x1="278.971" y1="139.583" x2="290.88" y2="127.207"/>
					<g>
						<polygon fill="#00AEEF" points="291.24,128.928 293.951,124.015 289.146,126.914 						"/>
					</g>
				</g>
			</g>
			<text transform="matrix(1 -0.0019 0.0019 1 100.6973 146.6504)" fill="#ED1C24" font-size="11">+X</text>
			<text transform="matrix(1 -0.0019 0.0019 1 57.2456 160.0859)" fill="#0DB14B" font-size="11">+Y</text>
			<text transform="matrix(1 -0.0019 0.0019 1 55.0186 131.1528)"><tspan x="0" y="0" font-size="11">O</tspan><tspan x="8.556" y="3" font-size="9">1</tspan></text>
			<g>
				<g>
					<g>
						<line fill="none" stroke="#0DB14B" stroke-width="2" x1="76.118" y1="136.969" x2="76.118" y2="154.459"/>
						<g>
							<polygon fill="#0DB14B" points="73.212,152.478 76.118,163.318 79.023,152.478 							"/>
						</g>
					</g>
				</g>
				<g>
					<g>
						<line fill="none" stroke="#ED1C24" stroke-width="2" x1="76.015" y1="136.969" x2="95.445" y2="136.969"/>
						<g>
							<polygon fill="#ED1C24" points="93.463,139.874 104.304,136.969 93.463,134.063 							"/>
						</g>
					</g>
				</g>
			</g>
			<g>
				<path stroke="#000000" stroke-miterlimit="1" d="M81.709,136.658c0.007-3.043-2.463-5.504-5.501-5.504v5.504H81.709z"/>
				
					<path fill="#FFFFFF" stroke="#010101" stroke-width="0.75" stroke-linecap="round" stroke-linejoin="round" stroke-miterlimit="1" d="
					M76.208,131.154c-3.035,0-5.499,2.467-5.499,5.504h5.499V131.154z"/>
				<path stroke="#000000" stroke-miterlimit="1" d="M70.709,136.658c0.002,3.043,2.464,5.5,5.507,5.5l-0.008-5.5H70.709z"/>
				
					<path fill="#FFFFFF" stroke="#010101" stroke-width="0.75" stroke-linecap="round" stroke-linejoin="round" stroke-miterlimit="1" d="
					M76.208,136.658l0.008,5.5c3.034,0,5.5-2.465,5.493-5.5H76.208z"/>
			</g>
			<g>
				<g>
					<line fill="none" stroke="#000000" stroke-miterlimit="10" x1="217.351" y1="245.109" x2="339.225" y2="123.853"/>
					<g>
						<polygon points="339.547,125.582 342.365,120.729 337.498,123.522 						"/>
					</g>
				</g>
			</g>
			<rect x="47.246" y="91.178" fill="none" width="20" height="10.945"/>
			<text transform="matrix(1 0 0 1 47.2446 97.6182)" font-size="9">NAA</text>
			<rect x="58.288" y="83.178" fill="none" width="12.557" height="10.945"/>
			<text transform="matrix(1 0 0 1 58.2876 89.6191)" font-size="9">Ch</text>
			
				<rect x="64.07" y="75.847" transform="matrix(0.0179 0.9998 -0.9998 0.0179 148.9369 9.6763)" fill="none" width="10.945" height="9.608"/>
			<text transform="matrix(1 0 0 1 64.7534 81.5342)" font-size="9">Cr</text>
			<rect x="70.502" y="67.178" fill="none" width="8.981" height="10.945"/>
			<text transform="matrix(1 0 0 1 70.5024 73.6191)" font-size="9">...</text>
			<polyline fill="none" stroke="#000000" stroke-miterlimit="10" points="67.246,95.308 81.327,95.308 99.37,110.534 			"/>
			<polyline fill="none" stroke="#000000" stroke-miterlimit="10" points="71.975,87.317 86.057,87.317 104.1,105.422 			"/>
			<polyline fill="none" stroke="#000000" stroke-miterlimit="10" points="76.705,78.964 90.786,78.964 108.829,100.31 			"/>
			<polyline fill="none" stroke="#000000" stroke-miterlimit="10" points="79.633,73.132 95.516,73.132 113.559,95.197 			"/>
		</g>
	</g>
</g>
</svg>
