<?xml version="1.0" encoding="utf-8"?>

<!DOCTYPE svg PUBLIC "-//W3C//DTD SVG 1.1//EN" "http://www.w3.org/Graphics/SVG/1.1/DTD/svg11.dtd">
<svg version="1.1" id="Layer_1" xmlns="http://www.w3.org/2000/svg" xmlns:xlink="http://www.w3.org/1999/xlink" x="0px" y="0px"
	 width="702px" height="822px" viewBox="0 0 702 822" enable-background="new 0 0 702 822" xml:space="preserve">

<defs>
	<style type="text/css">
	text {
	  font-family: Helvetica, Verdana, ArialUnicodeMS, san-serif
	}
	</style>
</defs>

<g>
   <desc>
	PS3.19 2013 - Application Hosting
   </desc>
</g>

<g>
	<rect x="1" y="1" fill="#F5EED6" width="700" height="820"/>
	<g>
		<rect x="149.412" y="708.992" fill="#FFFFFF" stroke="#000000" stroke-miterlimit="10" width="461.961" height="97.34"/>
		<g>
			<rect x="180.121" y="492.27" fill="#B2CEE7" width="309.614" height="53.201"/>
			<g>
				<polyline fill="none" stroke="#4F8ABE" stroke-miterlimit="10" points="489.734,543.971 489.734,545.471 488.234,545.471 				
					"/>
				
					<line fill="none" stroke="#4F8ABE" stroke-miterlimit="10" stroke-dasharray="2.9768,2.9768" x1="485.258" y1="545.471" x2="183.109" y2="545.471"/>
				<polyline fill="none" stroke="#4F8ABE" stroke-miterlimit="10" points="181.621,545.471 180.121,545.471 180.121,543.971 				
					"/>
				
					<line fill="none" stroke="#4F8ABE" stroke-miterlimit="10" stroke-dasharray="2.953,2.953" x1="180.121" y1="541.018" x2="180.121" y2="495.246"/>
				<polyline fill="none" stroke="#4F8ABE" stroke-miterlimit="10" points="180.121,493.77 180.121,492.27 181.621,492.27 				"/>
				
					<line fill="none" stroke="#4F8ABE" stroke-miterlimit="10" stroke-dasharray="2.9768,2.9768" x1="184.598" y1="492.27" x2="486.746" y2="492.27"/>
				<polyline fill="none" stroke="#4F8ABE" stroke-miterlimit="10" points="488.234,492.27 489.734,492.27 489.734,493.77 				"/>
				
					<line fill="none" stroke="#4F8ABE" stroke-miterlimit="10" stroke-dasharray="2.953,2.953" x1="489.734" y1="496.723" x2="489.734" y2="542.494"/>
			</g>
		</g>
		<rect x="180.121" y="297.921" fill="#B2CEE7" width="309.614" height="29"/>
		<g>
			<g>
				<line fill="none" stroke="#4F8ABE" stroke-miterlimit="10" x1="489.734" y1="327.42" x2="486.734" y2="327.42"/>
				
					<line fill="none" stroke="#4F8ABE" stroke-miterlimit="10" stroke-dasharray="6.0723,3.0361" x1="483.698" y1="327.42" x2="184.639" y2="327.42"/>
				<line fill="none" stroke="#4F8ABE" stroke-miterlimit="10" x1="183.121" y1="327.42" x2="180.121" y2="327.42"/>
			</g>
		</g>
		<g>
			<g>
				<line fill="none" stroke="#4F8ABE" stroke-miterlimit="10" x1="180.121" y1="297.42" x2="183.121" y2="297.42"/>
				
					<line fill="none" stroke="#4F8ABE" stroke-miterlimit="10" stroke-dasharray="6.0723,3.0361" x1="186.157" y1="297.42" x2="485.217" y2="297.42"/>
				<line fill="none" stroke="#4F8ABE" stroke-miterlimit="10" x1="486.734" y1="297.42" x2="489.734" y2="297.42"/>
			</g>
		</g>
		<rect x="57.719" y="15.667" fill="#FFFFFF" stroke="#000000" width="91.692" height="12"/>
		
			<line fill="none" stroke="#000000" stroke-width="0.5" stroke-linecap="round" stroke-miterlimit="1" x1="210.827" y1="71.742" x2="210.827" y2="697.91"/>
		
			<line fill="none" stroke="#000000" stroke-width="0.5" stroke-linecap="round" stroke-miterlimit="1" x1="149.412" y1="71.742" x2="149.412" y2="697.91"/>
		
			<line fill="none" stroke="#000000" stroke-width="0.5" stroke-linecap="round" stroke-miterlimit="1" x1="444.73" y1="71.742" x2="444.73" y2="697.91"/>
		<g>
			<text transform="matrix(1 0 0 1 152.9814 55.4814)"><tspan x="0" y="0" font-size="9">End</tspan><tspan x="-1.494" y="10.8" font-size="9">User</tspan></text>
		</g>
		<g>
			
				<rect x="186.365" y="45.742" fill="#CCDEF0" stroke="#010101" stroke-width="0.75" stroke-linecap="round" stroke-linejoin="round" stroke-miterlimit="1" width="48.926" height="26"/>
			<text transform="matrix(0.9904 0 0 1 201.8555 61.2412)" font-size="9">Host</text>
		</g>
		<g>
			
				<rect x="420.232" y="45.742" fill="#CCDEF0" stroke="#010101" stroke-width="0.75" stroke-linecap="round" stroke-linejoin="round" stroke-miterlimit="1" width="48.885" height="26"/>
			<text transform="matrix(1 0 0 1 422.6533 61.2407)" font-size="9">Application</text>
		</g>
		
			<line fill="none" stroke="#000000" stroke-width="0.5" stroke-linecap="round" stroke-miterlimit="1" x1="529.344" y1="71.742" x2="529.344" y2="697.91"/>
		<g>
			
				<rect x="504.484" y="45.742" fill="#CCDEF0" stroke="#010101" stroke-width="0.75" stroke-linecap="round" stroke-linejoin="round" stroke-miterlimit="1" width="48.885" height="26"/>
			<text transform="matrix(1 0 0 1 508.6602 61.2407)" font-size="9">DataStore</text>
		</g>
		
			<line fill="none" stroke="#000000" stroke-width="0.5" stroke-linecap="round" stroke-miterlimit="1" x1="611.439" y1="71.742" x2="611.439" y2="699.713"/>
		<g>
			
				<rect x="578.484" y="45.742" fill="#CCDEF0" stroke="#010101" stroke-width="0.75" stroke-linecap="round" stroke-linejoin="round" stroke-miterlimit="1" width="65.797" height="26"/>
			<text transform="matrix(1 0 0 1 580.8516 61.2407)" font-size="9">OutputLocation</text>
		</g>
		
			<rect x="206.327" y="87.274" fill="#CCDEF0" stroke="#010101" stroke-width="0.75" stroke-linecap="round" stroke-linejoin="round" stroke-miterlimit="1" width="9" height="124.997"/>
		
			<rect x="206.327" y="230.571" fill="#CCDEF0" stroke="#010101" stroke-width="0.75" stroke-linecap="round" stroke-linejoin="round" stroke-miterlimit="1" width="9" height="18.3"/>
		
			<rect x="206.327" y="267.17" fill="#CCDEF0" stroke="#010101" stroke-width="0.75" stroke-linecap="round" stroke-linejoin="round" stroke-miterlimit="1" width="9" height="18.3"/>
		
			<rect x="206.327" y="342.171" fill="#CCDEF0" stroke="#010101" stroke-width="0.75" stroke-linecap="round" stroke-linejoin="round" stroke-miterlimit="1" width="9" height="26.434"/>
		
			<rect x="206.327" y="470.27" fill="#CCDEF0" stroke="#010101" stroke-width="0.75" stroke-linecap="round" stroke-linejoin="round" stroke-miterlimit="1" width="9" height="14.504"/>
		
			<rect x="206.327" y="671.623" fill="#CCDEF0" stroke="#010101" stroke-width="0.75" stroke-linecap="round" stroke-linejoin="round" stroke-miterlimit="1" width="9" height="14.502"/>
		
			<rect x="206.327" y="526.971" fill="#CCDEF0" stroke="#010101" stroke-width="0.75" stroke-linecap="round" stroke-linejoin="round" stroke-miterlimit="1" width="9" height="133.77"/>
		
			<rect x="144.912" y="87.274" fill="#CCDEF0" stroke="#010101" stroke-width="0.75" stroke-linecap="round" stroke-linejoin="round" stroke-miterlimit="1" width="9" height="105.479"/>
		
			<rect x="440.23" y="136.926" fill="#CCDEF0" stroke="#010101" stroke-width="0.75" stroke-linecap="round" stroke-linejoin="round" stroke-miterlimit="1" width="9" height="75.345"/>
		
			<rect x="440.23" y="230.571" fill="#CCDEF0" stroke="#010101" stroke-width="0.75" stroke-linecap="round" stroke-linejoin="round" stroke-miterlimit="1" width="9" height="452.203"/>
		
			<rect x="606.93" y="397.071" fill="#CCDEF0" stroke="#010101" stroke-width="0.75" stroke-linecap="round" stroke-linejoin="round" stroke-miterlimit="1" width="9" height="23.203"/>
		
			<rect x="524.836" y="108.295" fill="#CCDEF0" stroke="#010101" stroke-width="0.75" stroke-linecap="round" stroke-linejoin="round" stroke-miterlimit="1" width="9" height="55.826"/>
		<g>
			<g>
				
					<line fill="none" stroke="#005695" stroke-linecap="round" stroke-miterlimit="1" x1="153.915" y1="90.959" x2="201.011" y2="90.959"/>
				<g>
					<polygon fill="#005695" points="199.822,92.703 206.327,90.959 199.822,89.216 					"/>
				</g>
			</g>
		</g>
		<g>
			<g>
				
					<line fill="none" stroke="#005695" stroke-linecap="round" stroke-miterlimit="1" x1="519.515" y1="109.259" x2="215.275" y2="109.259"/>
				<g>
					<polygon fill="#005695" points="518.325,107.516 524.83,109.259 518.325,111.002 					"/>
				</g>
			</g>
		</g>
		<g>
			<g>
				
					<line fill="none" stroke="#005695" stroke-linecap="round" stroke-miterlimit="1" x1="220.643" y1="127.559" x2="524.83" y2="127.559"/>
				<g>
					<polygon fill="#005695" points="221.832,129.302 215.328,127.559 221.832,125.816 					"/>
				</g>
			</g>
		</g>
		<g>
			<g>
				
					<line fill="none" stroke="#005695" stroke-linecap="round" stroke-miterlimit="1" x1="434.909" y1="193.971" x2="215.275" y2="193.971"/>
				<g>
					<polygon fill="#005695" points="433.72,192.228 440.225,193.971 433.72,195.714 					"/>
				</g>
			</g>
		</g>
		<g>
			<g>
				
					<line fill="none" stroke="#005695" stroke-linecap="round" stroke-miterlimit="1" x1="220.643" y1="212.271" x2="440.23" y2="212.271"/>
				<g>
					<polygon fill="#005695" points="221.832,214.014 215.328,212.271 221.832,210.528 					"/>
				</g>
			</g>
		</g>
		<g>
			<g>
				
					<line fill="none" stroke="#005695" stroke-linecap="round" stroke-miterlimit="1" x1="220.643" y1="230.571" x2="440.225" y2="230.571"/>
				<g>
					<polygon fill="#005695" points="221.832,232.314 215.328,230.571 221.832,228.828 					"/>
				</g>
			</g>
		</g>
		<g>
			<g>
				
					<line fill="none" stroke="#005695" stroke-linecap="round" stroke-miterlimit="1" x1="215.328" y1="248.871" x2="434.909" y2="248.871"/>
				<g>
					<polygon fill="#005695" points="433.72,250.614 440.225,248.871 433.72,247.127 					"/>
				</g>
			</g>
		</g>
		<g>
			<g>
				
					<line fill="none" stroke="#005695" stroke-linecap="round" stroke-miterlimit="1" x1="220.643" y1="267.17" x2="440.076" y2="267.17"/>
				<g>
					<polygon fill="#005695" points="221.832,268.914 215.328,267.17 221.832,265.427 					"/>
				</g>
			</g>
		</g>
		<g>
			<g>
				
					<line fill="none" stroke="#005695" stroke-linecap="round" stroke-miterlimit="1" x1="215.328" y1="285.47" x2="434.761" y2="285.47"/>
				<g>
					<polygon fill="#005695" points="433.571,287.213 440.076,285.47 433.571,283.727 					"/>
				</g>
			</g>
		</g>
		<g>
			<g>
				
					<line fill="none" stroke="#005695" stroke-linecap="round" stroke-miterlimit="1" x1="220.643" y1="342.171" x2="440.23" y2="342.171"/>
				<g>
					<polygon fill="#005695" points="221.832,343.915 215.328,342.171 221.832,340.428 					"/>
				</g>
			</g>
		</g>
		<g>
			<g>
				
					<line fill="none" stroke="#005695" stroke-linecap="round" stroke-miterlimit="1" x1="215.328" y1="360.471" x2="434.761" y2="360.471"/>
				<g>
					<polygon fill="#005695" points="433.571,362.214 440.076,360.471 433.571,358.728 					"/>
				</g>
			</g>
		</g>
		<g>
			<g>
				
					<line fill="none" stroke="#005695" stroke-linecap="round" stroke-miterlimit="1" x1="449.23" y1="397.071" x2="601.614" y2="397.071"/>
				<g>
					<polygon fill="#005695" points="600.425,398.814 606.93,397.071 600.425,395.328 					"/>
				</g>
			</g>
		</g>
		<g>
			<g>
				
					<line fill="none" stroke="#005695" stroke-linecap="round" stroke-miterlimit="1" x1="454.546" y1="415.371" x2="606.93" y2="415.371"/>
				<g>
					<polygon fill="#005695" points="455.735,417.114 449.23,415.371 455.735,413.628 					"/>
				</g>
			</g>
		</g>
		<g>
			<g>
				
					<line fill="none" stroke="#005695" stroke-linecap="round" stroke-miterlimit="1" x1="440.23" y1="472.072" x2="220.59" y2="472.072"/>
				<g>
					<polygon fill="#005695" points="221.779,470.329 215.275,472.072 221.779,473.815 					"/>
				</g>
			</g>
		</g>
		<g>
			<g>
				
					<line fill="none" stroke="#005695" stroke-linecap="round" stroke-miterlimit="1" x1="220.643" y1="526.971" x2="440.23" y2="526.971"/>
				<g>
					<polygon fill="#005695" points="221.832,528.714 215.328,526.971 221.832,525.228 					"/>
				</g>
			</g>
		</g>
		<g>
			<g>
				
					<line fill="none" stroke="#005695" stroke-linecap="round" stroke-miterlimit="1" x1="215.328" y1="564.291" x2="434.915" y2="564.291"/>
				<g>
					<polygon fill="#005695" points="433.726,566.034 440.23,564.291 433.726,562.548 					"/>
				</g>
			</g>
		</g>
		<g>
			<g>
				
					<line fill="none" stroke="#005695" stroke-linecap="round" stroke-miterlimit="1" x1="440.23" y1="582.592" x2="220.59" y2="582.592"/>
				<g>
					<polygon fill="#005695" points="221.779,580.849 215.275,582.592 221.779,584.335 					"/>
				</g>
			</g>
		</g>
		<g>
			<g>
				
					<line fill="none" stroke="#005695" stroke-linecap="round" stroke-miterlimit="1" x1="215.328" y1="637.488" x2="434.915" y2="637.488"/>
				<g>
					<polygon fill="#005695" points="433.726,639.231 440.23,637.488 433.726,635.745 					"/>
				</g>
			</g>
		</g>
		<g>
			<g>
				
					<line fill="none" stroke="#005695" stroke-linecap="round" stroke-miterlimit="1" x1="440.23" y1="655.789" x2="220.59" y2="655.789"/>
				<g>
					<polygon fill="#005695" points="221.779,654.046 215.275,655.789 221.779,657.532 					"/>
				</g>
			</g>
		</g>
		<g>
			<g>
				
					<line fill="none" stroke="#005695" stroke-linecap="round" stroke-miterlimit="1" x1="440.23" y1="674.088" x2="220.59" y2="674.088"/>
				<g>
					<polygon fill="#005695" points="221.779,672.345 215.275,674.088 221.779,675.831 					"/>
				</g>
			</g>
		</g>
		<g>
			<g>
				<polyline fill="none" stroke="#005695" stroke-linecap="round" stroke-miterlimit="1" points="215.275,156.671 227.984,156.671 
					227.984,174.971 220.59,174.971 				"/>
				<g>
					<polygon fill="#005695" points="221.779,173.228 215.275,174.971 221.779,176.714 					"/>
				</g>
			</g>
		</g>
		<g>
			<g>
				<polyline fill="none" stroke="#005695" stroke-linecap="round" stroke-miterlimit="1" points="449.775,434.391 462.484,434.391 
					462.484,452.691 455.091,452.691 				"/>
				<g>
					<polygon fill="#005695" points="456.28,450.948 449.775,452.691 456.28,454.435 					"/>
				</g>
			</g>
		</g>
		<g>
			<g>
				<polyline fill="none" stroke="#005695" stroke-linecap="round" stroke-miterlimit="1" points="215.275,599.809 227.984,599.809 
					227.984,619.549 220.59,619.549 				"/>
				<g>
					<polygon fill="#005695" points="221.779,617.806 215.275,619.549 221.779,621.292 					"/>
				</g>
			</g>
		</g>
		<g>
			<rect x="180.121" y="492.27" fill="#FFFFFF" stroke="#000000" width="26.67" height="12"/>
			<rect x="185.012" y="494.486" fill="none" width="16.887" height="9.729"/>
			<text transform="matrix(1 0 0 1 185.0122 500.2119)" font-size="8">strict</text>
		</g>
		<g>
			<circle fill="#FFFFFF" stroke="#000000" stroke-miterlimit="10" cx="291.636" cy="331.416" r="7.5"/>
			<text transform="matrix(0.9288 0 0 1 288.5742 334.248)" font-size="10">1</text>
		</g>
		<g>
			<circle fill="#FFFFFF" stroke="#000000" stroke-miterlimit="10" cx="377.578" cy="456.672" r="7.5"/>
			<text transform="matrix(0.9288 0 0 1 374.5176 459.5039)" font-size="10">2</text>
		</g>
		<g>
			<circle fill="#FFFFFF" stroke="#000000" stroke-miterlimit="10" cx="362.578" cy="513.971" r="7.5"/>
			<text transform="matrix(0.9288 0 0 1 359.5176 516.8047)" font-size="10">3</text>
		</g>
		<g>
			<circle fill="#FFFFFF" stroke="#000000" stroke-miterlimit="10" cx="296.234" cy="625.309" r="7.5"/>
			<text transform="matrix(0.9288 0 0 1 293.1719 628.1445)" font-size="10">3</text>
		</g>
		<g>
			<circle fill="#FFFFFF" stroke="#000000" stroke-miterlimit="10" cx="269.284" cy="595.477" r="7.5"/>
			<text transform="matrix(0.9288 0 0 1 266.2227 598.3145)" font-size="10">4</text>
		</g>
		<rect x="61.323" y="19.401" fill="none" width="84.484" height="9.729"/>
		<text transform="matrix(1 0 0 1 61.3232 25.125)" font-size="8">sd Requirements Model</text>
		<rect x="157.761" y="82.864" fill="none" width="464.733" height="604.388"/>
		<text transform="matrix(1.0017 0 0 1 157.7612 87.8726)" font-size="7">selectDataSet</text>
		<text transform="matrix(1.0017 0 0 1 157.7612 106.2725)" font-size="7" letter-spacing="59.901">	</text>
		<text transform="matrix(1.0017 0 0 1 219.7612 106.2725)" font-size="7">getURLs</text>
		<text transform="matrix(1.0017 0 0 1 157.7612 124.6724)" font-size="7" letter-spacing="59.901">	</text>
		<text transform="matrix(1.0017 0 0 1 219.7612 124.6724)" font-size="7">returnGetURLs:</text>
		<text transform="matrix(1.0017 0 0 1 157.7612 136.0728)" font-size="7" letter-spacing="59.901">	</text>
		<text transform="matrix(1.0017 0 0 1 219.7612 136.0728)" font-size="7">ULR[]</text>
		<text transform="matrix(1.0017 0 0 1 157.7612 154.4727)" font-size="7" letter-spacing="59.901">	</text>
		<text transform="matrix(1.0017 0 0 1 219.7612 154.4727)" font-size="7">createDataAvailable((inputURLs))</text>
		<text transform="matrix(1.0017 0 0 1 157.7612 191.2725)" font-size="7" letter-spacing="59.901">	</text>
		<text transform="matrix(1.0017 0 0 1 219.7612 191.2725)" font-size="7">setState(State.INPROGRESS)</text>
		<text transform="matrix(1.0017 0 0 1 157.7612 209.6724)" font-size="7" letter-spacing="59.901">	</text>
		<text transform="matrix(1.0017 0 0 1 219.7612 209.6724)" font-size="7">returnSetState: boolean</text>
		<text transform="matrix(1.0017 0 0 1 157.7612 228.0728)" font-size="7" letter-spacing="59.901">	</text>
		<text transform="matrix(1.0017 0 0 1 219.7612 228.0728)" font-size="7">notifyStateChanged(State.INPROGRESS)</text>
		<text transform="matrix(1.0017 0 0 1 157.7612 246.4727)" font-size="7" letter-spacing="59.901">	</text>
		<text transform="matrix(1.0017 0 0 1 219.7612 246.4727)" font-size="7">notifyDataAvailable(AvailableData inputs,true)</text>
		<text transform="matrix(1.0017 0 0 1 157.7612 264.8726)" font-size="7" letter-spacing="59.901">	</text>
		<text transform="matrix(1.0017 0 0 1 219.7612 264.8726)" font-size="7">getData(inputUUIDs,acceptableTransferSyntaxUIDs, true)</text>
		<text transform="matrix(1.0017 0 0 1 157.7612 283.2725)" font-size="7" letter-spacing="59.901">	</text>
		<text transform="matrix(1.0017 0 0 1 219.7612 283.2725)" font-size="7">returnGetData :ArrayofObjectLocator</text>
		<text transform="matrix(1.0017 0 0 1 157.7612 314.6724)" font-size="7" letter-spacing="59.901">	</text>
		<text transform="matrix(1.0017 0 0 1 219.7612 314.6724)" font-size="7">{ </text>
		<text transform="matrix(0.9288 0 0 1 224.0513 314.6724)" font-size="7">After Processing: partial output or 100% output available. }</text>
		<text transform="matrix(1.0017 0 0 1 157.7612 340.0723)" font-size="7" letter-spacing="59.901">	</text>
		<text transform="matrix(1.0017 0 0 1 219.7612 340.0723)" fill="#ED1C24" font-size="7">getOutputLocation</text>
		<text transform="matrix(1.0017 0 0 1 157.7612 358.4727)" font-size="7" letter-spacing="59.901">	</text>
		<text transform="matrix(1.0017 0 0 1 219.7612 358.4727)" font-size="7">returnGetOutputLocationURI</text>
		<text transform="matrix(1.0017 0 0 1 157.7612 395.2725)" font-size="7" letter-spacing="59.901">	</text>
		
			<text transform="matrix(1.0017 0 0 1 219.7612 395.2725)" font-size="7" letter-spacing="231.616">	</text>
		<text transform="matrix(1.0017 0 0 1 453.7617 395.2725)" font-size="7">StoreOutput</text>
		<text transform="matrix(1.0017 0 0 1 157.7612 413.6729)" font-size="7" letter-spacing="59.901">	</text>
		
			<text transform="matrix(1.0017 0 0 1 219.7612 413.6729)" font-size="7" letter-spacing="231.616">	</text>
		<text transform="matrix(1.0017 0 0 1 453.7617 413.6729)" font-size="7">returnStoreOutput</text>
		<text transform="matrix(1.0017 0 0 1 157.7612 432.0723)" font-size="7" letter-spacing="59.901">	</text>
		
			<text transform="matrix(1.0017 0 0 1 219.7612 432.0723)" font-size="7" letter-spacing="231.616">	</text>
		<text transform="matrix(1.0017 0 0 1 453.7617 432.0723)" font-size="7">createDataAvailable(OutputLocationURI)</text>
		<text transform="matrix(1.0017 0 0 1 157.7612 468.8721)" font-size="7" letter-spacing="59.901">	</text>
		<text transform="matrix(1.0017 0 0 1 219.7612 468.8721)" fill="#ED1C24" font-size="7">notifyDataAvailable(AvailableData outputs,true)</text>
		<text transform="matrix(1.0017 0 0 1 157.7612 505.6729)" font-size="7" letter-spacing="59.901">	</text>
		<text transform="matrix(1.0017 0 0 1 219.7612 505.6729)" font-size="7">[Processing 100% completed]</text>
		<text transform="matrix(1.0017 0 0 1 157.7612 524.0723)" font-size="7" letter-spacing="59.901">	</text>
		<text transform="matrix(1.0017 0 0 1 219.7612 524.0723)" fill="#ED1C24" font-size="7">notifyStateChanged(State.COMPLETED)</text>
		<text transform="matrix(1.0017 0 0 1 157.7612 560.8721)" font-size="7" letter-spacing="59.901">	</text>
		<text transform="matrix(1.0017 0 0 1 219.7612 560.8721)" font-size="7">getData(outputUUIDs, acceptableTransferSyntaxUIDs, true)</text>
		<text transform="matrix(1.0017 0 0 1 157.7612 579.2725)" font-size="7" letter-spacing="59.901">	</text>
		<text transform="matrix(1.0017 0 0 1 219.7612 579.2725)" font-size="7">return GetData :ArrayOfObjectLocator</text>
		<text transform="matrix(1.0017 0 0 1 157.7612 597.6729)" font-size="7" letter-spacing="59.901">	</text>
		<text transform="matrix(1.0017 0 0 1 219.7612 597.6729)" fill="#ED1C24" font-size="7">submit Data</text>
		<text transform="matrix(1.0017 0 0 1 157.7612 634.4727)" font-size="7" letter-spacing="59.901">	</text>
		<text transform="matrix(1.0017 0 0 1 219.7612 634.4727)" fill="#ED1C24" font-size="7">setState(State.IDLE)</text>
		<text transform="matrix(1.0017 0 0 1 157.7612 652.873)" font-size="7" letter-spacing="59.901">	</text>
		<text transform="matrix(1.0017 0 0 1 219.7612 652.873)" font-size="7">returnSetState :boolean </text>
		<text transform="matrix(1.0017 0 0 1 157.7612 671.2725)" font-size="7" letter-spacing="59.901">	</text>
		<text transform="matrix(1.0017 0 0 1 219.7612 671.2725)" font-size="7">notifyStateChanged(State.IDLE)</text>
		<rect x="153.398" y="714.312" fill="none" width="453.989" height="92.02"/>
		<text transform="matrix(0.9288 0 0 1 153.3979 720.0381)"><tspan x="0" y="0" font-size="8">Notes:</tspan><tspan x="0" y="12.6" fill="#ED1C24" font-size="8">1.</tspan><tspan x="6.672" y="12.6" font-size="8" letter-spacing="9.69">	</tspan><tspan x="19.379" y="12.6" font-size="8">getOutputLocation could be called earlier. Data Storage also can be performed periodically at any time prior to notifyDataAvailable().</tspan><tspan x="0" y="25.2" fill="#ED1C24" font-size="8">2.</tspan><tspan x="6.672" y="25.2" font-size="8" letter-spacing="9.69">	</tspan><tspan x="19.379" y="25.2" font-size="8">notifyState(State.COMPLETED) must be used by the Application to inform the Host when processing is 100% completed. The Host </tspan><tspan x="19.379" y="34.8" font-size="8">must act upon this notification to save data prior to setting the state back to IDLE.</tspan><tspan x="0" y="47.4" fill="#ED1C24" font-size="8">3.</tspan><tspan x="6.672" y="47.4" font-size="8" letter-spacing="9.69">	</tspan><tspan x="19.379" y="47.4" font-size="8">Since notifyDataAvailable() is sent from the application to the Host periodically, the Host is aware of all data available to be saved </tspan><tspan x="19.379" y="57" font-size="8">prior to the application setting the state to COMPLETED. An application need not track this data further, (e.g., need not be able to </tspan><tspan x="19.379" y="66.6" font-size="8">create files with the data) as soon as it receives setState(State.IDLE) from the Host.</tspan><tspan x="0" y="79.2" fill="#ED1C24" font-size="8">4.</tspan><tspan x="6.672" y="79.2" font-size="8" letter-spacing="9.69">	</tspan><tspan x="19.379" y="79.2" font-size="8">Host submits data from OutputDir to DICOM repository, GRID repository, etc.</tspan></text>
		<g>
			<polygon fill="#B2CEE7" stroke="#000000" stroke-width="0.25" stroke-linecap="round" stroke-linejoin="round" points="
				140.128,61.411 139.996,61.739 139.945,62.553 140.018,63.293 140.347,64.588 140.372,64.663 140.606,65.071 140.736,65.172 
				140.783,65.195 140.855,65.199 140.934,65.196 141.01,65.174 141.062,65.148 141.088,65.121 141.189,64.99 141.313,64.528 
				141.263,63.193 141.112,62.452 140.829,61.664 140.805,61.615 140.581,61.339 140.528,61.331 140.351,61.286 140.171,61.383 			
				"/>
			<polygon fill="#B2CEE7" stroke="#000000" stroke-width="0.25" stroke-linecap="round" stroke-linejoin="round" points="
				141.319,60.548 141.09,60.213 140.733,60.009 140.324,59.968 139.94,60.12 139.659,60.423 139.534,60.823 139.589,61.229 
				139.611,61.281 139.842,61.616 140.198,61.82 140.608,61.848 140.992,61.708 141.287,61.405 141.414,61.004 141.347,60.597 			
				"/>
			<polygon fill="#B2CEE7" stroke="#000000" stroke-width="0.25" stroke-linecap="round" stroke-linejoin="round" points="
				132.91,61.278 133.068,61.515 133.172,62.229 133.189,62.403 133.165,63.114 132.907,64.356 132.664,64.785 132.609,64.883 
				132.502,64.962 132.431,65.011 132.351,65.036 132.258,65.036 132.198,65.011 132.103,64.961 132.046,64.884 131.891,64.509 
				131.847,63.309 131.846,63.112 131.949,62.4 132.2,61.635 132.28,61.512 132.461,61.263 132.555,61.211 132.659,61.185 
				132.765,61.186 132.859,61.213 			"/>
			<polygon fill="#B2CEE7" stroke="#000000" stroke-width="0.25" stroke-linecap="round" stroke-linejoin="round" points="
				133.419,61.465 133.625,61.15 133.669,60.751 133.521,60.37 133.221,60.069 132.835,59.931 132.43,59.957 132.095,60.144 
				131.995,60.272 131.79,60.601 131.748,61.001 131.896,61.382 132.197,61.668 132.581,61.82 132.986,61.795 133.322,61.609 			"/>
			<polygon fill="#B2CEE7" stroke="#000000" stroke-width="0.25" stroke-linecap="round" stroke-linejoin="round" points="
				134.201,59.05 133.926,59.324 133.825,59.449 133.265,62.016 133.294,63.267 133.576,64.183 133.852,64.558 133.95,64.68 
				134.084,64.757 134.838,65.022 135.933,65.188 137.153,65.174 138.242,65.019 138.96,64.739 139.107,64.662 139.207,64.553 
				139.442,64.177 139.741,63.261 139.787,61.998 139.234,59.432 139.135,59.307 138.847,59.047 138.749,58.978 138.04,58.776 
				137.049,58.67 135.96,58.671 134.987,58.791 134.287,58.994 			"/>
			<polyline fill="#B2CEE7" stroke="#000000" stroke-width="0.25" stroke-linecap="round" stroke-linejoin="round" points="
				140.758,59.588 140.758,59.602 140.706,59.755 140.805,60.146 140.805,60.147 141.037,60.598 141.29,61.032 141.575,61.333 
				141.745,61.365 141.925,61.312 144.46,60.247 147.154,58.668 147.514,58.392 147.687,58.19 147.716,58.035 147.662,57.855 
				147.513,57.53 147.308,57.144 147.081,56.76 146.882,56.458 146.754,56.305 146.603,56.253 146.347,56.284 145.918,56.453 
				143.146,57.887 140.905,59.475 140.758,59.588 140.805,60.146 140.805,60.147 			"/>
			<polygon fill="#B2CEE7" stroke="#000000" stroke-width="0.25" stroke-linecap="round" stroke-linejoin="round" points="
				138.342,59.404 137.528,59.962 137.229,60.084 136.793,60.144 136.293,60.144 135.855,60.086 135.55,59.964 134.743,59.407 
				134.561,59.152 134.059,58.184 134.055,57.094 134.539,56.103 134.743,55.877 135.546,55.291 135.851,55.191 136.286,55.14 
				136.772,55.139 137.224,55.19 137.533,55.289 138.316,55.875 138.545,56.1 139.025,57.09 139.005,58.18 138.5,59.149 			"/>
			<polygon fill="#B2CEE7" stroke="#000000" stroke-width="0.25" stroke-linecap="round" stroke-linejoin="round" points="
				125.671,58.514 126.031,58.774 128.725,60.299 131.26,61.314 131.439,61.365 131.596,61.331 131.891,61.024 131.942,60.95 
				132.024,60.801 132.129,60.603 132.245,60.4 132.323,60.239 132.357,60.134 132.455,59.733 132.451,59.688 132.384,59.533 
				132.248,59.407 129.966,57.862 127.177,56.485 126.761,56.333 126.493,56.306 126.354,56.361 126.211,56.482 126.01,56.758 
				125.797,57.125 125.595,57.53 125.449,57.881 125.4,58.106 125.443,58.26 125.603,58.445 			"/>
			<polygon fill="#B2CEE7" stroke="#000000" stroke-width="0.25" stroke-linecap="round" stroke-linejoin="round" points="
				124.658,55.978 125.086,55.795 125.568,55.821 126.007,56.053 126.316,56.455 126.442,56.936 126.359,57.397 126.077,57.755 
				125.924,57.9 125.495,58.082 125.014,58.055 124.577,57.811 124.254,57.422 124.126,56.942 124.206,56.479 124.487,56.106 			"/>
			<polygon fill="#B2CEE7" stroke="#000000" stroke-width="0.25" stroke-linecap="round" stroke-linejoin="round" points="
				147.812,55.694 148.304,55.773 148.71,56.059 148.952,56.509 148.955,56.638 148.959,57.122 148.751,57.55 148.656,57.649 
				148.501,57.757 148.301,57.875 148.101,57.955 147.944,57.986 147.863,57.98 147.359,57.902 146.953,57.606 146.723,57.169 
				146.703,56.661 146.719,56.558 146.924,56.128 147.007,56.031 147.176,55.924 147.31,55.844 147.362,55.818 147.562,55.726 
				147.717,55.691 			"/>
			<polygon fill="#B2CEE7" stroke="#000000" stroke-width="0.25" stroke-linecap="round" stroke-linejoin="round" points="
				124.966,55.622 125.047,55.494 127.102,53.311 128.5,51.858 128.703,51.707 130.015,50.853 130.369,50.774 130.599,50.8 
				130.851,50.878 131.181,51.125 131.517,51.462 131.801,51.859 131.994,52.215 132.026,52.47 132.023,52.7 131.896,53.036 
				130.9,54.222 130.707,54.397 129.102,55.592 126.689,57.344 126.543,57.404 126.406,57.395 126.13,57.348 125.777,57.142 
				125.422,56.81 125.138,56.41 124.968,56.048 124.966,55.772 			"/>
			<polygon fill="#B2CEE7" stroke="#000000" stroke-width="0.25" stroke-linecap="round" stroke-linejoin="round" points="
				148.174,55.666 148.09,55.44 147.995,55.311 145.935,53.135 144.535,51.689 143.199,50.852 142.838,50.773 142.608,50.769 
				142.401,50.795 142.099,50.953 141.749,51.256 141.423,51.636 141.19,52.019 141.086,52.342 141.088,52.55 141.14,52.773 
				141.284,53.126 142.286,54.304 143.907,55.475 146.339,57.202 146.474,57.274 146.722,57.324 146.852,57.302 147.179,57.174 
				147.538,56.894 147.867,56.516 148.096,56.128 148.173,55.797 			"/>
			<polygon fill="#B2CEE7" stroke="#000000" stroke-width="0.25" stroke-linecap="round" stroke-linejoin="round" points="
				134.31,56.029 133.902,55.389 133.746,54.381 133.237,51.106 133.523,48.894 134.075,48.256 134.332,48.11 135.197,47.748 
				135.623,47.677 136.215,47.646 136.879,47.646 137.487,47.676 137.919,47.747 138.778,48.108 139.059,48.254 139.609,48.892 
				139.875,51.103 139.355,54.377 139.184,55.373 138.774,56.026 138.577,56.229 137.988,56.412 137.557,56.535 136.92,56.606 
				136.206,56.606 135.553,56.536 135.115,56.414 134.53,56.231 			"/>
			<polygon fill="#B2CEE7" stroke="#000000" stroke-width="0.25" stroke-linecap="round" stroke-linejoin="round" points="
				131.314,49.548 130.809,49.989 130.569,50.625 130.621,51.328 130.955,51.942 131.515,52.37 132.181,52.519 132.838,52.349 
				133.345,51.913 133.497,51.765 133.753,51.147 133.72,50.443 133.374,49.826 132.813,49.397 132.146,49.25 131.488,49.423 			"/>
			<polygon fill="#B2CEE7" stroke="#000000" stroke-width="0.25" stroke-linecap="round" stroke-linejoin="round" points="
				142.005,49.627 142.434,50.208 142.562,50.918 142.378,51.613 141.9,52.169 141.241,52.47 140.529,52.448 139.897,52.119 
				139.483,51.553 139.355,50.845 139.537,50.139 139.999,49.583 140.657,49.279 141.371,49.299 141.396,49.303 			"/>
			<polygon fill="#B2CEE7" stroke="#000000" stroke-width="0.25" stroke-linecap="round" stroke-linejoin="round" points="
				137.277,48.049 137.843,47.592 138.17,46.918 138.173,46.179 137.865,45.514 137.3,45.039 137.223,45.007 136.573,44.879 
				135.931,45.007 135.858,45.052 135.292,45.514 134.969,46.181 134.97,46.932 135.294,47.593 135.858,48.05 135.933,48.1 
				136.134,48.133 136.567,48.207 137.022,48.132 137.208,48.1 			"/>
			<polygon fill="#B2CEE7" stroke="#000000" stroke-width="0.25" stroke-linecap="round" stroke-linejoin="round" points="
				134.661,45.535 134.31,45.24 134.055,44.732 133.878,43.944 133.295,40.312 133.549,38.986 134.515,37.591 135.424,37.039 
				136.599,36.832 137.786,37.039 138.68,37.59 139.642,38.985 139.891,40.31 139.284,43.942 139.104,44.731 138.848,45.238 
				138.495,45.521 138.323,45.616 137.809,45.689 137.028,45.722 136.162,45.723 135.378,45.69 134.843,45.617 			"/>
			<polygon fill="#B2CEE7" stroke="#000000" stroke-width="0.25" stroke-linecap="round" stroke-linejoin="round" points="
				132.664,88.733 133.085,88.62 134.312,86.561 134.603,85.794 134.598,85.387 134.606,85.125 134.439,84.849 134.125,84.619 
				133.745,84.475 133.37,84.447 133.063,84.544 132.789,84.797 132.594,85.025 132.247,85.783 131.612,88.066 131.833,88.42 
				131.978,88.529 132.226,88.649 132.48,88.718 			"/>
			<polygon fill="#B2CEE7" stroke="#000000" stroke-width="0.25" stroke-linecap="round" stroke-linejoin="round" points="
				133.95,83.446 133.779,83.446 133.628,83.479 133.464,83.548 133.267,83.681 133.119,83.93 133.034,84.14 133.036,84.465 
				133.108,84.689 133.263,84.926 133.44,85.074 133.699,85.152 133.775,85.175 133.947,85.175 134.086,85.128 134.276,85.075 
				134.46,84.927 134.609,84.691 134.691,84.467 134.69,84.155 134.614,83.932 134.463,83.682 134.284,83.549 134.1,83.48 			"/>
			<polygon fill="#B2CEE7" stroke="#000000" stroke-width="0.25" stroke-linecap="round" stroke-linejoin="round" points="
				133.729,84.287 133.375,84.164 133.142,83.958 133.066,83.701 132.933,83.166 132.859,82.054 132.582,79.234 132.601,76.185 
				132.71,75.731 132.84,75.451 132.99,75.344 133.269,75.147 133.653,75.044 134.082,75.044 134.463,75.148 134.581,75.226 
				134.888,75.452 134.991,75.733 135.119,76.187 135.217,79.236 135.016,82.056 134.969,83.167 134.843,83.703 134.745,83.959 
				134.491,84.165 134.132,84.287 134.104,84.288 133.774,84.287 			"/>
			<polygon fill="#B2CEE7" stroke="#000000" stroke-width="0.25" stroke-linecap="round" stroke-linejoin="round" points="
				134.133,74.104 134.383,74.187 134.611,74.358 134.797,74.669 134.897,74.938 134.898,75.345 134.792,75.604 134.61,75.912 
				134.361,76.086 134.134,76.165 133.949,76.216 133.729,76.216 133.548,76.164 133.296,76.085 133.068,75.911 132.866,75.602 
				132.784,75.33 132.78,74.924 132.905,74.667 133.084,74.357 133.32,74.186 133.546,74.104 133.744,74.053 133.95,74.053 			"/>
			<polygon fill="#B2CEE7" stroke="#000000" stroke-width="0.25" stroke-linecap="round" stroke-linejoin="round" points="
				134.964,74.887 135.09,74.663 135.123,74.532 135.116,74.286 135.623,69.938 135.938,66.712 135.725,66.31 135.576,66.105 
				135.176,65.929 134.843,65.782 134.491,65.722 134.106,65.7 133.752,65.731 133.399,65.848 132.992,65.98 132.835,66.178 
				132.576,66.543 132.581,69.791 132.658,74.18 132.627,74.412 132.654,74.557 132.757,74.786 132.815,74.838 133.121,75.02 
				133.578,75.142 134.103,75.166 134.563,75.09 134.89,74.923 			"/>
			<polygon fill="#B2CEE7" stroke="#000000" stroke-width="0.25" stroke-linecap="round" stroke-linejoin="round" points="
				140.184,88.708 139.755,88.566 138.628,86.447 138.36,85.658 138.378,85.258 138.408,85.004 138.601,84.743 138.932,84.539 
				139.32,84.415 139.697,84.429 139.99,84.54 140.25,84.812 140.426,85.068 140.746,85.829 141.269,88.133 141.035,88.464 
				140.883,88.561 140.627,88.66 140.367,88.708 			"/>
			<polygon fill="#B2CEE7" stroke="#000000" stroke-width="0.25" stroke-linecap="round" stroke-linejoin="round" points="
				138.933,83.425 139.104,83.425 139.256,83.471 139.416,83.526 139.616,83.658 139.762,83.907 139.864,84.129 139.849,84.442 
				139.793,84.666 139.638,84.916 139.463,85.052 139.206,85.13 139.112,85.154 138.954,85.154 138.802,85.121 138.627,85.068 
				138.44,84.921 138.294,84.672 138.193,84.461 138.196,84.136 138.268,83.926 138.421,83.676 138.597,83.53 138.797,83.473 			"/>
			<polygon fill="#B2CEE7" stroke="#000000" stroke-width="0.25" stroke-linecap="round" stroke-linejoin="round" points="
				139.183,84.265 139.535,84.154 139.764,83.935 139.896,83.43 139.971,83.142 140.05,82.03 140.354,79.21 140.375,76.162 
				140.255,75.709 140.119,75.428 139.971,75.322 139.688,75.126 139.287,75.024 138.859,75.025 138.494,75.143 138.373,75.221 
				138.085,75.448 137.987,75.729 137.857,76.183 137.732,79.232 137.895,82.051 137.936,83.15 138.046,83.698 138.148,83.954 
				138.419,84.159 138.78,84.267 138.805,84.268 139.135,84.266 			"/>
			<polygon fill="#B2CEE7" stroke="#000000" stroke-width="0.25" stroke-linecap="round" stroke-linejoin="round" points="
				139.253,76.208 139.034,76.209 138.849,76.158 138.625,76.081 138.374,75.907 138.195,75.599 138.069,75.328 138.086,74.921 
				138.167,74.665 138.368,74.354 138.593,74.182 138.848,74.085 139.028,74.034 139.235,74.033 139.435,74.083 139.642,74.178 
				139.896,74.336 140.07,74.658 140.201,74.915 140.195,75.321 140.119,75.58 139.914,75.889 139.691,76.064 139.435,76.156 			"/>
			<polygon fill="#B2CEE7" stroke="#000000" stroke-width="0.25" stroke-linecap="round" stroke-linejoin="round" points="
				140.245,74.764 140.327,74.534 140.355,74.389 140.324,74.157 140.424,69.769 140.449,66.536 140.179,66.158 140,65.961 
				139.585,65.83 139.239,65.726 138.883,65.695 138.499,65.706 138.162,65.779 137.81,65.926 137.429,66.104 137.302,66.308 
				137.074,66.711 137.383,69.936 137.867,74.283 137.859,74.516 137.893,74.659 138.038,74.87 138.112,74.919 138.443,75.073 
				138.908,75.147 139.432,75.122 139.872,74.999 140.173,74.816 			"/>
			<polygon fill="#B2CEE7" stroke="#000000" stroke-width="0.25" stroke-linecap="round" stroke-linejoin="round" points="
				134.844,66.667 135.344,66.364 135.453,66.209 135.778,65.651 135.809,65.015 135.551,64.427 135.43,64.26 134.987,63.904 
				134.796,63.841 134.539,63.792 134.255,63.772 133.983,63.796 133.802,63.85 133.317,64.158 133.188,64.307 132.865,64.868 
				132.839,65.517 133.11,66.103 133.213,66.263 133.672,66.614 133.849,66.693 134.105,66.745 134.404,66.765 134.663,66.738 			
				"/>
			<polygon fill="#B2CEE7" stroke="#000000" stroke-width="0.25" stroke-linecap="round" stroke-linejoin="round" points="
				138.215,63.826 138.471,63.775 138.755,63.768 139.028,63.792 139.213,63.845 139.692,64.152 139.841,64.3 140.15,64.861 
				140.176,65.498 139.915,66.083 139.82,66.256 139.357,66.595 139.184,66.688 138.929,66.74 138.63,66.748 138.369,66.721 
				138.173,66.664 137.689,66.362 137.561,66.208 137.249,65.649 137.208,65.013 137.479,64.412 137.581,64.258 138.04,63.901 			
				"/>
		</g>
	</g>
</g>
</svg>
