<?xml version="1.0" encoding="utf-8"?>

<!DOCTYPE svg PUBLIC "-//W3C//DTD SVG 1.1//EN" "http://www.w3.org/Graphics/SVG/1.1/DTD/svg11.dtd">
<svg version="1.1" id="Layer_1" xmlns="http://www.w3.org/2000/svg" xmlns:xlink="http://www.w3.org/1999/xlink" x="0px" y="0px"
	 width="702px" height="532px" viewBox="0 0 702 532" enable-background="new 0 0 702 532" xml:space="preserve">

<defs>
	<style type="text/css">
	text {
	  font-family: Helvetica, Verdana, ArialUnicodeMS, san-serif
	}
	</style>
</defs>

<g>
   <desc>
	PS3.19 2013 - Application Hosting
   </desc>
</g>

<g>
	<rect x="1" y="1" fill="#F5EED6" width="700" height="530"/>
	<g>
		<g>
			<g>
				<line fill="none" stroke="#1C3766" x1="248.22" y1="178.294" x2="248.22" y2="199.042"/>
				<g>
					<polygon fill="#1C3766" points="245.896,197.456 248.22,206.129 250.544,197.456 					"/>
				</g>
			</g>
		</g>
		<line fill="none" stroke="#1C3766" x1="300.099" y1="154.056" x2="300.099" y2="177.455"/>
		<g>
			<g>
				<line fill="none" stroke="#1C3766" x1="350.42" y1="178.294" x2="350.42" y2="199.042"/>
				<g>
					<polygon fill="#1C3766" points="348.096,197.456 350.42,206.129 352.744,197.456 					"/>
				</g>
			</g>
		</g>
		<g>
			<g>
				<polyline fill="none" stroke="#1C3766" points="473.619,199.042 473.619,177.455 146.02,177.455 146.02,199.042 				"/>
				<g>
					<polygon fill="#1C3766" points="475.943,197.456 473.619,206.129 471.295,197.456 					"/>
				</g>
				<g>
					<polygon fill="#1C3766" points="143.695,197.456 146.02,206.129 148.344,197.456 					"/>
				</g>
			</g>
		</g>
		<g>
			<g>
				<line fill="none" stroke="#1C3766" x1="300.099" y1="55.233" x2="300.099" y2="90.282"/>
				<g>
					<polygon fill="#1C3766" points="297.775,88.696 300.099,97.369 302.423,88.696 					"/>
				</g>
			</g>
		</g>
		<g>
			<g>
				<polyline fill="none" stroke="#1C3766" points="329.177,90.325 329.177,74.372 538.515,74.372 538.515,260.088 472.808,260.065 
					472.808,239.541 				"/>
				<g>
					<polygon fill="#1C3766" points="331.501,88.739 329.177,97.412 326.853,88.739 					"/>
				</g>
			</g>
		</g>
		<g>
			<g>
				<polyline fill="none" stroke="#1C3766" points="478.488,419.978 478.488,458.129 385.42,458.129 385.42,475.135 				"/>
				<g>
					<polygon fill="#1C3766" points="383.096,473.55 385.42,482.223 387.744,473.55 					"/>
				</g>
			</g>
		</g>
		<g>
			<g>
				<polyline fill="none" stroke="#1C3766" points="415.172,419.978 415.172,436.531 370.699,436.531 370.699,475.135 				"/>
				<g>
					<polygon fill="#1C3766" points="368.375,473.55 370.699,482.223 373.023,473.55 					"/>
				</g>
			</g>
		</g>
		<g>
			<g>
				<line fill="none" stroke="#1C3766" x1="355.979" y1="420.008" x2="355.979" y2="475.135"/>
				<g>
					<polygon fill="#1C3766" points="353.655,473.55 355.979,482.223 358.304,473.55 					"/>
				</g>
			</g>
		</g>
		<g>
			<g>
				<polyline fill="none" stroke="#1C3766" points="286.368,419.978 286.368,436.531 341.259,436.531 341.259,475.135 				"/>
				<g>
					<polygon fill="#1C3766" points="338.935,473.55 341.259,482.223 343.583,473.55 					"/>
				</g>
			</g>
		</g>
		<g>
			<g>
				<polyline fill="none" stroke="#1C3766" points="222.687,419.978 222.687,447.33 326.539,447.33 326.539,475.135 				"/>
				<g>
					<polygon fill="#1C3766" points="324.215,473.55 326.539,482.223 328.863,473.55 					"/>
				</g>
			</g>
		</g>
		<g>
			<g>
				<polyline fill="none" stroke="#1C3766" points="145.322,241.055 145.322,458.129 311.819,458.129 311.819,475.135 				"/>
				<g>
					<polygon fill="#1C3766" points="309.495,473.55 311.819,482.223 314.143,473.55 					"/>
				</g>
			</g>
		</g>
		<rect x="107.296" y="15.315" fill="#FFFFFF" stroke="#000000" width="99.693" height="12"/>
		<g>
			<g opacity="0.8">
				<rect x="303.892" y="57.866" fill="none" width="16.894" height="8.574"/>
				<text transform="matrix(1 0 0 1 303.8926 64.3052)" font-size="9">1..</text>
			</g>
			<rect x="303.892" y="57.866" fill="none" width="16.894" height="8.574"/>
			<text transform="matrix(1 0 0 1 303.8926 64.3052)" font-size="9">1..</text>
		</g>
		<g>
			<g opacity="0.8">
				<rect x="303.892" y="82.266" fill="none" width="16.894" height="8.574"/>
				<text transform="matrix(1 0 0 1 303.8931 88.7061)" font-size="9">*</text>
			</g>
			<rect x="303.892" y="82.266" fill="none" width="16.894" height="8.574"/>
			<text transform="matrix(1 0 0 1 303.8931 88.7061)" font-size="9">*</text>
		</g>
		<g>
			<g opacity="0.8">
				<rect x="333.268" y="82.266" fill="none" width="16.894" height="8.574"/>
				<text transform="matrix(1 0 0 1 333.2686 88.7061)" font-size="9">*</text>
			</g>
			<rect x="333.268" y="82.266" fill="none" width="16.894" height="8.574"/>
			<text transform="matrix(1 0 0 1 333.2686 88.7061)" font-size="9">*</text>
		</g>
		<g>
			<g opacity="0.8">
				<rect x="303.893" y="159.306" fill="none" width="16.894" height="8.574"/>
				<text transform="matrix(1 0 0 1 303.8931 165.7451)" font-size="9">0..</text>
			</g>
			<rect x="303.893" y="159.306" fill="none" width="16.894" height="8.574"/>
			<text transform="matrix(1 0 0 1 303.8931 165.7451)" font-size="9">0..</text>
		</g>
		<g>
			<g opacity="0.8">
				<rect x="476.317" y="243.276" fill="none" width="16.894" height="8.574"/>
				<text transform="matrix(1 0 0 1 476.3164 249.7158)" font-size="9">0..</text>
			</g>
			<rect x="476.317" y="243.276" fill="none" width="16.894" height="8.574"/>
			<text transform="matrix(1 0 0 1 476.3164 249.7158)" font-size="9">0..</text>
		</g>
		<g>
			<g opacity="0.8">
				<rect x="149.89" y="192.211" fill="none" width="16.894" height="8.574"/>
				<text transform="matrix(1 0 0 1 149.8896 198.6509)" font-size="9">*</text>
			</g>
			<rect x="149.89" y="192.211" fill="none" width="16.894" height="8.574"/>
			<text transform="matrix(1 0 0 1 149.8896 198.6509)" font-size="9">*</text>
		</g>
		<g>
			<g opacity="0.8">
				<rect x="252.22" y="192.211" fill="none" width="16.894" height="8.574"/>
				<text transform="matrix(1 0 0 1 252.2192 198.6509)" font-size="9">1</text>
			</g>
			<rect x="252.22" y="192.211" fill="none" width="16.894" height="8.574"/>
			<text transform="matrix(1 0 0 1 252.2192 198.6509)" font-size="9">1</text>
		</g>
		<g>
			<g opacity="0.8">
				<rect x="354.549" y="192.211" fill="none" width="16.895" height="8.574"/>
				<text transform="matrix(1 0 0 1 354.5488 198.6509)" font-size="9">1</text>
			</g>
			<rect x="354.549" y="192.211" fill="none" width="16.895" height="8.574"/>
			<text transform="matrix(1 0 0 1 354.5488 198.6509)" font-size="9">1</text>
		</g>
		<g>
			<g opacity="0.8">
				<rect x="476.317" y="192.211" fill="none" width="16.895" height="8.574"/>
				<text transform="matrix(1 0 0 1 476.3174 198.6509)" font-size="9">*</text>
			</g>
			<rect x="476.317" y="192.211" fill="none" width="16.895" height="8.574"/>
			<text transform="matrix(1 0 0 1 476.3174 198.6509)" font-size="9">*</text>
		</g>
		<g>
			<g>
				<line fill="none" stroke="#1C3766" x1="350.42" y1="240.389" x2="350.42" y2="284.504"/>
				<g>
					<polygon fill="#1C3766" points="348.096,282.919 350.42,291.592 352.744,282.919 					"/>
				</g>
			</g>
		</g>
		<g>
			<g>
				<polyline fill="none" stroke="#1C3766" points="492.423,284.504 492.423,270.118 208.42,270.118 208.42,284.504 				"/>
				<g>
					<polygon fill="#1C3766" points="494.747,282.919 492.423,291.592 490.099,282.919 					"/>
				</g>
				<g>
					<polygon fill="#1C3766" points="206.096,282.919 208.42,291.592 210.744,282.919 					"/>
				</g>
			</g>
		</g>
		<g>
			<g opacity="0.8">
				<rect x="354.09" y="244.769" fill="none" width="16.894" height="8.574"/>
				<text transform="matrix(1 0 0 1 354.0889 251.208)" font-size="9">0..</text>
			</g>
			<rect x="354.09" y="244.769" fill="none" width="16.894" height="8.574"/>
			<text transform="matrix(1 0 0 1 354.0889 251.208)" font-size="9">0..</text>
		</g>
		<g>
			<g opacity="0.8">
				<rect x="211.526" y="330.568" fill="none" width="16.894" height="8.574"/>
				<text transform="matrix(1 0 0 1 211.5254 337.0078)" font-size="9">0..</text>
			</g>
			<rect x="211.526" y="330.568" fill="none" width="16.894" height="8.574"/>
			<text transform="matrix(1 0 0 1 211.5254 337.0078)" font-size="9">0..</text>
		</g>
		<g>
			<g opacity="0.8">
				<rect x="227.143" y="423.568" fill="none" width="16.894" height="8.574"/>
				<text transform="matrix(1 0 0 1 227.1421 430.0078)" font-size="9">0..</text>
			</g>
			<rect x="227.143" y="423.568" fill="none" width="16.894" height="8.574"/>
			<text transform="matrix(1 0 0 1 227.1421 430.0078)" font-size="9">0..</text>
		</g>
		<g>
			<g opacity="0.8">
				<rect x="149.89" y="244.768" fill="none" width="16.894" height="8.574"/>
				<text transform="matrix(1 0 0 1 149.8896 251.208)" font-size="9">0..</text>
			</g>
			<rect x="149.89" y="244.768" fill="none" width="16.894" height="8.574"/>
			<text transform="matrix(1 0 0 1 149.8896 251.208)" font-size="9">0..</text>
		</g>
		<g>
			<g opacity="0.8">
				<rect x="289.584" y="423.568" fill="none" width="16.894" height="8.574"/>
				<text transform="matrix(1 0 0 1 289.584 430.0078)" font-size="9">0..</text>
			</g>
			<rect x="289.584" y="423.568" fill="none" width="16.894" height="8.574"/>
			<text transform="matrix(1 0 0 1 289.584 430.0078)" font-size="9">0..</text>
		</g>
		<g>
			<g opacity="0.8">
				<rect x="359.227" y="423.568" fill="none" width="16.895" height="8.574"/>
				<text transform="matrix(1 0 0 1 359.2256 430.0078)" font-size="9">0..</text>
			</g>
			<rect x="359.227" y="423.568" fill="none" width="16.895" height="8.574"/>
			<text transform="matrix(1 0 0 1 359.2256 430.0078)" font-size="9">0..</text>
		</g>
		<g>
			<g opacity="0.8">
				<rect x="418.068" y="423.568" fill="none" width="16.895" height="8.574"/>
				<text transform="matrix(1 0 0 1 418.0684 430.0078)" font-size="9">0..</text>
			</g>
			<rect x="418.068" y="423.568" fill="none" width="16.895" height="8.574"/>
			<text transform="matrix(1 0 0 1 418.0684 430.0078)" font-size="9">0..</text>
		</g>
		<g>
			<g opacity="0.8">
				<rect x="482.312" y="423.568" fill="none" width="16.894" height="8.574"/>
				<text transform="matrix(1 0 0 1 482.3096 430.0078)" font-size="9">0..</text>
			</g>
			<rect x="482.312" y="423.568" fill="none" width="16.894" height="8.574"/>
			<text transform="matrix(1 0 0 1 482.3096 430.0078)" font-size="9">0..</text>
		</g>
		<g>
			<g opacity="0.8">
				<rect x="354.09" y="330.568" fill="none" width="16.895" height="8.574"/>
				<text transform="matrix(1 0 0 1 354.0898 337.0078)" font-size="9">0..</text>
			</g>
			<rect x="354.09" y="330.568" fill="none" width="16.895" height="8.574"/>
			<text transform="matrix(1 0 0 1 354.0898 337.0078)" font-size="9">0..</text>
		</g>
		<g>
			<g opacity="0.8">
				<rect x="496.653" y="330.568" fill="none" width="16.895" height="8.574"/>
				<text transform="matrix(1 0 0 1 496.6533 337.0078)" font-size="9">0..</text>
			</g>
			<rect x="496.653" y="330.568" fill="none" width="16.895" height="8.574"/>
			<text transform="matrix(1 0 0 1 496.6533 337.0078)" font-size="9">0..</text>
		</g>
		<g>
			<g opacity="0.8">
				<rect x="212.053" y="277.674" fill="none" width="16.894" height="8.574"/>
				<text transform="matrix(1 0 0 1 212.0552 284.1133)" font-size="9">1</text>
			</g>
			<rect x="212.053" y="277.674" fill="none" width="16.894" height="8.574"/>
			<text transform="matrix(1 0 0 1 212.0552 284.1133)" font-size="9">1</text>
		</g>
		<g>
			<g opacity="0.8">
				<rect x="355.064" y="277.674" fill="none" width="16.895" height="8.574"/>
				<text transform="matrix(1 0 0 1 355.0645 284.1133)" font-size="9">1</text>
			</g>
			<rect x="355.064" y="277.674" fill="none" width="16.895" height="8.574"/>
			<text transform="matrix(1 0 0 1 355.0645 284.1133)" font-size="9">1</text>
		</g>
		<g>
			<g opacity="0.8">
				<rect x="496.258" y="277.674" fill="none" width="16.895" height="8.574"/>
				<text transform="matrix(1 0 0 1 496.252 284.1133)" font-size="9">1</text>
			</g>
			<rect x="496.258" y="277.674" fill="none" width="16.895" height="8.574"/>
			<text transform="matrix(1 0 0 1 496.252 284.1133)" font-size="9">1</text>
		</g>
		<rect x="110.242" y="17.891" fill="none" width="93.801" height="9.729"/>
		<text transform="matrix(1 0 0 1 110.2422 23.6187)" font-size="8">class DICOM NativeModel</text>
		<g>
			<rect x="256.916" y="14.797" fill="#FFC20E" stroke="#1C3766" width="86.367" height="14.401"/>
			<rect x="256.916" y="29.198" fill="#FFC20E" stroke="#1C3766" width="86.367" height="26.036"/>
			<rect x="258.914" y="18.529" fill="none" width="81.367" height="8.883"/>
			<text transform="matrix(1 0 0 1 266.0322 24.2573)" font-size="8">DicomNativeModel</text>
		</g>
		<rect x="246.099" y="114.657" fill="#FFFFFF" stroke="#1C3766" width="108" height="39.473"/>
		<rect x="246.099" y="98.396" fill="#B2CEE7" stroke="#1C3766" width="108" height="16.261"/>
		<rect x="264.973" y="102.849" fill="none" width="70.252" height="8.883"/>
		<text transform="matrix(1 0 0 1 273.8696 108.5771)" font-size="8">DicomAttribute</text>
		<rect x="250.204" y="119.487" fill="none" width="99.791" height="33.712"/>
		<text transform="matrix(1 0 0 1 250.2046 124.4985)"><tspan x="0" y="0" font-size="7">+ Keyword: xs token [0..1]</tspan><tspan x="0" y="8.4" font-size="7">+ tag: xs string</tspan><tspan x="0" y="16.8" font-size="7">+ vr: xs:token</tspan><tspan x="0" y="25.2" font-size="7">+ privateCtreator: xs:string [0..1]</tspan></text>
		<g>
			<rect x="425.62" y="221.519" fill="#FFFFFF" stroke="#1C3766" width="95.999" height="18"/>
			<rect x="425.62" y="205.258" fill="#B2CEE7" stroke="#1C3766" width="95.999" height="16.261"/>
			<rect x="438.493" y="209.71" fill="none" width="70.252" height="8.883"/>
			<text transform="matrix(1 0 0 1 465.8408 215.4385)" font-size="8">Item</text>
			<rect x="429.51" y="226.351" fill="none" width="88.221" height="8.512"/>
			<text transform="matrix(1 0 0 1 429.5098 231.3599)" font-size="7">+ number: xs:positiveInteger</text>
		</g>
		<g>
			<rect x="98.02" y="222.389" fill="#FFFFFF" stroke="#1C3766" width="96" height="18"/>
			<rect x="98.02" y="206.128" fill="#B2CEE7" stroke="#1C3766" width="96" height="16.261"/>
			<rect x="110.893" y="210.581" fill="none" width="70.253" height="8.883"/>
			<text transform="matrix(1 0 0 1 135.7891 216.3052)" font-size="8">Value</text>
			<rect x="101.909" y="227.221" fill="none" width="88.222" height="8.512"/>
			<text transform="matrix(1 0 0 1 101.9092 232.23)" font-size="7">+ number: xs:positiveInteger</text>
		</g>
		<g>
			<rect x="302.42" y="222.389" fill="#FFFFFF" stroke="#1C3766" width="96" height="18"/>
			<rect x="302.42" y="206.128" fill="#B2CEE7" stroke="#1C3766" width="96" height="16.261"/>
			<rect x="315.293" y="210.581" fill="none" width="70.253" height="8.883"/>
			<text transform="matrix(1 0 0 1 327.0762 216.3086)" font-size="8">PersonName</text>
			<rect x="306.309" y="227.221" fill="none" width="88.222" height="8.512"/>
			<text transform="matrix(1 0 0 1 306.3091 232.23)" font-size="7">+ number: xs:positiveInteger</text>
		</g>
		<g>
			<rect x="302.42" y="308.411" fill="#FFFFFF" stroke="#1C3766" width="96" height="18"/>
			<rect x="302.42" y="292.15" fill="#B2CEE7" stroke="#1C3766" width="96" height="16.261"/>
			<rect x="315.293" y="296.604" fill="none" width="70.253" height="8.883"/>
			<text transform="matrix(1 0 0 1 318.8457 302.332)" font-size="8">IdeographicName</text>
		</g>
		<g>
			<rect x="160.022" y="308.411" fill="#FFFFFF" stroke="#1C3766" width="96" height="18"/>
			<rect x="160.022" y="292.15" fill="#B2CEE7" stroke="#1C3766" width="96" height="16.261"/>
			<rect x="172.895" y="296.604" fill="none" width="70.253" height="8.883"/>
			<text transform="matrix(1 0 0 1 178.6724 302.332)" font-size="8">AlphabeticName</text>
		</g>
		<g>
			<rect x="444.824" y="308.411" fill="#FFFFFF" stroke="#1C3766" width="96" height="18"/>
			<rect x="444.824" y="292.15" fill="#B2CEE7" stroke="#1C3766" width="96" height="16.261"/>
			<rect x="457.697" y="296.604" fill="none" width="70.253" height="8.883"/>
			<text transform="matrix(1 0 0 1 466.5879 302.332)" font-size="8">PhoneticName</text>
		</g>
		<g>
			<rect x="221.22" y="222.389" fill="#FFFFFF" stroke="#1C3766" width="54" height="18"/>
			<rect x="221.22" y="206.128" fill="#B2CEE7" stroke="#1C3766" width="54" height="16.261"/>
			<rect x="226.148" y="227.221" fill="none" width="44.143" height="8.512"/>
			<text transform="matrix(1 0 0 1 226.1479 232.23)" font-size="7">+ UUID: UUID</text>
			<rect x="231.989" y="210.158" fill="none" width="32.461" height="9.729"/>
			<text transform="matrix(1 0 0 1 231.9893 215.8823)" font-size="8">BulkData</text>
		</g>
		<g>
			<rect x="195.42" y="402.009" fill="#FFFFFF" stroke="#1C3766" width="54" height="17.999"/>
			<rect x="195.42" y="385.748" fill="#B2CEE7" stroke="#1C3766" width="54" height="16.261"/>
			<rect x="199.221" y="389.014" fill="none" width="44.895" height="9.729"/>
			<text transform="matrix(1 0 0 1 199.2207 394.7383)" font-size="8">FamilyName</text>
		</g>
		<g>
			<rect x="323.42" y="402.009" fill="#FFFFFF" stroke="#1C3766" width="54" height="17.999"/>
			<rect x="323.42" y="385.748" fill="#B2CEE7" stroke="#1C3766" width="54" height="16.261"/>
			<rect x="327.968" y="389.014" fill="none" width="44.905" height="9.729"/>
			<text transform="matrix(1 0 0 1 327.9673 394.7383)" font-size="8">MiddleName</text>
		</g>
		<rect x="305.979" y="499.203" fill="#FFFFFF" stroke="#1C3766" width="86" height="18"/>
		<rect x="305.979" y="482.943" fill="#B2CEE7" stroke="#1C3766" width="86" height="16.26"/>
		<rect x="326.527" y="486.209" fill="none" width="44.905" height="9.729"/>
		<text transform="matrix(1 0 0 1 332.9761 491.9336)" font-size="8">xs: string</text>
		<rect x="411.979" y="499.203" fill="#FFFFFF" stroke="#1C3766" width="86.001" height="18"/>
		<rect x="411.979" y="482.943" fill="#B2CEE7" stroke="#1C3766" width="86.001" height="16.26"/>
		<rect x="432.527" y="486.209" fill="none" width="44.906" height="9.729"/>
		<text transform="matrix(1 0 0 1 438.9727 491.9336)" font-size="8">xs: token</text>
		<rect x="517.98" y="499.203" fill="#FFFFFF" stroke="#1C3766" width="86" height="18"/>
		<rect x="517.98" y="482.943" fill="#B2CEE7" stroke="#1C3766" width="86" height="16.26"/>
		<rect x="528.689" y="486.209" fill="none" width="64.582" height="9.729"/>
		<text transform="matrix(1 0 0 1 528.7422 491.9336)" font-size="8">xs: positiveInteger</text>
		<g>
			<rect x="387.42" y="402.009" fill="#FFFFFF" stroke="#1C3766" width="54" height="17.999"/>
			<rect x="387.42" y="385.748" fill="#B2CEE7" stroke="#1C3766" width="54" height="16.261"/>
			<rect x="391.221" y="389.014" fill="none" width="44.895" height="9.729"/>
			<text transform="matrix(1 0 0 1 392.7734 394.7383)" font-size="8">NamePrefix</text>
		</g>
		<g>
			<rect x="451.42" y="402.009" fill="#FFFFFF" stroke="#1C3766" width="54" height="17.999"/>
			<rect x="451.42" y="385.748" fill="#B2CEE7" stroke="#1C3766" width="54" height="16.261"/>
			<rect x="455.221" y="389.014" fill="none" width="44.895" height="9.729"/>
			<text transform="matrix(1 0 0 1 456.9941 394.7383)" font-size="8">NameSuffix</text>
		</g>
		<g>
			<rect x="259.42" y="402.009" fill="#FFFFFF" stroke="#1C3766" width="54" height="17.999"/>
			<rect x="259.42" y="385.748" fill="#B2CEE7" stroke="#1C3766" width="54" height="16.261"/>
			<rect x="263.221" y="389.014" fill="none" width="44.895" height="9.729"/>
			<text transform="matrix(1 0 0 1 264.5488 394.7383)" font-size="8">GivenName</text>
		</g>
		<g>
			<g>
				<g>
					<line fill="none" stroke="#ED1C24" x1="336.379" y1="344.92" x2="336.379" y2="377.94"/>
					<g>
						<polygon fill="#ED1C24" points="334.055,376.355 336.379,385.028 338.704,376.355 						"/>
					</g>
				</g>
			</g>
			<g>
				<g>
					<line fill="none" stroke="#ED1C24" x1="272.021" y1="344.92" x2="272.021" y2="377.94"/>
					<g>
						<polygon fill="#ED1C24" points="269.697,376.355 272.021,385.028 274.346,376.355 						"/>
					</g>
				</g>
			</g>
			<g>
				<g>
					<line fill="none" stroke="#ED1C24" x1="400.021" y1="344.92" x2="400.021" y2="377.94"/>
					<g>
						<polygon fill="#ED1C24" points="397.697,376.355 400.021,385.028 402.346,376.355 						"/>
					</g>
				</g>
			</g>
			<g>
				<g>
					<line fill="none" stroke="#ED1C24" x1="208.021" y1="326.411" x2="208.021" y2="377.94"/>
					<g>
						<polygon fill="#ED1C24" points="205.697,376.355 208.021,385.028 210.346,376.355 						"/>
					</g>
				</g>
			</g>
			<g>
				<g>
					<polyline fill="none" stroke="#ED1C24" points="208.42,344.92 464.024,344.92 464.024,377.94 					"/>
					<g>
						<polygon fill="#ED1C24" points="461.7,376.355 464.024,385.028 466.349,376.355 						"/>
					</g>
				</g>
			</g>
		</g>
		<g>
			<g>
				<g>
					<line fill="none" stroke="#00AEEF" x1="364.467" y1="364.391" x2="364.467" y2="377.94"/>
					<g>
						<polygon fill="#00AEEF" points="362.143,376.355 364.467,385.028 366.791,376.355 						"/>
					</g>
				</g>
			</g>
			<g>
				<g>
					<line fill="none" stroke="#00AEEF" x1="428.825" y1="364.391" x2="428.825" y2="377.94"/>
					<g>
						<polygon fill="#00AEEF" points="426.501,376.355 428.825,385.028 431.149,376.355 						"/>
					</g>
				</g>
			</g>
			<g>
				<g>
					<line fill="none" stroke="#00AEEF" x1="300.825" y1="364.391" x2="300.825" y2="377.94"/>
					<g>
						<polygon fill="#00AEEF" points="298.501,376.355 300.825,385.028 303.149,376.355 						"/>
					</g>
				</g>
			</g>
			<g>
				<g>
					<line fill="none" stroke="#00AEEF" x1="492.821" y1="326.066" x2="492.821" y2="377.94"/>
					<g>
						<polygon fill="#00AEEF" points="490.497,376.355 492.821,385.028 495.146,376.355 						"/>
					</g>
				</g>
			</g>
			<g>
				<g>
					<polyline fill="none" stroke="#00AEEF" points="492.423,364.391 236.822,364.391 236.822,377.94 					"/>
					<g>
						<polygon fill="#00AEEF" points="234.498,376.355 236.822,385.028 239.146,376.355 						"/>
					</g>
				</g>
			</g>
		</g>
		<g>
			<g>
				<line fill="none" stroke="#0DB14B" x1="350.067" y1="326.411" x2="350.067" y2="378.66"/>
				<g>
					<polygon fill="#0DB14B" points="347.743,377.075 350.067,385.748 352.391,377.075 					"/>
				</g>
			</g>
		</g>
		<g>
			<g>
				<line fill="none" stroke="#0DB14B" x1="414.425" y1="354.669" x2="414.425" y2="378.66"/>
				<g>
					<polygon fill="#0DB14B" points="412.101,377.075 414.425,385.748 416.749,377.075 					"/>
				</g>
			</g>
		</g>
		<g>
			<g>
				<line fill="none" stroke="#0DB14B" x1="286.425" y1="354.669" x2="286.425" y2="378.66"/>
				<g>
					<polygon fill="#0DB14B" points="284.101,377.075 286.425,385.748 288.749,377.075 					"/>
				</g>
			</g>
		</g>
		<g>
			<g>
				<polyline fill="none" stroke="#0DB14B" points="222.422,378.66 222.422,354.669 478.423,354.669 478.423,378.66 				"/>
				<g>
					<polygon fill="#0DB14B" points="224.746,377.075 222.422,385.748 220.098,377.075 					"/>
				</g>
				<g>
					<polygon fill="#0DB14B" points="476.099,377.075 478.423,385.748 480.747,377.075 					"/>
				</g>
			</g>
		</g>
		<rect x="211.029" y="370.936" fill="none" width="5.005" height="10.945"/>
		<text transform="matrix(1 0 0 1 211.0288 377.375)" font-size="9">1</text>
		<rect x="225.917" y="370.936" fill="none" width="5.005" height="10.945"/>
		<text transform="matrix(1 0 0 1 225.9175 377.375)" font-size="9">1</text>
		<rect x="240.806" y="370.936" fill="none" width="5.005" height="10.945"/>
		<text transform="matrix(1 0 0 1 240.8062 377.375)" font-size="9">1</text>
		<rect x="356.868" y="465.535" fill="none" width="5.005" height="10.945"/>
		<text transform="matrix(1 0 0 1 356.8691 471.9766)" font-size="9">1</text>
		<rect x="371.757" y="465.535" fill="none" width="5.005" height="10.945"/>
		<text transform="matrix(1 0 0 1 371.7578 471.9766)" font-size="9">1</text>
		<rect x="386.646" y="465.535" fill="none" width="5.005" height="10.945"/>
		<text transform="matrix(1 0 0 1 386.6465 471.9766)" font-size="9">1</text>
		<rect x="327.091" y="465.535" fill="none" width="5.005" height="10.945"/>
		<text transform="matrix(1 0 0 1 327.0918 471.9766)" font-size="9">1</text>
		<rect x="341.979" y="465.535" fill="none" width="5.005" height="10.945"/>
		<text transform="matrix(1 0 0 1 341.9805 471.9766)" font-size="9">1</text>
		<rect x="312.179" y="465.535" fill="none" width="5.005" height="10.945"/>
		<text transform="matrix(1 0 0 1 312.1797 471.9766)" font-size="9">1</text>
		<rect x="274.696" y="370.936" fill="none" width="5.005" height="10.945"/>
		<text transform="matrix(1 0 0 1 274.6958 377.375)" font-size="9">1</text>
		<rect x="289.584" y="370.936" fill="none" width="5.005" height="10.945"/>
		<text transform="matrix(1 0 0 1 289.5845 377.375)" font-size="9">1</text>
		<rect x="304.473" y="370.936" fill="none" width="5.005" height="10.945"/>
		<text transform="matrix(1 0 0 1 304.4731 377.375)" font-size="9">1</text>
		<rect x="338.363" y="370.936" fill="none" width="5.005" height="10.945"/>
		<text transform="matrix(1 0 0 1 338.3628 377.375)" font-size="9">1</text>
		<rect x="353.252" y="370.936" fill="none" width="5.005" height="10.945"/>
		<text transform="matrix(1 0 0 1 353.252 377.375)" font-size="9">1</text>
		<rect x="368.141" y="370.936" fill="none" width="5.005" height="10.945"/>
		<text transform="matrix(1 0 0 1 368.1406 377.375)" font-size="9">1</text>
		<rect x="402.029" y="370.936" fill="none" width="5.006" height="10.945"/>
		<text transform="matrix(1 0 0 1 402.0293 377.375)" font-size="9">1</text>
		<rect x="416.918" y="370.936" fill="none" width="5.006" height="10.945"/>
		<text transform="matrix(1 0 0 1 416.918 377.375)" font-size="9">1</text>
		<rect x="431.807" y="370.936" fill="none" width="5.006" height="10.945"/>
		<text transform="matrix(1 0 0 1 431.8066 377.375)" font-size="9">1</text>
		<rect x="465.696" y="370.936" fill="none" width="5.006" height="10.945"/>
		<text transform="matrix(1 0 0 1 465.6973 377.375)" font-size="9">1</text>
		<rect x="480.585" y="370.936" fill="none" width="5.006" height="10.945"/>
		<text transform="matrix(1 0 0 1 480.5859 377.375)" font-size="9">1</text>
		<rect x="495.474" y="370.936" fill="none" width="5.006" height="10.945"/>
		<text transform="matrix(1 0 0 1 495.4746 377.375)" font-size="9">1</text>
	</g>
</g>
</svg>
