<?xml version="1.0" encoding="utf-8"?>

<!DOCTYPE svg PUBLIC "-//W3C//DTD SVG 1.1//EN" "http://www.w3.org/Graphics/SVG/1.1/DTD/svg11.dtd">
<svg version="1.1" id="Layer_1" xmlns="http://www.w3.org/2000/svg" xmlns:xlink="http://www.w3.org/1999/xlink" x="0px" y="0px"
	 width="702px" height="527px" viewBox="0 0 702 527" enable-background="new 0 0 702 527" xml:space="preserve">

<defs>
	<style type="text/css">
	text {
	  font-family: Helvetica, Verdana, ArialUnicodeMS, san-serif
	}
	</style>
</defs>

<g>
   <desc>
	PS3.19 2013 - Application Hosting
   </desc>
</g>

<g>
	<rect x="1" y="1" fill="#F5EED6" width="700" height="525"/>
	<g>
		<line fill="none" stroke="#000000" x1="351" y1="51.179" x2="351" y2="76.02"/>
		<g>
			<g>
				<line fill="none" stroke="#000000" x1="135.637" y1="199.549" x2="135.637" y2="232.106"/>
				<g>
					<polygon points="133.312,230.521 135.637,239.193 137.961,230.521 					"/>
				</g>
			</g>
		</g>
		<g>
			<g>
				<polyline fill="none" stroke="#000000" points="566.362,114.166 566.362,76.02 135.637,76.02 135.637,114.166 				"/>
				<g>
					<polygon points="568.687,112.58 566.362,121.253 564.038,112.58 					"/>
				</g>
				<g>
					<polygon points="133.312,112.58 135.637,121.253 137.961,112.58 					"/>
				</g>
			</g>
		</g>
		<g>
			<g>
				<line fill="none" stroke="#000000" x1="305.956" y1="76.02" x2="305.956" y2="114.164"/>
				<g>
					<polygon points="303.632,112.578 305.956,121.251 308.28,112.578 					"/>
				</g>
			</g>
		</g>
		<g>
			<g>
				<line fill="none" stroke="#000000" x1="435.956" y1="76.02" x2="435.956" y2="114.164"/>
				<g>
					<polygon points="433.632,112.578 435.956,121.251 438.28,112.578 					"/>
				</g>
			</g>
		</g>
		<g>
			<g>
				<line fill="none" stroke="#000000" x1="219.356" y1="420.587" x2="219.356" y2="453.144"/>
				<g>
					<polygon points="217.032,451.559 219.356,460.231 221.68,451.559 					"/>
				</g>
			</g>
		</g>
		<g>
			<g>
				<line fill="none" stroke="#000000" x1="319.493" y1="396.084" x2="319.493" y2="428.641"/>
				<g>
					<polygon points="317.168,427.056 319.493,435.729 321.817,427.056 					"/>
				</g>
			</g>
		</g>
		<g>
			<g>
				<line fill="none" stroke="#000000" x1="283.879" y1="208.19" x2="283.879" y2="242.905"/>
				<g>
					<polygon points="281.555,241.319 283.879,249.992 286.203,241.319 					"/>
				</g>
			</g>
		</g>
		<line fill="none" stroke="#000000" x1="283.877" y1="170.028" x2="283.877" y2="208.19"/>
		<g>
			<g>
				<line fill="none" stroke="#000000" x1="355.433" y1="208.19" x2="355.433" y2="242.905"/>
				<g>
					<polygon points="353.108,241.319 355.433,249.992 357.757,241.319 					"/>
				</g>
			</g>
		</g>
		<g>
			<g>
				<polyline fill="none" stroke="#000000" points="283.879,208.19 419.387,208.19 419.387,242.905 				"/>
				<g>
					<polygon points="417.062,241.319 419.387,249.992 421.711,241.319 					"/>
				</g>
			</g>
		</g>
		<g>
			<g>
				<line fill="none" stroke="#000000" x1="565.956" y1="155.679" x2="565.956" y2="232.106"/>
				<g>
					<polygon points="563.632,230.521 565.956,239.193 568.28,230.521 					"/>
				</g>
			</g>
		</g>
		<g>
			<g>
				<line fill="none" stroke="#000000" x1="546.88" y1="273.842" x2="546.88" y2="307.835"/>
				<g>
					<polygon points="544.556,306.25 546.88,314.923 549.204,306.25 					"/>
				</g>
			</g>
		</g>
		<g>
			<g>
				<line fill="none" stroke="#000000" x1="546.88" y1="313.99" x2="546.88" y2="419.976"/>
				<g>
					<polygon points="544.556,418.391 546.88,427.063 549.204,418.391 					"/>
				</g>
			</g>
		</g>
		<g>
			<g>
				<polyline fill="none" stroke="#000000" points="433.984,170.028 433.984,188.029 433.869,188.029 535.056,188.029 
					535.056,232.106 				"/>
				<g>
					<polygon points="532.731,230.521 535.056,239.193 537.38,230.521 					"/>
				</g>
			</g>
		</g>
		<g>
			<g>
				<polyline fill="none" stroke="#000000" points="546.88,393.22 481.044,393.22 481.044,213.69 511.656,213.69 511.656,232.106 
									"/>
				<g>
					<polygon points="509.332,230.521 511.656,239.193 513.98,230.521 					"/>
				</g>
			</g>
		</g>
		<g>
			<g>
				<polyline fill="none" stroke="#00AEEF" points="319.092,360.74 319.092,338.64 228.731,338.64 228.731,104.899 252.144,104.899 
					252.144,112.514 				"/>
				<g>
					<polygon fill="#00AEEF" points="249.819,110.929 252.144,119.602 254.468,110.929 					"/>
				</g>
			</g>
		</g>
		<g>
			<g>
				<polyline fill="none" stroke="#ED1C24" points="120.729,360.74 120.729,338.39 207.131,338.39 207.131,90.499 273.744,90.499 
					273.744,112.514 				"/>
				<g>
					<polygon fill="#ED1C24" points="271.42,110.929 273.744,119.602 276.068,110.929 					"/>
				</g>
			</g>
		</g>
		<g>
			<g>
				<polyline fill="none" stroke="#0DB14B" points="217.931,360.74 217.931,97.699 262.944,97.699 262.944,112.514 				"/>
				<g>
					<polygon fill="#0DB14B" points="260.62,110.929 262.944,119.602 265.268,110.929 					"/>
				</g>
			</g>
		</g>
		<g>
			<rect x="306" y="32.457" fill="#FFC20E" stroke="#1C3766" width="90" height="18"/>
			<rect x="306" y="16.196" fill="#FFC20E" stroke="#1C3766" width="90" height="16.261"/>
			<rect x="311.421" y="20.798" fill="none" width="79.157" height="9.729"/>
			<text transform="matrix(1 0 0 1 311.4253 26.5249)" font-size="8">AbstractImageDataset</text>
		</g>
		<g>
			<rect x="520.956" y="137.679" fill="#FFFFFF" stroke="#1C3766" width="90" height="18"/>
			<rect x="520.956" y="121.418" fill="#B2CEE7" stroke="#1C3766" width="90" height="16.261"/>
			<rect x="530.828" y="125.871" fill="none" width="70.252" height="8.883"/>
			<text transform="matrix(1 0 0 1 548.8379 131.5991)" font-size="8">PixelData</text>
		</g>
		<g>
			<rect x="90.637" y="137.679" fill="#FFFFFF" stroke="#1C3766" width="90" height="62.112"/>
			<rect x="90.637" y="121.418" fill="#B2CEE7" stroke="#1C3766" width="90" height="16.261"/>
			<rect x="100.51" y="125.87" fill="none" width="70.253" height="8.883"/>
			<text transform="matrix(1 0 0 1 114.9561 131.5952)" font-size="8">Component</text>
			<rect x="95.126" y="142.062" fill="none" width="37.348" height="57.728"/>
			<text transform="matrix(1 0 0 1 95.125 147.7871)"><tspan x="0" y="0" font-size="8">idNumber</tspan><tspan x="0" y="9.6" font-size="8">dataType</tspan><tspan x="0" y="19.2" font-size="8">minValue</tspan><tspan x="0" y="28.8" font-size="8">maxValue</tspan><tspan x="0" y="38.4" font-size="8">Semantics</tspan><tspan x="0" y="48" font-size="8">Unit</tspan></text>
		</g>
		<g>
			<rect x="240.077" y="137.679" fill="#FFFFFF" stroke="#1C3766" width="90" height="32.504"/>
			<rect x="240.077" y="121.418" fill="#B2CEE7" stroke="#1C3766" width="90" height="16.261"/>
			<rect x="249.95" y="125.871" fill="none" width="70.254" height="8.883"/>
			<text transform="matrix(1 0 0 1 266.1792 131.5991)" font-size="8">Dimension</text>
			<rect x="243.657" y="141.252" fill="none" width="59.578" height="28.929"/>
			<text transform="matrix(1 0 0 1 243.6548 146.9785)"><tspan x="0" y="0" font-size="8">id_number</tspan><tspan x="0" y="9.6" font-size="8">number()Sample</tspan><tspan x="0" y="19.2" font-size="8">Semantics</tspan></text>
		</g>
		<g>
			<rect x="390.956" y="137.679" fill="#FFFFFF" stroke="#1C3766" width="90" height="32.228"/>
			<rect x="390.956" y="121.418" fill="#B2CEE7" stroke="#1C3766" width="90" height="16.261"/>
			<rect x="397.938" y="127.461" fill="none" width="76.035" height="9.729"/>
			<text transform="matrix(1 0 0 1 397.9385 133.186)" font-size="8">PixelMapOfValidData</text>
			<rect x="394.604" y="140.734" fill="none" width="59.578" height="28.929"/>
			<text transform="matrix(1 0 0 1 394.6055 146.4609)"><tspan x="0" y="0" font-size="8">datatype</tspan><tspan x="0" y="9.6" font-size="8">inValue</tspan><tspan x="0" y="19.2" font-size="8">outValue</tspan></text>
		</g>
		<g>
			<rect x="501.88" y="331.183" fill="#FFFFFF" stroke="#1C3766" width="90" height="23.463"/>
			<rect x="501.88" y="314.923" fill="#B2CEE7" stroke="#1C3766" width="90" height="16.26"/>
			<rect x="518.193" y="319.776" fill="none" width="57.371" height="9.729"/>
			<text transform="matrix(1 0 0 1 534.6455 325.498)" font-size="8">DataAt</text>
			<rect x="505.963" y="335.075" fill="none" width="62.691" height="19.328"/>
			<text transform="matrix(1 0 0 1 505.959 340.7969)"><tspan x="0" y="0" font-size="8">sampleNumber</tspan><tspan x="0" y="9.6" font-size="8">nativeModelUUID</tspan></text>
		</g>
		<g>
			<rect x="90.637" y="256.05" fill="#FFFFFF" stroke="#1C3766" width="90" height="42.113"/>
			<rect x="90.637" y="239.792" fill="#B2CEE7" stroke="#1C3766" width="90" height="16.258"/>
			<rect x="100.51" y="244.245" fill="none" width="70.253" height="8.881"/>
			<text transform="matrix(1 0 0 1 101.6201 249.9692)" font-size="8">RealWorldMapping</text>
			<rect x="95.126" y="259.632" fill="none" width="56.918" height="38.527"/>
			<text transform="matrix(1 0 0 1 95.125 265.3613)"><tspan x="0" y="0" font-size="8">rescaleSlope</tspan><tspan x="0" y="9.6" font-size="8">rescaleIntercept</tspan><tspan x="0" y="19.2" font-size="8">Semantics</tspan><tspan x="0" y="28.8" font-size="8">Unit</tspan></text>
		</g>
		<g>
			<rect x="253.881" y="266.849" fill="#FFFFFF" stroke="#1C3766" width="59.996" height="42.209"/>
			<rect x="253.881" y="250.591" fill="#B2CEE7" stroke="#1C3766" width="59.996" height="16.258"/>
			<rect x="260.681" y="253.856" fill="none" width="44.892" height="9.727"/>
			<text transform="matrix(1 0 0 1 272.4585 259.5811)" font-size="8">Origin</text>
			<rect x="257.187" y="270.53" fill="none" width="54.251" height="38.527"/>
			<text transform="matrix(1 0 0 1 257.186 276.2588)"><tspan x="0" y="0" font-size="8">index</tspan><tspan x="0" y="9.6" font-size="8">X_coord</tspan><tspan x="0" y="19.2" font-size="8">Y_coord</tspan><tspan x="0" y="28.8" font-size="8">Z_coord</tspan></text>
		</g>
		<g>
			<rect x="501.877" y="256.05" fill="#FFFFFF" stroke="#1C3766" width="90" height="18"/>
			<rect x="501.877" y="239.792" fill="#B2CEE7" stroke="#1C3766" width="90" height="16.258"/>
			<rect x="511.75" y="244.245" fill="none" width="70.254" height="8.881"/>
			<text transform="matrix(1 0 0 1 516.416 249.9727)" font-size="8">DimensionalData</text>
			<rect x="505.838" y="260.157" fill="none" width="44.465" height="9.729"/>
			<text transform="matrix(1 0 0 1 505.8359 265.8848)" font-size="8">dimensionID</text>
		</g>
		<g>
			<rect x="338.403" y="273.589" fill="#FFFFFF" stroke="#1C3766" width="107.995" height="51.729"/>
			<rect x="338.403" y="250.591" fill="#B2CEE7" stroke="#1C3766" width="107.995" height="22.998"/>
			<rect x="358.151" y="254.259" fill="none" width="68.923" height="19.326"/>
			<text transform="matrix(1 0 0 1 362.3867 259.9878)"><tspan x="0" y="0" font-size="8">DirectionCosines</tspan><tspan x="-4.23" y="9.6" font-size="8">of space dimension</tspan></text>
			<rect x="342.43" y="277.188" fill="none" width="99.607" height="48.129"/>
			<text transform="matrix(1 0 0 1 342.4346 282.916)"><tspan x="0" y="0" font-size="8">concernedSpatialDimension</tspan><tspan x="0" y="9.6" font-size="8">index</tspan><tspan x="0" y="19.2" font-size="8">cosAlongX</tspan><tspan x="0" y="28.8" font-size="8">cosAlongY</tspan><tspan x="0" y="38.4" font-size="8">cosAlongZ</tspan></text>
		</g>
		<g>
			<rect x="184.293" y="478.128" fill="#FFFFFF" stroke="#1C3766" width="70" height="32.676"/>
			<rect x="184.293" y="461.868" fill="#B2CEE7" stroke="#1C3766" width="70" height="16.26"/>
			<rect x="190.607" y="466.723" fill="none" width="57.371" height="9.729"/>
			<text transform="matrix(1 0 0 1 190.6045 472.4473)" font-size="8">SampleLocation</text>
			<rect x="188.021" y="481.873" fill="none" width="60.473" height="28.93"/>
			<text transform="matrix(1 0 0 1 188.0186 487.5977)"><tspan x="0" y="0" font-size="8">index</tspan><tspan x="0" y="9.6" font-size="8">width</tspan><tspan x="0" y="19.2" font-size="8">distanceToOrigin</tspan></text>
		</g>
		<g>
			<rect x="284.212" y="453.653" fill="#FFFFFF" stroke="#1C3766" width="69.995" height="23.154"/>
			<rect x="284.212" y="437.392" fill="#B2CEE7" stroke="#1C3766" width="69.995" height="16.262"/>
			<rect x="288.239" y="457.479" fill="none" width="37.349" height="19.328"/>
			<text transform="matrix(1 0 0 1 288.2368 463.2012)"><tspan x="0" y="0" font-size="8">index</tspan><tspan x="0" y="9.6" font-size="8">Semantics</tspan></text>
			<rect x="305.65" y="442.483" fill="none" width="27.129" height="9.729"/>
			<text transform="matrix(1 0 0 1 305.6494 448.2051)" font-size="8">Sample</text>
		</g>
		<g>
			<rect x="186.812" y="377.979" fill="#FFFFFF" stroke="#1C3766" width="70" height="42.209"/>
			<rect x="186.812" y="361.718" fill="#B2CEE7" stroke="#1C3766" width="70" height="16.262"/>
			<rect x="190.118" y="381.659" fill="none" width="54.254" height="38.529"/>
			<text transform="matrix(1 0 0 1 190.1167 387.3877)"><tspan x="0" y="0" font-size="8">Origin</tspan><tspan x="0" y="9.6" font-size="8">Unit</tspan><tspan x="0" y="19.2" font-size="8">AxisDirection</tspan><tspan x="0" y="28.8" font-size="8">AxisOrientation</tspan></text>
			<rect x="206.865" y="366.782" fill="none" width="29.895" height="9.729"/>
			<text transform="matrix(1 0 0 1 206.9165 372.5117)" font-size="8">Irregular</text>
		</g>
		<g>
			<rect x="87.612" y="377.979" fill="#FFFFFF" stroke="#1C3766" width="70" height="51.809"/>
			<rect x="87.612" y="361.718" fill="#B2CEE7" stroke="#1C3766" width="70" height="16.262"/>
			<rect x="90.935" y="381.655" fill="none" width="54.254" height="48.129"/>
			<text transform="matrix(1 0 0 1 90.9326 387.3867)"><tspan x="0" y="0" font-size="8">width</tspan><tspan x="0" y="9.6" font-size="8">spacing</tspan><tspan x="0" y="19.2" font-size="8">Unit</tspan><tspan x="0" y="28.8" font-size="8">AxisDirection</tspan><tspan x="0" y="38.4" font-size="8">AxisOrientation</tspan></text>
			<rect x="108.552" y="367.142" fill="none" width="28.121" height="9.729"/>
			<text transform="matrix(1 0 0 1 108.6035 372.8711)" font-size="8">Regular</text>
		</g>
		<g>
			<rect x="286.012" y="377.979" fill="#FFFFFF" stroke="#1C3766" width="69.998" height="17.998"/>
			<rect x="286.012" y="361.718" fill="#B2CEE7" stroke="#1C3766" width="69.998" height="16.262"/>
			<rect x="302.113" y="366.81" fill="none" width="37.8" height="9.729"/>
			<text transform="matrix(1 0 0 1 302.1128 372.5371)" font-size="8">Qualitative</text>
		</g>
		<g>
			<rect x="501.881" y="443.302" fill="#FFFFFF" stroke="#1C3766" width="89.998" height="32.676"/>
			<rect x="501.881" y="427.042" fill="#B2CEE7" stroke="#1C3766" width="89.998" height="16.26"/>
			<rect x="518.193" y="431.896" fill="none" width="57.371" height="9.729"/>
			<text transform="matrix(1 0 0 1 530.6436 437.6191)" font-size="8">BulkData</text>
			<rect x="516.643" y="447.048" fill="none" width="60.473" height="28.928"/>
			<text transform="matrix(1 0 0 1 516.6387 452.7734)"><tspan x="0" y="0" font-size="8">offset</tspan><tspan x="0" y="9.6" font-size="8">length</tspan><tspan x="0" y="19.199" font-size="8">path</tspan></text>
		</g>
		<g>
			<rect x="127.242" y="211.892" fill="#F5EED6" width="20" height="10.997"/>
			<rect x="210.961" y="432.929" fill="#F5EED6" width="20" height="10.998"/>
			<rect x="311.098" y="408.426" fill="#F5EED6" width="20" height="10.998"/>
			<rect x="561.852" y="211.892" fill="#F5EED6" width="20" height="10.997"/>
			<rect x="530.89" y="211.892" fill="#F5EED6" width="20" height="10.997"/>
			<rect x="266.953" y="222.69" fill="#F5EED6" width="52" height="10.997"/>
			<rect x="338.812" y="222.69" fill="#F5EED6" width="52.004" height="10.997"/>
			<rect x="402.991" y="222.69" fill="#F5EED6" width="52" height="10.997"/>
			<rect x="127.218" y="96.714" fill="#F5EED6" width="20" height="10.997"/>
			<rect x="297.049" y="96.714" fill="#F5EED6" width="20" height="10.997"/>
			<rect x="427.048" y="96.714" fill="#F5EED6" width="20" height="10.997"/>
			<rect x="555.327" y="96.714" fill="#F5EED6" width="35.37" height="10.997"/>
			<rect x="540.483" y="289.378" fill="#F5EED6" width="20" height="10.998"/>
			<rect x="535.056" y="387.12" fill="#F5EED6" width="40.51" height="10.998"/>
		</g>
		<g>
			<g>
				<g opacity="0.8">
					<rect x="353.594" y="52.977" fill="none" width="16.896" height="8.574"/>
					<text transform="matrix(1 0 0 1 353.5918 59.418)" font-size="9">1</text>
				</g>
				<rect x="353.594" y="52.977" fill="none" width="16.896" height="8.574"/>
				<text transform="matrix(1 0 0 1 353.5918 59.418)" font-size="9">1</text>
			</g>
			<g>
				<g opacity="0.8">
					<rect x="515.162" y="225.094" fill="none" width="6.561" height="8.574"/>
					<text transform="matrix(1 0 0 1 515.1582 231.5347)" font-size="9">1</text>
				</g>
				<rect x="515.162" y="225.094" fill="none" width="6.561" height="8.574"/>
				<text transform="matrix(1 0 0 1 515.1582 231.5347)" font-size="9">1</text>
			</g>
			<g>
				<g opacity="0.8">
					<rect x="568.717" y="157.69" fill="none" width="16.895" height="8.574"/>
					<text transform="matrix(1 0 0 1 568.7129 164.1309)" font-size="9">1</text>
				</g>
				<rect x="568.717" y="157.69" fill="none" width="16.895" height="8.574"/>
				<text transform="matrix(1 0 0 1 568.7129 164.1309)" font-size="9">1</text>
			</g>
			<g>
				<g opacity="0.8">
					<rect x="437.52" y="172.726" fill="none" width="16.895" height="8.574"/>
					<text transform="matrix(1 0 0 1 437.5156 179.1665)" font-size="9">1</text>
				</g>
				<rect x="437.52" y="172.726" fill="none" width="16.895" height="8.574"/>
				<text transform="matrix(1 0 0 1 437.5156 179.1665)" font-size="9">1</text>
			</g>
			<rect x="128.656" y="201.167" fill="none" width="21.064" height="35.33"/>
			<text transform="matrix(1 0 0 1 136.9653 206.8936)"><tspan x="0" y="0" font-size="8">1</tspan><tspan x="-4.225" y="12.6" font-size="8">has</tspan><tspan x="2.972" y="25.2" font-size="8">0.*</tspan></text>
			<rect x="212.375" y="422.206" fill="none" width="21.064" height="35.329"/>
			<text transform="matrix(1 0 0 1 220.6821 427.9326)"><tspan x="0" y="0" font-size="8">1</tspan><tspan x="-4.225" y="12.601" font-size="8">has</tspan><tspan x="2.972" y="25.2" font-size="8">1.*</tspan></text>
			<rect x="312.512" y="397.703" fill="none" width="21.064" height="35.329"/>
			<text transform="matrix(1 0 0 1 320.8193 403.4297)"><tspan x="0" y="0" font-size="8">1</tspan><tspan x="-4.225" y="12.601" font-size="8">has</tspan><tspan x="2.972" y="25.2" font-size="8">1.*</tspan></text>
			<rect x="560.748" y="213.69" fill="none" width="21.064" height="22.807"/>
			<text transform="matrix(1 0 0 1 564.8242 219.4155)"><tspan x="0" y="0" font-size="8">has</tspan><tspan x="4.225" y="12.6" font-size="8">1</tspan></text>
			<rect x="529.785" y="213.69" fill="none" width="21.064" height="22.807"/>
			<text transform="matrix(1 0 0 1 533.8652 219.4155)"><tspan x="0" y="0" font-size="8">has</tspan><tspan x="4.225" y="12.6" font-size="8">1</tspan></text>
			<rect x="125.032" y="98.513" fill="none" width="25" height="23.064"/>
			<text transform="matrix(1 0 0 1 131.0835 104.2373)"><tspan x="0" y="0" font-size="8">has</tspan><tspan x="9.164" y="12.6" font-size="8">1.*</tspan></text>
			<rect x="294.863" y="98.513" fill="none" width="25" height="23.064"/>
			<text transform="matrix(1 0 0 1 300.9141 104.2373)"><tspan x="0" y="0" font-size="8">has</tspan><tspan x="9.164" y="12.6" font-size="8">1.*</tspan></text>
			<rect x="424.861" y="98.513" fill="none" width="26.213" height="23.064"/>
			<text transform="matrix(1 0 0 1 431.5156 104.2373)"><tspan x="0" y="0" font-size="8">has</tspan><tspan x="7.993" y="12.6" font-size="8">0-1</tspan></text>
			<rect x="557.17" y="98.513" fill="none" width="30.684" height="22.329"/>
			<text transform="matrix(1 0 0 1 557.1582 104.2378)"><tspan x="0" y="0" font-size="8">stored in</tspan><tspan x="13.117" y="12.6" font-size="8">1</tspan></text>
			<rect x="269.052" y="212.166" fill="none" width="47.59" height="34.929"/>
			<text transform="matrix(1 0 0 1 290.6221 217.8906)"><tspan x="0" y="0" font-size="8">1</tspan><tspan x="-21.57" y="12.6" font-size="8">used to index</tspan><tspan x="-2.668" y="25.2" font-size="8">0.*</tspan></text>
			<rect x="340.875" y="212.166" fill="none" width="47.597" height="34.929"/>
			<text transform="matrix(1 0 0 1 362.4492 217.8901)"><tspan x="0" y="0" font-size="8">1</tspan><tspan x="-21.571" y="12.6" font-size="8">used to index</tspan><tspan x="-2.668" y="25.2" font-size="8">0.*</tspan></text>
			<rect x="404.785" y="212.166" fill="none" width="48.031" height="34.929"/>
			<text transform="matrix(1 0 0 1 426.5762 217.8901)"><tspan x="0" y="0" font-size="8">1</tspan><tspan x="-21.791" y="12.6" font-size="8">concerned by</tspan><tspan x="-2.668" y="25.2" font-size="8">0.*</tspan></text>
			<g>
				<g opacity="0.8">
					<rect x="549.23" y="275.854" fill="none" width="16.895" height="8.574"/>
					<text transform="matrix(1 0 0 1 549.2285 282.293)" font-size="9">1</text>
				</g>
				<rect x="549.23" y="275.854" fill="none" width="16.895" height="8.574"/>
				<text transform="matrix(1 0 0 1 549.2285 282.293)" font-size="9">1</text>
			</g>
			<rect x="539.945" y="291.177" fill="none" width="21.064" height="22.807"/>
			<text transform="matrix(1 0 0 1 544.0273 296.8984)"><tspan x="0" y="0" font-size="8">has</tspan><tspan x="7.195" y="12.6" font-size="8">1.*</tspan></text>
			<g>
				<g opacity="0.8">
					<rect x="549.23" y="357.76" fill="none" width="16.895" height="8.574"/>
					<text transform="matrix(1 0 0 1 549.2295 364.1992)" font-size="9">1</text>
				</g>
				<rect x="549.23" y="357.76" fill="none" width="16.895" height="8.574"/>
				<text transform="matrix(1 0 0 1 549.2295 364.1992)" font-size="9">1</text>
			</g>
			<rect x="537.859" y="389.245" fill="none" width="35.238" height="35.479"/>
			<text transform="matrix(1 0 0 1 537.9121 394.9707)"><tspan x="0" y="0" font-size="8">has either</tspan><tspan x="12.674" y="25.201" font-size="8">1.*</tspan></text>
		</g>
	</g>
</g>
</svg>
