<?xml version="1.0" encoding="utf-8"?>

<!DOCTYPE svg PUBLIC "-//W3C//DTD SVG 1.1//EN" "http://www.w3.org/Graphics/SVG/1.1/DTD/svg11.dtd">
<svg version="1.1" id="Layer_1" xmlns="http://www.w3.org/2000/svg" xmlns:xlink="http://www.w3.org/1999/xlink" x="0px" y="0px"
	 width="502px" height="267px" viewBox="0 0 502 267" enable-background="new 0 0 502 267" xml:space="preserve">

<defs>
	<style type="text/css">
	text {
	  font-family: Helvetica, Verdana, ArialUnicodeMS, san-serif
	}
	</style>
</defs>

<g>
   <desc>
	PS3.19 2013 - Application Hosting
   </desc>
</g>

<g>
	<rect x="1" y="1" fill="#F5EED6" width="500" height="265"/>
	<g>
		
			<line fill="none" stroke="#000000" stroke-width="0.5" stroke-linecap="round" stroke-miterlimit="1" x1="150.379" y1="41.324" x2="150.379" y2="188.826"/>
		
			<line fill="none" stroke="#000000" stroke-width="0.5" stroke-linecap="round" stroke-miterlimit="1" x1="60.322" y1="41.324" x2="60.322" y2="188.826"/>
		
			<line fill="none" stroke="#000000" stroke-width="0.5" stroke-linecap="round" stroke-miterlimit="1" x1="420.435" y1="41.324" x2="420.435" y2="188.826"/>
		<g>
			<text transform="matrix(1 0 0 1 41.6211 30.8232)" font-size="9">End User</text>
		</g>
		<g>
			
				<rect x="110.378" y="15.324" fill="#CCDEF0" stroke="#010101" stroke-width="0.75" stroke-linecap="round" stroke-linejoin="round" stroke-miterlimit="1" width="80" height="26"/>
			<text transform="matrix(0.9904 0 0 1 141.4058 30.8232)" font-size="9">Host</text>
		</g>
		<g>
			
				<rect x="380.38" y="15.324" fill="#CCDEF0" stroke="#010101" stroke-width="0.75" stroke-linecap="round" stroke-linejoin="round" stroke-miterlimit="1" width="80" height="26"/>
			<text transform="matrix(1 0 0 1 398.3633 30.8232)" font-size="9">Application</text>
		</g>
		
			<rect x="146.758" y="70.176" fill="#CCDEF0" stroke="#010101" stroke-width="0.75" stroke-linecap="round" stroke-linejoin="round" stroke-miterlimit="1" width="9" height="22.586"/>
		
			<rect x="146.758" y="105.876" fill="#CCDEF0" stroke="#010101" stroke-width="0.75" stroke-linecap="round" stroke-linejoin="round" stroke-miterlimit="1" width="9" height="69.778"/>
		
			<rect x="55.822" y="70.176" fill="#CCDEF0" stroke="#010101" stroke-width="0.75" stroke-linecap="round" stroke-linejoin="round" stroke-miterlimit="1" width="9" height="105.479"/>
		
			<rect x="415.935" y="119.828" fill="#CCDEF0" stroke="#010101" stroke-width="0.75" stroke-linecap="round" stroke-linejoin="round" stroke-miterlimit="1" width="9" height="55.826"/>
		<g>
			<g>
				
					<line fill="none" stroke="#005695" stroke-linecap="round" stroke-miterlimit="1" x1="64.825" y1="73.861" x2="141.442" y2="73.861"/>
				<g>
					<polygon fill="#005695" points="140.253,75.604 146.758,73.861 140.253,72.118 					"/>
				</g>
			</g>
		</g>
		<g>
			<g>
				
					<line fill="none" stroke="#005695" stroke-linecap="round" stroke-miterlimit="1" x1="70.141" y1="92.161" x2="146.758" y2="92.161"/>
				<g>
					<polygon fill="#005695" points="71.33,93.904 64.825,92.161 71.33,90.418 					"/>
				</g>
			</g>
		</g>
		<g>
			<g>
				
					<line fill="none" stroke="#005695" stroke-linecap="round" stroke-miterlimit="1" x1="64.825" y1="110.461" x2="141.442" y2="110.461"/>
				<g>
					<polygon fill="#005695" points="140.253,112.204 146.758,110.461 140.253,108.718 					"/>
				</g>
			</g>
		</g>
		<g>
			<g>
				
					<line fill="none" stroke="#005695" stroke-linecap="round" stroke-miterlimit="1" x1="155.705" y1="128.462" x2="410.619" y2="128.462"/>
				<g>
					<polygon fill="#005695" points="409.43,130.205 415.935,128.462 409.43,126.719 					"/>
				</g>
			</g>
		</g>
		<g>
			<g>
				
					<line fill="none" stroke="#005695" stroke-linecap="round" stroke-miterlimit="1" x1="161.073" y1="165.062" x2="415.935" y2="165.062"/>
				<g>
					<polygon fill="#005695" points="162.262,166.805 155.758,165.062 162.262,163.318 					"/>
				</g>
			</g>
		</g>
		<rect x="71.912" y="65.767" fill="none" width="353.022" height="106.687"/>
		<text transform="matrix(1.0017 0 0 1 71.9121 70.7725)"><tspan x="0" y="0" font-size="7">launchHost</tspan><tspan x="0" y="18.4" font-size="7">returnLaunchHost</tspan><tspan x="0" y="36.8" font-size="7">selectApplication</tspan><tspan x="0" y="55.2" font-size="7" letter-spacing="86.856">	</tspan><tspan x="89.359" y="55.2" fill="#ED1C24" font-size="7">launchApplication(URL_appStartingPoint, URL_hostURL, URL_applicationURL)</tspan><tspan x="0" y="92" font-size="7" letter-spacing="86.856">	</tspan><tspan x="89.359" y="92" font-size="7" letter-spacing="87.854">	</tspan><tspan x="179.702" y="92" font-size="7">notifyStateChanged(State, IDLE)</tspan></text>
		<rect x="60.322" y="208.688" fill="#FFFFFF" width="360.057" height="43.5"/>
		<rect x="63.523" y="211.699" fill="none" width="154.529" height="37.477"/>
		<text transform="matrix(0.9288 0 0 1 63.5234 217.4199)"><tspan x="0" y="0" font-size="8">Notes:</tspan><tspan x="0" y="17.601" fill="#ED1C24" font-size="8">1.</tspan><tspan x="6.672" y="17.601" font-size="8" letter-spacing="21.533">	</tspan><tspan x="30.673" y="17.601" font-size="8">Format of the URL passing:</tspan><tspan x="0" y="30.201" font-size="8" letter-spacing="27.993">	</tspan><tspan x="30.673" y="30.201" font-size="8">--hostURL url1 –-applicationURL url2</tspan></text>
		<g>
			<circle fill="#FFFFFF" stroke="#000000" stroke-miterlimit="10" cx="402.342" cy="107.989" r="7.5"/>
			<text transform="matrix(0.9288 0 0 1 399.2832 110.8242)" font-size="10">1</text>
		</g>
	</g>
</g>
</svg>
