<?xml version="1.0" encoding="utf-8"?>

<!DOCTYPE svg PUBLIC "-//W3C//DTD SVG 1.1//EN" "http://www.w3.org/Graphics/SVG/1.1/DTD/svg11.dtd">
<svg version="1.1" id="Layer_1" xmlns="http://www.w3.org/2000/svg" xmlns:xlink="http://www.w3.org/1999/xlink" x="0px" y="0px"
	 width="702px" height="667px" viewBox="0 0 702 667" enable-background="new 0 0 702 667" xml:space="preserve">

<defs>
	<style type="text/css">
	text {
	  font-family: Helvetica, Verdana, ArialUnicodeMS, san-serif
	}
	</style>
</defs>

<g>
   <desc>
	PS3.19 2013 - Application Hosting
   </desc>
</g>

<g>
	<rect x="1" y="1" fill="#F5EED6" width="700" height="665"/>
	<g>
		<g>
			<rect x="255.362" y="177.815" fill="#B2CEE7" width="182" height="114.801"/>
			<g>
				<polyline fill="none" stroke="#4F8ABE" stroke-miterlimit="10" points="437.362,291.116 437.362,292.616 435.862,292.616 				
					"/>
				
					<line fill="none" stroke="#4F8ABE" stroke-miterlimit="10" stroke-dasharray="3.0339,3.0339" x1="432.828" y1="292.616" x2="258.379" y2="292.616"/>
				<polyline fill="none" stroke="#4F8ABE" stroke-miterlimit="10" points="256.862,292.616 255.362,292.616 255.362,291.116 				
					"/>
				
					<line fill="none" stroke="#4F8ABE" stroke-miterlimit="10" stroke-dasharray="3.0216,3.0216" x1="255.362" y1="288.095" x2="255.362" y2="180.826"/>
				<polyline fill="none" stroke="#4F8ABE" stroke-miterlimit="10" points="255.362,179.315 255.362,177.815 256.862,177.815 				
					"/>
				
					<line fill="none" stroke="#4F8ABE" stroke-miterlimit="10" stroke-dasharray="3.0339,3.0339" x1="259.896" y1="177.815" x2="434.346" y2="177.815"/>
				<polyline fill="none" stroke="#4F8ABE" stroke-miterlimit="10" points="435.862,177.815 437.362,177.815 437.362,179.315 				
					"/>
				
					<line fill="none" stroke="#4F8ABE" stroke-miterlimit="10" stroke-dasharray="3.0216,3.0216" x1="437.362" y1="182.337" x2="437.362" y2="289.605"/>
			</g>
		</g>
		<rect x="68.612" y="16.113" fill="#FFFFFF" stroke="#000000" width="91.692" height="12"/>
		
			<line fill="none" stroke="#000000" stroke-width="0.5" stroke-linecap="round" stroke-miterlimit="1" stroke-dasharray="3,3" x1="272.121" y1="550.645" x2="272.121" y2="579.799"/>
		
			<line fill="none" stroke="#000000" stroke-width="0.5" stroke-linecap="round" stroke-miterlimit="1" x1="272.121" y1="72.188" x2="272.121" y2="550.645"/>
		<g>
			<g>
				
					<line fill="none" stroke="#000000" stroke-width="0.5" stroke-linecap="round" stroke-miterlimit="1" x1="160.305" y1="550.645" x2="160.305" y2="552.145"/>
				
					<line fill="none" stroke="#000000" stroke-width="0.5" stroke-linecap="round" stroke-miterlimit="1" stroke-dasharray="2.906,2.906" x1="160.305" y1="555.051" x2="160.305" y2="576.846"/>
				
					<line fill="none" stroke="#000000" stroke-width="0.5" stroke-linecap="round" stroke-miterlimit="1" x1="160.305" y1="578.299" x2="160.305" y2="579.799"/>
			</g>
		</g>
		
			<line fill="none" stroke="#000000" stroke-width="0.5" stroke-linecap="round" stroke-miterlimit="1" x1="160.305" y1="72.188" x2="160.305" y2="550.645"/>
		
			<line fill="none" stroke="#000000" stroke-width="0.5" stroke-linecap="round" stroke-miterlimit="1" stroke-dasharray="3,3" x1="498.819" y1="550.645" x2="498.819" y2="579.799"/>
		
			<line fill="none" stroke="#000000" stroke-width="0.5" stroke-linecap="round" stroke-miterlimit="1" x1="498.819" y1="72.188" x2="498.819" y2="550.645"/>
		<g>
			<text transform="matrix(1 0 0 1 163.875 55.9268)"><tspan x="0" y="0" font-size="9">End</tspan><tspan x="-1.494" y="10.8" font-size="9">User</tspan></text>
		</g>
		<g>
			
				<rect x="247.659" y="46.188" fill="#CCDEF0" stroke="#010101" stroke-width="0.75" stroke-linecap="round" stroke-linejoin="round" stroke-miterlimit="1" width="48.926" height="26"/>
			<text transform="matrix(0.9904 0 0 1 263.1489 61.6865)" font-size="9">Host</text>
		</g>
		<g>
			
				<rect x="472.024" y="46.188" fill="#CCDEF0" stroke="#010101" stroke-width="0.75" stroke-linecap="round" stroke-linejoin="round" stroke-miterlimit="1" width="53.588" height="26"/>
			<text transform="matrix(1 0 0 1 476.7988 61.686)" font-size="9">Application</text>
		</g>
		
			<line fill="none" stroke="#000000" stroke-width="0.5" stroke-linecap="round" stroke-miterlimit="1" stroke-dasharray="3,3" x1="572.634" y1="550.645" x2="572.634" y2="579.799"/>
		
			<line fill="none" stroke="#000000" stroke-width="0.5" stroke-linecap="round" stroke-miterlimit="1" x1="572.634" y1="72.188" x2="572.634" y2="550.645"/>
		<g>
			
				<rect x="533.175" y="46.188" fill="#CCDEF0" stroke="#010101" stroke-width="0.75" stroke-linecap="round" stroke-linejoin="round" stroke-miterlimit="1" width="78.084" height="26"/>
			<text transform="matrix(1 0 0 1 536.9551 61.686)" font-size="9">DataStoreDICOM</text>
		</g>
		
			<rect x="267.621" y="87.72" fill="#CCDEF0" stroke="#010101" stroke-width="0.75" stroke-linecap="round" stroke-linejoin="round" stroke-miterlimit="1" width="9" height="21.985"/>
		
			<rect x="267.621" y="128.005" fill="#CCDEF0" stroke="#010101" stroke-width="0.75" stroke-linecap="round" stroke-linejoin="round" stroke-miterlimit="1" width="9" height="208.637"/>
		
			<rect x="155.805" y="87.72" fill="#CCDEF0" stroke="#010101" stroke-width="0.75" stroke-linecap="round" stroke-linejoin="round" stroke-miterlimit="1" width="9" height="248.922"/>
		
			<rect x="494.319" y="313.586" fill="#CCDEF0" stroke="#010101" stroke-width="0.75" stroke-linecap="round" stroke-linejoin="round" stroke-miterlimit="1" width="9" height="23.056"/>
		
			<rect x="494.319" y="350.187" fill="#CCDEF0" stroke="#010101" stroke-width="0.75" stroke-linecap="round" stroke-linejoin="round" stroke-miterlimit="1" width="9" height="194.059"/>
		
			<rect x="267.812" y="350.187" fill="#CCDEF0" stroke="#010101" stroke-width="0.75" stroke-linecap="round" stroke-linejoin="round" stroke-miterlimit="1" width="9" height="23.056"/>
		
			<rect x="267.812" y="386.787" fill="#CCDEF0" stroke="#010101" stroke-width="0.75" stroke-linecap="round" stroke-linejoin="round" stroke-miterlimit="1" width="9" height="23.056"/>
		
			<rect x="267.812" y="423.388" fill="#CCDEF0" stroke="#010101" stroke-width="0.75" stroke-linecap="round" stroke-linejoin="round" stroke-miterlimit="1" width="9" height="23.056"/>
		
			<rect x="267.812" y="459.988" fill="#CCDEF0" stroke="#010101" stroke-width="0.75" stroke-linecap="round" stroke-linejoin="round" stroke-miterlimit="1" width="9" height="23.056"/>
		
			<rect x="267.812" y="533.083" fill="#CCDEF0" stroke="#010101" stroke-width="0.75" stroke-linecap="round" stroke-linejoin="round" stroke-miterlimit="1" width="9" height="9"/>
		
			<rect x="568.126" y="146.521" fill="#CCDEF0" stroke="#010101" stroke-width="0.75" stroke-linecap="round" stroke-linejoin="round" stroke-miterlimit="1" width="9" height="18.046"/>
		<g>
			<g>
				
					<line fill="none" stroke="#005695" stroke-linecap="round" stroke-miterlimit="1" x1="164.808" y1="91.405" x2="262.306" y2="91.405"/>
				<g>
					<polygon fill="#005695" points="261.117,93.148 267.621,91.405 261.117,89.662 					"/>
				</g>
			</g>
		</g>
		<g>
			<g>
				
					<line fill="none" stroke="#005695" stroke-linecap="round" stroke-miterlimit="1" x1="266.724" y1="109.705" x2="170.12" y2="109.705"/>
				<g>
					<polygon fill="#005695" points="171.309,107.962 164.805,109.705 171.309,111.448 					"/>
				</g>
			</g>
		</g>
		<g>
			<g>
				
					<line fill="none" stroke="#005695" stroke-linecap="round" stroke-miterlimit="1" x1="276.882" y1="146.521" x2="562.451" y2="146.521"/>
				<g>
					<polygon fill="#005695" points="561.262,148.265 567.767,146.521 561.262,144.778 					"/>
				</g>
			</g>
		</g>
		<g>
			<g>
				
					<line fill="none" stroke="#005695" stroke-linecap="round" stroke-miterlimit="1" x1="568.126" y1="164.821" x2="282.19" y2="164.821"/>
				<g>
					<polygon fill="#005695" points="283.379,163.078 276.875,164.821 283.379,166.564 					"/>
				</g>
			</g>
		</g>
		<g>
			<g>
				
					<line fill="none" stroke="#005695" stroke-linecap="round" stroke-miterlimit="1" x1="276.883" y1="313.586" x2="489.463" y2="313.586"/>
				<g>
					<polygon fill="#005695" points="488.273,315.329 494.778,313.586 488.273,311.843 					"/>
				</g>
			</g>
		</g>
		<g>
			<g>
				
					<line fill="none" stroke="#005695" stroke-linecap="round" stroke-miterlimit="1" x1="494.781" y1="331.886" x2="282.19" y2="331.886"/>
				<g>
					<polygon fill="#005695" points="283.379,330.143 276.875,331.886 283.379,333.629 					"/>
				</g>
			</g>
		</g>
		<g>
			<g>
				
					<line fill="none" stroke="#005695" stroke-linecap="round" stroke-miterlimit="1" x1="494.778" y1="350.187" x2="282.19" y2="350.187"/>
				<g>
					<polygon fill="#005695" points="283.379,348.443 276.875,350.187 283.379,351.93 					"/>
				</g>
			</g>
		</g>
		<g>
			<g>
				
					<line fill="none" stroke="#005695" stroke-linecap="round" stroke-miterlimit="1" x1="489.466" y1="368.486" x2="276.875" y2="368.486"/>
				<g>
					<polygon fill="#005695" points="488.276,366.743 494.781,368.486 488.276,370.229 					"/>
				</g>
			</g>
		</g>
		<g>
			<g>
				
					<line fill="none" stroke="#005695" stroke-linecap="round" stroke-miterlimit="1" x1="494.778" y1="386.787" x2="282.19" y2="386.787"/>
				<g>
					<polygon fill="#005695" points="283.379,385.044 276.875,386.787 283.379,388.53 					"/>
				</g>
			</g>
		</g>
		<g>
			<g>
				
					<line fill="none" stroke="#005695" stroke-linecap="round" stroke-miterlimit="1" x1="489.463" y1="405.087" x2="276.875" y2="405.087"/>
				<g>
					<polygon fill="#005695" points="488.273,403.344 494.778,405.087 488.273,406.83 					"/>
				</g>
			</g>
		</g>
		<g>
			<g>
				
					<line fill="none" stroke="#005695" stroke-linecap="round" stroke-miterlimit="1" x1="494.778" y1="423.388" x2="282.19" y2="423.388"/>
				<g>
					<polygon fill="#005695" points="283.379,421.645 276.875,423.388 283.379,425.131 					"/>
				</g>
			</g>
		</g>
		<g>
			<g>
				
					<line fill="none" stroke="#005695" stroke-linecap="round" stroke-miterlimit="1" x1="489.466" y1="441.688" x2="276.875" y2="441.688"/>
				<g>
					<polygon fill="#005695" points="488.276,439.945 494.781,441.688 488.276,443.432 					"/>
				</g>
			</g>
		</g>
		<g>
			<g>
				
					<line fill="none" stroke="#005695" stroke-linecap="round" stroke-miterlimit="1" x1="494.778" y1="459.989" x2="282.19" y2="459.989"/>
				<g>
					<polygon fill="#005695" points="283.379,458.246 276.875,459.989 283.379,461.732 					"/>
				</g>
			</g>
		</g>
		<g>
			<g>
				
					<line fill="none" stroke="#005695" stroke-linecap="round" stroke-miterlimit="1" x1="489.463" y1="478.29" x2="276.875" y2="478.29"/>
				<g>
					<polygon fill="#005695" points="488.273,476.547 494.778,478.29 488.273,480.033 					"/>
				</g>
			</g>
		</g>
		<g>
			<g>
				
					<line fill="none" stroke="#005695" stroke-linecap="round" stroke-miterlimit="1" x1="494.859" y1="533.19" x2="281.937" y2="533.19"/>
				<g>
					<polygon fill="#005695" points="283.125,531.447 276.621,533.19 283.125,534.934 					"/>
				</g>
			</g>
		</g>
		<g>
			<g>
				
					<line fill="none" stroke="#005695" stroke-linecap="round" stroke-miterlimit="1" x1="164.805" y1="128.005" x2="262.305" y2="128.005"/>
				<g>
					<polygon fill="#005695" points="261.116,129.748 267.62,128.005 261.116,126.262 					"/>
				</g>
			</g>
		</g>
		<g>
			<g>
				<polyline fill="none" stroke="#005695" stroke-linecap="round" stroke-miterlimit="1" points="276.621,205.797 289.33,205.797 
					289.33,224.097 281.937,224.097 				"/>
				<g>
					<polygon fill="#005695" points="283.125,222.354 276.621,224.097 283.125,225.84 					"/>
				</g>
			</g>
		</g>
		<g>
			<g>
				<polyline fill="none" stroke="#005695" stroke-linecap="round" stroke-miterlimit="1" points="276.621,234.116 289.33,234.116 
					289.33,252.416 281.937,252.416 				"/>
				<g>
					<polygon fill="#005695" points="283.125,250.673 276.621,252.416 283.125,254.159 					"/>
				</g>
			</g>
		</g>
		<g>
			<g>
				<polyline fill="none" stroke="#005695" stroke-linecap="round" stroke-miterlimit="1" points="276.621,263.157 289.33,263.157 
					289.33,281.457 281.937,281.457 				"/>
				<g>
					<polygon fill="#005695" points="283.125,279.714 276.621,281.457 283.125,283.2 					"/>
				</g>
			</g>
		</g>
		<g>
			<g>
				<polyline fill="none" stroke="#005695" stroke-linecap="round" stroke-miterlimit="1" points="503.322,497.67 516.031,497.67 
					516.031,515.971 508.638,515.971 				"/>
				<g>
					<polygon fill="#005695" points="509.827,514.228 503.322,515.971 509.827,517.714 					"/>
				</g>
			</g>
		</g>
		<g>
			<circle fill="#FFFFFF" stroke="#000000" stroke-miterlimit="10" cx="451.567" cy="235.216" r="7.5"/>
			<text transform="matrix(0.9288 0 0 1 448.5107 238.0488)" font-size="10">1</text>
		</g>
		<g>
			<circle fill="#FFFFFF" stroke="#000000" stroke-miterlimit="10" cx="385.83" cy="520.276" r="7.5"/>
			<text transform="matrix(0.9288 0 0 1 382.7744 523.1074)" font-size="10">2</text>
		</g>
		<rect x="72.217" y="19.846" fill="none" width="84.484" height="9.729"/>
		<text transform="matrix(1 0 0 1 72.2168 25.5703)" font-size="8">sd Requirements Model</text>
		<g>
			<rect x="255.362" y="177.815" fill="#FFFFFF" stroke="#000000" width="26.67" height="12"/>
			<rect x="260.254" y="180.032" fill="none" width="16.887" height="9.729"/>
			<text transform="matrix(1 0 0 1 261.1348 185.7578)" font-size="8">loop</text>
		</g>
		<rect x="168.655" y="83.31" fill="none" width="464.733" height="460.069"/>
		<text transform="matrix(1.0017 0 0 1 168.6548 88.3179)"><tspan x="0" y="0" font-size="7">queryDicomRepository</tspan><tspan x="0" y="18.4" font-size="7">returnQueryDICOMRepository</tspan><tspan x="0" y="36.8" font-size="7">retrieveDICOM</tspan><tspan x="0" y="55.2" font-size="7" letter-spacing="112.813">	</tspan><tspan x="114.809" y="55.2" font-size="7">retrieveDICOM(AttributeList.mFilter)</tspan><tspan x="0" y="73.6" font-size="7" letter-spacing="112.813">	</tspan><tspan x="114.809" y="73.6" font-size="7">returnRetrieveDICOM</tspan><tspan x="0" y="110.4" font-size="7" letter-spacing="112.813">	</tspan><tspan x="114.809" y="110.4" font-size="7">[i = numberOfDICOMObjects]</tspan><tspan x="0" y="128.8" font-size="7" letter-spacing="112.813">	</tspan><tspan x="114.809" y="128.8" font-size="7" letter-spacing="8.985">	</tspan><tspan x="125.791" y="128.8" font-size="7">createModels(File DICOM) :XML</tspan><tspan x="0" y="157.2" font-size="7" letter-spacing="112.813">	</tspan><tspan x="114.809" y="157.2" font-size="7" letter-spacing="8.985">	</tspan><tspan x="125.791" y="157.2" font-size="7">createAvailableData</tspan><tspan x="0" y="185.6" font-size="7" letter-spacing="112.813">	</tspan><tspan x="114.809" y="185.6" font-size="7" letter-spacing="8.985">	</tspan><tspan x="125.791" y="185.6" font-size="7">createModelSetDescription</tspan><tspan x="0" y="223" font-size="7" letter-spacing="112.813">	</tspan><tspan x="114.809" y="223" font-size="7">setState(State.INPROCESS)</tspan><tspan x="0" y="241.4" font-size="7" letter-spacing="112.813">	</tspan><tspan x="114.809" y="241.4" font-size="7">returnSetState :Boolean</tspan><tspan x="0" y="259.799" font-size="7" letter-spacing="112.813">	</tspan><tspan x="114.809" y="259.799" font-size="7">notifyStateChanged(State INPROCESS)</tspan><tspan x="0" y="278.2" font-size="7" letter-spacing="112.813">	</tspan><tspan x="114.809" y="278.2" font-size="7">notifyDataAvailable(inputs, true)</tspan><tspan x="0" y="296.6" font-size="7" letter-spacing="112.813">	</tspan><tspan x="114.809" y="296.6" font-size="7">getAsModels(InputUUIDs, modelUID, supportedInfosetTypes)</tspan><tspan x="0" y="315" font-size="7" letter-spacing="112.813">	</tspan><tspan x="114.809" y="315" font-size="7">returnGetAsModel :ModelSetDescription</tspan><tspan x="0" y="333.401" font-size="7" letter-spacing="112.813">	</tspan><tspan x="114.809" y="333.401" font-size="7">queryModel(models, xpaths)</tspan><tspan x="0" y="351.799" font-size="7" letter-spacing="112.813">	</tspan><tspan x="114.809" y="351.799" font-size="7">returnQueryModels :ArrayOfQueryResults</tspan><tspan x="0" y="370.2" font-size="7" letter-spacing="112.813">	</tspan><tspan x="114.809" y="370.2" font-size="7">getData(modelUUIDs, acceptableTransferSyntaxUIDs, true)</tspan><tspan x="0" y="388.6" font-size="7" letter-spacing="112.813">	</tspan><tspan x="114.809" y="388.6" font-size="7">returnGetData :ArrayOfObjectLocators</tspan><tspan x="0" y="407" font-size="7" letter-spacing="112.813">	</tspan><tspan x="114.809" y="407" font-size="7" letter-spacing="8.985">	</tspan><tspan x="125.791" y="407" font-size="7" letter-spacing="214.644">	</tspan><tspan x="342.432" y="407" font-size="7">extractDataFromModels</tspan><tspan x="0" y="443.799" font-size="7" letter-spacing="112.813">	</tspan><tspan x="114.809" y="443.799" fill="#ED1C24" font-size="7">releaseModels(modelsUUIDs)</tspan></text>
		<g>
			<rect x="130.913" y="598.085" fill="#FFFFFF" stroke="#000000" stroke-miterlimit="10" width="461.961" height="52.802"/>
			<rect x="134.899" y="603.405" fill="none" width="453.988" height="47.481"/>
			<text transform="matrix(0.9288 0 0 1 134.8994 609.1328)"><tspan x="0" y="0" font-size="8">Notes:</tspan><tspan x="0" y="12.6" fill="#ED1C24" font-size="8">1.</tspan><tspan x="6.672" y="12.6" font-size="8" letter-spacing="9.69">	</tspan><tspan x="19.379" y="12.6" font-size="8">Create Abstract or Native Models, which could also be done ‘on demand,’ or could be pre-created and stored in the DB.</tspan><tspan x="0" y="25.2" fill="#ED1C24" font-size="8">2.</tspan><tspan x="6.672" y="25.2" font-size="8" letter-spacing="9.69">	</tspan><tspan x="19.379" y="25.2" font-size="8">Note that even though the Hosted Application released the models, it did not release the data references. Hence, the Hosting </tspan><tspan x="19.379" y="34.8" font-size="8">System keeps those references valid despite the fact that the models have been released.</tspan></text>
		</g>
		<g>
			<polygon fill="#B2CEE7" stroke="#000000" stroke-width="0.25" stroke-linecap="round" stroke-linejoin="round" points="
				151.263,61.924 151.131,62.252 151.08,63.066 151.152,63.807 151.481,65.102 151.507,65.176 151.741,65.584 151.871,65.685 
				151.918,65.708 151.99,65.712 152.068,65.709 152.145,65.688 152.197,65.662 152.223,65.634 152.324,65.503 152.448,65.042 
				152.397,63.706 152.247,62.965 151.964,62.177 151.939,62.128 151.716,61.852 151.663,61.844 151.485,61.799 151.306,61.896 			
				"/>
			<polygon fill="#B2CEE7" stroke="#000000" stroke-width="0.25" stroke-linecap="round" stroke-linejoin="round" points="
				152.454,61.061 152.225,60.726 151.868,60.522 151.459,60.481 151.075,60.633 150.794,60.937 150.669,61.336 150.724,61.743 
				150.746,61.794 150.977,62.129 151.333,62.333 151.743,62.361 152.127,62.222 152.422,61.918 152.549,61.518 152.481,61.11 			
				"/>
			<polygon fill="#B2CEE7" stroke="#000000" stroke-width="0.25" stroke-linecap="round" stroke-linejoin="round" points="
				144.045,61.791 144.203,62.028 144.307,62.742 144.324,62.917 144.3,63.627 144.042,64.869 143.799,65.298 143.744,65.396 
				143.637,65.475 143.565,65.524 143.485,65.549 143.393,65.549 143.333,65.524 143.237,65.474 143.181,65.397 143.025,65.022 
				142.981,63.822 142.98,63.625 143.084,62.913 143.335,62.148 143.415,62.025 143.596,61.776 143.689,61.725 143.794,61.698 
				143.899,61.699 143.994,61.726 			"/>
			<polygon fill="#B2CEE7" stroke="#000000" stroke-width="0.25" stroke-linecap="round" stroke-linejoin="round" points="
				144.554,61.979 144.76,61.664 144.804,61.264 144.655,60.883 144.355,60.583 143.97,60.444 143.564,60.47 143.229,60.657 
				143.13,60.785 142.925,61.114 142.883,61.514 143.031,61.895 143.332,62.182 143.716,62.333 144.121,62.308 144.457,62.123 			
				"/>
			<polygon fill="#B2CEE7" stroke="#000000" stroke-width="0.25" stroke-linecap="round" stroke-linejoin="round" points="
				145.336,59.563 145.061,59.837 144.96,59.962 144.399,62.529 144.429,63.78 144.711,64.696 144.986,65.071 145.085,65.193 
				145.219,65.27 145.973,65.535 147.067,65.701 148.288,65.688 149.377,65.532 150.095,65.252 150.242,65.175 150.342,65.066 
				150.577,64.69 150.876,63.774 150.922,62.511 150.369,59.945 150.27,59.82 149.981,59.56 149.884,59.491 149.175,59.289 
				148.184,59.184 147.095,59.185 146.122,59.304 145.422,59.507 			"/>
			<polyline fill="#B2CEE7" stroke="#000000" stroke-width="0.25" stroke-linecap="round" stroke-linejoin="round" points="
				151.893,60.101 151.893,60.115 151.841,60.269 151.939,60.66 151.939,60.66 152.172,61.111 152.425,61.545 152.71,61.846 
				152.88,61.878 153.06,61.825 155.595,60.76 158.289,59.181 158.648,58.905 158.821,58.703 158.851,58.548 158.797,58.368 
				158.647,58.043 158.442,57.657 158.216,57.273 158.017,56.972 157.889,56.818 157.737,56.766 157.481,56.797 157.053,56.966 
				154.281,58.4 152.04,59.988 151.893,60.101 151.939,60.66 151.939,60.66 			"/>
			<polygon fill="#B2CEE7" stroke="#000000" stroke-width="0.25" stroke-linecap="round" stroke-linejoin="round" points="
				149.477,59.917 148.663,60.475 148.363,60.598 147.928,60.657 147.428,60.657 146.99,60.599 146.685,60.477 145.878,59.92 
				145.695,59.665 145.193,58.697 145.189,57.607 145.674,56.616 145.878,56.39 146.681,55.804 146.985,55.705 147.421,55.653 
				147.907,55.652 148.358,55.704 148.668,55.802 149.451,56.388 149.68,56.613 150.16,57.604 150.14,58.693 149.635,59.662 			"/>
			<polygon fill="#B2CEE7" stroke="#000000" stroke-width="0.25" stroke-linecap="round" stroke-linejoin="round" points="
				136.806,59.027 137.166,59.288 139.859,60.812 142.395,61.827 142.574,61.878 142.73,61.844 143.025,61.538 143.077,61.463 
				143.159,61.314 143.264,61.116 143.38,60.914 143.458,60.752 143.492,60.647 143.59,60.247 143.586,60.201 143.519,60.046 
				143.383,59.92 141.101,58.375 138.312,56.998 137.896,56.846 137.628,56.819 137.489,56.874 137.346,56.995 137.145,57.271 
				136.932,57.638 136.729,58.043 136.584,58.395 136.535,58.62 136.578,58.773 136.737,58.958 			"/>
			<polygon fill="#B2CEE7" stroke="#000000" stroke-width="0.25" stroke-linecap="round" stroke-linejoin="round" points="
				135.793,56.491 136.221,56.309 136.703,56.334 137.142,56.566 137.451,56.968 137.577,57.449 137.494,57.911 137.212,58.268 
				137.059,58.414 136.63,58.595 136.148,58.568 135.712,58.324 135.389,57.936 135.261,57.455 135.341,56.993 135.622,56.619 			
				"/>
			<polygon fill="#B2CEE7" stroke="#000000" stroke-width="0.25" stroke-linecap="round" stroke-linejoin="round" points="
				158.946,56.208 159.438,56.286 159.845,56.572 160.087,57.022 160.09,57.151 160.094,57.635 159.886,58.063 159.791,58.163 
				159.636,58.271 159.436,58.389 159.235,58.468 159.079,58.5 158.998,58.493 158.494,58.416 158.088,58.119 157.857,57.682 
				157.838,57.174 157.854,57.071 158.059,56.642 158.142,56.544 158.311,56.437 158.444,56.357 158.497,56.332 158.697,56.239 
				158.852,56.205 			"/>
			<polygon fill="#B2CEE7" stroke="#000000" stroke-width="0.25" stroke-linecap="round" stroke-linejoin="round" points="
				136.101,56.135 136.182,56.007 138.236,53.824 139.635,52.371 139.838,52.22 141.149,51.366 141.504,51.287 141.733,51.313 
				141.985,51.392 142.315,51.638 142.651,51.976 142.936,52.373 143.129,52.728 143.161,52.983 143.158,53.213 143.03,53.549 
				142.035,54.735 141.842,54.911 140.236,56.105 137.824,57.857 137.678,57.917 137.541,57.908 137.265,57.861 136.912,57.655 
				136.557,57.323 136.272,56.923 136.103,56.561 136.101,56.286 			"/>
			<polygon fill="#B2CEE7" stroke="#000000" stroke-width="0.25" stroke-linecap="round" stroke-linejoin="round" points="
				159.309,56.179 159.225,55.953 159.13,55.824 157.069,53.648 155.67,52.203 154.334,51.365 153.973,51.286 153.743,51.282 
				153.536,51.308 153.233,51.466 152.884,51.769 152.558,52.149 152.325,52.532 152.221,52.855 152.223,53.063 152.274,53.286 
				152.419,53.64 153.421,54.817 155.042,55.988 157.474,57.715 157.608,57.787 157.856,57.837 157.986,57.815 158.313,57.687 
				158.673,57.407 159.002,57.029 159.23,56.641 159.308,56.31 			"/>
			<polygon fill="#B2CEE7" stroke="#000000" stroke-width="0.25" stroke-linecap="round" stroke-linejoin="round" points="
				145.444,56.542 145.037,55.902 144.881,54.894 144.372,51.62 144.658,49.407 145.21,48.77 145.467,48.624 146.332,48.261 
				146.758,48.19 147.35,48.159 148.014,48.159 148.622,48.189 149.054,48.26 149.913,48.622 150.193,48.768 150.744,49.405 
				151.01,51.616 150.49,54.891 150.318,55.886 149.909,56.539 149.712,56.742 149.123,56.925 148.691,57.048 148.055,57.119 
				147.341,57.12 146.688,57.049 146.25,56.927 145.665,56.745 			"/>
			<polygon fill="#B2CEE7" stroke="#000000" stroke-width="0.25" stroke-linecap="round" stroke-linejoin="round" points="
				142.449,50.062 141.943,50.502 141.704,51.138 141.756,51.841 142.09,52.456 142.649,52.883 143.315,53.032 143.973,52.862 
				144.479,52.426 144.632,52.278 144.888,51.66 144.854,50.957 144.509,50.339 143.948,49.91 143.28,49.763 142.623,49.937 			"/>
			<polygon fill="#B2CEE7" stroke="#000000" stroke-width="0.25" stroke-linecap="round" stroke-linejoin="round" points="
				153.14,50.141 153.568,50.721 153.696,51.432 153.513,52.126 153.035,52.683 152.376,52.983 151.664,52.961 151.032,52.632 
				150.618,52.066 150.49,51.358 150.672,50.652 151.134,50.096 151.792,49.792 152.506,49.812 152.531,49.816 			"/>
			<polygon fill="#B2CEE7" stroke="#000000" stroke-width="0.25" stroke-linecap="round" stroke-linejoin="round" points="
				148.412,48.562 148.978,48.105 149.305,47.431 149.308,46.692 149,46.027 148.435,45.552 148.357,45.52 147.708,45.393 
				147.065,45.521 146.993,45.565 146.427,46.027 146.104,46.694 146.104,47.445 146.429,48.106 146.993,48.563 147.067,48.613 
				147.269,48.646 147.702,48.72 148.157,48.646 148.343,48.613 			"/>
			<polygon fill="#B2CEE7" stroke="#000000" stroke-width="0.25" stroke-linecap="round" stroke-linejoin="round" points="
				145.796,46.048 145.444,45.753 145.189,45.246 145.013,44.457 144.43,40.825 144.684,39.499 145.649,38.104 146.559,37.552 
				147.733,37.345 148.921,37.552 149.814,38.104 150.776,39.498 151.025,40.823 150.419,44.456 150.239,45.244 149.982,45.751 
				149.63,46.035 149.458,46.129 148.943,46.203 148.163,46.235 147.297,46.236 146.513,46.204 145.978,46.13 			"/>
			<polygon fill="#B2CEE7" stroke="#000000" stroke-width="0.25" stroke-linecap="round" stroke-linejoin="round" points="
				143.798,89.246 144.22,89.133 145.447,87.074 145.737,86.307 145.732,85.9 145.741,85.638 145.574,85.362 145.259,85.132 
				144.879,84.988 144.504,84.96 144.198,85.058 143.923,85.31 143.729,85.538 143.381,86.296 142.747,88.579 142.967,88.934 
				143.112,89.042 143.36,89.163 143.615,89.231 			"/>
			<polygon fill="#B2CEE7" stroke="#000000" stroke-width="0.25" stroke-linecap="round" stroke-linejoin="round" points="
				145.085,83.959 144.914,83.959 144.763,83.993 144.599,84.062 144.401,84.194 144.254,84.443 144.169,84.653 144.171,84.979 
				144.243,85.203 144.397,85.439 144.575,85.587 144.834,85.666 144.91,85.688 145.082,85.688 145.221,85.641 145.411,85.588 
				145.595,85.44 145.744,85.204 145.826,84.98 145.825,84.668 145.749,84.445 145.598,84.195 145.419,84.062 145.234,83.993 			"/>
			<polygon fill="#B2CEE7" stroke="#000000" stroke-width="0.25" stroke-linecap="round" stroke-linejoin="round" points="
				144.864,84.8 144.51,84.677 144.276,84.471 144.201,84.214 144.067,83.679 143.994,82.567 143.717,79.747 143.735,76.698 
				143.845,76.245 143.975,75.964 144.125,75.857 144.403,75.66 144.788,75.557 145.217,75.558 145.598,75.661 145.716,75.739 
				146.022,75.965 146.126,76.247 146.254,76.7 146.352,79.749 146.15,82.569 146.104,83.681 145.978,84.216 145.88,84.472 
				145.626,84.678 145.267,84.8 145.239,84.801 144.909,84.8 			"/>
			<polygon fill="#B2CEE7" stroke="#000000" stroke-width="0.25" stroke-linecap="round" stroke-linejoin="round" points="
				145.268,74.617 145.518,74.7 145.746,74.872 145.932,75.182 146.032,75.452 146.033,75.858 145.927,76.117 145.745,76.425 
				145.496,76.6 145.269,76.678 145.084,76.729 144.864,76.729 144.683,76.677 144.431,76.599 144.203,76.424 144.001,76.115 
				143.919,75.843 143.915,75.437 144.04,75.181 144.219,74.871 144.455,74.699 144.681,74.617 144.879,74.566 145.085,74.566 			
				"/>
			<polygon fill="#B2CEE7" stroke="#000000" stroke-width="0.25" stroke-linecap="round" stroke-linejoin="round" points="
				146.099,75.4 146.225,75.176 146.258,75.045 146.251,74.799 146.758,70.451 147.073,67.226 146.859,66.823 146.711,66.619 
				146.311,66.442 145.978,66.295 145.626,66.235 145.241,66.213 144.887,66.244 144.534,66.361 144.127,66.494 143.97,66.691 
				143.711,67.057 143.716,70.304 143.793,74.693 143.762,74.925 143.789,75.07 143.892,75.299 143.95,75.351 144.256,75.533 
				144.713,75.655 145.237,75.679 145.698,75.604 146.024,75.436 			"/>
			<polygon fill="#B2CEE7" stroke="#000000" stroke-width="0.25" stroke-linecap="round" stroke-linejoin="round" points="
				151.318,89.221 150.89,89.079 149.763,86.96 149.495,86.171 149.513,85.771 149.543,85.518 149.735,85.256 150.066,85.052 
				150.455,84.928 150.832,84.942 151.125,85.053 151.385,85.325 151.561,85.581 151.88,86.342 152.404,88.646 152.17,88.978 
				152.018,89.074 151.762,89.173 151.502,89.221 			"/>
			<polygon fill="#B2CEE7" stroke="#000000" stroke-width="0.25" stroke-linecap="round" stroke-linejoin="round" points="
				150.067,83.938 150.239,83.938 150.391,83.984 150.551,84.04 150.751,84.171 150.896,84.42 150.999,84.643 150.983,84.955 
				150.928,85.179 150.772,85.429 150.598,85.565 150.341,85.644 150.247,85.667 150.089,85.667 149.937,85.634 149.762,85.581 
				149.575,85.434 149.429,85.186 149.328,84.975 149.331,84.649 149.402,84.439 149.556,84.189 149.731,84.043 149.932,83.986 			
				"/>
			<polygon fill="#B2CEE7" stroke="#000000" stroke-width="0.25" stroke-linecap="round" stroke-linejoin="round" points="
				150.317,84.778 150.67,84.667 150.898,84.448 151.03,83.943 151.105,83.655 151.185,82.543 151.488,79.723 151.51,76.675 
				151.39,76.222 151.254,75.941 151.105,75.835 150.822,75.639 150.422,75.537 149.994,75.539 149.629,75.656 149.508,75.734 
				149.22,75.961 149.122,76.243 148.992,76.696 148.867,79.746 149.029,82.564 149.07,83.664 149.181,84.211 149.283,84.467 
				149.554,84.672 149.915,84.78 149.939,84.781 150.27,84.779 			"/>
			<polygon fill="#B2CEE7" stroke="#000000" stroke-width="0.25" stroke-linecap="round" stroke-linejoin="round" points="
				150.388,76.722 150.169,76.723 149.983,76.671 149.76,76.594 149.509,76.42 149.33,76.112 149.204,75.841 149.221,75.435 
				149.302,75.178 149.503,74.867 149.728,74.695 149.982,74.599 150.163,74.547 150.37,74.546 150.569,74.597 150.776,74.691 
				151.03,74.849 151.205,75.171 151.336,75.428 151.33,75.834 151.254,76.093 151.049,76.402 150.826,76.578 150.569,76.669 			"/>
			<polygon fill="#B2CEE7" stroke="#000000" stroke-width="0.25" stroke-linecap="round" stroke-linejoin="round" points="
				151.38,75.277 151.462,75.047 151.49,74.902 151.459,74.67 151.559,70.282 151.584,67.049 151.313,66.671 151.135,66.474 
				150.72,66.343 150.374,66.239 150.018,66.208 149.634,66.219 149.297,66.292 148.944,66.439 148.563,66.617 148.437,66.821 
				148.209,67.225 148.518,70.449 149.002,74.796 148.994,75.029 149.027,75.172 149.173,75.383 149.247,75.432 149.578,75.586 
				150.043,75.66 150.566,75.635 151.007,75.512 151.308,75.329 			"/>
			<polygon fill="#B2CEE7" stroke="#000000" stroke-width="0.25" stroke-linecap="round" stroke-linejoin="round" points="
				145.979,67.18 146.479,66.877 146.588,66.723 146.913,66.164 146.943,65.528 146.686,64.94 146.564,64.773 146.122,64.417 
				145.931,64.354 145.674,64.305 145.39,64.285 145.118,64.31 144.937,64.363 144.452,64.671 144.323,64.82 144,65.381 
				143.974,66.03 144.245,66.616 144.348,66.776 144.807,67.127 144.983,67.206 145.24,67.258 145.539,67.278 145.798,67.251 			"/>
			<polygon fill="#B2CEE7" stroke="#000000" stroke-width="0.25" stroke-linecap="round" stroke-linejoin="round" points="
				149.35,64.339 149.605,64.289 149.89,64.281 150.163,64.305 150.348,64.358 150.827,64.665 150.976,64.813 151.285,65.374 
				151.311,66.011 151.05,66.596 150.955,66.77 150.492,67.108 150.318,67.201 150.063,67.253 149.765,67.261 149.504,67.234 
				149.308,67.177 148.824,66.875 148.695,66.721 148.384,66.163 148.343,65.526 148.614,64.925 148.716,64.771 149.175,64.415 			
				"/>
		</g>
	</g>
</g>
</svg>
