<?xml version="1.0" encoding="utf-8"?>

<!DOCTYPE svg PUBLIC "-//W3C//DTD SVG 1.1//EN" "http://www.w3.org/Graphics/SVG/1.1/DTD/svg11.dtd">
<svg version="1.1" id="Layer_1" xmlns="http://www.w3.org/2000/svg" xmlns:xlink="http://www.w3.org/1999/xlink" x="0px" y="0px"
	 width="702px" height="327px" viewBox="0 0 702 327" enable-background="new 0 0 702 327" xml:space="preserve">

<defs>
	<style type="text/css">
	text {
	  font-family: Helvetica, Verdana, ArialUnicodeMS, san-serif
	}
	</style>
</defs>

<g>
   <desc>
	PS3.19 2013 - Application Hosting
   </desc>
</g>

<g>
	<rect x="1" y="1" fill="#F5EED6" width="700" height="325"/>
</g>
<g>
	<g>
		<rect x="186.483" y="60.569" fill="#E6E7E8" stroke="#000000" stroke-miterlimit="10" width="99.986" height="100"/>
		<rect x="181.483" y="65.569" fill="#E6E7E8" stroke="#000000" stroke-miterlimit="10" width="99.987" height="100"/>
		<rect x="176.484" y="70.569" fill="#E6E7E8" stroke="#000000" stroke-miterlimit="10" width="99.986" height="100"/>
		<rect x="171.485" y="75.569" fill="#E6E7E8" stroke="#000000" stroke-miterlimit="10" width="99.987" height="100"/>
		<rect x="166.485" y="80.569" fill="#E6E7E8" stroke="#000000" stroke-miterlimit="10" width="99.987" height="100"/>
		<rect x="161.486" y="85.569" fill="#E6E7E8" stroke="#000000" stroke-miterlimit="10" width="99.986" height="100"/>
		<g>
			<g>
				<line fill="none" stroke="#000000" stroke-miterlimit="10" x1="156.487" y1="90.569" x2="158.487" y2="90.569"/>
				
					<line fill="none" stroke="#000000" stroke-miterlimit="10" stroke-dasharray="3.8395,3.8395" x1="162.326" y1="90.569" x2="252.554" y2="90.569"/>
				<polyline fill="none" stroke="#000000" stroke-miterlimit="10" points="254.474,90.569 256.474,90.569 256.474,92.569 				"/>
				
					<line fill="none" stroke="#000000" stroke-miterlimit="10" stroke-dasharray="3.84,3.84" x1="256.474" y1="96.409" x2="256.474" y2="186.648"/>
				<line fill="none" stroke="#000000" stroke-miterlimit="10" x1="256.474" y1="188.568" x2="256.474" y2="190.568"/>
			</g>
		</g>
		<g>
			<g>
				<line fill="none" stroke="#000000" stroke-miterlimit="10" x1="151.487" y1="95.569" x2="153.487" y2="95.569"/>
				
					<line fill="none" stroke="#000000" stroke-miterlimit="10" stroke-dasharray="3.8395,3.8395" x1="157.326" y1="95.569" x2="247.554" y2="95.569"/>
				<polyline fill="none" stroke="#000000" stroke-miterlimit="10" points="249.474,95.569 251.474,95.569 251.474,97.569 				"/>
				
					<line fill="none" stroke="#000000" stroke-miterlimit="10" stroke-dasharray="3.84,3.84" x1="251.474" y1="101.409" x2="251.474" y2="191.648"/>
				<line fill="none" stroke="#000000" stroke-miterlimit="10" x1="251.474" y1="193.568" x2="251.474" y2="195.568"/>
			</g>
		</g>
		<g>
			<g>
				<line fill="none" stroke="#000000" stroke-miterlimit="10" x1="146.488" y1="100.569" x2="148.488" y2="100.569"/>
				
					<line fill="none" stroke="#000000" stroke-miterlimit="10" stroke-dasharray="3.8394,3.8394" x1="152.327" y1="100.569" x2="242.554" y2="100.569"/>
				<polyline fill="none" stroke="#000000" stroke-miterlimit="10" points="244.474,100.569 246.474,100.569 246.474,102.569 				
					"/>
				
					<line fill="none" stroke="#000000" stroke-miterlimit="10" stroke-dasharray="3.84,3.84" x1="246.474" y1="106.409" x2="246.474" y2="196.648"/>
				<line fill="none" stroke="#000000" stroke-miterlimit="10" x1="246.474" y1="198.568" x2="246.474" y2="200.568"/>
			</g>
		</g>
		<rect x="141.489" y="105.569" fill="#E6E7E8" stroke="#000000" stroke-miterlimit="10" width="99.987" height="100"/>
		<rect x="136.489" y="110.569" fill="#E6E7E8" stroke="#000000" stroke-miterlimit="10" width="99.987" height="100"/>
		<rect x="131.49" y="115.569" fill="#E6E7E8" stroke="#000000" stroke-miterlimit="10" width="99.986" height="100"/>
		<rect x="126.491" y="120.569" fill="#E6E7E8" stroke="#000000" stroke-miterlimit="10" width="99.987" height="100"/>
		<rect x="121.492" y="125.569" fill="#E6E7E8" stroke="#000000" stroke-miterlimit="10" width="99.986" height="100"/>
		<rect x="116.492" y="130.569" fill="#E6E7E8" stroke="#000000" stroke-miterlimit="10" width="99.986" height="100"/>
		<rect x="111.493" y="135.569" fill="#E6E7E8" stroke="#000000" stroke-miterlimit="10" width="99.987" height="100"/>
		<rect x="106.494" y="140.569" fill="#E6E7E8" stroke="#000000" stroke-miterlimit="10" width="99.986" height="100"/>
		<rect x="101.494" y="145.569" fill="#E6E7E8" stroke="#000000" stroke-miterlimit="10" width="99.986" height="100"/>
		<rect x="96.495" y="150.569" fill="#E6E7E8" stroke="#000000" stroke-miterlimit="10" width="99.987" height="100"/>
		<rect x="91.496" y="155.569" fill="#E6E7E8" stroke="#000000" stroke-miterlimit="10" width="99.986" height="100"/>
		<rect x="86.496" y="160.569" fill="#E6E7E8" stroke="#000000" stroke-miterlimit="10" width="99.988" height="100"/>
		<rect x="111.489" y="195.568" fill="#FFF200" stroke="#000000" stroke-miterlimit="10" width="4.999" height="5"/>
		<rect x="193.661" y="260.367" fill="none" width="10.502" height="6.064"/>
		<text transform="matrix(1 0 0 1 193.6592 264.6611)" font-size="6">Z1</text>
		<rect x="198.806" y="255.57" fill="none" width="10.504" height="6.062"/>
		<text transform="matrix(1 0 0 1 198.8037 259.8623)" font-size="6">Z2</text>
		<rect x="203.444" y="250.152" fill="none" width="10.504" height="6.064"/>
		<text transform="matrix(1 0 0 1 203.4424 254.4463)" font-size="6">Z3</text>
		<rect x="293.685" y="160.539" fill="none" width="10.504" height="6.063"/>
		<text transform="matrix(1 0 0 1 293.6836 164.833)" font-size="6">Z64</text>
		<g>
			<g>
				<line fill="none" stroke="#00AEEF" stroke-miterlimit="10" x1="190.083" y1="260.568" x2="293.049" y2="158.685"/>
				<g>
					<polygon fill="#00AEEF" points="293.367,160.414 296.198,155.569 291.324,158.349 					"/>
				</g>
			</g>
		</g>
		<text transform="matrix(1 -0.0019 0.0019 1 90.6685 140.5679)" fill="#00AEEF" font-size="11">+Z</text>
		<text transform="matrix(1 -0.0019 0.0019 1 111.498 170.5684)" fill="#ED1C24" font-size="11">+X</text>
		<text transform="matrix(1 -0.0019 0.0019 1 68.0459 184.0039)" fill="#0DB14B" font-size="11">+Y</text>
		<text transform="matrix(1 -0.0019 0.0019 1 65.8188 155.0708)"><tspan x="0" y="0" font-size="11">O</tspan><tspan x="8.556" y="3" font-size="9">1</tspan></text>
		<g>
			<g>
				<g>
					<line fill="none" stroke="#0DB14B" stroke-width="2" x1="86.917" y1="160.886" x2="86.917" y2="178.377"/>
					<g>
						<polygon fill="#0DB14B" points="84.011,176.396 86.917,187.236 89.822,176.396 						"/>
					</g>
				</g>
			</g>
			<g>
				<g>
					<line fill="none" stroke="#ED1C24" stroke-width="2" x1="86.814" y1="160.886" x2="106.244" y2="160.886"/>
					<g>
						<polygon fill="#ED1C24" points="104.262,163.792 115.103,160.886 104.262,157.981 						"/>
					</g>
				</g>
			</g>
			<g>
				<g>
					<line fill="none" stroke="#00AEEF" stroke-width="2" x1="87" y1="160.41" x2="98.666" y2="148.132"/>
					<g>
						<polygon fill="#00AEEF" points="99.407,151.569 104.768,141.709 95.195,147.567 						"/>
					</g>
				</g>
			</g>
		</g>
		<g>
			<path stroke="#000000" stroke-miterlimit="1" d="M92.508,160.576c0.007-3.043-2.463-5.504-5.501-5.504v5.504H92.508z"/>
			
				<path fill="#FFFFFF" stroke="#010101" stroke-width="0.75" stroke-linecap="round" stroke-linejoin="round" stroke-miterlimit="1" d="
				M87.007,155.072c-3.035,0-5.499,2.467-5.499,5.504h5.499V155.072z"/>
			<path stroke="#000000" stroke-miterlimit="1" d="M81.508,160.576c0.002,3.043,2.464,5.5,5.507,5.5l-0.008-5.5H81.508z"/>
			
				<path fill="#FFFFFF" stroke="#010101" stroke-width="0.75" stroke-linecap="round" stroke-linejoin="round" stroke-miterlimit="1" d="
				M87.007,160.576l0.008,5.5c3.034,0,5.5-2.465,5.493-5.5H87.007z"/>
		</g>
		<g>
			<circle fill="#FFFFFF" stroke="#000000" stroke-miterlimit="10" cx="126.125" cy="188.02" r="7.5"/>
			<text transform="matrix(0.9288 0 0 1 123.0635 190.8535)" font-size="10">1</text>
		</g>
	</g>
	<g>
		<rect x="369.008" y="16.536" fill="#FFFFFF" stroke="#000000" stroke-miterlimit="10" width="260" height="293.929"/>
		<rect x="369.008" y="16.536" fill="#B2CEE7" stroke="#1C3766" width="260" height="14"/>
		<rect x="369.008" y="86.005" fill="#B2CEE7" stroke="#1C3766" width="260" height="14"/>
		<rect x="369.008" y="145.083" fill="#B2CEE7" stroke="#1C3766" width="260" height="13.998"/>
		<rect x="369.008" y="204.52" fill="#B2CEE7" stroke="#1C3766" width="260" height="14"/>
		<line fill="none" stroke="#1C3766" x1="369.008" y1="276.613" x2="629.008" y2="276.613"/>
		<text transform="matrix(1 0 0 1 374.3926 26.0913)" font-size="9">Component</text>
		<text transform="matrix(0.9288 0 0 1 374.3926 41.6914)" font-size="8">Dataset Component #1  - NAA</text>
		<text transform="matrix(0.9288 0 0 1 374.3926 54.2915)" font-size="8">Dataset Component #2 - Ch</text>
		<text transform="matrix(0.9288 0 0 1 374.3926 66.8911)" font-size="8">Dataset Component #3 - Cr</text>
		<text transform="matrix(0.9288 0 0 1 374.3926 79.4912)" font-size="8">Dataset Component #4 - ...</text>
		<text transform="matrix(0.9288 0 0 1 374.3926 96.2915)" font-size="9">Dimension</text>
		<text transform="matrix(0.9288 0 0 1 374.3926 111.8911)" font-size="8" letter-spacing="27.993">	</text>
		<text transform="matrix(0.9288 0 0 1 402.8828 111.8911)" font-size="8">Dataset dimension #1 - index along x</text>
		<text transform="matrix(0.9288 0 0 1 374.3926 124.4912)" font-size="8" letter-spacing="27.993">	</text>
		<text transform="matrix(0.9288 0 0 1 402.8828 124.4912)" font-size="8">Dataset dimension #2 - index along y</text>
		<text transform="matrix(0.9288 0 0 1 374.3926 137.0913)" font-size="8" letter-spacing="27.993">	</text>
		<text transform="matrix(0.9288 0 0 1 402.8828 137.0913)" font-size="8">Dataset dimension #3 - index along z</text>
		<text transform="matrix(0.9288 0 0 1 374.3926 153.8911)" font-size="9">Origin</text>
		<text transform="matrix(0.9288 0 0 1 374.3926 169.4922)" font-size="8">1 Occurrence</text>
		<text transform="matrix(0.9288 0 0 1 374.3926 185.0918)" font-size="8" letter-spacing="27.993">	</text>
		<text transform="matrix(0.9288 0 0 1 402.8828 185.0918)" font-size="8">- x,y,z coordinates of O1</text>
		<text transform="matrix(0.9288 0 0 1 374.3926 197.6914)" font-size="8" letter-spacing="27.993">	</text>
		<text transform="matrix(0.9288 0 0 1 402.8828 197.6914)" font-size="8">No index, because Origin is fixed for the whole dataset</text>
		<text transform="matrix(0.9288 0 0 1 374.3926 214.4922)" font-size="9">Direction Cosines</text>
		<text transform="matrix(0.9288 0 0 1 374.3926 230.0918)" font-size="8">2 Occurrences</text>
		<text transform="matrix(0.9288 0 0 1 374.3926 245.6914)" font-size="8" letter-spacing="27.993">	</text>
		<text transform="matrix(0.9288 0 0 1 402.8828 245.6914)" font-size="8">- Dataset dimension #1 (x)</text>
		<text transform="matrix(0.9288 0 0 1 374.3926 258.291)" font-size="8" letter-spacing="27.993">	</text>
		<text transform="matrix(0.9288 0 0 1 402.8828 258.291)" font-size="8">- Dataset dimension #2 (y)</text>
		<text transform="matrix(0.9288 0 0 1 374.3926 270.8906)" font-size="8" letter-spacing="27.993">	</text>
		<text transform="matrix(0.9288 0 0 1 402.8828 270.8906)" font-size="8">No index, because Direction cosines are fixed for the whole dataset</text>
		<text transform="matrix(0.9288 0 0 1 374.3926 287.6914)" font-size="9">Notes:</text>
		<text transform="matrix(0.9288 0 0 1 374.3926 303.291)" font-size="8">1.</text>
		<text transform="matrix(0.9288 0 0 1 380.5898 303.291)" font-size="8" letter-spacing="9.69">	</text>
		<text transform="matrix(0.9288 0 0 1 392.3926 303.291)" font-size="8">Each voxel contains 4 values (NAA, Ch, Cr, ...)</text>
	</g>
</g>
</svg>
