<?xml version="1.0" encoding="utf-8"?>

<!DOCTYPE svg PUBLIC "-//W3C//DTD SVG 1.1//EN" "http://www.w3.org/Graphics/SVG/1.1/DTD/svg11.dtd">
<svg version="1.1" id="Layer_1" xmlns="http://www.w3.org/2000/svg" xmlns:xlink="http://www.w3.org/1999/xlink" x="0px" y="0px"
	 width="702px" height="787px" viewBox="0 0 702 787" enable-background="new 0 0 702 787" xml:space="preserve">

<defs>
	<style type="text/css">
	text {
	  font-family: Helvetica, Verdana, ArialUnicodeMS, san-serif
	}
	</style>
</defs>

<g>
   <desc>
	PS3.19 2013 - Application Hosting
   </desc>
</g>

<g>
	<rect x="1" y="1" fill="#F5EED6" width="700" height="785"/>
	<g>
		<g>
			<circle fill="#FFFFFF" stroke="#000000" stroke-miterlimit="10" cx="297.34" cy="624.27" r="7.5"/>
			<text transform="matrix(0.9288 0 0 1 294.2832 627.1055)" font-size="10">1</text>
		</g>
		<rect x="120.02" y="736.443" fill="#FFFFFF" stroke="#000000" stroke-miterlimit="10" width="461.961" height="34.943"/>
		<rect x="190.705" y="79.189" fill="#B2CEE7" width="309.609" height="25"/>
		<g>
			<g>
				<line fill="none" stroke="#4F8ABE" stroke-miterlimit="10" x1="500.314" y1="104.689" x2="497.314" y2="104.689"/>
				
					<line fill="none" stroke="#4F8ABE" stroke-miterlimit="10" stroke-dasharray="6.0722,3.0361" x1="494.278" y1="104.689" x2="195.223" y2="104.689"/>
				<line fill="none" stroke="#4F8ABE" stroke-miterlimit="10" x1="193.705" y1="104.689" x2="190.705" y2="104.689"/>
			</g>
		</g>
		<g>
			<g>
				<line fill="none" stroke="#4F8ABE" stroke-miterlimit="10" x1="190.705" y1="78.689" x2="193.705" y2="78.689"/>
				
					<line fill="none" stroke="#4F8ABE" stroke-miterlimit="10" stroke-dasharray="6.0722,3.0361" x1="196.741" y1="78.689" x2="495.797" y2="78.689"/>
				<line fill="none" stroke="#4F8ABE" stroke-miterlimit="10" x1="497.314" y1="78.689" x2="500.314" y2="78.689"/>
			</g>
		</g>
		<rect x="190.705" y="357.41" fill="#B2CEE7" width="309.609" height="24.999"/>
		<g>
			<g>
				<line fill="none" stroke="#4F8ABE" stroke-miterlimit="10" x1="500.314" y1="382.909" x2="497.314" y2="382.909"/>
				
					<line fill="none" stroke="#4F8ABE" stroke-miterlimit="10" stroke-dasharray="6.0722,3.0361" x1="494.278" y1="382.909" x2="195.223" y2="382.909"/>
				<line fill="none" stroke="#4F8ABE" stroke-miterlimit="10" x1="193.705" y1="382.909" x2="190.705" y2="382.909"/>
			</g>
		</g>
		<g>
			<g>
				<line fill="none" stroke="#4F8ABE" stroke-miterlimit="10" x1="190.705" y1="356.909" x2="193.705" y2="356.909"/>
				
					<line fill="none" stroke="#4F8ABE" stroke-miterlimit="10" stroke-dasharray="6.0722,3.0361" x1="196.741" y1="356.909" x2="495.797" y2="356.909"/>
				<line fill="none" stroke="#4F8ABE" stroke-miterlimit="10" x1="497.314" y1="356.909" x2="500.314" y2="356.909"/>
			</g>
		</g>
		<g>
			<rect x="190.715" y="419.441" fill="#B2CEE7" width="309.641" height="53.201"/>
			<g>
				<polyline fill="none" stroke="#4F8ABE" stroke-miterlimit="10" points="190.715,471.143 190.715,472.643 192.215,472.643 				
					"/>
				
					<line fill="none" stroke="#4F8ABE" stroke-miterlimit="10" stroke-dasharray="2.9771,2.9771" x1="195.192" y1="472.643" x2="497.367" y2="472.643"/>
				<polyline fill="none" stroke="#4F8ABE" stroke-miterlimit="10" points="498.855,472.643 500.355,472.643 500.355,471.143 				
					"/>
				
					<line fill="none" stroke="#4F8ABE" stroke-miterlimit="10" stroke-dasharray="2.953,2.953" x1="500.355" y1="468.189" x2="500.355" y2="422.418"/>
				<polyline fill="none" stroke="#4F8ABE" stroke-miterlimit="10" points="500.355,420.941 500.355,419.441 498.855,419.441 				
					"/>
				
					<line fill="none" stroke="#4F8ABE" stroke-miterlimit="10" stroke-dasharray="2.9771,2.9771" x1="495.878" y1="419.441" x2="193.704" y2="419.441"/>
				<polyline fill="none" stroke="#4F8ABE" stroke-miterlimit="10" points="192.215,419.441 190.715,419.441 190.715,420.941 				
					"/>
				
					<line fill="none" stroke="#4F8ABE" stroke-miterlimit="10" stroke-dasharray="2.953,2.953" x1="190.715" y1="423.895" x2="190.715" y2="469.666"/>
			</g>
		</g>
		<g>
			<rect x="190.715" y="419.441" fill="#FFFFFF" stroke="#000000" width="26.674" height="12"/>
			<rect x="195.605" y="421.658" fill="none" width="16.891" height="9.729"/>
			<text transform="matrix(1 0 0 1 195.5972 427.4033)" font-size="8">strict</text>
		</g>
		
			<line fill="none" stroke="#000000" stroke-width="0.5" stroke-linecap="round" stroke-miterlimit="1" x1="235.625" y1="68.114" x2="235.625" y2="719.451"/>
		<g>
			<g>
				
					<line fill="none" stroke="#000000" stroke-width="0.5" stroke-linecap="round" stroke-miterlimit="1" x1="235.625" y1="43.679" x2="235.625" y2="45.179"/>
				
					<line fill="none" stroke="#000000" stroke-width="0.5" stroke-linecap="round" stroke-miterlimit="1" stroke-dasharray="3.0687,3.0687" x1="235.625" y1="48.248" x2="235.625" y2="58.989"/>
				
					<line fill="none" stroke="#000000" stroke-width="0.5" stroke-linecap="round" stroke-miterlimit="1" x1="235.625" y1="60.523" x2="235.625" y2="62.023"/>
			</g>
		</g>
		
			<line fill="none" stroke="#000000" stroke-width="0.5" stroke-linecap="round" stroke-miterlimit="1" x1="123.809" y1="68.114" x2="123.809" y2="719.451"/>
		<g>
			<g>
				
					<line fill="none" stroke="#000000" stroke-width="0.5" stroke-linecap="round" stroke-miterlimit="1" x1="123.809" y1="43.679" x2="123.809" y2="45.179"/>
				
					<line fill="none" stroke="#000000" stroke-width="0.5" stroke-linecap="round" stroke-miterlimit="1" stroke-dasharray="3.0687,3.0687" x1="123.809" y1="48.248" x2="123.809" y2="58.989"/>
				
					<line fill="none" stroke="#000000" stroke-width="0.5" stroke-linecap="round" stroke-miterlimit="1" x1="123.809" y1="60.523" x2="123.809" y2="62.023"/>
			</g>
		</g>
		
			<line fill="none" stroke="#000000" stroke-width="0.5" stroke-linecap="round" stroke-miterlimit="1" x1="462.322" y1="68.114" x2="462.322" y2="719.451"/>
		<g>
			<g>
				
					<line fill="none" stroke="#000000" stroke-width="0.5" stroke-linecap="round" stroke-miterlimit="1" x1="462.322" y1="43.679" x2="462.322" y2="45.179"/>
				
					<line fill="none" stroke="#000000" stroke-width="0.5" stroke-linecap="round" stroke-miterlimit="1" stroke-dasharray="3.0687,3.0687" x1="462.322" y1="48.248" x2="462.322" y2="58.989"/>
				
					<line fill="none" stroke="#000000" stroke-width="0.5" stroke-linecap="round" stroke-miterlimit="1" x1="462.322" y1="60.523" x2="462.322" y2="62.023"/>
			</g>
		</g>
		<g>
			<text transform="matrix(1 0 0 1 127.0186 26.0718)"><tspan x="0" y="0" font-size="9">End</tspan><tspan x="-1.494" y="10.8" font-size="9">User</tspan></text>
		</g>
		<g>
			
				<rect x="211.164" y="15.614" fill="#CCDEF0" stroke="#010101" stroke-width="0.75" stroke-linecap="round" stroke-linejoin="round" stroke-miterlimit="1" width="48.926" height="26"/>
			<text transform="matrix(0.9904 0 0 1 226.6528 31.1118)" font-size="9">Host</text>
		</g>
		<g>
			
				<rect x="435.527" y="15.614" fill="#CCDEF0" stroke="#010101" stroke-width="0.75" stroke-linecap="round" stroke-linejoin="round" stroke-miterlimit="1" width="53.588" height="26"/>
			<text transform="matrix(1 0 0 1 440.3027 31.1113)" font-size="9">Application</text>
		</g>
		
			<line fill="none" stroke="#000000" stroke-width="0.5" stroke-linecap="round" stroke-miterlimit="1" x1="536.137" y1="68.114" x2="536.137" y2="719.451"/>
		<g>
			<g>
				
					<line fill="none" stroke="#000000" stroke-width="0.5" stroke-linecap="round" stroke-miterlimit="1" x1="536.137" y1="43.679" x2="536.137" y2="45.179"/>
				
					<line fill="none" stroke="#000000" stroke-width="0.5" stroke-linecap="round" stroke-miterlimit="1" stroke-dasharray="3.0687,3.0687" x1="536.137" y1="48.248" x2="536.137" y2="58.989"/>
				
					<line fill="none" stroke="#000000" stroke-width="0.5" stroke-linecap="round" stroke-miterlimit="1" x1="536.137" y1="60.523" x2="536.137" y2="62.023"/>
			</g>
		</g>
		<g>
			
				<rect x="496.678" y="15.614" fill="#CCDEF0" stroke="#010101" stroke-width="0.75" stroke-linecap="round" stroke-linejoin="round" stroke-miterlimit="1" width="78.084" height="26"/>
			<text transform="matrix(1 0 0 1 500.459 31.1113)" font-size="9">DataStoreDICOM</text>
		</g>
		
			<polyline fill="#CCDEF0" stroke="#010101" stroke-width="0.75" stroke-linecap="round" stroke-linejoin="round" stroke-miterlimit="1" points="
			462.322,75.541 457.822,75.541 457.822,705.436 466.822,705.436 466.822,75.541 462.322,75.541 		"/>
		
			<rect x="231.316" y="403.055" fill="#CCDEF0" stroke="#010101" stroke-width="0.75" stroke-linecap="round" stroke-linejoin="round" stroke-miterlimit="1" width="9" height="9"/>
		
			<rect x="231.316" y="456.697" fill="#CCDEF0" stroke="#010101" stroke-width="0.75" stroke-linecap="round" stroke-linejoin="round" stroke-miterlimit="1" width="9" height="248.742"/>
		
			<rect x="231.316" y="122.974" fill="#CCDEF0" stroke="#010101" stroke-width="0.75" stroke-linecap="round" stroke-linejoin="round" stroke-miterlimit="1" width="9" height="229.463"/>
		
			<rect x="531.639" y="307.052" fill="#CCDEF0" stroke="#010101" stroke-width="0.75" stroke-linecap="round" stroke-linejoin="round" stroke-miterlimit="1" width="9" height="23.203"/>
		
			<rect x="531.639" y="639.691" fill="#CCDEF0" stroke="#010101" stroke-width="0.75" stroke-linecap="round" stroke-linejoin="round" stroke-miterlimit="1" width="9" height="23.203"/>
		<g>
			<g>
				
					<line fill="none" stroke="#005695" stroke-linecap="round" stroke-miterlimit="1" x1="458.236" y1="122.973" x2="245.44" y2="122.973"/>
				<g>
					<polygon fill="#005695" points="246.629,121.23 240.125,122.973 246.629,124.716 					"/>
				</g>
			</g>
		</g>
		<g>
			<g>
				
					<line fill="none" stroke="#005695" stroke-linecap="round" stroke-miterlimit="1" x1="452.921" y1="141.273" x2="240.125" y2="141.273"/>
				<g>
					<polygon fill="#005695" points="451.731,139.53 458.236,141.273 451.731,143.016 					"/>
				</g>
			</g>
		</g>
		<g>
			<g>
				
					<line fill="none" stroke="#005695" stroke-linecap="round" stroke-miterlimit="1" x1="458.236" y1="159.573" x2="245.44" y2="159.573"/>
				<g>
					<polygon fill="#005695" points="246.629,157.83 240.125,159.573 246.629,161.316 					"/>
				</g>
			</g>
		</g>
		<g>
			<g>
				
					<line fill="none" stroke="#005695" stroke-linecap="round" stroke-miterlimit="1" x1="452.921" y1="177.873" x2="240.125" y2="177.873"/>
				<g>
					<polygon fill="#005695" points="451.731,176.129 458.236,177.873 451.731,179.616 					"/>
				</g>
			</g>
		</g>
		<g>
			<g>
				
					<line fill="none" stroke="#005695" stroke-linecap="round" stroke-miterlimit="1" x1="458.236" y1="196.172" x2="245.44" y2="196.172"/>
				<g>
					<polygon fill="#005695" points="246.629,194.429 240.125,196.172 246.629,197.916 					"/>
				</g>
			</g>
		</g>
		<g>
			<g>
				
					<line fill="none" stroke="#005695" stroke-linecap="round" stroke-miterlimit="1" x1="452.921" y1="214.472" x2="240.125" y2="214.472"/>
				<g>
					<polygon fill="#005695" points="451.731,212.729 458.236,214.472 451.731,216.215 					"/>
				</g>
			</g>
		</g>
		<g>
			<g>
				
					<line fill="none" stroke="#005695" stroke-linecap="round" stroke-miterlimit="1" x1="458.236" y1="232.772" x2="245.44" y2="232.772"/>
				<g>
					<polygon fill="#005695" points="246.629,231.029 240.125,232.772 246.629,234.515 					"/>
				</g>
			</g>
		</g>
		<g>
			<g>
				
					<line fill="none" stroke="#005695" stroke-linecap="round" stroke-miterlimit="1" x1="458.236" y1="251.072" x2="245.44" y2="251.072"/>
				<g>
					<polygon fill="#005695" points="246.629,249.329 240.125,251.072 246.629,252.815 					"/>
				</g>
			</g>
		</g>
		<g>
			<g>
				
					<line fill="none" stroke="#005695" stroke-linecap="round" stroke-miterlimit="1" x1="458.236" y1="289.112" x2="245.44" y2="289.112"/>
				<g>
					<polygon fill="#005695" points="246.629,287.369 240.125,289.112 246.629,290.855 					"/>
				</g>
			</g>
		</g>
		<g>
			<g>
				
					<line fill="none" stroke="#005695" stroke-linecap="round" stroke-miterlimit="1" x1="526.323" y1="307.052" x2="240.125" y2="307.052"/>
				<g>
					<polygon fill="#005695" points="525.134,305.309 531.639,307.052 525.134,308.795 					"/>
				</g>
			</g>
		</g>
		<g>
			<g>
				
					<line fill="none" stroke="#005695" stroke-linecap="round" stroke-miterlimit="1" x1="452.921" y1="325.352" x2="240.125" y2="325.352"/>
				<g>
					<polygon fill="#005695" points="451.731,323.609 458.236,325.352 451.731,327.095 					"/>
				</g>
			</g>
		</g>
		<g>
			<g>
				
					<line fill="none" stroke="#005695" stroke-linecap="round" stroke-miterlimit="1" x1="452.921" y1="343.652" x2="240.125" y2="343.652"/>
				<g>
					<polygon fill="#005695" points="451.731,341.909 458.236,343.652 451.731,345.395 					"/>
				</g>
			</g>
		</g>
		<g>
			<g>
				
					<line fill="none" stroke="#005695" stroke-linecap="round" stroke-miterlimit="1" x1="457.822" y1="456.693" x2="245.44" y2="456.693"/>
				<g>
					<polygon fill="#005695" points="246.629,454.95 240.125,456.693 246.629,458.437 					"/>
				</g>
			</g>
		</g>
		<g>
			<g>
				
					<line fill="none" stroke="#005695" stroke-linecap="round" stroke-miterlimit="1" x1="452.507" y1="493.293" x2="240.125" y2="493.293"/>
				<g>
					<polygon fill="#005695" points="451.317,491.55 457.822,493.293 451.317,495.036 					"/>
				</g>
			</g>
		</g>
		<g>
			<g>
				
					<line fill="none" stroke="#005695" stroke-linecap="round" stroke-miterlimit="1" x1="457.822" y1="511.592" x2="245.44" y2="511.592"/>
				<g>
					<polygon fill="#005695" points="246.629,509.849 240.125,511.592 246.629,513.335 					"/>
				</g>
			</g>
		</g>
		<g>
			<g>
				
					<line fill="none" stroke="#005695" stroke-linecap="round" stroke-miterlimit="1" x1="452.507" y1="529.893" x2="240.125" y2="529.893"/>
				<g>
					<polygon fill="#005695" points="451.317,528.149 457.822,529.893 451.317,531.636 					"/>
				</g>
			</g>
		</g>
		<g>
			<g>
				
					<line fill="none" stroke="#005695" stroke-linecap="round" stroke-miterlimit="1" x1="457.822" y1="401.791" x2="245.44" y2="401.791"/>
				<g>
					<polygon fill="#005695" points="246.629,400.048 240.125,401.791 246.629,403.534 					"/>
				</g>
			</g>
		</g>
		<g>
			<g>
				
					<line fill="none" stroke="#005695" stroke-linecap="round" stroke-miterlimit="1" x1="457.822" y1="548.191" x2="245.44" y2="548.191"/>
				<g>
					<polygon fill="#005695" points="246.629,546.448 240.125,548.191 246.629,549.935 					"/>
				</g>
			</g>
		</g>
		<g>
			<g>
				
					<line fill="none" stroke="#005695" stroke-linecap="round" stroke-miterlimit="1" x1="452.507" y1="566.492" x2="240.125" y2="566.492"/>
				<g>
					<polygon fill="#005695" points="451.317,564.749 457.822,566.492 451.317,568.235 					"/>
				</g>
			</g>
		</g>
		<g>
			<g>
				
					<line fill="none" stroke="#005695" stroke-linecap="round" stroke-miterlimit="1" x1="457.822" y1="584.791" x2="245.44" y2="584.791"/>
				<g>
					<polygon fill="#005695" points="246.629,583.048 240.125,584.791 246.629,586.534 					"/>
				</g>
			</g>
		</g>
		<g>
			<g>
				
					<line fill="none" stroke="#005695" stroke-linecap="round" stroke-miterlimit="1" x1="526.323" y1="639.691" x2="240.125" y2="639.691"/>
				<g>
					<polygon fill="#005695" points="525.134,637.948 531.639,639.691 525.134,641.435 					"/>
				</g>
			</g>
		</g>
		<g>
			<g>
				
					<line fill="none" stroke="#005695" stroke-linecap="round" stroke-miterlimit="1" x1="457.822" y1="657.992" x2="245.44" y2="657.992"/>
				<g>
					<polygon fill="#005695" points="246.629,656.249 240.125,657.992 246.629,659.735 					"/>
				</g>
			</g>
		</g>
		<g>
			<g>
				
					<line fill="none" stroke="#005695" stroke-linecap="round" stroke-miterlimit="1" x1="457.822" y1="676.291" x2="245.44" y2="676.291"/>
				<g>
					<polygon fill="#005695" points="246.629,674.548 240.125,676.291 246.629,678.034 					"/>
				</g>
			</g>
		</g>
		<g>
			<g>
				
					<line fill="none" stroke="#005695" stroke-linecap="round" stroke-miterlimit="1" x1="457.822" y1="694.592" x2="245.44" y2="694.592"/>
				<g>
					<polygon fill="#005695" points="246.629,692.849 240.125,694.592 246.629,696.335 					"/>
				</g>
			</g>
		</g>
		<g>
			<g>
				<polyline fill="none" stroke="#005695" stroke-linecap="round" stroke-miterlimit="1" points="466.826,269.372 479.535,269.372 
					479.535,289.112 472.142,289.112 				"/>
				<g>
					<polygon fill="#005695" points="473.331,287.369 466.826,289.112 473.331,290.855 					"/>
				</g>
			</g>
		</g>
		<g>
			<g>
				<polyline fill="none" stroke="#005695" stroke-linecap="round" stroke-miterlimit="1" points="240.125,603.092 252.834,603.092 
					252.834,622.832 245.44,622.832 				"/>
				<g>
					<polygon fill="#005695" points="246.629,621.089 240.125,622.832 246.629,624.575 					"/>
				</g>
			</g>
		</g>
		<rect x="132.158" y="88.546" fill="none" width="464.734" height="615.254"/>
		<text transform="matrix(1.0017 0 0 1 132.1587 93.5562)"><tspan x="0" y="0" font-size="7" letter-spacing="112.813">	</tspan><tspan x="114.809" y="0" font-size="7">{ After Processing: partial output available }</tspan><tspan x="0" y="25.4" font-size="7" letter-spacing="112.813">	</tspan><tspan x="114.809" y="25.4" font-size="7">notifyOutputAvailable(firstOutputs, false)</tspan><tspan x="0" y="43.8" font-size="7" letter-spacing="112.813">	</tspan><tspan x="114.809" y="43.8" font-size="7">getAsModels(descriptorUUIDs, classUID, supportedInfoSetTypes)</tspan><tspan x="0" y="62.2" font-size="7" letter-spacing="112.813">	</tspan><tspan x="114.809" y="62.2" font-size="7">returnGetAsModels : ModelSetDescriptor</tspan><tspan x="0" y="80.6" font-size="7" letter-spacing="112.813">	</tspan><tspan x="114.809" y="80.6" font-size="7">queryModels(models, xpaths)</tspan><tspan x="0" y="99" font-size="7" letter-spacing="112.813">	</tspan><tspan x="114.809" y="99" font-size="7">returnQueryModel :ArrayOfQueryResults</tspan><tspan x="0" y="117.4" font-size="7" letter-spacing="112.813">	</tspan><tspan x="114.809" y="117.4" font-size="7">getData(descriptorUUIDs, acceptableTransferSyntaxUIDs, true)</tspan><tspan x="0" y="135.8" font-size="7" letter-spacing="112.813">	</tspan><tspan x="114.809" y="135.8" font-size="7">getOutputLocation(preferredProtocols)</tspan><tspan x="0" y="154.2" font-size="7" letter-spacing="112.813">	</tspan><tspan x="114.809" y="154.2" font-size="7">returnGetOutputLocation :outputURL</tspan><tspan x="229.212" y="154.2" font-size="7" letter-spacing="121.798">	</tspan><tspan x="0" y="172.6" font-size="7" letter-spacing="112.813">	</tspan><tspan x="114.809" y="172.6" font-size="7" letter-spacing="8.985">	</tspan><tspan x="125.791" y="172.6" font-size="7" letter-spacing="214.644">	</tspan><tspan x="342.432" y="172.6" font-size="7">copyOutputToURL</tspan><tspan x="0" y="192" font-size="7" letter-spacing="112.813">	</tspan><tspan x="114.809" y="192" font-size="7">returnGetData :outputURL</tspan><tspan x="0" y="210.4" font-size="7" letter-spacing="112.813">	</tspan><tspan x="114.809" y="210.4" font-size="7">storeDICOM</tspan><tspan x="0" y="228.8" font-size="7" letter-spacing="112.813">	</tspan><tspan x="114.809" y="228.8" font-size="7">releaseData(dataUUID)</tspan><tspan x="0" y="247.2" font-size="7" letter-spacing="112.813">	</tspan><tspan x="114.809" y="247.2" font-size="7">releaseModel(modelUUID)</tspan><tspan x="0" y="278.6" font-size="7" letter-spacing="112.813">	</tspan><tspan x="114.809" y="278.6" font-size="7">{ After Processing: all output available }</tspan><tspan x="0" y="304" font-size="7" letter-spacing="112.813">	</tspan><tspan x="114.809" y="304" font-size="7">notifyOutputAvailable(finalOutputs, true)</tspan><tspan x="0" y="340.401" font-size="7" letter-spacing="112.813">	</tspan><tspan x="114.809" y="340.401" font-size="7">[Processing 100% completed]</tspan><tspan x="0" y="358.799" font-size="7" letter-spacing="112.813">	</tspan><tspan x="114.809" y="358.799" font-size="7">notifyStateChanged(State.COMPLETED)</tspan><tspan x="0" y="396.2" font-size="7" letter-spacing="112.813">	</tspan><tspan x="114.809" y="396.2" font-size="7">getAsModels(outputUUIDs, modelClass, supportedInfosetTypes)</tspan><tspan x="0" y="414.6" font-size="7" letter-spacing="112.813">	</tspan><tspan x="114.809" y="414.6" font-size="7">returnGetAsModel :ModelSetDescription</tspan><tspan x="0" y="433" font-size="7" letter-spacing="112.813">	</tspan><tspan x="114.809" y="433" font-size="7">queryModel(models, xpaths)</tspan><tspan x="0" y="451.399" font-size="7" letter-spacing="112.813">	</tspan><tspan x="114.809" y="451.399" font-size="7">returnQueryModels :ArrayOfQueryResults</tspan><tspan x="0" y="469.799" font-size="7" letter-spacing="112.813">	</tspan><tspan x="114.809" y="469.799" font-size="7">getData(bulkDataUUIDs, acceptableTransferSyntaxUIDs, true)</tspan><tspan x="0" y="488.2" font-size="7" letter-spacing="112.813">	</tspan><tspan x="114.809" y="488.2" font-size="7">returnGetData :bulkDataObjectLocators</tspan><tspan x="0" y="506.6" font-size="7" letter-spacing="112.813">	</tspan><tspan x="114.809" y="506.6" font-size="7">serializeEachNativeModel</tspan><tspan x="0" y="543.399" font-size="7" letter-spacing="112.813">	</tspan><tspan x="114.809" y="543.399" fill="#ED1C24" font-size="7">storeDICOM</tspan><tspan x="0" y="561.799" font-size="7" letter-spacing="112.813">	</tspan><tspan x="114.809" y="561.799" font-size="7">setState(State.IDLE)</tspan><tspan x="0" y="580.2" font-size="7" letter-spacing="112.813">	</tspan><tspan x="114.809" y="580.2" font-size="7">returnSetState :boolean</tspan><tspan x="0" y="598.6" font-size="7" letter-spacing="112.813">	</tspan><tspan x="114.809" y="598.6" font-size="7">notifyStateChanged(State.IDLE)</tspan></text>
		<rect x="124.006" y="741.764" fill="none" width="453.988" height="24.9"/>
		<text transform="matrix(0.9288 0 0 1 124.0059 747.4863)"><tspan x="0" y="0" font-size="8">Notes:</tspan><tspan x="0" y="12.6" fill="#ED1C24" font-size="8">1.</tspan><tspan x="6.672" y="12.6" font-size="8" letter-spacing="9.69">	</tspan><tspan x="19.379" y="12.6" font-size="8">The Application does not release its hold on data until the Host sets the state to IDLE.</tspan></text>
		<g>
			<polygon fill="#B2CEE7" stroke="#000000" stroke-width="0.25" stroke-linecap="round" stroke-linejoin="round" points="
				114.73,31.512 114.598,31.841 114.547,32.654 114.62,33.395 114.949,34.69 114.974,34.764 115.208,35.173 115.338,35.273 
				115.385,35.296 115.458,35.3 115.536,35.297 115.612,35.276 115.665,35.25 115.69,35.222 115.792,35.091 115.916,34.63 
				115.865,33.294 115.714,32.554 115.431,31.765 115.407,31.716 115.183,31.44 115.13,31.432 114.953,31.387 114.773,31.485 			"/>
			<polygon fill="#B2CEE7" stroke="#000000" stroke-width="0.25" stroke-linecap="round" stroke-linejoin="round" points="
				115.921,30.649 115.692,30.314 115.335,30.11 114.926,30.07 114.542,30.222 114.261,30.525 114.136,30.925 114.191,31.331 
				114.213,31.382 114.444,31.717 114.8,31.921 115.21,31.949 115.594,31.81 115.889,31.506 116.016,31.106 115.949,30.699 			"/>
			<polygon fill="#B2CEE7" stroke="#000000" stroke-width="0.25" stroke-linecap="round" stroke-linejoin="round" points="
				107.512,31.379 107.67,31.617 107.774,32.331 107.792,32.505 107.767,33.215 107.509,34.458 107.266,34.887 107.211,34.985 
				107.104,35.063 107.033,35.112 106.953,35.138 106.86,35.138 106.8,35.112 106.705,35.062 106.648,34.986 106.493,34.611 
				106.449,33.41 106.448,33.213 106.551,32.501 106.802,31.736 106.882,31.613 107.063,31.364 107.157,31.313 107.261,31.287 
				107.367,31.287 107.461,31.314 			"/>
			<polygon fill="#B2CEE7" stroke="#000000" stroke-width="0.25" stroke-linecap="round" stroke-linejoin="round" points="
				108.021,31.567 108.227,31.252 108.271,30.853 108.123,30.471 107.823,30.171 107.437,30.033 107.032,30.059 106.697,30.246 
				106.597,30.374 106.392,30.703 106.35,31.103 106.499,31.483 106.799,31.77 107.183,31.921 107.588,31.896 107.924,31.711 			"/>
			<polygon fill="#B2CEE7" stroke="#000000" stroke-width="0.25" stroke-linecap="round" stroke-linejoin="round" points="
				108.803,29.152 108.528,29.426 108.427,29.551 107.867,32.118 107.896,33.369 108.178,34.285 108.454,34.66 108.552,34.781 
				108.686,34.858 109.44,35.124 110.535,35.29 111.755,35.276 112.844,35.12 113.562,34.841 113.709,34.764 113.809,34.655 
				114.044,34.279 114.343,33.363 114.389,32.099 113.836,29.534 113.737,29.409 113.449,29.148 113.351,29.079 112.642,28.877 
				111.651,28.772 110.562,28.773 109.589,28.893 108.889,29.095 			"/>
			<polyline fill="#B2CEE7" stroke="#000000" stroke-width="0.25" stroke-linecap="round" stroke-linejoin="round" points="
				115.36,29.689 115.36,29.703 115.308,29.857 115.407,30.248 115.407,30.249 115.639,30.699 115.892,31.133 116.177,31.435 
				116.347,31.466 116.527,31.414 119.062,30.348 121.756,28.77 122.116,28.493 122.289,28.292 122.318,28.137 122.264,27.957 
				122.115,27.632 121.91,27.245 121.683,26.862 121.484,26.56 121.356,26.407 121.205,26.354 120.949,26.385 120.52,26.555 
				117.749,27.988 115.507,29.576 115.36,29.689 115.407,30.248 115.407,30.249 			"/>
			<polygon fill="#B2CEE7" stroke="#000000" stroke-width="0.25" stroke-linecap="round" stroke-linejoin="round" points="
				112.944,29.506 112.13,30.063 111.831,30.186 111.395,30.245 110.895,30.245 110.458,30.188 110.152,30.065 109.345,29.509 
				109.163,29.253 108.661,28.286 108.657,27.195 109.141,26.205 109.345,25.979 110.148,25.392 110.453,25.293 110.888,25.241 
				111.375,25.241 111.826,25.292 112.135,25.391 112.918,25.976 113.147,26.202 113.627,27.192 113.607,28.282 113.102,29.25 			
				"/>
			<polygon fill="#B2CEE7" stroke="#000000" stroke-width="0.25" stroke-linecap="round" stroke-linejoin="round" points="
				100.273,28.616 100.633,28.876 103.327,30.4 105.862,31.416 106.042,31.466 106.198,31.433 106.493,31.126 106.544,31.052 
				106.626,30.902 106.731,30.704 106.847,30.502 106.925,30.34 106.959,30.236 107.057,29.835 107.053,29.79 106.986,29.634 
				106.85,29.509 104.568,27.963 101.779,26.586 101.363,26.435 101.095,26.407 100.957,26.462 100.813,26.583 100.612,26.86 
				100.399,27.226 100.197,27.631 100.051,27.983 100.002,28.208 100.045,28.361 100.205,28.547 			"/>
			<polygon fill="#B2CEE7" stroke="#000000" stroke-width="0.25" stroke-linecap="round" stroke-linejoin="round" points="
				99.26,26.08 99.688,25.897 100.17,25.922 100.609,26.155 100.918,26.557 101.044,27.038 100.961,27.499 100.679,27.856 
				100.526,28.002 100.097,28.183 99.616,28.156 99.179,27.912 98.856,27.524 98.728,27.043 98.808,26.581 99.089,26.208 			"/>
			<polygon fill="#B2CEE7" stroke="#000000" stroke-width="0.25" stroke-linecap="round" stroke-linejoin="round" points="
				122.414,25.796 122.906,25.875 123.312,26.16 123.554,26.611 123.557,26.74 123.561,27.223 123.353,27.652 123.258,27.751 
				123.103,27.859 122.903,27.977 122.703,28.056 122.546,28.088 122.465,28.082 121.961,28.004 121.555,27.708 121.325,27.271 
				121.305,26.762 121.321,26.66 121.526,26.23 121.609,26.132 121.778,26.025 121.912,25.946 121.964,25.92 122.165,25.827 
				122.319,25.793 			"/>
			<polygon fill="#B2CEE7" stroke="#000000" stroke-width="0.25" stroke-linecap="round" stroke-linejoin="round" points="
				99.568,25.724 99.649,25.595 101.704,23.412 103.102,21.959 103.305,21.808 104.617,20.955 104.971,20.875 105.201,20.901 
				105.453,20.98 105.783,21.226 106.119,21.564 106.403,21.961 106.596,22.316 106.628,22.571 106.625,22.802 106.498,23.137 
				105.502,24.324 105.309,24.499 103.704,25.693 101.292,27.446 101.145,27.505 101.008,27.497 100.732,27.45 100.379,27.244 
				100.024,26.911 99.74,26.512 99.57,26.149 99.568,25.874 			"/>
			<polygon fill="#B2CEE7" stroke="#000000" stroke-width="0.25" stroke-linecap="round" stroke-linejoin="round" points="
				122.776,25.767 122.692,25.542 122.597,25.412 120.537,23.237 119.137,21.791 117.801,20.954 117.44,20.875 117.21,20.871 
				117.003,20.896 116.701,21.055 116.351,21.357 116.025,21.737 115.792,22.12 115.688,22.443 115.69,22.652 115.742,22.875 
				115.886,23.228 116.888,24.405 118.509,25.577 120.941,27.303 121.076,27.375 121.324,27.426 121.454,27.404 121.781,27.275 
				122.14,26.996 122.469,26.617 122.698,26.229 122.775,25.898 			"/>
			<polygon fill="#B2CEE7" stroke="#000000" stroke-width="0.25" stroke-linecap="round" stroke-linejoin="round" points="
				108.912,26.131 108.504,25.491 108.348,24.482 107.839,21.208 108.125,18.996 108.677,18.358 108.934,18.212 109.799,17.849 
				110.225,17.778 110.817,17.747 111.481,17.747 112.089,17.777 112.521,17.848 113.38,18.21 113.661,18.356 114.211,18.993 
				114.477,21.205 113.958,24.479 113.786,25.475 113.376,26.127 113.179,26.331 112.59,26.513 112.159,26.636 111.522,26.708 
				110.808,26.708 110.155,26.637 109.717,26.515 109.132,26.333 			"/>
			<polygon fill="#B2CEE7" stroke="#000000" stroke-width="0.25" stroke-linecap="round" stroke-linejoin="round" points="
				105.917,19.65 105.411,20.091 105.171,20.726 105.223,21.43 105.557,22.044 106.117,22.472 106.783,22.62 107.44,22.45 
				107.947,22.015 108.099,21.867 108.355,21.249 108.322,20.545 107.976,19.928 107.416,19.499 106.748,19.351 106.09,19.525 			
				"/>
			<polygon fill="#B2CEE7" stroke="#000000" stroke-width="0.25" stroke-linecap="round" stroke-linejoin="round" points="
				116.607,19.729 117.036,20.31 117.164,21.02 116.98,21.714 116.502,22.271 115.843,22.572 115.131,22.55 114.5,22.22 
				114.085,21.654 113.958,20.946 114.139,20.241 114.601,19.684 115.259,19.381 115.973,19.4 115.999,19.405 			"/>
			<polygon fill="#B2CEE7" stroke="#000000" stroke-width="0.25" stroke-linecap="round" stroke-linejoin="round" points="
				111.879,18.151 112.445,17.694 112.772,17.02 112.775,16.281 112.467,15.615 111.902,15.141 111.825,15.108 111.175,14.981 
				110.533,15.109 110.46,15.154 109.894,15.616 109.571,16.282 109.572,17.033 109.896,17.695 110.46,18.151 110.535,18.202 
				110.736,18.234 111.169,18.309 111.625,18.234 111.81,18.201 			"/>
			<polygon fill="#B2CEE7" stroke="#000000" stroke-width="0.25" stroke-linecap="round" stroke-linejoin="round" points="
				109.263,15.637 108.912,15.341 108.657,14.834 108.48,14.045 107.897,10.413 108.151,9.087 109.117,7.692 110.026,7.14 
				111.201,6.934 112.388,7.14 113.282,7.692 114.244,9.086 114.493,10.412 113.886,14.044 113.707,14.833 113.45,15.34 
				113.097,15.623 112.925,15.717 112.411,15.791 111.63,15.824 110.764,15.824 109.98,15.792 109.445,15.718 			"/>
			<polygon fill="#B2CEE7" stroke="#000000" stroke-width="0.25" stroke-linecap="round" stroke-linejoin="round" points="
				107.266,58.834 107.688,58.722 108.914,56.662 109.205,55.896 109.2,55.488 109.208,55.226 109.041,54.951 108.727,54.72 
				108.347,54.577 107.972,54.548 107.666,54.646 107.391,54.898 107.196,55.126 106.849,55.884 106.214,58.167 106.435,58.522 
				106.58,58.63 106.828,58.751 107.083,58.82 			"/>
			<polygon fill="#B2CEE7" stroke="#000000" stroke-width="0.25" stroke-linecap="round" stroke-linejoin="round" points="
				108.552,53.547 108.381,53.547 108.23,53.581 108.066,53.65 107.869,53.782 107.721,54.032 107.636,54.242 107.638,54.567 
				107.71,54.791 107.865,55.028 108.042,55.176 108.301,55.254 108.377,55.277 108.549,55.277 108.688,55.229 108.878,55.176 
				109.062,55.029 109.211,54.792 109.293,54.568 109.292,54.256 109.216,54.033 109.065,53.783 108.886,53.651 108.702,53.582 			
				"/>
			<polygon fill="#B2CEE7" stroke="#000000" stroke-width="0.25" stroke-linecap="round" stroke-linejoin="round" points="
				108.332,54.388 107.977,54.266 107.744,54.059 107.668,53.803 107.535,53.267 107.461,52.155 107.184,49.335 107.203,46.286 
				107.312,45.833 107.442,45.552 107.592,45.445 107.871,45.249 108.255,45.146 108.684,45.146 109.065,45.25 109.183,45.327 
				109.49,45.554 109.593,45.835 109.721,46.288 109.819,49.337 109.618,52.157 109.571,53.269 109.445,53.804 109.347,54.061 
				109.093,54.267 108.734,54.389 108.707,54.389 108.376,54.389 			"/>
			<polygon fill="#B2CEE7" stroke="#000000" stroke-width="0.25" stroke-linecap="round" stroke-linejoin="round" points="
				108.735,44.206 108.985,44.289 109.213,44.46 109.399,44.771 109.5,45.04 109.5,45.446 109.394,45.705 109.212,46.014 
				108.963,46.188 108.736,46.266 108.551,46.318 108.332,46.317 108.15,46.266 107.898,46.187 107.67,46.012 107.468,45.704 
				107.386,45.432 107.382,45.025 107.507,44.769 107.686,44.459 107.922,44.288 108.148,44.205 108.346,44.154 108.552,44.154 			
				"/>
			<polygon fill="#B2CEE7" stroke="#000000" stroke-width="0.25" stroke-linecap="round" stroke-linejoin="round" points="
				109.566,44.988 109.692,44.764 109.725,44.634 109.718,44.388 110.225,40.039 110.541,36.814 110.327,36.412 110.178,36.207 
				109.778,36.03 109.445,35.884 109.093,35.824 108.708,35.802 108.354,35.833 108.001,35.95 107.594,36.082 107.437,36.279 
				107.178,36.645 107.183,39.892 107.26,44.281 107.229,44.513 107.256,44.658 107.359,44.888 107.417,44.939 107.723,45.122 
				108.18,45.243 108.705,45.268 109.166,45.192 109.492,45.024 			"/>
			<polygon fill="#B2CEE7" stroke="#000000" stroke-width="0.25" stroke-linecap="round" stroke-linejoin="round" points="
				114.786,58.809 114.357,58.667 113.23,56.548 112.962,55.759 112.98,55.359 113.01,55.106 113.203,54.844 113.534,54.641 
				113.922,54.516 114.299,54.531 114.592,54.641 114.852,54.914 115.028,55.169 115.348,55.93 115.871,58.235 115.637,58.566 
				115.485,58.662 115.229,58.762 114.969,58.81 			"/>
			<polygon fill="#B2CEE7" stroke="#000000" stroke-width="0.25" stroke-linecap="round" stroke-linejoin="round" points="
				113.535,53.527 113.707,53.526 113.858,53.572 114.018,53.628 114.218,53.76 114.364,54.009 114.466,54.231 114.451,54.543 
				114.395,54.768 114.24,55.018 114.065,55.153 113.808,55.232 113.714,55.255 113.556,55.256 113.404,55.222 113.229,55.169 
				113.042,55.022 112.896,54.774 112.795,54.563 112.798,54.238 112.87,54.027 113.023,53.777 113.199,53.631 113.399,53.574 			
				"/>
			<polygon fill="#B2CEE7" stroke="#000000" stroke-width="0.25" stroke-linecap="round" stroke-linejoin="round" points="
				113.785,54.367 114.137,54.256 114.366,54.036 114.498,53.531 114.573,53.244 114.652,52.132 114.956,49.312 114.977,46.263 
				114.857,45.811 114.721,45.53 114.573,45.423 114.29,45.228 113.889,45.125 113.461,45.127 113.096,45.244 112.975,45.322 
				112.687,45.55 112.589,45.831 112.459,46.285 112.334,49.334 112.497,52.153 112.538,53.252 112.648,53.799 112.75,54.055 
				113.021,54.261 113.382,54.368 113.407,54.369 113.737,54.368 			"/>
			<polygon fill="#B2CEE7" stroke="#000000" stroke-width="0.25" stroke-linecap="round" stroke-linejoin="round" points="
				113.855,46.31 113.636,46.311 113.451,46.26 113.227,46.183 112.976,46.008 112.797,45.701 112.671,45.429 112.688,45.023 
				112.769,44.766 112.97,44.456 113.195,44.283 113.45,44.187 113.63,44.135 113.837,44.135 114.037,44.185 114.244,44.28 
				114.498,44.438 114.672,44.76 114.803,45.016 114.797,45.422 114.721,45.681 114.516,45.991 114.293,46.166 114.037,46.258 			
				"/>
			<polygon fill="#B2CEE7" stroke="#000000" stroke-width="0.25" stroke-linecap="round" stroke-linejoin="round" points="
				114.847,44.865 114.929,44.635 114.958,44.491 114.926,44.259 115.026,39.871 115.051,36.637 114.781,36.259 114.602,36.062 
				114.187,35.931 113.841,35.827 113.485,35.797 113.101,35.807 112.764,35.88 112.412,36.028 112.031,36.206 111.904,36.41 
				111.676,36.813 111.985,40.037 112.469,44.384 112.461,44.618 112.495,44.761 112.64,44.972 112.714,45.021 113.045,45.174 
				113.51,45.249 114.034,45.223 114.474,45.1 114.775,44.917 			"/>
			<polygon fill="#B2CEE7" stroke="#000000" stroke-width="0.25" stroke-linecap="round" stroke-linejoin="round" points="
				109.446,36.769 109.946,36.466 110.055,36.311 110.38,35.752 110.411,35.116 110.153,34.528 110.032,34.361 109.589,34.006 
				109.398,33.943 109.141,33.893 108.857,33.874 108.585,33.898 108.404,33.952 107.919,34.259 107.791,34.408 107.467,34.969 
				107.441,35.619 107.712,36.204 107.815,36.365 108.274,36.715 108.451,36.794 108.708,36.847 109.006,36.866 109.265,36.839 			
				"/>
			<polygon fill="#B2CEE7" stroke="#000000" stroke-width="0.25" stroke-linecap="round" stroke-linejoin="round" points="
				112.817,33.927 113.073,33.877 113.357,33.869 113.63,33.893 113.815,33.947 114.294,34.253 114.443,34.402 114.752,34.962 
				114.778,35.599 114.517,36.185 114.422,36.358 113.959,36.697 113.786,36.789 113.531,36.842 113.232,36.85 112.971,36.823 
				112.775,36.765 112.292,36.464 112.163,36.309 111.851,35.751 111.81,35.115 112.082,34.514 112.183,34.359 112.642,34.003 			
				"/>
		</g>
	</g>
</g>
</svg>
