<?xml version="1.0" encoding="utf-8"?>

<!DOCTYPE svg PUBLIC "-//W3C//DTD SVG 1.1//EN" "http://www.w3.org/Graphics/SVG/1.1/DTD/svg11.dtd">
<svg version="1.1" id="Layer_1" xmlns="http://www.w3.org/2000/svg" xmlns:xlink="http://www.w3.org/1999/xlink" x="0px" y="0px"
	 width="502px" height="427px" viewBox="0 0 502 427" enable-background="new 0 0 502 427" xml:space="preserve">

<defs>
	<style type="text/css">
	text {
	  font-family: Helvetica, Verdana, ArialUnicodeMS, san-serif
	}
	</style>
</defs>

<g>
   <desc>
	PS3.5 Part 5: Data Structures and Encoding
   </desc>
</g>

<g>
	<rect x="1" y="1" fill="#F5EED6" width="500" height="425"/>
	<g>
		<g>
			<g>
				<text transform="matrix(0.8815 0 0 1 313.0098 25.2588)"><tspan x="0" y="0" font-size="11">Concatenated Pixel Cells</tspan><tspan x="0" y="13.2" font-size="11">After Splitting Into 16 bit Words</tspan><tspan x="0" y="26.4" font-size="11">for Transfer</tspan></text>
			</g>
			<g>
				<rect x="295.375" y="156.969" fill="#86B2D8" stroke="#000000" width="84.896" height="36"/>
				<rect x="380.271" y="156.969" fill="#B2CEE7" stroke="#000000" width="83.178" height="36"/>
				<rect x="421.478" y="246.969" fill="#86B2D8" stroke="#000000" width="42.822" height="36"/>
				<rect x="295.375" y="66.969" fill="#B2CEE7" stroke="#000000" width="42.822" height="36"/>
				<g>
					<text transform="matrix(0.8815 0 0 1 401.5049 170.3203)" font-size="11">Pixel Cell i</text>
				</g>
				<g>
					<text transform="matrix(0.8815 0 0 1 312.1709 170.3203)" font-size="11">Pixel Cell i+1</text>
				</g>
				<g>
					<text transform="matrix(0.8815 0 0 1 424.3242 279.9873)" font-size="11">MSb</text>
				</g>
				<g>
					<text transform="matrix(0.8815 0 0 1 383.3242 189.3203)" font-size="11">MSb</text>
				</g>
				<g>
					<text transform="matrix(0.8815 0 0 1 315.459 99.3203)" font-size="11">LSb</text>
				</g>
				<g>
					<text transform="matrix(0.8815 0 0 1 360.125 189.3203)" font-size="11">LSb</text>
				</g>
				<rect x="295.394" y="246.969" fill="#6799C8" stroke="#000000" width="126" height="36"/>
				<g>
					<text transform="matrix(0.8815 0 0 1 331.4512 260.3203)" font-size="11">Pixel Cell i+2</text>
				</g>
				<g>
					<text transform="matrix(0.8815 0 0 1 299.9375 279.3203)" font-size="11">MSb</text>
				</g>
				<g>
					<text transform="matrix(0.8815 0 0 1 397.7383 279.3203)" font-size="11">LSb</text>
				</g>
				<rect x="337.448" y="66.969" fill="#CCDEF0" stroke="#000000" width="126" height="36"/>
				<g>
					<text transform="matrix(0.8815 0 0 1 373.5049 80.3203)" font-size="11">Pixel Cell i-1</text>
				</g>
				<g>
					<text transform="matrix(0.8815 0 0 1 341.9922 99.3203)" font-size="11">MSb</text>
				</g>
				<g>
					<text transform="matrix(0.8815 0 0 1 439.791 99.3203)" font-size="11">LSb</text>
				</g>
				<g>
					<text transform="matrix(0.8815 0 0 1 295.3945 293.9619)" font-size="11">15</text>
				</g>
				<g>
					<text transform="matrix(0.8815 0 0 1 458.9062 293.9619)" font-size="11">1</text>
				</g>
				<g>
					<text transform="matrix(0.8815 0 0 1 295.3945 203.3018)" font-size="11">15</text>
				</g>
				<g>
					<text transform="matrix(0.8815 0 0 1 458.9062 203.3018)" font-size="11">1</text>
				</g>
				<g>
					<text transform="matrix(0.8815 0 0 1 295.3945 113.7222)" font-size="11">15</text>
				</g>
				<g>
					<text transform="matrix(0.8815 0 0 1 458.9062 113.7222)" font-size="11">1</text>
				</g>
			</g>
		</g>
		<g>
			<g>
				<text transform="matrix(0.8815 0 0 1 69.0308 25.2588)" font-size="11">Concatenated Pixel Cells</text>
			</g>
			<g>
				<g>
					<rect x="60.201" y="66.969" fill="#CCDEF0" stroke="#000000" width="126.004" height="36"/>
					<g>
						<text transform="matrix(0.8815 0 0 1 96.2583 80.3203)" font-size="11">Pixel Cell i-1</text>
					</g>
					<g>
						<text transform="matrix(0.8815 0 0 1 64.7451 99.3203)" font-size="11">MSb</text>
					</g>
					<g>
						<text transform="matrix(0.8815 0 0 1 162.5454 99.3203)" font-size="11">LSb</text>
					</g>
				</g>
				<g>
					<rect x="60.201" y="156.969" fill="#B2CEE7" stroke="#000000" width="126.004" height="36"/>
					<g>
						<text transform="matrix(0.8815 0 0 1 96.2583 170.3203)" font-size="11">Pixel Cell i</text>
					</g>
					<g>
						<text transform="matrix(0.8815 0 0 1 64.7451 189.3203)" font-size="11">MSb</text>
					</g>
					<g>
						<text transform="matrix(0.8815 0 0 1 162.5454 189.3203)" font-size="11">LSb</text>
					</g>
				</g>
				<g>
					<rect x="60.201" y="246.969" fill="#86B2D8" stroke="#000000" width="126.004" height="36"/>
					<g>
						<text transform="matrix(0.8815 0 0 1 96.2583 260.3203)" font-size="11">Pixel Cell i+1</text>
					</g>
					<g>
						<text transform="matrix(0.8815 0 0 1 64.7451 279.3203)" font-size="11">MSb</text>
					</g>
					<g>
						<text transform="matrix(0.8815 0 0 1 162.5454 279.3203)" font-size="11">LSb</text>
					</g>
				</g>
				<g>
					<rect x="60.201" y="336.969" fill="#6799C8" stroke="#000000" width="126.004" height="36"/>
					<g>
						<text transform="matrix(0.8815 0 0 1 96.2583 350.3203)" font-size="11">Pixel Cell i+2</text>
					</g>
					<g>
						<text transform="matrix(0.8815 0 0 1 64.7451 369.3203)" font-size="11">MSb</text>
					</g>
					<g>
						<text transform="matrix(0.8815 0 0 1 162.5454 369.3203)" font-size="11">LSb</text>
					</g>
				</g>
				<g>
					<g>
						<path fill="none" stroke="#000000" d="M165.318,44.361c25.909,5.412,43.389,15.665,43.389,27.421
							c0,6.316-5.046,12.198-13.733,17.129"/>
						<path d="M195.506,88.609l2.211,1.231l-0.04,0.078l-3.757,0.522c-1.202,0.372-2.403,0.743-3.605,1.114
							c0.936-0.842,1.87-1.683,2.805-2.524l2.374-2.957l0.083-0.005L195.506,88.609z"/>
					</g>
				</g>
				<g>
					<g>
						<path fill="none" stroke="#000000" d="M60.2,77.707c-13.971,5.607-22.499,13.085-22.499,21.297
							c0,17.397,38.279,31.502,85.5,31.502v-0.008c47.222,0,85.506,14.104,85.506,31.502c0,6.316-5.046,12.198-13.733,17.129"/>
						<path d="M195.506,178.827l2.211,1.231l-0.04,0.078l-3.757,0.522c-1.202,0.372-2.403,0.743-3.605,1.114
							c0.936-0.842,1.87-1.683,2.805-2.524l2.374-2.957l0.083-0.005L195.506,178.827z"/>
					</g>
				</g>
				<g>
					<g>
						<path fill="none" stroke="#000000" d="M60.2,167.925c-13.971,5.607-22.499,13.085-22.499,21.297
							c0,17.397,38.279,31.502,85.5,31.502v-0.008c47.222,0,85.506,14.104,85.506,31.502c0,6.316-5.046,12.198-13.733,17.129"/>
						<path d="M195.506,269.045l2.211,1.231l-0.04,0.078l-3.757,0.522c-1.202,0.372-2.403,0.743-3.605,1.114
							c0.936-0.842,1.87-1.683,2.805-2.524l2.374-2.957l0.083-0.005L195.506,269.045z"/>
					</g>
				</g>
				<g>
					<g>
						<path fill="none" stroke="#000000" d="M60.2,258.143c-13.971,5.607-22.499,13.085-22.499,21.297
							c0,17.397,38.279,31.502,85.5,31.502v-0.008c47.222,0,85.506,14.104,85.506,31.502c0,6.316-5.046,12.198-13.733,17.129"/>
						<path d="M195.506,359.263l2.211,1.231l-0.04,0.078l-3.757,0.522c-1.202,0.372-2.403,0.743-3.605,1.114
							c0.936-0.842,1.87-1.683,2.805-2.524l2.374-2.957l0.083-0.005L195.506,359.263z"/>
					</g>
				</g>
				<g>
					<g>
						<g>
							<path fill="none" stroke="#000000" d="M60.2,348.36c-13.971,5.607-22.499,13.085-22.499,21.297
								c0,12.244,18.959,22.856,46.651,28.07"/>
							<path d="M83.751,397.614l-0.892-2.367l0.081-0.035l3.205,2.028c1.157,0.493,2.314,0.985,3.472,1.479
								c-1.258,0.038-2.515,0.076-3.771,0.115l-3.724,0.724l-0.065-0.05L83.751,397.614z"/>
						</g>
					</g>
				</g>
			</g>
		</g>
		<g>
			
				<polygon fill="#FFFFFF" stroke="#4F8ABE" stroke-width="3" stroke-linecap="round" stroke-linejoin="round" stroke-miterlimit="1" points="
				220.541,221.989 220.541,191.536 250.615,191.536 250.615,167.032 283.541,207.523 250.615,248.032 250.615,221.989 			"/>
		</g>
		<g>
			<g>
				<text transform="matrix(0.8815 0 0 1 348.1445 394.668)"><tspan x="0" y="0" font-size="11">MSb = Most Significant Bit</tspan><tspan x="0" y="13.199" font-size="11">LSb = Least Significant Bit</tspan></text>
			</g>
		</g>
	</g>
</g>
</svg>
