<?xml version="1.0" encoding="utf-8"?>

<!DOCTYPE svg PUBLIC "-//W3C//DTD SVG 1.1//EN" "http://www.w3.org/Graphics/SVG/1.1/DTD/svg11.dtd">
<svg version="1.1" id="Layer_1" xmlns="http://www.w3.org/2000/svg" xmlns:xlink="http://www.w3.org/1999/xlink" x="0px" y="0px"
	 width="502px" height="242px" viewBox="0 0 502 242" enable-background="new 0 0 502 242" xml:space="preserve">

<defs>
	<style type="text/css">
	text {
	  font-family: Helvetica, Verdana, ArialUnicodeMS, san-serif
	}
	</style>
</defs>

<g>
   <desc>
	PS3.5 Part 5: Data Structures and Encoding
   </desc>
</g>

<g>
	<rect x="1" y="1" fill="#F5EED6" width="500" height="240"/>
	<g>
		<rect x="72.268" y="31.957" fill="#CCDEF0" stroke="#010101" stroke-miterlimit="1" width="358" height="194"/>
		<g>
			<rect x="119.719" y="152.324" fill="#FFFFFF" width="104.781" height="13.03"/>
			<rect x="119.527" y="139.799" fill="#939598" width="104.973" height="13.03"/>
			<rect x="119.527" y="165.858" fill="#FFFFFF" width="104.973" height="13.031"/>
			<rect x="119.719" y="86.769" fill="#E6E7E8" width="104.975" height="13.03"/>
			<rect x="119.719" y="73.739" fill="#FFFFFF" width="104.781" height="13.03"/>
			<rect x="119.719" y="112.829" fill="#BCBEC0" width="104.975" height="13.029"/>
			<rect x="119.719" y="99.799" fill="#D1D3D4" width="104.781" height="13.03"/>
			<rect x="119.719" y="125.858" fill="#A7A9AC" width="104.781" height="13.031"/>
			<g>
				<text transform="matrix(0.8815 0 0 1 160.1826 84.4385)" font-size="10">Pixel 1</text>
			</g>
			<g>
				<text transform="matrix(0.8815 0 0 1 124.0767 84.4385)" font-size="10">MSb</text>
			</g>
			<g>
				<text transform="matrix(0.8815 0 0 1 204.6558 84.4385)" font-size="10">LSb</text>
			</g>
			<g>
				<text transform="matrix(0.8815 0 0 1 160.1826 97.3496)" font-size="10">Pixel 2</text>
			</g>
			<g>
				<text transform="matrix(0.8815 0 0 1 124.0767 97.3496)" font-size="10">MSb</text>
			</g>
			<g>
				<text transform="matrix(0.8815 0 0 1 204.6558 97.3496)" font-size="10">LSb</text>
			</g>
			<g>
				<text transform="matrix(0.8815 0 0 1 160.1826 110.4312)" font-size="10">Pixel 3</text>
			</g>
			<g>
				<text transform="matrix(0.8815 0 0 1 124.0767 110.4312)" font-size="10">MSb</text>
			</g>
			<g>
				<text transform="matrix(0.8815 0 0 1 204.6558 110.4312)" font-size="10">LSb</text>
			</g>
			<g>
				<text transform="matrix(0.8815 0 0 1 160.1826 123.2197)" font-size="10">Pixel 4</text>
			</g>
			<g>
				<text transform="matrix(0.8815 0 0 1 124.0767 123.2197)" font-size="10">MSb</text>
			</g>
			<g>
				<text transform="matrix(0.8815 0 0 1 204.6558 123.2197)" font-size="10">LSb</text>
			</g>
			<g>
				<text transform="matrix(0.8815 0 0 1 160.1826 136.4912)" font-size="10">Pixel 5</text>
			</g>
			<g>
				<text transform="matrix(0.8815 0 0 1 124.0767 136.4912)" font-size="10">MSb</text>
			</g>
			<g>
				<text transform="matrix(0.8815 0 0 1 204.6558 136.4912)" font-size="10">LSb</text>
			</g>
			<g>
				<text transform="matrix(0.8815 0 0 1 160.1826 149.7646)" font-size="10">Pixel 6</text>
			</g>
			<g>
				<text transform="matrix(0.8815 0 0 1 124.0767 149.7646)" font-size="10">MSb</text>
			</g>
			<g>
				<text transform="matrix(0.8815 0 0 1 204.6558 149.7646)" font-size="10">LSb</text>
			</g>
			<g>
				<text transform="matrix(0.8815 0 0 1 171.4458 161.8066)" font-size="10">...</text>
			</g>
			<g>
				<text transform="matrix(0.8815 0 0 1 171.4458 175.0771)" font-size="10">...</text>
			</g>
			<g>
				<text transform="matrix(0.8815 0 0 1 91.6055 84.1865)" fill="#ED1C24" font-size="9">byte 0</text>
			</g>
			<g>
				<text transform="matrix(0.8815 0 0 1 91.6055 110.729)" fill="#ED1C24" font-size="9">byte 2</text>
			</g>
			<g>
				<text transform="matrix(0.8815 0 0 1 90.9727 97.0977)" fill="#ED1C24" font-size="9">byte 1</text>
			</g>
			<g>
				<text transform="matrix(0.8815 0 0 1 91.6055 136.7891)" fill="#ED1C24" font-size="9">byte 4</text>
			</g>
			<g>
				<text transform="matrix(0.8815 0 0 1 90.9727 123.5176)" fill="#ED1C24" font-size="9">byte 3</text>
			</g>
			<g>
				<text transform="matrix(0.8815 0 0 1 90.9727 150.0625)" fill="#ED1C24" font-size="9">byte 5</text>
			</g>
			<rect x="119.719" y="73.739" fill="none" stroke="#010101" stroke-miterlimit="1" width="104.781" height="104.782"/>
			<line fill="none" stroke="#010101" stroke-miterlimit="1" x1="119.719" y1="165.423" x2="224.5" y2="165.423"/>
			<line fill="none" stroke="#010101" stroke-miterlimit="1" x1="119.719" y1="152.325" x2="224.5" y2="152.325"/>
			<line fill="none" stroke="#010101" stroke-miterlimit="1" x1="119.719" y1="139.228" x2="224.5" y2="139.228"/>
			<line fill="none" stroke="#010101" stroke-miterlimit="1" x1="119.719" y1="126.13" x2="224.5" y2="126.13"/>
			<line fill="none" stroke="#010101" stroke-miterlimit="1" x1="119.719" y1="113.032" x2="224.5" y2="113.032"/>
			<line fill="none" stroke="#010101" stroke-miterlimit="1" x1="119.719" y1="99.934" x2="224.5" y2="99.934"/>
			<line fill="none" stroke="#010101" stroke-miterlimit="1" x1="119.719" y1="86.836" x2="224.5" y2="86.836"/>
		</g>
		<g>
			<rect x="306.719" y="152.324" fill="#FFFFFF" width="104.781" height="13.03"/>
			<rect x="306.527" y="139.799" fill="#939598" width="104.973" height="13.03"/>
			<rect x="306.527" y="165.858" fill="#FFFFFF" width="104.973" height="13.031"/>
			<rect x="306.719" y="86.769" fill="#E6E7E8" width="104.975" height="13.03"/>
			<rect x="306.719" y="73.739" fill="#FFFFFF" width="104.781" height="13.03"/>
			<rect x="306.719" y="112.829" fill="#BCBEC0" width="104.975" height="13.029"/>
			<rect x="306.719" y="99.799" fill="#D1D3D4" width="104.781" height="13.03"/>
			<rect x="306.719" y="125.858" fill="#A7A9AC" width="104.781" height="13.031"/>
			<g>
				<text transform="matrix(0.8815 0 0 1 347.1826 84.4385)" font-size="10">Pixel 1</text>
			</g>
			<g>
				<text transform="matrix(0.8815 0 0 1 311.0762 84.4385)" font-size="10">MSb</text>
			</g>
			<g>
				<text transform="matrix(0.8815 0 0 1 391.6562 84.4385)" font-size="10">LSb</text>
			</g>
			<g>
				<text transform="matrix(0.8815 0 0 1 347.1826 97.3496)" font-size="10">Pixel 2</text>
			</g>
			<g>
				<text transform="matrix(0.8815 0 0 1 311.0762 97.3496)" font-size="10">MSb</text>
			</g>
			<g>
				<text transform="matrix(0.8815 0 0 1 391.6562 97.3496)" font-size="10">LSb</text>
			</g>
			<g>
				<text transform="matrix(0.8815 0 0 1 347.1826 110.4312)" font-size="10">Pixel 3</text>
			</g>
			<g>
				<text transform="matrix(0.8815 0 0 1 311.0762 110.4312)" font-size="10">MSb</text>
			</g>
			<g>
				<text transform="matrix(0.8815 0 0 1 391.6562 110.4312)" font-size="10">LSb</text>
			</g>
			<g>
				<text transform="matrix(0.8815 0 0 1 347.1826 123.2197)" font-size="10">Pixel 4</text>
			</g>
			<g>
				<text transform="matrix(0.8815 0 0 1 311.0762 123.2197)" font-size="10">MSb</text>
			</g>
			<g>
				<text transform="matrix(0.8815 0 0 1 391.6562 123.2197)" font-size="10">LSb</text>
			</g>
			<g>
				<text transform="matrix(0.8815 0 0 1 347.1826 136.4912)" font-size="10">Pixel 5</text>
			</g>
			<g>
				<text transform="matrix(0.8815 0 0 1 311.0762 136.4912)" font-size="10">MSb</text>
			</g>
			<g>
				<text transform="matrix(0.8815 0 0 1 391.6562 136.4912)" font-size="10">LSb</text>
			</g>
			<g>
				<text transform="matrix(0.8815 0 0 1 347.1826 149.7646)" font-size="10">Pixel 6</text>
			</g>
			<g>
				<text transform="matrix(0.8815 0 0 1 311.0762 149.7646)" font-size="10">MSb</text>
			</g>
			<g>
				<text transform="matrix(0.8815 0 0 1 391.6562 149.7646)" font-size="10">LSb</text>
			</g>
			<g>
				<text transform="matrix(0.8815 0 0 1 358.4453 161.8066)" font-size="10">...</text>
			</g>
			<g>
				<text transform="matrix(0.8815 0 0 1 358.4453 175.0771)" font-size="10">...</text>
			</g>
			<g>
				<text transform="matrix(0.8815 0 0 1 278.6055 84.1865)" fill="#ED1C24" font-size="9">byte 0</text>
			</g>
			<g>
				<text transform="matrix(0.8815 0 0 1 278.6055 110.729)" fill="#ED1C24" font-size="9">byte 2</text>
			</g>
			<g>
				<text transform="matrix(0.8815 0 0 1 277.9727 97.0977)" fill="#ED1C24" font-size="9">byte 1</text>
			</g>
			<g>
				<text transform="matrix(0.8815 0 0 1 278.6055 136.7891)" fill="#ED1C24" font-size="9">byte 4</text>
			</g>
			<g>
				<text transform="matrix(0.8815 0 0 1 277.9727 123.5176)" fill="#ED1C24" font-size="9">byte 3</text>
			</g>
			<g>
				<text transform="matrix(0.8815 0 0 1 277.9727 150.0625)" fill="#ED1C24" font-size="9">byte 5</text>
			</g>
			<rect x="306.719" y="73.739" fill="none" stroke="#010101" stroke-miterlimit="1" width="104.781" height="104.782"/>
			<line fill="none" stroke="#010101" stroke-miterlimit="1" x1="306.719" y1="165.423" x2="411.5" y2="165.423"/>
			<line fill="none" stroke="#010101" stroke-miterlimit="1" x1="306.719" y1="152.325" x2="411.5" y2="152.325"/>
			<line fill="none" stroke="#010101" stroke-miterlimit="1" x1="306.719" y1="139.228" x2="411.5" y2="139.228"/>
			<line fill="none" stroke="#010101" stroke-miterlimit="1" x1="306.719" y1="126.13" x2="411.5" y2="126.13"/>
			<line fill="none" stroke="#010101" stroke-miterlimit="1" x1="306.719" y1="113.032" x2="411.5" y2="113.032"/>
			<line fill="none" stroke="#010101" stroke-miterlimit="1" x1="306.719" y1="99.934" x2="411.5" y2="99.934"/>
			<line fill="none" stroke="#010101" stroke-miterlimit="1" x1="306.719" y1="86.836" x2="411.5" y2="86.836"/>
		</g>
		<g>
			<text transform="matrix(0.8815 0 0 1 199.9639 202.9824)"><tspan x="0" y="0" font-size="10">MSb = Most Significant Bit</tspan><tspan x="0" y="12" font-size="10">LSb = Least Significant Bit</tspan></text>
		</g>
		<g>
			<text transform="matrix(0.8815 0 0 1 71.7329 24.9082)" font-size="10">8 Bit Pixel Data Byte Stream (8 bits allocated, high bit of 7)</text>
		</g>
		<g>
			<text transform="matrix(0.8815 0 0 1 302.5156 48.1929)" font-size="10">Little Endian Transfer Syntax</text>
		</g>
		<g>
			<text transform="matrix(0.8815 0 0 1 389.5977 69.3716)" font-size="10">1</text>
		</g>
		<g>
			<text transform="matrix(0.8815 0 0 1 402.627 69.3716)" font-size="10">0</text>
		</g>
		<g>
			<text transform="matrix(0.8815 0 0 1 376.957 69.3716)" font-size="10">2</text>
		</g>
		<g>
			<text transform="matrix(0.8815 0 0 1 363.7539 69.3716)" font-size="10">3</text>
		</g>
		<g>
			<text transform="matrix(0.8815 0 0 1 350.5469 69.3716)" font-size="10">4</text>
		</g>
		<g>
			<text transform="matrix(0.8815 0 0 1 337.3457 69.3716)" font-size="10">5</text>
		</g>
		<g>
			<text transform="matrix(0.8815 0 0 1 310.877 69.3716)" font-size="10">7</text>
		</g>
		<g>
			<text transform="matrix(0.8815 0 0 1 323.998 69.3716)" font-size="10">6</text>
		</g>
		<g>
			<text transform="matrix(0.8815 0 0 1 114.1304 48.1929)" font-size="10">Big Endian Transfer Syntax</text>
		</g>
		<g>
			<text transform="matrix(0.8815 0 0 1 202.5972 69.3716)" font-size="10">1</text>
		</g>
		<g>
			<text transform="matrix(0.8815 0 0 1 215.6274 69.3716)" font-size="10">0</text>
		</g>
		<g>
			<text transform="matrix(0.8815 0 0 1 189.9575 69.3716)" font-size="10">2</text>
		</g>
		<g>
			<text transform="matrix(0.8815 0 0 1 176.7534 69.3716)" font-size="10">3</text>
		</g>
		<g>
			<text transform="matrix(0.8815 0 0 1 163.5474 69.3716)" font-size="10">4</text>
		</g>
		<g>
			<text transform="matrix(0.8815 0 0 1 150.3452 69.3716)" font-size="10">5</text>
		</g>
		<g>
			<text transform="matrix(0.8815 0 0 1 123.8774 69.3716)" font-size="10">7</text>
		</g>
		<g>
			<text transform="matrix(0.8815 0 0 1 136.9976 69.3716)" font-size="10">6</text>
		</g>
	</g>
</g>
</svg>
