<?xml version="1.0" encoding="utf-8"?>

<!DOCTYPE svg PUBLIC "-//W3C//DTD SVG 1.1//EN" "http://www.w3.org/Graphics/SVG/1.1/DTD/svg11.dtd">
<svg version="1.1" id="Layer_1" xmlns="http://www.w3.org/2000/svg" xmlns:xlink="http://www.w3.org/1999/xlink" x="0px" y="0px"
	 width="502px" height="302px" viewBox="0 0 502 302" enable-background="new 0 0 502 302" xml:space="preserve">

<defs>
	<style type="text/css">
	text {
	  font-family: Helvetica, Verdana, ArialUnicodeMS, san-serif
	}
	</style>
</defs>

<g>
   <desc>
	PS3.5 Part 5: Data Structures and Encoding
   </desc>
</g>

<g>
	<rect x="1" y="1" fill="#F5EED6" width="500" height="300"/>
</g>
<g>
	<g>
		
			<rect x="125" y="33.504" fill="#CCDEF0" stroke="#010101" stroke-width="0.75" stroke-linecap="round" stroke-linejoin="round" stroke-miterlimit="1" width="252.001" height="252"/>
	</g>
	<g>
		<g>
			<text transform="matrix(0.8815 0 0 1 125.0005 27.1343)" font-size="12">Image Plane</text>
		</g>
	</g>
	<g>
		<g>
			<text transform="matrix(1.1496 0 0 1 162.833 150.6934)" font-size="8">Pixel i-1</text>
		</g>
	</g>
	<g>
		<g>
			<text transform="matrix(1.1496 0 0 1 180.5884 136.4263)" font-size="8">Pixel i</text>
		</g>
	</g>
	<g>
		<g>
			<text transform="matrix(1.1496 0 0 1 270.6943 222.6094)" font-size="8">Pixel i+1</text>
		</g>
	</g>
	<g>
		<g>
			<text transform="matrix(1.1496 0 0 1 284.1943 209.1094)" font-size="8">Pixel i+2</text>
		</g>
	</g>
	<g>
		<rect x="125" y="33.504" fill="none" stroke="#939598" stroke-miterlimit="1" width="252.001" height="252"/>
		<line fill="none" stroke="#939598" stroke-miterlimit="1" x1="125" y1="274.061" x2="377.001" y2="274.061"/>
		<line fill="none" stroke="#939598" stroke-miterlimit="1" x1="212.106" y1="182.391" x2="266.356" y2="182.391"/>
		<line fill="none" stroke="#939598" stroke-miterlimit="1" x1="212.106" y1="170.947" x2="266.356" y2="170.947"/>
		<line fill="none" stroke="#939598" stroke-miterlimit="1" x1="125" y1="56.391" x2="377.001" y2="56.391"/>
		<line fill="none" stroke="#939598" stroke-miterlimit="1" x1="125" y1="44.947" x2="377.001" y2="44.947"/>
		<line fill="none" stroke="#939598" stroke-miterlimit="1" x1="365.558" y1="33.504" x2="365.558" y2="285.504"/>
		<line fill="none" stroke="#939598" stroke-miterlimit="1" x1="354.114" y1="33.504" x2="354.114" y2="285.504"/>
		<line fill="none" stroke="#939598" stroke-miterlimit="1" x1="262.444" y1="166.914" x2="262.444" y2="186.414"/>
		<line fill="none" stroke="#939598" stroke-miterlimit="1" x1="251.001" y1="166.914" x2="251.001" y2="186.414"/>
		<line fill="none" stroke="#939598" stroke-miterlimit="1" x1="239.558" y1="166.914" x2="239.558" y2="186.414"/>
		<line fill="none" stroke="#939598" stroke-miterlimit="1" x1="228.114" y1="166.914" x2="228.114" y2="186.414"/>
		<line fill="none" stroke="#939598" stroke-miterlimit="1" x1="216.608" y1="166.914" x2="216.608" y2="186.414"/>
		<line fill="none" stroke="#939598" stroke-miterlimit="1" x1="147.887" y1="33.504" x2="147.887" y2="285.504"/>
		<line fill="none" stroke="#939598" stroke-miterlimit="1" x1="136.443" y1="33.504" x2="136.443" y2="285.504"/>
	</g>
	<rect x="228.113" y="170.947" fill="#6799C8" stroke="#000000" stroke-miterlimit="1" width="11.505" height="11.443"/>
	<rect x="216.608" y="170.947" fill="#86B2D8" stroke="#000000" stroke-miterlimit="1" width="11.505" height="11.443"/>
	<rect x="239.618" y="170.947" fill="#4F8ABE" stroke="#000000" stroke-miterlimit="1" width="11.505" height="11.443"/>
	<rect x="251.123" y="170.947" fill="#005695" stroke="#000000" stroke-miterlimit="1" width="11.505" height="11.443"/>
	<polyline fill="none" stroke="#010101" stroke-miterlimit="1" points="281.548,206.278 269.915,206.278 257.075,176.837 	"/>
	<polyline fill="none" stroke="#010101" stroke-miterlimit="1" points="269.455,219.877 257.822,219.877 244.982,177.291 	"/>
	<polyline fill="none" stroke="#010101" stroke-miterlimit="1" points="197.582,148.211 209.215,148.211 222.055,177.652 	"/>
	<polyline fill="none" stroke="#010101" stroke-miterlimit="1" points="209.675,134.612 221.308,134.612 234.147,177.198 	"/>
	<g>
		<line fill="none" stroke="#005695" stroke-width="2" stroke-miterlimit="1" x1="153.052" y1="63.591" x2="332.178" y2="63.591"/>
		<path fill="#005695" d="M331.051,63.591l-2.423-4.323l0.136-0.098l6.496,2.8c2.263,0.54,4.526,1.08,6.79,1.621
			c-2.264,0.54-4.527,1.081-6.79,1.621l-6.496,2.801l-0.136-0.074L331.051,63.591z"/>
	</g>
	<g>
		<line fill="none" stroke="#005695" stroke-width="2" stroke-miterlimit="1" x1="153.873" y1="67.807" x2="153.873" y2="246.946"/>
		<path fill="#005695" d="M153.873,245.818l4.324-2.422l0.098,0.136l-2.801,6.496c-0.54,2.263-1.08,4.526-1.621,6.79
			c-0.54-2.264-1.08-4.527-1.621-6.79l-2.8-6.496l0.073-0.136L153.873,245.818z"/>
	</g>
	<rect x="125.001" y="33.504" fill="none" stroke="#000000" stroke-miterlimit="1" width="252" height="252"/>
</g>
</svg>
