<?xml version="1.0" encoding="utf-8"?>

<!DOCTYPE svg PUBLIC "-//W3C//DTD SVG 1.1//EN" "http://www.w3.org/Graphics/SVG/1.1/DTD/svg11.dtd">
<svg version="1.1" id="Layer_1" xmlns="http://www.w3.org/2000/svg" xmlns:xlink="http://www.w3.org/1999/xlink" x="0px" y="0px"
	 width="502px" height="487px" viewBox="0 0 502 487" enable-background="new 0 0 502 487" xml:space="preserve">

<defs>
	<style type="text/css">
	text {
	  font-family: Helvetica, Verdana, ArialUnicodeMS, san-serif
	}
	</style>
</defs>

<g>
   <desc>
	PS3.5 Part 5: Data Structures and Encoding
   </desc>
</g>

<g>
	<rect x="1" y="1" fill="#F5EED6" width="500" height="485"/>
	<g>
		<g>
			<path fill="#CCDEF0" stroke="#010101" stroke-miterlimit="1" d="M12.152,31.062h478.66v198.16H12.152V31.062z"/>
			<rect x="75.286" y="154.651" fill="#FFFFFF" width="157.365" height="13.03"/>
			<line fill="#6799C8" stroke="#010101" stroke-miterlimit="1" x1="22.895" y1="76.337" x2="22.895" y2="89.367"/>
			<line fill="#FFFFFF" stroke="#010101" stroke-miterlimit="1" x1="232.638" y1="89.367" x2="232.638" y2="76.337"/>
			<g>
				<text transform="matrix(0.8815 0 0 1 88.4712 49.5542)" font-size="10">Big Endian Machine</text>
			</g>
			<g>
				<text transform="matrix(0.8815 0 0 1 196.6162 204.3438)"><tspan x="0" y="0" font-size="10">MSB = Most Significant Byte</tspan><tspan x="0" y="12" font-size="10">LSB = Least Significant Byte</tspan></text>
			</g>
			<rect x="22.895" y="89.5" fill="#86B2D8" width="52.391" height="13.03"/>
			<rect x="75.286" y="89.5" fill="#FFFFFF" width="157.353" height="13.03"/>
			<rect x="22.895" y="102.53" fill="#86B2D8" width="52.391" height="13.03"/>
			<rect x="75.286" y="102.53" fill="#FFFFFF" width="157.365" height="13.03"/>
			<rect x="22.895" y="115.561" fill="#86B2D8" width="52.391" height="13.03"/>
			<rect x="75.286" y="115.561" fill="#FFFFFF" width="157.365" height="13.03"/>
			<rect x="22.895" y="128.59" fill="#86B2D8" width="52.391" height="13.03"/>
			<rect x="75.286" y="128.59" fill="#FFFFFF" width="157.365" height="13.03"/>
			<rect x="22.895" y="141.621" fill="#86B2D8" width="52.391" height="13.03"/>
			<rect x="75.286" y="141.621" fill="#FFFFFF" width="157.365" height="13.03"/>
			<rect x="22.895" y="154.651" fill="#86B2D8" width="52.391" height="13.03"/>
			<g>
				<text transform="matrix(0.8815 0 0 1 154.9502 98.5078)" fill="#ED1C24" font-size="9">byte address 1</text>
			</g>
			<g>
				<text transform="matrix(0.8815 0 0 1 154.9502 111.7788)" fill="#ED1C24" font-size="9">byte address 3</text>
			</g>
			<g>
				<text transform="matrix(0.8815 0 0 1 154.9502 125.0503)" fill="#ED1C24" font-size="9">byte address 5</text>
			</g>
			<g>
				<text transform="matrix(0.8815 0 0 1 49.5361 98.5078)" fill="#ED1C24" font-size="9">byte address 0</text>
			</g>
			<g>
				<text transform="matrix(0.8815 0 0 1 49.5361 111.7788)" fill="#ED1C24" font-size="9">byte address 2</text>
			</g>
			<g>
				<text transform="matrix(0.8815 0 0 1 49.5361 125.0503)" fill="#ED1C24" font-size="9">byte address 4</text>
			</g>
			<g>
				<text transform="matrix(0.8815 0 0 1 177.2979 138.2456)" font-size="10">...</text>
			</g>
			<g>
				<text transform="matrix(0.8815 0 0 1 177.2979 151.5166)" font-size="10">...</text>
			</g>
			<g>
				<text transform="matrix(0.8815 0 0 1 239.2432 98.5078)" font-size="10">Word 0</text>
			</g>
			<g>
				<text transform="matrix(0.8815 0 0 1 239.2432 111.7788)" font-size="10">Word 1</text>
			</g>
			<g>
				<text transform="matrix(0.8815 0 0 1 239.2432 125.0503)" font-size="10">Word 2</text>
			</g>
			<g>
				<text transform="matrix(0.8815 0 0 1 210.5649 85.1328)" font-size="10">1</text>
			</g>
			<g>
				<text transform="matrix(0.8815 0 0 1 223.5947 85.1328)" font-size="10">0</text>
			</g>
			<g>
				<text transform="matrix(0.8815 0 0 1 197.9243 85.1328)" font-size="10">2</text>
			</g>
			<g>
				<text transform="matrix(0.8815 0 0 1 184.7212 85.1328)" font-size="10">3</text>
			</g>
			<g>
				<text transform="matrix(0.8815 0 0 1 171.5151 85.1328)" font-size="10">4</text>
			</g>
			<g>
				<text transform="matrix(0.8815 0 0 1 158.313 85.1328)" font-size="10">5</text>
			</g>
			<g>
				<text transform="matrix(0.8815 0 0 1 89.938 85.1328)" fill="#312A35" font-size="10">10</text>
			</g>
			<g>
				<text transform="matrix(0.8815 0 0 1 24.4307 85.1328)" font-size="10">15</text>
			</g>
			<g>
				<text transform="matrix(0.8815 0 0 1 37.5527 85.1328)" font-size="10">14</text>
			</g>
			<g>
				<text transform="matrix(0.8815 0 0 1 50.6724 85.1328)" font-size="10">13</text>
			</g>
			<g>
				<text transform="matrix(0.8815 0 0 1 63.793 85.1328)" font-size="10">12</text>
			</g>
			<g>
				<text transform="matrix(0.8815 0 0 1 76.9126 85.1328)" font-size="10">11</text>
			</g>
			<g>
				<text transform="matrix(0.8815 0 0 1 105.605 85.1328)" font-size="10">9</text>
			</g>
			<g>
				<text transform="matrix(0.8815 0 0 1 118.7251 85.1328)" font-size="10">8</text>
			</g>
			<g>
				<text transform="matrix(0.8815 0 0 1 131.8452 85.1328)" font-size="10">7</text>
			</g>
			<g>
				<text transform="matrix(0.8815 0 0 1 144.9658 85.1328)" font-size="10">6</text>
			</g>
			<g>
				<text transform="matrix(0.8815 0 0 1 11.7554 26.2695)" font-size="10">Example 1: CT Pixel Data Value in Memory</text>
			</g>
			<rect x="22.895" y="89.5" fill="none" stroke="#010101" stroke-miterlimit="1" width="209.756" height="78.18"/>
			<line fill="none" stroke="#010101" stroke-miterlimit="1" x1="22.895" y1="154.645" x2="232.651" y2="154.645"/>
			<line fill="none" stroke="#010101" stroke-miterlimit="1" x1="22.895" y1="141.627" x2="232.651" y2="141.627"/>
			<line fill="none" stroke="#010101" stroke-miterlimit="1" x1="22.895" y1="128.59" x2="232.651" y2="128.59"/>
			<line fill="none" stroke="#010101" stroke-miterlimit="1" x1="22.895" y1="115.554" x2="232.651" y2="115.554"/>
			<line fill="none" stroke="#010101" stroke-miterlimit="1" x1="22.895" y1="102.537" x2="232.651" y2="102.537"/>
			
				<line fill="none" stroke="#003468" stroke-linecap="round" stroke-linejoin="round" stroke-miterlimit="1" stroke-dasharray="8,4,2,4" x1="127.676" y1="67.256" x2="127.676" y2="175.836"/>
			<rect x="324.301" y="154.651" fill="#FFFFFF" width="157.363" height="13.03"/>
			<line fill="#6799C8" stroke="#010101" stroke-miterlimit="1" x1="271.91" y1="76.337" x2="271.91" y2="89.367"/>
			<line fill="#FFFFFF" stroke="#010101" stroke-miterlimit="1" x1="481.652" y1="89.367" x2="481.652" y2="76.337"/>
			<g>
				<text transform="matrix(0.8815 0 0 1 334.543 49.5542)" font-size="10">Little Endian Machine</text>
			</g>
			<g>
				<text transform="matrix(0.8815 0 0 1 315.8613 73.6831)" font-size="10">MSB</text>
			</g>
			<g>
				<text transform="matrix(0.8815 0 0 1 420.8359 73.6831)" font-size="10">LSB</text>
			</g>
			<g>
				<text transform="matrix(0.8815 0 0 1 67.333 73.6831)" font-size="10">MSB</text>
			</g>
			<g>
				<text transform="matrix(0.8815 0 0 1 172.3076 73.6831)" font-size="10">LSB</text>
			</g>
			<rect x="271.91" y="89.5" fill="#86B2D8" width="52.391" height="13.03"/>
			<rect x="324.301" y="89.5" fill="#FFFFFF" width="157.352" height="13.03"/>
			<rect x="271.91" y="102.53" fill="#86B2D8" width="52.391" height="13.03"/>
			<rect x="324.301" y="102.53" fill="#FFFFFF" width="157.363" height="13.03"/>
			<rect x="271.91" y="115.561" fill="#86B2D8" width="52.391" height="13.03"/>
			<rect x="324.301" y="115.561" fill="#FFFFFF" width="157.363" height="13.03"/>
			<rect x="271.91" y="128.59" fill="#86B2D8" width="52.391" height="13.03"/>
			<rect x="324.301" y="128.59" fill="#FFFFFF" width="157.363" height="13.03"/>
			<rect x="271.91" y="141.621" fill="#86B2D8" width="52.391" height="13.03"/>
			<rect x="324.301" y="141.621" fill="#FFFFFF" width="157.363" height="13.03"/>
			<rect x="271.91" y="154.651" fill="#86B2D8" width="52.391" height="13.03"/>
			<g>
				<text transform="matrix(0.8815 0 0 1 403.9629 98.5078)" fill="#ED1C24" font-size="9">byte address 0</text>
			</g>
			<g>
				<text transform="matrix(0.8815 0 0 1 403.9629 111.7788)" fill="#ED1C24" font-size="9">byte address 2</text>
			</g>
			<g>
				<text transform="matrix(0.8815 0 0 1 403.9629 125.0503)" fill="#ED1C24" font-size="9">byte address 4</text>
			</g>
			<g>
				<text transform="matrix(0.8815 0 0 1 298.5488 98.5078)" fill="#ED1C24" font-size="9">byte address 1</text>
			</g>
			<g>
				<text transform="matrix(0.8815 0 0 1 298.5488 111.7788)" fill="#ED1C24" font-size="9">byte address 3</text>
			</g>
			<g>
				<text transform="matrix(0.8815 0 0 1 298.5488 125.0503)" fill="#ED1C24" font-size="9">byte address 5</text>
			</g>
			<g>
				<text transform="matrix(0.8815 0 0 1 426.3105 138.2456)" font-size="10">...</text>
			</g>
			<g>
				<text transform="matrix(0.8815 0 0 1 426.3105 151.5166)" font-size="10">...</text>
			</g>
			<g>
				<text transform="matrix(0.8815 0 0 1 459.5762 85.1328)" font-size="10">1</text>
			</g>
			<g>
				<text transform="matrix(0.8815 0 0 1 472.6074 85.1328)" font-size="10">0</text>
			</g>
			<g>
				<text transform="matrix(0.8815 0 0 1 446.9375 85.1328)" font-size="10">2</text>
			</g>
			<g>
				<text transform="matrix(0.8815 0 0 1 433.7324 85.1328)" font-size="10">3</text>
			</g>
			<g>
				<text transform="matrix(0.8815 0 0 1 420.5273 85.1328)" font-size="10">4</text>
			</g>
			<g>
				<text transform="matrix(0.8815 0 0 1 407.3242 85.1328)" font-size="10">5</text>
			</g>
			<g>
				<text transform="matrix(0.8815 0 0 1 338.9512 85.1328)" fill="#312A35" font-size="10">10</text>
			</g>
			<g>
				<text transform="matrix(0.8815 0 0 1 273.4434 85.1328)" font-size="10">15</text>
			</g>
			<g>
				<text transform="matrix(0.8815 0 0 1 286.5645 85.1328)" font-size="10">14</text>
			</g>
			<g>
				<text transform="matrix(0.8815 0 0 1 299.6855 85.1328)" font-size="10">13</text>
			</g>
			<g>
				<text transform="matrix(0.8815 0 0 1 312.8047 85.1328)" font-size="10">12</text>
			</g>
			<g>
				<text transform="matrix(0.8815 0 0 1 325.9258 85.1328)" font-size="10">11</text>
			</g>
			<g>
				<text transform="matrix(0.8815 0 0 1 354.6172 85.1328)" font-size="10">9</text>
			</g>
			<g>
				<text transform="matrix(0.8815 0 0 1 367.7363 85.1328)" font-size="10">8</text>
			</g>
			<g>
				<text transform="matrix(0.8815 0 0 1 380.8574 85.1328)" font-size="10">7</text>
			</g>
			<g>
				<text transform="matrix(0.8815 0 0 1 393.9766 85.1328)" font-size="10">6</text>
			</g>
			<rect x="271.91" y="89.5" fill="none" stroke="#010101" stroke-miterlimit="1" width="209.754" height="78.18"/>
			<line fill="none" stroke="#010101" stroke-miterlimit="1" x1="271.91" y1="154.645" x2="481.664" y2="154.645"/>
			<line fill="none" stroke="#010101" stroke-miterlimit="1" x1="271.91" y1="141.627" x2="481.664" y2="141.627"/>
			<line fill="none" stroke="#010101" stroke-miterlimit="1" x1="271.91" y1="128.59" x2="481.664" y2="128.59"/>
			<line fill="none" stroke="#010101" stroke-miterlimit="1" x1="271.91" y1="115.554" x2="481.664" y2="115.554"/>
			<line fill="none" stroke="#010101" stroke-miterlimit="1" x1="271.91" y1="102.537" x2="481.664" y2="102.537"/>
			
				<line fill="none" stroke="#003468" stroke-linecap="round" stroke-linejoin="round" stroke-miterlimit="1" stroke-dasharray="8,4,2,4" x1="376.691" y1="67.256" x2="376.691" y2="175.836"/>
		</g>
		<g>
			<rect x="11.671" y="279.712" fill="#CCDEF0" stroke="#010101" stroke-miterlimit="1" width="479.141" height="189.884"/>
			<rect x="22.896" y="394.313" fill="#86B2D8" width="52.48" height="13.118"/>
			<rect x="75.376" y="394.313" fill="#9D9FA2" width="157.263" height="13.118"/>
			<g>
				<g>
					<text transform="matrix(0.8815 0 0 1 210.5649 324.7344)" font-size="10">1</text>
				</g>
				<g>
					<text transform="matrix(0.8815 0 0 1 223.5952 324.7344)" font-size="10">0</text>
				</g>
				<g>
					<text transform="matrix(0.8815 0 0 1 197.9248 324.7344)" font-size="10">2</text>
				</g>
				<g>
					<text transform="matrix(0.8815 0 0 1 184.7217 324.7344)" font-size="10">3</text>
				</g>
				<g>
					<text transform="matrix(0.8815 0 0 1 171.5156 324.7344)" font-size="10">4</text>
				</g>
				<g>
					<text transform="matrix(0.8815 0 0 1 158.3135 324.7344)" font-size="10">5</text>
				</g>
				<g>
					<text transform="matrix(0.8815 0 0 1 89.9385 324.7344)" fill="#312A35" font-size="10">10</text>
				</g>
				<g>
					<text transform="matrix(0.8815 0 0 1 24.4312 324.7344)" font-size="10">15</text>
				</g>
				<g>
					<text transform="matrix(0.8815 0 0 1 37.5532 324.7344)" font-size="10">14</text>
				</g>
				<g>
					<text transform="matrix(0.8815 0 0 1 50.6729 324.7344)" font-size="10">13</text>
				</g>
				<g>
					<text transform="matrix(0.8815 0 0 1 63.7935 324.7344)" font-size="10">12</text>
				</g>
				<g>
					<text transform="matrix(0.8815 0 0 1 76.9131 324.7344)" font-size="10">11</text>
				</g>
				<g>
					<text transform="matrix(0.8815 0 0 1 105.605 324.7344)" font-size="10">9</text>
				</g>
				<g>
					<text transform="matrix(0.8815 0 0 1 118.7256 324.7344)" font-size="10">8</text>
				</g>
				<g>
					<text transform="matrix(0.8815 0 0 1 131.8457 324.7344)" font-size="10">7</text>
				</g>
				<g>
					<text transform="matrix(0.8815 0 0 1 144.9663 324.7344)" font-size="10">6</text>
				</g>
			</g>
			<line fill="#6799C8" stroke="#010101" stroke-miterlimit="1" x1="22.896" y1="315.937" x2="22.896" y2="328.966"/>
			<line fill="#FFFFFF" stroke="#010101" stroke-miterlimit="1" x1="232.639" y1="328.966" x2="232.639" y2="315.937"/>
			<g>
				<g>
					<text transform="matrix(0.8815 0 0 1 11.1885 276.125)" font-size="10">Example 2: Hypothetical Pixel Data Value in Memory</text>
				</g>
			</g>
			<g>
				<g>
					<text transform="matrix(0.8815 0 0 1 239.2437 338.1094)" font-size="10">Word 0</text>
				</g>
			</g>
			<g>
				<g>
					<text transform="matrix(0.8815 0 0 1 239.2437 351.3809)" font-size="10">Word 1</text>
				</g>
			</g>
			<g>
				<g>
					<text transform="matrix(0.8815 0 0 1 239.2437 364.6523)" font-size="10">Word 2</text>
				</g>
			</g>
			<g>
				<g>
					<text transform="matrix(0.8815 0 0 1 239.2437 378.0742)" font-size="10">Word 3</text>
				</g>
			</g>
			<g>
				<g>
					<text transform="matrix(0.8815 0 0 1 239.2437 391.3438)" font-size="10">Word 4</text>
				</g>
			</g>
			<rect x="206.489" y="329.073" fill="#86B2D8" width="26.15" height="13.03"/>
			<rect x="206.487" y="368.252" fill="#86B2D8" width="26.152" height="13.031"/>
			<rect x="180.247" y="381.283" fill="#BCBEC0" width="52.393" height="13.03"/>
			<rect x="101.707" y="381.283" fill="#86B2D8" width="78.54" height="13.03"/>
			<rect x="22.896" y="381.283" fill="#9D9FA2" width="78.811" height="12.94"/>
			<rect x="22.896" y="368.252" fill="#BCBEC0" width="183.591" height="13.031"/>
			<rect x="22.896" y="355.133" fill="#86B2D8" width="52.48" height="13.119"/>
			<rect x="22.896" y="342.104" fill="#DCDDDE" width="78.609" height="13.029"/>
			<rect x="101.505" y="342.104" fill="#86B2D8" width="78.742" height="13.029"/>
			<rect x="180.247" y="342.104" fill="#FFFFFF" width="52.393" height="13.029"/>
			<rect x="22.896" y="329.073" fill="#FFFFFF" width="183.593" height="13.03"/>
			<rect x="22.896" y="407.253" fill="#FFFFFF" width="209.744" height="13.03"/>
			<rect x="75.376" y="355.133" fill="#DCDDDE" width="157.263" height="13.119"/>
			<g>
				<g>
					<text transform="matrix(0.8815 0 0 1 139.6802 413.1973)" font-size="10">...</text>
				</g>
			</g>
			<g>
				<text transform="matrix(0.8815 0 0 1 196.6177 451.1836)"><tspan x="0" y="0" font-size="10">MSB = Most Significant Byte</tspan><tspan x="0" y="12" font-size="10">LSB = Least Significant Byte</tspan></text>
			</g>
			<g>
				<text transform="matrix(0.8815 0 0 1 88.4712 299.4297)" font-size="10">Big Endian Machine</text>
			</g>
			<g>
				<text transform="matrix(0.8815 0 0 1 334.543 299.4297)" font-size="10">Little Endian Machine</text>
			</g>
			
				<line fill="none" stroke="#003468" stroke-linecap="round" stroke-linejoin="round" stroke-miterlimit="1" stroke-dasharray="8,4,2,4" x1="127.491" y1="305.527" x2="127.491" y2="426.764"/>
			<g>
				<rect x="22.896" y="329.073" fill="none" stroke="#010101" stroke-miterlimit="1" width="209.744" height="91.21"/>
				<line fill="none" stroke="#010101" stroke-miterlimit="1" x1="22.896" y1="407.257" x2="232.639" y2="407.257"/>
				<line fill="none" stroke="#010101" stroke-miterlimit="1" x1="22.896" y1="394.229" x2="232.639" y2="394.229"/>
				<line fill="none" stroke="#010101" stroke-miterlimit="1" x1="22.896" y1="381.203" x2="232.639" y2="381.203"/>
				<line fill="none" stroke="#010101" stroke-miterlimit="1" x1="22.896" y1="368.153" x2="232.639" y2="368.153"/>
				<line fill="none" stroke="#010101" stroke-miterlimit="1" x1="22.896" y1="355.127" x2="232.639" y2="355.127"/>
				<line fill="none" stroke="#010101" stroke-miterlimit="1" x1="22.896" y1="342.1" x2="232.639" y2="342.1"/>
			</g>
			<g>
				<g>
					<text transform="matrix(0.8815 0 0 1 154.9502 338.1094)" fill="#ED1C24" font-size="9">byte address 1</text>
				</g>
				<g>
					<text transform="matrix(0.8815 0 0 1 154.9502 351.3809)" fill="#ED1C24" font-size="9">byte address 3</text>
				</g>
				<g>
					<text transform="matrix(0.8815 0 0 1 154.9502 364.6523)" fill="#ED1C24" font-size="9">byte address 5</text>
				</g>
				<g>
					<text transform="matrix(0.8815 0 0 1 49.5361 338.1094)" fill="#ED1C24" font-size="9">byte address 0</text>
				</g>
				<g>
					<text transform="matrix(0.8815 0 0 1 49.5361 351.3809)" fill="#ED1C24" font-size="9">byte address 2</text>
				</g>
				<g>
					<text transform="matrix(0.8815 0 0 1 49.5361 364.6523)" fill="#ED1C24" font-size="9">byte address 4</text>
				</g>
				<g>
					<text transform="matrix(0.8815 0 0 1 67.333 313.2852)" font-size="10">MSB</text>
				</g>
				<g>
					<text transform="matrix(0.8815 0 0 1 172.3076 313.2852)" font-size="10">LSB</text>
				</g>
				<g>
					<text transform="matrix(0.8815 0 0 1 154.9502 377.9219)" fill="#ED1C24" font-size="9">byte address 7</text>
				</g>
				<g>
					<text transform="matrix(0.8815 0 0 1 154.9502 391.1934)" fill="#ED1C24" font-size="9">byte address 9</text>
				</g>
				<g>
					<text transform="matrix(0.8815 0 0 1 49.5361 377.9219)" fill="#ED1C24" font-size="9">byte address 6</text>
				</g>
				<g>
					<text transform="matrix(0.8815 0 0 1 49.5361 391.1934)" fill="#ED1C24" font-size="9">byte address 8</text>
				</g>
			</g>
			<rect x="271.66" y="394.313" fill="#86B2D8" width="52.48" height="13.118"/>
			<rect x="324.141" y="394.313" fill="#9D9FA2" width="157.264" height="13.118"/>
			<g>
				<g>
					<text transform="matrix(0.8815 0 0 1 459.3301 324.7344)" font-size="10">1</text>
				</g>
				<g>
					<text transform="matrix(0.8815 0 0 1 472.3613 324.7344)" font-size="10">0</text>
				</g>
				<g>
					<text transform="matrix(0.8815 0 0 1 446.6895 324.7344)" font-size="10">2</text>
				</g>
				<g>
					<text transform="matrix(0.8815 0 0 1 433.4863 324.7344)" font-size="10">3</text>
				</g>
				<g>
					<text transform="matrix(0.8815 0 0 1 420.2812 324.7344)" font-size="10">4</text>
				</g>
				<g>
					<text transform="matrix(0.8815 0 0 1 407.0781 324.7344)" font-size="10">5</text>
				</g>
				<g>
					<text transform="matrix(0.8815 0 0 1 338.7051 324.7344)" fill="#312A35" font-size="10">10</text>
				</g>
				<g>
					<text transform="matrix(0.8815 0 0 1 273.1973 324.7344)" font-size="10">15</text>
				</g>
				<g>
					<text transform="matrix(0.8815 0 0 1 286.3184 324.7344)" font-size="10">14</text>
				</g>
				<g>
					<text transform="matrix(0.8815 0 0 1 299.4395 324.7344)" font-size="10">13</text>
				</g>
				<g>
					<text transform="matrix(0.8815 0 0 1 312.5586 324.7344)" font-size="10">12</text>
				</g>
				<g>
					<text transform="matrix(0.8815 0 0 1 325.6797 324.7344)" font-size="10">11</text>
				</g>
				<g>
					<text transform="matrix(0.8815 0 0 1 354.3711 324.7344)" font-size="10">9</text>
				</g>
				<g>
					<text transform="matrix(0.8815 0 0 1 367.4922 324.7344)" font-size="10">8</text>
				</g>
				<g>
					<text transform="matrix(0.8815 0 0 1 380.6113 324.7344)" font-size="10">7</text>
				</g>
				<g>
					<text transform="matrix(0.8815 0 0 1 393.7324 324.7344)" font-size="10">6</text>
				</g>
			</g>
			<line fill="#6799C8" stroke="#010101" stroke-miterlimit="1" x1="271.66" y1="315.937" x2="271.66" y2="328.966"/>
			<line fill="#FFFFFF" stroke="#010101" stroke-miterlimit="1" x1="481.404" y1="328.966" x2="481.404" y2="315.937"/>
			<rect x="455.254" y="329.073" fill="#86B2D8" width="26.15" height="13.03"/>
			<rect x="455.252" y="368.252" fill="#86B2D8" width="26.152" height="13.031"/>
			<rect x="429.012" y="381.283" fill="#BCBEC0" width="52.393" height="13.03"/>
			<rect x="350.473" y="381.283" fill="#86B2D8" width="78.539" height="13.03"/>
			<rect x="271.66" y="381.283" fill="#9D9FA2" width="78.812" height="12.94"/>
			<rect x="271.66" y="368.252" fill="#BCBEC0" width="183.592" height="13.031"/>
			<rect x="271.66" y="355.133" fill="#86B2D8" width="52.48" height="13.119"/>
			<rect x="271.66" y="342.104" fill="#DCDDDE" width="78.609" height="13.029"/>
			<rect x="350.27" y="342.104" fill="#86B2D8" width="78.742" height="13.029"/>
			<rect x="429.012" y="342.104" fill="#FFFFFF" width="52.393" height="13.029"/>
			<rect x="271.66" y="329.073" fill="#FFFFFF" width="183.594" height="13.03"/>
			<rect x="271.66" y="407.253" fill="#FFFFFF" width="209.744" height="13.03"/>
			<rect x="324.141" y="355.133" fill="#DCDDDE" width="157.264" height="13.119"/>
			<g>
				<g>
					<text transform="matrix(0.8815 0 0 1 388.4453 413.1973)" font-size="10">...</text>
				</g>
			</g>
			
				<line fill="none" stroke="#003468" stroke-linecap="round" stroke-linejoin="round" stroke-miterlimit="1" stroke-dasharray="8,4,2,4" x1="376.256" y1="305.527" x2="376.256" y2="426.764"/>
			<g>
				<rect x="271.66" y="329.073" fill="none" stroke="#010101" stroke-miterlimit="1" width="209.744" height="91.21"/>
				<line fill="none" stroke="#010101" stroke-miterlimit="1" x1="271.66" y1="407.257" x2="481.404" y2="407.257"/>
				<line fill="none" stroke="#010101" stroke-miterlimit="1" x1="271.66" y1="394.229" x2="481.404" y2="394.229"/>
				<line fill="none" stroke="#010101" stroke-miterlimit="1" x1="271.66" y1="381.203" x2="481.404" y2="381.203"/>
				<line fill="none" stroke="#010101" stroke-miterlimit="1" x1="271.66" y1="368.153" x2="481.404" y2="368.153"/>
				<line fill="none" stroke="#010101" stroke-miterlimit="1" x1="271.66" y1="355.127" x2="481.404" y2="355.127"/>
				<line fill="none" stroke="#010101" stroke-miterlimit="1" x1="271.66" y1="342.1" x2="481.404" y2="342.1"/>
			</g>
			<g>
				<g>
					<text transform="matrix(0.8815 0 0 1 403.7168 338.1094)" fill="#ED1C24" font-size="9">byte address 1</text>
				</g>
				<g>
					<text transform="matrix(0.8815 0 0 1 403.7168 351.3809)" fill="#ED1C24" font-size="9">byte address 3</text>
				</g>
				<g>
					<text transform="matrix(0.8815 0 0 1 403.7168 364.6523)" fill="#ED1C24" font-size="9">byte address 5</text>
				</g>
				<g>
					<text transform="matrix(0.8815 0 0 1 298.3027 338.1094)" fill="#ED1C24" font-size="9">byte address 0</text>
				</g>
				<g>
					<text transform="matrix(0.8815 0 0 1 298.3027 351.3809)" fill="#ED1C24" font-size="9">byte address 2</text>
				</g>
				<g>
					<text transform="matrix(0.8815 0 0 1 298.3027 364.6523)" fill="#ED1C24" font-size="9">byte address 4</text>
				</g>
				<g>
					<text transform="matrix(0.8815 0 0 1 316.0996 313.2852)" font-size="10">MSB</text>
				</g>
				<g>
					<text transform="matrix(0.8815 0 0 1 421.0742 313.2852)" font-size="10">LSB</text>
				</g>
				<g>
					<text transform="matrix(0.8815 0 0 1 403.7168 377.9219)" fill="#ED1C24" font-size="9">byte address 7</text>
				</g>
				<g>
					<text transform="matrix(0.8815 0 0 1 403.7168 391.1934)" fill="#ED1C24" font-size="9">byte address 9</text>
				</g>
				<g>
					<text transform="matrix(0.8815 0 0 1 298.3027 377.9219)" fill="#ED1C24" font-size="9">byte address 6</text>
				</g>
				<g>
					<text transform="matrix(0.8815 0 0 1 298.3027 391.1934)" fill="#ED1C24" font-size="9">byte address 8</text>
				</g>
			</g>
		</g>
	</g>
</g>
</svg>
