<?xml version="1.0" encoding="utf-8"?>

<!DOCTYPE svg PUBLIC "-//W3C//DTD SVG 1.1//EN" "http://www.w3.org/Graphics/SVG/1.1/DTD/svg11.dtd">
<svg version="1.1" id="Layer_1" xmlns="http://www.w3.org/2000/svg" xmlns:xlink="http://www.w3.org/1999/xlink" x="0px" y="0px"
	 width="502px" height="262px" viewBox="0 0 502 262" enable-background="new 0 0 502 262" xml:space="preserve">

<defs>
	<style type="text/css">
	text {
	  font-family: Helvetica, Verdana, ArialUnicodeMS, san-serif
	}
	</style>
</defs>

<g>
   <desc>
	PS3.5 Part 5: Data Structures and Encoding
   </desc>
</g>

<g>
	<rect x="1" y="1" fill="#F5EED6" width="500" height="260"/>
	<g>
		<rect x="64.292" y="29.661" fill="#CCDEF0" stroke="#010101" stroke-miterlimit="1" width="257.417" height="86.75"/>
		<rect x="223.707" y="52.341" fill="#FFFFFF" stroke="#010101" stroke-miterlimit="1" width="14.4" height="14.4"/>
		<rect x="209.207" y="52.341" fill="#FFFFFF" stroke="#010101" stroke-miterlimit="1" width="14.4" height="14.4"/>
		<rect x="194.707" y="52.341" fill="#FFFFFF" stroke="#010101" stroke-miterlimit="1" width="14.4" height="14.4"/>
		<rect x="180.206" y="52.341" fill="#FFFFFF" stroke="#010101" stroke-miterlimit="1" width="14.401" height="14.4"/>
		<rect x="165.706" y="52.341" fill="#FFFFFF" stroke="#010101" stroke-miterlimit="1" width="14.4" height="14.4"/>
		<rect x="151.101" y="52.341" fill="#FFFFFF" stroke="#010101" stroke-miterlimit="1" width="14.4" height="14.4"/>
		<rect x="136.706" y="52.341" fill="#FFFFFF" stroke="#010101" stroke-miterlimit="1" width="14.4" height="14.4"/>
		<rect x="122.206" y="52.341" fill="#6799C8" stroke="#010101" stroke-miterlimit="1" width="14.4" height="14.4"/>
		<rect x="107.706" y="52.341" fill="#6799C8" stroke="#010101" stroke-miterlimit="1" width="14.4" height="14.4"/>
		<rect x="93.206" y="52.341" fill="#6799C8" stroke="#010101" stroke-miterlimit="1" width="14.4" height="14.4"/>
		<rect x="78.706" y="52.341" fill="#6799C8" stroke="#010101" stroke-miterlimit="1" width="14.4" height="14.4"/>
		<rect x="281.707" y="52.341" fill="#FFFFFF" stroke="#010101" stroke-miterlimit="1" width="14.4" height="14.4"/>
		<rect x="267.207" y="52.341" fill="#FFFFFF" stroke="#010101" stroke-miterlimit="1" width="14.4" height="14.4"/>
		<rect x="252.707" y="52.341" fill="#FFFFFF" stroke="#010101" stroke-miterlimit="1" width="14.4" height="14.4"/>
		<rect x="238.207" y="52.341" fill="#FFFFFF" stroke="#010101" stroke-miterlimit="1" width="14.4" height="14.4"/>
		<g>
			<g>
				<text transform="matrix(0.8815 0 0 1 286.4541 62.3306)" font-size="10">1</text>
			</g>
		</g>
		<rect x="296.107" y="52.341" fill="#FFFFFF" stroke="#010101" stroke-miterlimit="1" width="14.4" height="14.4"/>
		<g>
			<g>
				<text transform="matrix(0.8815 0 0 1 300.8545 62.3306)" font-size="10">0</text>
			</g>
		</g>
		<g>
			<g>
				<text transform="matrix(0.8815 0 0 1 272.4844 62.3306)" font-size="10">2</text>
			</g>
		</g>
		<g>
			<g>
				<text transform="matrix(0.8815 0 0 1 257.8926 62.3306)" font-size="10">3</text>
			</g>
		</g>
		<g>
			<g>
				<text transform="matrix(0.8815 0 0 1 243.2979 62.3306)" font-size="10">4</text>
			</g>
		</g>
		<g>
			<g>
				<text transform="matrix(0.8815 0 0 1 228.707 62.3306)" font-size="10">5</text>
			</g>
		</g>
		<g>
			<g>
				<text transform="matrix(0.8815 0 0 1 64.2925 26.3413)" font-size="11">Example 1: CT Pixel Cell</text>
			</g>
		</g>
		<g>
			<g>
				<text transform="matrix(0.8815 0 0 1 191.6851 49.1768)" font-size="10">Pixel Sample</text>
			</g>
		</g>
		<g>
			<g>
				<text transform="matrix(0.8815 0 0 1 78.707 82.7769)"><tspan x="0" y="0" font-size="11">Bits Allocated = 16</tspan><tspan x="0" y="13.2" font-size="11">Bits Stored = 12</tspan><tspan x="0" y="26.4" font-size="11">High Bit = 11</tspan></text>
			</g>
		</g>
		<g>
			<g>
				<text transform="matrix(0.8815 0 0 1 153.3989 62.3306)" fill="#312A35" font-size="10">10</text>
			</g>
		</g>
		<g>
			<g>
				<text transform="matrix(0.8815 0 0 1 81.0024 62.3306)" font-size="10">15</text>
			</g>
		</g>
		<g>
			<g>
				<text transform="matrix(0.8815 0 0 1 95.5044 62.3306)" font-size="10">14</text>
			</g>
		</g>
		<g>
			<g>
				<text transform="matrix(0.8815 0 0 1 110.0039 62.3306)" font-size="10">13</text>
			</g>
		</g>
		<g>
			<g>
				<text transform="matrix(0.8815 0 0 1 124.5044 62.3306)" font-size="10">12</text>
			</g>
		</g>
		<g>
			<g>
				<text transform="matrix(0.8815 0 0 1 139.0039 62.3306)" font-size="10">11</text>
			</g>
		</g>
		<g>
			<g>
				<text transform="matrix(0.8815 0 0 1 170.4556 62.3306)" font-size="10">9</text>
			</g>
		</g>
		<g>
			<g>
				<text transform="matrix(0.8815 0 0 1 184.9561 62.3306)" font-size="10">8</text>
			</g>
		</g>
		<g>
			<g>
				<text transform="matrix(0.8815 0 0 1 199.4556 62.3306)" font-size="10">7</text>
			</g>
		</g>
		<g>
			<g>
				<text transform="matrix(0.8815 0 0 1 213.9561 62.3306)" font-size="10">6</text>
			</g>
		</g>
		<g>
			<g>
				<line fill="none" stroke="#010101" stroke-miterlimit="1" x1="189.291" y1="45.746" x2="145.24" y2="45.746"/>
				<path fill="#010101" d="M142.878,46.771c1.653,0.5,2.728,0.959,4.054,1.492v-5.044c-0.475,0.226-2.401,0.993-4.054,1.492
					c-1.77,0.535-3.374,0.9-4.415,1.031C139.504,45.871,141.109,46.237,142.878,46.771z"/>
			</g>
		</g>
		<g>
			<g>
				<line fill="none" stroke="#010101" stroke-miterlimit="1" x1="302.506" y1="45.746" x2="246.291" y2="45.746"/>
				<path fill="#010101" d="M304.867,44.721c-1.652-0.5-2.728-0.959-4.054-1.492v5.044c0.475-0.226,2.401-0.993,4.054-1.492
					c1.77-0.535,3.375-0.9,4.415-1.031C308.242,45.621,306.637,45.255,304.867,44.721z"/>
			</g>
		</g>
		<rect x="64.292" y="158.66" fill="#CCDEF0" stroke="#010101" stroke-miterlimit="1" width="373.417" height="86.75"/>
		<rect x="338.625" y="181.34" fill="#FFFFFF" stroke="#010101" stroke-miterlimit="1" width="14.4" height="14.4"/>
		<rect x="324.125" y="181.34" fill="#FFFFFF" stroke="#010101" stroke-miterlimit="1" width="14.4" height="14.4"/>
		<rect x="309.625" y="181.34" fill="#FFFFFF" stroke="#010101" stroke-miterlimit="1" width="14.4" height="14.4"/>
		<rect x="295.124" y="181.34" fill="#FFFFFF" stroke="#010101" stroke-miterlimit="1" width="14.401" height="14.4"/>
		<rect x="280.624" y="181.34" fill="#FFFFFF" stroke="#010101" stroke-miterlimit="1" width="14.4" height="14.4"/>
		<rect x="266.019" y="181.34" fill="#FFFFFF" stroke="#010101" stroke-miterlimit="1" width="14.4" height="14.4"/>
		<rect x="251.624" y="181.34" fill="#FFFFFF" stroke="#010101" stroke-miterlimit="1" width="14.4" height="14.4"/>
		<rect x="237.124" y="181.34" fill="#FFFFFF" stroke="#010101" stroke-miterlimit="1" width="14.4" height="14.4"/>
		<rect x="222.624" y="181.34" fill="#FFFFFF" stroke="#010101" stroke-miterlimit="1" width="14.4" height="14.4"/>
		<rect x="208.124" y="181.34" fill="#FFFFFF" stroke="#010101" stroke-miterlimit="1" width="14.4" height="14.4"/>
		<rect x="193.624" y="181.34" fill="#FFFFFF" stroke="#010101" stroke-miterlimit="1" width="14.4" height="14.4"/>
		<rect x="396.625" y="181.34" fill="#6799C8" stroke="#010101" stroke-miterlimit="1" width="14.4" height="14.4"/>
		<rect x="382.125" y="181.34" fill="#FFFFFF" stroke="#010101" stroke-miterlimit="1" width="14.4" height="14.4"/>
		<rect x="367.625" y="181.34" fill="#FFFFFF" stroke="#010101" stroke-miterlimit="1" width="14.4" height="14.4"/>
		<rect x="353.125" y="181.34" fill="#FFFFFF" stroke="#010101" stroke-miterlimit="1" width="14.4" height="14.4"/>
		<g>
			<g>
				<text transform="matrix(0.8815 0 0 1 401.3711 191.3301)" font-size="10">1</text>
			</g>
		</g>
		<rect x="411.025" y="181.34" fill="#6799C8" stroke="#010101" stroke-miterlimit="1" width="14.4" height="14.4"/>
		<g>
			<g>
				<text transform="matrix(0.8815 0 0 1 415.7715 191.3301)" font-size="10">0</text>
			</g>
		</g>
		<g>
			<g>
				<text transform="matrix(0.8815 0 0 1 387.4023 191.3301)" font-size="10">2</text>
			</g>
		</g>
		<g>
			<g>
				<text transform="matrix(0.8815 0 0 1 372.8105 191.3301)" font-size="10">3</text>
			</g>
		</g>
		<g>
			<g>
				<text transform="matrix(0.8815 0 0 1 358.2148 191.3301)" font-size="10">4</text>
			</g>
		</g>
		<g>
			<g>
				<text transform="matrix(0.8815 0 0 1 343.625 191.3301)" font-size="10">5</text>
			</g>
		</g>
		<g>
			<g>
				<text transform="matrix(0.8815 0 0 1 64.2925 155.3418)" font-size="11">Example 2: Hypothetical Pixel Cell</text>
			</g>
		</g>
		<g>
			<g>
				<text transform="matrix(0.8815 0 0 1 247.4961 178.1768)" font-size="10">Pixel Sample</text>
			</g>
		</g>
		<g>
			<g>
				<text transform="matrix(0.8815 0 0 1 77.7212 211.7773)"><tspan x="0" y="0" font-size="11">Bits Allocated = 24</tspan><tspan x="0" y="13.199" font-size="11">Bits Stored = 18</tspan><tspan x="0" y="26.399" font-size="11">High Bit = 19</tspan></text>
			</g>
		</g>
		<g>
			<g>
				<text transform="matrix(0.8815 0 0 1 268.3164 191.3301)" fill="#312A35" font-size="10">10</text>
			</g>
		</g>
		<g>
			<g>
				<text transform="matrix(0.8815 0 0 1 195.9199 191.3301)" font-size="10">15</text>
			</g>
		</g>
		<g>
			<g>
				<text transform="matrix(0.8815 0 0 1 210.4219 191.3301)" font-size="10">14</text>
			</g>
		</g>
		<g>
			<g>
				<text transform="matrix(0.8815 0 0 1 224.9214 191.3301)" font-size="10">13</text>
			</g>
		</g>
		<g>
			<g>
				<text transform="matrix(0.8815 0 0 1 239.4219 191.3301)" font-size="10">12</text>
			</g>
		</g>
		<g>
			<g>
				<text transform="matrix(0.8815 0 0 1 253.9219 191.3301)" font-size="10">11</text>
			</g>
		</g>
		<g>
			<g>
				<text transform="matrix(0.8815 0 0 1 285.373 191.3301)" font-size="10">9</text>
			</g>
		</g>
		<g>
			<g>
				<text transform="matrix(0.8815 0 0 1 299.873 191.3301)" font-size="10">8</text>
			</g>
		</g>
		<g>
			<g>
				<text transform="matrix(0.8815 0 0 1 314.373 191.3301)" font-size="10">7</text>
			</g>
		</g>
		<g>
			<g>
				<text transform="matrix(0.8815 0 0 1 328.873 191.3301)" font-size="10">6</text>
			</g>
		</g>
		<g>
			<g>
				<line fill="none" stroke="#010101" stroke-miterlimit="1" x1="242.872" y1="174.746" x2="143.021" y2="174.746"/>
				<path fill="#010101" d="M140.659,175.771c1.653,0.499,2.728,0.959,4.054,1.491v-5.044c-0.475,0.225-2.401,0.992-4.054,1.491
					c-1.77,0.534-3.374,0.9-4.415,1.03C137.285,174.871,138.889,175.236,140.659,175.771z"/>
			</g>
		</g>
		<g>
			<g>
				<line fill="none" stroke="#010101" stroke-miterlimit="1" x1="388.623" y1="174.746" x2="303.615" y2="174.746"/>
				<path fill="#010101" d="M390.984,173.721c-1.652-0.499-2.728-0.959-4.054-1.491v5.044c0.475-0.225,2.401-0.992,4.054-1.491
					c1.77-0.534,3.375-0.9,4.415-1.03C394.359,174.621,392.754,174.256,390.984,173.721z"/>
			</g>
		</g>
		<rect x="121.221" y="181.34" fill="#6799C8" stroke="#010101" stroke-miterlimit="1" width="14.4" height="14.4"/>
		<rect x="106.721" y="181.34" fill="#6799C8" stroke="#010101" stroke-miterlimit="1" width="14.4" height="14.4"/>
		<rect x="92.221" y="181.34" fill="#6799C8" stroke="#010101" stroke-miterlimit="1" width="14.4" height="14.4"/>
		<rect x="77.721" y="181.34" fill="#6799C8" stroke="#010101" stroke-miterlimit="1" width="14.4" height="14.4"/>
		<rect x="179.222" y="181.34" fill="#FFFFFF" stroke="#010101" stroke-miterlimit="1" width="14.4" height="14.4"/>
		<rect x="164.721" y="181.34" fill="#FFFFFF" stroke="#010101" stroke-miterlimit="1" width="14.401" height="14.4"/>
		<rect x="150.221" y="181.34" fill="#FFFFFF" stroke="#010101" stroke-miterlimit="1" width="14.4" height="14.4"/>
		<rect x="135.721" y="181.34" fill="#FFFFFF" stroke="#010101" stroke-miterlimit="1" width="14.4" height="14.4"/>
		<g>
			<g>
				<text transform="matrix(0.8815 0 0 1 137.9199 191.3301)" font-size="10">19</text>
			</g>
		</g>
		<g>
			<g>
				<text transform="matrix(0.8815 0 0 1 152.4219 191.3301)" font-size="10">18</text>
			</g>
		</g>
		<g>
			<g>
				<text transform="matrix(0.8815 0 0 1 166.9214 191.3301)" font-size="10">17</text>
			</g>
		</g>
		<g>
			<g>
				<text transform="matrix(0.8815 0 0 1 181.4219 191.3301)" font-size="10">16</text>
			</g>
		</g>
		<g>
			<g>
				<text transform="matrix(0.8815 0 0 1 79.9199 191.3301)" font-size="10">23</text>
			</g>
		</g>
		<g>
			<g>
				<text transform="matrix(0.8815 0 0 1 94.4219 191.3301)" font-size="10">22</text>
			</g>
		</g>
		<g>
			<g>
				<text transform="matrix(0.8815 0 0 1 108.9214 191.3301)" font-size="10">21</text>
			</g>
		</g>
		<g>
			<g>
				<text transform="matrix(0.8815 0 0 1 123.4219 191.3301)" font-size="10">20</text>
			</g>
		</g>
	</g>
</g>
</svg>
