<?xml version="1.0" encoding="utf-8"?>

<!DOCTYPE svg PUBLIC "-//W3C//DTD SVG 1.1//EN" "http://www.w3.org/Graphics/SVG/1.1/DTD/svg11.dtd">
<svg version="1.1" id="Layer_1" xmlns="http://www.w3.org/2000/svg" xmlns:xlink="http://www.w3.org/1999/xlink" x="0px" y="0px"
	 width="502px" height="217px" viewBox="0 0 502 217" enable-background="new 0 0 502 217" xml:space="preserve">

<defs>
	<style type="text/css">
	text {
	  font-family: Helvetica, Verdana, ArialUnicodeMS, san-serif
	}
	</style>
</defs>

<g>
   <desc>
	PS3.5 Part 5: Data Structures and Encoding
   </desc>
</g>

<g>
	<rect x="1" y="1" fill="#F5EED6" width="500" height="215"/>
	<g>
		
			<line fill="none" stroke="#000000" stroke-linecap="square" stroke-linejoin="bevel" stroke-dasharray="4" x1="172.12" y1="67.28" x2="60.429" y2="160.881"/>
		<rect x="105.532" y="125.339" fill="#86B2D8" stroke="#000000" width="42.823" height="36"/>
		<rect x="60.575" y="125.339" fill="#B2CEE7" stroke="#000000" width="44.957" height="36"/>
		<g>
			<text transform="matrix(0.8815 0 0 1 74.6992 146.4004)" font-size="11">Tag</text>
		</g>
		<g>
			<text transform="matrix(0.8815 0 0 1 120.2085 146.4004)" font-size="11">VR</text>
		</g>
		<rect x="148.532" y="125.339" fill="#B2CEE7" stroke="#000000" width="42.823" height="36"/>
		<g>
			<text transform="matrix(0.8815 0 0 1 155.1143 139.8008)"><tspan x="0" y="0" font-size="11">Value</tspan><tspan x="0" y="11.208" font-size="11">Length</tspan></text>
		</g>
		<rect x="118.146" y="31.568" fill="#CCDEF0" stroke="#000000" width="54" height="36"/>
		<g>
			<text transform="matrix(0.8815 0 0 1 134.9043 46.0308)"><tspan x="0" y="0" font-size="11">Data</tspan><tspan x="-8.559" y="11.208" font-size="11">Element</tspan></text>
		</g>
		<rect x="64.145" y="31.568" fill="#CCDEF0" stroke="#000000" width="54" height="36"/>
		<g>
			<text transform="matrix(0.8815 0 0 1 80.9038 46.0308)"><tspan x="0" y="0" font-size="11">Data</tspan><tspan x="-8.559" y="11.208" font-size="11">Element</tspan></text>
		</g>
		<rect x="172.146" y="31.568" fill="#B2CEE7" stroke="#000000" width="54" height="36"/>
		<g>
			<text transform="matrix(0.8815 0 0 1 188.9043 46.0308)"><tspan x="0" y="0" font-size="11">Data</tspan><tspan x="-8.559" y="11.208" font-size="11">Element</tspan></text>
		</g>
		<rect x="226.146" y="31.568" fill="#CCDEF0" stroke="#000000" width="54" height="36"/>
		<g>
			<text transform="matrix(0.8815 0 0 1 242.9043 46.0308)"><tspan x="0" y="0" font-size="11">Data</tspan><tspan x="-8.559" y="11.208" font-size="11">Element</tspan></text>
		</g>
		<rect x="280.146" y="31.568" fill="#CCDEF0" stroke="#000000" width="54" height="36"/>
		<g>
			<text transform="matrix(0.8815 0 0 1 303.1045 52.6309)" font-size="11">...</text>
		</g>
		<rect x="334.146" y="31.568" fill="#CCDEF0" stroke="#000000" width="54" height="36"/>
		<g>
			<text transform="matrix(0.8815 0 0 1 350.9043 46.0308)"><tspan x="0" y="0" font-size="11">Data</tspan><tspan x="-8.559" y="11.208" font-size="11">Element</tspan></text>
		</g>
		<rect x="388.146" y="31.568" fill="#CCDEF0" stroke="#000000" width="54" height="36"/>
		<g>
			<text transform="matrix(0.8815 0 0 1 404.9043 46.0308)"><tspan x="0" y="0" font-size="11">Data</tspan><tspan x="-8.559" y="11.208" font-size="11">Element</tspan></text>
		</g>
		<g>
			<text transform="matrix(0.8815 0 0 1 62.459 26.6797)" font-size="11">Data Set</text>
		</g>
		
			<line fill="none" stroke="#000000" stroke-linecap="square" stroke-linejoin="bevel" stroke-dasharray="4" x1="226.599" y1="31.568" x2="385.703" y2="125.169"/>
		
			<line fill="none" stroke="#000000" stroke-linecap="square" stroke-linejoin="bevel" stroke-dasharray="4" x1="172.211" y1="31.496" x2="59.855" y2="125.097"/>
		
			<line fill="none" stroke="#000000" stroke-linecap="square" stroke-linejoin="bevel" stroke-dasharray="4" x1="226.188" y1="67.28" x2="385.016" y2="160.881"/>
		<rect x="191.355" y="125.339" fill="#B2CEE7" stroke="#000000" width="193.957" height="36"/>
		<g>
			<text transform="matrix(0.8815 0 0 1 264.0781 146.4004)" font-size="11">Value Field</text>
		</g>
		<polyline fill="none" stroke="#010101" stroke-miterlimit="1" points="157.988,185.868 146.355,185.868 133.516,155.522 		"/>
		<g>
			<g>
				<g>
					<text transform="matrix(1.1496 0 0 1 160.6582 187.833)"><tspan x="0" y="0" font-size="9">optional field - dependent on</tspan><tspan x="2.764" y="9.272" font-size="9">negotiated Transfer Syntax</tspan></text>
				</g>
			</g>
		</g>
		<g>
			<g>
				<text transform="matrix(1.1496 0 0 1 215.6484 26.3403)" font-size="9">order of transmission</text>
			</g>
		</g>
		<g>
			<g>
				<line fill="#4F8ABE" stroke="#005695" stroke-miterlimit="1" x1="316.125" y1="23.701" x2="389.985" y2="23.701"/>
				<g>
					<g>
						<line fill="#4F8ABE" stroke="#005695" stroke-miterlimit="1" x1="130.292" y1="23.701" x2="205.524" y2="23.701"/>
						<path fill="#005695" d="M204.913,23.701l-1.314-2.161l0.073-0.05l3.525,1.4c1.228,0.271,2.456,0.54,3.685,0.811
							c-1.229,0.271-2.457,0.54-3.685,0.811l-3.525,1.4l-0.073-0.037L204.913,23.701z"/>
					</g>
				</g>
				<path fill="#005695" d="M389.373,23.701l-1.314-2.161l0.074-0.05l3.524,1.4c1.229,0.271,2.457,0.54,3.685,0.811
					c-1.228,0.271-2.456,0.54-3.685,0.811l-3.524,1.4l-0.074-0.037L389.373,23.701z"/>
			</g>
		</g>
	</g>
</g>
</svg>
