<?xml version="1.0" encoding="utf-8"?>

<!DOCTYPE svg PUBLIC "-//W3C//DTD SVG 1.1//EN" "http://www.w3.org/Graphics/SVG/1.1/DTD/svg11.dtd">
<svg version="1.1" id="Layer_1" xmlns="http://www.w3.org/2000/svg" xmlns:xlink="http://www.w3.org/1999/xlink" x="0px" y="0px"
	 width="502px" height="207px" viewBox="0 0 502 207" enable-background="new 0 0 502 207" xml:space="preserve">

<defs>
	<style type="text/css">
	text {
	  font-family: Helvetica, Verdana, ArialUnicodeMS, san-serif
	}
	</style>
</defs>

<g>
   <desc>
	PS3.5 Part 5: Data Structures and Encoding
   </desc>
</g>

<g>
	<rect x="1" y="1" fill="#F5EED6" width="500" height="205"/>
	<g>
		<rect x="122.292" y="29.021" fill="#CCDEF0" stroke="#010101" stroke-miterlimit="1" width="257.417" height="162.028"/>
		<g>
			<text transform="matrix(0.8815 0 0 1 122.292 25.7021)" font-size="11">Example 3: Pixel and Overlay Data Cells</text>
		</g>
		<g>
			<text transform="matrix(0.8815 0 0 1 136.7061 151.3379)"><tspan x="0" y="0" font-size="11">Bits Allocated = 8</tspan><tspan x="0" y="13.199" font-size="11">Bits Stored = 6</tspan><tspan x="0" y="26.399" font-size="11">High Bit = 5</tspan></text>
		</g>
		<rect x="281.707" y="62.501" fill="#FFFFFF" stroke="#010101" stroke-miterlimit="1" width="14.4" height="14.4"/>
		<rect x="267.207" y="62.501" fill="#4F8ABE" stroke="#010101" stroke-miterlimit="1" width="14.4" height="14.4"/>
		<rect x="252.707" y="62.501" fill="#4F8ABE" stroke="#010101" stroke-miterlimit="1" width="14.4" height="14.4"/>
		<rect x="238.206" y="62.501" fill="#FFFFFF" stroke="#010101" stroke-miterlimit="1" width="14.401" height="14.4"/>
		<rect x="223.706" y="62.501" fill="#FFFFFF" stroke="#010101" stroke-miterlimit="1" width="14.4" height="14.4"/>
		<rect x="209.101" y="62.501" fill="#FFFFFF" stroke="#010101" stroke-miterlimit="1" width="14.4" height="14.4"/>
		<rect x="194.706" y="62.501" fill="#FFFFFF" stroke="#010101" stroke-miterlimit="1" width="14.4" height="14.4"/>
		<rect x="180.206" y="62.501" fill="#FFFFFF" stroke="#010101" stroke-miterlimit="1" width="14.4" height="14.4"/>
		<rect x="165.706" y="62.501" fill="#FFFFFF" stroke="#010101" stroke-miterlimit="1" width="14.4" height="14.4"/>
		<rect x="151.206" y="62.501" fill="#4F8ABE" stroke="#010101" stroke-miterlimit="1" width="14.4" height="14.4"/>
		<rect x="136.706" y="62.501" fill="#4F8ABE" stroke="#010101" stroke-miterlimit="1" width="14.4" height="14.4"/>
		<rect x="339.707" y="62.501" fill="#FFFFFF" stroke="#010101" stroke-miterlimit="1" width="14.4" height="14.4"/>
		<rect x="325.207" y="62.501" fill="#FFFFFF" stroke="#010101" stroke-miterlimit="1" width="14.4" height="14.4"/>
		<rect x="310.707" y="62.501" fill="#FFFFFF" stroke="#010101" stroke-miterlimit="1" width="14.4" height="14.4"/>
		<rect x="296.207" y="62.501" fill="#FFFFFF" stroke="#010101" stroke-miterlimit="1" width="14.4" height="14.4"/>
		<g>
			<g>
				<text transform="matrix(0.8815 0 0 1 344.4541 72.4912)" font-size="10">1</text>
			</g>
		</g>
		<rect x="354.107" y="62.501" fill="#FFFFFF" stroke="#010101" stroke-miterlimit="1" width="14.4" height="14.4"/>
		<g>
			<g>
				<text transform="matrix(0.8815 0 0 1 358.8545 72.4912)" font-size="10">0</text>
			</g>
		</g>
		<g>
			<g>
				<text transform="matrix(0.8815 0 0 1 330.4844 72.4912)" font-size="10">2</text>
			</g>
		</g>
		<g>
			<g>
				<text transform="matrix(0.8815 0 0 1 315.8926 72.4912)" font-size="10">3</text>
			</g>
		</g>
		<g>
			<g>
				<text transform="matrix(0.8815 0 0 1 301.2979 72.4912)" font-size="10">4</text>
			</g>
		</g>
		<g>
			<g>
				<text transform="matrix(0.8815 0 0 1 286.707 72.4912)" font-size="10">5</text>
			</g>
		</g>
		<g>
			<g>
				<text transform="matrix(0.8815 0 0 1 295.6895 52.1377)" font-size="10">Pixel Sample 1</text>
			</g>
		</g>
		<g>
			<g>
				<text transform="matrix(0.8815 0 0 1 211.3989 72.4912)" fill="#312A35" font-size="10">10</text>
			</g>
		</g>
		<g>
			<g>
				<text transform="matrix(0.8815 0 0 1 139.0024 72.4912)" font-size="10">15</text>
			</g>
		</g>
		<g>
			<g>
				<text transform="matrix(0.8815 0 0 1 153.5044 72.4912)" font-size="10">14</text>
			</g>
		</g>
		<g>
			<g>
				<text transform="matrix(0.8815 0 0 1 168.0039 72.4912)" font-size="10">13</text>
			</g>
		</g>
		<g>
			<g>
				<text transform="matrix(0.8815 0 0 1 182.5044 72.4912)" font-size="10">12</text>
			</g>
		</g>
		<g>
			<g>
				<text transform="matrix(0.8815 0 0 1 197.0039 72.4912)" font-size="10">11</text>
			</g>
		</g>
		<g>
			<g>
				<text transform="matrix(0.8815 0 0 1 228.4556 72.4912)" font-size="10">9</text>
			</g>
		</g>
		<g>
			<g>
				<text transform="matrix(0.8815 0 0 1 242.9561 72.4912)" font-size="10">8</text>
			</g>
		</g>
		<g>
			<g>
				<text transform="matrix(0.8815 0 0 1 257.4551 72.4912)" font-size="10">7</text>
			</g>
		</g>
		<g>
			<g>
				<text transform="matrix(0.8815 0 0 1 271.9561 72.4912)" font-size="10">6</text>
			</g>
		</g>
		<g>
			<g>
				<line fill="none" stroke="#010101" stroke-miterlimit="1" x1="361.223" y1="55.907" x2="290.611" y2="55.907"/>
				<path fill="#010101" d="M288.25,56.932c1.653,0.5,2.728,0.959,4.054,1.492v-5.044c-0.475,0.226-2.4,0.993-4.054,1.492
					c-1.77,0.535-3.374,0.9-4.415,1.031C284.876,56.032,286.48,56.397,288.25,56.932z"/>
				<path fill="#010101" d="M363.584,54.882c-1.652-0.5-2.728-0.959-4.054-1.492v5.044c0.475-0.226,2.401-0.993,4.054-1.492
					c1.77-0.535,3.375-0.9,4.415-1.031C366.959,55.782,365.354,55.416,363.584,54.882z"/>
			</g>
		</g>
		<rect x="281.707" y="111.49" fill="#FFFFFF" stroke="#010101" stroke-miterlimit="1" width="14.4" height="14.398"/>
		<rect x="267.207" y="111.49" fill="#4F8ABE" stroke="#010101" stroke-miterlimit="1" width="14.4" height="14.398"/>
		<rect x="252.707" y="111.49" fill="#4F8ABE" stroke="#010101" stroke-miterlimit="1" width="14.4" height="14.398"/>
		<rect x="238.206" y="111.49" fill="#FFFFFF" stroke="#010101" stroke-miterlimit="1" width="14.401" height="14.398"/>
		<rect x="223.706" y="111.49" fill="#FFFFFF" stroke="#010101" stroke-miterlimit="1" width="14.4" height="14.398"/>
		<rect x="209.101" y="111.49" fill="#FFFFFF" stroke="#010101" stroke-miterlimit="1" width="14.4" height="14.398"/>
		<rect x="194.706" y="111.49" fill="#FFFFFF" stroke="#010101" stroke-miterlimit="1" width="14.4" height="14.398"/>
		<rect x="180.206" y="111.49" fill="#FFFFFF" stroke="#010101" stroke-miterlimit="1" width="14.4" height="14.398"/>
		<rect x="165.706" y="111.49" fill="#FFFFFF" stroke="#010101" stroke-miterlimit="1" width="14.4" height="14.398"/>
		<rect x="151.206" y="111.49" fill="#4F8ABE" stroke="#010101" stroke-miterlimit="1" width="14.4" height="14.398"/>
		<rect x="136.706" y="111.49" fill="#4F8ABE" stroke="#010101" stroke-miterlimit="1" width="14.4" height="14.398"/>
		<rect x="339.707" y="111.49" fill="#FFFFFF" stroke="#010101" stroke-miterlimit="1" width="14.4" height="14.398"/>
		<rect x="325.207" y="111.49" fill="#FFFFFF" stroke="#010101" stroke-miterlimit="1" width="14.4" height="14.398"/>
		<rect x="310.707" y="111.49" fill="#FFFFFF" stroke="#010101" stroke-miterlimit="1" width="14.4" height="14.398"/>
		<rect x="296.207" y="111.49" fill="#FFFFFF" stroke="#010101" stroke-miterlimit="1" width="14.4" height="14.398"/>
		<g>
			<g>
				<text transform="matrix(0.8815 0 0 1 344.4541 121.4805)" font-size="10">1</text>
			</g>
		</g>
		<rect x="354.107" y="111.49" fill="#FFFFFF" stroke="#010101" stroke-miterlimit="1" width="14.4" height="14.398"/>
		<g>
			<g>
				<text transform="matrix(0.8815 0 0 1 358.8545 121.4805)" font-size="10">0</text>
			</g>
		</g>
		<g>
			<g>
				<text transform="matrix(0.8815 0 0 1 330.4844 121.4805)" font-size="10">2</text>
			</g>
		</g>
		<g>
			<g>
				<text transform="matrix(0.8815 0 0 1 315.8926 121.4805)" font-size="10">3</text>
			</g>
		</g>
		<g>
			<g>
				<text transform="matrix(0.8815 0 0 1 301.2979 121.4805)" font-size="10">4</text>
			</g>
		</g>
		<g>
			<g>
				<text transform="matrix(0.8815 0 0 1 286.707 121.4805)" font-size="10">5</text>
			</g>
		</g>
		<g>
			<g>
				<text transform="matrix(0.8815 0 0 1 295.6895 101.126)" font-size="10">Pixel Sample 3</text>
			</g>
		</g>
		<g>
			<g>
				<text transform="matrix(0.8815 0 0 1 211.3989 121.4805)" fill="#312A35" font-size="10">10</text>
			</g>
		</g>
		<g>
			<g>
				<text transform="matrix(0.8815 0 0 1 139.0024 121.4805)" font-size="10">15</text>
			</g>
		</g>
		<g>
			<g>
				<text transform="matrix(0.8815 0 0 1 153.5044 121.4805)" font-size="10">14</text>
			</g>
		</g>
		<g>
			<g>
				<text transform="matrix(0.8815 0 0 1 168.0039 121.4805)" font-size="10">13</text>
			</g>
		</g>
		<g>
			<g>
				<text transform="matrix(0.8815 0 0 1 182.5044 121.4805)" font-size="10">12</text>
			</g>
		</g>
		<g>
			<g>
				<text transform="matrix(0.8815 0 0 1 197.0039 121.4805)" font-size="10">11</text>
			</g>
		</g>
		<g>
			<g>
				<text transform="matrix(0.8815 0 0 1 228.4556 121.4805)" font-size="10">9</text>
			</g>
		</g>
		<g>
			<g>
				<text transform="matrix(0.8815 0 0 1 242.9561 121.4805)" font-size="10">8</text>
			</g>
		</g>
		<g>
			<g>
				<text transform="matrix(0.8815 0 0 1 257.4551 121.4805)" font-size="10">7</text>
			</g>
		</g>
		<g>
			<g>
				<text transform="matrix(0.8815 0 0 1 271.9561 121.4805)" font-size="10">6</text>
			</g>
		</g>
		<g>
			<g>
				<line fill="none" stroke="#010101" stroke-miterlimit="1" x1="361.223" y1="104.896" x2="290.611" y2="104.896"/>
				<path fill="#010101" d="M288.25,105.92c1.653,0.5,2.728,0.96,4.054,1.492v-5.044c-0.475,0.226-2.4,0.993-4.054,1.492
					c-1.77,0.535-3.374,0.9-4.415,1.031C284.876,105.021,286.48,105.387,288.25,105.92z"/>
				<path fill="#010101" d="M363.584,103.871c-1.652-0.5-2.728-0.959-4.054-1.492v5.045c0.475-0.227,2.401-0.993,4.054-1.492
					c1.77-0.535,3.375-0.9,4.415-1.031C366.959,104.771,365.354,104.405,363.584,103.871z"/>
			</g>
		</g>
		<g>
			<g>
				<text transform="matrix(0.8815 0 0 1 180.0225 52.1377)" font-size="10">Pixel Sample 2</text>
			</g>
		</g>
		<g>
			<g>
				<line fill="none" stroke="#010101" stroke-miterlimit="1" x1="245.556" y1="55.907" x2="174.944" y2="55.907"/>
				<path fill="#010101" d="M172.583,56.932c1.653,0.5,2.728,0.959,4.054,1.492v-5.044c-0.475,0.226-2.401,0.993-4.054,1.492
					c-1.77,0.535-3.374,0.9-4.415,1.031C169.208,56.032,170.813,56.397,172.583,56.932z"/>
				<path fill="#010101" d="M247.917,54.882c-1.653-0.5-2.728-0.959-4.054-1.492v5.044c0.475-0.226,2.401-0.993,4.054-1.492
					c1.77-0.535,3.374-0.9,4.415-1.031C251.292,55.782,249.687,55.416,247.917,54.882z"/>
			</g>
		</g>
		<g>
			<g>
				<text transform="matrix(0.8815 0 0 1 180.0225 101.126)" font-size="10">Pixel Sample 4</text>
			</g>
		</g>
		<g>
			<g>
				<line fill="none" stroke="#010101" stroke-miterlimit="1" x1="245.556" y1="104.896" x2="174.944" y2="104.896"/>
				<path fill="#010101" d="M172.583,105.92c1.653,0.5,2.728,0.96,4.054,1.492v-5.044c-0.475,0.226-2.401,0.993-4.054,1.492
					c-1.77,0.535-3.374,0.9-4.415,1.031C169.208,105.021,170.813,105.387,172.583,105.92z"/>
				<path fill="#010101" d="M247.917,103.871c-1.653-0.5-2.728-0.959-4.054-1.492v5.045c0.475-0.227,2.401-0.993,4.054-1.492
					c1.77-0.535,3.374-0.9,4.415-1.031C251.292,104.771,249.687,104.405,247.917,103.871z"/>
			</g>
		</g>
	</g>
</g>
</svg>
