<?xml version="1.0" encoding="utf-8"?>

<!DOCTYPE svg PUBLIC "-//W3C//DTD SVG 1.1//EN" "http://www.w3.org/Graphics/SVG/1.1/DTD/svg11.dtd">
<svg version="1.1" id="Layer_1" xmlns="http://www.w3.org/2000/svg" xmlns:xlink="http://www.w3.org/1999/xlink" x="0px" y="0px"
	 width="502px" height="177px" viewBox="0 0 502 177" enable-background="new 0 0 502 177" xml:space="preserve">

<defs>
	<style type="text/css">
	text {
	  font-family: Helvetica, Verdana, ArialUnicodeMS, san-serif
	}
	</style>
</defs>

<g>
   <desc>
	PS3.5 Part 5: Data Structures and Encoding
   </desc>
</g>

<g>
	<rect x="1" y="1" fill="#F5EED6" width="500" height="175"/>
	<g>
		<rect x="163.598" y="94.686" fill="#B2CEE7" width="174.805" height="13.03"/>
		<rect x="163.598" y="120.938" fill="#B2CEE7" width="174.805" height="13.03"/>
		<rect x="163.598" y="133.969" fill="#B2CEE7" width="174.805" height="13.03"/>
		<rect x="163.598" y="147.604" fill="#B2CEE7" width="174.805" height="13.03"/>
		<rect x="163.438" y="82.16" fill="#B2CEE7" width="175.125" height="13.03"/>
		<rect x="163.438" y="108.22" fill="#B2CEE7" width="175.125" height="13.031"/>
		<rect x="163.437" y="29.13" fill="#B2CEE7" width="175.128" height="13.03"/>
		<rect x="163.598" y="16.1" fill="#B2CEE7" width="174.805" height="13.03"/>
		<rect x="163.437" y="55.19" fill="#B2CEE7" width="175.128" height="13.029"/>
		<rect x="163.598" y="42.16" fill="#B2CEE7" width="174.805" height="13.03"/>
		<rect x="163.598" y="68.22" fill="#B2CEE7" width="174.805" height="13.031"/>
		<g>
			<text transform="matrix(0.8815 0 0 1 200.2856 26.7998)" font-size="10">number of RLE Segments</text>
		</g>
		<g>
			<text transform="matrix(0.8815 0 0 1 193.0527 39.7109)" font-size="10">offset of RLE Segment 1 = 64</text>
		</g>
		<g>
			<text transform="matrix(0.8815 0 0 1 202.978 52.7925)" font-size="10">offset of RLE Segment 2</text>
		</g>
		<g>
			<text transform="matrix(0.8815 0 0 1 202.978 65.5811)" font-size="10">offset of RLE Segment 3</text>
		</g>
		<g>
			<text transform="matrix(0.8815 0 0 1 247.3262 78.8525)" font-size="10">...</text>
		</g>
		<g>
			<text transform="matrix(0.8815 0 0 1 247.3262 92.126)" font-size="10">...</text>
		</g>
		<g>
			<text transform="matrix(0.8815 0 0 1 247.3267 104.168)" font-size="10">...</text>
		</g>
		<g>
			<text transform="matrix(0.8815 0 0 1 248.5488 132.29)" font-size="10">0</text>
		</g>
		<g>
			<text transform="matrix(0.8815 0 0 1 248.5488 145.5635)" font-size="10">0</text>
		</g>
		<g>
			<text transform="matrix(0.8815 0 0 1 248.5493 157.6055)" font-size="10">0</text>
		</g>
		<g>
			<text transform="matrix(0.8815 0 0 1 202.2466 117.4385)" font-size="10">offset of RLE Segment N</text>
		</g>
		<line fill="#FFFFFF" stroke="#010101" stroke-miterlimit="1" x1="163.598" y1="107.784" x2="338.402" y2="107.784"/>
		<line fill="#FFFFFF" stroke="#010101" stroke-miterlimit="1" x1="163.598" y1="94.687" x2="338.402" y2="94.687"/>
		<line fill="#FFFFFF" stroke="#010101" stroke-miterlimit="1" x1="163.598" y1="81.589" x2="338.402" y2="81.589"/>
		<line fill="#FFFFFF" stroke="#010101" stroke-miterlimit="1" x1="163.598" y1="68.491" x2="338.402" y2="68.491"/>
		<line fill="#FFFFFF" stroke="#010101" stroke-miterlimit="1" x1="163.598" y1="55.393" x2="338.402" y2="55.393"/>
		<line fill="#FFFFFF" stroke="#010101" stroke-miterlimit="1" x1="163.598" y1="42.295" x2="338.402" y2="42.295"/>
		<line fill="#FFFFFF" stroke="#010101" stroke-miterlimit="1" x1="163.598" y1="29.197" x2="338.402" y2="29.197"/>
		<g>
			<rect x="163.564" y="16.1" fill="none" stroke="#000000" stroke-miterlimit="1" width="174.871" height="144.505"/>
			<line fill="none" stroke="#000000" stroke-miterlimit="1" x1="163.564" y1="147.48" x2="338.436" y2="147.48"/>
			<line fill="none" stroke="#000000" stroke-miterlimit="1" x1="163.564" y1="134.321" x2="338.436" y2="134.321"/>
			<line fill="none" stroke="#000000" stroke-miterlimit="1" x1="163.564" y1="121.197" x2="338.436" y2="121.197"/>
			<line fill="none" stroke="#000000" stroke-miterlimit="1" x1="163.564" y1="108.073" x2="338.436" y2="108.073"/>
			<line fill="none" stroke="#000000" stroke-miterlimit="1" x1="163.564" y1="94.914" x2="338.436" y2="94.914"/>
			<line fill="none" stroke="#000000" stroke-miterlimit="1" x1="163.564" y1="81.79" x2="338.436" y2="81.79"/>
			<line fill="none" stroke="#000000" stroke-miterlimit="1" x1="163.564" y1="68.631" x2="338.436" y2="68.631"/>
			<line fill="none" stroke="#000000" stroke-miterlimit="1" x1="163.564" y1="55.507" x2="338.436" y2="55.507"/>
			<line fill="none" stroke="#000000" stroke-miterlimit="1" x1="163.564" y1="42.383" x2="338.436" y2="42.383"/>
			<line fill="none" stroke="#000000" stroke-miterlimit="1" x1="163.564" y1="29.224" x2="338.436" y2="29.224"/>
		</g>
	</g>
</g>
</svg>
