<?xml version="1.0" encoding="utf-8"?>

<!DOCTYPE svg PUBLIC "-//W3C//DTD SVG 1.1//EN" "http://www.w3.org/Graphics/SVG/1.1/DTD/svg11.dtd">
<svg version="1.1" id="Layer_1" xmlns="http://www.w3.org/2000/svg" xmlns:xlink="http://www.w3.org/1999/xlink" x="0px" y="0px"
	 width="502px" height="472px" viewBox="0 0 502 472" enable-background="new 0 0 502 472" xml:space="preserve">

<defs>
	<style type="text/css">
	text {
	  font-family: Helvetica, Verdana, ArialUnicodeMS, san-serif
	}
	</style>
</defs>

<g>
   <desc>
	PS3.5 Part 5: Data Structures and Encoding
   </desc>
</g>

<g>
	<rect x="1" y="1" fill="#F5EED6" width="500" height="470"/>
	<g>
		<g>
			<g>
				<g>
					<rect x="102.729" y="28.286" fill="#CCDEF0" stroke="#010101" stroke-miterlimit="1" width="296.542" height="176.519"/>
					<line fill="#6799C8" stroke="#010101" stroke-miterlimit="1" x1="175.044" y1="65.366" x2="175.044" y2="50.965"/>
					<line fill="#6799C8" stroke="#010101" stroke-miterlimit="1" x1="117.144" y1="50.965" x2="117.144" y2="65.366"/>
					<line fill="#FFFFFF" stroke="#010101" stroke-miterlimit="1" x1="348.945" y1="65.366" x2="348.945" y2="50.965"/>
					<g>
						<g>
							<text transform="matrix(0.8815 0 0 1 102.7295 24.9663)" font-size="11">Example 1: CT Pixel Data Value</text>
						</g>
					</g>
					<g>
						<g>
							<text transform="matrix(0.8815 0 0 1 117.1445 177.9351)"><tspan x="0" y="0" font-size="11">MSb = Most Significant Bit</tspan><tspan x="0" y="13.2" font-size="11">LSb = Least Significant Bit</tspan></text>
						</g>
					</g>
					<rect x="117.144" y="65.513" fill="#6799C8" stroke="#010101" stroke-miterlimit="1" width="57.9" height="14.4"/>
					<rect x="175.044" y="65.513" fill="#FFFFFF" stroke="#010101" stroke-miterlimit="1" width="173.901" height="14.4"/>
					<rect x="117.144" y="79.914" fill="#6799C8" stroke="#010101" stroke-miterlimit="1" width="57.9" height="14.4"/>
					<rect x="175.044" y="79.914" fill="#FFFFFF" stroke="#010101" stroke-miterlimit="1" width="173.915" height="14.4"/>
					<rect x="117.144" y="94.314" fill="#6799C8" stroke="#010101" stroke-miterlimit="1" width="57.9" height="14.4"/>
					<rect x="175.044" y="94.314" fill="#FFFFFF" stroke="#010101" stroke-miterlimit="1" width="173.915" height="14.4"/>
					<rect x="117.144" y="108.714" fill="#6799C8" stroke="#010101" stroke-miterlimit="1" width="57.9" height="14.4"/>
					<rect x="175.044" y="108.714" fill="#FFFFFF" stroke="#010101" stroke-miterlimit="1" width="173.915" height="14.4"/>
					<rect x="117.144" y="123.115" fill="#6799C8" stroke="#010101" stroke-miterlimit="1" width="57.9" height="14.4"/>
					<rect x="175.044" y="123.115" fill="#FFFFFF" stroke="#010101" stroke-miterlimit="1" width="173.915" height="14.4"/>
					<rect x="117.144" y="137.515" fill="#6799C8" stroke="#010101" stroke-miterlimit="1" width="57.9" height="14.4"/>
					<rect x="175.044" y="137.515" fill="#FFFFFF" stroke="#010101" stroke-miterlimit="1" width="173.915" height="14.4"/>
					<g>
						<g>
							<text transform="matrix(0.8815 0 0 1 226.4468 75.4683)" font-size="10">Pixel Sample 1</text>
						</g>
					</g>
					<g>
						<g>
							<text transform="matrix(0.8815 0 0 1 226.4468 90.1353)" font-size="10">Pixel Sample 2</text>
						</g>
					</g>
					<g>
						<g>
							<text transform="matrix(0.8815 0 0 1 226.4468 104.8022)" font-size="10">Pixel Sample 3</text>
						</g>
					</g>
					<g>
						<g>
							<text transform="matrix(0.8815 0 0 1 252.1719 119.3853)" font-size="10">...</text>
						</g>
					</g>
					<g>
						<g>
							<text transform="matrix(0.8815 0 0 1 252.1719 134.0522)" font-size="10">...</text>
						</g>
					</g>
					<g>
						<g>
							<text transform="matrix(0.8815 0 0 1 329.7461 75.4683)" font-size="10">LSb</text>
						</g>
					</g>
					<g>
						<g>
							<text transform="matrix(0.8815 0 0 1 329.7461 90.1353)" font-size="10">LSb</text>
						</g>
					</g>
					<g>
						<g>
							<text transform="matrix(0.8815 0 0 1 329.7461 104.8022)" font-size="10">LSb</text>
						</g>
					</g>
					<g>
						<g>
							<text transform="matrix(0.8815 0 0 1 356.2461 75.4683)" font-size="10">Word 0</text>
						</g>
					</g>
					<g>
						<g>
							<text transform="matrix(0.8815 0 0 1 356.2461 90.1353)" font-size="10">Word 1</text>
						</g>
					</g>
					<g>
						<g>
							<text transform="matrix(0.8815 0 0 1 356.2461 104.8022)" font-size="10">Word 2</text>
						</g>
					</g>
					<g>
						<g>
							<text transform="matrix(0.8815 0 0 1 178.1455 75.4683)" font-size="10">MSb</text>
						</g>
					</g>
					<g>
						<g>
							<text transform="matrix(0.8815 0 0 1 178.1455 90.1353)" font-size="10">MSb</text>
						</g>
					</g>
					<g>
						<g>
							<text transform="matrix(0.8815 0 0 1 178.1455 104.8022)" font-size="10">MSb</text>
						</g>
					</g>
				</g>
				<g>
					<g>
						<text transform="matrix(0.8815 0 0 1 324.8086 60.687)" font-size="10">1</text>
					</g>
					<g>
						<text transform="matrix(0.8815 0 0 1 339.209 60.687)" font-size="10">0</text>
					</g>
					<g>
						<text transform="matrix(0.8815 0 0 1 310.8398 60.687)" font-size="10">2</text>
					</g>
					<g>
						<text transform="matrix(0.8815 0 0 1 296.248 60.687)" font-size="10">3</text>
					</g>
					<g>
						<text transform="matrix(0.8815 0 0 1 281.6523 60.687)" font-size="10">4</text>
					</g>
					<g>
						<text transform="matrix(0.8815 0 0 1 267.0625 60.687)" font-size="10">5</text>
					</g>
					<g>
						<text transform="matrix(0.8815 0 0 1 191.7539 60.687)" fill="#312A35" font-size="10">10</text>
					</g>
					<g>
						<text transform="matrix(0.8815 0 0 1 119.3574 60.687)" font-size="10">15</text>
					</g>
					<g>
						<text transform="matrix(0.8815 0 0 1 133.8594 60.687)" font-size="10">14</text>
					</g>
					<g>
						<text transform="matrix(0.8815 0 0 1 148.3589 60.687)" font-size="10">13</text>
					</g>
					<g>
						<text transform="matrix(0.8815 0 0 1 162.8594 60.687)" font-size="10">12</text>
					</g>
					<g>
						<text transform="matrix(0.8815 0 0 1 177.3589 60.687)" font-size="10">11</text>
					</g>
					<g>
						<text transform="matrix(0.8815 0 0 1 208.8105 60.687)" font-size="10">9</text>
					</g>
					<g>
						<text transform="matrix(0.8815 0 0 1 223.311 60.687)" font-size="10">8</text>
					</g>
					<g>
						<text transform="matrix(0.8815 0 0 1 237.8105 60.687)" font-size="10">7</text>
					</g>
					<g>
						<text transform="matrix(0.8815 0 0 1 252.3105 60.687)" font-size="10">6</text>
					</g>
				</g>
			</g>
			<g>
				<rect x="102.729" y="264.285" fill="#CCDEF0" stroke="#010101" stroke-miterlimit="1" width="296.542" height="192.5"/>
				
					<rect x="117.144" y="373.586" fill="#6799C8" stroke="#010101" stroke-linecap="round" stroke-linejoin="round" stroke-miterlimit="1" width="58" height="14.498"/>
				
					<rect x="175.144" y="373.586" fill="#9D9FA2" stroke="#010101" stroke-linecap="round" stroke-linejoin="round" stroke-miterlimit="1" width="173.802" height="14.498"/>
				<g>
					<g>
						<text transform="matrix(0.8815 0 0 1 215.564 383.582)" font-size="10">Pixel Sample 4</text>
					</g>
				</g>
				<g>
					<g>
						<text transform="matrix(0.8815 0 0 1 178.3125 383.7344)" font-size="10">MSb</text>
					</g>
				</g>
				<g>
					<g>
						<text transform="matrix(0.8815 0 0 1 324.8086 296.6875)" font-size="10">1</text>
					</g>
					<g>
						<text transform="matrix(0.8815 0 0 1 339.209 296.6875)" font-size="10">0</text>
					</g>
					<g>
						<text transform="matrix(0.8815 0 0 1 310.8398 296.6875)" font-size="10">2</text>
					</g>
					<g>
						<text transform="matrix(0.8815 0 0 1 296.248 296.6875)" font-size="10">3</text>
					</g>
					<g>
						<text transform="matrix(0.8815 0 0 1 281.6523 296.6875)" font-size="10">4</text>
					</g>
					<g>
						<text transform="matrix(0.8815 0 0 1 267.0625 296.6875)" font-size="10">5</text>
					</g>
					<g>
						<text transform="matrix(0.8815 0 0 1 191.7539 296.6875)" fill="#312A35" font-size="10">10</text>
					</g>
					<g>
						<text transform="matrix(0.8815 0 0 1 119.3574 296.6875)" font-size="10">15</text>
					</g>
					<g>
						<text transform="matrix(0.8815 0 0 1 133.8594 296.6875)" font-size="10">14</text>
					</g>
					<g>
						<text transform="matrix(0.8815 0 0 1 148.3589 296.6875)" font-size="10">13</text>
					</g>
					<g>
						<text transform="matrix(0.8815 0 0 1 162.8594 296.6875)" font-size="10">12</text>
					</g>
					<g>
						<text transform="matrix(0.8815 0 0 1 177.3589 296.6875)" font-size="10">11</text>
					</g>
					<g>
						<text transform="matrix(0.8815 0 0 1 208.8105 296.6875)" font-size="10">9</text>
					</g>
					<g>
						<text transform="matrix(0.8815 0 0 1 223.311 296.6875)" font-size="10">8</text>
					</g>
					<g>
						<text transform="matrix(0.8815 0 0 1 237.8105 296.6875)" font-size="10">7</text>
					</g>
					<g>
						<text transform="matrix(0.8815 0 0 1 252.3105 296.6875)" font-size="10">6</text>
					</g>
				</g>
				<line fill="#6799C8" stroke="#010101" stroke-miterlimit="1" x1="117.144" y1="286.965" x2="117.144" y2="301.365"/>
				<line fill="#FFFFFF" stroke="#010101" stroke-miterlimit="1" x1="348.945" y1="301.365" x2="348.945" y2="286.965"/>
				<g>
					<g>
						<text transform="matrix(0.8815 0 0 1 102.7295 260.9668)" font-size="11">Example 2: Hypothetical Pixel Data Value</text>
					</g>
				</g>
				<g>
					<g>
						<text transform="matrix(0.8815 0 0 1 117.1445 430.1348)"><tspan x="0" y="0" font-size="11">MSb = Most Significant Bit</tspan><tspan x="0" y="13.2" font-size="11">LSb = Least Significant Bit</tspan></text>
					</g>
				</g>
				<g>
					<g>
						<text transform="matrix(0.8815 0 0 1 356.2461 311.4688)" font-size="10">Word 0</text>
					</g>
				</g>
				<g>
					<g>
						<text transform="matrix(0.8815 0 0 1 356.2461 326.1348)" font-size="10">Word 1</text>
					</g>
				</g>
				<g>
					<g>
						<text transform="matrix(0.8815 0 0 1 356.2461 340.8027)" font-size="10">Word 2</text>
					</g>
				</g>
				<g>
					<g>
						<text transform="matrix(0.8815 0 0 1 356.2461 355.6348)" font-size="10">Word 3</text>
					</g>
				</g>
				<g>
					<g>
						<text transform="matrix(0.8815 0 0 1 356.2461 370.3027)" font-size="10">Word 4</text>
					</g>
				</g>
				
					<rect x="320.045" y="301.484" fill="#6799C8" stroke="#010101" stroke-linecap="round" stroke-linejoin="round" stroke-miterlimit="1" width="28.9" height="14.4"/>
				
					<rect x="320.043" y="344.783" fill="#6799C8" stroke="#010101" stroke-linecap="round" stroke-linejoin="round" stroke-miterlimit="1" width="28.902" height="14.402"/>
				
					<rect x="291.043" y="359.186" fill="#BCBEC0" stroke="#010101" stroke-linecap="round" stroke-linejoin="round" stroke-miterlimit="1" width="57.902" height="14.4"/>
				
					<rect x="204.243" y="359.186" fill="#6799C8" stroke="#010101" stroke-linecap="round" stroke-linejoin="round" stroke-miterlimit="1" width="86.8" height="14.4"/>
				
					<rect x="117.144" y="359.186" fill="#9D9FA2" stroke="#010101" stroke-linecap="round" stroke-linejoin="round" stroke-miterlimit="1" width="87.1" height="14.301"/>
				
					<rect x="117.144" y="344.783" fill="#BCBEC0" stroke="#010101" stroke-linecap="round" stroke-linejoin="round" stroke-miterlimit="1" width="202.899" height="14.402"/>
				
					<rect x="117.144" y="330.285" fill="#6799C8" stroke="#010101" stroke-linecap="round" stroke-linejoin="round" stroke-miterlimit="1" width="58" height="14.498"/>
				
					<rect x="117.144" y="315.885" fill="#DCDDDE" stroke="#010101" stroke-linecap="round" stroke-linejoin="round" stroke-miterlimit="1" width="86.877" height="14.4"/>
				
					<rect x="204.021" y="315.885" fill="#6799C8" stroke="#010101" stroke-linecap="round" stroke-linejoin="round" stroke-miterlimit="1" width="87.022" height="14.4"/>
				
					<rect x="291.043" y="315.885" fill="#FFFFFF" stroke="#010101" stroke-linecap="round" stroke-linejoin="round" stroke-miterlimit="1" width="57.902" height="14.4"/>
				
					<rect x="117.144" y="301.484" fill="#FFFFFF" stroke="#010101" stroke-linecap="round" stroke-linejoin="round" stroke-miterlimit="1" width="202.901" height="14.4"/>
				
					<rect x="117.144" y="387.887" fill="#FFFFFF" stroke="#010101" stroke-linecap="round" stroke-linejoin="round" stroke-miterlimit="1" width="231.802" height="14.4"/>
				
					<rect x="175.144" y="330.285" fill="#DCDDDE" stroke="#010101" stroke-linecap="round" stroke-linejoin="round" stroke-miterlimit="1" width="173.802" height="14.498"/>
				<g>
					<g>
						<text transform="matrix(0.8815 0 0 1 215.564 311.5332)" font-size="10">Pixel Sample 1</text>
					</g>
				</g>
				<g>
					<g>
						<text transform="matrix(0.8815 0 0 1 300.9121 311.5332)" font-size="10">LSb</text>
					</g>
				</g>
				<g>
					<g>
						<text transform="matrix(0.8815 0 0 1 215.564 340.2812)" font-size="10">Pixel Sample 2</text>
					</g>
				</g>
				<g>
					<g>
						<text transform="matrix(0.8815 0 0 1 184.9126 326.0332)" font-size="10">LSb</text>
					</g>
				</g>
				<g>
					<g>
						<text transform="matrix(0.8815 0 0 1 294.8125 326.9336)" font-size="10">MSb</text>
					</g>
				</g>
				<g>
					<g>
						<text transform="matrix(0.8815 0 0 1 178.3125 340.4336)" font-size="10">MSb</text>
					</g>
				</g>
				<g>
					<g>
						<text transform="matrix(0.8815 0 0 1 215.564 355.3721)" font-size="10">Pixel Sample 3</text>
					</g>
				</g>
				<g>
					<g>
						<text transform="matrix(0.8815 0 0 1 300.9121 355.3721)" font-size="10">LSb</text>
					</g>
				</g>
				<g>
					<g>
						<text transform="matrix(0.8815 0 0 1 184.9126 370.2324)" font-size="10">LSb</text>
					</g>
				</g>
				<g>
					<g>
						<text transform="matrix(0.8815 0 0 1 294.8125 369.1699)" font-size="10">MSb</text>
					</g>
				</g>
				<g>
					<g>
						<text transform="matrix(0.8815 0 0 1 246.5977 394.4531)" font-size="10">...</text>
					</g>
				</g>
			</g>
		</g>
	</g>
</g>
</svg>
