<?xml version="1.0" encoding="utf-8"?>

<!DOCTYPE svg PUBLIC "-//W3C//DTD SVG 1.1//EN" "http://www.w3.org/Graphics/SVG/1.1/DTD/svg11.dtd">
<svg version="1.1" id="Layer_1" xmlns="http://www.w3.org/2000/svg" xmlns:xlink="http://www.w3.org/1999/xlink" x="0px" y="0px"
	 width="502px" height="222px" viewBox="0 0 502 222" enable-background="new 0 0 502 222" xml:space="preserve">

<defs>
	<style type="text/css">
	text {
	  font-family: Helvetica, Verdana, ArialUnicodeMS, san-serif
	}
	</style>
</defs>

<g>
   <desc>
	PS3.5 Part 5: Data Structures and Encoding
   </desc>
</g>

<g>
	<rect x="1" y="1" fill="#F5EED6" width="500" height="220"/>
	<g>
		<rect x="122.292" y="29.401" fill="#CCDEF0" stroke="#010101" stroke-miterlimit="1" width="257.417" height="176.269"/>
		<g>
			<g>
				<text transform="matrix(0.8815 0 0 1 122.292 26.082)" font-size="11">Example 1: Pixel and Overlay Data Cells</text>
			</g>
		</g>
		<g>
			<g>
				<text transform="matrix(0.8815 0 0 1 136.7061 166.1172)"><tspan x="0" y="0" font-size="11">Bits Allocated = 16</tspan><tspan x="0" y="13.201" font-size="11">Bits Stored = 12</tspan><tspan x="0" y="26.4" font-size="11">High Bit = 11</tspan></text>
			</g>
		</g>
		<g>
			<rect x="281.707" y="52.081" fill="#FFFFFF" stroke="#010101" stroke-miterlimit="1" width="14.4" height="14.4"/>
			<rect x="267.207" y="52.081" fill="#FFFFFF" stroke="#010101" stroke-miterlimit="1" width="14.4" height="14.4"/>
			<rect x="252.707" y="52.081" fill="#FFFFFF" stroke="#010101" stroke-miterlimit="1" width="14.4" height="14.4"/>
			<rect x="238.206" y="52.081" fill="#FFFFFF" stroke="#010101" stroke-miterlimit="1" width="14.401" height="14.4"/>
			<rect x="223.706" y="52.081" fill="#FFFFFF" stroke="#010101" stroke-miterlimit="1" width="14.4" height="14.4"/>
			<rect x="209.101" y="52.081" fill="#FFFFFF" stroke="#010101" stroke-miterlimit="1" width="14.4" height="14.4"/>
			<rect x="194.706" y="52.081" fill="#FFFFFF" stroke="#010101" stroke-miterlimit="1" width="14.4" height="14.4"/>
			<rect x="180.206" y="52.081" fill="#6799C8" stroke="#010101" stroke-miterlimit="1" width="14.4" height="14.4"/>
			<rect x="165.706" y="52.081" fill="#6799C8" stroke="#010101" stroke-miterlimit="1" width="14.4" height="14.4"/>
			<rect x="151.206" y="52.081" fill="#6799C8" stroke="#010101" stroke-miterlimit="1" width="14.4" height="14.4"/>
			<rect x="136.706" y="52.081" fill="#6799C8" stroke="#010101" stroke-miterlimit="1" width="14.4" height="14.4"/>
			<rect x="339.707" y="52.081" fill="#FFFFFF" stroke="#010101" stroke-miterlimit="1" width="14.4" height="14.4"/>
			<rect x="325.207" y="52.081" fill="#FFFFFF" stroke="#010101" stroke-miterlimit="1" width="14.4" height="14.4"/>
			<rect x="310.707" y="52.081" fill="#FFFFFF" stroke="#010101" stroke-miterlimit="1" width="14.4" height="14.4"/>
			<rect x="296.207" y="52.081" fill="#FFFFFF" stroke="#010101" stroke-miterlimit="1" width="14.4" height="14.4"/>
			<g>
				<g>
					<text transform="matrix(0.8815 0 0 1 344.4541 62.0713)" font-size="10">1</text>
				</g>
			</g>
			<rect x="354.107" y="52.081" fill="#FFFFFF" stroke="#010101" stroke-miterlimit="1" width="14.4" height="14.4"/>
			<g>
				<g>
					<text transform="matrix(0.8815 0 0 1 358.8545 62.0713)" font-size="10">0</text>
				</g>
			</g>
			<g>
				<g>
					<text transform="matrix(0.8815 0 0 1 330.4844 62.0713)" font-size="10">2</text>
				</g>
			</g>
			<g>
				<g>
					<text transform="matrix(0.8815 0 0 1 315.8926 62.0713)" font-size="10">3</text>
				</g>
			</g>
			<g>
				<g>
					<text transform="matrix(0.8815 0 0 1 301.2979 62.0713)" font-size="10">4</text>
				</g>
			</g>
			<g>
				<g>
					<text transform="matrix(0.8815 0 0 1 286.707 62.0713)" font-size="10">5</text>
				</g>
			</g>
			<g>
				<g>
					<text transform="matrix(0.8815 0 0 1 246.0093 48.9175)" font-size="10">Pixel Sample 1</text>
				</g>
			</g>
			<g>
				<g>
					<text transform="matrix(0.8815 0 0 1 211.3989 62.0713)" fill="#312A35" font-size="10">10</text>
				</g>
			</g>
			<g>
				<g>
					<text transform="matrix(0.8815 0 0 1 139.0024 62.0713)" font-size="10">15</text>
				</g>
			</g>
			<g>
				<g>
					<text transform="matrix(0.8815 0 0 1 153.5044 62.0713)" font-size="10">14</text>
				</g>
			</g>
			<g>
				<g>
					<text transform="matrix(0.8815 0 0 1 168.0039 62.0713)" font-size="10">13</text>
				</g>
			</g>
			<g>
				<g>
					<text transform="matrix(0.8815 0 0 1 182.5044 62.0713)" font-size="10">12</text>
				</g>
			</g>
			<g>
				<g>
					<text transform="matrix(0.8815 0 0 1 197.0039 62.0713)" font-size="10">11</text>
				</g>
			</g>
			<g>
				<g>
					<text transform="matrix(0.8815 0 0 1 228.4556 62.0713)" font-size="10">9</text>
				</g>
			</g>
			<g>
				<g>
					<text transform="matrix(0.8815 0 0 1 242.9561 62.0713)" font-size="10">8</text>
				</g>
			</g>
			<g>
				<g>
					<text transform="matrix(0.8815 0 0 1 257.4551 62.0713)" font-size="10">7</text>
				</g>
			</g>
			<g>
				<g>
					<text transform="matrix(0.8815 0 0 1 271.9561 62.0713)" font-size="10">6</text>
				</g>
			</g>
			<g>
				<g>
					<line fill="none" stroke="#010101" stroke-miterlimit="1" x1="242.251" y1="45.486" x2="203.24" y2="45.486"/>
					<path fill="#010101" d="M200.878,46.511c1.653,0.5,2.728,0.959,4.054,1.492v-5.044c-0.475,0.226-2.401,0.993-4.054,1.492
						c-1.77,0.535-3.374,0.9-4.415,1.031C197.504,45.611,199.109,45.977,200.878,46.511z"/>
				</g>
			</g>
			<g>
				<g>
					<line fill="none" stroke="#010101" stroke-miterlimit="1" x1="360.506" y1="45.486" x2="307.891" y2="45.486"/>
					<path fill="#010101" d="M362.867,44.461c-1.652-0.5-2.728-0.959-4.054-1.492v5.044c0.475-0.226,2.401-0.993,4.054-1.492
						c1.77-0.535,3.375-0.9,4.415-1.031C366.242,45.361,364.637,44.996,362.867,44.461z"/>
				</g>
			</g>
		</g>
		<g>
			<rect x="281.707" y="90.27" fill="#FFFFFF" stroke="#010101" stroke-miterlimit="1" width="14.4" height="14.4"/>
			<rect x="267.207" y="90.27" fill="#FFFFFF" stroke="#010101" stroke-miterlimit="1" width="14.4" height="14.4"/>
			<rect x="252.707" y="90.27" fill="#FFFFFF" stroke="#010101" stroke-miterlimit="1" width="14.4" height="14.4"/>
			<rect x="238.206" y="90.27" fill="#FFFFFF" stroke="#010101" stroke-miterlimit="1" width="14.401" height="14.4"/>
			<rect x="223.706" y="90.27" fill="#FFFFFF" stroke="#010101" stroke-miterlimit="1" width="14.4" height="14.4"/>
			<rect x="209.101" y="90.27" fill="#FFFFFF" stroke="#010101" stroke-miterlimit="1" width="14.4" height="14.4"/>
			<rect x="194.706" y="90.27" fill="#FFFFFF" stroke="#010101" stroke-miterlimit="1" width="14.4" height="14.4"/>
			<rect x="180.206" y="90.27" fill="#6799C8" stroke="#010101" stroke-miterlimit="1" width="14.4" height="14.4"/>
			<rect x="165.706" y="90.27" fill="#6799C8" stroke="#010101" stroke-miterlimit="1" width="14.4" height="14.4"/>
			<rect x="151.206" y="90.27" fill="#6799C8" stroke="#010101" stroke-miterlimit="1" width="14.4" height="14.4"/>
			<rect x="136.706" y="90.27" fill="#6799C8" stroke="#010101" stroke-miterlimit="1" width="14.4" height="14.4"/>
			<rect x="339.707" y="90.27" fill="#FFFFFF" stroke="#010101" stroke-miterlimit="1" width="14.4" height="14.4"/>
			<rect x="325.207" y="90.27" fill="#FFFFFF" stroke="#010101" stroke-miterlimit="1" width="14.4" height="14.4"/>
			<rect x="310.707" y="90.27" fill="#FFFFFF" stroke="#010101" stroke-miterlimit="1" width="14.4" height="14.4"/>
			<rect x="296.207" y="90.27" fill="#FFFFFF" stroke="#010101" stroke-miterlimit="1" width="14.4" height="14.4"/>
			<g>
				<g>
					<text transform="matrix(0.8815 0 0 1 344.4541 100.2598)" font-size="10">1</text>
				</g>
			</g>
			<rect x="354.107" y="90.27" fill="#FFFFFF" stroke="#010101" stroke-miterlimit="1" width="14.4" height="14.4"/>
			<g>
				<g>
					<text transform="matrix(0.8815 0 0 1 358.8545 100.2598)" font-size="10">0</text>
				</g>
			</g>
			<g>
				<g>
					<text transform="matrix(0.8815 0 0 1 330.4844 100.2598)" font-size="10">2</text>
				</g>
			</g>
			<g>
				<g>
					<text transform="matrix(0.8815 0 0 1 315.8926 100.2598)" font-size="10">3</text>
				</g>
			</g>
			<g>
				<g>
					<text transform="matrix(0.8815 0 0 1 301.2979 100.2598)" font-size="10">4</text>
				</g>
			</g>
			<g>
				<g>
					<text transform="matrix(0.8815 0 0 1 286.707 100.2598)" font-size="10">5</text>
				</g>
			</g>
			<g>
				<g>
					<text transform="matrix(0.8815 0 0 1 246.0093 87.106)" font-size="10">Pixel Sample 2</text>
				</g>
			</g>
			<g>
				<g>
					<text transform="matrix(0.8815 0 0 1 211.3989 100.2598)" fill="#312A35" font-size="10">10</text>
				</g>
			</g>
			<g>
				<g>
					<text transform="matrix(0.8815 0 0 1 139.0024 100.2598)" font-size="10">15</text>
				</g>
			</g>
			<g>
				<g>
					<text transform="matrix(0.8815 0 0 1 153.5044 100.2598)" font-size="10">14</text>
				</g>
			</g>
			<g>
				<g>
					<text transform="matrix(0.8815 0 0 1 168.0039 100.2598)" font-size="10">13</text>
				</g>
			</g>
			<g>
				<g>
					<text transform="matrix(0.8815 0 0 1 182.5044 100.2598)" font-size="10">12</text>
				</g>
			</g>
			<g>
				<g>
					<text transform="matrix(0.8815 0 0 1 197.0039 100.2598)" font-size="10">11</text>
				</g>
			</g>
			<g>
				<g>
					<text transform="matrix(0.8815 0 0 1 228.4556 100.2598)" font-size="10">9</text>
				</g>
			</g>
			<g>
				<g>
					<text transform="matrix(0.8815 0 0 1 242.9561 100.2598)" font-size="10">8</text>
				</g>
			</g>
			<g>
				<g>
					<text transform="matrix(0.8815 0 0 1 257.4551 100.2598)" font-size="10">7</text>
				</g>
			</g>
			<g>
				<g>
					<text transform="matrix(0.8815 0 0 1 271.9561 100.2598)" font-size="10">6</text>
				</g>
			</g>
			<g>
				<g>
					<line fill="none" stroke="#010101" stroke-miterlimit="1" x1="242.251" y1="83.675" x2="203.24" y2="83.675"/>
					<path fill="#010101" d="M200.878,84.7c1.653,0.5,2.728,0.959,4.054,1.492v-5.044c-0.475,0.226-2.401,0.993-4.054,1.492
						c-1.77,0.535-3.374,0.9-4.415,1.031C197.504,83.8,199.109,84.166,200.878,84.7z"/>
				</g>
			</g>
			<g>
				<g>
					<line fill="none" stroke="#010101" stroke-miterlimit="1" x1="360.506" y1="83.675" x2="307.891" y2="83.675"/>
					<path fill="#010101" d="M362.867,82.65c-1.652-0.5-2.728-0.959-4.054-1.492v5.044c0.475-0.226,2.401-0.993,4.054-1.492
						c1.77-0.535,3.375-0.9,4.415-1.031C366.242,83.55,364.637,83.184,362.867,82.65z"/>
				</g>
			</g>
		</g>
		<g>
			<rect x="281.707" y="128.458" fill="#FFFFFF" stroke="#010101" stroke-miterlimit="1" width="14.4" height="14.4"/>
			<rect x="267.207" y="128.458" fill="#FFFFFF" stroke="#010101" stroke-miterlimit="1" width="14.4" height="14.4"/>
			<rect x="252.707" y="128.458" fill="#FFFFFF" stroke="#010101" stroke-miterlimit="1" width="14.4" height="14.4"/>
			<rect x="238.206" y="128.458" fill="#FFFFFF" stroke="#010101" stroke-miterlimit="1" width="14.401" height="14.4"/>
			<rect x="223.706" y="128.458" fill="#FFFFFF" stroke="#010101" stroke-miterlimit="1" width="14.4" height="14.4"/>
			<rect x="209.101" y="128.458" fill="#FFFFFF" stroke="#010101" stroke-miterlimit="1" width="14.4" height="14.4"/>
			<rect x="194.706" y="128.458" fill="#FFFFFF" stroke="#010101" stroke-miterlimit="1" width="14.4" height="14.4"/>
			<rect x="180.206" y="128.458" fill="#6799C8" stroke="#010101" stroke-miterlimit="1" width="14.4" height="14.4"/>
			<rect x="165.706" y="128.458" fill="#6799C8" stroke="#010101" stroke-miterlimit="1" width="14.4" height="14.4"/>
			<rect x="151.206" y="128.458" fill="#6799C8" stroke="#010101" stroke-miterlimit="1" width="14.4" height="14.4"/>
			<rect x="136.706" y="128.458" fill="#6799C8" stroke="#010101" stroke-miterlimit="1" width="14.4" height="14.4"/>
			<rect x="339.707" y="128.458" fill="#FFFFFF" stroke="#010101" stroke-miterlimit="1" width="14.4" height="14.4"/>
			<rect x="325.207" y="128.458" fill="#FFFFFF" stroke="#010101" stroke-miterlimit="1" width="14.4" height="14.4"/>
			<rect x="310.707" y="128.458" fill="#FFFFFF" stroke="#010101" stroke-miterlimit="1" width="14.4" height="14.4"/>
			<rect x="296.207" y="128.458" fill="#FFFFFF" stroke="#010101" stroke-miterlimit="1" width="14.4" height="14.4"/>
			<g>
				<g>
					<text transform="matrix(0.8815 0 0 1 344.4541 138.4482)" font-size="10">1</text>
				</g>
			</g>
			<rect x="354.107" y="128.458" fill="#FFFFFF" stroke="#010101" stroke-miterlimit="1" width="14.4" height="14.4"/>
			<g>
				<g>
					<text transform="matrix(0.8815 0 0 1 358.8545 138.4482)" font-size="10">0</text>
				</g>
			</g>
			<g>
				<g>
					<text transform="matrix(0.8815 0 0 1 330.4844 138.4482)" font-size="10">2</text>
				</g>
			</g>
			<g>
				<g>
					<text transform="matrix(0.8815 0 0 1 315.8926 138.4482)" font-size="10">3</text>
				</g>
			</g>
			<g>
				<g>
					<text transform="matrix(0.8815 0 0 1 301.2979 138.4482)" font-size="10">4</text>
				</g>
			</g>
			<g>
				<g>
					<text transform="matrix(0.8815 0 0 1 286.707 138.4482)" font-size="10">5</text>
				</g>
			</g>
			<g>
				<g>
					<text transform="matrix(0.8815 0 0 1 246.0093 125.2949)" font-size="10">Pixel Sample 3</text>
				</g>
			</g>
			<g>
				<g>
					<text transform="matrix(0.8815 0 0 1 211.3989 138.4482)" fill="#312A35" font-size="10">10</text>
				</g>
			</g>
			<g>
				<g>
					<text transform="matrix(0.8815 0 0 1 139.0024 138.4482)" font-size="10">15</text>
				</g>
			</g>
			<g>
				<g>
					<text transform="matrix(0.8815 0 0 1 153.5044 138.4482)" font-size="10">14</text>
				</g>
			</g>
			<g>
				<g>
					<text transform="matrix(0.8815 0 0 1 168.0039 138.4482)" font-size="10">13</text>
				</g>
			</g>
			<g>
				<g>
					<text transform="matrix(0.8815 0 0 1 182.5044 138.4482)" font-size="10">12</text>
				</g>
			</g>
			<g>
				<g>
					<text transform="matrix(0.8815 0 0 1 197.0039 138.4482)" font-size="10">11</text>
				</g>
			</g>
			<g>
				<g>
					<text transform="matrix(0.8815 0 0 1 228.4556 138.4482)" font-size="10">9</text>
				</g>
			</g>
			<g>
				<g>
					<text transform="matrix(0.8815 0 0 1 242.9561 138.4482)" font-size="10">8</text>
				</g>
			</g>
			<g>
				<g>
					<text transform="matrix(0.8815 0 0 1 257.4551 138.4482)" font-size="10">7</text>
				</g>
			</g>
			<g>
				<g>
					<text transform="matrix(0.8815 0 0 1 271.9561 138.4482)" font-size="10">6</text>
				</g>
			</g>
			<g>
				<g>
					<line fill="none" stroke="#010101" stroke-miterlimit="1" x1="242.251" y1="121.863" x2="203.24" y2="121.863"/>
					<path fill="#010101" d="M200.878,122.889c1.653,0.499,2.728,0.959,4.054,1.491v-5.044c-0.475,0.225-2.401,0.992-4.054,1.491
						c-1.77,0.534-3.374,0.9-4.415,1.03C197.504,121.988,199.109,122.354,200.878,122.889z"/>
				</g>
			</g>
			<g>
				<g>
					<line fill="none" stroke="#010101" stroke-miterlimit="1" x1="360.506" y1="121.863" x2="307.891" y2="121.863"/>
					<path fill="#010101" d="M362.867,120.838c-1.652-0.499-2.728-0.959-4.054-1.491v5.044c0.475-0.225,2.401-0.992,4.054-1.491
						c1.77-0.534,3.375-0.9,4.415-1.03C366.242,121.738,364.637,121.373,362.867,120.838z"/>
				</g>
			</g>
		</g>
	</g>
</g>
</svg>
