<?xml version="1.0" encoding="utf-8"?>

<!DOCTYPE svg PUBLIC "-//W3C//DTD SVG 1.1//EN" "http://www.w3.org/Graphics/SVG/1.1/DTD/svg11.dtd">
<svg version="1.1" id="Layer_1" xmlns="http://www.w3.org/2000/svg" xmlns:xlink="http://www.w3.org/1999/xlink" x="0px" y="0px"
	 width="502px" height="547px" viewBox="0 0 502 547" enable-background="new 0 0 502 547" xml:space="preserve">

<defs>
	<style type="text/css">
	text {
	  font-family: Helvetica, Verdana, ArialUnicodeMS, san-serif
	}
	</style>
</defs>

<g>
   <desc>
	PS3.5 Part 5: Data Structures and Encoding
   </desc>
</g>

<g>
	<rect x="1" y="1" fill="#F5EED6" width="500" height="545"/>
	<g>
		<g>
			<rect x="72.25" y="30.957" fill="#CCDEF0" stroke="#010101" stroke-miterlimit="1" width="358" height="194"/>
			<g>
				<text transform="matrix(0.8815 0 0 1 199.9458 201.9824)"><tspan x="0" y="0" font-size="10">MSb = Most Significant Bit</tspan><tspan x="0" y="12" font-size="10">LSb = Least Significant Bit</tspan></text>
			</g>
			<g>
				<text transform="matrix(0.8815 0 0 1 71.8364 23.9082)" font-size="10">Example 1: CT Pixel Data Value Byte Stream</text>
			</g>
			<rect x="306.509" y="151.829" fill="#FFFFFF" width="104.974" height="13.03"/>
			<rect x="306.509" y="164.859" fill="#FFFFFF" width="104.974" height="13.03"/>
			<rect x="306.701" y="72.739" fill="#FFFFFF" width="104.962" height="13.03"/>
			<rect x="306.701" y="98.799" fill="#FFFFFF" width="104.974" height="13.03"/>
			<rect x="306.701" y="85.769" fill="#86B2D8" width="52.391" height="13.03"/>
			<rect x="359.092" y="85.769" fill="#FFFFFF" width="52.391" height="13.03"/>
			<rect x="306.701" y="124.859" fill="#FFFFFF" width="104.974" height="13.03"/>
			<rect x="306.701" y="111.829" fill="#86B2D8" width="52.391" height="13.03"/>
			<rect x="359.092" y="111.829" fill="#FFFFFF" width="52.391" height="13.03"/>
			<rect x="306.701" y="137.889" fill="#86B2D8" width="52.391" height="13.03"/>
			<rect x="359.092" y="137.889" fill="#FFFFFF" width="52.391" height="13.03"/>
			<g>
				<text transform="matrix(0.8815 0 0 1 317.1562 81.7466)" font-size="10">Pixel 1</text>
			</g>
			<g>
				<text transform="matrix(0.8815 0 0 1 317.1562 108.2891)" font-size="10">Pixel 2</text>
			</g>
			<g>
				<text transform="matrix(0.8815 0 0 1 317.1562 134.3491)" font-size="10">Pixel 3</text>
			</g>
			<g>
				<text transform="matrix(0.8815 0 0 1 362.6914 95.0176)" font-size="10">MSb</text>
			</g>
			<g>
				<text transform="matrix(0.8815 0 0 1 362.6914 121.0776)" font-size="10">MSb</text>
			</g>
			<g>
				<text transform="matrix(0.8815 0 0 1 362.6914 147.1377)" font-size="10">MSb</text>
			</g>
			<g>
				<text transform="matrix(0.8815 0 0 1 390.543 81.7466)" font-size="10">LSb</text>
			</g>
			<g>
				<text transform="matrix(0.8815 0 0 1 390.543 108.2891)" font-size="10">LSb</text>
			</g>
			<g>
				<text transform="matrix(0.8815 0 0 1 390.543 134.3491)" font-size="10">LSb</text>
			</g>
			<g>
				<text transform="matrix(0.8815 0 0 1 358.4199 160.8062)" font-size="10">...</text>
			</g>
			<g>
				<text transform="matrix(0.8815 0 0 1 358.4199 174.0771)" font-size="10">...</text>
			</g>
			<g>
				<text transform="matrix(0.8815 0 0 1 302.498 47.1929)" font-size="10">Little Endian Transfer Syntax</text>
			</g>
			<g>
				<text transform="matrix(0.8815 0 0 1 389.5791 68.3716)" font-size="10">1</text>
			</g>
			<g>
				<text transform="matrix(0.8815 0 0 1 402.6094 68.3716)" font-size="10">0</text>
			</g>
			<g>
				<text transform="matrix(0.8815 0 0 1 376.9395 68.3716)" font-size="10">2</text>
			</g>
			<g>
				<text transform="matrix(0.8815 0 0 1 363.7354 68.3716)" font-size="10">3</text>
			</g>
			<g>
				<text transform="matrix(0.8815 0 0 1 350.5293 68.3716)" font-size="10">4</text>
			</g>
			<g>
				<text transform="matrix(0.8815 0 0 1 337.3271 68.3716)" font-size="10">5</text>
			</g>
			<g>
				<text transform="matrix(0.8815 0 0 1 310.8594 68.3716)" font-size="10">7</text>
			</g>
			<g>
				<text transform="matrix(0.8815 0 0 1 323.9795 68.3716)" font-size="10">6</text>
			</g>
			<g>
				<text transform="matrix(0.8815 0 0 1 278.5801 81.7466)" fill="#ED1C24" font-size="9">byte 0</text>
			</g>
			<g>
				<text transform="matrix(0.8815 0 0 1 278.5801 108.2891)" fill="#ED1C24" font-size="9">byte 2</text>
			</g>
			<g>
				<text transform="matrix(0.8815 0 0 1 277.9473 95.0176)" fill="#ED1C24" font-size="9">byte 1</text>
			</g>
			<g>
				<text transform="matrix(0.8815 0 0 1 278.5801 134.3491)" fill="#ED1C24" font-size="9">byte 4</text>
			</g>
			<g>
				<text transform="matrix(0.8815 0 0 1 277.9473 121.0776)" fill="#ED1C24" font-size="9">byte 3</text>
			</g>
			<g>
				<text transform="matrix(0.8815 0 0 1 277.9473 147.1377)" fill="#ED1C24" font-size="9">byte 5</text>
			</g>
			<rect x="306.701" y="72.739" fill="none" stroke="#010101" stroke-miterlimit="1" width="104.781" height="104.781"/>
			<line fill="none" stroke="#010101" stroke-miterlimit="1" x1="306.701" y1="164.422" x2="411.482" y2="164.422"/>
			<line fill="none" stroke="#010101" stroke-miterlimit="1" x1="306.701" y1="151.325" x2="411.482" y2="151.325"/>
			<line fill="none" stroke="#010101" stroke-miterlimit="1" x1="306.701" y1="138.227" x2="411.482" y2="138.227"/>
			<line fill="none" stroke="#010101" stroke-miterlimit="1" x1="306.701" y1="125.129" x2="411.482" y2="125.129"/>
			<line fill="none" stroke="#010101" stroke-miterlimit="1" x1="306.701" y1="112.032" x2="411.482" y2="112.032"/>
			<line fill="none" stroke="#010101" stroke-miterlimit="1" x1="306.701" y1="98.934" x2="411.482" y2="98.934"/>
			<line fill="none" stroke="#010101" stroke-miterlimit="1" x1="306.701" y1="85.836" x2="411.482" y2="85.836"/>
			<rect x="172.084" y="151.324" fill="#FFFFFF" width="52.391" height="13.03"/>
			<rect x="119.501" y="138.799" fill="#FFFFFF" width="104.974" height="13.03"/>
			<rect x="119.501" y="164.859" fill="#FFFFFF" width="104.974" height="13.03"/>
			<rect x="119.693" y="85.769" fill="#FFFFFF" width="104.974" height="13.03"/>
			<rect x="119.693" y="72.739" fill="#86B2D8" width="52.391" height="13.03"/>
			<rect x="172.084" y="72.739" fill="#FFFFFF" width="52.391" height="13.03"/>
			<rect x="119.693" y="111.829" fill="#FFFFFF" width="104.974" height="13.03"/>
			<rect x="119.693" y="98.799" fill="#86B2D8" width="52.391" height="13.03"/>
			<rect x="172.084" y="98.799" fill="#FFFFFF" width="52.391" height="13.03"/>
			<rect x="119.693" y="124.859" fill="#86B2D8" width="52.391" height="13.03"/>
			<rect x="172.084" y="124.859" fill="#FFFFFF" width="52.391" height="13.03"/>
			<g>
				<text transform="matrix(0.8815 0 0 1 130.1567 95.2593)" font-size="10">Pixel 1</text>
			</g>
			<g>
				<text transform="matrix(0.8815 0 0 1 130.1567 121.3193)" font-size="10">Pixel 2</text>
			</g>
			<g>
				<text transform="matrix(0.8815 0 0 1 173.8521 81.9878)" font-size="10">MSb</text>
			</g>
			<g>
				<text transform="matrix(0.8815 0 0 1 173.8521 108.0479)" font-size="10">MSb</text>
			</g>
			<g>
				<text transform="matrix(0.8815 0 0 1 173.8521 134.1079)" font-size="10">MSb</text>
			</g>
			<g>
				<text transform="matrix(0.8815 0 0 1 204.7554 81.9878)" font-size="10">(1)</text>
			</g>
			<g>
				<text transform="matrix(0.8815 0 0 1 204.7554 108.0479)" font-size="10">(2)</text>
			</g>
			<g>
				<text transform="matrix(0.8815 0 0 1 204.7554 134.1079)" font-size="10">(3)</text>
			</g>
			<rect x="119.693" y="151.324" fill="#86B2D8" width="52.391" height="13.03"/>
			<g>
				<text transform="matrix(0.8815 0 0 1 203.5435 95.2593)" font-size="10">LSb</text>
			</g>
			<g>
				<text transform="matrix(0.8815 0 0 1 203.5435 121.3193)" font-size="10">LSb</text>
			</g>
			<g>
				<text transform="matrix(0.8815 0 0 1 130.1567 147.8198)" font-size="10">Pixel 3</text>
			</g>
			<g>
				<text transform="matrix(0.8815 0 0 1 203.5435 147.8198)" font-size="10">LSb</text>
			</g>
			<g>
				<text transform="matrix(0.8815 0 0 1 171.4199 160.8062)" font-size="10">...</text>
			</g>
			<g>
				<text transform="matrix(0.8815 0 0 1 171.4199 174.0771)" font-size="10">...</text>
			</g>
			<g>
				<text transform="matrix(0.8815 0 0 1 114.1123 47.1929)" font-size="10">Big Endian Transfer Syntax</text>
			</g>
			<g>
				<text transform="matrix(0.8815 0 0 1 202.5791 68.3716)" font-size="10">1</text>
			</g>
			<g>
				<text transform="matrix(0.8815 0 0 1 215.6094 68.3716)" font-size="10">0</text>
			</g>
			<g>
				<text transform="matrix(0.8815 0 0 1 189.9395 68.3716)" font-size="10">2</text>
			</g>
			<g>
				<text transform="matrix(0.8815 0 0 1 176.7354 68.3716)" font-size="10">3</text>
			</g>
			<g>
				<text transform="matrix(0.8815 0 0 1 163.5293 68.3716)" font-size="10">4</text>
			</g>
			<g>
				<text transform="matrix(0.8815 0 0 1 150.3271 68.3716)" font-size="10">5</text>
			</g>
			<g>
				<text transform="matrix(0.8815 0 0 1 123.8594 68.3716)" font-size="10">7</text>
			</g>
			<g>
				<text transform="matrix(0.8815 0 0 1 136.9795 68.3716)" font-size="10">6</text>
			</g>
			<g>
				<text transform="matrix(0.8815 0 0 1 91.5801 81.7466)" fill="#ED1C24" font-size="9">byte 0</text>
			</g>
			<g>
				<text transform="matrix(0.8815 0 0 1 91.5801 108.2891)" fill="#ED1C24" font-size="9">byte 2</text>
			</g>
			<g>
				<text transform="matrix(0.8815 0 0 1 90.9468 95.0176)" fill="#ED1C24" font-size="9">byte 1</text>
			</g>
			<g>
				<text transform="matrix(0.8815 0 0 1 91.5801 134.3491)" fill="#ED1C24" font-size="9">byte 4</text>
			</g>
			<g>
				<text transform="matrix(0.8815 0 0 1 90.9468 121.0776)" fill="#ED1C24" font-size="9">byte 3</text>
			</g>
			<g>
				<text transform="matrix(0.8815 0 0 1 90.9468 147.1377)" fill="#ED1C24" font-size="9">byte 5</text>
			</g>
			<rect x="119.693" y="72.739" fill="none" stroke="#010101" stroke-miterlimit="1" width="104.781" height="104.781"/>
			<line fill="none" stroke="#010101" stroke-miterlimit="1" x1="119.693" y1="164.422" x2="224.475" y2="164.422"/>
			<line fill="none" stroke="#010101" stroke-miterlimit="1" x1="119.693" y1="151.325" x2="224.475" y2="151.325"/>
			<line fill="none" stroke="#010101" stroke-miterlimit="1" x1="119.693" y1="138.227" x2="224.475" y2="138.227"/>
			<line fill="none" stroke="#010101" stroke-miterlimit="1" x1="119.693" y1="125.129" x2="224.475" y2="125.129"/>
			<line fill="none" stroke="#010101" stroke-miterlimit="1" x1="119.693" y1="112.032" x2="224.475" y2="112.032"/>
			<line fill="none" stroke="#010101" stroke-miterlimit="1" x1="119.693" y1="98.934" x2="224.475" y2="98.934"/>
			<line fill="none" stroke="#010101" stroke-miterlimit="1" x1="119.693" y1="85.836" x2="224.475" y2="85.836"/>
		</g>
		<g>
			<rect x="72.25" y="280.957" fill="#CCDEF0" stroke="#010101" stroke-miterlimit="1" width="358" height="251"/>
			<g>
				<g>
					<rect x="120.103" y="456.769" fill="#86B2D8" width="52.48" height="13.118"/>
					<rect x="172.583" y="456.769" fill="#9D9FA2" width="52.115" height="13.118"/>
				</g>
				<rect x="120.103" y="469.887" fill="#9D9FA2" width="104.596" height="13.118"/>
				<g>
					<rect x="172.581" y="443.738" fill="#BCBEC0" width="52.117" height="13.03"/>
					<rect x="120.103" y="443.738" fill="#86B2D8" width="52.479" height="13.03"/>
				</g>
				<g>
					<rect x="198.914" y="430.798" fill="#86B2D8" width="25.784" height="13.03"/>
					<rect x="120.103" y="430.798" fill="#9D9FA2" width="78.812" height="12.94"/>
				</g>
				<rect x="120.103" y="404.735" fill="#BCBEC0" width="104.596" height="13.031"/>
				<g>
					<rect x="198.684" y="417.767" fill="#86B2D8" width="26.015" height="13.031"/>
					<rect x="120.103" y="417.767" fill="#BCBEC0" width="78.581" height="13.031"/>
				</g>
				<g>
					<rect x="120.103" y="352.438" fill="#DCDDDE" width="78.609" height="13.029"/>
					<rect x="198.712" y="352.438" fill="#86B2D8" width="25.986" height="13.029"/>
				</g>
				<g>
					<rect x="120.103" y="365.468" fill="#86B2D8" width="52.479" height="13.029"/>
					<rect x="172.581" y="365.468" fill="#FFFFFF" width="52.117" height="13.029"/>
				</g>
				<rect x="120.103" y="326.378" fill="#FFFFFF" width="104.596" height="13.03"/>
				<g>
					<rect x="198.685" y="339.408" fill="#86B2D8" width="26.014" height="13.03"/>
					<rect x="120.103" y="339.408" fill="#FFFFFF" width="78.582" height="13.03"/>
				</g>
				<g>
					<rect x="120.103" y="378.497" fill="#86B2D8" width="52.48" height="13.119"/>
					<rect x="172.583" y="378.497" fill="#DCDDDE" width="52.115" height="13.119"/>
				</g>
				<rect x="120.103" y="391.616" fill="#DCDDDE" width="104.596" height="13.119"/>
				<g>
					<text transform="matrix(0.8815 0 0 1 138.3853 348.6953)" font-size="10">(1)</text>
				</g>
				<g>
					<text transform="matrix(0.8815 0 0 1 138.3853 361.7256)" font-size="10">(2)</text>
				</g>
				<g>
					<text transform="matrix(0.8815 0 0 1 174.4824 374.7539)" font-size="10">MSb</text>
				</g>
				<g>
					<text transform="matrix(0.8815 0 0 1 205.3857 374.7539)" font-size="10">(1)</text>
				</g>
				<g>
					<text transform="matrix(0.8815 0 0 1 174.4824 454.4219)" font-size="10">MSb</text>
				</g>
				<g>
					<text transform="matrix(0.8815 0 0 1 205.3857 454.4219)" font-size="10">(3)</text>
				</g>
				<g>
					<text transform="matrix(0.8815 0 0 1 174.1475 387.8281)" font-size="10">MSb</text>
				</g>
				<g>
					<text transform="matrix(0.8815 0 0 1 205.0508 387.8281)" font-size="10">(2)</text>
				</g>
				<g>
					<text transform="matrix(0.8815 0 0 1 179.5063 348.6953)" font-size="10">LSb</text>
				</g>
				<g>
					<text transform="matrix(0.8815 0 0 1 138.3853 427.0283)" font-size="10">(3)</text>
				</g>
				<g>
					<text transform="matrix(0.8815 0 0 1 179.5063 427.0283)" font-size="10">LSb</text>
				</g>
				<g>
					<text transform="matrix(0.8815 0 0 1 138.3853 440.0283)" font-size="10">(4)</text>
				</g>
				<g>
					<text transform="matrix(0.8815 0 0 1 179.5063 440.0283)" font-size="10">LSb</text>
				</g>
				<g>
					<text transform="matrix(0.8815 0 0 1 179.5063 361.7246)" font-size="10">LSb</text>
				</g>
				<g>
					<text transform="matrix(0.8815 0 0 1 168.0391 464.6875)" font-size="10">...</text>
				</g>
				<g>
					<text transform="matrix(0.8815 0 0 1 168.0391 477.958)" font-size="10">...</text>
				</g>
				<g>
					<text transform="matrix(0.8815 0 0 1 91.543 335.7207)" fill="#ED1C24" font-size="9">byte 0</text>
				</g>
				<g>
					<text transform="matrix(0.8815 0 0 1 91.543 362.2627)" fill="#ED1C24" font-size="9">byte 2</text>
				</g>
				<g>
					<text transform="matrix(0.8815 0 0 1 90.9102 348.9912)" fill="#ED1C24" font-size="9">byte 1</text>
				</g>
				<g>
					<text transform="matrix(0.8815 0 0 1 91.543 388.3232)" fill="#ED1C24" font-size="9">byte 4</text>
				</g>
				<g>
					<text transform="matrix(0.8815 0 0 1 90.9102 375.0518)" fill="#ED1C24" font-size="9">byte 3</text>
				</g>
				<g>
					<text transform="matrix(0.8815 0 0 1 90.9102 401.1113)" fill="#ED1C24" font-size="9">byte 5</text>
				</g>
				<g>
					<text transform="matrix(0.8815 0 0 1 90.876 427.5957)" fill="#ED1C24" font-size="9">byte 7</text>
				</g>
				<g>
					<text transform="matrix(0.8815 0 0 1 90.2432 414.3242)" fill="#ED1C24" font-size="9">byte 6</text>
				</g>
				<g>
					<text transform="matrix(0.8815 0 0 1 90.876 453.6562)" fill="#ED1C24" font-size="9">byte 9</text>
				</g>
				<g>
					<text transform="matrix(0.8815 0 0 1 90.2432 440.3848)" fill="#ED1C24" font-size="9">byte 8</text>
				</g>
				<g>
					<text transform="matrix(0.8815 0 0 1 159.1719 335.7598)" font-size="10">Pixel 1</text>
				</g>
				<g>
					<text transform="matrix(0.8815 0 0 1 159.1719 401.0938)" font-size="10">Pixel 2</text>
				</g>
				<g>
					<text transform="matrix(0.8815 0 0 1 159.1719 414.4268)" font-size="10">Pixel 3</text>
				</g>
				<g>
					<rect x="120.103" y="326.378" fill="none" stroke="#010101" stroke-miterlimit="1" width="104.596" height="156.627"/>
					<line fill="none" stroke="#010101" stroke-miterlimit="1" x1="224.698" y1="339.417" x2="120.103" y2="339.417"/>
					<line fill="none" stroke="#010101" stroke-miterlimit="1" x1="224.698" y1="352.495" x2="120.103" y2="352.495"/>
					<line fill="none" stroke="#010101" stroke-miterlimit="1" x1="224.698" y1="365.535" x2="120.103" y2="365.535"/>
					<line fill="none" stroke="#010101" stroke-miterlimit="1" x1="224.698" y1="378.574" x2="120.103" y2="378.574"/>
					<line fill="none" stroke="#010101" stroke-miterlimit="1" x1="224.698" y1="391.652" x2="120.103" y2="391.652"/>
					<line fill="none" stroke="#010101" stroke-miterlimit="1" x1="224.698" y1="404.691" x2="120.103" y2="404.691"/>
					<line fill="none" stroke="#010101" stroke-miterlimit="1" x1="224.698" y1="417.73" x2="120.103" y2="417.73"/>
					<line fill="none" stroke="#010101" stroke-miterlimit="1" x1="224.698" y1="430.809" x2="120.103" y2="430.809"/>
					<line fill="none" stroke="#010101" stroke-miterlimit="1" x1="224.698" y1="443.848" x2="120.103" y2="443.848"/>
					<line fill="none" stroke="#010101" stroke-miterlimit="1" x1="224.698" y1="456.888" x2="120.103" y2="456.888"/>
					<line fill="none" stroke="#010101" stroke-miterlimit="1" x1="224.698" y1="469.966" x2="120.103" y2="469.966"/>
				</g>
			</g>
			<g>
				<text transform="matrix(0.8815 0 0 1 278.4736 335.9473)" fill="#ED1C24" font-size="9">byte 0</text>
			</g>
			<g>
				<text transform="matrix(0.8815 0 0 1 278.4736 362.4902)" fill="#ED1C24" font-size="9">byte 2</text>
			</g>
			<g>
				<text transform="matrix(0.8815 0 0 1 277.8398 349.2188)" fill="#ED1C24" font-size="9">byte 1</text>
			</g>
			<g>
				<text transform="matrix(0.8815 0 0 1 278.4736 388.5498)" fill="#ED1C24" font-size="9">byte 4</text>
			</g>
			<g>
				<text transform="matrix(0.8815 0 0 1 277.8398 375.2783)" fill="#ED1C24" font-size="9">byte 3</text>
			</g>
			<g>
				<text transform="matrix(0.8815 0 0 1 277.8398 401.3379)" fill="#ED1C24" font-size="9">byte 5</text>
			</g>
			<g>
				<text transform="matrix(0.8815 0 0 1 277.8066 427.8223)" fill="#ED1C24" font-size="9">byte 7</text>
			</g>
			<g>
				<text transform="matrix(0.8815 0 0 1 277.1738 414.5508)" fill="#ED1C24" font-size="9">byte 6</text>
			</g>
			<g>
				<text transform="matrix(0.8815 0 0 1 277.8066 453.8828)" fill="#ED1C24" font-size="9">byte 9</text>
			</g>
			<g>
				<text transform="matrix(0.8815 0 0 1 277.1738 440.6113)" fill="#ED1C24" font-size="9">byte 8</text>
			</g>
			<rect x="306.089" y="351.847" fill="#86B2D8" width="52.479" height="13.029"/>
			<rect x="358.567" y="351.847" fill="#FFFFFF" width="52.117" height="13.029"/>
			<g>
				<text transform="matrix(0.8815 0 0 1 360.4727 361.1309)" font-size="10">MSb</text>
			</g>
			<g>
				<text transform="matrix(0.8815 0 0 1 391.376 361.1309)" font-size="10">(1)</text>
			</g>
			<rect x="358.567" y="430.206" fill="#BCBEC0" width="52.117" height="13.03"/>
			<rect x="306.089" y="430.206" fill="#86B2D8" width="52.479" height="13.03"/>
			<g>
				<text transform="matrix(0.8815 0 0 1 360.4727 440.8867)" font-size="10">MSb</text>
			</g>
			<g>
				<text transform="matrix(0.8815 0 0 1 391.376 440.8867)" font-size="10">(3)</text>
			</g>
			<rect x="306.089" y="391.024" fill="#86B2D8" width="52.48" height="13.119"/>
			<rect x="358.569" y="391.024" fill="#DCDDDE" width="52.115" height="13.119"/>
			<g>
				<text transform="matrix(0.8815 0 0 1 360.1377 400.3535)" font-size="10">MSb</text>
			</g>
			<g>
				<text transform="matrix(0.8815 0 0 1 391.041 400.3535)" font-size="10">(2)</text>
			</g>
			<rect x="384.671" y="325.786" fill="#86B2D8" width="26.014" height="13.03"/>
			<rect x="306.089" y="325.786" fill="#FFFFFF" width="78.582" height="13.03"/>
			<g>
				<text transform="matrix(0.8815 0 0 1 324.375 335.0703)" font-size="10">(1)</text>
			</g>
			<g>
				<text transform="matrix(0.8815 0 0 1 365.4961 335.0703)" font-size="10">LSb</text>
			</g>
			<rect x="384.67" y="404.144" fill="#86B2D8" width="26.015" height="13.031"/>
			<rect x="306.089" y="404.144" fill="#BCBEC0" width="78.581" height="13.031"/>
			<g>
				<text transform="matrix(0.8815 0 0 1 324.375 413.4023)" font-size="10">(3)</text>
			</g>
			<g>
				<text transform="matrix(0.8815 0 0 1 365.4961 413.4023)" font-size="10">LSb</text>
			</g>
			<rect x="384.899" y="443.236" fill="#86B2D8" width="25.785" height="13.03"/>
			<rect x="306.089" y="443.236" fill="#9D9FA2" width="78.811" height="12.94"/>
			<g>
				<text transform="matrix(0.8815 0 0 1 324.375 452.4639)" font-size="10">(4)</text>
			</g>
			<g>
				<text transform="matrix(0.8815 0 0 1 365.4961 452.4639)" font-size="10">LSb</text>
			</g>
			<rect x="306.089" y="364.876" fill="#DCDDDE" width="78.609" height="13.029"/>
			<rect x="384.698" y="364.876" fill="#86B2D8" width="25.986" height="13.029"/>
			<g>
				<text transform="matrix(0.8815 0 0 1 324.375 374.1602)" font-size="10">(2)</text>
			</g>
			<g>
				<text transform="matrix(0.8815 0 0 1 365.4961 374.1602)" font-size="10">LSb</text>
			</g>
			<rect x="306.089" y="469.295" fill="#86B2D8" width="52.48" height="13.118"/>
			<rect x="358.569" y="469.295" fill="#9D9FA2" width="52.115" height="13.118"/>
			<g>
				<text transform="matrix(0.8815 0 0 1 354.0293 477.2109)" font-size="10">...</text>
			</g>
			<rect x="306.089" y="456.177" fill="#9D9FA2" width="104.596" height="13.118"/>
			<g>
				<text transform="matrix(0.8815 0 0 1 354.0293 464.2461)" font-size="10">...</text>
			</g>
			<rect x="306.089" y="338.816" fill="#FFFFFF" width="104.596" height="13.03"/>
			<g>
				<text transform="matrix(0.8815 0 0 1 345.1621 348.1953)" font-size="10">Pixel 1</text>
			</g>
			<rect x="306.089" y="377.905" fill="#DCDDDE" width="104.596" height="13.119"/>
			<g>
				<text transform="matrix(0.8815 0 0 1 345.1621 387.3799)" font-size="10">Pixel 2</text>
			</g>
			<rect x="306.089" y="417.175" fill="#BCBEC0" width="104.596" height="13.031"/>
			<g>
				<text transform="matrix(0.8815 0 0 1 345.1621 426.8633)" font-size="10">Pixel 3</text>
			</g>
			<rect x="306.074" y="325.786" fill="none" stroke="#010101" stroke-miterlimit="1" width="104.596" height="156.627"/>
			<line fill="none" stroke="#010101" stroke-miterlimit="1" x1="410.67" y1="338.825" x2="306.074" y2="338.825"/>
			<line fill="none" stroke="#010101" stroke-miterlimit="1" x1="410.67" y1="351.903" x2="306.074" y2="351.903"/>
			<line fill="none" stroke="#010101" stroke-miterlimit="1" x1="410.67" y1="364.943" x2="306.074" y2="364.943"/>
			<line fill="none" stroke="#010101" stroke-miterlimit="1" x1="410.67" y1="377.982" x2="306.074" y2="377.982"/>
			<line fill="none" stroke="#010101" stroke-miterlimit="1" x1="410.67" y1="391.061" x2="306.074" y2="391.061"/>
			<line fill="none" stroke="#010101" stroke-miterlimit="1" x1="410.67" y1="404.1" x2="306.074" y2="404.1"/>
			<line fill="none" stroke="#010101" stroke-miterlimit="1" x1="410.67" y1="417.139" x2="306.074" y2="417.139"/>
			<line fill="none" stroke="#010101" stroke-miterlimit="1" x1="410.67" y1="430.217" x2="306.074" y2="430.217"/>
			<line fill="none" stroke="#010101" stroke-miterlimit="1" x1="410.67" y1="443.256" x2="306.074" y2="443.256"/>
			<line fill="none" stroke="#010101" stroke-miterlimit="1" x1="410.67" y1="456.296" x2="306.074" y2="456.296"/>
			<line fill="none" stroke="#010101" stroke-miterlimit="1" x1="410.67" y1="469.374" x2="306.074" y2="469.374"/>
			<g>
				<text transform="matrix(0.8815 0 0 1 71.7505 273.7642)" font-size="10">Example 2: Hypothetical Pixel Data Value Byte Stream</text>
			</g>
			<g>
				<text transform="matrix(0.8815 0 0 1 206.6123 506.3828)"><tspan x="0" y="0" font-size="10">MSb = Most Significant Bit</tspan><tspan x="0" y="12" font-size="10">LSb = Least Significant Bit</tspan></text>
			</g>
			<g>
				<text transform="matrix(0.8815 0 0 1 302.498 301.1934)" font-size="10">Little Endian Transfer Syntax</text>
			</g>
			<g>
				<text transform="matrix(0.8815 0 0 1 389.5791 322.3711)" font-size="10">1</text>
			</g>
			<g>
				<text transform="matrix(0.8815 0 0 1 402.6094 322.3711)" font-size="10">0</text>
			</g>
			<g>
				<text transform="matrix(0.8815 0 0 1 376.9395 322.3711)" font-size="10">2</text>
			</g>
			<g>
				<text transform="matrix(0.8815 0 0 1 363.7354 322.3711)" font-size="10">3</text>
			</g>
			<g>
				<text transform="matrix(0.8815 0 0 1 350.5293 322.3711)" font-size="10">4</text>
			</g>
			<g>
				<text transform="matrix(0.8815 0 0 1 337.3271 322.3711)" font-size="10">5</text>
			</g>
			<g>
				<text transform="matrix(0.8815 0 0 1 310.8594 322.3711)" font-size="10">7</text>
			</g>
			<g>
				<text transform="matrix(0.8815 0 0 1 323.9795 322.3711)" font-size="10">6</text>
			</g>
			<g>
				<text transform="matrix(0.8815 0 0 1 114.1123 301.1934)" font-size="10">Big Endian Transfer Syntax</text>
			</g>
			<g>
				<text transform="matrix(0.8815 0 0 1 202.5791 322.3711)" font-size="10">1</text>
			</g>
			<g>
				<text transform="matrix(0.8815 0 0 1 215.6094 322.3711)" font-size="10">0</text>
			</g>
			<g>
				<text transform="matrix(0.8815 0 0 1 189.9395 322.3711)" font-size="10">2</text>
			</g>
			<g>
				<text transform="matrix(0.8815 0 0 1 176.7354 322.3711)" font-size="10">3</text>
			</g>
			<g>
				<text transform="matrix(0.8815 0 0 1 163.5293 322.3711)" font-size="10">4</text>
			</g>
			<g>
				<text transform="matrix(0.8815 0 0 1 150.3271 322.3711)" font-size="10">5</text>
			</g>
			<g>
				<text transform="matrix(0.8815 0 0 1 123.8594 322.3711)" font-size="10">7</text>
			</g>
			<g>
				<text transform="matrix(0.8815 0 0 1 136.9795 322.3711)" font-size="10">6</text>
			</g>
		</g>
	</g>
</g>
</svg>
