<?xml version="1.0" encoding="utf-8"?>

<!DOCTYPE svg PUBLIC "-//W3C//DTD SVG 1.1//EN" "http://www.w3.org/Graphics/SVG/1.1/DTD/svg11.dtd">
<svg version="1.1" id="Layer_1" xmlns="http://www.w3.org/2000/svg" xmlns:xlink="http://www.w3.org/1999/xlink" x="0px" y="0px"
	 width="502px" height="557px" viewBox="0 0 502 557" enable-background="new 0 0 502 557" xml:space="preserve">

<defs>
	<style type="text/css">
	text {
	  font-family: Helvetica, Verdana, ArialUnicodeMS, san-serif
	}
	</style>
</defs>

<g>
   <desc>
	PS3.5 Part 5: Data Structures and Encoding
   </desc>
</g>

<g>
	<rect x="1" y="1" fill="#F5EED6" width="500" height="555"/>
	<g>
		<g>
			<rect x="314.184" y="351.888" fill="#CCDEF0" width="113.137" height="188.251"/>
			<text transform="matrix(0.8815 0 0 1 330.3594 457.3379)"><tspan x="0" y="0" font-size="9">(FFFE,</tspan><tspan x="0" y="10.8" font-size="9">E0DD)</tspan></text>
			<text transform="matrix(0.8815 0 0 1 331.1084 523.6387)"><tspan x="0" y="0" font-size="11">4</tspan><tspan x="0" y="13.199" font-size="11">bytes</tspan></text>
			<text transform="matrix(0.8815 0 0 1 320.8594 397.1777)"><tspan x="0" y="0" font-size="11">Sequence</tspan><tspan x="0" y="13.201" font-size="11">Delimiter</tspan><tspan x="0" y="26.4" font-size="11">Tag</tspan></text>
			<text transform="matrix(0.8815 0 0 1 387.4268 457.3379)"><tspan x="0" y="0" font-size="9">0000</tspan><tspan x="0" y="10.8" font-size="9">0000H</tspan></text>
			<text transform="matrix(0.8815 0 0 1 387.5283 523.6387)"><tspan x="0" y="0" font-size="11">4</tspan><tspan x="0" y="13.199" font-size="11">bytes</tspan></text>
			<text transform="matrix(0.8815 0 0 1 384.2871 397.1777)"><tspan x="0" y="0" font-size="11">Item</tspan><tspan x="0" y="13.201" font-size="11">Length</tspan></text>
			<rect x="319.166" y="357.139" fill="none" width="107.1" height="11.732"/>
			<text transform="matrix(0.8815 0 0 1 319.167 365.0117)" font-size="11">Sequence Delimiter Item</text>
			<rect x="18.682" y="295.138" fill="#4F8ABE" width="408.638" height="56.75"/>
			<rect x="166.562" y="351.888" fill="#6799C8" width="147.717" height="188.251"/>
			<rect x="18.52" y="351.888" fill="#86B2D8" width="148.101" height="188.251"/>
			<g>
				<rect x="18.682" y="295.138" fill="none" stroke="#000000" stroke-miterlimit="1" width="408.638" height="245.001"/>
				<line fill="none" stroke="#000000" stroke-miterlimit="1" x1="18.92" y1="512.189" x2="427.467" y2="512.189"/>
				<line fill="none" stroke="#000000" stroke-miterlimit="1" x1="18.798" y1="383.138" x2="427.467" y2="383.138"/>
				<line fill="none" stroke="#000000" stroke-miterlimit="1" x1="18.915" y1="351.888" x2="426.973" y2="351.888"/>
				<line fill="none" stroke="#000000" stroke-miterlimit="1" x1="258.35" y1="383.138" x2="258.35" y2="540.139"/>
				<line fill="none" stroke="#000000" stroke-miterlimit="1" x1="370.682" y1="383.138" x2="370.682" y2="540.139"/>
				<line fill="none" stroke="#000000" stroke-miterlimit="1" x1="110.348" y1="383.138" x2="110.348" y2="540.139"/>
				<line fill="none" stroke="#000000" stroke-miterlimit="1" x1="212.349" y1="383.138" x2="212.349" y2="540.139"/>
				<line fill="none" stroke="#000000" stroke-miterlimit="1" x1="64.015" y1="383.138" x2="64.015" y2="540.139"/>
				<line fill="none" stroke="#000000" stroke-miterlimit="1" x1="166.621" y1="351.888" x2="166.621" y2="540.139"/>
			</g>
			<text transform="matrix(0.8815 0 0 1 175.042 457.3379)"><tspan x="0" y="0" font-size="9">(FFFE,</tspan><tspan x="0" y="10.8" font-size="9">E000)</tspan></text>
			<text transform="matrix(0.8815 0 0 1 175.7925 523.6387)"><tspan x="0" y="0" font-size="11">4</tspan><tspan x="0" y="13.199" font-size="11">bytes</tspan></text>
			<text transform="matrix(0.8815 0 0 1 177.9517 397.1777)"><tspan x="0" y="0" font-size="11">Item</tspan><tspan x="0" y="13.201" font-size="11">Tag</tspan></text>
			<text transform="matrix(0.8815 0 0 1 220.7158 457.3379)"><tspan x="0" y="0" font-size="9">0000</tspan><tspan x="0" y="10.8" font-size="9">0BC8H</tspan></text>
			<text transform="matrix(0.8815 0 0 1 221.4761 523.6387)"><tspan x="0" y="0" font-size="11">4</tspan><tspan x="0" y="13.199" font-size="11">bytes</tspan></text>
			<text transform="matrix(0.8815 0 0 1 218.2349 397.1777)"><tspan x="0" y="0" font-size="11">Item</tspan><tspan x="0" y="13.201" font-size="11">Length</tspan></text>
			<text transform="matrix(0.8815 0 0 1 262.6348 457.3379)"><tspan x="0" y="0" font-size="9">RLE </tspan><tspan x="0" y="10.8" font-size="9">Compressed</tspan><tspan x="0" y="21.6" font-size="9">Frame</tspan></text>
			<text transform="matrix(0.8815 0 0 1 270.0293 523.6387)"><tspan x="0" y="0" font-size="11">0BC8H</tspan><tspan x="0" y="13.199" font-size="11">bytes</tspan></text>
			<text transform="matrix(0.8815 0 0 1 272.7227 397.1777)"><tspan x="0" y="0" font-size="11">Item</tspan><tspan x="0" y="13.201" font-size="11">Value</tspan></text>
			<rect x="173.706" y="357.139" fill="none" width="123.933" height="26"/>
			<text transform="matrix(0.8815 0 0 1 173.7061 365.0117)"><tspan x="0" y="0" font-size="11">Third Fragment (Frame 3) of </tspan><tspan x="0" y="13.201" font-size="11">Pixel Data</tspan></text>
			<text transform="matrix(0.8815 0 0 1 26.1357 457.3379)"><tspan x="0" y="0" font-size="9">(FFFE,</tspan><tspan x="0" y="10.8" font-size="9">E000)</tspan></text>
			<text transform="matrix(0.8815 0 0 1 26.8857 523.6387)"><tspan x="0" y="0" font-size="11">4</tspan><tspan x="0" y="13.199" font-size="11">bytes</tspan></text>
			<text transform="matrix(0.8815 0 0 1 29.0449 397.1777)"><tspan x="0" y="0" font-size="11">Item</tspan><tspan x="0" y="13.201" font-size="11">Tag</tspan></text>
			<text transform="matrix(0.8815 0 0 1 71.8096 457.3379)"><tspan x="0" y="0" font-size="9">0000</tspan><tspan x="0" y="10.8" font-size="9">036AH</tspan></text>
			<text transform="matrix(0.8815 0 0 1 72.5693 523.6387)"><tspan x="0" y="0" font-size="11">2</tspan><tspan x="0" y="13.199" font-size="11">bytes</tspan></text>
			<text transform="matrix(0.8815 0 0 1 69.3281 397.1777)"><tspan x="0" y="0" font-size="11">Item</tspan><tspan x="0" y="13.201" font-size="11">Length</tspan></text>
			<text transform="matrix(0.8815 0 0 1 113.728 457.3379)"><tspan x="0" y="0" font-size="9">RLE </tspan><tspan x="0" y="10.8" font-size="9">Compressed</tspan><tspan x="0" y="21.6" font-size="9">Frame</tspan></text>
			<text transform="matrix(0.8815 0 0 1 121.1235 523.6387)"><tspan x="0" y="0" font-size="11">036AH</tspan><tspan x="0" y="13.199" font-size="11">bytes</tspan></text>
			<text transform="matrix(0.8815 0 0 1 123.8159 397.1777)"><tspan x="0" y="0" font-size="11">Item</tspan><tspan x="0" y="13.201" font-size="11">Value</tspan></text>
			<rect x="24.8" y="357.139" fill="none" width="123.935" height="26"/>
			<text transform="matrix(0.8815 0 0 1 24.7988 365.0117)"><tspan x="0" y="0" font-size="11">Second Fragment (Frame 2) </tspan><tspan x="0" y="13.201" font-size="11">of Pixel Data</tspan></text>
			<rect x="179.933" y="320.471" fill="none" width="86.137" height="10.334"/>
			<text transform="matrix(0.8815 0 0 1 179.9326 328.3457)" font-size="11">Data Element, cont.</text>
		</g>
		<g>
			<rect x="18.682" y="16.537" fill="#4F8ABE" width="464.798" height="56.75"/>
			<rect x="18.682" y="73.287" fill="#FFFFFF" width="45.444" height="188.251"/>
			<rect x="154.904" y="73.287" fill="#FFFFFF" width="45.333" height="188.251"/>
			<rect x="64.126" y="73.287" fill="#CCDEF0" width="90.778" height="188.251"/>
			<rect x="336.459" y="73.287" fill="#B2CEE7" width="147.021" height="188.251"/>
			<rect x="200.238" y="73.287" fill="#CCDEF0" width="136.221" height="188.251"/>
			<g>
				<rect x="18.682" y="16.537" fill="none" stroke="#000000" stroke-miterlimit="1" width="464.798" height="245.001"/>
				<line fill="none" stroke="#000000" stroke-miterlimit="1" x1="18.682" y1="233.589" x2="483.48" y2="233.589"/>
				<line fill="none" stroke="#000000" stroke-miterlimit="1" x1="200.238" y1="104.537" x2="483.48" y2="104.537"/>
				<line fill="none" stroke="#000000" stroke-miterlimit="1" x1="18.682" y1="73.287" x2="483.48" y2="73.287"/>
				<line fill="none" stroke="#000000" stroke-miterlimit="1" x1="427.238" y1="104.537" x2="427.238" y2="261.538"/>
				<line fill="none" stroke="#000000" stroke-miterlimit="1" x1="381.904" y1="104.537" x2="381.904" y2="261.538"/>
				<line fill="none" stroke="#000000" stroke-miterlimit="1" x1="336.459" y1="73.287" x2="336.459" y2="261.538"/>
				<line fill="none" stroke="#000000" stroke-miterlimit="1" x1="291.127" y1="104.537" x2="291.127" y2="261.538"/>
				<line fill="none" stroke="#000000" stroke-miterlimit="1" x1="245.683" y1="104.537" x2="245.683" y2="261.538"/>
				<line fill="none" stroke="#000000" stroke-miterlimit="1" x1="200.238" y1="16.537" x2="200.238" y2="261.538"/>
				<line fill="none" stroke="#000000" stroke-miterlimit="1" x1="154.904" y1="16.537" x2="154.904" y2="261.538"/>
				<line fill="none" stroke="#000000" stroke-miterlimit="1" x1="109.46" y1="73.537" x2="109.46" y2="261.538"/>
				<line fill="none" stroke="#000000" stroke-miterlimit="1" x1="64.126" y1="16.537" x2="64.126" y2="261.538"/>
			</g>
			<text transform="matrix(0.8815 0 0 1 300.1143 152.3379)"><tspan x="0" y="0" font-size="9">0000</tspan><tspan x="0" y="10.8" font-size="9">0000H</tspan><tspan x="0" y="21.6" font-size="9">0000</tspan><tspan x="0" y="32.4" font-size="9">02D0H</tspan><tspan x="0" y="43.2" font-size="9">0000</tspan><tspan x="0" y="54" font-size="9">0642H</tspan></text>
			<text transform="matrix(0.8815 0 0 1 297.3701 245.0381)"><tspan x="0" y="0" font-size="11">000CH</tspan><tspan x="0" y="13.2" font-size="11">bytes</tspan></text>
			<text transform="matrix(0.8815 0 0 1 300.0625 118.5781)"><tspan x="0" y="0" font-size="11">Item</tspan><tspan x="0" y="13.2" font-size="11">Value</tspan></text>
			<text transform="matrix(0.8815 0 0 1 345.6816 178.7378)"><tspan x="0" y="0" font-size="9">(FFFE,</tspan><tspan x="0" y="10.8" font-size="9">E000)</tspan></text>
			<text transform="matrix(0.8815 0 0 1 346.4326 245.0381)"><tspan x="0" y="0" font-size="11">4</tspan><tspan x="0" y="13.2" font-size="11">bytes</tspan></text>
			<text transform="matrix(0.8815 0 0 1 348.5918 118.5781)"><tspan x="0" y="0" font-size="11">Item</tspan><tspan x="0" y="13.2" font-size="11">Tag</tspan></text>
			<text transform="matrix(0.8815 0 0 1 391.3555 178.7378)"><tspan x="0" y="0" font-size="9">0000</tspan><tspan x="0" y="10.8" font-size="9">02C8H</tspan></text>
			<text transform="matrix(0.8815 0 0 1 392.1152 245.0381)"><tspan x="0" y="0" font-size="11">4</tspan><tspan x="0" y="13.2" font-size="11">bytes</tspan></text>
			<text transform="matrix(0.8815 0 0 1 388.875 118.5781)"><tspan x="0" y="0" font-size="11">Item</tspan><tspan x="0" y="13.2" font-size="11">Length</tspan></text>
			<text transform="matrix(0.8815 0 0 1 433.2744 178.7378)"><tspan x="0" y="0" font-size="9">RLE </tspan><tspan x="0" y="10.8" font-size="9">Compressed</tspan><tspan x="0" y="21.6" font-size="9">Frame</tspan></text>
			<text transform="matrix(0.8815 0 0 1 440.6699 245.0381)"><tspan x="0" y="0" font-size="11">02C8H</tspan><tspan x="0" y="13.2" font-size="11">bytes</tspan></text>
			<text transform="matrix(0.8815 0 0 1 443.3623 118.5781)"><tspan x="0" y="0" font-size="11">Item</tspan><tspan x="0" y="13.2" font-size="11">Value</tspan></text>
			<text transform="matrix(0.8815 0 0 1 252.9521 178.7378)"><tspan x="0" y="0" font-size="9">0000</tspan><tspan x="0" y="10.8" font-size="9">0000CH</tspan></text>
			<text transform="matrix(0.8815 0 0 1 255.918 245.0381)"><tspan x="0" y="0" font-size="11">4</tspan><tspan x="0" y="13.2" font-size="11">bytes</tspan></text>
			<text transform="matrix(0.8815 0 0 1 252.6768 118.5781)"><tspan x="0" y="0" font-size="11">Item</tspan><tspan x="0" y="13.2" font-size="11">Length</tspan></text>
			<text transform="matrix(0.8815 0 0 1 209.0962 178.7378)"><tspan x="0" y="0" font-size="9">(FFFE,</tspan><tspan x="0" y="10.8" font-size="9">E000)</tspan></text>
			<text transform="matrix(0.8815 0 0 1 209.8462 245.0381)"><tspan x="0" y="0" font-size="11">4</tspan><tspan x="0" y="13.2" font-size="11">bytes</tspan></text>
			<text transform="matrix(0.8815 0 0 1 212.0054 118.5781)"><tspan x="0" y="0" font-size="11">Item</tspan><tspan x="0" y="13.2" font-size="11">Tag</tspan></text>
			<text transform="matrix(0.8815 0 0 1 159.5049 165.5376)"><tspan x="0" y="0" font-size="9">FFFF</tspan><tspan x="0" y="10.8" font-size="9">FFFFH</tspan><tspan x="0" y="21.6" font-size="9">undefined</tspan><tspan x="0" y="32.4" font-size="9">length</tspan></text>
			<text transform="matrix(0.8815 0 0 1 165.3433 245.0381)"><tspan x="0" y="0" font-size="11">4</tspan><tspan x="0" y="13.2" font-size="11">bytes</tspan></text>
			<text transform="matrix(0.8815 0 0 1 117.749 185.3379)" font-size="9">0000H</text>
			<text transform="matrix(0.8815 0 0 1 117.8501 245.0381)"><tspan x="0" y="0" font-size="11">2</tspan><tspan x="0" y="13.2" font-size="11">bytes</tspan></text>
			<text transform="matrix(0.8815 0 0 1 78.374 185.3379)" font-size="9">OB</text>
			<text transform="matrix(0.8815 0 0 1 72.5171 245.0381)"><tspan x="0" y="0" font-size="11">2</tspan><tspan x="0" y="13.2" font-size="11">bytes</tspan></text>
			<text transform="matrix(0.8815 0 0 1 22.0176 165.5376)"><tspan x="0" y="0" font-size="9">(7FE0, </tspan><tspan x="0" y="10.8" font-size="9">0010)</tspan><tspan x="0" y="21.6" font-size="9">with</tspan><tspan x="0" y="32.4" font-size="9">VR of OB</tspan></text>
			<text transform="matrix(0.8815 0 0 1 27.1841 245.0381)"><tspan x="0" y="0" font-size="11">4</tspan><tspan x="0" y="13.2" font-size="11">bytes</tspan></text>
			<rect x="344.346" y="78.538" fill="none" width="123.936" height="26"/>
			<text transform="matrix(0.8815 0 0 1 344.3457 86.4121)"><tspan x="0" y="0" font-size="11">First Fragment (Frame 1) of </tspan><tspan x="0" y="13.2" font-size="11">Pixel Data</tspan></text>
			<rect x="21.746" y="20.538" fill="none" width="38.381" height="53"/>
			<text transform="matrix(0.8815 0 0 1 21.7451 28.4121)"><tspan x="0" y="0" font-size="11">Pixel</tspan><tspan x="0" y="13.2" font-size="11">Data</tspan><tspan x="0" y="26.4" font-size="11">Element</tspan><tspan x="0" y="39.6" font-size="11">Tag</tspan></text>
			<rect x="68.746" y="34.538" fill="none" width="82.937" height="25"/>
			<text transform="matrix(0.8815 0 0 1 68.7451 42.4121)"><tspan x="0" y="0" font-size="11">Value </tspan><tspan x="0" y="13.2" font-size="11">Representation</tspan></text>
			<rect x="159.246" y="28.538" fill="none" width="37.437" height="37"/>
			<text transform="matrix(0.8815 0 0 1 159.2451 36.4121)"><tspan x="0" y="0" font-size="11">Data </tspan><tspan x="0" y="13.2" font-size="11">Element </tspan><tspan x="0" y="26.4" font-size="11">Length</tspan></text>
			<rect x="306.213" y="41.871" fill="none" width="60.271" height="10.333"/>
			<text transform="matrix(0.8815 0 0 1 306.2139 49.7451)" font-size="11">Data Element</text>
			<rect x="219.045" y="79.538" fill="none" width="101.437" height="23"/>
			<text transform="matrix(0.8815 0 0 1 219.0454 87.4121)"><tspan x="0" y="0" font-size="11">Basic Offset Table with</tspan><tspan x="0" y="13.2" font-size="11">Item Value</tspan></text>
		</g>
	</g>
</g>
</svg>
