<?xml version="1.0" encoding="utf-8"?>

<!DOCTYPE svg PUBLIC "-//W3C//DTD SVG 1.1//EN" "http://www.w3.org/Graphics/SVG/1.1/DTD/svg11.dtd">
<svg version="1.1" id="Layer_1" xmlns="http://www.w3.org/2000/svg" xmlns:xlink="http://www.w3.org/1999/xlink" x="0px" y="0px"
	 width="502px" height="192px" viewBox="0 0 502 192" enable-background="new 0 0 502 192" xml:space="preserve">

<defs>
	<style type="text/css">
	text {
	  font-family: Helvetica, Verdana, ArialUnicodeMS, san-serif
	}
	</style>
</defs>

<g>
   <desc>
	PS3.5 Part 5: Data Structures and Encoding
   </desc>
</g>

<g>
	<rect x="1" y="1" fill="#F5EED6" width="500" height="190"/>
	<g>
		<rect x="56.495" y="30.271" fill="#CCDEF0" stroke="#010101" stroke-miterlimit="1" width="389.011" height="144.528"/>
		<g>
			<text transform="matrix(0.8815 0 0 1 56.4951 26.9521)" font-size="11">Example 4: Overlay Data Cells</text>
		</g>
		<g>
			<text transform="matrix(0.8815 0 0 1 70.9092 84.1875)"><tspan x="0" y="0" font-size="11">Bits Allocated = 1</tspan><tspan x="0" y="13.2" font-size="11">Bits Position = 0</tspan></text>
		</g>
		<rect x="215.91" y="46.528" fill="#FFFFFF" stroke="#010101" stroke-miterlimit="1" width="14.4" height="14.402"/>
		<rect x="201.41" y="46.528" fill="#FFFFFF" stroke="#010101" stroke-miterlimit="1" width="14.4" height="14.402"/>
		<rect x="186.91" y="46.528" fill="#FFFFFF" stroke="#010101" stroke-miterlimit="1" width="14.4" height="14.402"/>
		<rect x="172.409" y="46.528" fill="#FFFFFF" stroke="#010101" stroke-miterlimit="1" width="14.401" height="14.402"/>
		<rect x="157.909" y="46.528" fill="#FFFFFF" stroke="#010101" stroke-miterlimit="1" width="14.4" height="14.402"/>
		<rect x="143.304" y="46.528" fill="#FFFFFF" stroke="#010101" stroke-miterlimit="1" width="14.4" height="14.402"/>
		<rect x="128.909" y="46.528" fill="#FFFFFF" stroke="#010101" stroke-miterlimit="1" width="14.4" height="14.402"/>
		<rect x="114.409" y="46.528" fill="#FFFFFF" stroke="#010101" stroke-miterlimit="1" width="14.4" height="14.402"/>
		<rect x="99.909" y="46.528" fill="#FFFFFF" stroke="#010101" stroke-miterlimit="1" width="14.4" height="14.402"/>
		<rect x="85.409" y="46.528" fill="#FFFFFF" stroke="#010101" stroke-miterlimit="1" width="14.4" height="14.402"/>
		<rect x="70.909" y="46.528" fill="#FFFFFF" stroke="#010101" stroke-miterlimit="1" width="14.4" height="14.402"/>
		<rect x="273.91" y="46.528" fill="#FFFFFF" stroke="#010101" stroke-miterlimit="1" width="14.4" height="14.402"/>
		<rect x="259.41" y="46.528" fill="#FFFFFF" stroke="#010101" stroke-miterlimit="1" width="14.4" height="14.402"/>
		<rect x="244.91" y="46.528" fill="#FFFFFF" stroke="#010101" stroke-miterlimit="1" width="14.4" height="14.402"/>
		<rect x="230.41" y="46.528" fill="#FFFFFF" stroke="#010101" stroke-miterlimit="1" width="14.4" height="14.402"/>
		<g>
			<g>
				<text transform="matrix(0.8815 0 0 1 278.6572 56.5186)" font-size="10">1</text>
			</g>
		</g>
		<rect x="288.311" y="46.528" fill="#0DB14B" stroke="#010101" stroke-miterlimit="1" width="14.4" height="14.402"/>
		<g>
			<g>
				<text transform="matrix(0.8815 0 0 1 293.0576 56.5186)" font-size="10">0</text>
			</g>
		</g>
		<g>
			<g>
				<text transform="matrix(0.8815 0 0 1 264.6875 56.5186)" font-size="10">2</text>
			</g>
		</g>
		<g>
			<g>
				<text transform="matrix(0.8815 0 0 1 250.0957 56.5186)" font-size="10">3</text>
			</g>
		</g>
		<g>
			<g>
				<text transform="matrix(0.8815 0 0 1 235.501 56.5186)" font-size="10">4</text>
			</g>
		</g>
		<g>
			<g>
				<text transform="matrix(0.8815 0 0 1 220.9102 56.5186)" font-size="10">5</text>
			</g>
		</g>
		<g>
			<g>
				<text transform="matrix(0.8815 0 0 1 145.6021 56.5186)" fill="#312A35" font-size="10">10</text>
			</g>
		</g>
		<g>
			<g>
				<text transform="matrix(0.8815 0 0 1 73.2056 56.5186)" font-size="10">15</text>
			</g>
		</g>
		<g>
			<g>
				<text transform="matrix(0.8815 0 0 1 87.7075 56.5186)" font-size="10">14</text>
			</g>
		</g>
		<g>
			<g>
				<text transform="matrix(0.8815 0 0 1 102.207 56.5186)" font-size="10">13</text>
			</g>
		</g>
		<g>
			<g>
				<text transform="matrix(0.8815 0 0 1 116.7075 56.5186)" font-size="10">12</text>
			</g>
		</g>
		<g>
			<g>
				<text transform="matrix(0.8815 0 0 1 131.207 56.5186)" font-size="10">11</text>
			</g>
		</g>
		<g>
			<g>
				<text transform="matrix(0.8815 0 0 1 162.6587 56.5186)" font-size="10">9</text>
			</g>
		</g>
		<g>
			<g>
				<text transform="matrix(0.8815 0 0 1 177.1592 56.5186)" font-size="10">8</text>
			</g>
		</g>
		<g>
			<g>
				<text transform="matrix(0.8815 0 0 1 191.6587 56.5186)" font-size="10">7</text>
			</g>
		</g>
		<g>
			<g>
				<text transform="matrix(0.8815 0 0 1 206.1592 56.5186)" font-size="10">6</text>
			</g>
		</g>
		<rect x="73.204" y="114.405" fill="none" width="361.908" height="54.667"/>
		<text transform="matrix(0.8815 0 0 1 71.2036 122.2793)"><tspan x="0" y="0" font-size="11">Note: In this example, the Overlay Bits are numbered in the same manner that Pixel </tspan><tspan x="29.494" y="13.2" font-size="11">Cells are numbered in the other examples in this Annex. That is, Overlay Bit 1 </tspan><tspan x="29.494" y="26.4" font-size="11">is the first bit of the Overlay Plane, encoded from left to right and top to </tspan><tspan x="29.494" y="39.6" font-size="11">bottom, a row at a time.</tspan></text>
	</g>
</g>
</svg>
