<?xml version="1.0" encoding="utf-8"?>

<!DOCTYPE svg PUBLIC "-//W3C//DTD SVG 1.1//EN" "http://www.w3.org/Graphics/SVG/1.1/DTD/svg11.dtd">
<svg version="1.1" id="Layer_1" xmlns="http://www.w3.org/2000/svg" xmlns:xlink="http://www.w3.org/1999/xlink" x="0px" y="0px"
	 width="552px" height="152px" viewBox="0 0 552 152" enable-background="new 0 0 552 152" xml:space="preserve">

<defs>
	<style type="text/css">
	text {
	  font-family: Helvetica, Verdana, ArialUnicodeMS, san-serif
	}
	</style>
</defs>

<g>
   <desc>
	PS 3.17 Part 17: Explanatory Information
   </desc>
</g>

<g>
	<rect x="1" y="1" fill="#F5EED6" width="550" height="150"/>
	<g>
		
			<rect x="64.275" y="23.631" fill="#CCDEF0" stroke="#010101" stroke-width="0.75" stroke-linecap="round" stroke-linejoin="round" stroke-miterlimit="1" width="50" height="20"/>
		
			<rect x="273.513" y="23.631" fill="#CCDEF0" stroke="#010101" stroke-width="0.75" stroke-linecap="round" stroke-linejoin="round" stroke-miterlimit="1" width="136" height="20"/>
		
			<line fill="none" stroke="#010101" stroke-linecap="round" stroke-linejoin="round" stroke-miterlimit="8" x1="115.275" y1="33.631" x2="147.275" y2="33.631"/>
		
			<line fill="none" stroke="#010101" stroke-linecap="round" stroke-linejoin="round" stroke-miterlimit="8" x1="31.155" y1="33.631" x2="63.155" y2="33.631"/>
		
			<rect x="147.275" y="23.631" fill="#CCDEF0" stroke="#010101" stroke-width="0.75" stroke-linecap="round" stroke-linejoin="round" stroke-miterlimit="1" width="85" height="20"/>
		
			<line fill="none" stroke="#010101" stroke-linecap="round" stroke-linejoin="round" stroke-miterlimit="8" x1="232.275" y1="33.631" x2="272.275" y2="33.631"/>
		<text transform="matrix(1 0 0 1 75.6992 35.5176)"><tspan x="0" y="0" fill="#010101" font-size="10">S</tspan><tspan x="6.53" y="0" fill="#010101" font-size="10">t</tspan><tspan x="9.308" y="0" fill="#010101" font-size="10">u</tspan><tspan x="14.81" y="0" fill="#010101" font-size="10">d</tspan><tspan x="20.361" y="0" fill="#010101" font-size="10">y</tspan></text>
		<text transform="matrix(1 0 0 1 283.1602 35.5176)"><tspan x="0" y="0" fill="#010101" font-size="10">S</tspan><tspan x="6.53" y="0" fill="#010101" font-size="10">u</tspan><tspan x="12.031" y="0" fill="#010101" font-size="10">rfac</tspan><tspan x="28.701" y="0" fill="#010101" font-size="10">e</tspan><tspan x="34.233" y="0" fill="#010101" font-size="10"> </tspan><tspan x="37.012" y="0" fill="#010101" font-size="10">S</tspan><tspan x="43.541" y="0" fill="#010101" font-size="10">can </tspan><tspan x="62.443" y="0" fill="#010101" font-size="10">Point Cloud</tspan></text>
		<text transform="matrix(1 0 0 1 175.1279 36.2969)" fill="#010101" font-size="10">Series</text>
		
			<rect x="273.513" y="58.631" fill="#CCDEF0" stroke="#010101" stroke-width="0.75" stroke-linecap="round" stroke-linejoin="round" stroke-miterlimit="1" width="136" height="20"/>
		<polyline fill="none" stroke="#010101" stroke-linecap="round" stroke-linejoin="round" stroke-miterlimit="8" points="
			147.275,68.631 131.275,68.631 131.275,33.75 		"/>
		
			<rect x="147.275" y="58.631" fill="#CCDEF0" stroke="#010101" stroke-width="0.75" stroke-linecap="round" stroke-linejoin="round" stroke-miterlimit="1" width="85" height="20"/>
		
			<line fill="none" stroke="#010101" stroke-linecap="round" stroke-linejoin="round" stroke-miterlimit="8" x1="232.275" y1="68.631" x2="272.275" y2="68.631"/>
		<text transform="matrix(1 0 0 1 283.1602 70.5176)" fill="#010101" font-size="10">VL Photographic Image</text>
		<text transform="matrix(1 0 0 1 464.1621 25.498)"><tspan x="0" y="0" fill="#010101" font-size="10">UV Mapping</tspan><tspan x="0" y="12" fill="#010101" font-size="10">Sequence</tspan></text>
		<text transform="matrix(1 0 0 1 464.1621 108.0703)"><tspan x="0" y="0" fill="#010101" font-size="10">Referenced</tspan><tspan x="0" y="12" fill="#010101" font-size="10">Surface Data</tspan><tspan x="0" y="24" fill="#010101" font-size="10">Sequence</tspan></text>
		<text transform="matrix(1 0 0 1 175.1279 71.2969)" fill="#010101" font-size="10">Series</text>
		
			<rect x="273.513" y="93.909" fill="#CCDEF0" stroke="#010101" stroke-width="0.75" stroke-linecap="round" stroke-linejoin="round" stroke-miterlimit="1" width="136" height="20"/>
		<polyline fill="none" stroke="#010101" stroke-linecap="round" stroke-linejoin="round" stroke-miterlimit="8" points="
			147.275,103.909 131.275,103.909 131.275,69.029 		"/>
		
			<rect x="147.275" y="93.909" fill="#CCDEF0" stroke="#010101" stroke-width="0.75" stroke-linecap="round" stroke-linejoin="round" stroke-miterlimit="1" width="85" height="20"/>
		
			<line fill="none" stroke="#010101" stroke-linecap="round" stroke-linejoin="round" stroke-miterlimit="8" x1="232.275" y1="103.909" x2="272.275" y2="103.909"/>
		<text transform="matrix(1 0 0 1 283.1602 105.7988)"><tspan x="0" y="0" fill="#010101" font-size="10">S</tspan><tspan x="6.53" y="0" fill="#010101" font-size="10">u</tspan><tspan x="12.031" y="0" fill="#010101" font-size="10">rfac</tspan><tspan x="28.701" y="0" fill="#010101" font-size="10">e</tspan><tspan x="34.233" y="0" fill="#010101" font-size="10"> </tspan><tspan x="37.012" y="0" fill="#010101" font-size="10">S</tspan><tspan x="43.541" y="0" fill="#010101" font-size="10">can </tspan><tspan x="62.443" y="0" fill="#010101" font-size="10">Mesh</tspan></text>
		<text transform="matrix(1 0 0 1 175.1279 106.5781)" fill="#010101" font-size="10">Series</text>
		<g>
			<g>
				<path fill="none" stroke="#ED1C24" stroke-linecap="round" stroke-linejoin="round" d="M409.418,33.631
					c9.094,0,16.465,7.371,16.465,16.465c0,7.258-4.695,13.418-11.214,15.61"/>
				<g>
					<polygon fill="#ED1C24" points="415.501,63.673 409.418,66.561 416.13,67.102 					"/>
				</g>
			</g>
		</g>
		<g>
			<g>
				<path fill="none" stroke="#ED1C24" stroke-linecap="round" stroke-linejoin="round" d="M414.669,70.861
					c6.519,2.192,11.214,8.352,11.214,15.61c0,9.094-7.371,16.465-16.465,16.465"/>
				<g>
					<polygon fill="#ED1C24" points="415.501,72.894 409.418,70.006 416.13,69.464 					"/>
				</g>
			</g>
		</g>
		<g>
			<g>
				<path fill="none" stroke="#0DB14B" stroke-width="0.75" stroke-linecap="round" stroke-linejoin="round" d="M414.727,30.007
					c19.772,2.599,35.035,19.517,35.035,39.999c0,22.282-18.062,40.345-40.344,40.345"/>
				<g>
					<polygon fill="#0DB14B" points="415.762,31.92 409.418,29.661 416.041,28.445 					"/>
				</g>
			</g>
		</g>
		
			<line fill="none" stroke="#000000" stroke-width="0.5" stroke-miterlimit="10" x1="453.096" y1="22.061" x2="425.883" y2="43.631"/>
		<path fill="none" stroke="#000000" stroke-width="0.5" stroke-miterlimit="10" d="M425.883,43.271"/>
		<path fill="none" stroke="#000000" stroke-width="0.5" stroke-miterlimit="10" d="M453.096,25.139"/>
		<path fill="none" stroke="#000000" stroke-width="0.5" stroke-miterlimit="10" d="M425.883,43.631"/>
		<path fill="none" stroke="#000000" stroke-width="0.5" stroke-miterlimit="10" d="M453.096,25.499"/>
		<polyline fill="none" stroke="#000000" stroke-width="0.5" stroke-miterlimit="10" points="461.762,22.061 453.096,22.061 
			425.627,80.365 		"/>
		<polyline fill="none" stroke="#000000" stroke-width="0.5" stroke-miterlimit="10" points="461.762,104.898 453.096,104.898 
			443.096,94.883 		"/>
	</g>
</g>
</svg>
