<?xml version="1.0" encoding="utf-8"?>

<!DOCTYPE svg PUBLIC "-//W3C//DTD SVG 1.1//EN" "http://www.w3.org/Graphics/SVG/1.1/DTD/svg11.dtd">
<svg version="1.1" id="Layer_1" xmlns="http://www.w3.org/2000/svg" xmlns:xlink="http://www.w3.org/1999/xlink" x="0px" y="0px"
	 width="502px" height="257px" viewBox="0 0 502 257" enable-background="new 0 0 502 257" xml:space="preserve">

<defs>
	<style type="text/css">
	text {
	  font-family: Helvetica, Verdana, ArialUnicodeMS, san-serif
	}
	</style>
</defs>

<g>
   <desc>
	PS 3.17 Part 17: Explanatory Information
   </desc>
</g>

<g>
	<rect x="1" y="1" fill="#F5EED6" width="500" height="255"/>
	<g>
		<g>
			<g>
				<polyline fill="none" stroke="#005695" stroke-linecap="round" stroke-miterlimit="1" points="292.652,196.565 292.652,227.874 
					309.691,227.874 344.276,227.874 344.276,130.106 355.655,130.106 				"/>
				<g>
					<polygon fill="#005695" points="354.07,132.431 362.743,130.106 354.07,127.782 					"/>
				</g>
			</g>
		</g>
		<g>
			<g>
				
					<line fill="none" stroke="#005695" stroke-linecap="round" stroke-miterlimit="1" x1="66.982" y1="102.037" x2="66.982" y2="109.588"/>
				<g>
					<polygon fill="#005695" points="64.658,108.003 66.982,116.676 69.307,108.003 					"/>
				</g>
			</g>
		</g>
		
			<polygon fill="#CCDEF0" stroke="#010101" stroke-width="0.75" stroke-linecap="round" stroke-linejoin="round" stroke-miterlimit="1" points="
			155.567,184.493 200.525,171.325 245.566,184.919 245.566,184.95 200.477,198.304 		"/>
		
			<polygon fill="#CCDEF0" stroke="#010101" stroke-width="0.75" stroke-linecap="round" stroke-linejoin="round" stroke-miterlimit="1" points="
			30.809,90.147 66.78,76.972 102.815,90.573 102.815,90.604 66.741,103.968 		"/>
		<g>
			<text transform="matrix(1 0.0022 -0.0022 1 48.7236 92.8481)" font-size="7">CONTAINS</text>
		</g>
		<g>
			<g>
				
					<line fill="none" stroke="#005695" stroke-linecap="round" stroke-miterlimit="1" x1="157.284" y1="102.936" x2="157.284" y2="109.588"/>
				<g>
					<polygon fill="#005695" points="154.96,108.003 157.284,116.676 159.608,108.003 					"/>
				</g>
			</g>
		</g>
		
			<rect x="121.283" y="117.261" fill="#B2CEE7" stroke="#010101" stroke-width="0.75" stroke-linecap="round" stroke-linejoin="round" stroke-miterlimit="1" width="72" height="26.984"/>
		<g>
			<text transform="matrix(1 0 0 1 135.4014 128.4736)"><tspan x="0" y="0" font-size="7">BPD = 56 mm</tspan><tspan x="13.911" y="8.4" font-size="7">NUM</tspan></text>
		</g>
		
			<rect x="30.981" y="117.261" fill="#B2CEE7" stroke="#010101" stroke-width="0.75" stroke-linecap="round" stroke-linejoin="round" stroke-miterlimit="1" width="72" height="26.984"/>
		<g>
			<text transform="matrix(1 0 0 1 45.0996 128.4727)"><tspan x="0" y="0" font-size="7">BPD = 60 mm</tspan><tspan x="13.911" y="8.399" font-size="7">NUM</tspan></text>
		</g>
		<g>
			<g>
				<polyline fill="none" stroke="#005695" stroke-linecap="round" stroke-miterlimit="1" points="157.834,59.499 247.337,59.499 
					247.337,69.226 				"/>
				<g>
					<polygon fill="#005695" points="245.013,67.641 247.337,76.313 249.661,67.641 					"/>
				</g>
			</g>
		</g>
		<g>
			<g>
				
					<line fill="none" stroke="#005695" stroke-linecap="round" stroke-miterlimit="1" x1="157.284" y1="45.454" x2="157.284" y2="69.444"/>
				<g>
					<polygon fill="#005695" points="154.959,67.858 157.284,76.531 159.608,67.858 					"/>
				</g>
			</g>
		</g>
		
			<polygon fill="#CCDEF0" stroke="#010101" stroke-width="0.75" stroke-linecap="round" stroke-linejoin="round" stroke-miterlimit="1" points="
			121.283,90.019 157.252,76.85 193.283,90.445 193.283,90.475 157.211,103.83 		"/>
		<text transform="matrix(1 0 0 1 139.1987 92.2563)" font-size="7">CONTAINS</text>
		<g>
			<g>
				
					<line fill="none" stroke="#005695" stroke-linecap="round" stroke-miterlimit="1" x1="247.338" y1="102.936" x2="247.338" y2="109.588"/>
				<g>
					<polygon fill="#005695" points="245.014,108.003 247.338,116.676 249.662,108.003 					"/>
				</g>
			</g>
		</g>
		<g>
			<g>
				
					<line fill="none" stroke="#005695" stroke-linecap="round" stroke-miterlimit="1" stroke-dasharray="4,4" x1="417.621" y1="63.159" x2="417.621" y2="108.747"/>
				<g>
					<polygon fill="#005695" points="415.297,107.162 417.621,115.834 419.945,107.162 					"/>
				</g>
			</g>
		</g>
		
			<rect x="206.84" y="117.261" fill="#B2CEE7" stroke="#010101" stroke-width="0.75" stroke-linecap="round" stroke-linejoin="round" stroke-miterlimit="1" width="81.001" height="26.984"/>
		<g>
			<text transform="matrix(1 0 0 1 211.6396 128.4736)"><tspan x="0" y="0" font-size="7">Percentile Rank = 65%</tspan><tspan x="27.73" y="8.4" font-size="7">NUM</tspan></text>
		</g>
		
			<polygon fill="#CCDEF0" stroke="#010101" stroke-width="0.75" stroke-linecap="round" stroke-linejoin="round" stroke-miterlimit="1" points="
			211.341,90.019 247.309,76.85 283.341,90.445 283.341,90.475 247.268,103.83 		"/>
		<text transform="matrix(1 0 0 1 229.2559 92.2563)" font-size="7">CONTAINS</text>
		<g>
			<g>
				<polyline fill="none" stroke="#005695" stroke-linecap="round" stroke-miterlimit="1" points="156.617,59.499 66.981,59.499 
					66.981,69.226 				"/>
				<g>
					<polygon fill="#005695" points="64.657,67.641 66.981,76.313 69.306,67.641 					"/>
				</g>
			</g>
		</g>
		
			<rect x="98.78" y="17.432" fill="#86B2D8" stroke="#010101" stroke-width="0.75" stroke-linecap="round" stroke-linejoin="round" stroke-miterlimit="1" width="117.007" height="27.001"/>
		<g>
			<text transform="matrix(1 0 0 1 113.936 28.3306)"><tspan x="0" y="0" font-size="8">Biometry Measurements</tspan><tspan x="19.791" y="9.6" font-size="8">CONTAINER</tspan></text>
		</g>
		
			<polygon fill="#CCDEF0" stroke="#010101" stroke-width="0.75" stroke-linecap="round" stroke-linejoin="round" stroke-miterlimit="1" points="
			248.006,184.497 292.968,171.323 338.007,184.923 338.007,184.952 292.917,198.308 		"/>
		<text transform="matrix(1 0 0 1 271.4199 183.8525)"><tspan x="0" y="0" font-size="7">R-INFERRED</tspan><tspan x="11.279" y="8.4" font-size="7">FROM</tspan></text>
		<text transform="matrix(1 0 0 1 171.4023 186.7354)" font-size="7">INFERRED FROM</text>
		<g>
			<g>
				
					<line fill="none" stroke="#005695" stroke-linecap="round" stroke-miterlimit="1" x1="200.567" y1="198.466" x2="200.567" y2="207.584"/>
				<g>
					<polygon fill="#005695" points="198.243,205.999 200.567,214.672 202.892,205.999 					"/>
				</g>
			</g>
		</g>
		
			<rect x="142.067" y="215.021" fill="#B2CEE7" stroke="#010101" stroke-width="0.75" stroke-linecap="round" stroke-linejoin="round" stroke-miterlimit="1" width="116.999" height="26.984"/>
		<g>
			<text transform="matrix(1 0 0 1 146.7764 226.2334)"><tspan x="0" y="0" font-size="7">Reference Authority = (Hadlock84)</tspan><tspan x="43.679" y="8.4" font-size="7">CODE</tspan></text>
		</g>
		
			<rect x="363.616" y="116.534" fill="#B2CEE7" stroke="#010101" stroke-width="0.75" stroke-linecap="round" stroke-linejoin="round" stroke-miterlimit="1" width="108.006" height="27"/>
		<g>
			<text transform="matrix(1 0 0 1 374.5898 127.4326)"><tspan x="0" y="0" font-size="8">Gestational Age = 160 d</tspan><tspan x="33.922" y="9.6" font-size="8">NUM</tspan></text>
		</g>
		<g>
			<g>
				<polyline fill="none" stroke="#005695" stroke-linecap="round" stroke-miterlimit="1" points="247.154,144.386 247.154,155.628 
					200.57,155.628 200.57,163.839 				"/>
				<g>
					<polygon fill="#005695" points="198.246,162.254 200.57,170.927 202.895,162.254 					"/>
				</g>
			</g>
		</g>
		<g>
			<g>
				<polyline fill="none" stroke="#005695" stroke-linecap="round" stroke-miterlimit="1" points="247.158,155.628 292.56,155.628 
					292.56,163.401 				"/>
				<g>
					<polygon fill="#005695" points="290.235,161.816 292.56,170.489 294.884,161.816 					"/>
				</g>
			</g>
		</g>
	</g>
</g>
</svg>
