<?xml version="1.0" encoding="utf-8"?>

<!DOCTYPE svg PUBLIC "-//W3C//DTD SVG 1.1//EN" "http://www.w3.org/Graphics/SVG/1.1/DTD/svg11.dtd">
<svg version="1.1" id="Layer_1" xmlns="http://www.w3.org/2000/svg" xmlns:xlink="http://www.w3.org/1999/xlink" x="0px" y="0px"
	 width="642px" height="307px" viewBox="0 0 642 307" enable-background="new 0 0 642 307" xml:space="preserve">

<defs>
	<style type="text/css">
	text {
	  font-family: Helvetica, Verdana, ArialUnicodeMS, san-serif
	}
	</style>
</defs>

<g>
   <desc>
	PS 3.17 Part 17: Explanatory Information
   </desc>
</g>

<g>
	<rect x="1" y="1" fill="#F5EED6" width="640" height="305"/>
	<g>
		
			<line fill="none" stroke="#000000" stroke-width="0.5" stroke-linecap="round" stroke-miterlimit="1" x1="346.848" y1="49.91" x2="346.848" y2="292.251"/>
		
			<line fill="none" stroke="#000000" stroke-width="0.5" stroke-linecap="round" stroke-miterlimit="1" x1="469.248" y1="49.91" x2="469.248" y2="292.25"/>
		
			<line fill="none" stroke="#000000" stroke-width="0.5" stroke-linecap="round" stroke-miterlimit="1" x1="172.752" y1="49.91" x2="172.752" y2="292.25"/>
		
			<rect x="435.248" y="14.749" fill="#CCDEF0" stroke="#010101" stroke-width="0.75" stroke-linecap="round" stroke-linejoin="round" stroke-miterlimit="1" width="68" height="35"/>
		
			<rect x="312.849" y="14.749" fill="#CCDEF0" stroke="#010101" stroke-width="0.75" stroke-linecap="round" stroke-linejoin="round" stroke-miterlimit="1" width="68" height="35"/>
		<text transform="matrix(1 0 0 1 454.4941 29.3521)"><tspan x="0" y="0" font-size="9">Display</tspan><tspan x="-4.5" y="10.8" font-size="9">System B</tspan></text>
		<text transform="matrix(1 0 0 1 332.0938 29.3521)"><tspan x="0" y="0" font-size="9">Display</tspan><tspan x="-4.5" y="10.8" font-size="9">System A</tspan></text>
		
			<rect x="138.752" y="14.749" fill="#CCDEF0" stroke="#010101" stroke-width="0.75" stroke-linecap="round" stroke-linejoin="round" stroke-miterlimit="1" width="68" height="35"/>
		<text transform="matrix(1 0 0 1 166.001 23.9438)"><tspan x="0" y="0" font-size="9">QC</tspan><tspan x="-19.516" y="10.8" font-size="9">Management</tspan><tspan x="-8.51" y="21.6" font-size="9">Station </tspan></text>
		
			<rect x="341.98" y="189.014" fill="#CCDEF0" stroke="#010101" stroke-width="0.75" stroke-linecap="round" stroke-linejoin="round" stroke-miterlimit="1" width="9" height="27.393"/>
		
			<rect x="342.348" y="86.616" fill="#CCDEF0" stroke="#010101" stroke-width="0.75" stroke-linecap="round" stroke-linejoin="round" stroke-miterlimit="1" width="9" height="18.663"/>
		
			<rect x="168.252" y="86.616" fill="#CCDEF0" stroke="#010101" stroke-width="0.75" stroke-linecap="round" stroke-linejoin="round" stroke-miterlimit="1" width="9" height="18.663"/>
		<g>
			<g>
				
					<line fill="none" stroke="#005695" stroke-linecap="round" stroke-miterlimit="1" x1="177.255" y1="86.616" x2="337.032" y2="86.616"/>
				<g>
					<polygon fill="#005695" points="335.843,88.359 342.348,86.616 335.843,84.873 					"/>
				</g>
			</g>
		</g>
		<g>
			<g>
				
					<line fill="none" stroke="#005695" stroke-linecap="round" stroke-miterlimit="1" x1="182.567" y1="105.279" x2="342.348" y2="105.279"/>
				<g>
					<polygon fill="#005695" points="183.756,107.022 177.252,105.279 183.756,103.536 					"/>
				</g>
			</g>
		</g>
		
			<rect x="342.348" y="252.014" fill="#CCDEF0" stroke="#010101" stroke-width="0.75" stroke-linecap="round" stroke-linejoin="round" stroke-miterlimit="1" width="9" height="18.663"/>
		
			<rect x="168.252" y="252.014" fill="#CCDEF0" stroke="#010101" stroke-width="0.75" stroke-linecap="round" stroke-linejoin="round" stroke-miterlimit="1" width="9" height="18.663"/>
		<g>
			<g>
				
					<line fill="none" stroke="#005695" stroke-linecap="round" stroke-miterlimit="1" x1="177.255" y1="252.014" x2="337.032" y2="252.014"/>
				<g>
					<polygon fill="#005695" points="335.843,253.757 342.348,252.014 335.843,250.271 					"/>
				</g>
			</g>
		</g>
		<g>
			<g>
				
					<line fill="none" stroke="#005695" stroke-linecap="round" stroke-miterlimit="1" x1="182.567" y1="270.677" x2="342.348" y2="270.677"/>
				<g>
					<polygon fill="#005695" points="183.756,272.42 177.252,270.677 183.756,268.934 					"/>
				</g>
			</g>
		</g>
		
			<rect x="464.751" y="141.947" fill="#CCDEF0" stroke="#010101" stroke-width="0.75" stroke-linecap="round" stroke-linejoin="round" stroke-miterlimit="1" width="8.999" height="18.663"/>
		
			<rect x="168.252" y="141.947" fill="#CCDEF0" stroke="#010101" stroke-width="0.75" stroke-linecap="round" stroke-linejoin="round" stroke-miterlimit="1" width="9" height="18.663"/>
		<g>
			<g>
				
					<line fill="none" stroke="#005695" stroke-linecap="round" stroke-miterlimit="1" x1="177.255" y1="141.947" x2="459.436" y2="141.947"/>
				<g>
					<polygon fill="#005695" points="458.246,143.69 464.751,141.947 458.246,140.204 					"/>
				</g>
			</g>
		</g>
		<g>
			<g>
				
					<line fill="none" stroke="#005695" stroke-linecap="round" stroke-miterlimit="1" x1="182.567" y1="160.61" x2="464.751" y2="160.61"/>
				<g>
					<polygon fill="#005695" points="183.756,162.354 177.252,160.61 183.756,158.867 					"/>
				</g>
			</g>
		</g>
		<g>
			<g>
				<polyline fill="none" stroke="#005695" stroke-linecap="round" stroke-miterlimit="1" points="350.98,196.602 360.715,196.602 
					360.715,213.098 356.296,213.098 				"/>
				<g>
					<polygon fill="#005695" points="357.485,211.354 350.98,213.098 357.485,214.841 					"/>
				</g>
			</g>
		</g>
		<rect x="184.342" y="77.953" fill="none" width="284.906" height="197.691"/>
		<text transform="matrix(1.0017 0 0 1 184.3418 82.9614)"><tspan x="0" y="0" font-size="7">Gets Display System Status and Configuration</tspan><tspan x="0" y="55.2" font-size="7">Gets Display System Status and Configuration</tspan><tspan x="0" y="110.4" font-size="7" letter-spacing="45.924">	</tspan><tspan x="48" y="110.4" font-size="7" letter-spacing="119.801">	</tspan><tspan x="169.999" y="110.4" font-size="7">Changes Status</tspan><tspan x="0" y="165.6" font-size="7">Gets Display System Status</tspan></text>
	</g>
</g>
</svg>
