<?xml version="1.0" encoding="utf-8"?>

<!DOCTYPE svg PUBLIC "-//W3C//DTD SVG 1.1//EN" "http://www.w3.org/Graphics/SVG/1.1/DTD/svg11.dtd">
<svg version="1.1" id="Layer_1" xmlns="http://www.w3.org/2000/svg" xmlns:xlink="http://www.w3.org/1999/xlink" x="0px" y="0px"
	 width="501.998px" height="652px" viewBox="0 0 501.998 652" enable-background="new 0 0 501.998 652" xml:space="preserve">

<defs>
	<style type="text/css">
	text {
	  font-family: Helvetica, Verdana, ArialUnicodeMS, san-serif
	}
	</style>
</defs>

<g>
   <desc>
	PS 3.17 Part 17: Explanatory Information
   </desc>
</g>

<g>
	<rect x="1" y="1" fill="#F5EED6" width="499.998" height="650"/>
	<g>
		
			<rect x="292.562" y="15.964" fill="#E6E6E6" stroke="#010101" stroke-width="0.75" stroke-linecap="round" stroke-linejoin="round" stroke-miterlimit="1" width="98.186" height="620.072"/>
		
			<rect x="390.747" y="15.964" fill="#CCCCCC" stroke="#010101" stroke-width="0.75" stroke-linecap="round" stroke-linejoin="round" stroke-miterlimit="1" width="98.186" height="620.072"/>
		
			<rect x="13.065" y="232.453" fill="#B2CEE7" stroke="#010101" stroke-width="0.75" stroke-linecap="round" stroke-linejoin="round" stroke-miterlimit="1" width="279.496" height="13.568"/>
		
			<rect x="13.065" y="218.885" fill="#B2CEE7" stroke="#010101" stroke-width="0.75" stroke-linecap="round" stroke-linejoin="round" stroke-miterlimit="1" width="279.496" height="13.568"/>
		<rect x="17.205" y="221.969" fill="none" width="263.237" height="7.715"/>
		<text transform="matrix(0.9288 0 0 1 17.2041 227.6895)" font-size="8">Position of Isocenter Projection</text>
		
			<rect x="13.065" y="205.316" fill="#B2CEE7" stroke="#010101" stroke-width="0.75" stroke-linecap="round" stroke-linejoin="round" stroke-miterlimit="1" width="279.496" height="13.568"/>
		
			<rect x="13.065" y="191.995" fill="#B2CEE7" stroke="#010101" stroke-width="0.75" stroke-linecap="round" stroke-linejoin="round" stroke-miterlimit="1" width="279.496" height="13.568"/>
		<rect x="17.205" y="208.4" fill="none" width="141.988" height="7.715"/>
		<text transform="matrix(0.9288 0 0 1 17.2041 214.1235)" font-size="8">Physical Detector Size</text>
		
			<rect x="13.065" y="178.427" fill="#B2CEE7" stroke="#010101" stroke-width="0.75" stroke-linecap="round" stroke-linejoin="round" stroke-miterlimit="1" width="279.496" height="13.568"/>
		<rect x="17.205" y="181.511" fill="none" width="141.988" height="7.715"/>
		<text transform="matrix(0.9288 0 0 1 17.2041 187.2354)" font-size="8">Detector Active Dimension(s)</text>
		
			<rect x="13.065" y="164.858" fill="#B2CEE7" stroke="#010101" stroke-width="0.75" stroke-linecap="round" stroke-linejoin="round" stroke-miterlimit="1" width="279.496" height="13.568"/>
		<rect x="17.205" y="167.943" fill="none" width="141.988" height="7.715"/>
		<text transform="matrix(0.9288 0 0 1 17.2041 173.667)" font-size="8">Detector Active Shape</text>
		<rect x="17.205" y="194.923" fill="none" width="141.988" height="7.715"/>
		<text transform="matrix(0.9288 0 0 1 17.2041 200.647)" font-size="8">Detector Active Origin</text>
		
			<rect x="13.065" y="151.29" fill="#B2CEE7" stroke="#010101" stroke-width="0.75" stroke-linecap="round" stroke-linejoin="round" stroke-miterlimit="1" width="279.496" height="13.568"/>
		<rect x="17.205" y="154.375" fill="none" width="141.988" height="7.715"/>
		<text transform="matrix(0.9288 0 0 1 17.2041 160.0986)" font-size="8">Detector Element Spacing</text>
		
			<rect x="13.065" y="137.723" fill="#B2CEE7" stroke="#010101" stroke-width="0.75" stroke-linecap="round" stroke-linejoin="round" stroke-miterlimit="1" width="279.496" height="13.568"/>
		<rect x="17.205" y="140.807" fill="none" width="141.988" height="7.715"/>
		<text transform="matrix(0.9288 0 0 1 17.2041 146.5249)" font-size="8">Detector Binning</text>
		
			<rect x="13.065" y="124.261" fill="#B2CEE7" stroke="#010101" stroke-width="0.75" stroke-linecap="round" stroke-linejoin="round" stroke-miterlimit="1" width="279.496" height="13.568"/>
		<rect x="17.205" y="127.345" fill="none" width="141.988" height="7.715"/>
		<text transform="matrix(0.9288 0 0 1 17.2041 133.0684)" font-size="8">...</text>
		
			<rect x="13.065" y="110.692" fill="#B2CEE7" stroke="#010101" stroke-width="0.75" stroke-linecap="round" stroke-linejoin="round" stroke-miterlimit="1" width="279.496" height="13.568"/>
		<rect x="17.205" y="113.777" fill="none" width="141.988" height="7.715"/>
		<text transform="matrix(0.9288 0 0 1 17.2041 119.5)" font-size="8">C-Arm Positioner Tabletop Relationship</text>
		
			<rect x="13.065" y="97.124" fill="#B2CEE7" stroke="#010101" stroke-width="0.75" stroke-linecap="round" stroke-linejoin="round" stroke-miterlimit="1" width="279.496" height="13.568"/>
		<rect x="17.205" y="100.208" fill="none" width="141.426" height="7.715"/>
		<text transform="matrix(0.9288 0 0 1 17.2051 105.9336)" font-size="8">Positioner Type</text>
		
			<rect x="13.065" y="83.556" fill="#B2CEE7" stroke="#010101" stroke-width="0.75" stroke-linecap="round" stroke-linejoin="round" stroke-miterlimit="1" width="279.496" height="13.568"/>
		
			<rect x="13.065" y="70.235" fill="#B2CEE7" stroke="#010101" stroke-width="0.75" stroke-linecap="round" stroke-linejoin="round" stroke-miterlimit="1" width="279.496" height="13.568"/>
		<rect x="17.205" y="86.64" fill="none" width="141.988" height="7.715"/>
		<text transform="matrix(0.9288 0 0 1 17.2041 92.3633)" font-size="8">X-Ray Receptor Type</text>
		
			<rect x="13.065" y="56.667" fill="#B2CEE7" stroke="#010101" stroke-width="0.75" stroke-linecap="round" stroke-linejoin="round" stroke-miterlimit="1" width="279.496" height="13.568"/>
		<rect x="17.205" y="59.751" fill="none" width="141.988" height="7.715"/>
		<text transform="matrix(0.9288 0 0 1 17.2041 65.4751)" font-size="8">Columns</text>
		
			<rect x="13.065" y="43.099" fill="#B2CEE7" stroke="#010101" stroke-width="0.75" stroke-linecap="round" stroke-linejoin="round" stroke-miterlimit="1" width="279.496" height="13.568"/>
		<rect x="17.205" y="46.183" fill="none" width="141.988" height="7.715"/>
		<text transform="matrix(0.9288 0 0 1 17.2041 51.9067)" font-size="8">Rows</text>
		<rect x="17.205" y="73.163" fill="none" width="141.988" height="7.715"/>
		<text transform="matrix(0.9288 0 0 1 17.2041 78.8867)" font-size="8">...</text>
		
			<rect x="13.065" y="29.53" fill="#B2CEE7" stroke="#010101" stroke-width="0.75" stroke-linecap="round" stroke-linejoin="round" stroke-miterlimit="1" width="279.496" height="13.568"/>
		<rect x="17.205" y="32.614" fill="none" width="141.988" height="7.715"/>
		<text transform="matrix(0.9288 0 0 1 17.2041 38.3384)" font-size="8">...</text>
		<rect x="17.205" y="235.567" fill="none" width="141.988" height="7.715"/>
		<text transform="matrix(0.9288 0 0 1 17.2041 241.2852)" font-size="8">...</text>
		
			<rect x="13.065" y="246.052" fill="#B2CEE7" stroke="#010101" stroke-width="0.75" stroke-linecap="round" stroke-linejoin="round" stroke-miterlimit="1" width="279.496" height="389.984"/>
		
			<rect x="28.176" y="272.683" fill="#86B2D8" stroke="#010101" stroke-width="0.75" stroke-linecap="round" stroke-linejoin="round" stroke-miterlimit="1" width="264.386" height="363.354"/>
		
			<rect x="43.386" y="286.299" fill="#FFFFFF" stroke="#010101" stroke-width="0.75" stroke-linecap="round" stroke-linejoin="round" stroke-miterlimit="1" width="249.176" height="97.683"/>
		
			<rect x="58.596" y="300.347" fill="#86B2D8" stroke="#010101" stroke-width="0.75" stroke-linecap="round" stroke-linejoin="round" stroke-miterlimit="1" width="233.966" height="83.635"/>
		
			<rect x="71.3" y="314.347" fill="#FFFFFF" stroke="#010101" stroke-width="0.75" stroke-linecap="round" stroke-linejoin="round" stroke-miterlimit="1" width="221.262" height="14"/>
		
			<rect x="71.3" y="328.347" fill="#FFFFFF" stroke="#010101" stroke-width="0.75" stroke-linecap="round" stroke-linejoin="round" stroke-miterlimit="1" width="221.262" height="14"/>
		<rect x="17.205" y="249.136" fill="none" width="141.988" height="7.715"/>
		<text transform="matrix(0.9288 0 0 1 17.2041 254.8535)" font-size="8">Per-Frame Functional Groups Sequence</text>
		<rect x="50.763" y="290.995" fill="none" width="186.91" height="7.717"/>
		<text transform="matrix(0.9288 0 0 1 50.7617 296.71)" font-size="8">&gt;Field of View Sequence</text>
		<g>
			<rect x="81.017" y="318.044" fill="none" width="156.655" height="7.717"/>
			<text transform="matrix(0.9288 0 0 1 81.0161 323.7603)" font-size="8">&gt;&gt;Field of View Shape </text>
		</g>
		<g>
			<rect x="81.017" y="331.962" fill="none" width="156.933" height="7.715"/>
			<text transform="matrix(0.9288 0 0 1 81.0166 337.6875)" font-size="8">&gt;&gt;Field of View Dimensions in Float</text>
		</g>
		<rect x="32.446" y="276.618" fill="none" width="127.729" height="7.72"/>
		<text transform="matrix(0.9288 0 0 1 32.4448 282.3335)" font-size="8">Item 1</text>
		<rect x="62.446" y="304.13" fill="none" width="96.499" height="7.715"/>
		<text transform="matrix(0.9288 0 0 1 62.4448 309.8462)" font-size="8">Item 1</text>
		<rect x="247.097" y="249.122" fill="none" width="44.984" height="7.717"/>
		<text transform="matrix(0.9288 0 0 1 247.1035 254.8408)" font-size="8">(5200,9230)</text>
		<g>
			<rect x="247.097" y="194.955" fill="none" width="44.984" height="7.717"/>
			<text transform="matrix(0.9288 0 0 1 247.1035 200.6792)" font-size="8">(0018,7028)</text>
			<rect x="247.097" y="181.387" fill="none" width="44.984" height="7.717"/>
			<text transform="matrix(0.9288 0 0 1 247.1035 187.1108)" font-size="8">(0018,7026)</text>
		</g>
		<rect x="247.097" y="221.969" fill="none" width="44.984" height="7.717"/>
		<text transform="matrix(0.9288 0 0 1 247.1035 227.6929)" font-size="8">(0018,9430)</text>
		<rect x="247.097" y="208.4" fill="none" width="44.984" height="7.717"/>
		<text transform="matrix(0.9288 0 0 1 247.1035 214.1245)" font-size="8">(0018,9429)</text>
		<rect x="247.097" y="154.498" fill="none" width="44.984" height="7.717"/>
		<text transform="matrix(0.9288 0 0 1 247.1035 160.2227)" font-size="8">(0018,7022)</text>
		<rect x="247.097" y="167.943" fill="none" width="44.984" height="7.717"/>
		<text transform="matrix(0.9288 0 0 1 247.1035 173.668)" font-size="8">(0018,7024)</text>
		<rect x="247.097" y="140.929" fill="none" width="44.984" height="7.717"/>
		<text transform="matrix(0.9288 0 0 1 247.1035 146.6543)" font-size="8">(0018,701A)</text>
		<rect x="247.097" y="113.778" fill="none" width="44.984" height="7.717"/>
		<text transform="matrix(0.9288 0 0 1 247.1035 119.502)" font-size="8">(0018,9474)</text>
		<rect x="247.097" y="100.209" fill="none" width="44.984" height="7.717"/>
		<text transform="matrix(0.9288 0 0 1 247.1035 105.9336)" font-size="8">(0018,1508)</text>
		<rect x="247.097" y="86.641" fill="none" width="44.984" height="7.717"/>
		<text transform="matrix(0.9288 0 0 1 247.1035 92.3652)" font-size="8">(0018,9420)</text>
		<rect x="247.097" y="59.752" fill="none" width="44.984" height="7.717"/>
		<text transform="matrix(0.9288 0 0 1 247.1035 65.4771)" font-size="8">(0028,0011)</text>
		<rect x="247.097" y="46.184" fill="none" width="44.984" height="7.717"/>
		<text transform="matrix(0.9288 0 0 1 247.1035 51.9087)" font-size="8">(0028,0010)</text>
		<rect x="247.097" y="290.995" fill="none" width="44.984" height="7.717"/>
		<text transform="matrix(0.9288 0 0 1 247.0977 296.71)" font-size="8">(0018,9432)</text>
		<g>
			<rect x="247.441" y="318.046" fill="none" width="44.64" height="7.715"/>
			<text transform="matrix(0.9288 0 0 1 247.4414 323.7622)" font-size="8">(0018,1147)</text>
		</g>
		<g>
			<rect x="247.257" y="331.962" fill="none" width="44.824" height="7.715"/>
			<text transform="matrix(0.9288 0 0 1 247.2578 337.6777)" font-size="8">(0018,9461)</text>
		</g>
		
			<rect x="71.3" y="342.315" fill="#FFFFFF" stroke="#010101" stroke-width="0.75" stroke-linecap="round" stroke-linejoin="round" stroke-miterlimit="1" width="221.262" height="14"/>
		<g>
			<rect x="81.017" y="346.013" fill="none" width="157.934" height="7.717"/>
			<text transform="matrix(0.9288 0 0 1 81.0171 351.7383)" font-size="8">&gt;&gt;Field of View Origin</text>
		</g>
		
			<rect x="71.3" y="355.954" fill="#FFFFFF" stroke="#010101" stroke-width="0.75" stroke-linecap="round" stroke-linejoin="round" stroke-miterlimit="1" width="221.262" height="14"/>
		<g>
			<rect x="81.017" y="359.653" fill="none" width="156.655" height="7.717"/>
			<text transform="matrix(0.9288 0 0 1 81.0161 365.3691)" font-size="8">&gt;&gt;Field of View Rotation</text>
		</g>
		<g>
			<rect x="247.441" y="346.015" fill="none" width="44.64" height="7.715"/>
			<text transform="matrix(0.9288 0 0 1 247.4414 351.7305)" font-size="8">(0018,7030)</text>
		</g>
		<g>
			<rect x="247.441" y="359.653" fill="none" width="44.64" height="7.715"/>
			<text transform="matrix(0.9288 0 0 1 247.4414 365.3691)" font-size="8">(0018,7032)</text>
		</g>
		
			<rect x="71.3" y="369.956" fill="#FFFFFF" stroke="#010101" stroke-width="0.75" stroke-linecap="round" stroke-linejoin="round" stroke-miterlimit="1" width="221.262" height="14"/>
		<g>
			<rect x="81.017" y="373.653" fill="none" width="156.655" height="7.717"/>
			<text transform="matrix(0.9288 0 0 1 81.0161 379.3691)" font-size="8">&gt;&gt;Field of View Horizontal Flip</text>
		</g>
		<g>
			<rect x="247.441" y="373.655" fill="none" width="44.64" height="7.715"/>
			<text transform="matrix(0.9288 0 0 1 247.4414 379.3711)" font-size="8">(0018,7034)</text>
		</g>
		
			<rect x="43.386" y="426.749" fill="#FFFFFF" stroke="#010101" stroke-width="0.75" stroke-linecap="round" stroke-linejoin="round" stroke-miterlimit="1" width="249.176" height="153.291"/>
		
			<rect x="58.596" y="440.798" fill="#86B2D8" stroke="#010101" stroke-width="0.75" stroke-linecap="round" stroke-linejoin="round" stroke-miterlimit="1" width="233.966" height="139.242"/>
		
			<rect x="71.3" y="454.798" fill="#FFFFFF" stroke="#010101" stroke-width="0.75" stroke-linecap="round" stroke-linejoin="round" stroke-miterlimit="1" width="221.262" height="14"/>
		
			<rect x="71.3" y="468.798" fill="#FFFFFF" stroke="#010101" stroke-width="0.75" stroke-linecap="round" stroke-linejoin="round" stroke-miterlimit="1" width="221.262" height="14"/>
		<rect x="50.763" y="431.446" fill="none" width="186.91" height="7.717"/>
		<text transform="matrix(0.9288 0 0 1 50.7617 437.1602)" font-size="8">&gt;Isocenter Reference System Sequence</text>
		<g>
			<rect x="81.017" y="458.495" fill="none" width="156.655" height="7.717"/>
			<text transform="matrix(0.9288 0 0 1 81.0161 464.2109)" font-size="8">&gt;&gt;Positioner Isocenter Primary Angle</text>
		</g>
		<g>
			<rect x="81.017" y="472.413" fill="none" width="157.435" height="7.715"/>
			<text transform="matrix(0.9288 0 0 1 81.0166 478.1387)" font-size="8">&gt;&gt;Positioner Isocenter Secondary Angle</text>
		</g>
		<rect x="62.446" y="444.581" fill="none" width="96.499" height="7.715"/>
		<text transform="matrix(0.9288 0 0 1 62.4448 450.2969)" font-size="8">Item 1</text>
		<rect x="247.097" y="431.446" fill="none" width="44.984" height="7.717"/>
		<text transform="matrix(0.9288 0 0 1 247.0977 437.1602)" font-size="8">(0018,9462)</text>
		<g>
			<rect x="247.441" y="458.497" fill="none" width="44.64" height="7.715"/>
			<text transform="matrix(0.9288 0 0 1 247.4414 464.2129)" font-size="8">(0018,9463)</text>
		</g>
		<g>
			<rect x="247.257" y="472.413" fill="none" width="44.824" height="7.715"/>
			<text transform="matrix(0.9288 0 0 1 247.2578 478.1289)" font-size="8">(0018,9464)</text>
		</g>
		
			<rect x="71.3" y="482.767" fill="#FFFFFF" stroke="#010101" stroke-width="0.75" stroke-linecap="round" stroke-linejoin="round" stroke-miterlimit="1" width="221.262" height="14"/>
		<g>
			<rect x="81.017" y="486.464" fill="none" width="156.435" height="7.717"/>
			<text transform="matrix(0.9288 0 0 1 81.0171 492.1895)" font-size="8">&gt;&gt;Positioner Isocenter Detector Rotation Angle</text>
		</g>
		
			<rect x="71.3" y="496.405" fill="#FFFFFF" stroke="#010101" stroke-width="0.75" stroke-linecap="round" stroke-linejoin="round" stroke-miterlimit="1" width="221.262" height="14"/>
		<g>
			<rect x="81.017" y="500.104" fill="none" width="156.655" height="7.717"/>
			<text transform="matrix(0.9288 0 0 1 81.0161 505.8193)" font-size="8">&gt;&gt;Table X Position to Isocenter</text>
		</g>
		<g>
			<rect x="247.441" y="486.466" fill="none" width="44.64" height="7.715"/>
			<text transform="matrix(0.9288 0 0 1 247.4414 492.1807)" font-size="8">(0018,9465)</text>
		</g>
		<g>
			<rect x="247.441" y="500.104" fill="none" width="44.64" height="7.715"/>
			<text transform="matrix(0.9288 0 0 1 247.4414 505.8203)" font-size="8">(0018,9466)</text>
		</g>
		
			<rect x="71.3" y="510.407" fill="#FFFFFF" stroke="#010101" stroke-width="0.75" stroke-linecap="round" stroke-linejoin="round" stroke-miterlimit="1" width="221.262" height="14"/>
		<g>
			<rect x="81.017" y="514.104" fill="none" width="156.655" height="7.717"/>
			<text transform="matrix(0.9288 0 0 1 81.0161 519.8203)" font-size="8">&gt;&gt;Table Y Position to Isocenter</text>
		</g>
		<g>
			<rect x="247.441" y="514.106" fill="none" width="44.64" height="7.715"/>
			<text transform="matrix(0.9288 0 0 1 247.4414 519.8213)" font-size="8">(0018,9467)</text>
		</g>
		
			<rect x="71.3" y="524.433" fill="#FFFFFF" stroke="#010101" stroke-width="0.75" stroke-linecap="round" stroke-linejoin="round" stroke-miterlimit="1" width="221.262" height="14"/>
		
			<rect x="71.3" y="538.433" fill="#FFFFFF" stroke="#010101" stroke-width="0.75" stroke-linecap="round" stroke-linejoin="round" stroke-miterlimit="1" width="221.262" height="14"/>
		<g>
			<rect x="81.017" y="528.13" fill="none" width="156.655" height="7.717"/>
			<text transform="matrix(0.9288 0 0 1 81.0161 533.8457)" font-size="8">&gt;&gt;Table Z Position to Isocenter</text>
		</g>
		<g>
			<rect x="81.017" y="542.048" fill="none" width="156.936" height="7.715"/>
			<text transform="matrix(0.9288 0 0 1 81.0166 547.7734)" font-size="8">&gt;&gt;Table Horizontal Rotation Angle</text>
		</g>
		<g>
			<rect x="247.441" y="528.132" fill="none" width="44.64" height="7.715"/>
			<text transform="matrix(0.9288 0 0 1 247.4414 533.8477)" font-size="8">(0018,9468)</text>
		</g>
		<g>
			<rect x="247.257" y="542.048" fill="none" width="44.824" height="7.715"/>
			<text transform="matrix(0.9288 0 0 1 247.2578 547.7637)" font-size="8">(0018,9469)</text>
		</g>
		
			<rect x="71.3" y="552.401" fill="#FFFFFF" stroke="#010101" stroke-width="0.75" stroke-linecap="round" stroke-linejoin="round" stroke-miterlimit="1" width="221.262" height="14"/>
		<g>
			<rect x="81.017" y="556.099" fill="none" width="157.436" height="7.717"/>
			<text transform="matrix(0.9288 0 0 1 81.0171 561.8242)" font-size="8">&gt;&gt;Table Head Tilt Angle</text>
		</g>
		
			<rect x="71.3" y="566.04" fill="#FFFFFF" stroke="#010101" stroke-width="0.75" stroke-linecap="round" stroke-linejoin="round" stroke-miterlimit="1" width="221.262" height="14"/>
		<g>
			<rect x="81.017" y="569.739" fill="none" width="156.655" height="7.717"/>
			<text transform="matrix(0.9288 0 0 1 81.0161 575.4541)" font-size="8">&gt;&gt;Table Cradle Title Angle</text>
		</g>
		<g>
			<rect x="247.441" y="556.101" fill="none" width="44.64" height="7.715"/>
			<text transform="matrix(0.9288 0 0 1 247.4414 561.8154)" font-size="8">(0018,9470)</text>
		</g>
		<g>
			<rect x="247.441" y="569.739" fill="none" width="44.64" height="7.715"/>
			<text transform="matrix(0.9288 0 0 1 247.4414 575.4551)" font-size="8">(0018,9471)</text>
		</g>
		
			<rect x="43.386" y="580.042" fill="#FFFFFF" stroke="#010101" stroke-width="0.75" stroke-linecap="round" stroke-linejoin="round" stroke-miterlimit="1" width="249.176" height="55.994"/>
		<g>
			<rect x="50.763" y="583.739" fill="none" width="156.656" height="7.717"/>
			<text transform="matrix(0.9288 0 0 1 50.7617 589.4551)" font-size="8">&gt;X-Ray Geometry Sequence</text>
		</g>
		<g>
			<rect x="247.441" y="583.741" fill="none" width="44.64" height="7.715"/>
			<text transform="matrix(0.9288 0 0 1 247.4414 589.4561)" font-size="8">(0018,9476)</text>
		</g>
		
			<rect x="58.596" y="594.067" fill="#86B2D8" stroke="#010101" stroke-width="0.75" stroke-linecap="round" stroke-linejoin="round" stroke-miterlimit="1" width="233.966" height="41.969"/>
		
			<rect x="71.3" y="608.067" fill="#FFFFFF" stroke="#010101" stroke-width="0.75" stroke-linecap="round" stroke-linejoin="round" stroke-miterlimit="1" width="221.262" height="14"/>
		<g>
			<rect x="62.446" y="597.765" fill="none" width="156.656" height="7.717"/>
			<text transform="matrix(0.9288 0 0 1 62.4448 603.4805)" font-size="8">Item 1</text>
		</g>
		<g>
			<rect x="81.017" y="611.683" fill="none" width="156.936" height="7.715"/>
			<text transform="matrix(0.9288 0 0 1 81.0166 617.4082)" font-size="8">&gt;&gt;Distance Source to Isocenter</text>
		</g>
		<g>
			<rect x="247.257" y="611.683" fill="none" width="44.824" height="7.715"/>
			<text transform="matrix(0.9288 0 0 1 247.2578 617.3984)" font-size="8">(0018,9402)</text>
		</g>
		
			<rect x="71.3" y="622.036" fill="#FFFFFF" stroke="#010101" stroke-width="0.75" stroke-linecap="round" stroke-linejoin="round" stroke-miterlimit="1" width="221.262" height="14"/>
		<g>
			<rect x="81.017" y="625.733" fill="none" width="156.936" height="7.717"/>
			<text transform="matrix(0.9288 0 0 1 81.0171 631.459)" font-size="8">&gt;&gt;Distance Source to Detector</text>
		</g>
		<g>
			<rect x="247.441" y="625.735" fill="none" width="44.64" height="7.715"/>
			<text transform="matrix(0.9288 0 0 1 247.4414 631.4502)" font-size="8">(0018,1110)</text>
		</g>
		
			<rect x="43.386" y="383.979" fill="#FFFFFF" stroke="#010101" stroke-width="0.75" stroke-linecap="round" stroke-linejoin="round" stroke-miterlimit="1" width="249.176" height="42.77"/>
		
			<rect x="58.596" y="398.749" fill="#86B2D8" stroke="#010101" stroke-width="0.75" stroke-linecap="round" stroke-linejoin="round" stroke-miterlimit="1" width="233.966" height="28"/>
		
			<rect x="71.3" y="412.749" fill="#FFFFFF" stroke="#010101" stroke-width="0.75" stroke-linecap="round" stroke-linejoin="round" stroke-miterlimit="1" width="221.262" height="14"/>
		<rect x="50.763" y="388.677" fill="none" width="186.91" height="7.717"/>
		<text transform="matrix(0.9288 0 0 1 50.7617 394.3926)" font-size="8">&gt;Frame Pixel Data Properties Sequence</text>
		<g>
			<rect x="81.017" y="416.446" fill="none" width="156.655" height="7.717"/>
			<text transform="matrix(0.9288 0 0 1 81.0161 422.1631)" font-size="8">&gt;&gt;Imager Pixel Spacing</text>
		</g>
		<rect x="62.446" y="402.534" fill="none" width="96.499" height="7.713"/>
		<text transform="matrix(0.9288 0 0 1 62.4448 408.25)" font-size="8">Item 1</text>
		<rect x="247.097" y="388.677" fill="none" width="44.984" height="7.717"/>
		<text transform="matrix(0.9288 0 0 1 247.0977 394.3926)" font-size="8">(0028,9443)</text>
		<g>
			<rect x="247.441" y="416.448" fill="none" width="44.64" height="7.715"/>
			<text transform="matrix(0.9288 0 0 1 247.4414 422.165)" font-size="8">(0018,1164)</text>
		</g>
		<rect x="299.69" y="19.049" fill="none" width="84.963" height="240.068"/>
		<text transform="matrix(0.9288 0 0 1 299.6924 24.7739)"><tspan x="0" y="0" font-size="8">Image A</tspan><tspan x="0" y="27" font-size="8">= 850</tspan><tspan x="0" y="40.5" font-size="8">= 850</tspan><tspan x="0" y="67.5" font-size="8">= DIGITAL_DETECTOR</tspan><tspan x="0" y="81" font-size="8">= CARM</tspan><tspan x="0" y="94.5" font-size="8">= YES</tspan><tspan x="0" y="121.5" font-size="8">= 1.0\1.0</tspan><tspan x="0" y="135" font-size="8">= 0.2\0.2</tspan><tspan x="0" y="148.5" font-size="8">= RECTANGLE</tspan><tspan x="0" y="162" font-size="8">= 400.0\400.0</tspan><tspan x="0" y="175.5" font-size="8">= 25.0\25.0</tspan><tspan x="0" y="189" font-size="8">= 410.0\410.0</tspan><tspan x="0" y="202.5" font-size="8">=1024.5\1024.5</tspan></text>
		<rect x="299.69" y="318.044" fill="none" width="84.963" height="317.992"/>
		<text transform="matrix(0.9288 0 0 1 299.6924 323.769)"><tspan x="0" y="0" font-size="8">= RECTANGLE</tspan><tspan x="0" y="14" font-size="8">= 170.0\170.0</tspan><tspan x="0" y="28" font-size="8">= 600.0\600.0</tspan><tspan x="0" y="42" font-size="8">= 90</tspan><tspan x="0" y="56" font-size="8">= YES</tspan><tspan x="0" y="98" font-size="8">= 0.2\0.2</tspan><tspan x="0" y="140" font-size="8">= 60.0</tspan><tspan x="0" y="154" font-size="8">= 20.0</tspan><tspan x="0" y="168" font-size="8">= 0.0</tspan><tspan x="0" y="182" font-size="8">= 10.0</tspan><tspan x="0" y="196" font-size="8">= 30.0</tspan><tspan x="0" y="210" font-size="8">= 100.0</tspan><tspan x="0" y="224" font-size="8">= -10</tspan><tspan x="0" y="238" font-size="8">= 0.0</tspan><tspan x="0" y="252" font-size="8">= 0.0</tspan><tspan x="0" y="294" font-size="8">= 780.0</tspan><tspan x="0" y="308" font-size="8">= 1300.0</tspan></text>
		<rect x="397.358" y="19.049" fill="none" width="84.963" height="240.068"/>
		<text transform="matrix(0.9288 0 0 1 397.3604 24.7739)"><tspan x="0" y="0" font-size="8">Image B</tspan><tspan x="0" y="27" font-size="8">= 1000</tspan><tspan x="0" y="40.5" font-size="8">= 1000</tspan><tspan x="0" y="67.5" font-size="8">= DIGITAL_DETECTOR</tspan><tspan x="0" y="81" font-size="8">= CARM</tspan><tspan x="0" y="94.5" font-size="8">= YES</tspan><tspan x="0" y="121.5" font-size="8">= 2.0\2.0</tspan><tspan x="0" y="135" font-size="8">= 0.2\0.2</tspan><tspan x="0" y="148.5" font-size="8">= RECTANGLE</tspan><tspan x="0" y="162" font-size="8">= 400.0\400.0</tspan><tspan x="0" y="175.5" font-size="8">= 25.0\25.0</tspan><tspan x="0" y="189" font-size="8">= 410.0\410.0</tspan><tspan x="0" y="202.5" font-size="8">=1024.5\1024.5</tspan></text>
		<rect x="397.358" y="318.044" fill="none" width="84.963" height="317.992"/>
		<text transform="matrix(0.9288 0 0 1 397.3604 323.769)"><tspan x="0" y="0" font-size="8">= RECTANGLE</tspan><tspan x="0" y="14" font-size="8">= 400.0\400.0</tspan><tspan x="0" y="28" font-size="8">= 25.0\25.0</tspan><tspan x="0" y="42" font-size="8">= 180</tspan><tspan x="0" y="56" font-size="8">= YES</tspan><tspan x="0" y="98" font-size="8">= 0.4\0.4</tspan><tspan x="0" y="140" font-size="8">= -30.0</tspan><tspan x="0" y="154" font-size="8">= 0.0</tspan><tspan x="0" y="168" font-size="8">= 0.0</tspan><tspan x="0" y="182" font-size="8">= 20.0</tspan><tspan x="0" y="196" font-size="8">= 100.0</tspan><tspan x="0" y="210" font-size="8">= 0.0</tspan><tspan x="0" y="224" font-size="8">= 0.0</tspan><tspan x="0" y="238" font-size="8">= 10.0</tspan><tspan x="0" y="252" font-size="8">= 0.0</tspan><tspan x="0" y="294" font-size="8">= 800.0</tspan><tspan x="0" y="308" font-size="8">= 1000.0</tspan></text>
		
			<rect x="28.176" y="259.117" fill="#86B2D8" stroke="#010101" stroke-width="0.75" stroke-linecap="round" stroke-linejoin="round" stroke-miterlimit="1" width="264.386" height="13.565"/>
		<rect x="32.446" y="262.542" fill="none" width="125.951" height="7.715"/>
		<text transform="matrix(0.9288 0 0 1 32.4458 268.2666)" font-size="8">...</text>
	</g>
</g>
</svg>
