<?xml version="1.0" encoding="utf-8"?>

<!DOCTYPE svg PUBLIC "-//W3C//DTD SVG 1.1//EN" "http://www.w3.org/Graphics/SVG/1.1/DTD/svg11.dtd">
<svg version="1.1" id="Layer_1" xmlns="http://www.w3.org/2000/svg" xmlns:xlink="http://www.w3.org/1999/xlink" x="0px" y="0px"
	 width="552px" height="152px" viewBox="0 0 552 152" enable-background="new 0 0 552 152" xml:space="preserve">

<defs>
	<style type="text/css">
	text {
	  font-family: Helvetica, Verdana, ArialUnicodeMS, san-serif
	}
	</style>
</defs>

<g>
   <desc>
	PS 3.17 Part 17: Explanatory Information
   </desc>
</g>

<g>
	<rect x="1" y="1" fill="#F5EED6" width="550" height="150"/>
	<g>
		<rect x="28.189" y="28.611" fill="#CCDEF0" width="75.746" height="107.979"/>
		<text transform="matrix(1 0 0 1 28.1973 23.3872)"><tspan x="0" y="0" font-size="9">Acquisition </tspan><tspan x="49.048" y="0" font-size="9">M</tspan><tspan x="56.635" y="0" font-size="9">od</tspan><tspan x="66.682" y="0" font-size="9">a</tspan><tspan x="72.191" y="0" font-size="9">li</tspan><tspan x="76.694" y="0" font-size="9">t</tspan><tspan x="78.96" y="0" font-size="9">y</tspan></text>
		<text transform="matrix(1 0 0 1 108.9175 46.2881)"><tspan x="0" y="0" font-size="9">S</tspan><tspan x="6.228" y="0" font-size="9">O</tspan><tspan x="13.156" y="0" font-size="9">P</tspan><tspan x="19.384" y="0" font-size="9"> I</tspan><tspan x="24.889" y="0" font-size="9">n</tspan><tspan x="29.913" y="0" font-size="9">s</tspan><tspan x="33.567" y="0" font-size="9">t</tspan><tspan x="35.833" y="0" font-size="9">a</tspan><tspan x="41.343" y="0" font-size="9">n</tspan><tspan x="46.366" y="0" font-size="9">c</tspan><tspan x="50.704" y="0" font-size="9">e A </tspan></text>
		<text transform="matrix(1 0 0 1 108.9175 114.0137)"><tspan x="0" y="0" font-size="9">S</tspan><tspan x="6.228" y="0" font-size="9">O</tspan><tspan x="13.156" y="0" font-size="9">P</tspan><tspan x="19.384" y="0" font-size="9"> I</tspan><tspan x="24.889" y="0" font-size="9">n</tspan><tspan x="29.913" y="0" font-size="9">s</tspan><tspan x="33.567" y="0" font-size="9">t</tspan><tspan x="35.833" y="0" font-size="9">a</tspan><tspan x="41.343" y="0" font-size="9">n</tspan><tspan x="46.366" y="0" font-size="9">c</tspan><tspan x="50.704" y="0" font-size="9">e B </tspan></text>
		
			<rect x="36.936" y="37.199" fill="#86B2D8" stroke="#010101" stroke-width="0.75" stroke-linecap="round" stroke-linejoin="round" stroke-miterlimit="1" width="58" height="24"/>
		<text transform="matrix(1 0 0 1 40.5063 51.7041)" font-size="9">Time Filtering</text>
		<rect x="187.658" y="28.611" fill="#CCDEF0" width="74.332" height="107.979"/>
		<text transform="matrix(1 0 0 1 187.6582 23.3872)" font-size="9">Workstation 1</text>
		
			<rect x="202.015" y="70.602" fill="#86B2D8" stroke="#010101" stroke-width="0.75" stroke-linecap="round" stroke-linejoin="round" stroke-miterlimit="1" width="50" height="24"/>
		<text transform="matrix(1 0 0 1 205.687 85.1055)" font-size="9">Subtraction</text>
		
			<rect x="36.936" y="104.925" fill="#86B2D8" stroke="#010101" stroke-width="0.75" stroke-linecap="round" stroke-linejoin="round" stroke-miterlimit="1" width="58" height="24"/>
		<text transform="matrix(1 0 0 1 40.5063 119.4297)" font-size="9">Time Filtering</text>
		<g>
			<path fill="none" d="M76.068,55.897"/>
		</g>
		<g>
			<g>
				<polyline fill="none" stroke="#005695" stroke-width="2" stroke-miterlimit="1" points="94.964,49.544 178.802,49.544 
					178.802,75.828 194.248,75.828 				"/>
				<g>
					<polygon fill="#005695" points="192.663,78.152 201.335,75.828 192.663,73.504 					"/>
				</g>
			</g>
		</g>
		<g>
			<g>
				<polyline fill="none" stroke="#005695" stroke-width="2" stroke-miterlimit="1" points="94.964,116.927 178.802,116.927 
					178.802,89.562 194.248,89.562 				"/>
				<g>
					<polygon fill="#005695" points="192.663,91.886 201.335,89.562 192.663,87.237 					"/>
				</g>
			</g>
		</g>
		<rect x="336.663" y="28.611" fill="#CCDEF0" width="109.248" height="107.979"/>
		<text transform="matrix(1 0 0 1 336.6582 23.3872)" font-size="9">Workstation 2</text>
		
			<rect x="350.569" y="70.602" fill="#86B2D8" stroke="#010101" stroke-width="0.75" stroke-linecap="round" stroke-linejoin="round" stroke-miterlimit="1" width="84.99" height="24"/>
		<text transform="matrix(1 0 0 1 381.9961 79.707)"><tspan x="0" y="0" font-size="9">Zoom</tspan><tspan x="-26.46" y="10.799" font-size="9">Edge Enhancement</tspan></text>
		<g>
			<g>
				
					<line fill="none" stroke="#005695" stroke-width="2" stroke-miterlimit="1" x1="252.544" y1="82.601" x2="342.217" y2="82.601"/>
				<g>
					<polygon fill="#005695" points="340.632,84.925 349.305,82.601 340.632,80.276 					"/>
				</g>
			</g>
		</g>
		<text transform="matrix(1 0 0 1 267.189 79.7051)"><tspan x="0" y="0" font-size="9">S</tspan><tspan x="6.228" y="0" font-size="9">O</tspan><tspan x="13.157" y="0" font-size="9">P</tspan><tspan x="19.384" y="0" font-size="9"> I</tspan><tspan x="24.889" y="0" font-size="9">n</tspan><tspan x="29.913" y="0" font-size="9">s</tspan><tspan x="33.567" y="0" font-size="9">t</tspan><tspan x="35.833" y="0" font-size="9">a</tspan><tspan x="41.342" y="0" font-size="9">n</tspan><tspan x="46.366" y="0" font-size="9">c</tspan><tspan x="50.704" y="0" font-size="9">e C </tspan></text>
		<g>
			<g>
				
					<line fill="none" stroke="#005695" stroke-width="2" stroke-miterlimit="1" x1="436.104" y1="82.601" x2="516.725" y2="82.601"/>
				<g>
					<polygon fill="#005695" points="515.14,84.925 523.812,82.601 515.14,80.276 					"/>
				</g>
			</g>
		</g>
		<text transform="matrix(1 0 0 1 448.9492 79.7051)"><tspan x="0" y="0" font-size="9">S</tspan><tspan x="6.229" y="0" font-size="9">O</tspan><tspan x="13.156" y="0" font-size="9">P</tspan><tspan x="19.385" y="0" font-size="9"> I</tspan><tspan x="24.89" y="0" font-size="9">n</tspan><tspan x="29.913" y="0" font-size="9">s</tspan><tspan x="33.567" y="0" font-size="9">t</tspan><tspan x="35.834" y="0" font-size="9">a</tspan><tspan x="41.344" y="0" font-size="9">n</tspan><tspan x="46.366" y="0" font-size="9">c</tspan><tspan x="50.705" y="0" font-size="9">e D </tspan></text>
	</g>
</g>
</svg>
