<?xml version="1.0" encoding="utf-8"?>

<!DOCTYPE svg PUBLIC "-//W3C//DTD SVG 1.1//EN" "http://www.w3.org/Graphics/SVG/1.1/DTD/svg11.dtd">
<svg version="1.1" id="Layer_1" xmlns="http://www.w3.org/2000/svg" xmlns:xlink="http://www.w3.org/1999/xlink" x="0px" y="0px"
	 width="502px" height="507px" viewBox="0 0 502 507" enable-background="new 0 0 502 507" xml:space="preserve">

<defs>
	<style type="text/css">
	text {
	  font-family: Helvetica, Verdana, ArialUnicodeMS, san-serif
	}
	</style>
</defs>

<g>
   <desc>
	PS 3.17 Part 17: Explanatory Information
   </desc>
</g>

<g>
	<rect x="1" y="1" fill="#F5EED6" width="500" height="505"/>
	<g>
		<rect x="57.23" y="62.102" fill="#CCDEF0" stroke="#000000" width="428.8" height="428.8"/>
		<circle fill="#86B2D8" stroke="#000000" cx="173.435" cy="148.291" r="21.44"/>
		<rect x="40.078" y="36.375" fill="#86B2D8" stroke="#000000" width="31.731" height="224.69"/>
		<rect x="275.918" y="36.375" fill="#86B2D8" stroke="#000000" width="31.731" height="224.69"/>
		<g>
			<g>
				<line fill="none" stroke="#000000" stroke-width="0.5" x1="175.443" y1="148.291" x2="173.443" y2="148.291"/>
				
					<line fill="none" stroke="#000000" stroke-width="0.5" stroke-dasharray="3.9983,3.9983" x1="169.445" y1="148.291" x2="35.503" y2="148.291"/>
				<line fill="none" stroke="#000000" stroke-width="0.5" x1="33.504" y1="148.291" x2="31.504" y2="148.291"/>
			</g>
		</g>
		
			<line fill="none" stroke="#000000" stroke-width="0.5" stroke-dasharray="4" x1="173.436" y1="148.291" x2="173.436" y2="26.429"/>
		<line fill="none" stroke="#000000" stroke-width="0.5" stroke-dasharray="4" x1="71.81" y1="36.375" x2="71.81" y2="26.857"/>
		<line fill="none" stroke="#000000" stroke-width="0.5" stroke-dasharray="4" x1="40.078" y1="36.375" x2="40.078" y2="26.857"/>
		<line fill="none" stroke="#000000" stroke-width="0.5" stroke-dasharray="4" x1="275.918" y1="36.031" x2="275.918" y2="26.515"/>
		<line fill="none" stroke="#000000" stroke-width="0.5" stroke-dasharray="4" x1="307.649" y1="36.031" x2="307.649" y2="26.515"/>
		<g>
			<g>
				<line fill="none" stroke="#000000" stroke-width="0.5" x1="275.918" y1="36.375" x2="273.918" y2="36.375"/>
				
					<line fill="none" stroke="#000000" stroke-width="0.5" stroke-dasharray="3.9412,3.9412" x1="269.977" y1="36.375" x2="35.475" y2="36.375"/>
				<line fill="none" stroke="#000000" stroke-width="0.5" x1="33.504" y1="36.375" x2="31.504" y2="36.375"/>
			</g>
		</g>
		<g>
			<g>
				<line fill="none" stroke="#000000" stroke-width="0.5" x1="275.918" y1="261.064" x2="273.918" y2="261.064"/>
				
					<line fill="none" stroke="#000000" stroke-width="0.5" stroke-dasharray="3.9412,3.9412" x1="269.977" y1="261.064" x2="35.475" y2="261.064"/>
				<line fill="none" stroke="#000000" stroke-width="0.5" x1="33.504" y1="261.064" x2="31.504" y2="261.064"/>
			</g>
		</g>
		<text transform="matrix(1 0 0 1 17.8833 39.4619)" font-size="9">-60</text>
		<text transform="matrix(1 0 0 1 15.9697 151.3789)" font-size="9">201</text>
		<text transform="matrix(1 0 0 1 15.9697 263.2949)" font-size="9">464</text>
		<text transform="matrix(1 0 0 1 33.8809 23.7012)" font-size="9">-40</text>
		<text transform="matrix(1 0 0 1 67.04 23.7012)" font-size="9">34</text>
		<text transform="matrix(1 0 0 1 268.3613 23.7012)" font-size="9">510</text>
		<text transform="matrix(1 0 0 1 300.2549 23.7012)" font-size="9">584</text>
		<text transform="matrix(1 0 0 1 166.103 23.7012)" font-size="9">271</text>
		<text transform="matrix(1 0 0 1 280.7832 48.4492)" font-size="11">3</text>
		<text transform="matrix(1 0 0 1 161.0127 141.8594)" font-size="11">2</text>
		<text transform="matrix(1 0 0 1 87.6016 456.751)" font-size="11">Pixel Data Matrix</text>
		<text transform="matrix(1 0 0 1 44.2266 48.4492)" font-size="11">1</text>
		<rect x="57.23" y="62.102" fill="none" stroke="#000000" width="428.8" height="428.8"/>
	</g>
</g>
</svg>
