<?xml version="1.0" encoding="utf-8"?>

<!DOCTYPE svg PUBLIC "-//W3C//DTD SVG 1.1//EN" "http://www.w3.org/Graphics/SVG/1.1/DTD/svg11.dtd">
<svg version="1.1" id="Layer_1" xmlns="http://www.w3.org/2000/svg" xmlns:xlink="http://www.w3.org/1999/xlink" x="0px" y="0px"
	 width="552px" height="262px" viewBox="0 0 552 262" enable-background="new 0 0 552 262" xml:space="preserve">

<defs>
	<style type="text/css">
	text {
	  font-family: Helvetica, Verdana, ArialUnicodeMS, san-serif
	}
	</style>
</defs>

<g>
   <desc>
	PS 3.17 Part 17: Explanatory Information
   </desc>
</g>

<g>
<rect x="1" y="1" fill="#F5EED6" width="550" height="260"/>
<rect x="63.369" y="16.102" fill="#CCDEF0" stroke="#010101" stroke-width="0.75" stroke-linecap="round" stroke-linejoin="round" stroke-miterlimit="1" width="50" height="20"/>
<rect x="272.606" y="16.102" fill="#CCDEF0" stroke="#010101" stroke-width="0.75" stroke-linecap="round" stroke-linejoin="round" stroke-miterlimit="1" width="136.001" height="20"/>
<line fill="none" stroke="#010101" stroke-linecap="round" stroke-linejoin="round" stroke-miterlimit="8" x1="114.369" y1="26.102" x2="146.369" y2="26.102"/>
<line fill="none" stroke="#010101" stroke-linecap="round" stroke-linejoin="round" stroke-miterlimit="8" x1="30.248" y1="26.102" x2="62.248" y2="26.102"/>
<rect x="146.369" y="16.102" fill="#CCDEF0" stroke="#010101" stroke-width="0.75" stroke-linecap="round" stroke-linejoin="round" stroke-miterlimit="1" width="85" height="20"/>
<line fill="none" stroke="#010101" stroke-linecap="round" stroke-linejoin="round" stroke-miterlimit="8" x1="231.369" y1="26.102" x2="271.368" y2="26.102"/>
<text transform="matrix(1 0 0 1 74.793 27.9883)"><tspan x="0" y="0" fill="#010101" font-size="10">S</tspan><tspan x="6.53" y="0" fill="#010101" font-size="10">t</tspan><tspan x="9.308" y="0" fill="#010101" font-size="10">u</tspan><tspan x="14.81" y="0" fill="#010101" font-size="10">d</tspan><tspan x="20.361" y="0" fill="#010101" font-size="10">y</tspan></text>
<text transform="matrix(1 0 0 1 282.2539 27.9883)"><tspan x="0" y="0" fill="#010101" font-size="10">S</tspan><tspan x="6.53" y="0" fill="#010101" font-size="10">u</tspan><tspan x="12.031" y="0" fill="#010101" font-size="10">rfac</tspan><tspan x="28.701" y="0" fill="#010101" font-size="10">e</tspan><tspan x="34.233" y="0" fill="#010101" font-size="10"> </tspan><tspan x="37.012" y="0" fill="#010101" font-size="10">S</tspan><tspan x="43.541" y="0" fill="#010101" font-size="10">can </tspan><tspan x="62.443" y="0" fill="#010101" font-size="10">Point Cloud</tspan></text>
<text transform="matrix(1 0 0 1 174.2217 28.7676)" fill="#010101" font-size="10">Series</text>
<rect x="272.606" y="51.102" fill="#CCDEF0" stroke="#010101" stroke-width="0.75" stroke-linecap="round" stroke-linejoin="round" stroke-miterlimit="1" width="136.001" height="20"/>
<text transform="matrix(1 0 0 1 282.2539 62.9883)"><tspan x="0" y="0" fill="#010101" font-size="10">S</tspan><tspan x="6.53" y="0" fill="#010101" font-size="10">u</tspan><tspan x="12.031" y="0" fill="#010101" font-size="10">rfac</tspan><tspan x="28.701" y="0" fill="#010101" font-size="10">e</tspan><tspan x="34.233" y="0" fill="#010101" font-size="10"> </tspan><tspan x="37.012" y="0" fill="#010101" font-size="10">S</tspan><tspan x="43.541" y="0" fill="#010101" font-size="10">can </tspan><tspan x="62.443" y="0" fill="#010101" font-size="10">Point Cloud</tspan></text>
<polyline fill="none" stroke="#010101" stroke-linecap="round" stroke-linejoin="round" stroke-miterlimit="8" points="
	146.369,131.268 130.369,131.268 130.369,27.596 "/>
<path fill="none" stroke="#000000" stroke-width="0.5" stroke-miterlimit="10" d="M424.977,35.742"/>
<path fill="none" stroke="#000000" stroke-width="0.5" stroke-miterlimit="10" d="M424.977,36.102"/>
<polyline fill="none" stroke="#010101" stroke-linecap="round" stroke-linejoin="round" stroke-miterlimit="8" points="
	271.329,60.631 255.329,60.631 255.329,25.751 "/>
<rect x="272.606" y="122.24" fill="#CCDEF0" stroke="#010101" stroke-width="0.75" stroke-linecap="round" stroke-linejoin="round" stroke-miterlimit="1" width="136.001" height="20"/>
<rect x="146.369" y="122.24" fill="#CCDEF0" stroke="#010101" stroke-width="0.75" stroke-linecap="round" stroke-linejoin="round" stroke-miterlimit="1" width="85" height="20"/>
<line fill="none" stroke="#010101" stroke-linecap="round" stroke-linejoin="round" stroke-miterlimit="8" x1="231.369" y1="132.24" x2="271.368" y2="132.24"/>
<text transform="matrix(1 0 0 1 282.2539 134.1309)" fill="#010101" font-size="10">VL Photographic Image</text>
<text transform="matrix(1 0 0 1 174.2217 134.9102)" fill="#010101" font-size="10">Series</text>
<g>
	<g>
		<path fill="none" stroke="#ED1C24" stroke-width="0.75" stroke-linecap="round" stroke-linejoin="round" d="M413.819,131.105
			c23.944-2.897,42.572-25.165,42.572-52.206c0-29.011-21.438-52.528-47.88-52.528"/>
		<g>
			<polygon fill="#ED1C24" points="415.127,132.686 408.512,131.424 414.871,129.208 			"/>
		</g>
	</g>
</g>
<g>
	<g>
		<path fill="none" stroke="#ED1C24" stroke-width="0.75" stroke-linecap="round" stroke-linejoin="round" d="M413.823,166.64
			c31.433-3.084,56.104-33.285,56.104-70.089c0-38.854-27.495-70.35-61.415-70.35"/>
		<g>
			<polygon fill="#ED1C24" points="415.104,168.278 408.512,166.899 414.909,164.798 			"/>
		</g>
	</g>
</g>
<g>
	<g>
		
			<path fill="none" stroke="#ED1C24" stroke-width="0.75" stroke-linecap="round" stroke-linejoin="round" stroke-dasharray="4,2" d="
			M413.811,201.902c23.95-3.922,42.581-34.117,42.581-70.784c0-39.335-21.437-71.221-47.88-71.221"/>
		<g>
			<polygon fill="#ED1C24" points="415.15,203.464 408.512,202.333 414.826,199.993 			"/>
		</g>
	</g>
</g>
<g>
	<g>
		
			<path fill="none" stroke="#ED1C24" stroke-width="0.75" stroke-linecap="round" stroke-linejoin="round" stroke-dasharray="4,2" d="
			M413.815,235.75c31.436-3.856,56.111-41.675,56.111-87.762c0-48.652-27.496-88.091-61.415-88.091"/>
		<g>
			<polygon fill="#ED1C24" points="415.122,237.361 408.512,236.074 414.879,233.883 			"/>
		</g>
	</g>
</g>
<path fill="none" stroke="#000000" stroke-width="0.5" stroke-miterlimit="10" d="M424.977,106.148"/>
<path fill="none" stroke="#000000" stroke-width="0.5" stroke-miterlimit="10" d="M424.977,106.509"/>
<rect x="272.606" y="156.88" fill="#CCDEF0" stroke="#010101" stroke-width="0.75" stroke-linecap="round" stroke-linejoin="round" stroke-miterlimit="1" width="136.001" height="20"/>
<text transform="matrix(1 0 0 1 282.2539 168.7676)" fill="#010101" font-size="10">VL Photographic Image</text>
<rect x="272.606" y="192.158" fill="#CCDEF0" stroke="#010101" stroke-width="0.75" stroke-linecap="round" stroke-linejoin="round" stroke-miterlimit="1" width="136.001" height="20"/>
<text transform="matrix(1 0 0 1 282.2539 204.0488)" fill="#010101" font-size="10">VL Photographic Image</text>
<path fill="none" stroke="#000000" stroke-width="0.5" stroke-miterlimit="10" d="M424.977,176.066"/>
<path fill="none" stroke="#000000" stroke-width="0.5" stroke-miterlimit="10" d="M424.977,176.427"/>
<polyline fill="none" stroke="#010101" stroke-linecap="round" stroke-linejoin="round" stroke-miterlimit="8" points="
	271.329,166.41 255.329,166.41 255.329,131.529 "/>
<polyline fill="none" stroke="#010101" stroke-linecap="round" stroke-linejoin="round" stroke-miterlimit="8" points="
	271.329,201.69 255.329,201.69 255.329,166.809 "/>
<path fill="none" stroke="#000000" stroke-width="0.5" stroke-miterlimit="10" d="M424.977,246.474"/>
<path fill="none" stroke="#000000" stroke-width="0.5" stroke-miterlimit="10" d="M424.977,246.834"/>
<rect x="272.606" y="226.834" fill="#CCDEF0" stroke="#010101" stroke-width="0.75" stroke-linecap="round" stroke-linejoin="round" stroke-miterlimit="1" width="136.001" height="20"/>
<text transform="matrix(1 0 0 1 282.2539 238.7266)" fill="#010101" font-size="10">VL Photographic Image</text>
<polyline fill="none" stroke="#010101" stroke-linecap="round" stroke-linejoin="round" stroke-miterlimit="8" points="
	271.329,236.366 255.329,236.366 255.329,201.484 "/>
<text transform="matrix(1 0 0 1 468.123 24.0293)"><tspan x="0" y="0" fill="#010101" font-size="10">UV Mapping</tspan><tspan x="0" y="12" fill="#010101" font-size="10">Sequence</tspan></text>
<line fill="none" stroke="#000000" stroke-width="0.5" stroke-miterlimit="10" x1="457.057" y1="20.593" x2="430.078" y2="29.687"/>
<path fill="none" stroke="#000000" stroke-width="0.5" stroke-miterlimit="10" d="M457.057,23.671"/>
<path fill="none" stroke="#000000" stroke-width="0.5" stroke-miterlimit="10" d="M457.057,24.031"/>
<polyline fill="none" stroke="#000000" stroke-width="0.5" stroke-miterlimit="10" points="465.723,20.593 457.057,20.593 
	421.927,61.102 "/>
</g>
</svg>
