<?xml version="1.0" encoding="utf-8"?>

<!DOCTYPE svg PUBLIC "-//W3C//DTD SVG 1.1//EN" "http://www.w3.org/Graphics/SVG/1.1/DTD/svg11.dtd">
<svg version="1.1" id="Layer_1" xmlns="http://www.w3.org/2000/svg" xmlns:xlink="http://www.w3.org/1999/xlink" x="0px" y="0px"
	 width="502px" height="237px" viewBox="0 0 502 237" enable-background="new 0 0 502 237" xml:space="preserve">

<defs>
	<style type="text/css">
	text {
	  font-family: Helvetica, Verdana, ArialUnicodeMS, san-serif
	}
	</style>
</defs>

<g>
   <desc>
	PS 3.17 Part 17: Explanatory Information
   </desc>
</g>

<rect x="1" y="1" fill="#F5EED6" width="500" height="235"/>
<g>
	<g>
		<g>
			<rect x="148.958" y="16.819" fill="#E6E6E6" width="204.084" height="203.363"/>
			<g>
				<polyline fill="none" stroke="#00AEEF" stroke-miterlimit="1" points="148.958,18.319 148.958,16.819 150.458,16.819 				"/>
				
					<line fill="none" stroke="#00AEEF" stroke-miterlimit="1" stroke-dasharray="3.0013,3.0013" x1="153.459" y1="16.819" x2="350.041" y2="16.819"/>
				<polyline fill="none" stroke="#00AEEF" stroke-miterlimit="1" points="351.542,16.819 353.042,16.819 353.042,18.319 				"/>
				
					<line fill="none" stroke="#00AEEF" stroke-miterlimit="1" stroke-dasharray="2.9905,2.9905" x1="353.042" y1="21.31" x2="353.042" y2="217.187"/>
				<polyline fill="none" stroke="#00AEEF" stroke-miterlimit="1" points="353.042,218.682 353.042,220.182 351.542,220.182 				"/>
				
					<line fill="none" stroke="#00AEEF" stroke-miterlimit="1" stroke-dasharray="3.0013,3.0013" x1="348.541" y1="220.182" x2="151.958" y2="220.182"/>
				<polyline fill="none" stroke="#00AEEF" stroke-miterlimit="1" points="150.458,220.182 148.958,220.182 148.958,218.682 				"/>
				
					<line fill="none" stroke="#00AEEF" stroke-miterlimit="1" stroke-dasharray="2.9905,2.9905" x1="148.958" y1="215.691" x2="148.958" y2="19.814"/>
			</g>
		</g>
		<g>
			<line fill="#E6E6E6" x1="148.958" y1="199.824" x2="353.042" y2="199.824"/>
			<g>
				<line fill="none" stroke="#00AEEF" stroke-miterlimit="1" x1="148.958" y1="199.824" x2="150.458" y2="199.824"/>
				
					<line fill="none" stroke="#00AEEF" stroke-miterlimit="1" stroke-dasharray="3.0013,3.0013" x1="153.459" y1="199.824" x2="350.041" y2="199.824"/>
				<line fill="none" stroke="#00AEEF" stroke-miterlimit="1" x1="351.542" y1="199.824" x2="353.042" y2="199.824"/>
			</g>
		</g>
		<g>
			<line fill="#E6E6E6" x1="148.958" y1="179.52" x2="353.042" y2="179.52"/>
			<g>
				<line fill="none" stroke="#00AEEF" stroke-miterlimit="1" x1="148.958" y1="179.52" x2="150.458" y2="179.52"/>
				
					<line fill="none" stroke="#00AEEF" stroke-miterlimit="1" stroke-dasharray="3.0013,3.0013" x1="153.459" y1="179.52" x2="350.041" y2="179.52"/>
				<line fill="none" stroke="#00AEEF" stroke-miterlimit="1" x1="351.542" y1="179.52" x2="353.042" y2="179.52"/>
			</g>
		</g>
		<g>
			<line fill="#E6E6E6" x1="148.958" y1="159.162" x2="353.042" y2="159.162"/>
			<g>
				<line fill="none" stroke="#00AEEF" stroke-miterlimit="1" x1="148.958" y1="159.162" x2="150.458" y2="159.162"/>
				
					<line fill="none" stroke="#00AEEF" stroke-miterlimit="1" stroke-dasharray="3.0013,3.0013" x1="153.459" y1="159.162" x2="350.041" y2="159.162"/>
				<line fill="none" stroke="#00AEEF" stroke-miterlimit="1" x1="351.542" y1="159.162" x2="353.042" y2="159.162"/>
			</g>
		</g>
		<g>
			<line fill="#E6E6E6" x1="148.958" y1="138.855" x2="353.042" y2="138.855"/>
			<g>
				<line fill="none" stroke="#00AEEF" stroke-miterlimit="1" x1="148.958" y1="138.855" x2="150.458" y2="138.855"/>
				
					<line fill="none" stroke="#00AEEF" stroke-miterlimit="1" stroke-dasharray="3.0013,3.0013" x1="153.459" y1="138.855" x2="350.041" y2="138.855"/>
				<line fill="none" stroke="#00AEEF" stroke-miterlimit="1" x1="351.542" y1="138.855" x2="353.042" y2="138.855"/>
			</g>
		</g>
		<g>
			<line fill="#E6E6E6" x1="148.958" y1="118.5" x2="353.042" y2="118.5"/>
			<g>
				<line fill="none" stroke="#00AEEF" stroke-miterlimit="1" x1="148.958" y1="118.5" x2="150.458" y2="118.5"/>
				
					<line fill="none" stroke="#00AEEF" stroke-miterlimit="1" stroke-dasharray="3.0013,3.0013" x1="153.459" y1="118.5" x2="350.041" y2="118.5"/>
				<line fill="none" stroke="#00AEEF" stroke-miterlimit="1" x1="351.542" y1="118.5" x2="353.042" y2="118.5"/>
			</g>
		</g>
		<g>
			<line fill="#E6E6E6" x1="148.958" y1="98.144" x2="353.042" y2="98.144"/>
			<g>
				<line fill="none" stroke="#00AEEF" stroke-miterlimit="1" x1="148.958" y1="98.144" x2="150.458" y2="98.144"/>
				
					<line fill="none" stroke="#00AEEF" stroke-miterlimit="1" stroke-dasharray="3.0013,3.0013" x1="153.459" y1="98.144" x2="350.041" y2="98.144"/>
				<line fill="none" stroke="#00AEEF" stroke-miterlimit="1" x1="351.542" y1="98.144" x2="353.042" y2="98.144"/>
			</g>
		</g>
		<g>
			<line fill="#E6E6E6" x1="148.958" y1="77.837" x2="353.042" y2="77.837"/>
			<g>
				<line fill="none" stroke="#00AEEF" stroke-miterlimit="1" x1="148.958" y1="77.837" x2="150.458" y2="77.837"/>
				
					<line fill="none" stroke="#00AEEF" stroke-miterlimit="1" stroke-dasharray="3.0013,3.0013" x1="153.459" y1="77.837" x2="350.041" y2="77.837"/>
				<line fill="none" stroke="#00AEEF" stroke-miterlimit="1" x1="351.542" y1="77.837" x2="353.042" y2="77.837"/>
			</g>
		</g>
		<g>
			<line fill="#E6E6E6" x1="148.958" y1="57.481" x2="353.042" y2="57.481"/>
			<g>
				<line fill="none" stroke="#00AEEF" stroke-miterlimit="1" x1="148.958" y1="57.481" x2="150.458" y2="57.481"/>
				
					<line fill="none" stroke="#00AEEF" stroke-miterlimit="1" stroke-dasharray="3.0013,3.0013" x1="153.459" y1="57.481" x2="350.041" y2="57.481"/>
				<line fill="none" stroke="#00AEEF" stroke-miterlimit="1" x1="351.542" y1="57.481" x2="353.042" y2="57.481"/>
			</g>
		</g>
		<g>
			<line fill="#E6E6E6" x1="148.958" y1="37.175" x2="353.042" y2="37.175"/>
			<g>
				<line fill="none" stroke="#00AEEF" stroke-miterlimit="1" x1="148.958" y1="37.175" x2="150.458" y2="37.175"/>
				
					<line fill="none" stroke="#00AEEF" stroke-miterlimit="1" stroke-dasharray="3.0013,3.0013" x1="153.459" y1="37.175" x2="350.041" y2="37.175"/>
				<line fill="none" stroke="#00AEEF" stroke-miterlimit="1" x1="351.542" y1="37.175" x2="353.042" y2="37.175"/>
			</g>
		</g>
		<g>
			<line fill="#E6E6E6" x1="332.613" y1="16.819" x2="332.613" y2="220.182"/>
			<g>
				<line fill="none" stroke="#00AEEF" stroke-miterlimit="1" x1="332.613" y1="16.819" x2="332.613" y2="18.319"/>
				
					<line fill="none" stroke="#00AEEF" stroke-miterlimit="1" stroke-dasharray="2.9905,2.9905" x1="332.613" y1="21.31" x2="332.613" y2="217.187"/>
				<line fill="none" stroke="#00AEEF" stroke-miterlimit="1" x1="332.613" y1="218.682" x2="332.613" y2="220.182"/>
			</g>
		</g>
		<g>
			<line fill="#E6E6E6" x1="312.235" y1="16.819" x2="312.235" y2="220.182"/>
			<g>
				<line fill="none" stroke="#00AEEF" stroke-miterlimit="1" x1="312.235" y1="16.819" x2="312.235" y2="18.319"/>
				
					<line fill="none" stroke="#00AEEF" stroke-miterlimit="1" stroke-dasharray="2.9905,2.9905" x1="312.235" y1="21.31" x2="312.235" y2="217.187"/>
				<line fill="none" stroke="#00AEEF" stroke-miterlimit="1" x1="312.235" y1="218.682" x2="312.235" y2="220.182"/>
			</g>
		</g>
		<g>
			<line fill="#E6E6E6" x1="291.807" y1="16.819" x2="291.807" y2="220.182"/>
			<g>
				<line fill="none" stroke="#00AEEF" stroke-miterlimit="1" x1="291.807" y1="16.819" x2="291.807" y2="18.319"/>
				
					<line fill="none" stroke="#00AEEF" stroke-miterlimit="1" stroke-dasharray="2.9905,2.9905" x1="291.807" y1="21.31" x2="291.807" y2="217.187"/>
				<line fill="none" stroke="#00AEEF" stroke-miterlimit="1" x1="291.807" y1="218.682" x2="291.807" y2="220.182"/>
			</g>
		</g>
		<g>
			<line fill="#E6E6E6" x1="271.429" y1="16.819" x2="271.429" y2="220.182"/>
			<g>
				<line fill="none" stroke="#00AEEF" stroke-miterlimit="1" x1="271.429" y1="16.819" x2="271.429" y2="18.319"/>
				
					<line fill="none" stroke="#00AEEF" stroke-miterlimit="1" stroke-dasharray="2.9905,2.9905" x1="271.429" y1="21.31" x2="271.429" y2="217.187"/>
				<line fill="none" stroke="#00AEEF" stroke-miterlimit="1" x1="271.429" y1="218.682" x2="271.429" y2="220.182"/>
			</g>
		</g>
		<g>
			<line fill="#E6E6E6" x1="251" y1="16.819" x2="251" y2="220.182"/>
			<g>
				<line fill="none" stroke="#00AEEF" stroke-miterlimit="1" x1="251" y1="16.819" x2="251" y2="18.319"/>
				
					<line fill="none" stroke="#00AEEF" stroke-miterlimit="1" stroke-dasharray="2.9905,2.9905" x1="251" y1="21.31" x2="251" y2="217.187"/>
				<line fill="none" stroke="#00AEEF" stroke-miterlimit="1" x1="251" y1="218.682" x2="251" y2="220.182"/>
			</g>
		</g>
		<g>
			<line fill="#E6E6E6" x1="230.571" y1="16.819" x2="230.571" y2="220.182"/>
			<g>
				<line fill="none" stroke="#00AEEF" stroke-miterlimit="1" x1="230.571" y1="16.819" x2="230.571" y2="18.319"/>
				
					<line fill="none" stroke="#00AEEF" stroke-miterlimit="1" stroke-dasharray="2.9905,2.9905" x1="230.571" y1="21.31" x2="230.571" y2="217.187"/>
				<line fill="none" stroke="#00AEEF" stroke-miterlimit="1" x1="230.571" y1="218.682" x2="230.571" y2="220.182"/>
			</g>
		</g>
		<g>
			<line fill="#E6E6E6" x1="210.193" y1="16.819" x2="210.193" y2="220.182"/>
			<g>
				<line fill="none" stroke="#00AEEF" stroke-miterlimit="1" x1="210.193" y1="16.819" x2="210.193" y2="18.319"/>
				
					<line fill="none" stroke="#00AEEF" stroke-miterlimit="1" stroke-dasharray="2.9905,2.9905" x1="210.193" y1="21.31" x2="210.193" y2="217.187"/>
				<line fill="none" stroke="#00AEEF" stroke-miterlimit="1" x1="210.193" y1="218.682" x2="210.193" y2="220.182"/>
			</g>
		</g>
		<g>
			<line fill="#E6E6E6" x1="189.765" y1="16.819" x2="189.765" y2="220.182"/>
			<g>
				<line fill="none" stroke="#00AEEF" stroke-miterlimit="1" x1="189.765" y1="16.819" x2="189.765" y2="18.319"/>
				
					<line fill="none" stroke="#00AEEF" stroke-miterlimit="1" stroke-dasharray="2.9905,2.9905" x1="189.765" y1="21.31" x2="189.765" y2="217.187"/>
				<line fill="none" stroke="#00AEEF" stroke-miterlimit="1" x1="189.765" y1="218.682" x2="189.765" y2="220.182"/>
			</g>
		</g>
		<g>
			<line fill="#E6E6E6" x1="169.387" y1="16.819" x2="169.387" y2="220.182"/>
			<g>
				<line fill="none" stroke="#00AEEF" stroke-miterlimit="1" x1="169.387" y1="16.819" x2="169.387" y2="18.319"/>
				
					<line fill="none" stroke="#00AEEF" stroke-miterlimit="1" stroke-dasharray="2.9905,2.9905" x1="169.387" y1="21.31" x2="169.387" y2="217.187"/>
				<line fill="none" stroke="#00AEEF" stroke-miterlimit="1" x1="169.387" y1="218.682" x2="169.387" y2="220.182"/>
			</g>
		</g>
	</g>
	<g>
		
			<rect x="189.765" y="57.481" fill="#FFFFFF" stroke="#000000" stroke-width="2" stroke-miterlimit="1" width="163.277" height="162.701"/>
		<line fill="#FFFFFF" stroke="#000000" stroke-miterlimit="1" x1="189.765" y1="199.844" x2="353.042" y2="199.844"/>
		<line fill="#FFFFFF" stroke="#000000" stroke-miterlimit="1" x1="189.765" y1="179.506" x2="353.042" y2="179.506"/>
		<line fill="#FFFFFF" stroke="#000000" stroke-miterlimit="1" x1="189.765" y1="159.168" x2="353.042" y2="159.168"/>
		<line fill="#FFFFFF" stroke="#000000" stroke-miterlimit="1" x1="189.765" y1="138.832" x2="353.042" y2="138.832"/>
		<line fill="#FFFFFF" stroke="#000000" stroke-miterlimit="1" x1="189.765" y1="118.494" x2="353.042" y2="118.494"/>
		<line fill="#FFFFFF" stroke="#000000" stroke-miterlimit="1" x1="189.765" y1="98.156" x2="353.042" y2="98.156"/>
		<line fill="#FFFFFF" stroke="#000000" stroke-miterlimit="1" x1="189.765" y1="77.819" x2="353.042" y2="77.819"/>
		<line fill="#FFFFFF" stroke="#000000" stroke-miterlimit="1" x1="332.633" y1="57.481" x2="332.633" y2="220.182"/>
		<line fill="#FFFFFF" stroke="#000000" stroke-miterlimit="1" x1="312.223" y1="57.481" x2="312.223" y2="220.182"/>
		<line fill="#FFFFFF" stroke="#000000" stroke-miterlimit="1" x1="291.813" y1="57.481" x2="291.813" y2="220.182"/>
		<line fill="#FFFFFF" stroke="#000000" stroke-miterlimit="1" x1="271.403" y1="57.481" x2="271.403" y2="220.182"/>
		<line fill="#FFFFFF" stroke="#000000" stroke-miterlimit="1" x1="250.994" y1="57.481" x2="250.994" y2="220.182"/>
		<line fill="#FFFFFF" stroke="#000000" stroke-miterlimit="1" x1="230.584" y1="57.481" x2="230.584" y2="220.182"/>
		<line fill="#FFFFFF" stroke="#000000" stroke-miterlimit="1" x1="210.175" y1="57.481" x2="210.175" y2="220.182"/>
	</g>
	<rect x="150.038" y="16.981" fill="#00AEEF" stroke="#00AEEF" stroke-width="2" stroke-miterlimit="1" width="19" height="19"/>
	<rect x="190.601" y="57.96" fill="#006F3B" stroke="#006F3B" stroke-width="2" stroke-miterlimit="1" width="19" height="19"/>
	<rect x="292.64" y="119.128" fill="#5B57A6" stroke="#5B57A6" stroke-width="2" stroke-miterlimit="1" width="19" height="19"/>
	<g>
		<g>
			<polyline fill="none" stroke="#5B57A6" stroke-width="2" stroke-miterlimit="10" points="281.261,128.629 157.66,128.629 
				157.66,26.278 			"/>
			<g>
				<polygon fill="#5B57A6" points="279.279,125.724 290.12,128.629 279.279,131.534 				"/>
			</g>
		</g>
	</g>
	<g>
		<g>
			<line fill="none" stroke="#0072BC" stroke-width="2" stroke-miterlimit="10" x1="179.94" y1="67.46" x2="178.44" y2="67.46"/>
			
				<line fill="none" stroke="#0072BC" stroke-width="2" stroke-miterlimit="10" stroke-dasharray="3.1364,3.1364" x1="175.304" y1="67.46" x2="164.327" y2="67.46"/>
			<polyline fill="none" stroke="#0072BC" stroke-width="2" stroke-miterlimit="10" points="162.758,67.46 161.258,67.46 
				161.258,65.96 			"/>
			
				<line fill="none" stroke="#0072BC" stroke-width="2" stroke-miterlimit="10" stroke-dasharray="2.8819,2.8819" x1="161.258" y1="63.079" x2="161.258" y2="29.937"/>
			
				<line fill="none" stroke="#0072BC" stroke-width="2" stroke-miterlimit="10" x1="161.258" y1="28.496" x2="161.258" y2="26.996"/>
			<g>
				<polygon fill="#0072BC" points="177.959,64.555 188.8,67.46 177.959,70.366 				"/>
			</g>
		</g>
	</g>
</g>
</svg>
