<?xml version="1.0" encoding="utf-8"?>

<!DOCTYPE svg PUBLIC "-//W3C//DTD SVG 1.1//EN" "http://www.w3.org/Graphics/SVG/1.1/DTD/svg11.dtd">
<svg version="1.1" id="Layer_1" xmlns="http://www.w3.org/2000/svg" xmlns:xlink="http://www.w3.org/1999/xlink" x="0px" y="0px"
	 width="602px" height="417px" viewBox="0 0 602 417" enable-background="new 0 0 602 417" xml:space="preserve">

<defs>
	<style type="text/css">
	text {
	  font-family: Helvetica, Verdana, ArialUnicodeMS, san-serif
	}
	</style>
</defs>

<g>
   <desc>
	PS 3.17 Part 17: Explanatory Information
   </desc>
</g>

<g>
	<rect x="1" y="1" fill="#F5EED6" width="600" height="415"/>
	<g>
		<g>
			<text transform="matrix(0.9288 0 0 1 206.6016 27.1304)" font-size="14">Display System Y</text>
		</g>
		<rect x="206.602" y="32.781" fill="#86B2D8" stroke="#000000" width="188.797" height="306.795"/>
		<g>
			<rect x="215.396" y="55.977" fill="#B2CEE7" stroke="#000000" width="170.004" height="274.398"/>
		</g>
		<g>
			<rect x="225.398" y="120.377" fill="#DCDDDE" stroke="#000000" width="150" height="199.998"/>
		</g>
		<g>
			<rect x="225.398" y="120.377" fill="#F4F8FC" stroke="#000000" width="150" height="199.998"/>
		</g>
		<g>
			<text transform="matrix(0.9288 0 0 1 232.5981 138.4116)"><tspan x="0" y="0" font-size="12">DD</tspan><tspan x="0" y="14.4" font-size="12">H: 1536</tspan><tspan x="0" y="28.8" font-size="12">V: 2048</tspan></text>
		</g>
		<g>
			<text transform="matrix(0.9288 0 0 1 218.9966 70.2144)"><tspan x="0" y="0" font-size="12">DSS</tspan><tspan x="6.46" y="14.4" font-size="12">Name = DS1</tspan><tspan x="6.46" y="28.8" font-size="12">ID = 1</tspan></text>
		</g>
		<rect x="215.396" y="352.28" fill="#FFFFFF" width="160.002" height="50"/>
		<rect x="222.597" y="358.684" fill="none" width="103.817" height="39.797"/>
		<text transform="matrix(0.9288 0 0 1 222.5967 365.124)"><tspan x="0" y="0" font-size="9">Legend:</tspan><tspan x="0" y="18.8" font-size="9">DSS = Display Subsystem</tspan><tspan x="0" y="29.6" font-size="9">DD = Display Device</tspan></text>
	</g>
</g>
</svg>
