<?xml version="1.0" encoding="utf-8"?>

<!DOCTYPE svg PUBLIC "-//W3C//DTD SVG 1.1//EN" "http://www.w3.org/Graphics/SVG/1.1/DTD/svg11.dtd">
<svg version="1.1" id="Layer_1" xmlns="http://www.w3.org/2000/svg" xmlns:xlink="http://www.w3.org/1999/xlink" x="0px" y="0px"
	 width="502px" height="337px" viewBox="0 0 502 337" enable-background="new 0 0 502 337" xml:space="preserve">

<defs>
	<style type="text/css">
	text {
	  font-family: Helvetica, Verdana, ArialUnicodeMS, san-serif
	}
	</style>
</defs>

<g>
   <desc>
	PS 3.17 Part 17: Explanatory Information
   </desc>
</g>

<g>
	<rect x="1" y="1" fill="#F5EED6" width="500" height="335"/>
</g>
<rect x="16.002" y="20.708" fill="#E6E7E8" stroke="#939598" stroke-width="0.5" stroke-miterlimit="10" stroke-dasharray="2,3" width="150" height="300"/>
<rect x="20.769" y="27.092" fill="#86B2D8" stroke="#010101" stroke-width="0.75" stroke-linecap="round" stroke-linejoin="round" stroke-miterlimit="1" width="106.467" height="13"/>
<rect x="176.003" y="20.708" fill="#DCDDDE" stroke="#939598" stroke-width="0.5" stroke-miterlimit="10" stroke-dasharray="2,3" width="149.995" height="300"/>
<rect x="335.998" y="20.708" fill="#D1D3D4" stroke="#939598" stroke-width="0.5" stroke-miterlimit="10" stroke-dasharray="2,3" width="150" height="300"/>
<text transform="matrix(1 0 0 1 21.9355 36.8408)" font-size="10">Template Manufacturer</text>
<rect x="63.414" y="85.388" fill="#FFFFFF" stroke="#010101" stroke-width="0.75" stroke-linecap="round" stroke-linejoin="round" stroke-miterlimit="1" stroke-dasharray="2,3" width="75.735" height="13"/>
<rect x="63.414" y="72.643" fill="#86B2D8" stroke="#010101" stroke-width="0.75" stroke-linecap="round" stroke-linejoin="round" stroke-miterlimit="1" stroke-dasharray="2,3" width="75.735" height="13"/>
<rect x="63.415" y="133.221" fill="#FFFFFF" stroke="#010101" stroke-width="0.75" stroke-linecap="round" stroke-linejoin="round" stroke-miterlimit="1" width="75.735" height="18"/>
<rect x="63.415" y="151.222" fill="#FFFFFF" stroke="#010101" stroke-width="0.75" stroke-linecap="round" stroke-linejoin="round" stroke-miterlimit="1" width="75.735" height="18"/>
<rect x="63.415" y="115.051" fill="#86B2D8" stroke="#010101" stroke-width="0.75" stroke-linecap="round" stroke-linejoin="round" stroke-miterlimit="1" width="75.735" height="18"/>
<rect x="67.258" y="119.296" fill="none" width="68.048" height="10.98"/>
<text transform="matrix(0.9288 0 0 1 69.0674 125.0273)" font-size="8">Implant Template A</text>
<rect x="83.904" y="155.845" fill="none" width="34.757" height="8.777"/>
<text transform="matrix(0.9288 0 0 1 85.5854 161.5762)" font-size="8">Version 1</text>
<rect x="81.856" y="137.843" fill="none" width="38.853" height="8.883"/>
<text transform="matrix(0.9288 0 0 1 83.5264 143.5742)" font-size="8">ORIGINAL</text>
<rect x="63.415" y="236.367" fill="#FFFFFF" stroke="#010101" stroke-width="0.75" stroke-linecap="round" stroke-linejoin="round" stroke-miterlimit="1" width="75.735" height="18"/>
<rect x="63.415" y="254.369" fill="#FFFFFF" stroke="#010101" stroke-width="0.75" stroke-linecap="round" stroke-linejoin="round" stroke-miterlimit="1" width="75.735" height="18"/>
<rect x="63.415" y="218.197" fill="#86B2D8" stroke="#010101" stroke-width="0.75" stroke-linecap="round" stroke-linejoin="round" stroke-miterlimit="1" width="75.735" height="18"/>
<rect x="67.258" y="222.442" fill="none" width="68.048" height="10.98"/>
<text transform="matrix(0.9288 0 0 1 69.0674 228.1738)" font-size="8">Implant Template A</text>
<rect x="83.904" y="258.991" fill="none" width="34.757" height="8.777"/>
<text transform="matrix(0.9288 0 0 1 85.5854 264.7227)" font-size="8">Version 2</text>
<rect x="81.856" y="240.989" fill="none" width="38.853" height="8.883"/>
<text transform="matrix(0.9288 0 0 1 83.5264 246.7207)" font-size="8">ORIGINAL</text>
<rect x="69.214" y="76.768" fill="none" width="64.133" height="8.877"/>
<text transform="matrix(0.9288 0 0 1 69.4854 82.4893)" font-size="8">Real-World Implant</text>
<rect x="77.499" y="89.653" fill="none" width="47.564" height="8.736"/>
<text transform="matrix(0.9288 0 0 1 80.2212 95.377)" font-size="8">Part Number</text>
<g>
	<g>
		<polyline fill="none" stroke="#003468" stroke-miterlimit="10" points="24.844,40.092 24.844,123.563 53.665,123.563 		"/>
		<g>
			<polygon fill="#003468" points="51.683,126.468 62.524,123.563 51.683,120.658 			"/>
		</g>
	</g>
</g>
<g>
	<g>
		<line fill="none" stroke="#003468" stroke-miterlimit="10" x1="24.844" y1="79.383" x2="53.665" y2="79.383"/>
		<g>
			<polygon fill="#003468" points="51.683,82.289 62.524,79.383 51.683,76.478 			"/>
		</g>
	</g>
</g>
<rect x="23.406" y="115.689" fill="none" width="28.981" height="8.736"/>
<text transform="matrix(0.9288 0 0 1 28.6821 120.7041)" font-size="7">issues</text>
<g>
	<g>
		<polyline fill="none" stroke="#003468" stroke-miterlimit="10" points="24.844,124.084 24.844,227.5 53.665,227.5 		"/>
		<g>
			<polygon fill="#003468" points="51.683,230.405 62.524,227.5 51.683,224.595 			"/>
		</g>
	</g>
</g>
<g>
	<g>
		<line fill="none" stroke="#003468" stroke-miterlimit="10" x1="101.283" y1="218.201" x2="101.283" y2="178.303"/>
		<g>
			<polygon fill="#003468" points="104.188,180.284 101.283,169.443 98.377,180.284 			"/>
		</g>
	</g>
</g>
<rect x="246.602" y="27.092" fill="#86B2D8" stroke="#010101" stroke-width="0.75" stroke-linecap="round" stroke-linejoin="round" stroke-miterlimit="1" width="79.4" height="13"/>
<text transform="matrix(1 0 0 1 249.1411 36.8408)" font-size="10">Software Vendor</text>
<g>
	<g>
		<polyline fill="none" stroke="#003468" stroke-miterlimit="10" points="321.926,40.092 321.926,123.563 293.105,123.563 		"/>
		<g>
			<polygon fill="#003468" points="295.087,120.658 284.246,123.563 295.087,126.468 			"/>
		</g>
	</g>
</g>
<rect x="294.17" y="114.966" fill="none" width="25.377" height="8.736"/>
<text transform="matrix(0.9288 0 0 1 297.6475 119.9805)" font-size="7">issues</text>
<g>
	<g>
		<polyline fill="none" stroke="#003468" stroke-miterlimit="10" points="321.926,124.084 321.926,227.5 293.105,227.5 		"/>
		<g>
			<polygon fill="#003468" points="295.087,224.595 284.246,227.5 295.087,230.405 			"/>
		</g>
	</g>
</g>
<rect x="208.03" y="133.221" fill="#FFFFFF" stroke="#010101" stroke-width="0.75" stroke-linecap="round" stroke-linejoin="round" stroke-miterlimit="1" width="75.732" height="18"/>
<rect x="208.03" y="151.222" fill="#FFFFFF" stroke="#010101" stroke-width="0.75" stroke-linecap="round" stroke-linejoin="round" stroke-miterlimit="1" width="75.732" height="18"/>
<rect x="208.03" y="115.051" fill="#86B2D8" stroke="#010101" stroke-width="0.75" stroke-linecap="round" stroke-linejoin="round" stroke-miterlimit="1" width="75.732" height="18"/>
<rect x="208.529" y="119.296" fill="none" width="74.729" height="10.98"/>
<text transform="matrix(0.9288 0 0 1 211.6147 125.0244)" font-size="8">Implant Template A1</text>
<rect x="228.519" y="155.845" fill="none" width="34.753" height="8.777"/>
<text transform="matrix(0.9288 0 0 1 230.1992 161.5762)" font-size="8">Version 1</text>
<rect x="226.471" y="137.843" fill="none" width="38.85" height="8.883"/>
<text transform="matrix(0.9288 0 0 1 229.3794 143.5742)" font-size="8">DERIVED</text>
<rect x="208.03" y="236.367" fill="#FFFFFF" stroke="#010101" stroke-width="0.75" stroke-linecap="round" stroke-linejoin="round" stroke-miterlimit="1" width="75.732" height="18"/>
<rect x="208.03" y="254.369" fill="#FFFFFF" stroke="#010101" stroke-width="0.75" stroke-linecap="round" stroke-linejoin="round" stroke-miterlimit="1" width="75.732" height="18"/>
<rect x="208.03" y="218.197" fill="#86B2D8" stroke="#010101" stroke-width="0.75" stroke-linecap="round" stroke-linejoin="round" stroke-miterlimit="1" width="75.732" height="18"/>
<rect x="208.526" y="222.442" fill="none" width="74.736" height="10.98"/>
<text transform="matrix(0.9288 0 0 1 211.6152 228.1709)" font-size="8">Implant Template A1</text>
<rect x="228.519" y="258.991" fill="none" width="34.753" height="8.777"/>
<text transform="matrix(0.9288 0 0 1 230.1992 264.7227)" font-size="8">Version 2</text>
<rect x="226.471" y="240.989" fill="none" width="38.85" height="8.883"/>
<text transform="matrix(0.9288 0 0 1 229.3794 246.7207)" font-size="8">DERIVED</text>
<g>
	<g>
		<line fill="none" stroke="#003468" stroke-miterlimit="10" x1="245.897" y1="218.201" x2="245.897" y2="178.303"/>
		<g>
			<polygon fill="#003468" points="248.803,180.284 245.897,169.443 242.992,180.284 			"/>
		</g>
	</g>
</g>
<rect x="294.17" y="219.627" fill="none" width="25.377" height="8.736"/>
<text transform="matrix(0.9288 0 0 1 297.6484 224.6416)" font-size="7">issues</text>
<g>
	<g>
		<line fill="none" stroke="#003468" stroke-miterlimit="10" x1="207.79" y1="123.563" x2="148.01" y2="123.563"/>
		<g>
			<polygon fill="#003468" points="149.992,120.658 139.151,123.563 149.992,126.468 			"/>
		</g>
	</g>
</g>
<rect x="150.151" y="115.687" fill="none" width="55.905" height="17.537"/>
<text transform="matrix(0.9288 0 0 1 151.9043 120.7012)"><tspan x="0" y="0" font-size="7">Derivation Implant </tspan><tspan x="12.002" y="10.4" font-size="7">Template</tspan></text>
<g>
	<g>
		<line fill="none" stroke="#003468" stroke-miterlimit="10" x1="207.79" y1="151.414" x2="148.01" y2="151.414"/>
		<g>
			<polygon fill="#003468" points="149.992,148.508 139.151,151.414 149.992,154.319 			"/>
		</g>
	</g>
</g>
<rect x="150.151" y="143.537" fill="none" width="55.905" height="17.537"/>
<text transform="matrix(0.9288 0 0 1 155.3379 148.5488)"><tspan x="0" y="0" font-size="7">Original Implant </tspan><tspan x="8.306" y="10.4" font-size="7">Template</tspan></text>
<g>
	<g>
		<line fill="none" stroke="#003468" stroke-miterlimit="10" x1="207.79" y1="226.176" x2="148.01" y2="226.176"/>
		<g>
			<polygon fill="#003468" points="149.992,223.271 139.151,226.176 149.992,229.081 			"/>
		</g>
	</g>
</g>
<rect x="150.151" y="218.299" fill="none" width="55.905" height="17.537"/>
<text transform="matrix(0.9288 0 0 1 151.9043 223.3125)"><tspan x="0" y="0" font-size="7">Derivation Implant </tspan><tspan x="12.002" y="10.4" font-size="7">Template</tspan></text>
<g>
	<g>
		<line fill="none" stroke="#003468" stroke-miterlimit="10" x1="207.79" y1="254.025" x2="148.01" y2="254.025"/>
		<g>
			<polygon fill="#003468" points="149.992,251.12 139.151,254.025 149.992,256.931 			"/>
		</g>
	</g>
</g>
<rect x="150.151" y="246.149" fill="none" width="55.905" height="17.537"/>
<text transform="matrix(0.9288 0 0 1 155.3379 251.1621)"><tspan x="0" y="0" font-size="7">Original Implant </tspan><tspan x="8.306" y="10.4" font-size="7">Template</tspan></text>
<rect x="372.602" y="27.092" fill="#86B2D8" stroke="#010101" stroke-width="0.75" stroke-linecap="round" stroke-linejoin="round" stroke-miterlimit="1" width="113.396" height="13"/>
<g>
	<g>
		<polyline fill="none" stroke="#003468" stroke-miterlimit="10" points="479.041,40.092 479.041,263.859 453.102,263.859 		"/>
		<g>
			<polygon fill="#003468" points="455.083,260.954 444.242,263.859 455.083,266.765 			"/>
		</g>
	</g>
</g>
<rect x="368.027" y="272.729" fill="#FFFFFF" stroke="#010101" stroke-width="0.75" stroke-linecap="round" stroke-linejoin="round" stroke-miterlimit="1" width="75.73" height="18"/>
<rect x="368.027" y="290.729" fill="#FFFFFF" stroke="#010101" stroke-width="0.75" stroke-linecap="round" stroke-linejoin="round" stroke-miterlimit="1" width="75.73" height="18"/>
<rect x="368.027" y="254.559" fill="#86B2D8" stroke="#010101" stroke-width="0.75" stroke-linecap="round" stroke-linejoin="round" stroke-miterlimit="1" width="75.73" height="18"/>
<rect x="368.523" y="258.803" fill="none" width="74.736" height="10.98"/>
<text transform="matrix(0.9288 0 0 1 371.6123 264.5322)" font-size="8">Implant Template A2</text>
<rect x="388.516" y="295.352" fill="none" width="34.752" height="8.777"/>
<text transform="matrix(0.9288 0 0 1 390.1963 301.084)" font-size="8">Version 2</text>
<rect x="386.467" y="277.35" fill="none" width="38.85" height="8.883"/>
<text transform="matrix(0.9288 0 0 1 389.377 283.082)" font-size="8">DERIVED</text>
<rect x="454.524" y="254.189" fill="none" width="25.377" height="8.736"/>
<text transform="matrix(0.9288 0 0 1 458.0059 259.2002)" font-size="7">issues</text>
<g>
	<g>
		<polyline fill="none" stroke="#003468" stroke-miterlimit="10" points="367.645,262.918 310.158,262.918 289.562,235.451 		"/>
		<g>
			<polygon fill="#003468" points="293.074,235.293 284.246,228.363 288.426,238.779 			"/>
		</g>
	</g>
</g>
<g>
	<g>
		<polyline fill="none" stroke="#003468" stroke-miterlimit="10" points="367.645,290.873 166.002,290.873 144.4,261.504 		"/>
		<g>
			<polygon fill="#003468" points="147.914,261.379 139.15,254.367 143.233,264.821 			"/>
		</g>
	</g>
</g>
<rect x="310.148" y="254.659" fill="none" width="55.904" height="17.537"/>
<text transform="matrix(0.9288 0 0 1 311.9014 259.6719)"><tspan x="0" y="0" font-size="7">Derivation Implant </tspan><tspan x="12.002" y="10.4" font-size="7">Template</tspan></text>
<rect x="310.148" y="282.51" fill="none" width="55.904" height="17.537"/>
<text transform="matrix(0.9288 0 0 1 315.335 287.5215)"><tspan x="0" y="0" font-size="7">Original Implant </tspan><tspan x="8.305" y="10.4" font-size="7">Template</tspan></text>
<rect x="27.006" y="210.611" fill="none" width="25.053" height="17.537"/>
<text transform="matrix(0.9288 0 0 1 30.3179 215.627)"><tspan x="0" y="0" font-size="7">issues</tspan><tspan x="-0.784" y="8.4" font-size="7">update</tspan></text>
<text transform="matrix(1 0 0 1 374.2695 36.8408)" font-size="10">PACS System Integrator</text>
<rect x="245.535" y="187.19" fill="none" width="37.863" height="27.072"/>
<text transform="matrix(0.9288 0 0 1 250.9146 192.1973)"><tspan x="0" y="0" font-size="7">Replaces </tspan><tspan x="3.114" y="8.4" font-size="7">Implant</tspan><tspan x="0.002" y="16.8" font-size="7">Template</tspan></text>
<rect x="100.92" y="187.154" fill="none" width="37.869" height="27.072"/>
<text transform="matrix(0.9288 0 0 1 106.3022 192.1611)"><tspan x="0" y="0" font-size="7">Replaces </tspan><tspan x="3.114" y="8.4" font-size="7">Implant</tspan><tspan x="0.002" y="16.8" font-size="7">Template</tspan></text>
</svg>
