<?xml version="1.0" encoding="utf-8"?>

<!DOCTYPE svg PUBLIC "-//W3C//DTD SVG 1.1//EN" "http://www.w3.org/Graphics/SVG/1.1/DTD/svg11.dtd">
<svg version="1.1" id="Layer_1" xmlns="http://www.w3.org/2000/svg" xmlns:xlink="http://www.w3.org/1999/xlink" x="0px" y="0px"
	 width="502.002px" height="412px" viewBox="0 0 502.002 412" enable-background="new 0 0 502.002 412" xml:space="preserve">

<defs>
	<style type="text/css">
	text {
	  font-family: Helvetica, Verdana, ArialUnicodeMS, san-serif
	}
	</style>
</defs>

<g>
   <desc>
	PS 3.17 Part 17: Explanatory Information
   </desc>
</g>

<g>
	<rect x="1" y="1" fill="#F5EED6" width="500.002" height="410"/>
	<g>
		
			<rect x="152.179" y="83.097" fill="#CCDEF0" stroke="#010101" stroke-width="0.75" stroke-linecap="round" stroke-linejoin="round" stroke-miterlimit="1" width="216.597" height="252.334"/>
		<g>
			<g>
				<path fill="none" stroke="#ED1C24" stroke-width="2" stroke-miterlimit="10" d="M263.04,310.296
					c18.08,0,32.736,15.94,32.736,35.603c0,15.679-9.32,28.99-22.265,33.739"/>
				<g>
					<polygon fill="#ED1C24" points="275.112,375.528 263.04,381.498 276.48,382.365 					"/>
				</g>
			</g>
		</g>
		<g>
			<g>
				<path fill="none" stroke="#ED1C24" stroke-width="2" stroke-miterlimit="10" d="M263.04,227.817
					c18.08,0,32.736,17.664,32.736,39.452c0,17.39-9.337,32.151-22.3,37.402"/>
				<g>
					<polygon fill="#ED1C24" points="274.992,300.511 263.04,306.719 276.495,307.319 					"/>
				</g>
			</g>
		</g>
		<g>
			<g>
				
					<line fill="none" stroke="#005695" stroke-width="3" stroke-miterlimit="1" x1="216.042" y1="353.506" x2="216.042" y2="362.348"/>
				<g>
					<polygon fill="#005695" points="212.556,359.97 216.042,372.979 219.529,359.97 					"/>
				</g>
			</g>
		</g>
		
			<line fill="none" stroke="#005695" stroke-width="3" stroke-miterlimit="1" x1="216.042" y1="322.033" x2="216.042" y2="341.506"/>
		<text transform="matrix(1 0 0 1 153.2305 61.2383)" font-size="9">DICOM Worklist</text>
		
			<rect x="140.242" y="15.021" fill="#86B2D8" stroke="#010101" stroke-width="0.75" stroke-linecap="round" stroke-linejoin="round" stroke-miterlimit="1" width="94.001" height="24"/>
		<g>
			<text transform="matrix(1 0 0 1 152.0532 29.5254)" font-size="9">Procedure Orders</text>
		</g>
		<path id="path29274_9_" fill="#E6E6E6" stroke="#000000" stroke-width="0.5" stroke-linecap="round" stroke-linejoin="round" d="
			M238.998,153.166l1.594,1.594c0,3.898,0,6.11,0,10.098c-1.062,1.594-7.265,13.466-10.631,20.198
			c-1.062,2.126-1.061,4.783,0.534,6.909c1.063,1.595,2.919,2.128,4.781,2.128c6.378,0,12.757,0,19.135,0
			c1.861,0,3.717-0.533,4.779-2.128c1.596-2.126,1.598-4.783,0.535-6.909c-3.012-6.732-6.556-13.466-9.567-20.198
			c0-3.898,0-6.199,0-10.098l1.542-1.542l0.052-0.052H238.998z"/>
		<path id="path29274_8_" fill="#8DC63F" stroke="#000000" stroke-width="0.25" stroke-linecap="round" stroke-miterlimit="10" d="
			M238.215,169.11c-2.403,4.485-5.978,11.392-8.255,15.945c-1.062,2.126-1.061,4.783,0.534,6.909
			c1.063,1.595,2.919,2.128,4.781,2.128c6.378,0,12.757,0,19.135,0c1.861,0,3.717-0.533,4.779-2.128
			c1.596-2.126,1.598-4.783,0.535-6.909c-2.377-5.312-5.084-10.625-7.601-15.938L238.215,169.11z"/>
		<path id="path6038_4_" fill="#FFFFFF" d="M249.365,154.716c0,3.438,0,6.875,0,10.312c3.383,7.154,6.783,14.305,10.154,21.462
			c0.945,2.233-0.232,4.838-2.273,5.982c-1.818,1.222-4.062,0.75-6.111,0.834c-1.45,0-2.9,0-4.35,0
			c2.597-0.334,5.246-0.397,7.807-0.914c1.684-0.525,3.725-1.461,3.828-3.493c0.105-2.169-1.254-4.005-1.977-5.965
			c-2.61-5.969-5.219-11.938-7.828-17.906c0-3.438,0-6.875,0-10.312l1.356-1.362h0.753L249.365,154.716L249.365,154.716z"/>
		<path id="path1613_7_" fill="#010101" fill-opacity="0.1762" d="M241.486,154.716c0,3.438,0,6.875,0,10.312
			c-3.384,7.154-7.454,13.655-10.827,20.812c-0.943,2.234-0.188,5.25,1.688,6.562c1.875,0.938,1.312,0.75,3.433,0.996
			c1.449,0,6.838-0.093,8.287-0.093c-2.596-0.334-5.245-0.397-7.807-0.914c-1.683-0.525-3.727-1.461-3.829-3.493
			c-0.106-2.169,1.255-4.005,1.979-5.965c2.608-5.969,5.218-11.938,7.827-17.906c0-3.438,0-6.875,0-10.312l-1.355-1.362h-0.756
			L241.486,154.716L241.486,154.716z"/>
		
			<rect x="197.843" y="97.166" fill="#FFC20E" stroke="#010101" stroke-width="0.75" stroke-linecap="round" stroke-linejoin="round" stroke-miterlimit="1" width="93.996" height="36"/>
		<text transform="matrix(1 0 0 1 229.9033 106.8706)"><tspan x="0" y="0" font-size="9">Hot Lab</tspan><tspan x="-10.114" y="10.8" font-size="9">Management</tspan><tspan x="0.627" y="21.6" font-size="9">System</tspan></text>
		<text transform="matrix(1 0 0 1 201.1694 350.0137)"><tspan x="0" y="0" font-size="9">D</tspan><tspan x="6.238" y="0" font-size="9">I</tspan><tspan x="8.991" y="0" font-size="9">C</tspan><tspan x="15.229" y="0" font-size="9">O</tspan><tspan x="22.158" y="0" font-size="9">M</tspan></text>
		
			<rect x="169.042" y="298.033" fill="#86B2D8" stroke="#010101" stroke-width="0.75" stroke-linecap="round" stroke-linejoin="round" stroke-miterlimit="1" width="94" height="24"/>
		
			<rect x="168.042" y="213.47" fill="#B2CEE7" stroke="#010101" stroke-width="0.75" stroke-linecap="round" stroke-linejoin="round" stroke-miterlimit="1" width="96" height="34.823"/>
		<text transform="matrix(1 0 0 1 200.2344 312.541)" font-size="9">Modality</text>
		
			<rect x="169.042" y="372.979" fill="#86B2D8" stroke="#010101" stroke-width="0.75" stroke-linecap="round" stroke-linejoin="round" stroke-miterlimit="1" width="94" height="24"/>
		<text transform="matrix(1 0 0 1 188.9805 387.4863)" font-size="9">Image Archive</text>
		<text transform="matrix(1 0 0 1 176.2485 222.5742)"><tspan x="0" y="0" font-size="9">Radiopharmaceutical</tspan><tspan x="4.759" y="10.801" font-size="9">infusion system or </tspan><tspan x="-2.366" y="21.6" font-size="9">radioisotope generator</tspan></text>
		<rect x="197.843" y="173.63" opacity="0.6" fill="#FFFFFF" width="93.996" height="12"/>
		<text transform="matrix(1 0 0 1 205.0488 182.1113)" font-size="9">Radiopharmaceutical</text>
		<rect x="281.718" y="249.741" fill="#CCDEF0" width="44.529" height="17.197"/>
		<text transform="matrix(1 0 0 1 287.5068 261.3896)" font-size="9">RRD SR</text>
		<rect x="268.2" y="342.914" fill="#F5EED6" width="44.529" height="17.197"/>
		<text transform="matrix(1 0 0 1 277.5938 354.3574)" font-size="9">RRD SR</text>
		<text transform="matrix(1 0 0 1 184.9746 275.0693)" font-size="9">Patient Scanned</text>
		<text transform="matrix(1 0 0 1 307.6709 76.0693)" font-size="9">Consistent Time</text>
		<g>
			<g>
				<line fill="none" stroke="#000000" stroke-miterlimit="1" x1="216.042" y1="278.104" x2="216.042" y2="290.311"/>
				<g>
					<polygon points="213.718,288.726 216.042,297.398 218.367,288.726 					"/>
				</g>
			</g>
		</g>
		<line fill="none" stroke="#000000" stroke-miterlimit="1" x1="216.042" y1="248.256" x2="216.042" y2="266.324"/>
		<g>
			<line x1="244.843" y1="187.856" x2="244.843" y2="211.21"/>
			<g>
				
					<line fill="none" stroke="#000000" stroke-width="2" stroke-miterlimit="1" x1="244.843" y1="187.856" x2="244.843" y2="204.123"/>
				<g>
					<polygon points="242.519,202.537 244.843,211.21 247.167,202.537 					"/>
				</g>
			</g>
		</g>
		<g>
			<line x1="244.843" y1="133.166" x2="244.843" y2="161.857"/>
			<g>
				
					<line fill="none" stroke="#000000" stroke-width="2" stroke-miterlimit="1" x1="244.843" y1="140.253" x2="244.843" y2="161.857"/>
				<g>
					<polygon points="242.519,141.839 244.843,133.166 247.167,141.839 					"/>
				</g>
			</g>
		</g>
		<g>
			<g>
				
					<line fill="none" stroke="#005695" stroke-width="2" stroke-miterlimit="1" x1="187.242" y1="64.796" x2="187.242" y2="206.38"/>
				<g>
					<polygon fill="#005695" points="184.917,204.795 187.242,213.468 189.566,204.795 					"/>
				</g>
			</g>
		</g>
		<line fill="none" stroke="#005695" stroke-width="2" stroke-miterlimit="1" x1="187.242" y1="39.021" x2="187.242" y2="51.851"/>
		<g>
			<g>
				<line fill="none" stroke="#005695" stroke-width="2" stroke-miterlimit="1" x1="161.5" y1="309.629" x2="160.5" y2="309.629"/>
				
					<line fill="none" stroke="#005695" stroke-width="2" stroke-miterlimit="1" stroke-dasharray="2.0211,2.0211" x1="158.479" y1="309.629" x2="135.236" y2="309.629"/>
				<polyline fill="none" stroke="#005695" stroke-width="2" stroke-miterlimit="1" points="134.225,309.629 133.225,309.629 
					133.225,308.629 				"/>
				
					<line fill="none" stroke="#005695" stroke-width="2" stroke-miterlimit="1" stroke-dasharray="2.0019,2.0019" x1="133.225" y1="306.627" x2="133.225" y2="71.407"/>
				<polyline fill="none" stroke="#005695" stroke-width="2" stroke-miterlimit="1" points="133.225,70.406 133.225,69.406 
					134.225,69.406 				"/>
				
					<line fill="none" stroke="#005695" stroke-width="2" stroke-miterlimit="1" stroke-dasharray="2.0664,2.0664" x1="136.292" y1="69.406" x2="184.851" y2="69.406"/>
				
					<line fill="none" stroke="#005695" stroke-width="2" stroke-miterlimit="1" x1="185.884" y1="69.406" x2="186.884" y2="69.406"/>
				<g>
					<polygon fill="#005695" points="159.915,307.305 168.587,309.629 159.915,311.953 					"/>
				</g>
			</g>
		</g>
	</g>
</g>
</svg>
