<?xml version="1.0" encoding="utf-8"?>

<!DOCTYPE svg PUBLIC "-//W3C//DTD SVG 1.1//EN" "http://www.w3.org/Graphics/SVG/1.1/DTD/svg11.dtd">
<svg version="1.1" id="Layer_1" xmlns="http://www.w3.org/2000/svg" xmlns:xlink="http://www.w3.org/1999/xlink" x="0px" y="0px"
	 width="502px" height="292px" viewBox="0 0 502 292" enable-background="new 0 0 502 292" xml:space="preserve">

<defs>
	<style type="text/css">
	text {
	  font-family: Helvetica, Verdana, ArialUnicodeMS, san-serif
	}
	</style>
</defs>

<g>
   <desc>
	PS 3.17 Part 17: Explanatory Information
   </desc>
</g>

<g>
	<rect x="1" y="1" fill="#F5EED6" width="500" height="290"/>
	<g>
		<g>
			<rect x="75.618" y="14.648" fill="#FFFFFF" stroke="#000000" stroke-width="0.4731" width="344.188" height="262.703"/>
			<line fill="#FFFFFF" stroke="#000000" stroke-width="0.4731" x1="419.806" y1="172.019" x2="75.618" y2="172.019"/>
			<line fill="#FFFFFF" stroke="#000000" stroke-width="0.4731" x1="419.806" y1="35.191" x2="75.618" y2="35.191"/>
			<line fill="#FFFFFF" stroke="#000000" stroke-width="0.4731" x1="161.665" y1="35.191" x2="161.665" y2="172.021"/>
			<line fill="#FFFFFF" stroke="#000000" stroke-width="0.4731" x1="247.712" y1="35.191" x2="247.712" y2="277.352"/>
			<line fill="#FFFFFF" stroke="#000000" stroke-width="0.4731" x1="333.759" y1="35.191" x2="333.759" y2="172.021"/>
		</g>
		<rect x="75.618" y="14.648" fill="#CCDEF0" stroke="#000000" stroke-width="0.4731" width="344.188" height="20.543"/>
		<g>
			<g>
				<path fill="#8A8C8E" stroke="#000000" stroke-linejoin="bevel" d="M126.002,62.427c0,0,2.96-2.52,0.592-5.232
					c-0.978-1.121-3.021-1.665-3.021-1.665l0,0c-4.396,2.495-4.887,2.457-4.887,2.457l-8.25,2.062c0,0-2.602,6.56-2.625,8.812
					c-0.023,2.254-0.671,52.977-0.671,53.602s1.218,3.03,3.116,3.018c1.897-0.014,2.306-5.012,2.306-5.012l3.251-30.525
					c1.922-7.128,5.297-19.481,6.215-21.614C123.349,65.259,124.364,64.064,126.002,62.427z"/>
				<path fill="none" stroke="#4D4D4F" stroke-linecap="round" d="M109.944,124.398c1.684-0.303,1.897-4.74,1.897-4.74l3.251-29.985
					c2.192-6.857,4.937-19.211,5.855-21.344c1.321-3.07,2.55-4.499,4.188-6.137"/>
				<path fill="none" stroke="#A6A6A6" stroke-width="2" stroke-linecap="round" stroke-linejoin="bevel" d="M123.572,56.788
					l-4.694,2.35l-7.637,1.708c0,0-2.333,6.289-2.355,8.543c-0.023,2.253-0.672,52.166-0.672,52.791
					c0,0.624,0.521,1.775,1.961,2.219"/>
				<path fill="#FFF200" stroke="#000000" d="M126.002,62.427c0,0,2.938-2.663,0.57-5.377c-0.978-1.12-3-1.521-3-1.521l0,0
					l4.198-2.892c0,0,2.347-1.093,4.328,1.177s-0.301,4.14-0.301,4.14S128.444,60.376,126.002,62.427z"/>
			</g>
			<g>
				<g>
					<g>
						<line fill="none" stroke="#ED1C24" stroke-width="0.5689" x1="92.68" y1="150.435" x2="104.738" y2="150.435"/>
						<g>
							<polygon fill="#ED1C24" points="103.611,152.088 109.778,150.435 103.611,148.781 							"/>
						</g>
					</g>
				</g>
				<g>
					<g>
						<line fill="none" stroke="#ED1C24" stroke-width="0.5689" x1="92.618" y1="150.433" x2="92.618" y2="137.938"/>
						<g>
							<polygon fill="#ED1C24" points="94.271,139.066 92.618,132.898 90.965,139.066 							"/>
						</g>
					</g>
				</g>
				<g>
					<path stroke="#000000" stroke-width="0.5689" stroke-miterlimit="1" d="M92.618,146.598c-2.121,0-3.84,1.721-3.84,3.837h3.84
						V146.598z"/>
					
						<path fill="#FFFFFF" stroke="#010101" stroke-width="0.4267" stroke-linecap="round" stroke-linejoin="round" stroke-miterlimit="1" d="
						M88.778,150.435c0,2.126,1.719,3.843,3.84,3.843v-3.843H88.778z"/>
					<path stroke="#000000" stroke-width="0.5689" stroke-miterlimit="1" d="M92.618,154.277c2.123,0,3.841-1.717,3.841-3.843
						h-3.841V154.277z"/>
					
						<path fill="#FFFFFF" stroke="#010101" stroke-width="0.4267" stroke-linecap="round" stroke-linejoin="round" stroke-miterlimit="1" d="
						M92.618,150.435h3.841c0-2.116-1.718-3.837-3.841-3.837V150.435z"/>
				</g>
			</g>
		</g>
		<g>
			<g>
				<path fill="#8A8C8E" stroke="#000000" stroke-linejoin="bevel" d="M215.208,62.427c0,0,2.961-2.52,0.593-5.232
					c-0.978-1.121-3.022-1.664-3.022-1.664l0,0c-4.395,2.494-4.886,2.457-4.886,2.457l-8.25,2.062c0,0-2.602,6.559-2.625,8.812
					c-0.023,2.252-0.671,60.173-0.671,60.798s1.218,3.03,3.116,3.018c1.897-0.014,2.305-5.011,2.305-5.011l3.252-37.725
					c1.922-7.127,5.296-19.48,6.215-21.613C212.556,65.259,213.57,64.065,215.208,62.427z"/>
				<path fill="none" stroke="#4D4D4F" stroke-linecap="round" d="M199.151,131.596c1.683-0.303,1.896-4.739,1.896-4.739
					l3.252-37.184c2.191-6.857,4.937-19.211,5.854-21.344c1.321-3.07,2.55-4.5,4.188-6.137"/>
				<path fill="none" stroke="#A6A6A6" stroke-width="2" stroke-linecap="round" stroke-linejoin="bevel" d="M212.778,56.788
					l-4.693,2.35l-7.638,1.707c0,0-2.332,6.289-2.354,8.543c-0.023,2.254-0.672,59.364-0.672,59.989
					c0,0.624,0.521,1.775,1.961,2.219"/>
				<path fill="#FFF200" stroke="#000000" d="M215.208,62.427c0,0,2.938-2.662,0.57-5.377c-0.978-1.119-3-1.52-3-1.52l0,0
					l4.198-2.893c0,0,2.347-1.092,4.329,1.176c1.981,2.271-0.301,4.141-0.301,4.141S217.65,60.376,215.208,62.427z"/>
			</g>
			<g>
				<g>
					<g>
						<line fill="none" stroke="#ED1C24" stroke-width="0.5689" x1="181.808" y1="154.225" x2="193.867" y2="154.225"/>
						<g>
							<polygon fill="#ED1C24" points="192.74,155.878 198.907,154.225 192.74,152.571 							"/>
						</g>
					</g>
				</g>
				<g>
					<g>
						<line fill="none" stroke="#ED1C24" stroke-width="0.5689" x1="181.747" y1="154.223" x2="181.747" y2="141.729"/>
						<g>
							<polygon fill="#ED1C24" points="183.4,142.856 181.747,136.688 180.094,142.856 							"/>
						</g>
					</g>
				</g>
				<g>
					<path stroke="#000000" stroke-width="0.5689" stroke-miterlimit="1" d="M181.747,150.388c-2.121,0-3.84,1.721-3.84,3.837h3.84
						V150.388z"/>
					
						<path fill="#FFFFFF" stroke="#010101" stroke-width="0.4267" stroke-linecap="round" stroke-linejoin="round" stroke-miterlimit="1" d="
						M177.907,154.225c0,2.126,1.719,3.843,3.84,3.843v-3.843H177.907z"/>
					<path stroke="#000000" stroke-width="0.5689" stroke-miterlimit="1" d="M181.747,158.067c2.123,0,3.84-1.717,3.84-3.843h-3.84
						V158.067z"/>
					
						<path fill="#FFFFFF" stroke="#010101" stroke-width="0.4267" stroke-linecap="round" stroke-linejoin="round" stroke-miterlimit="1" d="
						M181.747,154.225h3.84c0-2.116-1.717-3.837-3.84-3.837V154.225z"/>
				</g>
			</g>
		</g>
		<g>
			<g>
				<path fill="#8A8C8E" stroke="#000000" stroke-linejoin="bevel" d="M303.974,62.427c0,0,2.96-2.52,0.592-5.233
					c-0.977-1.12-3.021-1.664-3.021-1.664l0,0c-4.395,2.494-4.885,2.457-4.885,2.457l-8.249,2.062c0,0-2.602,6.559-2.625,8.812
					c-0.023,2.253-0.671,78.174-0.671,78.799s1.217,3.03,3.115,3.018c1.897-0.014,2.306-5.012,2.306-5.012l3.251-55.724
					c1.922-7.128,5.296-19.481,6.214-21.613C301.321,65.259,302.336,64.064,303.974,62.427z"/>
				<path fill="none" stroke="#4D4D4F" stroke-linecap="round" d="M287.918,149.596c1.684-0.303,1.897-4.74,1.897-4.74l3.251-55.184
					c2.191-6.857,4.936-19.211,5.854-21.343c1.321-3.07,2.549-4.5,4.187-6.137"/>
				<path fill="none" stroke="#A6A6A6" stroke-width="2" stroke-linecap="round" stroke-linejoin="bevel" d="M301.544,56.787
					l-4.692,2.35l-7.637,1.708c0,0-2.332,6.289-2.354,8.543c-0.023,2.254-0.672,77.364-0.672,77.989
					c0,0.624,0.521,1.775,1.961,2.219"/>
				<path fill="#FFF200" stroke="#000000" d="M303.974,62.427c0,0,2.938-2.663,0.57-5.377c-0.978-1.12-3-1.521-3-1.521l0,0
					l4.198-2.892c0,0,2.346-1.093,4.328,1.176c1.98,2.271-0.301,4.14-0.301,4.14S306.416,60.376,303.974,62.427z"/>
			</g>
			<g>
				<g>
					<g>
						<line fill="none" stroke="#ED1C24" stroke-width="0.5689" x1="271.017" y1="154.034" x2="283.072" y2="154.034"/>
						<g>
							<polygon fill="#ED1C24" points="281.944,155.688 288.112,154.034 281.944,152.381 							"/>
						</g>
					</g>
				</g>
				<g>
					<g>
						<line fill="none" stroke="#ED1C24" stroke-width="0.5689" x1="270.955" y1="154.032" x2="270.955" y2="141.538"/>
						<g>
							<polygon fill="#ED1C24" points="272.608,142.666 270.955,136.498 269.302,142.666 							"/>
						</g>
					</g>
				</g>
				<g>
					<path stroke="#000000" stroke-width="0.5689" stroke-miterlimit="1" d="M270.955,150.197c-2.121,0-3.84,1.721-3.84,3.837h3.84
						V150.197z"/>
					
						<path fill="#FFFFFF" stroke="#010101" stroke-width="0.4267" stroke-linecap="round" stroke-linejoin="round" stroke-miterlimit="1" d="
						M267.115,154.034c0,2.126,1.719,3.843,3.84,3.843v-3.843H267.115z"/>
					<path stroke="#000000" stroke-width="0.5689" stroke-miterlimit="1" d="M270.955,157.877c2.122,0,3.84-1.717,3.84-3.843h-3.84
						V157.877z"/>
					
						<path fill="#FFFFFF" stroke="#010101" stroke-width="0.4267" stroke-linecap="round" stroke-linejoin="round" stroke-miterlimit="1" d="
						M270.955,154.034h3.84c0-2.116-1.718-3.837-3.84-3.837V154.034z"/>
				</g>
			</g>
		</g>
		<g>
			<path fill="#8A8C8E" stroke="#000000" stroke-linejoin="bevel" d="M398.005,64.008c0,0,2.977-4.559,1.087-6.447
				c-0.862-0.862-2.313-1.531-3.876-1.531l-9.79,7.506l-8.25,2.062c0,0-2.602,7.641-2.625,9.894c-0.023,2.254-0.671,67.375-0.671,68
				s1.218,3.031,3.116,3.018c1.897-0.014,2.306-5.012,2.306-5.012l2.892-45.283c1.922-7.129,7.096-18.402,8.014-20.535
				C391.528,72.608,396.367,65.646,398.005,64.008z"/>
			<path fill="none" stroke="#4D4D4F" stroke-linecap="round" d="M376.685,145.427c1.684-0.303,1.537-4.74,1.537-4.74l2.892-44.744
				c2.192-6.857,7.096-18.131,8.015-20.264c1.321-3.07,6.014-10.175,7.651-11.812"/>
			<path fill="none" stroke="#A6A6A6" stroke-width="2" stroke-linecap="round" stroke-linejoin="bevel" d="M395.737,57.925
				l-10.119,7.843l-7.637,1.708c0,0-2.333,6.289-2.355,8.543c-0.023,2.254-0.672,66.564-0.672,67.189s0.521,1.775,1.961,2.219"/>
			<path fill="#FFF200" stroke="#000000" d="M398.005,64.008c0,0,2.857-3.958,0.714-6.28c-0.95-1.029-2.388-1.698-3.503-1.698
				l4.504-3.635c0,0,2.4-0.35,4.383,1.92c1.981,2.27-0.301,5.22-0.301,5.22S400.447,61.957,398.005,64.008z"/>
			<g>
				<g>
					<g>
						<line fill="none" stroke="#ED1C24" stroke-width="0.5689" x1="359.781" y1="157.063" x2="371.839" y2="157.063"/>
						<g>
							<polygon fill="#ED1C24" points="370.711,158.717 376.879,157.063 370.711,155.41 							"/>
						</g>
					</g>
				</g>
				<g>
					<g>
						<line fill="none" stroke="#ED1C24" stroke-width="0.5689" x1="359.719" y1="157.062" x2="359.719" y2="144.566"/>
						<g>
							<polygon fill="#ED1C24" points="361.372,145.694 359.719,139.526 358.065,145.694 							"/>
						</g>
					</g>
				</g>
				<g>
					<path stroke="#000000" stroke-width="0.5689" stroke-miterlimit="1" d="M359.719,153.226c-2.121,0-3.84,1.721-3.84,3.838h3.84
						V153.226z"/>
					
						<path fill="#FFFFFF" stroke="#010101" stroke-width="0.4267" stroke-linecap="round" stroke-linejoin="round" stroke-miterlimit="1" d="
						M355.879,157.063c0,2.125,1.719,3.842,3.84,3.842v-3.842H355.879z"/>
					<path stroke="#000000" stroke-width="0.5689" stroke-miterlimit="1" d="M359.719,160.905c2.123,0,3.841-1.717,3.841-3.842
						h-3.841V160.905z"/>
					
						<path fill="#FFFFFF" stroke="#010101" stroke-width="0.4267" stroke-linecap="round" stroke-linejoin="round" stroke-miterlimit="1" d="
						M359.719,157.063h3.841c0-2.117-1.718-3.838-3.841-3.838V157.063z"/>
				</g>
			</g>
		</g>
		<text transform="matrix(1 0 0 1 82.4619 27.6338)" font-size="12">Component Group 1 “Stems”  (Mandatory, Exclusive)</text>
		<rect x="75.618" y="172.021" fill="#CCDEF0" stroke="#000000" stroke-width="0.4731" width="344.188" height="20.543"/>
		<text transform="matrix(1 0 0 1 82.4619 185.0059)" font-size="12">Component Group 2 “Heads”  (Mandatory, Exclusive)</text>
		<g>
			
				<ellipse transform="matrix(-0.7265 -0.6872 0.6872 -0.7265 115.0861 517.3494)" fill="#F7941E" stroke="#000000" cx="160.509" cy="235.77" rx="20.2" ry="19.821"/>
			<path fill="#FFF200" stroke="#000000" d="M175.087,236.244c-1.696-1.604-3.884-2.352-6.024-2.265
				c-0.077,1.865-0.79,3.701-2.162,5.15c-1.486,1.569-3.464,2.393-5.484,2.475c-0.095,2.294,0.773,4.632,2.592,6.351
				c3.296,3.119,8.447,3.022,11.508-0.21C178.575,244.511,178.383,239.361,175.087,236.244z"/>
			<path stroke="#000000" d="M169.062,233.979c-2.02,0.082-3.998,0.905-5.483,2.475c-1.372,1.45-2.085,3.286-2.163,5.15
				c2.021-0.082,3.998-0.905,5.484-2.475C168.272,237.681,168.985,235.845,169.062,233.979z"/>
		</g>
		<g>
			<path fill="#F7941E" stroke="#000000" d="M311.622,214.949c11.284-11.927,30.287-12.274,42.443-0.777
				c12.157,11.502,12.863,30.493,1.58,42.422c-11.287,11.926-30.287,12.275-42.444,0.777
				C301.044,245.871,300.335,226.881,311.622,214.949z"/>
			<path fill="#FFF200" stroke="#000000" d="M355.5,236.483c-2.544-2.407-5.824-3.527-9.038-3.396
				c-0.115,2.797-1.183,5.552-3.242,7.726c-2.229,2.354-5.195,3.59-8.227,3.712c-0.143,3.44,1.16,6.948,3.888,9.525
				c4.943,4.678,12.672,4.535,17.262-0.314C360.732,248.884,360.445,241.16,355.5,236.483z"/>
			<path stroke="#000000" d="M346.462,233.087c-3.027,0.123-5.995,1.357-8.223,3.711c-2.059,2.175-3.129,4.929-3.246,7.727
				c3.031-0.122,5.998-1.358,8.227-3.712C345.279,238.639,346.347,235.884,346.462,233.087z"/>
		</g>
		<text transform="matrix(1 0 0 1 165.5991 248.4316)" fill="#ED1C24" font-size="18">+</text>
		<text transform="matrix(1 0 0 1 343.5996 252.9316)" fill="#ED1C24" font-size="18">+</text>
		<text transform="matrix(1 0 0 1 126.2158 58.5918)" fill="#ED1C24" font-size="12">x</text>
		<text transform="matrix(1 0 0 1 215.4224 58.5918)" fill="#ED1C24" font-size="12">x</text>
		<text transform="matrix(1 0 0 1 304.6289 58.5918)" fill="#ED1C24" font-size="12">x</text>
		<text transform="matrix(1 0 0 1 397.7949 58.5918)" fill="#ED1C24" font-size="12">x</text>
		<g>
			<g>
				<path fill="none" stroke="#58595B" stroke-width="0.75" stroke-miterlimit="10" stroke-dasharray="2,2" d="M370.66,250.745
					c21.312-2.369,39.091-40.521,50.322-87.989c9.801-41.416,5.809-79.539-8.314-96.468"/>
				<g>
					<polygon fill="#58595B" points="372.065,252.842 364.033,250.325 372.248,248.487 					"/>
				</g>
				<g>
					<polygon fill="#58595B" points="415.193,65.846 407.883,61.673 412.127,68.942 					"/>
				</g>
			</g>
		</g>
		<g>
			<g>
				<path fill="none" stroke="#58595B" stroke-width="0.75" stroke-miterlimit="10" stroke-dasharray="2,2" d="M185.707,246.871
					c32.946,6.977,47.006-33.797,56.787-86.653c7.746-41.852,1.875-79.733-13.068-95.943"/>
				<g>
					<polygon fill="#58595B" points="231.93,63.711 224.423,59.904 229.02,66.956 					"/>
				</g>
			</g>
		</g>
		<g>
			<g>
				<path fill="none" stroke="#58595B" stroke-width="0.75" stroke-miterlimit="10" stroke-dasharray="2,2" d="M188.09,247.519
					c39.995,3.429,88.493-26.845,110.898-68.715c21.895-40.908,26.45-83.742,14.333-110.331"/>
				<g>
					<polygon fill="#58595B" points="189.294,249.823 181.506,246.631 189.847,245.501 					"/>
				</g>
				<g>
					<polygon fill="#58595B" points="315.855,68.841 310.208,62.599 311.977,70.828 					"/>
				</g>
			</g>
		</g>
		<g>
			<g>
				<path fill="none" stroke="#58595B" stroke-width="0.75" stroke-miterlimit="10" stroke-dasharray="2,2" d="M137.592,65.487
					c14.361,13.958,28.185,32.966,39.337,55.389c28.314,56.927,51.828,132.735,8.418,125.995"/>
				<g>
					<polygon fill="#58595B" points="137.16,68.12 132.724,60.967 140.143,64.943 					"/>
				</g>
			</g>
		</g>
		<text transform="matrix(1 0 0 1 88.7783 52.373)" font-size="12">1</text>
		<text transform="matrix(1 0 0 1 177.6904 52.373)" font-size="12">2</text>
		<text transform="matrix(1 0 0 1 266.6025 52.373)" font-size="12">3</text>
		<text transform="matrix(1 0 0 1 355.5146 52.373)" font-size="12">4</text>
		<text transform="matrix(1 0 0 1 132.6714 212.6396)" font-size="12">5</text>
		<text transform="matrix(1 0 0 1 293.748 212.6387)" font-size="12">6</text>
	</g>
</g>
</svg>
