<?xml version="1.0" encoding="utf-8"?>

<!DOCTYPE svg PUBLIC "-//W3C//DTD SVG 1.1//EN" "http://www.w3.org/Graphics/SVG/1.1/DTD/svg11.dtd">
<svg version="1.1" id="Layer_1" xmlns="http://www.w3.org/2000/svg" xmlns:xlink="http://www.w3.org/1999/xlink" x="0px" y="0px"
	 width="502px" height="87px" viewBox="0 0 502 87" enable-background="new 0 0 502 87" xml:space="preserve">

<defs>
	<style type="text/css">
	text {
	  font-family: Helvetica, Verdana, ArialUnicodeMS, san-serif
	}
	</style>
</defs>

<g>
   <desc>
	PS 3.17 Part 17: Explanatory Information
   </desc>
</g>

<g>
	<rect x="1" y="1" fill="#F5EED6" width="500" height="85"/>
	<g>
		<text transform="matrix(1 0 0 1 125.4385 68.125)" font-size="10">20</text>
		<text transform="matrix(1 0 0 1 185.4385 68.125)" font-size="10">30</text>
		<text transform="matrix(1 0 0 1 245.4385 68.125)" font-size="10">40</text>
		<text transform="matrix(1 0 0 1 305.4385 68.125)" font-size="10">50</text>
		<text transform="matrix(1 0 0 1 365.4385 68.125)" font-size="10">60</text>
		<line fill="none" stroke="#003468" stroke-width="2" x1="131" y1="35.578" x2="371" y2="35.578"/>
		<line fill="none" stroke="#003468" x1="131" y1="55.578" x2="131" y2="15.578"/>
		<line fill="none" stroke="#003468" x1="143" y1="45.578" x2="143" y2="25.578"/>
		<line fill="none" stroke="#003468" x1="155" y1="45.578" x2="155" y2="25.578"/>
		<line fill="none" stroke="#003468" x1="167" y1="45.578" x2="167" y2="25.578"/>
		<line fill="none" stroke="#003468" x1="179" y1="45.578" x2="179" y2="25.578"/>
		<line fill="none" stroke="#003468" x1="203" y1="45.578" x2="203" y2="25.578"/>
		<line fill="none" stroke="#003468" x1="215" y1="45.578" x2="215" y2="25.578"/>
		<line fill="none" stroke="#003468" x1="227" y1="45.578" x2="227" y2="25.578"/>
		<line fill="none" stroke="#003468" x1="239" y1="45.578" x2="239" y2="25.578"/>
		<line fill="none" stroke="#003468" x1="263" y1="45.578" x2="263" y2="25.578"/>
		<line fill="none" stroke="#003468" x1="275" y1="45.578" x2="275" y2="25.578"/>
		<line fill="none" stroke="#003468" x1="287" y1="45.578" x2="287" y2="25.578"/>
		<line fill="none" stroke="#003468" x1="299" y1="45.578" x2="299" y2="25.578"/>
		<line fill="none" stroke="#003468" x1="323" y1="45.578" x2="323" y2="25.578"/>
		<line fill="none" stroke="#003468" x1="335" y1="45.578" x2="335" y2="25.578"/>
		<line fill="none" stroke="#003468" x1="347" y1="45.578" x2="347" y2="25.578"/>
		<line fill="none" stroke="#003468" x1="359" y1="45.578" x2="359" y2="25.578"/>
		<line fill="none" stroke="#003468" x1="191" y1="55.578" x2="191" y2="15.578"/>
		<line fill="none" stroke="#003468" x1="251" y1="55.578" x2="251" y2="15.578"/>
		<line fill="none" stroke="#003468" x1="311" y1="55.578" x2="311" y2="15.578"/>
		<line fill="none" stroke="#003468" x1="371" y1="55.578" x2="371" y2="15.578"/>
	</g>
</g>
</svg>
