<?xml version="1.0" encoding="utf-8"?>

<!DOCTYPE svg PUBLIC "-//W3C//DTD SVG 1.1//EN" "http://www.w3.org/Graphics/SVG/1.1/DTD/svg11.dtd">
<svg version="1.1" id="Layer_1" xmlns="http://www.w3.org/2000/svg" xmlns:xlink="http://www.w3.org/1999/xlink" x="0px" y="0px"
	 width="502px" height="402px" viewBox="0 0 502 402" enable-background="new 0 0 502 402" xml:space="preserve">

<defs>
	<style type="text/css">
	text {
	  font-family: Helvetica, Verdana, ArialUnicodeMS, san-serif
	}
	</style>
</defs>

<g>
   <desc>
	PS 3.17 Part 17: Explanatory Information
   </desc>
</g>

<g>
	<rect x="1" y="1" fill="#F5EED6" width="500" height="400"/>
	<g>
		<g>
			
				<polygon fill="#CCDEF0" stroke="#010101" stroke-width="0.75" stroke-linecap="round" stroke-linejoin="round" stroke-miterlimit="1" points="
				205.603,89.355 250.564,76.188 295.609,89.781 295.609,89.812 250.513,103.167 			"/>
		</g>
		<g>
			<text transform="matrix(1 0.0022 -0.0022 1 232.2334 92.1958)" font-size="7">CONTAINS</text>
		</g>
		<g>
			<g>
				
					<line fill="none" stroke="#005695" stroke-linecap="round" stroke-miterlimit="1" x1="250.323" y1="103.306" x2="250.323" y2="111.726"/>
				<g>
					<polygon fill="#005695" points="248.58,110.537 250.323,117.041 252.066,110.537 					"/>
				</g>
			</g>
		</g>
		
			<rect x="205.603" y="117.387" fill="#B2CEE7" stroke="#010101" stroke-width="0.75" stroke-linecap="round" stroke-linejoin="round" stroke-miterlimit="1" width="90.006" height="21.779"/>
		<g>
			<text transform="matrix(1 0 0 1 238.8418 126.0225)"><tspan x="0" y="0" font-size="7">Finding</tspan><tspan x="-11.464" y="8.4" font-size="7">(CONTAINER)</tspan></text>
		</g>
		<g>
			<g>
				
					<line fill="none" stroke="#005695" stroke-linecap="round" stroke-miterlimit="1" x1="399.779" y1="102.275" x2="399.779" y2="112.431"/>
				<g>
					<polygon fill="#005695" points="398.036,111.242 399.779,117.746 401.522,111.242 					"/>
				</g>
			</g>
		</g>
		<g>
			
				<polygon fill="#CCDEF0" stroke="#010101" stroke-width="0.75" stroke-linecap="round" stroke-linejoin="round" stroke-miterlimit="1" points="
				354.777,89.355 399.738,76.188 444.779,89.781 444.779,89.812 399.688,103.167 			"/>
		</g>
		<text transform="matrix(1 0 0 1 381.6992 91.604)" font-size="7">CONTAINS</text>
		
			<rect x="354.777" y="117.383" fill="#B2CEE7" stroke="#010101" stroke-width="0.75" stroke-linecap="round" stroke-linejoin="round" stroke-miterlimit="1" width="90.002" height="21.771"/>
		<g>
			<text transform="matrix(1 0 0 1 378.3867 126.0225)"><tspan x="0" y="0" font-size="7">Image Library</tspan><tspan x="-1.545" y="8.4" font-size="7">(CONTAINER)</tspan></text>
		</g>
		<g>
			<g>
				
					<line fill="none" stroke="#005695" stroke-linecap="round" stroke-miterlimit="1" x1="250.606" y1="48.562" x2="250.606" y2="70.5"/>
				<g>
					<polygon fill="#005695" points="248.863,69.311 250.606,75.815 252.35,69.311 					"/>
				</g>
			</g>
		</g>
		<g>
			
				<polygon fill="#CCDEF0" stroke="#010101" stroke-width="0.75" stroke-linecap="round" stroke-linejoin="round" stroke-miterlimit="1" points="
				57.221,89.355 102.182,76.188 147.227,89.781 147.227,89.812 102.131,103.167 			"/>
		</g>
		<g>
			<text transform="matrix(1 0.0022 -0.0022 1 83.8535 92.1958)" font-size="7">CONTAINS</text>
		</g>
		<g>
			<g>
				
					<line fill="none" stroke="#005695" stroke-linecap="round" stroke-miterlimit="1" x1="101.94" y1="103.306" x2="101.94" y2="111.726"/>
				<g>
					<polygon fill="#005695" points="100.197,110.537 101.94,117.041 103.684,110.537 					"/>
				</g>
			</g>
		</g>
		
			<rect x="57.221" y="117.387" fill="#B2CEE7" stroke="#010101" stroke-width="0.75" stroke-linecap="round" stroke-linejoin="round" stroke-miterlimit="1" width="90.006" height="21.779"/>
		<g>
			<text transform="matrix(1 0 0 1 66.9277 126.0225)"><tspan x="0" y="0" font-size="7">Patient Characteristics</tspan><tspan x="12.07" y="8.4" font-size="7">(CONTAINER)</tspan></text>
		</g>
		<g>
			<g>
				<polyline fill="none" stroke="#005695" stroke-linecap="round" stroke-miterlimit="1" points="250.604,60.802 102.224,60.802 
					102.224,70.5 				"/>
				<g>
					<polygon fill="#005695" points="100.48,69.311 102.224,75.815 103.967,69.311 					"/>
				</g>
			</g>
		</g>
		<g>
			<g>
				<polyline fill="none" stroke="#005695" stroke-linecap="round" stroke-miterlimit="1" points="251.364,60.802 399.984,60.802 
					399.984,70.5 				"/>
				<g>
					<polygon fill="#005695" points="398.241,69.311 399.984,75.815 401.728,69.311 					"/>
				</g>
			</g>
		</g>
		<g>
			<g>
				
					<line fill="none" stroke="#005695" stroke-linecap="round" stroke-miterlimit="1" x1="399.779" y1="193.054" x2="399.779" y2="202.857"/>
				<g>
					<polygon fill="#005695" points="398.036,201.668 399.779,208.173 401.522,201.668 					"/>
				</g>
			</g>
		</g>
		<g>
			
				<polygon fill="#CCDEF0" stroke="#010101" stroke-width="0.75" stroke-linecap="round" stroke-linejoin="round" stroke-miterlimit="1" points="
				354.777,180.135 399.738,166.967 444.779,180.561 444.779,180.592 399.688,193.946 			"/>
		</g>
		<text transform="matrix(1 0 0 1 381.6992 182.3857)" font-size="7">CONTAINS</text>
		
			<rect x="354.777" y="207.81" fill="#B2CEE7" stroke="#010101" stroke-width="0.75" stroke-linecap="round" stroke-linejoin="round" stroke-miterlimit="1" width="90.002" height="21.771"/>
		<g>
			<text transform="matrix(1 0 0 1 380.916 216.4443)"><tspan x="0" y="0" font-size="7">Image Entry</tspan><tspan x="5.258" y="8.399" font-size="7">(IMAGE)</tspan></text>
		</g>
		<g>
			
				<polygon fill="#CCDEF0" stroke="#010101" stroke-width="0.75" stroke-linecap="round" stroke-linejoin="round" stroke-miterlimit="1" points="
				57.221,179.778 102.182,166.61 147.227,180.204 147.227,180.235 102.131,193.59 			"/>
		</g>
		<g>
			<text transform="matrix(1 0.0022 -0.0022 1 83.8535 182.6177)" font-size="7">CONTAINS</text>
		</g>
		<g>
			<g>
				
					<line fill="none" stroke="#005695" stroke-linecap="round" stroke-miterlimit="1" x1="101.94" y1="193.729" x2="101.94" y2="202.148"/>
				<g>
					<polygon fill="#005695" points="100.197,200.959 101.94,207.464 103.684,200.959 					"/>
				</g>
			</g>
		</g>
		
			<rect x="57.221" y="207.81" fill="#B2CEE7" stroke="#010101" stroke-width="0.75" stroke-linecap="round" stroke-linejoin="round" stroke-miterlimit="1" width="90.006" height="21.779"/>
		<g>
			<text transform="matrix(1 0 0 1 81.3208 216.4443)"><tspan x="0" y="0" font-size="7">Observations</tspan><tspan x="-1.738" y="8.399" font-size="7">(NUM, CODE)</tspan></text>
		</g>
		<g>
			<g>
				
					<line fill="none" stroke="#005695" stroke-linecap="round" stroke-miterlimit="1" x1="102.224" y1="139.345" x2="102.224" y2="160.923"/>
				<g>
					<polygon fill="#005695" points="100.48,159.734 102.224,166.238 103.967,159.734 					"/>
				</g>
			</g>
		</g>
		<g>
			<g>
				
					<line fill="none" stroke="#005695" stroke-linecap="round" stroke-miterlimit="1" x1="399.984" y1="139.337" x2="399.984" y2="161.279"/>
				<g>
					<polygon fill="#005695" points="398.241,160.09 399.984,166.595 401.728,160.09 					"/>
				</g>
			</g>
		</g>
		
			<rect x="198.809" y="15.402" fill="#86B2D8" stroke="#010101" stroke-width="0.75" stroke-linecap="round" stroke-linejoin="round" stroke-miterlimit="1" width="103.025" height="32.326"/>
		<g>
			<text transform="matrix(1 0 0 1 238.7671 24.1919)"><tspan x="0" y="0" font-size="8">ROOT</tspan><tspan x="-15.344" y="9.6" font-size="8">Document Title</tspan><tspan x="-14.666" y="19.2" font-size="8">(CONTAINER)</tspan></text>
		</g>
		<g>
			
				<polygon fill="#CCDEF0" stroke="#010101" stroke-width="0.75" stroke-linecap="round" stroke-linejoin="round" stroke-miterlimit="1" points="
				156.636,179.886 201.597,166.718 246.642,180.312 246.642,180.343 201.546,193.698 			"/>
		</g>
		<g>
			<text transform="matrix(1 0.0022 -0.0022 1 194.1543 175.5503)"><tspan x="0" y="0" font-size="7">HAS</tspan><tspan x="-19.054" y="8.4" font-size="7">CONCEPT MOD</tspan></text>
		</g>
		<g>
			<g>
				
					<line fill="none" stroke="#005695" stroke-linecap="round" stroke-miterlimit="1" x1="201.355" y1="193.837" x2="201.355" y2="202.256"/>
				<g>
					<polygon fill="#005695" points="199.612,201.067 201.355,207.571 203.099,201.067 					"/>
				</g>
			</g>
		</g>
		
			<rect x="156.636" y="207.917" fill="#B2CEE7" stroke="#010101" stroke-width="0.75" stroke-linecap="round" stroke-linejoin="round" stroke-miterlimit="1" width="90.006" height="21.779"/>
		<g>
			<text transform="matrix(1 0 0 1 182.8716 216.5527)"><tspan x="0" y="0" font-size="7">Finding Site</tspan><tspan x="6.039" y="8.4" font-size="7">(CODE)</tspan></text>
		</g>
		<g>
			<g>
				
					<line fill="none" stroke="#005695" stroke-linecap="round" stroke-miterlimit="1" x1="300.777" y1="192.806" x2="300.777" y2="202.969"/>
				<g>
					<polygon fill="#005695" points="299.034,201.78 300.777,208.284 302.521,201.78 					"/>
				</g>
			</g>
		</g>
		<g>
			
				<polygon fill="#CCDEF0" stroke="#010101" stroke-width="0.75" stroke-linecap="round" stroke-linejoin="round" stroke-miterlimit="1" points="
				255.775,179.886 300.736,166.718 345.777,180.312 345.777,180.343 300.686,193.698 			"/>
		</g>
		<text transform="matrix(1 0 0 1 282.6924 182.1348)" font-size="7">CONTAINS</text>
		
			<rect x="255.775" y="207.921" fill="#B2CEE7" stroke="#010101" stroke-width="0.75" stroke-linecap="round" stroke-linejoin="round" stroke-miterlimit="1" width="90.002" height="21.771"/>
		<g>
			<text transform="matrix(1 0 0 1 268.6797 216.5527)"><tspan x="0" y="0" font-size="7">Measurement Group</tspan><tspan x="9.154" y="8.4" font-size="7">(CONTAINER)</tspan></text>
		</g>
		<g>
			<g>
				<polyline fill="none" stroke="#005695" stroke-linecap="round" stroke-miterlimit="1" points="250.163,151.332 201.639,151.332 
					201.639,161.03 				"/>
				<g>
					<polygon fill="#005695" points="199.896,159.841 201.639,166.346 203.382,159.841 					"/>
				</g>
			</g>
		</g>
		<g>
			
				<polygon fill="#CCDEF0" stroke="#010101" stroke-width="0.75" stroke-linecap="round" stroke-linejoin="round" stroke-miterlimit="1" points="
				255.775,336.787 300.736,323.619 345.781,337.213 345.781,337.244 300.686,350.6 			"/>
		</g>
		<g>
			<text transform="matrix(1 0.0022 -0.0022 1 293.2939 332.4521)"><tspan x="0" y="0" font-size="7">HAS</tspan><tspan x="-19.054" y="8.4" font-size="7">CONCEPT MOD</tspan></text>
		</g>
		<g>
			<g>
				
					<line fill="none" stroke="#005695" stroke-linecap="round" stroke-miterlimit="1" x1="300.494" y1="350.738" x2="300.494" y2="359.157"/>
				<g>
					<polygon fill="#005695" points="298.751,357.968 300.494,364.473 302.237,357.968 					"/>
				</g>
			</g>
		</g>
		
			<rect x="255.775" y="364.818" fill="#B2CEE7" stroke="#010101" stroke-width="0.75" stroke-linecap="round" stroke-linejoin="round" stroke-miterlimit="1" width="90.006" height="21.779"/>
		<g>
			<text transform="matrix(1 0 0 1 283.375 373.4551)"><tspan x="0" y="0" font-size="7">Target Site</tspan><tspan x="4.676" y="8.399" font-size="7">(CODE)</tspan></text>
		</g>
		<g>
			<g>
				
					<line fill="none" stroke="#005695" stroke-linecap="round" stroke-miterlimit="1" x1="300.777" y1="308.233" x2="300.777" y2="317.932"/>
				<g>
					<polygon fill="#005695" points="299.034,316.742 300.777,323.247 302.521,316.742 					"/>
				</g>
			</g>
		</g>
		<g>
			<g>
				<polyline fill="none" stroke="#005695" stroke-linecap="round" stroke-miterlimit="1" points="250.163,139.166 250.163,151.332 
					300.982,151.332 300.982,161.03 				"/>
				<g>
					<polygon fill="#005695" points="299.239,159.841 300.982,166.346 302.726,159.841 					"/>
				</g>
			</g>
		</g>
		<g>
			<g>
				
					<line fill="none" stroke="#005695" stroke-linecap="round" stroke-miterlimit="1" x1="300.777" y1="271.348" x2="300.777" y2="281.512"/>
				<g>
					<polygon fill="#005695" points="299.034,280.322 300.777,286.827 302.521,280.322 					"/>
				</g>
			</g>
		</g>
		<g>
			
				<polygon fill="#CCDEF0" stroke="#010101" stroke-width="0.75" stroke-linecap="round" stroke-linejoin="round" stroke-miterlimit="1" points="
				255.775,258.429 300.736,245.261 345.777,258.854 345.777,258.886 300.686,272.24 			"/>
		</g>
		<text transform="matrix(1 0 0 1 282.6924 260.6768)" font-size="7">CONTAINS</text>
		
			<rect x="255.775" y="286.464" fill="#B2CEE7" stroke="#010101" stroke-width="0.75" stroke-linecap="round" stroke-linejoin="round" stroke-miterlimit="1" width="90.002" height="21.771"/>
		<g>
			<text transform="matrix(1 0 0 1 280.1562 295.0957)"><tspan x="0" y="0" font-size="7">Observations</tspan><tspan x="10.319" y="8.399" font-size="7">(NUM)</tspan></text>
		</g>
		<g>
			<g>
				
					<line fill="none" stroke="#005695" stroke-linecap="round" stroke-miterlimit="1" x1="300.982" y1="229.875" x2="300.982" y2="239.573"/>
				<g>
					<polygon fill="#005695" points="299.239,238.384 300.982,244.889 302.726,238.384 					"/>
				</g>
			</g>
		</g>
	</g>
</g>
</svg>
