<?xml version="1.0" encoding="utf-8"?>

<!DOCTYPE svg PUBLIC "-//W3C//DTD SVG 1.1//EN" "http://www.w3.org/Graphics/SVG/1.1/DTD/svg11.dtd">
<svg version="1.1" id="Layer_1" xmlns="http://www.w3.org/2000/svg" xmlns:xlink="http://www.w3.org/1999/xlink" x="0px" y="0px"
	 width="677px" height="427px" viewBox="0 0 677 427" enable-background="new 0 0 677 427" xml:space="preserve">

<defs>
	<style type="text/css">
	text {
	  font-family: Helvetica, Verdana, ArialUnicodeMS, san-serif
	}
	</style>
</defs>

<g>
   <desc>
	PS 3.17 Part 17: Explanatory Information
   </desc>
</g>

<g>
	<rect x="1" y="1" fill="#F5EED6" width="675" height="425"/>
	<g>
		
			<line fill="none" stroke="#000000" stroke-width="0.5" stroke-linecap="round" stroke-miterlimit="1" x1="235.631" y1="42.499" x2="235.631" y2="410.501"/>
		
			<line fill="none" stroke="#000000" stroke-width="0.5" stroke-linecap="round" stroke-miterlimit="1" x1="145.631" y1="42.499" x2="145.631" y2="410.501"/>
		
			<line fill="none" stroke="#000000" stroke-width="0.5" stroke-linecap="round" stroke-miterlimit="1" x1="325.631" y1="42.499" x2="325.631" y2="410.501"/>
		
			<line fill="none" stroke="#000000" stroke-width="0.5" stroke-linecap="round" stroke-miterlimit="1" x1="55.574" y1="42.499" x2="55.574" y2="410.501"/>
		
			<line fill="none" stroke="#000000" stroke-width="0.5" stroke-linecap="round" stroke-miterlimit="1" x1="505.687" y1="42.499" x2="505.687" y2="410.501"/>
		
			<line fill="none" stroke="#000000" stroke-width="0.5" stroke-linecap="round" stroke-miterlimit="1" x1="415.687" y1="42.499" x2="415.687" y2="410.501"/>
		
			<line fill="none" stroke="#000000" stroke-width="0.5" stroke-linecap="round" stroke-miterlimit="1" x1="595.687" y1="42.499" x2="595.687" y2="410.501"/>
		<g>
			
				<rect x="15.63" y="16.499" fill="#CCDEF0" stroke="#010101" stroke-width="0.75" stroke-linecap="round" stroke-linejoin="round" stroke-miterlimit="1" width="80" height="26"/>
			<text transform="matrix(1 0 0 1 31.874 26.6045)"><tspan x="0" y="0" font-size="9">Workstation</tspan><tspan x="7.001" y="10.8" font-size="9">Provider</tspan></text>
		</g>
		<g>
			
				<rect x="105.63" y="16.499" fill="#CCDEF0" stroke="#010101" stroke-width="0.75" stroke-linecap="round" stroke-linejoin="round" stroke-miterlimit="1" width="80" height="26"/>
			<text transform="matrix(1 0 0 1 119.5664 32.0044)" font-size="9">RRD Creator</text>
		</g>
		<g>
			
				<rect x="195.63" y="16.499" fill="#CCDEF0" stroke="#010101" stroke-width="0.75" stroke-linecap="round" stroke-linejoin="round" stroke-miterlimit="1" width="80" height="26"/>
			<text transform="matrix(1 0 0 1 221.6206 32.0044)" font-size="9">Patient</text>
		</g>
		<g>
			
				<rect x="285.63" y="16.499" fill="#CCDEF0" stroke="#010101" stroke-width="0.75" stroke-linecap="round" stroke-linejoin="round" stroke-miterlimit="1" width="80.002" height="26"/>
			<text transform="matrix(1 0 0 1 300.625 32.0044)" font-size="9">NM Modality</text>
		</g>
		<g>
			
				<rect x="375.632" y="16.499" fill="#CCDEF0" stroke="#010101" stroke-width="0.75" stroke-linecap="round" stroke-linejoin="round" stroke-miterlimit="1" width="80" height="26"/>
			<text transform="matrix(1 0 0 1 377.8682 32.0044)" font-size="9">Image Mgr\Archive</text>
		</g>
		<g>
			
				<rect x="465.632" y="16.499" fill="#CCDEF0" stroke="#010101" stroke-width="0.75" stroke-linecap="round" stroke-linejoin="round" stroke-miterlimit="1" width="80" height="26"/>
			<text transform="matrix(1 0 0 1 471.3643 26.6045)"><tspan x="0" y="0" font-size="9">Dose Information</tspan><tspan x="16.759" y="10.8" font-size="9">Reporter</tspan></text>
		</g>
		<g>
			
				<rect x="555.632" y="16.499" fill="#CCDEF0" stroke="#010101" stroke-width="0.75" stroke-linecap="round" stroke-linejoin="round" stroke-miterlimit="1" width="80" height="26"/>
			<text transform="matrix(1 0 0 1 567.0596 32.0044)" font-size="9">Dose Register</text>
		</g>
		
			<rect x="142.01" y="82.909" fill="#CCDEF0" stroke="#010101" stroke-width="0.75" stroke-linecap="round" stroke-linejoin="round" stroke-miterlimit="1" width="9" height="143.808"/>
		
			<rect x="51.074" y="82.909" fill="#CCDEF0" stroke="#010101" stroke-width="0.75" stroke-linecap="round" stroke-linejoin="round" stroke-miterlimit="1" width="9" height="156.186"/>
		
			<rect x="321.131" y="139.003" fill="#CCDEF0" stroke="#010101" stroke-width="0.75" stroke-linecap="round" stroke-linejoin="round" stroke-miterlimit="1" width="9" height="166.553"/>
		
			<rect x="231.338" y="139.003" fill="#CCDEF0" stroke="#010101" stroke-width="0.75" stroke-linecap="round" stroke-linejoin="round" stroke-miterlimit="1" width="9" height="144.213"/>
		
			<rect x="501.187" y="296.257" fill="#CCDEF0" stroke="#010101" stroke-width="0.75" stroke-linecap="round" stroke-linejoin="round" stroke-miterlimit="1" width="9" height="84.658"/>
		
			<rect x="411.602" y="211.646" fill="#CCDEF0" stroke="#010101" stroke-width="0.75" stroke-linecap="round" stroke-linejoin="round" stroke-miterlimit="1" width="9" height="20.351"/>
		
			<rect x="411.187" y="246.217" fill="#CCDEF0" stroke="#010101" stroke-width="0.75" stroke-linecap="round" stroke-linejoin="round" stroke-miterlimit="1" width="9" height="59.339"/>
		
			<rect x="411.187" y="311.011" fill="#CCDEF0" stroke="#010101" stroke-width="0.75" stroke-linecap="round" stroke-linejoin="round" stroke-miterlimit="1" width="9" height="62.854"/>
		
			<rect x="591.865" y="354.654" fill="#CCDEF0" stroke="#010101" stroke-width="0.75" stroke-linecap="round" stroke-linejoin="round" stroke-miterlimit="1" width="9" height="38.424"/>
		<g>
			<g>
				
					<line fill="none" stroke="#005695" stroke-linecap="round" stroke-miterlimit="1" x1="65.393" y1="93.036" x2="142.01" y2="93.036"/>
				<g>
					<polygon fill="#005695" points="66.582,94.779 60.077,93.036 66.582,91.293 					"/>
				</g>
			</g>
		</g>
		<g>
			<g>
				
					<line fill="none" stroke="#005695" stroke-linecap="round" stroke-miterlimit="1" x1="60.077" y1="111.336" x2="136.694" y2="111.336"/>
				<g>
					<polygon fill="#005695" points="135.505,113.079 142.01,111.336 135.505,109.593 					"/>
				</g>
			</g>
		</g>
		<g>
			<g>
				
					<line fill="none" stroke="#005695" stroke-linecap="round" stroke-miterlimit="1" x1="65.393" y1="147.637" x2="321.131" y2="147.637"/>
				<g>
					<polygon fill="#005695" points="66.582,149.38 60.077,147.637 66.582,145.894 					"/>
				</g>
			</g>
		</g>
		<g>
			<g>
				
					<line fill="none" stroke="#005695" stroke-linecap="round" stroke-miterlimit="1" x1="60.077" y1="165.936" x2="315.815" y2="165.936"/>
				<g>
					<polygon fill="#005695" points="314.626,167.679 321.131,165.936 314.626,164.193 					"/>
				</g>
			</g>
		</g>
		<g>
			<g>
				
					<line fill="none" stroke="#005695" stroke-linecap="round" stroke-miterlimit="1" x1="151.01" y1="184.236" x2="226.022" y2="184.236"/>
				<g>
					<polygon fill="#005695" points="224.833,185.979 231.338,184.236 224.833,182.493 					"/>
				</g>
			</g>
		</g>
		<g>
			<g>
				
					<line fill="none" stroke="#005695" stroke-linecap="round" stroke-miterlimit="1" x1="245.653" y1="184.236" x2="320.666" y2="184.236"/>
				<g>
					<polygon fill="#005695" points="246.842,185.979 240.338,184.236 246.842,182.493 					"/>
				</g>
			</g>
		</g>
		<g>
			<g>
				
					<line fill="none" stroke="#005695" stroke-linecap="round" stroke-miterlimit="1" x1="151.01" y1="213.697" x2="406.286" y2="213.697"/>
				<g>
					<polygon fill="#005695" points="405.097,215.44 411.602,213.697 405.097,211.954 					"/>
				</g>
			</g>
		</g>
		<g>
			<g>
				
					<line fill="none" stroke="#005695" stroke-linecap="round" stroke-miterlimit="1" x1="330.914" y1="259.658" x2="405.511" y2="259.658"/>
				<g>
					<polygon fill="#005695" points="404.321,261.401 410.826,259.658 404.321,257.915 					"/>
				</g>
			</g>
		</g>
		<g>
			<g>
				
					<line fill="none" stroke="#005695" stroke-linecap="round" stroke-miterlimit="1" x1="335.869" y1="277.173" x2="410.881" y2="277.173"/>
				<g>
					<polygon fill="#005695" points="337.058,278.917 330.554,277.173 337.058,275.43 					"/>
				</g>
			</g>
		</g>
		<g>
			<g>
				
					<line fill="none" stroke="#005695" stroke-linecap="round" stroke-miterlimit="1" x1="330.554" y1="296.257" x2="405.565" y2="296.257"/>
				<g>
					<polygon fill="#005695" points="404.376,298 410.881,296.257 404.376,294.514 					"/>
				</g>
			</g>
		</g>
		<g>
			<g>
				
					<line fill="none" stroke="#005695" stroke-linecap="round" stroke-miterlimit="1" x1="425.469" y1="326.015" x2="501.153" y2="326.015"/>
				<g>
					<polygon fill="#005695" points="426.658,327.758 420.153,326.015 426.658,324.272 					"/>
				</g>
			</g>
		</g>
		<g>
			<g>
				
					<line fill="none" stroke="#005695" stroke-linecap="round" stroke-miterlimit="1" x1="419.903" y1="344.314" x2="495.838" y2="344.314"/>
				<g>
					<polygon fill="#005695" points="494.648,346.057 501.153,344.314 494.648,342.571 					"/>
				</g>
			</g>
		</g>
		<g>
			<g>
				
					<line fill="none" stroke="#005695" stroke-linecap="round" stroke-miterlimit="1" x1="510.816" y1="362.615" x2="585.829" y2="362.615"/>
				<g>
					<polygon fill="#005695" points="584.64,364.358 591.145,362.615 584.64,360.872 					"/>
				</g>
			</g>
		</g>
		<g>
			<g>
				<polyline fill="none" stroke="#005695" stroke-linecap="round" stroke-miterlimit="1" points="151.01,111.937 160.745,111.937 
					160.745,129.937 156.325,129.937 				"/>
				<g>
					<polygon fill="#005695" points="157.514,128.194 151.01,129.937 157.514,131.68 					"/>
				</g>
			</g>
		</g>
		<g>
			<g>
				<polyline fill="none" stroke="#005695" stroke-linecap="round" stroke-miterlimit="1" points="151.01,194.83 160.745,194.83 
					160.745,209.1 156.325,209.1 				"/>
				<g>
					<polygon fill="#005695" points="157.514,207.356 151.01,209.1 157.514,210.843 					"/>
				</g>
			</g>
		</g>
		<g>
			<g>
				<polyline fill="none" stroke="#005695" stroke-linecap="round" stroke-miterlimit="1" points="330.131,231.997 339.866,231.997 
					339.866,247.967 335.446,247.967 				"/>
				<g>
					<polygon fill="#005695" points="336.635,246.224 330.131,247.967 336.635,249.71 					"/>
				</g>
			</g>
		</g>
		<g>
			<g>
				<polyline fill="none" stroke="#005695" stroke-linecap="round" stroke-miterlimit="1" points="510.096,307.779 519.831,307.779 
					519.831,325.779 515.411,325.779 				"/>
				<g>
					<polygon fill="#005695" points="516.601,324.036 510.096,325.779 516.601,327.522 					"/>
				</g>
			</g>
		</g>
		<g>
			<g>
				<polyline fill="none" stroke="#005695" stroke-linecap="round" stroke-miterlimit="1" points="600.865,362.917 610.601,362.917 
					610.601,380.917 606.181,380.917 				"/>
				<g>
					<polygon fill="#005695" points="607.37,379.174 600.865,380.917 607.37,382.661 					"/>
				</g>
			</g>
		</g>
		<rect x="67.164" y="84.942" fill="none" width="594.205" height="305.02"/>
		<text transform="matrix(1.0017 0 0 1 67.1641 89.9526)"><tspan x="0" y="0" font-size="7">Worklist Query</tspan><tspan x="0" y="18.4" font-size="7">Procedure Steps</tspan><tspan x="52.141" y="18.4" font-size="7" letter-spacing="34.942">	</tspan><tspan x="89.359" y="18.4" font-size="7">Dose Assayed</tspan><tspan x="0" y="55.2" font-size="7" letter-spacing="86.856">	</tspan><tspan x="89.359" y="55.2" font-size="7">Worklist Query</tspan><tspan x="0" y="73.6" font-size="7" letter-spacing="86.856">	</tspan><tspan x="89.359" y="73.6" font-size="7">Procedure Steps</tspan><tspan x="0" y="92" font-size="7" letter-spacing="86.856">	</tspan><tspan x="89.359" y="92" font-size="7">Product Administered</tspan><tspan x="156.28" y="92" font-size="7" letter-spacing="20.965">	</tspan><tspan x="179.702" y="92" font-size="7">Acq. Start</tspan><tspan x="0" y="103.4" font-size="7" letter-spacing="86.856">	</tspan><tspan x="89.359" y="103.4" font-size="7">Does Assayed</tspan><tspan x="0" y="121.8" font-size="7" letter-spacing="86.856">	</tspan><tspan x="89.359" y="121.8" font-size="7" letter-spacing="87.854">	</tspan><tspan x="179.702" y="121.8" font-size="7" letter-spacing="87.854">	</tspan><tspan x="269.553" y="121.8" font-size="7">Store RRD SR</tspan><tspan x="0" y="140.2" font-size="7" letter-spacing="86.856">	</tspan><tspan x="89.359" y="140.2" font-size="7" letter-spacing="87.854">	</tspan><tspan x="179.702" y="140.2" font-size="7" letter-spacing="87.854">	</tspan><tspan x="269.553" y="140.2" font-size="7">Process images</tspan><tspan x="0" y="166.6" font-size="7" letter-spacing="86.856">	</tspan><tspan x="89.359" y="166.6" font-size="7" letter-spacing="87.854">	</tspan><tspan x="179.702" y="166.6" font-size="7" letter-spacing="87.854">	</tspan><tspan x="269.553" y="166.6" font-size="7">Query RRD SR</tspan><tspan x="0" y="185" font-size="7" letter-spacing="86.856">	</tspan><tspan x="89.359" y="185" font-size="7" letter-spacing="87.854">	</tspan><tspan x="179.702" y="185" font-size="7" letter-spacing="87.854">	</tspan><tspan x="269.553" y="185" font-size="7">Retrieve RRD SR</tspan><tspan x="0" y="203.4" font-size="7" letter-spacing="86.856">	</tspan><tspan x="89.359" y="203.4" font-size="7" letter-spacing="87.854">	</tspan><tspan x="179.702" y="203.4" font-size="7" letter-spacing="87.854">	</tspan><tspan x="269.553" y="203.4" font-size="7">Store Images</tspan><tspan x="311.184" y="203.4" font-size="7" letter-spacing="45.924">	</tspan><tspan x="359.378" y="203.4" font-size="7" letter-spacing="87.854">	</tspan><tspan x="449.839" y="203.4" font-size="7" letter-spacing="87.854">	</tspan><tspan x="0" y="215.8" font-size="7" letter-spacing="86.856">	</tspan><tspan x="89.359" y="215.8" font-size="7" letter-spacing="87.854">	</tspan><tspan x="179.702" y="215.8" font-size="7" letter-spacing="87.854">	</tspan><tspan x="269.553" y="215.8" font-size="7" letter-spacing="87.854">	</tspan><tspan x="359.377" y="215.8" font-size="7" letter-spacing="87.854">	</tspan><tspan x="449.839" y="215.8" font-size="7">Start Report Task</tspan><tspan x="0" y="234.2" font-size="7" letter-spacing="86.856">	</tspan><tspan x="89.359" y="234.2" font-size="7" letter-spacing="87.854">	</tspan><tspan x="179.702" y="234.2" font-size="7" letter-spacing="87.854">	</tspan><tspan x="269.553" y="234.2" font-size="7" letter-spacing="87.854">	</tspan><tspan x="359.377" y="234.2" font-size="7">Query Dose Reports</tspan><tspan x="0" y="252.6" font-size="7" letter-spacing="86.856">	</tspan><tspan x="89.359" y="252.6" font-size="7" letter-spacing="87.854">	</tspan><tspan x="179.702" y="252.6" font-size="7" letter-spacing="87.854">	</tspan><tspan x="269.553" y="252.6" font-size="7" letter-spacing="87.854">	</tspan><tspan x="359.377" y="252.6" font-size="7">Retrieve Reports</tspan><tspan x="0" y="271" font-size="7" letter-spacing="86.856">	</tspan><tspan x="89.359" y="271" font-size="7" letter-spacing="87.854">	</tspan><tspan x="179.702" y="271" font-size="7" letter-spacing="87.854">	</tspan><tspan x="269.553" y="271" font-size="7" letter-spacing="87.854">	</tspan><tspan x="359.377" y="271" font-size="7" letter-spacing="87.854">	</tspan><tspan x="449.839" y="271" font-size="7">Submit Reports</tspan><tspan x="498.08" y="271" font-size="7" letter-spacing="38.935">	</tspan><tspan x="539.937" y="271" font-size="7">Perform Analysis</tspan></text>
	</g>
</g>
</svg>
