<?xml version="1.0" encoding="utf-8"?>

<!DOCTYPE svg PUBLIC "-//W3C//DTD SVG 1.1//EN" "http://www.w3.org/Graphics/SVG/1.1/DTD/svg11.dtd">
<svg version="1.1" id="Layer_1" xmlns="http://www.w3.org/2000/svg" xmlns:xlink="http://www.w3.org/1999/xlink" x="0px" y="0px"
	 width="642px" height="617px" viewBox="0 0 642 617" enable-background="new 0 0 642 617" xml:space="preserve">

<defs>
	<style type="text/css">
	text {
	  font-family: Helvetica, Verdana, ArialUnicodeMS, san-serif
	}
	</style>
</defs>

<g>
   <desc>
	PS 3.17 Part 17: Explanatory Information
   </desc>
</g>

<g>
	<rect x="1" y="1" fill="#F5EED6" width="640" height="615"/>
	<g>
		
			<line fill="none" stroke="#000000" stroke-width="0.5" stroke-linecap="round" stroke-miterlimit="1" x1="202.101" y1="51.926" x2="202.101" y2="600.235"/>
		
			<line fill="none" stroke="#000000" stroke-width="0.5" stroke-linecap="round" stroke-miterlimit="1" x1="88.233" y1="51.926" x2="88.233" y2="600.235"/>
		
			<line fill="none" stroke="#000000" stroke-width="0.5" stroke-linecap="round" stroke-miterlimit="1" x1="363.126" y1="51.926" x2="363.126" y2="600.235"/>
		
			<line fill="none" stroke="#000000" stroke-width="0.5" stroke-linecap="round" stroke-miterlimit="1" x1="35.205" y1="51.926" x2="35.205" y2="600.235"/>
		
			<rect x="69.233" y="16.765" fill="#CCDEF0" stroke="#010101" stroke-width="0.75" stroke-linecap="round" stroke-linejoin="round" stroke-miterlimit="1" width="38" height="35"/>
		
			<rect x="16.205" y="16.765" fill="#CCDEF0" stroke="#010101" stroke-width="0.75" stroke-linecap="round" stroke-linejoin="round" stroke-miterlimit="1" width="38" height="35"/>
		<text transform="matrix(1 0 0 1 25.6445 36.7695)" font-size="9">User</text>
		<text transform="matrix(1 0 0 1 73.2334 36.7695)" font-size="9">Archive</text>
		
			<rect x="329.126" y="16.765" fill="#CCDEF0" stroke="#010101" stroke-width="0.75" stroke-linecap="round" stroke-linejoin="round" stroke-miterlimit="1" width="68" height="35"/>
		
			<rect x="168.102" y="16.765" fill="#CCDEF0" stroke="#010101" stroke-width="0.75" stroke-linecap="round" stroke-linejoin="round" stroke-miterlimit="1" width="68" height="35"/>
		<text transform="matrix(1 0 0 1 342.627 25.9697)"><tspan x="0" y="0" font-size="9">Treatment</tspan><tspan x="4.254" y="10.8" font-size="9">Delivery</tspan><tspan x="-7.743" y="21.6" font-size="9">System (TDS)</tspan></text>
		<text transform="matrix(1 0 0 1 181.5938 25.9697)"><tspan x="0" y="0" font-size="9">Treatment</tspan><tspan x="-5.759" y="10.8" font-size="9">Management</tspan><tspan x="-9.492" y="21.6" font-size="9">System (TMS) </tspan></text>
		
			<rect x="358.633" y="96.528" fill="#CCDEF0" stroke="#010101" stroke-width="0.75" stroke-linecap="round" stroke-linejoin="round" stroke-miterlimit="1" width="9" height="57.834"/>
		
			<rect x="358.633" y="161.028" fill="#CCDEF0" stroke="#010101" stroke-width="0.75" stroke-linecap="round" stroke-linejoin="round" stroke-miterlimit="1" width="9" height="191"/>
		
			<rect x="197.602" y="113.615" fill="#CCDEF0" stroke="#010101" stroke-width="0.75" stroke-linecap="round" stroke-linejoin="round" stroke-miterlimit="1" width="9" height="29.08"/>
		
			<rect x="197.602" y="177.282" fill="#CCDEF0" stroke="#010101" stroke-width="0.75" stroke-linecap="round" stroke-linejoin="round" stroke-miterlimit="1" width="9" height="29.08"/>
		
			<rect x="197.602" y="267.282" fill="#CCDEF0" stroke="#010101" stroke-width="0.75" stroke-linecap="round" stroke-linejoin="round" stroke-miterlimit="1" width="9" height="24.246"/>
		
			<rect x="197.602" y="299.968" fill="#CCDEF0" stroke="#010101" stroke-width="0.75" stroke-linecap="round" stroke-linejoin="round" stroke-miterlimit="1" width="9" height="44.102"/>
		
			<rect x="197.602" y="383.792" fill="#CCDEF0" stroke="#010101" stroke-width="0.75" stroke-linecap="round" stroke-linejoin="round" stroke-miterlimit="1" width="9" height="176.777"/>
		
			<rect x="30.705" y="92.336" fill="#CCDEF0" stroke="#010101" stroke-width="0.75" stroke-linecap="round" stroke-linejoin="round" stroke-miterlimit="1" width="9" height="78.692"/>
		
			<rect x="83.734" y="223.683" fill="#CCDEF0" stroke="#010101" stroke-width="0.75" stroke-linecap="round" stroke-linejoin="round" stroke-miterlimit="1" width="9" height="39.346"/>
		
			<rect x="83.734" y="507.45" fill="#CCDEF0" stroke="#010101" stroke-width="0.75" stroke-linecap="round" stroke-linejoin="round" stroke-miterlimit="1" width="9" height="19.67"/>
		
			<rect x="30.708" y="365.528" fill="#CCDEF0" stroke="#010101" stroke-width="0.75" stroke-linecap="round" stroke-linejoin="round" stroke-miterlimit="1" width="9" height="212"/>
		
			<rect x="358.633" y="369.132" fill="#CCDEF0" stroke="#010101" stroke-width="0.75" stroke-linecap="round" stroke-linejoin="round" stroke-miterlimit="1" width="9" height="206"/>
		<g>
			<g>
				
					<line fill="none" stroke="#005695" stroke-linecap="round" stroke-miterlimit="1" x1="39.708" y1="103.032" x2="352.597" y2="103.032"/>
				<g>
					<polygon fill="#005695" points="351.407,104.775 357.912,103.032 351.407,101.289 					"/>
				</g>
			</g>
		</g>
		<g>
			<g>
				
					<line fill="none" stroke="#005695" stroke-linecap="round" stroke-miterlimit="1" x1="39.708" y1="374.778" x2="352.597" y2="374.778"/>
				<g>
					<polygon fill="#005695" points="351.407,376.521 357.912,374.778 351.407,373.035 					"/>
				</g>
			</g>
		</g>
		<g>
			<g>
				
					<line fill="none" stroke="#005695" stroke-linecap="round" stroke-miterlimit="1" x1="39.708" y1="167.695" x2="352.197" y2="167.695"/>
				<g>
					<polygon fill="#005695" points="351.008,169.438 357.513,167.695 351.008,165.952 					"/>
				</g>
			</g>
		</g>
		<g>
			<g>
				
					<line fill="none" stroke="#005695" stroke-linecap="round" stroke-miterlimit="1" x1="99.317" y1="233.449" x2="357.513" y2="233.449"/>
				<g>
					<polygon fill="#005695" points="100.506,235.192 94.002,233.449 100.506,231.706 					"/>
				</g>
			</g>
		</g>
		<g>
			<g>
				
					<line fill="none" stroke="#005695" stroke-linecap="round" stroke-miterlimit="1" x1="94.002" y1="258.528" x2="352.197" y2="258.528"/>
				<g>
					<polygon fill="#005695" points="351.008,260.271 357.513,258.528 351.008,256.785 					"/>
				</g>
			</g>
		</g>
		<g>
			<g>
				
					<line fill="none" stroke="#005695" stroke-linecap="round" stroke-miterlimit="1" x1="211.322" y1="121.695" x2="357.488" y2="121.695"/>
				<g>
					<polygon fill="#005695" points="212.511,123.438 206.007,121.695 212.511,119.952 					"/>
				</g>
			</g>
		</g>
		<g>
			<g>
				
					<line fill="none" stroke="#005695" stroke-linecap="round" stroke-miterlimit="1" x1="206.007" y1="138.878" x2="352.173" y2="138.878"/>
				<g>
					<polygon fill="#005695" points="350.983,140.621 357.488,138.878 350.983,137.135 					"/>
				</g>
			</g>
		</g>
		<g>
			<g>
				
					<line fill="none" stroke="#005695" stroke-linecap="round" stroke-miterlimit="1" x1="211.966" y1="185.562" x2="357.513" y2="185.562"/>
				<g>
					<polygon fill="#005695" points="213.155,187.305 206.651,185.562 213.155,183.818 					"/>
				</g>
			</g>
		</g>
		<g>
			<g>
				
					<line fill="none" stroke="#005695" stroke-linecap="round" stroke-miterlimit="1" x1="211.966" y1="284.248" x2="357.513" y2="284.248"/>
				<g>
					<polygon fill="#005695" points="213.155,285.991 206.651,284.248 213.155,282.505 					"/>
				</g>
			</g>
		</g>
		<g>
			<g>
				
					<line fill="none" stroke="#005695" stroke-linecap="round" stroke-miterlimit="1" x1="211.966" y1="393.528" x2="357.513" y2="393.528"/>
				<g>
					<polygon fill="#005695" points="213.155,395.271 206.651,393.528 213.155,391.785 					"/>
				</g>
			</g>
		</g>
		<g>
			<g>
				
					<line fill="none" stroke="#005695" stroke-linecap="round" stroke-miterlimit="1" x1="99.317" y1="517.285" x2="357.513" y2="517.285"/>
				<g>
					<polygon fill="#005695" points="100.506,519.028 94.002,517.285 100.506,515.542 					"/>
				</g>
			</g>
		</g>
		<g>
			<g>
				
					<line fill="none" stroke="#005695" stroke-linecap="round" stroke-miterlimit="1" x1="45.023" y1="571.528" x2="357.513" y2="571.528"/>
				<g>
					<polygon fill="#005695" points="46.212,573.271 39.708,571.528 46.212,569.785 					"/>
				</g>
			</g>
		</g>
		<g>
			<g>
				
					<line fill="none" stroke="#005695" stroke-linecap="round" stroke-miterlimit="1" x1="211.966" y1="446.028" x2="357.513" y2="446.028"/>
				<g>
					<polygon fill="#005695" points="213.155,447.771 206.651,446.028 213.155,444.285 					"/>
				</g>
			</g>
		</g>
		<g>
			<g>
				
					<line fill="none" stroke="#005695" stroke-linecap="round" stroke-miterlimit="1" x1="211.966" y1="499.069" x2="357.513" y2="499.069"/>
				<g>
					<polygon fill="#005695" points="213.155,500.812 206.651,499.069 213.155,497.326 					"/>
				</g>
			</g>
		</g>
		<g>
			<g>
				
					<line fill="none" stroke="#005695" stroke-linecap="round" stroke-miterlimit="1" x1="211.966" y1="535.028" x2="357.513" y2="535.028"/>
				<g>
					<polygon fill="#005695" points="213.155,536.771 206.651,535.028 213.155,533.285 					"/>
				</g>
			</g>
		</g>
		<g>
			<g>
				
					<line fill="none" stroke="#005695" stroke-linecap="round" stroke-miterlimit="1" x1="211.966" y1="553.29" x2="357.513" y2="553.29"/>
				<g>
					<polygon fill="#005695" points="213.155,555.033 206.651,553.29 213.155,551.547 					"/>
				</g>
			</g>
		</g>
		<g>
			<g>
				
					<line fill="none" stroke="#005695" stroke-linecap="round" stroke-miterlimit="1" x1="211.966" y1="305.976" x2="357.513" y2="305.976"/>
				<g>
					<polygon fill="#005695" points="213.155,307.719 206.651,305.976 213.155,304.232 					"/>
				</g>
			</g>
		</g>
		<g>
			<g>
				
					<line fill="none" stroke="#005695" stroke-linecap="round" stroke-miterlimit="1" x1="206.651" y1="202.744" x2="352.197" y2="202.744"/>
				<g>
					<polygon fill="#005695" points="351.008,204.487 357.513,202.744 351.008,201.001 					"/>
				</g>
			</g>
		</g>
		<g>
			<g>
				
					<line fill="none" stroke="#005695" stroke-linecap="round" stroke-miterlimit="1" x1="206.651" y1="339.209" x2="352.197" y2="339.209"/>
				<g>
					<polygon fill="#005695" points="351.008,340.952 357.513,339.209 351.008,337.466 					"/>
				</g>
			</g>
		</g>
		<g>
			<g>
				<polyline fill="none" stroke="#005695" stroke-linecap="round" stroke-miterlimit="1" points="367.633,138.878 377.368,138.878 
					377.368,151.054 372.948,151.054 				"/>
				<g>
					<polygon fill="#005695" points="374.138,149.311 367.633,151.054 374.138,152.797 					"/>
				</g>
			</g>
		</g>
		<g>
			<g>
				<polyline fill="none" stroke="#005695" stroke-linecap="round" stroke-miterlimit="1" points="367.633,399.389 377.368,399.389 
					377.368,411.564 372.948,411.564 				"/>
				<g>
					<polygon fill="#005695" points="374.138,409.821 367.633,411.564 374.138,413.308 					"/>
				</g>
			</g>
		</g>
		<g>
			<g>
				<polyline fill="none" stroke="#005695" stroke-linecap="round" stroke-miterlimit="1" points="367.633,417.387 377.368,417.387 
					377.368,429.562 372.948,429.562 				"/>
				<g>
					<polygon fill="#005695" points="374.138,427.819 367.633,429.562 374.138,431.306 					"/>
				</g>
			</g>
		</g>
		<g>
			<g>
				<polyline fill="none" stroke="#005695" stroke-linecap="round" stroke-miterlimit="1" points="367.633,453.026 377.368,453.026 
					377.368,465.202 372.948,465.202 				"/>
				<g>
					<polygon fill="#005695" points="374.138,463.459 367.633,465.202 374.138,466.945 					"/>
				</g>
			</g>
		</g>
		<g>
			<g>
				<polyline fill="none" stroke="#005695" stroke-linecap="round" stroke-miterlimit="1" points="367.633,471.024 377.368,471.024 
					377.368,483.2 372.948,483.2 				"/>
				<g>
					<polygon fill="#005695" points="374.138,481.457 367.633,483.2 374.138,484.943 					"/>
				</g>
			</g>
		</g>
		<g>
			<g>
				<polyline fill="none" stroke="#005695" stroke-linecap="round" stroke-miterlimit="1" points="367.633,202.744 377.368,202.744 
					377.368,234.528 372.948,234.528 				"/>
				<g>
					<polygon fill="#005695" points="374.138,232.785 367.633,234.528 374.138,236.271 					"/>
				</g>
			</g>
		</g>
		<rect x="46.795" y="94.369" fill="none" width="579" height="480.997"/>
		<text transform="matrix(1.0017 0 0 1 46.7949 99.3794)"><tspan x="0" y="0" font-size="7">1. ‘List Procedures for Delivery’ on TDS console</tspan><tspan x="0" y="18.4" font-size="7" letter-spacing="45.924">	</tspan><tspan x="48" y="18.4" font-size="7" letter-spacing="119.801">	</tspan><tspan x="169.999" y="18.4" font-size="7">2. Query UPS (CFIND)</tspan><tspan x="0" y="36.8" font-size="7" letter-spacing="45.924">	</tspan><tspan x="48" y="36.8" font-size="7" letter-spacing="119.801">	</tspan><tspan x="169.999" y="36.8" font-size="7">3. Receive 0-n UPS</tspan><tspan x="0" y="47.2" font-size="7" letter-spacing="45.924">	</tspan><tspan x="48" y="47.2" font-size="7" letter-spacing="119.801">	</tspan><tspan x="169.999" y="47.2" font-size="7" letter-spacing="159.735">	</tspan><tspan x="331.999" y="47.2" font-size="7">Display list to User</tspan><tspan x="0" y="65.6" font-size="7">4. ‘Select Procedure’ on TDS console (optional, if only one procedure in list)</tspan><tspan x="0" y="84" font-size="7" letter-spacing="45.924">	</tspan><tspan x="48" y="84" font-size="7" letter-spacing="119.801">	</tspan><tspan x="169.999" y="84" font-size="7">5. Get UPS details (C-GET)</tspan><tspan x="0" y="101.4" font-size="7" letter-spacing="45.924">	</tspan><tspan x="48" y="101.4" font-size="7" letter-spacing="119.801">	</tspan><tspan x="169.999" y="101.4" font-size="7">Receive UPS details</tspan><tspan x="0" y="122.8" font-size="7" letter-spacing="45.924">	</tspan><tspan x="48" y="122.8" font-size="7" letter-spacing="119.801">	</tspan><tspan x="169.999" y="122.8" font-size="7" letter-spacing="159.735">	</tspan><tspan x="331.999" y="122.8" font-size="7">Extract input UIDs from selected UPS</tspan><tspan x="0" y="131.2" font-size="7" letter-spacing="45.924">	</tspan><tspan x="48" y="131.2" font-size="7">5a. Retrieve Archive Objects (C_MOVE)</tspan><tspan x="0" y="147.6" font-size="7" letter-spacing="45.924">	</tspan><tspan x="48" y="147.6" font-size="7">RT Plan and any other required objects</tspan><tspan x="0" y="156" font-size="7" letter-spacing="45.924">	</tspan><tspan x="48" y="156" font-size="7">(e.g., verification images, RT Beam Treatment Records)</tspan><tspan x="0" y="172.4" font-size="7" letter-spacing="45.924">	</tspan><tspan x="48" y="172.4" font-size="7" letter-spacing="119.801">	</tspan><tspan x="169.999" y="172.4" font-size="7">6. Change UPS ‘IN PROCESS’</tspan><tspan x="0" y="180.8" font-size="7" letter-spacing="45.924">	</tspan><tspan x="48" y="180.8" font-size="7" letter-spacing="119.801">	</tspan><tspan x="169.999" y="180.8" font-size="7">(N-ACTION with Transaction UID)</tspan><tspan x="0" y="202.2" font-size="7" letter-spacing="45.924">	</tspan><tspan x="48" y="202.2" font-size="7" letter-spacing="119.801">	</tspan><tspan x="169.999" y="202.2" font-size="7">7. Retrieve TMS objects (C-MOVE)</tspan><tspan x="0" y="220.599" font-size="7" letter-spacing="45.924">	</tspan><tspan x="48" y="220.599" font-size="7" letter-spacing="119.801">	</tspan><tspan x="169.999" y="220.599" font-size="7">RT Beams Delivery Instruction</tspan><tspan x="0" y="229" font-size="7" letter-spacing="45.924">	</tspan><tspan x="48" y="229" font-size="7" letter-spacing="119.801">	</tspan><tspan x="169.999" y="229" font-size="7">RT Treatment Record Summary</tspan><tspan x="0" y="237.4" fill="#010101" font-size="7" letter-spacing="45.924">	</tspan><tspan x="48" y="237.4" fill="#010101" font-size="7" letter-spacing="119.801">	</tspan><tspan x="169.999" y="237.4" fill="#010101" font-size="7">RT Beams Treatment Rec (if not in 5)</tspan><tspan x="0" y="271.201" font-size="7">8. ‘Start Treatment Sesion’ on TDS console</tspan><tspan x="0" y="289.599" font-size="7" letter-spacing="45.924">	</tspan><tspan x="48" y="289.599" font-size="7" letter-spacing="119.801">	</tspan><tspan x="169.999" y="289.599" font-size="7">9. Set UPS 0% complete, Beam ‘1’ (N-SET)</tspan><tspan x="0" y="308" font-size="7" letter-spacing="45.924">	</tspan><tspan x="48" y="308" font-size="7" letter-spacing="119.801">	</tspan><tspan x="169.999" y="308" font-size="7" letter-spacing="159.735">	</tspan><tspan x="331.999" y="308" font-size="7">Verify</tspan><tspan x="0" y="326.4" font-size="7" letter-spacing="45.924">	</tspan><tspan x="48" y="326.4" font-size="7" letter-spacing="119.801">	</tspan><tspan x="169.999" y="326.4" font-size="7" letter-spacing="159.735">	</tspan><tspan x="331.999" y="326.4" font-size="7">DELIVER RADIATION</tspan><tspan x="0" y="342.8" font-size="7" letter-spacing="45.924">	</tspan><tspan x="48" y="342.8" font-size="7" letter-spacing="119.801">	</tspan><tspan x="169.999" y="342.8" font-size="7">9. Set UPS 50% complete, Beam ‘2’ (N-SET)</tspan><tspan x="0" y="361.201" font-size="7" letter-spacing="45.924">	</tspan><tspan x="48" y="361.201" font-size="7" letter-spacing="119.801">	</tspan><tspan x="169.999" y="361.201" font-size="7" letter-spacing="159.735">	</tspan><tspan x="331.999" y="361.201" font-size="7">Verify</tspan><tspan x="0" y="379.599" font-size="7" letter-spacing="45.924">	</tspan><tspan x="48" y="379.599" font-size="7" letter-spacing="119.801">	</tspan><tspan x="169.999" y="379.599" font-size="7" letter-spacing="159.735">	</tspan><tspan x="331.999" y="379.599" font-size="7">DELIVER RADIATION</tspan><tspan x="0" y="396" font-size="7" letter-spacing="45.924">	</tspan><tspan x="48" y="396" font-size="7" letter-spacing="119.801">	</tspan><tspan x="169.999" y="396" font-size="7">10. Set UPS 100% complete, (N-SET)</tspan><tspan x="0" y="413.4" font-size="7" letter-spacing="45.924">	</tspan><tspan x="48" y="413.4" font-size="7">11. Store RT Treatment Record and other result objects (C-STORE)</tspan><tspan x="0" y="431.8" font-size="7" letter-spacing="45.924">	</tspan><tspan x="48" y="431.8" font-size="7" letter-spacing="119.801">	</tspan><tspan x="169.999" y="431.8" font-size="7">12. Set UPS to Final State (N-SET)</tspan><tspan x="0" y="450.201" font-size="7" letter-spacing="45.924">	</tspan><tspan x="48" y="450.201" font-size="7" letter-spacing="119.801">	</tspan><tspan x="169.999" y="450.201" font-size="7">13. Change UPS ‘COMPETED’ (N-ACTION)</tspan><tspan x="0" y="468.599" font-size="7">14. Indicate ‘Treatment Session Completed on TDS Console</tspan></text>
	</g>
</g>
</svg>
