<?xml version="1.0" encoding="utf-8"?>

<!DOCTYPE svg PUBLIC "-//W3C//DTD SVG 1.1//EN" "http://www.w3.org/Graphics/SVG/1.1/DTD/svg11.dtd">
<svg version="1.1" id="Layer_1" xmlns="http://www.w3.org/2000/svg" xmlns:xlink="http://www.w3.org/1999/xlink" x="0px" y="0px"
	 width="502px" height="267px" viewBox="0 0 502 267" enable-background="new 0 0 502 267" xml:space="preserve">

<defs>
	<style type="text/css">
	text {
	  font-family: Helvetica, Verdana, ArialUnicodeMS, san-serif
	}
	</style>
</defs>

<g>
   <desc>
	PS 3.17 Part 17: Explanatory Information
   </desc>
</g>

<g>
	<rect x="1" y="1" fill="#F5EED6" width="500" height="265"/>
	<g>
		
			<line fill="none" stroke="#000000" stroke-linecap="round" stroke-linejoin="round" stroke-dasharray="1,2" x1="262.137" y1="40.612" x2="269.026" y2="82.394"/>
		<g id="Tabletop3_1_">
			<path fill="#FFFFFF" d="M37.185,187.737l3.111-0.248l2.563,3.009c-10.954,0.842-17.227,1.322-17.266,1.322
				c-2.42,0-4.203-2.83-4.203-2.83l65.804-36.664l13.593-1.396L37.185,187.737z"/>
			<g>
				<polyline fill="none" stroke="#000000" stroke-width="0.5" stroke-linecap="round" stroke-linejoin="round" points="
					38.051,187.236 37.185,187.737 38.182,187.658 				"/>
				<polyline fill="none" stroke="#000000" stroke-width="0.5" stroke-linecap="round" stroke-linejoin="round" points="
					39.299,187.568 40.296,187.489 40.944,188.251 				"/>
				<path fill="none" stroke="#000000" stroke-width="0.5" stroke-linecap="round" stroke-linejoin="round" d="M42.21,189.736
					l0.648,0.762c-0.337,0.026-0.669,0.052-0.997,0.076"/>
				
					<path fill="none" stroke="#000000" stroke-width="0.5" stroke-linecap="round" stroke-linejoin="round" stroke-dasharray="1.8702,1.8702" d="
					M39.996,190.718c-9.177,0.705-14.367,1.103-14.402,1.103c-1.181,0-2.209-0.674-2.954-1.363"/>
				<path fill="none" stroke="#000000" stroke-width="0.5" stroke-linecap="round" stroke-linejoin="round" d="M21.994,189.784
					c-0.386-0.449-0.603-0.794-0.603-0.794l0.874-0.486"/>
				
					<polyline fill="none" stroke="#000000" stroke-width="0.5" stroke-linecap="round" stroke-linejoin="round" stroke-dasharray="2.0231,2.0231" points="
					24.031,187.519 87.194,152.326 98.786,151.136 				"/>
				<polyline fill="none" stroke="#000000" stroke-width="0.5" stroke-linecap="round" stroke-linejoin="round" points="
					99.792,151.033 100.787,150.931 99.921,151.432 				"/>
				
					<line fill="none" stroke="#000000" stroke-width="0.5" stroke-linecap="round" stroke-linejoin="round" stroke-dasharray="2.0424,2.0424" x1="98.154" y1="152.454" x2="38.935" y2="186.725"/>
			</g>
		</g>
		<g id="Tabletop2_1_">
			<path fill="#CCDEF0" d="M53.298,186.467l2.796-0.222l2.563,3.009c-10.954,0.842-17.227,1.322-17.266,1.322
				c-2.42,0-4.203-2.83-4.203-2.83l63.599-36.813l13.958-1.433L53.298,186.467z"/>
			<g>
				<polyline fill="none" stroke="#000000" stroke-width="0.5" points="54.155,185.951 53.298,186.467 54.295,186.388 				"/>
				<polyline fill="none" stroke="#000000" stroke-width="0.5" points="55.097,186.324 56.094,186.245 56.743,187.007 				"/>
				<path fill="none" stroke="#000000" stroke-width="0.5" d="M58.009,188.492l0.648,0.762c-0.337,0.026-0.669,0.052-0.997,0.076"/>
				<path fill="none" stroke="#000000" stroke-width="0.5" stroke-dasharray="1.8702,1.8702" d="M55.794,189.474
					c-9.177,0.705-14.367,1.103-14.402,1.103c-1.181,0-2.209-0.674-2.954-1.363"/>
				<path fill="none" stroke="#000000" stroke-width="0.5" d="M37.792,188.54c-0.386-0.449-0.603-0.794-0.603-0.794l0.865-0.501"/>
				<polyline fill="none" stroke="#000000" stroke-width="0.5" stroke-dasharray="1.9887,1.9887" points="39.775,186.249 
					100.788,150.933 112.762,149.704 				"/>
				<polyline fill="none" stroke="#000000" stroke-width="0.5" points="113.751,149.603 114.746,149.5 113.889,150.016 				"/>
				
					<line fill="none" stroke="#000000" stroke-width="0.5" stroke-dasharray="1.9917,1.9917" x1="112.182" y1="151.042" x2="55.008" y2="185.438"/>
			</g>
		</g>
		<g id="Tabletop1_1_">
			<path fill="#B2CEE7" d="M70.391,185.161l1.847-0.146l2.563,3.009c-10.954,0.842-17.227,1.322-17.266,1.322
				c-2.42,0-4.203-2.83-4.203-2.83l61.284-37.012l14.255-1.464L70.391,185.161z"/>
			<g>
				<polyline fill="none" stroke="#000000" stroke-width="0.5" stroke-linecap="round" stroke-linejoin="round" points="
					71.235,184.625 70.391,185.161 72.237,185.015 72.886,185.776 				"/>
				<path fill="none" stroke="#000000" stroke-width="0.5" stroke-linecap="round" stroke-linejoin="round" d="M74.152,187.262
					l0.648,0.762c-0.337,0.026-0.669,0.052-0.997,0.076"/>
				
					<path fill="none" stroke="#000000" stroke-width="0.5" stroke-linecap="round" stroke-linejoin="round" stroke-dasharray="1.8702,1.8702" d="
					M71.937,188.243c-9.177,0.705-14.367,1.103-14.402,1.103c-1.181,0-2.209-0.674-2.954-1.363"/>
				<path fill="none" stroke="#000000" stroke-width="0.5" stroke-linecap="round" stroke-linejoin="round" d="M53.935,187.31
					c-0.386-0.449-0.603-0.794-0.603-0.794l0.856-0.517"/>
				
					<polyline fill="none" stroke="#000000" stroke-width="0.5" stroke-linecap="round" stroke-linejoin="round" stroke-dasharray="2.0469,2.0469" points="
					55.94,184.94 114.616,149.504 126.858,148.247 				"/>
				<polyline fill="none" stroke="#000000" stroke-width="0.5" stroke-linecap="round" stroke-linejoin="round" points="
					127.876,148.143 128.871,148.04 128.026,148.576 				"/>
				
					<line fill="none" stroke="#000000" stroke-width="0.5" stroke-linecap="round" stroke-linejoin="round" stroke-dasharray="2.0384,2.0384" x1="126.305" y1="149.668" x2="72.095" y2="184.079"/>
			</g>
		</g>
		<g id="Tabletop0_1_">
			<path id="Tabletop_4_" fill="#005695" stroke="#000000" stroke-width="0.5" stroke-linecap="round" stroke-linejoin="round" d="
				M70.079,185.199l421.312-33.488c0,0-1.595,4.265-4.496,4.49S76.702,188.029,74.282,188.029S70.079,185.199,70.079,185.199z"/>
			
				<polygon id="Tabletop_3_" fill="#4F8ABE" stroke="#000000" stroke-width="0.5" stroke-linecap="round" stroke-linejoin="round" points="
				491.391,151.711 468.408,113.194 128.897,148.046 70.079,185.199 			"/>
		</g>
		<g>
			<path fill="#CCDEF0" stroke="#000000" d="M152.047,153.916c-4.287,3.081-8.279,4.544-13.347,5.832
				c-6.358,1.613-12.513,3.97-19.12,3.381c-4.669-0.418-12.348-2.032-14.83-6.847c-2.701-5.239-3.173-11.319,1.347-15.833
				c9.752-9.737,20.257-8.835,33.38-8.247c4.837,0.218,11.558,0.425,13.841,5.67C155.869,143.733,155.291,148.459,152.047,153.916z"
				/>
			<polygon fill="#CCDEF0" stroke="#000000" points="245.424,139.635 244.37,139.922 224.237,142.079 211.178,143.354 
				201.222,142.085 199.07,141.041 198.065,140.515 197.085,139.523 196.304,137.773 195.777,135.07 195.616,131.96 
				195.853,129.085 196.438,127.03 197.318,126.031 198.252,125.08 200.3,123.913 210.158,122.085 223.376,122.653 243.742,123.721 
				244.821,123.952 245.6,124.651 246.185,125.224 246.702,127.077 247.181,129.187 247.371,130.694 247.436,132.408 
				247.362,133.997 247.164,135.151 246.671,137.98 246.144,138.899 			"/>
			<path fill="#CCDEF0" stroke="#000000" d="M164.424,139.869c-2.055-2.804-3.188-4.105-6.447-5.389
				c-2.178-0.858-5.101-1.136-7.165,0.173c-2.479,1.571-4.445,2.768-5.406,5.651c-0.878,2.641-1.162,4.959,0.133,7.542
				c2.034,4.062,8.948,8.424,13.434,5.278c2.896-2.03,4.285-2.935,5.624-6.238C165.567,144.495,165.507,142.24,164.424,139.869z"/>
			<polygon fill="#CCDEF0" stroke="#000000" points="215.975,133.777 214.485,129.31 212.299,126.476 208.446,124.878 
				205.465,124.138 199.081,124.034 178.96,123.798 166.319,126.916 162.646,129.276 159.976,132.118 157.765,136.32 
				156.87,141.927 157.505,147.759 159.531,152.558 162.494,155.328 165.728,157.784 169.669,158.04 182.642,158.489 
				202.205,154.154 208.412,152.751 212.309,150.179 214.51,148.103 215.995,144.127 216.509,139.036 216.519,138.597 
				216.132,134.818 			"/>
			<path fill="#CCDEF0" stroke="#000000" d="M206.708,145.41c1.241,1.566,2.523,4.034,4.125,5.209
				c1.629,1.191,4.409,1.858,6.32,2.546c3.685,1.328,8.469,1.234,11.799-0.906c4.664-2.995,6.438-5.282,9.091-10.169
				c1.664-3.064,0.829-8.652-0.439-11.729c-1.345-3.263-4.613-7.009-7.911-8.256c-2.01-0.76-4.448-2.225-6.575-2.482
				c-2.174-0.266-4.923,0.567-7.109,0.817c-1.609,0.186-4.074,2.698-5.423,3.61c-1.885,1.276-2.842,2.246-3.817,4.28
				c-1.986,4.144-3.277,7.661-2.256,12.333C204.916,142.504,205.671,143.886,206.708,145.41z"/>
			<path fill="#CCDEF0" stroke="#000000" d="M231.603,150.039c2.785,1.965,9.562,1.396,12.715,1.688
				c4.584,0.424,8.735,0.888,13.294,0.421c3.871-0.397,9.457-0.725,12.491-3.437c3.276-2.926,3.688-7.867,3.87-11.942
				c0.31-6.941,0.064-20.912-9.018-21.997c-5.229-0.623-9.558-0.348-14.814,0.203c-4.498,0.473-9.342,2.81-13.656,4.141
				c-3.293,1.016-4.785,1.7-7.387,3.974c-2.127,1.855-2.283,6.536-2.521,9.131C225.976,138.773,227.401,144.971,231.603,150.039z"/>
			<path fill="#CCDEF0" stroke="#000000" d="M288.613,129.234c-3.536,5.764-7.717,8.379-14.43,5.991
				c-4.35-1.549-8.237-8.623-5.619-13.071c3.408-5.788,7.771-8.376,14.421-6.067C287.467,117.643,291.004,124.759,288.613,129.234z"
				/>
			<path fill="#CCDEF0" stroke="#000000" d="M353.691,125.556c0.299-4.351-0.333-8.84-0.997-13.131
				c-0.167-1.079-0.113-4.765-1.695-4.938c-1.347-0.147-2.657,0.351-4.021,0.442c-11.083,0.753-22.166,1.504-33.249,2.255
				c-8.655,0.587-17.298,1.395-25.943,2.102c-3.683,0.302-4.989,5.875-5.287,8.73c-0.409,3.919,0.558,8.277,2.542,11.63
				c3.334,5.63,8.74,3.357,14.166,2.502c5.547-0.873,11.109-1.688,16.645-2.639c7.516-1.293,15.03-2.585,22.547-3.877
				c3.396-0.584,6.794-1.169,10.192-1.751C350.206,126.603,352.787,127.098,353.691,125.556z"/>
			<path fill="#CCDEF0" stroke="#000000" d="M165.668,160.728c5.734,0.386,11.514-2.241,12.524-8.472
				c0.956-5.885-2.598-11.548-8.583-12.626c-5.84-1.051-11.334,2.867-12.728,8.543C155.397,154.218,159.927,159.474,165.668,160.728
				C168.866,160.942,159.883,159.464,165.668,160.728z"/>
			<path fill="#CCDEF0" stroke="#000000" d="M226.079,145.171c-7.739-2.799-16.848-2.964-24.988-4.019
				c-4.396-0.569-9.41-2.028-13.83-1.503c-4.273,0.507-9.66,0.22-13.082,3.372c-2.988,2.749-3.492,7.888-2.476,11.562
				c1.425,5.154,5.17,6.007,9.794,7.09c4.423,1.036,8.052,1.611,12.603,1.555c4.023-0.049,8.044-0.1,12.066-0.189
				c4.324-0.098,8.648-0.193,12.973-0.289c2.511-0.058,5.001,0.392,6.848-1.633C229.572,157.19,229.459,149.152,226.079,145.171z"/>
			<path fill="#CCDEF0" stroke="#000000" d="M349.205,112.736c-1.025,3.477-1.401,8.218,2.475,10.303
				c4.305,2.317,9.849,2.124,12.592-2.692C369.858,110.538,354.287,102.919,349.205,112.736z"/>
			<path fill="#CCDEF0" stroke="#000000" d="M360.374,112.425c1.325-4.166,3.119-5.664,7.747-5.587
				c5.408,0.091,10.816,0.183,16.223,0.272c8.737,0.148,17.137,0.571,25.83,1.417c9.767,0.949,19.513,1.857,29.302,2.567
				c3.755,0.272,8.2,0.595,8.535,4.96c0.248,3.233,0.177,8.73-2.259,11.079c-2.168,2.091-8.116,1.409-11.076,1.37
				c-3.449-0.047-6.896-0.125-10.347-0.086c-9.318,0.102-18.709,0.576-28.023,0.308c-9.356-0.269-18.749-1.286-28.089-1.929
				c-2.554-0.174-7.351-0.42-7.891-3.447C359.687,119.751,359.631,116.034,360.374,112.425z"/>
			<path fill="#CCDEF0" stroke="#000000" d="M264.576,144.286c3.457,1.431,5.646,2.401,9.385,2.124
				c3.347-0.248,5.906-2.956,7.549-5.662c3.294-5.424,1.041-12.95-4.975-15.333c-3.012-1.192-6.326-2.115-9.312-0.233
				c-3.234,2.036-5.512,4.005-6.601,7.857c-0.819,2.901,0.054,6.383,1.892,8.675c2.281,2.845,4.532,3.578,7.876,4.962"/>
			<path fill="#CCDEF0" stroke="#000000" d="M349.222,119.458c2.521,2.485,2.187,9.229,2.206,12.547
				c0.014,2.019,0.146,4.19-0.642,6.078c-0.784,1.882-2.646,1.137-4.243,1.349c-10.746,1.427-21.49,2.851-32.236,4.277
				c-8.68,1.151-17.382,2.13-26.076,3.158c-1.598,0.188-3.193,0.378-4.791,0.566c-0.833,0.099-4.469-1.911-4.771-2.504
				c-2.082-4.078-3.681-7.728-3.463-12.408c0.133-2.88,0.861-6.757,3-8.758c2.46-2.301,3.721-2.212,6.908-2.363
				c7.367-0.348,14.738-0.799,22.111-1.041c7.816-0.258,15.633-0.516,23.451-0.774c4.117-0.136,8.235-0.271,12.354-0.405
				C344.838,119.118,347.994,118.026,349.222,119.458z"/>
			<path fill="#CCDEF0" stroke="#000000" d="M234.503,146.797c-3.921-1.664-8.886-2.279-11.506,2.111
				c-2.234,3.747-2.209,10.086,2.562,12.147c4.407,1.903,8.789,1.595,11.537-2.83C239.491,154.369,238.236,149.396,234.503,146.797z
				"/>
			<path fill="#CCDEF0" stroke="#000000" d="M286.836,149.861c-0.755-4.041-1.726-5.92-5.975-6.236
				c-5.818-0.436-11.635-0.867-17.453-1.301c-3.749-0.279-7.6,0.314-11.342,0.571c-4.595,0.314-9.384,0.251-13.909,1.154
				c-8.464,1.689-8.692,16.92-0.365,18.812c4.18,0.948,8.842,0.44,13.074,0.46c4.122,0.019,8.628,0.572,12.719,0.004
				c6.411-0.891,12.821-1.779,19.231-2.668C287.736,159.976,287.035,153.574,286.836,149.861z"/>
			<path fill="#CCDEF0" stroke="#000000" d="M445.368,122.202c2.608,3.497,5.762,4.933,10.106,3.852
				c3.301-0.822,6.209-4.021,4.71-7.588C457.154,111.254,442.934,113.709,445.368,122.202z"/>
			<path fill="#CCDEF0" stroke="#000000" d="M470.705,81.636c-2.94-0.34-5.307,2.143-6.105,4.7
				c-1.785,5.707-3.592,11.486-5.438,17.396c-1.14,3.639-2.083,7.099-2.845,10.836c-0.769,3.763-2.403,9.042,1.799,11.202
				c0.899,0.463,4.425,1.833,4.815,0.479c0.541-1.87,1.083-3.724,1.509-5.623c0.869-3.868,1.731-7.73,2.503-11.62
				c1.188-5.985,2.373-11.971,3.56-17.956C470.879,89.152,472.874,82.697,470.705,81.636z"/>
			<path fill="#CCDEF0" stroke="#000000" d="M284.874,147.934c2.958-3.471,6.036-4.317,10.169-2.101
				c3.686,1.977,4.145,6.931,1.995,10.122C291.158,164.679,278.407,153.47,284.874,147.934z"/>
			<path fill="#CCDEF0" stroke="#000000" d="M345.938,124.852c-1.328,4.751-0.783,9.094,3.965,11.582
				c3.676,1.925,11.11,1.18,12.533-3.747c1.562-5.403,0.727-9.612-4.551-12.339C353.78,118.227,347.674,120.542,345.938,124.852z"/>
			<path fill="#CCDEF0" stroke="#000000" d="M358.029,124.344c0.582-1.922,0.771-4.195,2.816-5.158
				c1.332-0.63,3.653-0.959,5.155-0.945c5.111,0.04,10.223,0.084,15.333,0.126c8.46,0.071,16.777,0.088,25.196,0.831
				c9.667,0.853,19.33,1.847,29.016,2.462c5.047,0.321,9.737,0.649,14.672,1.693c4.483,0.949,3.245,6.937,2.958,10.422
				c-0.143,1.723-0.317,4.016-1.593,5.263c-1.774,1.734-4.042,1.534-6.469,1.865c-4.617,0.632-9.462,0.162-14.113,0.136
				c-9.735-0.058-19.487,0.334-29.219,0.511c-8.609,0.156-17.211-0.688-25.801-1.212c-3.649-0.221-8.169,0.226-11.714-0.746
				c-1.978-0.542-4.806-0.71-5.949-2.718c-0.778-1.367-0.854-3.885-0.808-5.462C357.58,129.075,357.571,126.641,358.029,124.344z"/>
			<path fill="#CCDEF0" stroke="#000000" d="M294.16,154.287c4.709,4.263,11.838,4.817,17.967,4.544
				c3.071-0.136,17.244-0.386,12.65-7.024c-1.589-2.301-5.533-2.629-7.982-3.093c-3.539-0.673-6.592-1.137-10.185-1.158
				C303.729,147.537,290.869,148.488,294.16,154.287z"/>
			<path fill="#CCDEF0" stroke="#000000" d="M467.033,130.385c-2.861-3.849-6.315-5.432-11.111-4.246
				c-3.618,0.895-6.696,4.271-5.147,8.208C453.882,142.237,470.649,139.425,467.033,130.385z"/>
			<path fill="#CCDEF0" stroke="#000000" d="M477.633,90.58c-3.957,0.164-5.189,4.322-6.159,7.277
				c-1.97,5.999-3.938,11.999-5.907,17.999c-1.202,3.665-2.094,7.183-2.914,10.961c-0.774,3.57-2.272,8.744,1.348,11.136
				c0.947,0.625,4.474,2.418,5.602,1.867s1.559-3.879,1.834-5.029c0.919-3.835,1.896-7.66,2.705-11.52
				c1.995-9.521,5.426-19.637,5.774-29.373C479.973,92.284,479.979,89.859,477.633,90.58z"/>
		</g>
		<polygon fill="#E6E6E6" stroke="#000000" stroke-width="0.5" stroke-linecap="round" stroke-linejoin="round" points="
			311.395,32.549 205.848,49.827 216.876,41.414 303.853,26.223 		"/>
		<polygon fill="#CCCCCC" stroke="#000000" stroke-width="0.5" stroke-linecap="round" stroke-linejoin="round" points="
			311.395,32.549 325.102,23.93 316.58,19.89 303.853,26.223 		"/>
		<polygon fill="#999999" stroke="#000000" stroke-width="0.5" stroke-linecap="round" stroke-linejoin="round" points="
			241.514,32.737 316.58,19.89 303.853,26.223 216.876,41.414 		"/>
		
			<line fill="none" stroke="#000000" stroke-width="0.5" stroke-miterlimit="10" stroke-dasharray="4,4,2,2" x1="10.609" y1="82.558" x2="268.109" y2="82.558"/>
		<g>
			<g>
				<line fill="none" stroke="#005695" x1="268.622" y1="82.778" x2="15.907" y2="103.512"/>
				<g>
					<polygon fill="#005695" points="16.95,101.677 10.609,103.946 17.235,105.152 					"/>
				</g>
			</g>
		</g>
		<text transform="matrix(1 -0.0019 0.0019 1 226.4458 83.9536)" fill="#00AEEF" font-size="11">+Z</text>
		<text transform="matrix(1 -0.0019 0.0019 1 284.8584 61.897)" fill="#ED1C24" font-size="11">+X</text>
		<text transform="matrix(1 -0.0019 0.0019 1 253.6738 105.9937)" fill="#0DB14B" font-size="11">+Y</text>
		<g>
			<g>
				<g>
					<line fill="none" stroke="#0DB14B" stroke-width="2" x1="268.943" y1="82.871" x2="268.943" y2="100.36"/>
					<g>
						<polygon fill="#0DB14B" points="266.038,98.379 268.943,109.22 271.849,98.379 						"/>
					</g>
				</g>
			</g>
			<g>
				<g>
					<line fill="none" stroke="#ED1C24" stroke-width="2" x1="268.841" y1="82.871" x2="284.314" y2="68.031"/>
					<g>
						<polygon fill="#ED1C24" points="284.896,71.499 290.708,61.898 280.873,67.306 						"/>
					</g>
				</g>
			</g>
			<g>
				<g>
					<line fill="none" stroke="#00AEEF" stroke-width="2" x1="269.026" y1="82.394" x2="247.179" y2="82.394"/>
					<g>
						<polygon fill="#00AEEF" points="249.161,79.488 238.32,82.394 249.161,85.299 						"/>
					</g>
				</g>
			</g>
		</g>
		<g>
			<path stroke="#000000" stroke-miterlimit="1" d="M274.535,82.56c0.007-3.043-2.463-5.504-5.501-5.504v5.504H274.535z"/>
			
				<path fill="#FFFFFF" stroke="#010101" stroke-width="0.75" stroke-linecap="round" stroke-linejoin="round" stroke-miterlimit="1" d="
				M269.034,77.056c-3.035,0-5.499,2.467-5.499,5.504h5.499V77.056z"/>
			<path stroke="#000000" stroke-miterlimit="1" d="M263.535,82.56c0.002,3.043,2.464,5.5,5.507,5.5l-0.008-5.5H263.535z"/>
			
				<path fill="#FFFFFF" stroke="#010101" stroke-width="0.75" stroke-linecap="round" stroke-linejoin="round" stroke-miterlimit="1" d="
				M269.034,82.56l0.008,5.5c3.034,0,5.5-2.464,5.493-5.5H269.034z"/>
		</g>
		<g>
			<g>
				<polyline fill="none" stroke="#005695" stroke-linejoin="round" points="217.705,30.995 205.712,20.946 196.37,20.946 				"/>
				<g>
					<polygon fill="#005695" points="218.052,27.495 224.496,36.685 214.32,31.949 					"/>
				</g>
			</g>
		</g>
		<g>
			<g>
				<polyline fill="none" stroke="#005695" stroke-linejoin="round" points="32.051,199.172 49.021,245.91 58.363,245.91 				"/>
				<g>
					<polygon fill="#005695" points="30.819,200.885 30.237,194.176 34.096,199.695 					"/>
				</g>
			</g>
		</g>
		<g>
			<g>
				<line fill="none" stroke="#000000" stroke-linejoin="round" x1="57.312" y1="195.787" x2="57.937" y2="197.15"/>
				
					<line fill="none" stroke="#000000" stroke-linejoin="round" stroke-dasharray="2.8249,2.8249" x1="59.115" y1="199.718" x2="72.664" y2="229.244"/>
				<polyline fill="none" stroke="#000000" stroke-linejoin="round" points="73.253,230.528 73.878,231.892 75.378,231.892 				"/>
				
					<line fill="none" stroke="#000000" stroke-linejoin="round" stroke-dasharray="2.1139,2.1139" x1="77.492" y1="231.892" x2="80.663" y2="231.892"/>
				<line fill="none" stroke="#000000" stroke-linejoin="round" x1="81.72" y1="231.892" x2="83.22" y2="231.892"/>
				<g>
					<polygon points="56.223,197.595 55.095,190.956 59.392,196.141 					"/>
				</g>
			</g>
		</g>
		<g>
			<g>
				<polyline fill="none" stroke="#005695" stroke-linejoin="round" points="80.11,194.915 95.822,217.113 105.164,217.113 				"/>
				<g>
					<polygon fill="#005695" points="79.374,196.893 77.039,190.576 82.219,194.878 					"/>
				</g>
			</g>
		</g>
		
			<line fill="none" stroke="#000000" stroke-width="0.5" stroke-dasharray="2,2" x1="21.391" y1="188.99" x2="70.079" y2="185.199"/>
		<g>
			<g>
				<path fill="none" stroke="#000000" d="M68.278,93.901c-0.282-1.316-0.43-2.681-0.43-4.081c0-2.568,0.499-5.021,1.406-7.265"/>
				<g>
					<polygon points="69.647,92.181 70.1,98.899 66.348,93.307 					"/>
				</g>
			</g>
		</g>
		<text transform="matrix(1 0 0 1 60.3481 248.9355)" fill="#ED1C24" font-size="9">Frame N</text>
		<text transform="matrix(1 0 0 1 86.0156 234.916)" font-size="9">Frame i</text>
		<text transform="matrix(1 0 0 1 107.375 220.1357)" fill="#ED1C24" font-size="9">Frame 1</text>
		<rect x="18.72" y="72.429" fill="none" width="129" height="9.25"/>
		<text transform="matrix(1 0 0 1 18.7202 78.8701)" font-size="9">Table Head Tilt Angle = </text>
		<text transform="matrix(1.0117 0 0 1 115.5229 78.8701)" font-size="9">-10 deg</text>
		<g>
			<text transform="matrix(1 0 0 1 135.4116 23.0747)" font-size="9">X-Ray Detector</text>
		</g>
	</g>
</g>
</svg>
