<?xml version="1.0" encoding="utf-8"?>

<!DOCTYPE svg PUBLIC "-//W3C//DTD SVG 1.1//EN" "http://www.w3.org/Graphics/SVG/1.1/DTD/svg11.dtd">
<svg version="1.1" id="Layer_1" xmlns="http://www.w3.org/2000/svg" xmlns:xlink="http://www.w3.org/1999/xlink" x="0px" y="0px"
	 width="502.001px" height="357px" viewBox="0 0 502.001 357" enable-background="new 0 0 502.001 357" xml:space="preserve">

<defs>
	<style type="text/css">
	text {
	  font-family: Helvetica, Verdana, ArialUnicodeMS, san-serif
	}
	</style>
</defs>

<g>
   <desc>
	PS 3.17 Part 17: Explanatory Information
   </desc>
</g>

<g>
	<rect x="1" y="1" fill="#F5EED6" width="500.001" height="355"/>
	<g>
		
			<rect x="21.482" y="32.768" fill="#CCDEF0" stroke="#010101" stroke-width="0.5" stroke-miterlimit="1" stroke-dasharray="2,3" width="155.922" height="307.662"/>
		<text transform="matrix(1 0 0 1 21.9194 27.2075)" font-size="12">Implant Template</text>
		<g>
			<g>
				
					<line fill="none" stroke="#005695" stroke-width="2" stroke-linecap="round" stroke-miterlimit="1" x1="99.691" y1="76.061" x2="99.691" y2="89.454"/>
				<g>
					<polygon fill="#005695" points="97.367,87.869 99.691,96.542 102.016,87.869 					"/>
				</g>
			</g>
		</g>
		<g>
			<g>
				
					<line fill="none" stroke="#005695" stroke-width="2" stroke-linecap="round" stroke-miterlimit="1" x1="99.619" y1="123.981" x2="99.619" y2="138.806"/>
				<g>
					<polygon fill="#005695" points="97.295,137.22 99.619,145.893 101.943,137.22 					"/>
				</g>
			</g>
		</g>
		<g>
			<g>
				
					<line fill="none" stroke="#005695" stroke-width="2" stroke-linecap="round" stroke-miterlimit="1" x1="99.547" y1="168.299" x2="99.547" y2="183.195"/>
				<g>
					<polygon fill="#005695" points="97.223,181.61 99.547,190.283 101.871,181.61 					"/>
				</g>
			</g>
		</g>
		<g>
			<g>
				
					<line fill="none" stroke="#005695" stroke-width="2" stroke-linecap="round" stroke-miterlimit="1" x1="99.475" y1="217.303" x2="99.475" y2="232.547"/>
				<g>
					<polygon fill="#005695" points="97.15,230.962 99.475,239.635 101.799,230.962 					"/>
				</g>
			</g>
		</g>
		<g>
			<g>
				
					<line fill="none" stroke="#005695" stroke-width="2" stroke-linecap="round" stroke-miterlimit="1" x1="99.402" y1="261.266" x2="99.402" y2="276.938"/>
				<g>
					<polygon fill="#005695" points="97.078,275.353 99.402,284.025 101.727,275.353 					"/>
				</g>
			</g>
		</g>
		<g>
			<g>
				<polyline fill="none" stroke="#005695" stroke-width="2" stroke-linecap="round" stroke-miterlimit="1" points="99.33,310.266 
					99.33,322.578 34.232,322.578 34.232,250.99 43.056,250.858 				"/>
				<g>
					<polygon fill="#005695" points="41.506,253.206 50.143,250.752 41.436,248.558 					"/>
				</g>
			</g>
		</g>
		
			<rect x="50.268" y="239.635" fill="#86B2D8" stroke="#010101" stroke-width="0.75" stroke-linecap="round" stroke-linejoin="round" stroke-miterlimit="1" width="99" height="22.5"/>
		<g>
			<text transform="matrix(1 0 0 1 69.5024 253.376)" font-size="9">Mating Feature</text>
		</g>
		
			<rect x="50.268" y="48.929" fill="#86B2D8" stroke="#010101" stroke-width="0.75" stroke-linecap="round" stroke-linejoin="round" stroke-miterlimit="1" width="99" height="25.722"/>
		<g>
			<text transform="matrix(1 0 0 1 64.999 58.895)"><tspan x="0" y="0" font-size="9">Implant Template</tspan><tspan x="13.256" y="10.8" font-size="9">Repository</tspan></text>
		</g>
		<g>
			<text transform="matrix(1 0 0 1 144.2598 101.7598)" font-size="9">1</text>
		</g>
		<g>
			<text transform="matrix(1 0 0 1 136.2578 123.7646)" font-size="9">1-n</text>
		</g>
		
			<polygon fill="#B2CEE7" stroke="#010101" stroke-width="0.75" stroke-linecap="round" stroke-linejoin="round" stroke-miterlimit="1" points="
			50.27,109.833 99.691,96.542 149.266,110.026 149.266,110.056 99.691,123.541 		"/>
		<g>
			<text transform="matrix(1 0 0 1 81.8574 112.5366)" font-size="9">Contains</text>
		</g>
		<g>
			<text transform="matrix(1 0 0 1 144.2598 195.502)" font-size="9">1</text>
		</g>
		<g>
			<text transform="matrix(1 0 0 1 136.2578 217.5068)" font-size="9">1-n</text>
		</g>
		
			<polygon fill="#B2CEE7" stroke="#010101" stroke-width="0.75" stroke-linecap="round" stroke-linejoin="round" stroke-miterlimit="1" points="
			50.27,203.576 99.691,190.283 149.266,203.77 149.266,203.799 99.691,217.283 		"/>
		<g>
			<text transform="matrix(1 0 0 1 92.3628 206.2793)" font-size="9">has</text>
		</g>
		<g>
			<text transform="matrix(1 0 0 1 144.2598 289.2441)" font-size="9">1</text>
		</g>
		<g>
			<text transform="matrix(1 0 0 1 136.2578 311.249)" font-size="9">1-n</text>
		</g>
		
			<polygon fill="#B2CEE7" stroke="#010101" stroke-width="0.75" stroke-linecap="round" stroke-linejoin="round" stroke-miterlimit="1" points="
			50.27,297.318 99.691,284.025 149.266,297.512 149.266,297.541 99.691,311.025 		"/>
		<g>
			<text transform="matrix(1 0 0 1 77.1006 300.0215)" font-size="9">neighbor of</text>
		</g>
		
			<rect x="50.268" y="145.893" fill="#86B2D8" stroke="#010101" stroke-width="0.75" stroke-linecap="round" stroke-linejoin="round" stroke-miterlimit="1" width="99" height="22.5"/>
		<g>
			<text transform="matrix(1 0 0 1 65.0024 159.6333)" font-size="9">Implant Template</text>
		</g>
		
			<rect x="196.982" y="32.768" fill="#CCDEF0" stroke="#010101" stroke-width="0.5" stroke-miterlimit="1" stroke-dasharray="2,3" width="283.535" height="307.662"/>
		<text transform="matrix(1 0 0 1 197.4194 27.2075)" font-size="12">Implantation Plan</text>
		<g>
			<g>
				
					<line fill="none" stroke="#005695" stroke-width="2" stroke-linecap="round" stroke-miterlimit="1" x1="275.191" y1="76.061" x2="275.191" y2="89.454"/>
				<g>
					<polygon fill="#005695" points="272.867,87.869 275.191,96.542 277.516,87.869 					"/>
				</g>
			</g>
		</g>
		<g>
			<g>
				
					<line fill="none" stroke="#005695" stroke-width="2" stroke-linecap="round" stroke-miterlimit="1" x1="275.119" y1="123.981" x2="275.119" y2="138.806"/>
				<g>
					<polygon fill="#005695" points="272.795,137.22 275.119,145.893 277.443,137.22 					"/>
				</g>
			</g>
		</g>
		<g>
			<g>
				
					<line fill="none" stroke="#005695" stroke-width="2" stroke-linecap="round" stroke-miterlimit="1" x1="275.047" y1="168.299" x2="275.047" y2="183.195"/>
				<g>
					<polygon fill="#005695" points="272.723,181.61 275.047,190.283 277.371,181.61 					"/>
				</g>
			</g>
		</g>
		<g>
			<g>
				<polyline fill="none" stroke="#005695" stroke-width="2" stroke-linecap="round" stroke-miterlimit="1" points="274.83,217.104 
					274.83,229.416 209.732,229.416 209.732,157.829 156.421,157.617 				"/>
				<g>
					<polygon fill="#005695" points="158.016,155.299 149.334,157.589 157.998,159.948 					"/>
				</g>
			</g>
		</g>
		
			<rect x="225.768" y="48.929" fill="#86B2D8" stroke="#010101" stroke-width="0.75" stroke-linecap="round" stroke-linejoin="round" stroke-miterlimit="1" width="99" height="25.722"/>
		<g>
			<text transform="matrix(1 0 0 1 235.9927 58.895)"><tspan x="0" y="0" font-size="9">Implant Component</tspan><tspan x="32.269" y="10.8" font-size="9">List</tspan></text>
		</g>
		<g>
			<text transform="matrix(1 0 0 1 319.7598 101.7598)" font-size="9">1</text>
		</g>
		<g>
			<text transform="matrix(1 0 0 1 311.7578 123.7646)" font-size="9">1-n</text>
		</g>
		
			<polygon fill="#B2CEE7" stroke="#010101" stroke-width="0.75" stroke-linecap="round" stroke-linejoin="round" stroke-miterlimit="1" points="
			225.77,109.833 275.191,96.542 324.766,110.026 324.766,110.056 275.191,123.541 		"/>
		<g>
			<text transform="matrix(1 0 0 1 257.3574 112.5366)" font-size="9">Contains</text>
		</g>
		<g>
			<text transform="matrix(1 0 0 1 319.7598 195.502)" font-size="9">1</text>
		</g>
		<g>
			<text transform="matrix(1 0 0 1 319.7607 217.5068)" font-size="9">1</text>
		</g>
		
			<polygon fill="#B2CEE7" stroke="#010101" stroke-width="0.75" stroke-linecap="round" stroke-linejoin="round" stroke-miterlimit="1" points="
			225.77,203.576 275.191,190.283 324.766,203.77 324.766,203.799 275.191,217.283 		"/>
		<g>
			<text transform="matrix(1 0 0 1 253.8574 206.2793)" font-size="9">references</text>
		</g>
		
			<rect x="225.768" y="145.893" fill="#86B2D8" stroke="#010101" stroke-width="0.75" stroke-linecap="round" stroke-linejoin="round" stroke-miterlimit="1" width="99" height="22.5"/>
		<g>
			<text transform="matrix(1 0 0 1 241.748 154.2485)"><tspan x="0" y="0" font-size="9">Selected Implant</tspan><tspan x="10.255" y="10.8" font-size="9">Component</tspan></text>
		</g>
		<g>
			<g>
				
					<line fill="none" stroke="#005695" stroke-width="2" stroke-linecap="round" stroke-miterlimit="1" x1="402.808" y1="76.061" x2="402.808" y2="89.454"/>
				<g>
					<polygon fill="#005695" points="400.483,87.869 402.808,96.542 405.132,87.869 					"/>
				</g>
			</g>
		</g>
		<g>
			<g>
				
					<line fill="none" stroke="#005695" stroke-width="2" stroke-linecap="round" stroke-miterlimit="1" x1="402.735" y1="123.981" x2="402.735" y2="138.806"/>
				<g>
					<polygon fill="#005695" points="400.411,137.22 402.735,145.893 405.06,137.22 					"/>
				</g>
			</g>
		</g>
		<g>
			<g>
				
					<line fill="none" stroke="#005695" stroke-width="2" stroke-linecap="round" stroke-miterlimit="1" x1="402.663" y1="168.299" x2="402.663" y2="183.195"/>
				<g>
					<polygon fill="#005695" points="400.339,181.61 402.663,190.283 404.987,181.61 					"/>
				</g>
			</g>
		</g>
		<g>
			<g>
				
					<line fill="none" stroke="#005695" stroke-width="2" stroke-linecap="round" stroke-miterlimit="1" x1="402.591" y1="217.303" x2="402.591" y2="232.547"/>
				<g>
					<polygon fill="#005695" points="400.267,230.962 402.591,239.635 404.915,230.962 					"/>
				</g>
			</g>
		</g>
		<g>
			<g>
				
					<line fill="none" stroke="#005695" stroke-width="2" stroke-linecap="round" stroke-miterlimit="1" x1="402.519" y1="261.266" x2="402.519" y2="276.938"/>
				<g>
					<polygon fill="#005695" points="400.194,275.353 402.519,284.025 404.843,275.353 					"/>
				</g>
			</g>
		</g>
		<g>
			<g>
				<polyline fill="none" stroke="#005695" stroke-width="2" stroke-linecap="round" stroke-miterlimit="1" points="
					402.446,310.266 402.446,322.578 337.349,322.578 337.349,250.871 156.966,250.871 				"/>
				<g>
					<polygon fill="#005695" points="158.552,248.547 149.879,250.871 158.552,253.195 					"/>
				</g>
			</g>
		</g>
		
			<rect x="349.597" y="239.635" fill="#86B2D8" stroke="#010101" stroke-width="0.75" stroke-linecap="round" stroke-linejoin="round" stroke-miterlimit="1" width="105.996" height="22.5"/>
		<g>
			<text transform="matrix(1 0 0 1 354.1064 247.9902)"><tspan x="0" y="0" font-size="9">Connected Implantation </tspan><tspan x="15.26" y="10.8" font-size="9">Plan Component</tspan></text>
		</g>
		
			<rect x="349.597" y="48.929" fill="#86B2D8" stroke="#010101" stroke-width="0.75" stroke-linecap="round" stroke-linejoin="round" stroke-miterlimit="1" width="105.996" height="25.722"/>
		<g>
			<text transform="matrix(1 0 0 1 383.3789 64.2954)" font-size="9">Assembly</text>
		</g>
		<g>
			<text transform="matrix(1 0 0 1 447.3799 101.7598)" font-size="9">1</text>
		</g>
		<g>
			<text transform="matrix(1 0 0 1 439.3779 123.7646)" font-size="9">1-n</text>
		</g>
		
			<polygon fill="#B2CEE7" stroke="#010101" stroke-width="0.75" stroke-linecap="round" stroke-linejoin="round" stroke-miterlimit="1" points="
			353.386,109.833 402.808,96.542 452.382,110.026 452.382,110.056 402.808,123.541 		"/>
		<g>
			<text transform="matrix(1 0 0 1 384.9775 112.5366)" font-size="9">Contains</text>
		</g>
		<g>
			<text transform="matrix(1 0 0 1 447.3799 195.502)" font-size="9">1</text>
		</g>
		<g>
			<text transform="matrix(1 0 0 1 447.3799 217.5068)" font-size="9">2</text>
		</g>
		
			<polygon fill="#B2CEE7" stroke="#010101" stroke-width="0.75" stroke-linecap="round" stroke-linejoin="round" stroke-miterlimit="1" points="
			353.386,203.576 402.808,190.283 452.382,203.77 452.382,203.799 402.808,217.283 		"/>
		<g>
			<text transform="matrix(1 0 0 1 385.9775 206.2793)" font-size="9">contains</text>
		</g>
		<g>
			<text transform="matrix(1 0 0 1 447.3799 289.2441)" font-size="9">1</text>
		</g>
		<g>
			<text transform="matrix(1 0 0 1 443.3789 311.249)" font-size="9">1</text>
		</g>
		
			<polygon fill="#B2CEE7" stroke="#010101" stroke-width="0.75" stroke-linecap="round" stroke-linejoin="round" stroke-miterlimit="1" points="
			353.386,297.318 402.808,284.025 452.382,297.512 452.382,297.541 402.808,311.025 		"/>
		<g>
			<text transform="matrix(1 0 0 1 381.4775 300.0215)" font-size="9">references</text>
		</g>
		
			<rect x="349.597" y="146.339" fill="#86B2D8" stroke="#010101" stroke-width="0.75" stroke-linecap="round" stroke-linejoin="round" stroke-miterlimit="1" width="105.996" height="22.5"/>
		<g>
			<text transform="matrix(1 0 0 1 355.6074 159.6333)" font-size="9">Component Connection</text>
		</g>
	</g>
</g>
</svg>
