<?xml version="1.0" encoding="utf-8"?>

<!DOCTYPE svg PUBLIC "-//W3C//DTD SVG 1.1//EN" "http://www.w3.org/Graphics/SVG/1.1/DTD/svg11.dtd">
<svg version="1.1" id="Layer_1" xmlns="http://www.w3.org/2000/svg" xmlns:xlink="http://www.w3.org/1999/xlink" x="0px" y="0px"
	 width="502px" height="177px" viewBox="0 0 502 177" enable-background="new 0 0 502 177" xml:space="preserve">

<defs>
	<style type="text/css">
	text {
	  font-family: Helvetica, Verdana, ArialUnicodeMS, san-serif
	}
	</style>
</defs>

<g>
   <desc>
	PS 3.17 Part 17: Explanatory Information
   </desc>
</g>

<g>
	<rect x="1" y="1" fill="#F5EED6" width="500" height="175"/>
	<g>
		<g>
			<path fill="#808285" stroke="#000000" d="M142.733,78.228c0.186,9.299-7.202,16.988-16.501,17.173l0,0
				c-9.299,0.186-16.986-7.201-17.172-16.5l-0.552-16.031c-0.186-9.299,7.203-16.987,16.501-17.174l0,0
				c9.299-0.185,16.988,7.202,17.174,16.501L142.733,78.228z"/>
			<path fill="#FFFFFF" stroke="#000000" stroke-width="0.9325" stroke-linejoin="round" d="M120.94,71.256
				c-1.81-1.399-2.974-3.592-2.974-6.057c0-4.228,3.426-7.655,7.654-7.655c4.228,0,7.654,3.427,7.654,7.655
				c0,2.463-1.163,4.654-2.971,6.054l0.002-0.002c1.807,1.4,2.969,3.591,2.969,6.054c0,4.228-3.427,7.655-7.654,7.655
				c-4.229,0-7.654-3.427-7.654-7.655c0-2.463,1.163-4.655,2.97-6.055L120.94,71.256z"/>
			<text transform="matrix(1 0 0 1 105.9448 142.3086)"><tspan x="0" y="0" font-size="12">Implant</tspan><tspan x="-10.339" y="14.4" font-size="12">Template 1</tspan></text>
			<text transform="matrix(1 0 0 1 122.1167 68.4946)" fill="#ED1C24" font-size="12">+</text>
			<text transform="matrix(1 0 0 1 122.1167 80.4946)" fill="#ED1C24" font-size="12">+</text>
			<text transform="matrix(1 0 0 1 149.457 57.9849)" fill="#ED1C24" font-size="12">ID10</text>
			<text transform="matrix(1 0 0 1 149.457 91.335)" fill="#ED1C24" font-size="12">ID20</text>
		</g>
		<g>
			<text transform="matrix(1 0 0 1 265.4199 49.7783)" fill="#ED1C24" font-size="12">ID10</text>
			<text transform="matrix(1 0 0 1 265.4199 96.6846)" fill="#ED1C24" font-size="12">ID20</text>
			<path fill="#808285" stroke="#000000" stroke-width="0.978" d="M258.207,47.453c0-9.722-7.54-17.605-16.84-17.605l0,0
				c-9.299,0-16.84,7.883-16.84,17.605v46.184c0,9.725,7.541,17.605,16.84,17.605l0,0c9.301,0,16.84-7.881,16.84-17.605V47.453z"/>
			<circle fill="#FFFFFF" stroke="#000000" stroke-width="0.9325" cx="241.367" cy="46.437" r="7.655"/>
			<circle fill="#FFFFFF" stroke="#000000" stroke-width="0.9325" cx="241.367" cy="93.344" r="7.655"/>
			<text transform="matrix(1 0 0 1 221.5435 142.3086)"><tspan x="0" y="0" font-size="12">Implant</tspan><tspan x="-10.339" y="14.4" font-size="12">Template 2</tspan></text>
			<text transform="matrix(1 0 0 1 237.8633 49.7783)" fill="#ED1C24" font-size="12">+</text>
			<text transform="matrix(1 0 0 1 237.8633 96.6846)" fill="#ED1C24" font-size="12">+</text>
		</g>
		<g>
			<path fill="#808285" stroke="#000000" stroke-width="0.9635" d="M373.834,33.685c0-9.582-7.539-17.35-16.84-17.35l0,0
				c-9.301,0-16.84,7.768-16.84,17.35v74.249c0,9.582,7.539,17.352,16.84,17.352l0,0c9.301,0,16.84-7.77,16.84-17.352V33.685z"/>
			<circle fill="#FFFFFF" stroke="#000000" stroke-width="0.9325" cx="356.994" cy="36.235" r="7.654"/>
			<circle fill="#FFFFFF" stroke="#000000" stroke-width="0.9325" cx="356.994" cy="57.756" r="7.654"/>
			<circle fill="#FFFFFF" stroke="#000000" stroke-width="0.9325" cx="356.994" cy="108.041" r="7.654"/>
			<text transform="matrix(1 0 0 1 337.3105 142.3086)"><tspan x="0" y="0" font-size="12">Implant</tspan><tspan x="-10.338" y="14.399" font-size="12">Template 3</tspan></text>
			<text transform="matrix(1 0 0 1 381.0469 39.5771)" fill="#ED1C24" font-size="12">ID10</text>
			<text transform="matrix(1 0 0 1 381.0469 111.3828)" fill="#ED1C24" font-size="12">ID20</text>
			<text transform="matrix(1 0 0 1 353.4902 39.3159)" fill="#ED1C24" font-size="12">+</text>
			<text transform="matrix(1 0 0 1 381.0469 61.0972)" fill="#ED1C24" font-size="12">ID15</text>
			<text transform="matrix(1 0 0 1 353.4902 61.0977)" fill="#ED1C24" font-size="12">+</text>
			<text transform="matrix(1 0 0 1 353.4902 111.3828)" fill="#ED1C24" font-size="12">+</text>
		</g>
	</g>
</g>
</svg>
