<?xml version="1.0" encoding="utf-8"?>

<!DOCTYPE svg PUBLIC "-//W3C//DTD SVG 1.1//EN" "http://www.w3.org/Graphics/SVG/1.1/DTD/svg11.dtd">
<svg version="1.1" id="Layer_1" xmlns="http://www.w3.org/2000/svg" xmlns:xlink="http://www.w3.org/1999/xlink" x="0px" y="0px"
	 width="502px" height="297px" viewBox="0 0 502 297" enable-background="new 0 0 502 297" xml:space="preserve">

<defs>
	<style type="text/css">
	text {
	  font-family: Helvetica, Verdana, ArialUnicodeMS, san-serif
	}
	</style>
</defs>

<g>
   <desc>
	PS 3.17 Part 17: Explanatory Information
   </desc>
</g>

<g>
	<rect x="1" y="1" fill="#F5EED6" width="500" height="295"/>
	<g>
		<g>
			<polygon fill="#E6E7E8" stroke="#000000" stroke-width="0.5" stroke-linecap="round" stroke-linejoin="round" points="
				265.619,53.072 245.074,54.58 245.074,27.679 265.619,26.941 			"/>
			<polygon fill="#E6E7E8" stroke="#000000" stroke-width="0.5" stroke-linecap="round" stroke-linejoin="round" points="
				161.301,22.711 136.293,24.12 136.293,161.727 161.301,156.059 			"/>
			<polygon fill="#BCBEC0" stroke="#000000" stroke-width="0.5" stroke-linecap="round" stroke-linejoin="round" points="
				136.291,38.873 136.291,161.727 118.104,153.703 118.105,16.127 245.074,27.677 245.074,54.58 			"/>
			<polygon fill="#FFFFFF" stroke="#000000" stroke-width="0.5" stroke-linecap="round" stroke-linejoin="round" points="
				265.619,26.941 131.254,15.736 118.105,16.127 245.471,27.655 			"/>
		</g>
		<g>
			<g>
				<path opacity="0.6" fill="#CCCCCC" stroke="#000000" stroke-width="0.5" stroke-linejoin="round" d="M368.199,242.953
					c-0.9-0.34-1.805-0.68-2.713-1.016c-50.84-18.846-95.896-23.76-100.633-10.98c-3.414,9.211,15.049,25.098,44.66,40.309v-3.6
					c-29.611-15.211-48.074-31.098-44.66-40.309c4.736-12.779,49.793-7.865,100.633,10.98c0.908,0.336,1.812,0.676,2.713,1.016
					V242.953z"/>
				<path fill="#FFFFFF" stroke="#000000" stroke-width="0.5" stroke-linejoin="round" d="M309.514,267.666
					c-29.611-15.211-48.074-31.098-44.66-40.309c4.736-12.779,49.793-7.865,100.633,10.98c0.908,0.336,1.812,0.676,2.713,1.016
					L309.514,267.666z"/>
			</g>
			<polygon fill="#999999" stroke="#000000" stroke-width="0.5" stroke-linejoin="round" points="330.734,213.232 389.121,185.547 
				389.121,253.578 330.734,281.264 			"/>
			<polygon fill="#CCCCCC" stroke="#000000" stroke-width="0.5" stroke-linejoin="round" points="309.76,203.074 330.734,212.967 
				330.734,281.264 309.76,271.467 			"/>
			<polygon fill="#999999" stroke="#000000" stroke-width="0.5" stroke-linejoin="round" points="348.465,217.73 406.852,190.045 
				406.852,193.645 348.465,221.33 			"/>
			<polygon fill="#CCCCCC" stroke="#000000" stroke-width="0.5" stroke-linejoin="round" points="348.465,217.73 229.72,161.727 
				229.72,165.326 348.465,221.33 			"/>
			<polygon fill="#4F8ABE" stroke="#000000" stroke-width="0.5" stroke-linejoin="round" points="284.471,149.178 406.852,190.045 
				348.465,217.73 229.72,161.727 			"/>
		</g>
		<polygon fill="#4F8ABE" stroke="#000000" stroke-width="0.5" points="247.141,157.723 232.173,151.42 254.268,146.814 
			269.992,152.555 284.471,149.178 406.852,190.045 348.465,217.73 229.72,161.727 		"/>
		<polygon opacity="0.7" fill="#CCDEF0" stroke="#000000" stroke-width="0.5" stroke-dasharray="1" points="222.487,183.484 
			191.718,180.809 207.382,171.377 235.888,173.625 243.762,167.641 397.605,179.021 402.115,209.412 211.255,191.521 		"/>
		<g>
			<ellipse fill="#FFFFFF" stroke="#010101" stroke-miterlimit="1" cx="324.214" cy="140.744" rx="22.735" ry="8.969"/>
			<g>
				<g>
					<path fill="none" stroke="#010101" stroke-miterlimit="1" d="M306.091,123.773c-2.895-1.505-4.612-3.382-4.612-5.418
						c0-4.953,10.18-8.971,22.736-8.971s22.734,4.018,22.734,8.971c0,3.17-4.168,5.957-10.459,7.553"/>
					<g>
						<polygon fill="#010101" points="305.66,121.651 311.061,125.674 304.372,124.891 						"/>
					</g>
				</g>
			</g>
			<text transform="matrix(1 -7.700000e-04 7.700000e-04 1 351.373 122.1147)" font-size="9">Axis of Rotation</text>
			<line fill="none" stroke="#000000" x1="301.479" y1="133.355" x2="346.949" y2="148.648"/>
			<line fill="none" stroke="#000000" x1="302.844" y1="147.986" x2="346.949" y2="133.48"/>
			<polyline fill="#6799C8" stroke="#000000" stroke-linecap="round" stroke-linejoin="round" points="324.305,140.594 
				316.92,117.335 332.402,117.543 324.322,140.559 			"/>
			
				<ellipse transform="matrix(0.0107 0.9999 -0.9999 0.0107 438.4767 -208.7423)" fill="#CCDEF0" stroke="#000000" cx="324.729" cy="117.218" rx="2.381" ry="7.791"/>
			<path fill="none" stroke="#000000" stroke-linecap="round" d="M318.156,121.225c1.406,0.619,3.605,0.921,6.293,0.894
				c2.934-0.032,5.482-0.554,6.803-1.301"/>
			<path fill="none" stroke="#000000" stroke-linecap="round" d="M319.072,124.117c1.367,0.342,3.141,0.539,5.074,0.519
				c2.48-0.025,4.686-0.403,6.107-0.972"/>
			<path fill="none" stroke="#000000" stroke-linecap="round" d="M319.947,126.879c1.148,0.189,2.479,0.289,3.898,0.275
				c2.318-0.025,4.02-0.23,5.439-0.736"/>
			<path fill="none" stroke="#000000" stroke-linecap="round" d="M320.799,129.549c0.852,0.09,1.777,0.133,2.744,0.123
				c1.812-0.02,3.477-0.225,4.797-0.559"/>
			<path fill="none" stroke="#000000" stroke-linecap="round" d="M321.625,132.158c0.521,0.025,1.061,0.037,1.615,0.031
				c1.533-0.016,2.963-0.166,4.166-0.414"/>
			<path fill="none" stroke="#000000" stroke-linecap="round" d="M322.436,134.709c0.166,0,0.334,0,0.5-0.002
				c1.279-0.012,2.484-0.119,3.547-0.297"/>
			<line fill="none" stroke="#000000" stroke-linecap="round" x1="321.439" y1="119.408" x2="327.977" y2="115.023"/>
			
				<line fill="none" stroke="#000000" stroke-linecap="round" stroke-linejoin="round" x1="324.191" y1="188.539" x2="324.215" y2="141.75"/>
		</g>
		<g>
			<text transform="matrix(1 0 0 1 161.2725 173.8262)"><tspan x="0" y="0" fill="#00AEEF" font-size="12">Z</tspan><tspan x="8.415" y="5" fill="#00AEEF" font-size="9">t</tspan></text>
			<text transform="matrix(1 0 0 1 208.4575 141.8013)" fill="#00AEEF" font-size="12">Z</text>
			<text transform="matrix(1 0 0 1 295.7246 236.835)"><tspan x="0" y="0" fill="#0DB14B" font-size="12">Y, Y</tspan><tspan x="22.676" y="4" fill="#0DB14B" font-size="12">t</tspan></text>
			<text transform="matrix(1 0 0 1 333.1543 196.9902)"><tspan x="0" y="0" font-size="12">O</tspan><tspan x="9.418" y="5" font-size="9">t</tspan></text>
			<g>
				<g>
					<line fill="none" stroke="#0DB14B" stroke-width="2" x1="324.01" y1="189.131" x2="324.01" y2="224.062"/>
					<g>
						<polygon fill="#0DB14B" points="321.686,222.478 324.01,231.15 326.334,222.478 						"/>
					</g>
				</g>
			</g>
			<g>
				<g>
					<line fill="none" stroke="#00AEEF" stroke-width="2" x1="324.01" y1="189.131" x2="225.941" y2="141.985"/>
					<g>
						<polygon fill="#00AEEF" points="228.377,140.577 219.554,138.914 226.363,144.767 						"/>
					</g>
				</g>
			</g>
			<g>
				<text transform="matrix(1 0 0 1 91.2041 200.1543)"><tspan x="0" y="0" font-size="10">At</tspan><tspan x="9.448" y="4" font-size="10">1</tspan><tspan x="15.01" y="0" font-size="10">, Table Horizontal</tspan><tspan x="27.778" y="12" font-size="10">Rotation Angle</tspan></text>
			</g>
			<g>
				<g>
					
						<line fill="none" stroke="#00AEEF" stroke-width="2" stroke-dasharray="1,1" x1="324.01" y1="189.131" x2="181.87" y2="171.997"/>
					<g>
						<polygon fill="#00AEEF" points="183.722,169.879 174.833,171.148 183.165,174.494 						"/>
					</g>
				</g>
			</g>
			<g>
				<g>
					<path fill="none" stroke="#010101" stroke-miterlimit="1" d="M203.557,169.147c3.292-10.378,13.171-19.463,24.99-21.687"/>
					<g>
						<polygon fill="#010101" points="204.928,168.684 202.72,172.592 202.678,168.103 						"/>
					</g>
					<g>
						<polygon fill="#010101" points="227.939,148.769 232.069,147.01 227.613,146.467 						"/>
					</g>
				</g>
			</g>
			<text transform="matrix(1 0 0 1 357.0059 157.5703)"><tspan x="0" y="0" fill="#ED1C24" font-size="12">X</tspan><tspan x="8.004" y="5" fill="#ED1C24" font-size="12">t</tspan></text>
			<text transform="matrix(1 0 0 1 374.8994 176.2178)" fill="#ED1C24" font-size="12">X</text>
			<g>
				<g>
					<line fill="none" stroke="#ED1C24" stroke-width="2" x1="324.658" y1="188.775" x2="366.29" y2="174.216"/>
					<g>
						<polygon fill="#ED1C24" points="365.562,176.933 372.98,171.876 364.026,172.545 						"/>
					</g>
				</g>
			</g>
			<g>
				<g>
					
						<line fill="none" stroke="#ED1C24" stroke-width="2" stroke-dasharray="1,1" x1="324.655" y1="189.466" x2="354.932" y2="165.826"/>
					<g>
						<polygon fill="#ED1C24" points="355.113,168.634 360.519,161.465 352.252,164.97 						"/>
					</g>
				</g>
			</g>
		</g>
		<g>
			<g>
				<path fill="none" stroke="#0DB14B" d="M176.432,80.029"/>
			</g>
			<g>
				<g>
					<line fill="none" stroke="#0DB14B" stroke-width="2" x1="243.873" y1="80.294" x2="243.872" y2="105.928"/>
					<g>
						<polygon fill="#0DB14B" points="240.385,103.55 243.871,116.56 247.358,103.551 						"/>
					</g>
				</g>
			</g>
			<text transform="matrix(1 -0.0019 0.0019 1 174.833 70.1958)" fill="#00AEEF" font-size="12.5">+Z</text>
			<text transform="matrix(1 -0.0019 0.0019 1 292.8799 73.6187)" fill="#ED1C24" font-size="12.5">+X</text>
			
				<text transform="matrix(1 -0.0019 0.0019 1 224.2173 121.8247)" fill="#0DB14B" font-size="12.5">+Y</text>
			<text transform="matrix(1 -0.0048 0.0048 1 252.5488 102.5083)" font-size="12.5">(Tx, Ty, Tz)</text>
			<g>
				<text transform="matrix(1 -3.400000e-04 3.400000e-04 1 249.4214 73.6187)" font-size="12.5">O</text>
			</g>
			<line fill="none" stroke="#000000" stroke-width="2" stroke-dasharray="1" x1="253.363" y1="91.679" x2="244.559" y2="79.534"/>
			<line fill="none" stroke="#000000" stroke-width="2" stroke-dasharray="1" x1="324.01" y1="189.131" x2="266.371" y2="109.622"/>
			<g>
				<g>
					<line fill="none" stroke="#ED1C24" stroke-width="2" x1="244.559" y1="79.534" x2="285.895" y2="72.464"/>
					<g>
						<polygon fill="#ED1C24" points="284.725,75.022 292.881,71.269 283.94,70.44 						"/>
					</g>
				</g>
			</g>
			<g>
				<g>
					<line fill="none" stroke="#00AEEF" stroke-width="2" x1="240.74" y1="79.461" x2="197.255" y2="71.495"/>
					<g>
						<polygon fill="#00AEEF" points="199.233,69.494 190.283,70.218 198.395,74.067 						"/>
					</g>
				</g>
			</g>
		</g>
		<g>
			<path stroke="#000000" stroke-miterlimit="1" d="M249.771,79.539c0.002-3.26-2.641-5.898-5.9-5.898v5.902L249.771,79.539z"/>
			
				<path fill="#FFFFFF" stroke="#010101" stroke-width="0.75" stroke-linecap="round" stroke-linejoin="round" stroke-miterlimit="1" d="
				M243.871,73.641c-3.256,0-5.896,2.643-5.896,5.904l5.896-0.002V73.641z"/>
			<path stroke="#000000" stroke-miterlimit="1" d="M237.975,79.545c0.002,3.257,2.645,5.897,5.9,5.896l-0.004-5.898L237.975,79.545
				z"/>
			
				<path fill="#FFFFFF" stroke="#010101" stroke-width="0.75" stroke-linecap="round" stroke-linejoin="round" stroke-miterlimit="1" d="
				M243.871,79.543l0.004,5.898c3.258-0.002,5.898-2.645,5.896-5.902L243.871,79.543z"/>
		</g>
		<g>
			<path stroke="#000000" stroke-miterlimit="1" d="M327.898,188.515c0.002-2.209-1.79-3.997-3.999-3.997v4.001L327.898,188.515z"/>
			
				<path fill="#FFFFFF" stroke="#010101" stroke-width="0.75" stroke-linecap="round" stroke-linejoin="round" stroke-miterlimit="1" d="
				M323.899,184.518c-2.208,0-4.002,1.792-4.002,4.003l4.002-0.002V184.518z"/>
			<path stroke="#000000" stroke-miterlimit="1" d="M319.897,188.521c0.002,2.206,1.795,3.996,4.005,3.996l-0.003-3.998
				L319.897,188.521z"/>
			
				<path fill="#FFFFFF" stroke="#010101" stroke-width="0.75" stroke-linecap="round" stroke-linejoin="round" stroke-miterlimit="1" d="
				M323.899,188.519l0.003,3.998c2.208-0.002,3.998-1.793,3.996-4.002L323.899,188.519z"/>
		</g>
	</g>
</g>
</svg>
