<?xml version="1.0" encoding="utf-8"?>

<!DOCTYPE svg PUBLIC "-//W3C//DTD SVG 1.1//EN" "http://www.w3.org/Graphics/SVG/1.1/DTD/svg11.dtd">
<svg version="1.1" id="Layer_1" xmlns="http://www.w3.org/2000/svg" xmlns:xlink="http://www.w3.org/1999/xlink" x="0px" y="0px"
	 width="552px" height="97px" viewBox="0 0 552 97" enable-background="new 0 0 552 97" xml:space="preserve">

<defs>
	<style type="text/css">
	text {
	  font-family: Helvetica, Verdana, ArialUnicodeMS, san-serif
	}
	</style>
</defs>

<g>
   <desc>
	PS 3.17 Part 17: Explanatory Information
   </desc>
</g>

<g>
	<rect x="1" y="1" fill="#F5EED6" width="550" height="95"/>
	<g>
		
			<rect x="64.149" y="21" fill="#CCDEF0" stroke="#010101" stroke-width="0.75" stroke-linecap="round" stroke-linejoin="round" stroke-miterlimit="1" width="50" height="20"/>
		
			<rect x="273.387" y="21" fill="#CCDEF0" stroke="#010101" stroke-width="0.75" stroke-linecap="round" stroke-linejoin="round" stroke-miterlimit="1" width="136" height="20"/>
		
			<line fill="none" stroke="#010101" stroke-linecap="round" stroke-linejoin="round" stroke-miterlimit="8" x1="115.149" y1="31" x2="147.149" y2="31"/>
		
			<line fill="none" stroke="#010101" stroke-linecap="round" stroke-linejoin="round" stroke-miterlimit="8" x1="31.028" y1="31" x2="63.028" y2="31"/>
		
			<rect x="147.149" y="21" fill="#CCDEF0" stroke="#010101" stroke-width="0.75" stroke-linecap="round" stroke-linejoin="round" stroke-miterlimit="1" width="85" height="20"/>
		
			<line fill="none" stroke="#010101" stroke-linecap="round" stroke-linejoin="round" stroke-miterlimit="8" x1="232.149" y1="31" x2="272.148" y2="31"/>
		<text transform="matrix(1 0 0 1 75.5728 32.8867)"><tspan x="0" y="0" fill="#010101" font-size="10">S</tspan><tspan x="6.53" y="0" fill="#010101" font-size="10">t</tspan><tspan x="9.308" y="0" fill="#010101" font-size="10">u</tspan><tspan x="14.81" y="0" fill="#010101" font-size="10">d</tspan><tspan x="20.361" y="0" fill="#010101" font-size="10">y</tspan></text>
		<text transform="matrix(1 0 0 1 283.0342 32.8867)"><tspan x="0" y="0" fill="#010101" font-size="10">S</tspan><tspan x="6.53" y="0" fill="#010101" font-size="10">u</tspan><tspan x="12.031" y="0" fill="#010101" font-size="10">rfac</tspan><tspan x="28.701" y="0" fill="#010101" font-size="10">e</tspan><tspan x="34.233" y="0" fill="#010101" font-size="10"> </tspan><tspan x="37.011" y="0" fill="#010101" font-size="10">S</tspan><tspan x="43.541" y="0" fill="#010101" font-size="10">can </tspan><tspan x="62.442" y="0" fill="#010101" font-size="10">Mesh</tspan></text>
		<text transform="matrix(1 0 0 1 175.0015 33.666)" fill="#010101" font-size="10">Series</text>
		
			<rect x="273.387" y="56" fill="#CCDEF0" stroke="#010101" stroke-width="0.75" stroke-linecap="round" stroke-linejoin="round" stroke-miterlimit="1" width="136" height="20"/>
		<polyline fill="none" stroke="#010101" stroke-linecap="round" stroke-linejoin="round" stroke-miterlimit="8" points="
			147.149,66 131.149,66 131.149,31.12 		"/>
		
			<rect x="147.149" y="56" fill="#CCDEF0" stroke="#010101" stroke-width="0.75" stroke-linecap="round" stroke-linejoin="round" stroke-miterlimit="1" width="85" height="20"/>
		
			<line fill="none" stroke="#010101" stroke-linecap="round" stroke-linejoin="round" stroke-miterlimit="8" x1="232.149" y1="66" x2="272.148" y2="66"/>
		<text transform="matrix(1 0 0 1 283.0342 67.8867)" fill="#010101" font-size="10">VL Photographic Image</text>
		<text transform="matrix(1 0 0 1 175.0015 68.666)" fill="#010101" font-size="10">Series</text>
		<g>
			<g>
				<path fill="none" stroke="#ED1C24" stroke-linecap="round" stroke-linejoin="round" d="M409.291,31
					c9.094,0,16.465,7.371,16.465,16.465c0,7.258-4.695,13.418-11.214,15.61"/>
				<g>
					<polygon fill="#ED1C24" points="415.374,61.042 409.291,63.93 416.003,64.471 					"/>
				</g>
			</g>
		</g>
		<text transform="matrix(1 0 0 1 464.0352 20.627)"><tspan x="0" y="0" fill="#010101" font-size="10">UV Mapping</tspan><tspan x="0" y="12" fill="#010101" font-size="10">Sequence</tspan></text>
		<path fill="none" stroke="#000000" stroke-width="0.5" stroke-miterlimit="10" d="M452.969,20.268"/>
		<path fill="none" stroke="#000000" stroke-width="0.5" stroke-miterlimit="10" d="M452.969,20.628"/>
		<polyline fill="none" stroke="#000000" stroke-width="0.5" stroke-miterlimit="10" points="461.636,17.189 452.729,17.189 
			424.5,39.827 		"/>
	</g>
</g>
</svg>
