<?xml version="1.0" encoding="utf-8"?>

<!DOCTYPE svg PUBLIC "-//W3C//DTD SVG 1.1//EN" "http://www.w3.org/Graphics/SVG/1.1/DTD/svg11.dtd">
<svg version="1.1" id="Layer_1" xmlns="http://www.w3.org/2000/svg" xmlns:xlink="http://www.w3.org/1999/xlink" x="0px" y="0px"
	 width="552px" height="52px" viewBox="0 0 552 52" enable-background="new 0 0 552 52" xml:space="preserve">

<defs>
	<style type="text/css">
	text {
	  font-family: Helvetica, Verdana, ArialUnicodeMS, san-serif
	}
	</style>
</defs>

<g>
   <desc>
	PS 3.17 Part 17: Explanatory Information
   </desc>
</g>

<g>
	<rect x="1" y="1" fill="#F5EED6" width="550" height="50"/>
	<g>
		
			<rect x="103.381" y="16" fill="#CCDEF0" stroke="#010101" stroke-width="0.75" stroke-linecap="round" stroke-linejoin="round" stroke-miterlimit="1" width="50" height="20"/>
		
			<rect x="312.619" y="16" fill="#CCDEF0" stroke="#010101" stroke-width="0.75" stroke-linecap="round" stroke-linejoin="round" stroke-miterlimit="1" width="136" height="20"/>
		
			<line fill="none" stroke="#010101" stroke-linecap="round" stroke-linejoin="round" stroke-miterlimit="8" x1="154.381" y1="26" x2="186.381" y2="26"/>
		
			<rect x="186.381" y="16" fill="#CCDEF0" stroke="#010101" stroke-width="0.75" stroke-linecap="round" stroke-linejoin="round" stroke-miterlimit="1" width="85" height="20"/>
		
			<line fill="none" stroke="#010101" stroke-linecap="round" stroke-linejoin="round" stroke-miterlimit="8" x1="271.381" y1="26" x2="311.381" y2="26"/>
		<text transform="matrix(1 0 0 1 114.8052 27.8867)"><tspan x="0" y="0" fill="#010101" font-size="10">S</tspan><tspan x="6.53" y="0" fill="#010101" font-size="10">t</tspan><tspan x="9.308" y="0" fill="#010101" font-size="10">u</tspan><tspan x="14.81" y="0" fill="#010101" font-size="10">d</tspan><tspan x="20.361" y="0" fill="#010101" font-size="10">y</tspan></text>
		<text transform="matrix(1 0 0 1 322.2666 27.8867)"><tspan x="0" y="0" fill="#010101" font-size="10">S</tspan><tspan x="6.53" y="0" fill="#010101" font-size="10">u</tspan><tspan x="12.031" y="0" fill="#010101" font-size="10">rfac</tspan><tspan x="28.701" y="0" fill="#010101" font-size="10">e</tspan><tspan x="34.233" y="0" fill="#010101" font-size="10"> </tspan><tspan x="37.011" y="0" fill="#010101" font-size="10">S</tspan><tspan x="43.541" y="0" fill="#010101" font-size="10">can </tspan><tspan x="62.442" y="0" fill="#010101" font-size="10">P</tspan><tspan x="69.093" y="0" fill="#010101" font-size="10">o</tspan><tspan x="74.624" y="0" fill="#010101" font-size="10">int </tspan><tspan x="87.964" y="0" fill="#010101" font-size="10">C</tspan><tspan x="95.115" y="0" fill="#010101" font-size="10">l</tspan><tspan x="97.337" y="0" fill="#010101" font-size="10">o</tspan><tspan x="102.868" y="0" fill="#010101" font-size="10">u</tspan><tspan x="108.37" y="0" fill="#010101" font-size="10">d </tspan></text>
		<text transform="matrix(1 0 0 1 214.2339 28.666)" fill="#010101" font-size="10">Series</text>
	</g>
</g>
</svg>
