<?xml version="1.0" encoding="utf-8"?>

<!DOCTYPE svg PUBLIC "-//W3C//DTD SVG 1.1//EN" "http://www.w3.org/Graphics/SVG/1.1/DTD/svg11.dtd">
<svg version="1.1" id="Layer_1" xmlns="http://www.w3.org/2000/svg" xmlns:xlink="http://www.w3.org/1999/xlink" x="0px" y="0px"
	 width="502px" height="162px" viewBox="0 0 502 162" enable-background="new 0 0 502 162" xml:space="preserve">

<defs>
	<style type="text/css">
	text {
	  font-family: Helvetica, Verdana, ArialUnicodeMS, san-serif
	}
	</style>
</defs>

<g>
   <desc>
	PS 3.17 Part 17: Explanatory Information
   </desc>
</g>

<g>
	<rect x="1" y="1" fill="#F5EED6" width="500" height="160"/>
	<g>
		<g>
			<g>
				<polyline fill="none" stroke="#005695" stroke-width="2" stroke-linejoin="round" points="246.112,94.747 246.112,101.43 
					209.833,101.43 209.818,105.579 				"/>
				<g>
					<polygon fill="#005695" points="207.5,103.985 209.791,112.667 212.148,104.003 					"/>
				</g>
			</g>
		</g>
		<g>
			<g>
				<polyline fill="none" stroke="#005695" stroke-width="2" stroke-linejoin="round" points="256.176,94.747 256.176,101.43 
					291.532,101.43 291.532,105.579 				"/>
				<g>
					<polygon fill="#005695" points="289.208,103.994 291.532,112.667 293.856,103.994 					"/>
				</g>
			</g>
		</g>
		<g>
			<g>
				
					<line fill="none" stroke="#005695" stroke-width="2" stroke-linejoin="round" x1="250.958" y1="48.611" x2="250.999" y2="55.852"/>
				<g>
					<polygon fill="#005695" points="248.666,54.28 251.04,62.939 253.314,54.253 					"/>
				</g>
			</g>
		</g>
		
			<rect x="170.406" y="113.711" fill="#86B2D8" stroke="#010101" stroke-width="0.75" stroke-linecap="round" stroke-linejoin="round" stroke-miterlimit="1" width="79" height="32"/>
		<g>
			<text transform="matrix(1 0 0 1 175.1396 127.1855)"><tspan x="0" y="0" font-size="12">Radionuclide</tspan><tspan x="0.006" y="11.732" font-size="12">Vial Identifier</tspan></text>
		</g>
		
			<rect x="170.406" y="62.939" fill="#86B2D8" stroke="#010101" stroke-width="0.75" stroke-linecap="round" stroke-linejoin="round" stroke-miterlimit="1" width="161.187" height="32"/>
		<g>
			<text transform="matrix(1 0 0 1 194.6367 76.4136)"><tspan x="0" y="0" font-size="12">Radiopharmaceutical</tspan><tspan x="23.344" y="11.733" font-size="12">Lot Identifier</tspan></text>
		</g>
		
			<rect x="170.406" y="16.289" fill="#86B2D8" stroke="#010101" stroke-width="0.75" stroke-linecap="round" stroke-linejoin="round" stroke-miterlimit="1" width="161.188" height="32"/>
		<g>
			<text transform="matrix(1 0 0 1 194.5571 29.7622)"><tspan x="0" y="0" font-size="12">Radiopharmaceutical</tspan><tspan x="-5.666" y="11.733" font-size="12">Dispense Unit Identifier</tspan></text>
		</g>
		
			<rect x="252.206" y="113.711" fill="#86B2D8" stroke="#010101" stroke-width="0.75" stroke-linecap="round" stroke-linejoin="round" stroke-miterlimit="1" width="79" height="32"/>
		<g>
			<text transform="matrix(1 0 0 1 268.9424 127.1846)"><tspan x="0" y="0" font-size="12">Reagent</tspan><tspan x="-12" y="11.733" font-size="12">Vial Identifier</tspan></text>
		</g>
	</g>
</g>
</svg>
