<?xml version="1.0" encoding="utf-8"?>

<!DOCTYPE svg PUBLIC "-//W3C//DTD SVG 1.1//EN" "http://www.w3.org/Graphics/SVG/1.1/DTD/svg11.dtd">
<svg version="1.1" id="Layer_1" xmlns="http://www.w3.org/2000/svg" xmlns:xlink="http://www.w3.org/1999/xlink" x="0px" y="0px"
	 width="502px" height="272px" viewBox="0 0 502 272" enable-background="new 0 0 502 272" xml:space="preserve">

<defs>
	<style type="text/css">
	text {
	  font-family: Helvetica, Verdana, ArialUnicodeMS, san-serif
	}
	</style>
</defs>

<g>
   <desc>
	PS 3.17 Part 17: Explanatory Information
   </desc>
</g>

<g>
	<rect x="1" y="1" fill="#F5EED6" width="500" height="270"/>
	<g>
		<path fill="#005695" stroke="#005695" stroke-linecap="round" stroke-linejoin="round" stroke-miterlimit="8" d="M307.46,58.035
			c0-11,10-20,21-20s21,9,21,21h17c0-21-17-38-38-38c-20-1-38,16-39,36L307.46,58.035z"/>
		
			<line fill="none" stroke="#ED2224" stroke-linecap="round" stroke-linejoin="round" stroke-miterlimit="8" x1="322.46" y1="62.035" x2="330.46" y2="54.035"/>
		
			<line fill="none" stroke="#ED2224" stroke-linecap="round" stroke-linejoin="round" stroke-miterlimit="8" x1="322.46" y1="54.035" x2="330.46" y2="62.035"/>
		<path fill="none" stroke="#0DB14B" stroke-linecap="round" stroke-linejoin="round" stroke-miterlimit="8" d="M287.46,55.035
			c-1,1-1,3,0,4s3,1,4,0s1-3,0-4S288.46,54.035,287.46,55.035z"/>
		
			<line fill="none" stroke="#0DB14B" stroke-linecap="round" stroke-linejoin="round" stroke-miterlimit="8" x1="285.46" y1="61.035" x2="293.46" y2="53.035"/>
		
			<line fill="none" stroke="#0DB14B" stroke-linecap="round" stroke-linejoin="round" stroke-miterlimit="8" x1="285.46" y1="53.035" x2="293.46" y2="61.035"/>
		<path fill="none" stroke="#0DB14B" stroke-linecap="round" stroke-linejoin="round" stroke-miterlimit="8" d="M364.46,57.035
			c-1,1-1,3,0,4s3,1,4,0s1-3,0-4S365.46,56.035,364.46,57.035z"/>
		
			<line fill="none" stroke="#0DB14B" stroke-linecap="round" stroke-linejoin="round" stroke-miterlimit="8" x1="362.46" y1="63.035" x2="370.46" y2="55.035"/>
		
			<line fill="none" stroke="#0DB14B" stroke-linecap="round" stroke-linejoin="round" stroke-miterlimit="8" x1="362.46" y1="55.035" x2="370.46" y2="63.035"/>
		<path fill="#B3B3B3" stroke="#000000" stroke-linejoin="bevel" d="M205.371,53.275c-0.27-1.207-0.411-2.458-0.411-3.74
			c0-9.941,8.507-18,19-18s19,8.059,19,18s-8.507,18-19,18c-2.055,0-4.033-0.309-5.887-0.88l0.008-0.002l-26.617,23.358
			l-1.004,7.023l-8.799,133v0.081l-4.042,16l-4.841-16.081l-10.519-133l-5.8-28l21-24l12.246,13.996v0.004h9.102L205.371,53.275
			L205.371,53.275z"/>
		
			<line fill="none" stroke="#ED2224" stroke-linecap="round" stroke-linejoin="round" stroke-miterlimit="8" x1="217.46" y1="50.035" x2="229.46" y2="50.035"/>
		
			<line fill="none" stroke="#ED2224" stroke-linecap="round" stroke-linejoin="round" stroke-miterlimit="8" x1="223.46" y1="44.035" x2="223.46" y2="56.035"/>
		<g>
			<g>
				
					<line fill="none" stroke="#0DB14B" stroke-width="0.5" stroke-linecap="round" stroke-linejoin="round" x1="131.54" y1="52.942" x2="132.389" y2="53.472"/>
				
					<line fill="none" stroke="#0DB14B" stroke-width="0.5" stroke-linecap="round" stroke-linejoin="round" stroke-dasharray="1.9969,1.9969" x1="134.083" y1="54.528" x2="221.344" y2="108.947"/>
				
					<line fill="none" stroke="#0DB14B" stroke-width="0.5" stroke-linecap="round" stroke-linejoin="round" x1="222.191" y1="109.476" x2="223.04" y2="110.005"/>
			</g>
		</g>
		<g>
			<g>
				
					<line fill="none" stroke="#0DB14B" stroke-width="0.5" stroke-linecap="round" stroke-linejoin="round" x1="177.54" y1="255.035" x2="177.54" y2="254.035"/>
				
					<line fill="none" stroke="#0DB14B" stroke-width="0.5" stroke-linecap="round" stroke-linejoin="round" stroke-dasharray="1.9838,1.9838" x1="177.54" y1="252.052" x2="177.54" y2="18.957"/>
				
					<line fill="none" stroke="#0DB14B" stroke-width="0.5" stroke-linecap="round" stroke-linejoin="round" x1="177.54" y1="17.965" x2="177.54" y2="16.965"/>
			</g>
		</g>
		<g>
			<g>
				
					<line fill="none" stroke="#0DB14B" stroke-width="0.5" stroke-linecap="round" stroke-linejoin="round" x1="131.54" y1="99.535" x2="132.54" y2="99.535"/>
				
					<line fill="none" stroke="#0DB14B" stroke-width="0.5" stroke-linecap="round" stroke-linejoin="round" stroke-dasharray="2,2" x1="134.54" y1="99.535" x2="221.54" y2="99.535"/>
				
					<line fill="none" stroke="#0DB14B" stroke-width="0.5" stroke-linecap="round" stroke-linejoin="round" x1="222.54" y1="99.535" x2="223.54" y2="99.535"/>
			</g>
		</g>
		<g>
			<g>
				
					<line fill="none" stroke="#0DB14B" stroke-width="0.5" stroke-linecap="round" stroke-linejoin="round" x1="132.04" y1="199.535" x2="133.04" y2="199.535"/>
				
					<line fill="none" stroke="#0DB14B" stroke-width="0.5" stroke-linecap="round" stroke-linejoin="round" stroke-dasharray="1.9778,1.9778" x1="135.018" y1="199.535" x2="221.051" y2="199.535"/>
				
					<line fill="none" stroke="#0DB14B" stroke-width="0.5" stroke-linecap="round" stroke-linejoin="round" x1="222.04" y1="199.535" x2="223.04" y2="199.535"/>
			</g>
		</g>
		<g>
			<g>
				<path fill="none" stroke="#000000" stroke-miterlimit="10" d="M228.568,61.949c5.903,13.852,20.595,25.505,39.464,29.489
					c23.72,5.008,46.298-3.736,54.968-19.999"/>
				<g>
					<polygon points="226.475,64.651 226.121,53.434 232.038,62.971 					"/>
				</g>
				<g>
					<polygon points="324.886,74.272 326.035,63.108 319.457,72.202 					"/>
				</g>
			</g>
		</g>
	</g>
</g>
</svg>
