<?xml version="1.0" encoding="utf-8"?>

<!DOCTYPE svg PUBLIC "-//W3C//DTD SVG 1.1//EN" "http://www.w3.org/Graphics/SVG/1.1/DTD/svg11.dtd">
<svg version="1.1" id="Layer_1" xmlns="http://www.w3.org/2000/svg" xmlns:xlink="http://www.w3.org/1999/xlink" x="0px" y="0px"
	 width="502.001px" height="167px" viewBox="0 0 502.001 167" enable-background="new 0 0 502.001 167" xml:space="preserve">

<defs>
	<style type="text/css">
	text {
	  font-family: Helvetica, Verdana, ArialUnicodeMS, san-serif
	}
	</style>
</defs>

<g>
   <desc>
	PS 3.17 Part 17: Explanatory Information
   </desc>
</g>

<g>
	<rect x="1" y="1" fill="#F5EED6" width="500.001" height="165"/>
	<g>
		
			<line fill="none" stroke="#010101" stroke-linecap="round" stroke-linejoin="round" stroke-miterlimit="8" stroke-dasharray="0.01,1.99" x1="207.012" y1="121.825" x2="294.512" y2="34.325"/>
		
			<line fill="none" stroke="#010101" stroke-linecap="round" stroke-linejoin="round" stroke-miterlimit="8" x1="207.012" y1="59.325" x2="294.512" y2="34.325"/>
		
			<line fill="none" stroke="#010101" stroke-linecap="round" stroke-linejoin="round" stroke-miterlimit="8" x1="294.512" y1="34.325" x2="282.012" y2="134.325"/>
		
			<polygon opacity="0.5" fill="#6799C8" stroke="#010101" stroke-linecap="round" stroke-linejoin="round" stroke-miterlimit="8" points="
			282.012,134.325 207.012,59.325 207.012,121.825 		"/>
		<polygon fill="none" stroke="#010101" stroke-linecap="round" stroke-linejoin="round" stroke-miterlimit="8" points="
			282.012,134.325 207.012,59.325 207.012,121.825 		"/>
		<circle fill="#CCDEF0" stroke="#010101" stroke-miterlimit="10" cx="282.012" cy="133.63" r="6.25"/>
		<circle fill="#CCDEF0" stroke="#010101" stroke-miterlimit="10" cx="294.512" cy="34.325" r="6.25"/>
		<circle fill="#CCDEF0" stroke="#010101" stroke-miterlimit="10" cx="207.012" cy="59.325" r="6.25"/>
		<circle fill="#CCDEF0" stroke="#010101" stroke-miterlimit="10" cx="207.012" cy="121.825" r="6.25"/>
		<text transform="matrix(1 0 0 1 194.7808 48.752)" font-size="12">a</text>
		<text transform="matrix(1 0 0 1 193.7012 134.5625)" font-size="12">b</text>
		<text transform="matrix(1 0 0 1 288.2812 147.252)" font-size="12">c</text>
		<text transform="matrix(1 0 0 1 301.5312 26.7817)" font-size="12">d</text>
	</g>
</g>
</svg>
