<?xml version="1.0" encoding="utf-8"?>

<!DOCTYPE svg PUBLIC "-//W3C//DTD SVG 1.1//EN" "http://www.w3.org/Graphics/SVG/1.1/DTD/svg11.dtd">
<svg version="1.1" id="Layer_1" xmlns="http://www.w3.org/2000/svg" xmlns:xlink="http://www.w3.org/1999/xlink" x="0px" y="0px"
	 width="502px" height="172px" viewBox="0 0 502 172" enable-background="new 0 0 502 172" xml:space="preserve">

<defs>
	<style type="text/css">
	text {
	  font-family: Helvetica, Verdana, ArialUnicodeMS, san-serif
	}
	</style>
</defs>

<g>
   <desc>
	PS 3.17 Part 17: Explanatory Information
   </desc>
</g>

<g>
	<rect x="1" y="1" fill="#F5EED6" width="500" height="170"/>
	<g>
		<g>
			<path fill="#CCDEF0" d="M210.933,154.697c0,0.561-0.493,1.014-1.1,1.014H42.297c-0.607,0-1.1-0.453-1.1-1.014V17.301
				c0-0.56,0.493-1.013,1.1-1.013h167.536c0.607,0,1.1,0.453,1.1,1.013V154.697z"/>
			<path fill="none" stroke="#000000" stroke-linecap="round" stroke-miterlimit="1" stroke-dasharray="2.0016,2.0016" d="
				M210.933,154.697c0,0.561-0.493,1.014-1.1,1.014H42.297c-0.607,0-1.1-0.453-1.1-1.014V17.301c0-0.56,0.493-1.013,1.1-1.013
				h167.536c0.607,0,1.1,0.453,1.1,1.013V154.697z"/>
		</g>
		<g>
			<path fill="#CCDEF0" d="M460.805,154.697c0,0.561-0.326,1.014-0.729,1.014H349.115c-0.402,0-0.729-0.453-0.729-1.014V17.301
				c0-0.56,0.326-1.013,0.729-1.013h110.961c0.402,0,0.729,0.453,0.729,1.013V154.697z"/>
			<path fill="none" stroke="#000000" stroke-linecap="round" stroke-miterlimit="1" stroke-dasharray="1.9928,1.9928" d="
				M460.805,154.697c0,0.561-0.326,1.014-0.729,1.014H349.115c-0.402,0-0.729-0.453-0.729-1.014V17.301
				c0-0.56,0.326-1.013,0.729-1.013h110.961c0.402,0,0.729,0.453,0.729,1.013V154.697z"/>
		</g>
		<polygon fill="#6799C8" stroke="#010101" stroke-linecap="round" stroke-linejoin="round" stroke-miterlimit="8" points="
			93.418,27.526 53.66,126.92 98.719,144.148 138.477,44.753 		"/>
		
			<path fill="#CCDEF0" stroke="#010101" stroke-linecap="round" stroke-linejoin="round" stroke-miterlimit="8" stroke-dasharray="4,3" d="
			M118.598,44.753c-3.976-3.976-14.578-1.325-22.529,7.952c-9.277,7.951-11.927,18.554-7.952,22.529
			c5.301,5.301,15.903,2.65,23.855-6.626C121.249,60.657,123.899,50.055,118.598,44.753z"/>
		<g>
			<g>
				<g>
					<line fill="none" stroke="#ED1C24" stroke-width="0.5689" x1="113.425" y1="49.812" x2="125.483" y2="49.812"/>
					<g>
						<polygon fill="#ED1C24" points="124.356,51.465 130.523,49.812 124.356,48.159 						"/>
					</g>
				</g>
			</g>
			<g>
				<g>
					<line fill="none" stroke="#ED1C24" stroke-width="0.5689" x1="113.363" y1="49.81" x2="113.363" y2="37.315"/>
					<g>
						<polygon fill="#ED1C24" points="115.016,38.442 113.363,32.275 111.71,38.442 						"/>
					</g>
				</g>
			</g>
			<g>
				<path stroke="#000000" stroke-width="0.5689" stroke-miterlimit="1" d="M113.363,45.974c-2.121,0-3.84,1.721-3.84,3.838h3.84
					V45.974z"/>
				
					<path fill="#FFFFFF" stroke="#010101" stroke-width="0.4267" stroke-linecap="round" stroke-linejoin="round" stroke-miterlimit="1" d="
					M109.523,49.812c0,2.125,1.719,3.842,3.84,3.842v-3.842H109.523z"/>
				<path stroke="#000000" stroke-width="0.5689" stroke-miterlimit="1" d="M113.363,53.654c2.123,0,3.841-1.717,3.841-3.842h-3.841
					V53.654z"/>
				
					<path fill="#FFFFFF" stroke="#010101" stroke-width="0.4267" stroke-linecap="round" stroke-linejoin="round" stroke-miterlimit="1" d="
					M113.363,49.812h3.841c0-2.117-1.718-3.838-3.841-3.838V49.812z"/>
			</g>
		</g>
		<g>
			<g>
				<g>
					<line fill="none" stroke="#ED1C24" stroke-width="0.5689" x1="97.424" y1="65.813" x2="109.482" y2="65.813"/>
					<g>
						<polygon fill="#ED1C24" points="108.355,67.466 114.522,65.813 108.355,64.16 						"/>
					</g>
				</g>
			</g>
			<g>
				<g>
					<line fill="none" stroke="#ED1C24" stroke-width="0.5689" x1="97.362" y1="65.811" x2="97.362" y2="53.316"/>
					<g>
						<polygon fill="#ED1C24" points="99.015,54.443 97.362,48.276 95.709,54.443 						"/>
					</g>
				</g>
			</g>
			<g>
				<path stroke="#000000" stroke-width="0.5689" stroke-miterlimit="1" d="M97.362,61.975c-2.121,0-3.84,1.721-3.84,3.838h3.84
					V61.975z"/>
				
					<path fill="#FFFFFF" stroke="#010101" stroke-width="0.4267" stroke-linecap="round" stroke-linejoin="round" stroke-miterlimit="1" d="
					M93.522,65.813c0,2.125,1.719,3.842,3.84,3.842v-3.842H93.522z"/>
				<path stroke="#000000" stroke-width="0.5689" stroke-miterlimit="1" d="M97.362,69.655c2.123,0,3.841-1.717,3.841-3.842h-3.841
					V69.655z"/>
				
					<path fill="#FFFFFF" stroke="#010101" stroke-width="0.4267" stroke-linecap="round" stroke-linejoin="round" stroke-miterlimit="1" d="
					M97.362,65.813h3.841c0-2.117-1.718-3.838-3.841-3.838V65.813z"/>
			</g>
		</g>
		<polygon fill="#6799C8" stroke="#010101" stroke-linecap="round" stroke-linejoin="round" stroke-miterlimit="8" points="
			401.396,28.851 361.639,128.246 405.372,145.475 445.13,46.079 		"/>
		
			<rect x="387.666" y="68.057" transform="matrix(0.4472 0.8944 -0.8944 0.4472 307.454 -325.7946)" fill="#B2CEE7" stroke="#010101" stroke-miterlimit="10" width="59.267" height="35.561"/>
		<circle fill="none" stroke="#010101" stroke-miterlimit="10" cx="405.373" cy="67.284" r="1.988"/>
		<rect x="162.687" y="68.412" fill="#B2CEE7" stroke="#010101" stroke-miterlimit="10" width="35.782" height="59.637"/>
		<g>
			<g>
				<g>
					<line fill="none" stroke="#0DB14B" stroke-width="0.5418" x1="190.68" y1="120.311" x2="183.309" y2="111.504"/>
					<g>
						<polygon fill="#0DB14B" points="185.205,111.316 180.228,107.822 182.791,113.337 						"/>
					</g>
				</g>
			</g>
			<g>
				<g>
					<line fill="none" stroke="#0DB14B" stroke-width="0.5418" x1="190.179" y1="120.729" x2="181.053" y2="128.366"/>
					<g>
						<polygon fill="#0DB14B" points="180.866,126.47 177.372,131.447 182.887,128.885 						"/>
					</g>
				</g>
			</g>
			<g>
				<path stroke="#000000" stroke-width="0.5418" stroke-miterlimit="1" d="M187.912,122.703c1.297,1.549,3.603,1.754,5.153,0.455
					l-2.348-2.803L187.912,122.703z"/>
				
					<path fill="#FFFFFF" stroke="#010101" stroke-width="0.4064" stroke-linecap="round" stroke-linejoin="round" stroke-miterlimit="1" d="
					M193.065,123.158c1.55-1.297,1.754-3.604,0.458-5.15l-2.805,2.348L193.065,123.158z"/>
				<path stroke="#000000" stroke-width="0.5418" stroke-miterlimit="1" d="M193.522,118.008c-1.297-1.551-3.603-1.756-5.153-0.459
					l2.348,2.807L193.522,118.008z"/>
				
					<path fill="#FFFFFF" stroke="#010101" stroke-width="0.4064" stroke-linecap="round" stroke-linejoin="round" stroke-miterlimit="1" d="
					M190.717,120.355l-2.348-2.807c-1.549,1.299-1.755,3.604-0.458,5.154L190.717,120.355z"/>
			</g>
		</g>
		
			<line fill="none" stroke="#010101" stroke-width="0.5" stroke-linecap="round" stroke-linejoin="round" stroke-miterlimit="8" stroke-dasharray="2,2" x1="97.424" y1="65.813" x2="204.957" y2="129.129"/>
		<g>
			<g>
				
					<line fill="none" stroke="#005695" stroke-width="2" stroke-linecap="round" stroke-miterlimit="1" x1="220.149" y1="86" x2="329.461" y2="86"/>
				<g>
					<polygon fill="#005695" points="327.083,89.486 340.092,86 327.083,82.514 					"/>
				</g>
			</g>
		</g>
		
			<rect x="255.656" y="60" fill="#FFFFFF" stroke="#000000" stroke-linecap="round" stroke-miterlimit="1" width="40.289" height="52"/>
		<g>
			
				<line fill="none" stroke="#005695" stroke-linecap="round" stroke-miterlimit="1" x1="288.428" y1="88.957" x2="268.58" y2="107"/>
			<g>
				<g>
					
						<line fill="none" stroke="#005695" stroke-linecap="round" stroke-miterlimit="1" x1="288.428" y1="88.957" x2="288.428" y2="87.957"/>
					
						<line fill="none" stroke="#005695" stroke-linecap="round" stroke-miterlimit="1" stroke-dasharray="1.9961,1.9961" x1="288.428" y1="85.961" x2="288.428" y2="66.999"/>
					<line fill="none" stroke="#005695" stroke-linecap="round" stroke-miterlimit="1" x1="288.428" y1="66" x2="288.428" y2="65"/>
				</g>
			</g>
			<g>
				<g>
					<path fill="none" stroke="#005695" stroke-linecap="round" stroke-miterlimit="1" d="M268.182,103.777
						c-3.559-3.916-5.728-9.113-5.728-14.82c0-9.141,6.18-16.979,14.411-20.311"/>
					<g>
						<polygon fill="#005695" points="275.596,72.1 285.56,66.934 274.348,66.425 						"/>
					</g>
				</g>
			</g>
		</g>
		<text transform="matrix(1 0 0 1 62.3687 124.0117)" font-size="14">1</text>
		<text transform="matrix(1 0 0 1 368.3691 126.0859)" font-size="14">1</text>
		<text transform="matrix(1 0 0 1 187.0586 82.0107)" font-size="14">2</text>
		<text transform="matrix(1 0 0 1 432.3926 104.8379)" font-size="14">2</text>
	</g>
</g>
</svg>
