<?xml version="1.0" encoding="utf-8"?>

<!DOCTYPE svg PUBLIC "-//W3C//DTD SVG 1.1//EN" "http://www.w3.org/Graphics/SVG/1.1/DTD/svg11.dtd">
<svg version="1.1" id="Layer_1" xmlns="http://www.w3.org/2000/svg" xmlns:xlink="http://www.w3.org/1999/xlink" x="0px" y="0px"
	 width="502.001px" height="397px" viewBox="0 0 502.001 397" enable-background="new 0 0 502.001 397" xml:space="preserve">

<defs>
	<style type="text/css">
	text {
	  font-family: Helvetica, Verdana, ArialUnicodeMS, san-serif
	}
	</style>
</defs>

<g>
   <desc>
	PS 3.17 Part 17: Explanatory Information
   </desc>
</g>

<g>
	<rect x="1" y="1" fill="#F5EED6" width="500.001" height="395"/>
	<g>
		<g>
			<g>
				
					<line fill="none" stroke="#005695" stroke-width="3" stroke-miterlimit="1" x1="265.234" y1="335.708" x2="265.234" y2="351.749"/>
				<g>
					<polygon fill="#005695" points="261.748,349.371 265.234,362.38 268.72,349.371 					"/>
				</g>
			</g>
		</g>
		
			<line fill="none" stroke="#005695" stroke-width="3" stroke-miterlimit="1" x1="265.234" y1="311.436" x2="265.234" y2="323.708"/>
		<text transform="matrix(1 0 0 1 189.7671 59.6377)" font-size="9">DICOM Worklist</text>
		<text transform="matrix(1 0 0 1 279.0591 59.6377)" font-size="9">HL7</text>
		<g>
			
				<rect x="218.234" y="13.42" fill="#86B2D8" stroke="#010101" stroke-width="0.75" stroke-linecap="round" stroke-linejoin="round" stroke-miterlimit="1" width="94" height="24"/>
			<g>
				<text transform="matrix(1 0 0 1 230.0449 27.9258)" font-size="9">Procedure Orders</text>
			</g>
		</g>
		<g>
			<path id="path29274" fill="#E6E6E6" stroke="#000000" stroke-width="0.5" stroke-linecap="round" stroke-linejoin="round" d="
				M259.388,151.564l1.594,1.594c0,3.898,0,6.11,0,10.098c-1.062,1.594-7.265,13.466-10.631,20.198
				c-1.062,2.126-1.061,4.783,0.534,6.909c1.063,1.595,2.919,2.128,4.781,2.128c6.378,0,12.757,0,19.135,0
				c1.862,0,3.718-0.533,4.781-2.128c1.595-2.126,1.597-4.783,0.534-6.909c-3.012-6.732-6.556-13.466-9.567-20.198
				c0-3.898,0-6.199,0-10.098l1.542-1.542l0.052-0.052H259.388z"/>
			<path id="path29274_1_" fill="#8DC63F" stroke="#000000" stroke-width="0.25" stroke-linecap="round" stroke-miterlimit="10" d="
				M258.606,167.509c-2.403,4.485-5.978,11.392-8.255,15.945c-1.062,2.126-1.061,4.783,0.534,6.909
				c1.063,1.595,2.919,2.128,4.781,2.128c6.378,0,12.757,0,19.135,0c1.862,0,3.718-0.533,4.781-2.128
				c1.595-2.126,1.597-4.783,0.534-6.909c-2.377-5.312-5.085-10.625-7.601-15.938L258.606,167.509z"/>
			<path id="path6038" fill="#FFFFFF" d="M269.755,153.114c0,3.438,0,6.875,0,10.312c3.384,7.154,6.782,14.305,10.155,21.462
				c0.944,2.233-0.232,4.838-2.274,5.982c-1.819,1.222-4.062,0.75-6.111,0.834c-1.45,0-2.9,0-4.351,0
				c2.597-0.334,5.246-0.397,7.808-0.914c1.683-0.525,3.726-1.461,3.829-3.493c0.105-2.169-1.255-4.005-1.979-5.965
				c-2.609-5.969-5.218-11.938-7.827-17.906c0-3.438,0-6.875,0-10.312l1.356-1.362h0.754L269.755,153.114L269.755,153.114z"/>
			<path id="path1613" fill="#010101" fill-opacity="0.1762" d="M261.876,153.114c0,3.438,0,6.875,0,10.312
				c-3.384,7.154-7.454,13.655-10.827,20.812c-0.943,2.234-0.188,5.25,1.688,6.562c1.875,0.938,1.312,0.75,3.433,0.996
				c1.449,0,6.838-0.093,8.287-0.093c-2.596-0.334-5.245-0.397-7.807-0.914c-1.683-0.525-3.727-1.461-3.829-3.493
				c-0.106-2.169,1.255-4.005,1.979-5.965c2.608-5.969,5.218-11.938,7.827-17.906c0-3.438,0-6.875,0-10.312l-1.355-1.362h-0.756
				L261.876,153.114L261.876,153.114z"/>
		</g>
		<g>
			
				<rect x="218.234" y="95.564" fill="#FFC20E" stroke="#010101" stroke-width="0.75" stroke-linecap="round" stroke-linejoin="round" stroke-miterlimit="1" width="94" height="36"/>
			<text transform="matrix(1 0 0 1 250.2954 105.27)"><tspan x="0" y="0" font-size="9">Hot Lab</tspan><tspan x="-10.114" y="10.8" font-size="9">Management</tspan><tspan x="0.627" y="21.6" font-size="9">System</tspan></text>
		</g>
		<text transform="matrix(1 0 0 1 250.3613 332.2129)"><tspan x="0" y="0" font-size="9">D</tspan><tspan x="6.239" y="0" font-size="9">I</tspan><tspan x="8.991" y="0" font-size="9">C</tspan><tspan x="15.229" y="0" font-size="9">O</tspan><tspan x="22.159" y="0" font-size="9">M</tspan></text>
		
			<rect x="218.234" y="287.436" fill="#86B2D8" stroke="#010101" stroke-width="0.75" stroke-linecap="round" stroke-linejoin="round" stroke-miterlimit="1" width="94" height="24"/>
		
			<rect x="218.234" y="211.868" fill="#B2CEE7" stroke="#010101" stroke-width="0.75" stroke-linecap="round" stroke-linejoin="round" stroke-miterlimit="1" width="94" height="24"/>
		<text transform="matrix(1 0 0 1 249.4263 301.9404)" font-size="9">Modality</text>
		<g>
			
				<rect x="218.234" y="362.38" fill="#86B2D8" stroke="#010101" stroke-width="0.75" stroke-linecap="round" stroke-linejoin="round" stroke-miterlimit="1" width="94" height="24"/>
			<text transform="matrix(1 0 0 1 238.1724 376.8848)" font-size="9">Image Archive</text>
		</g>
		<g>
			<text transform="matrix(1 0 0 1 225.4404 220.9746)"><tspan x="0" y="0" font-size="9">Radiopharmaceutical</tspan><tspan x="15.098" y="10.799" font-size="9">Administered</tspan></text>
		</g>
		<rect x="218.234" y="172.028" opacity="0.6" fill="#FFFFFF" width="94" height="12"/>
		<text transform="matrix(1 0 0 1 225.4404 180.5107)" font-size="9">Radiopharmaceutical</text>
		<text transform="matrix(1 0 0 1 234.1665 264.4688)" font-size="9">Patient Scanned</text>
		<g>
			<g>
				<line fill="none" stroke="#000000" stroke-miterlimit="1" x1="265.234" y1="267.506" x2="265.234" y2="279.713"/>
				<g>
					<polygon points="262.91,278.128 265.234,286.801 267.558,278.128 					"/>
				</g>
			</g>
		</g>
		<line fill="none" stroke="#000000" stroke-miterlimit="1" x1="265.234" y1="237.657" x2="265.234" y2="255.726"/>
		<g>
			<line x1="265.234" y1="186.255" x2="265.234" y2="209.608"/>
			<g>
				
					<line fill="none" stroke="#000000" stroke-width="2" stroke-miterlimit="1" x1="265.234" y1="186.255" x2="265.234" y2="202.521"/>
				<g>
					<polygon points="262.91,200.936 265.234,209.608 267.558,200.936 					"/>
				</g>
			</g>
		</g>
		<g>
			<line x1="265.234" y1="131.564" x2="265.234" y2="160.256"/>
			<g>
				
					<line fill="none" stroke="#000000" stroke-width="2" stroke-miterlimit="1" x1="265.234" y1="138.652" x2="265.234" y2="160.256"/>
				<g>
					<polygon points="262.91,140.237 265.234,131.564 267.558,140.237 					"/>
				</g>
			</g>
		</g>
		<g>
			<g>
				
					<line fill="none" stroke="#005695" stroke-width="2" stroke-miterlimit="1" x1="247.233" y1="63.196" x2="247.233" y2="87.757"/>
				<g>
					<polygon fill="#005695" points="244.909,86.172 247.233,94.845 249.558,86.172 					"/>
				</g>
			</g>
		</g>
		<line fill="none" stroke="#005695" stroke-width="2" stroke-miterlimit="1" x1="247.233" y1="37.42" x2="247.233" y2="50.249"/>
		<g>
			<g>
				
					<line fill="none" stroke="#000000" stroke-width="2" stroke-miterlimit="1" x1="286.832" y1="63.196" x2="286.832" y2="64.196"/>
				
					<line fill="none" stroke="#000000" stroke-width="2" stroke-miterlimit="1" stroke-dasharray="2.051,2.051" x1="286.832" y1="66.247" x2="286.832" y2="85.732"/>
				
					<line fill="none" stroke="#000000" stroke-width="2" stroke-miterlimit="1" x1="286.832" y1="86.757" x2="286.832" y2="87.757"/>
				<g>
					<polygon points="284.507,86.172 286.832,94.845 289.156,86.172 					"/>
				</g>
			</g>
		</g>
		<g>
			<g>
				<line fill="none" stroke="#000000" stroke-width="2" stroke-miterlimit="1" x1="286.832" y1="37.42" x2="286.832" y2="38.42"/>
				
					<line fill="none" stroke="#000000" stroke-width="2" stroke-miterlimit="1" stroke-dasharray="2.1658,2.1658" x1="286.832" y1="40.586" x2="286.832" y2="48.166"/>
				
					<line fill="none" stroke="#000000" stroke-width="2" stroke-miterlimit="1" x1="286.832" y1="49.249" x2="286.832" y2="50.249"/>
			</g>
		</g>
		<g>
			<g>
				
					<line fill="none" stroke="#005695" stroke-width="2" stroke-miterlimit="1" x1="211.146" y1="298.756" x2="210.146" y2="298.756"/>
				
					<line fill="none" stroke="#005695" stroke-width="2" stroke-miterlimit="1" stroke-dasharray="2.0805,2.0805" x1="208.066" y1="298.756" x2="188.301" y2="298.756"/>
				<polyline fill="none" stroke="#005695" stroke-width="2" stroke-miterlimit="1" points="187.261,298.756 186.261,298.756 
					186.261,297.756 				"/>
				
					<line fill="none" stroke="#005695" stroke-width="2" stroke-miterlimit="1" stroke-dasharray="1.9909,1.9909" x1="186.261" y1="295.765" x2="186.261" y2="69.8"/>
				<polyline fill="none" stroke="#005695" stroke-width="2" stroke-miterlimit="1" points="186.261,68.805 186.261,67.805 
					187.261,67.805 				"/>
				
					<line fill="none" stroke="#005695" stroke-width="2" stroke-miterlimit="1" stroke-dasharray="2.0335,2.0335" x1="189.295" y1="67.805" x2="245.217" y2="67.805"/>
				
					<line fill="none" stroke="#005695" stroke-width="2" stroke-miterlimit="1" x1="246.234" y1="67.805" x2="247.234" y2="67.805"/>
				<g>
					<polygon fill="#005695" points="209.561,296.432 218.234,298.756 209.561,301.08 					"/>
				</g>
			</g>
		</g>
	</g>
</g>
</svg>
