<?xml version="1.0" encoding="utf-8"?>

<!DOCTYPE svg PUBLIC "-//W3C//DTD SVG 1.1//EN" "http://www.w3.org/Graphics/SVG/1.1/DTD/svg11.dtd">
<svg version="1.1" id="Layer_1" xmlns="http://www.w3.org/2000/svg" xmlns:xlink="http://www.w3.org/1999/xlink" x="0px" y="0px"
	 width="502px" height="562px" viewBox="0 0 502 562" enable-background="new 0 0 502 562" xml:space="preserve">

<defs>
	<style type="text/css">
	text {
	  font-family: Helvetica, Verdana, ArialUnicodeMS, san-serif
	}
	</style>
</defs>

<g>
   <desc>
	PS 3.17 Part 17: Explanatory Information
   </desc>
</g>

<g>
	<rect x="1" y="1" fill="#F5EED6" width="500" height="560"/>
	<g>
		<g>
			<path fill="#636466" stroke="#000000" d="M242.647,130.101c18.477-19.612,39.377-11.292,50.426-1.054
				c11.052,10.238,9.321,30.073-3.863,44.301c-13.185,14.229-32.828,17.463-43.878,7.224S225.362,148.446,242.647,130.101z"/>
			
				<ellipse transform="matrix(-0.7335 -0.6797 0.6797 -0.7335 361.4454 451.3356)" fill="#999999" stroke="#000000" cx="269.203" cy="154.81" rx="27.275" ry="35.121"/>
			
				<ellipse transform="matrix(-0.713 -0.7012 0.7012 -0.713 352.9384 453.7337)" fill="#6799C8" stroke="#000000" cx="269.336" cy="154.63" rx="22.995" ry="30.561"/>
			
				<ellipse transform="matrix(-0.713 -0.7012 0.7012 -0.713 354.1321 453.5081)" fill="#F7941E" stroke="#000000" cx="269.89" cy="154.27" rx="13.126" ry="16.565"/>
			<path fill="#999999" stroke="#000000" d="M335.62,180.212l4.277-0.7l8.152,43.902l21.154,155.067c0,0,1.397,10.406-3.623,11.051
				l-4.277,0.699L335.62,180.212z"/>
			<path fill="#808285" stroke="#000000" d="M312.247,204.609c0,0-6.691-8.308-1.152-13.765c2.287-2.253,6.59-2.457,6.59-2.457
				l0.016-0.503c0,0,0.982-1.924,2.469-3.848c0.287-0.372,1.045-0.743,2.074-1.1c4.294-1.487,13.377-2.725,13.377-2.725
				l8.152,43.902l21.154,155.067c0,0,1.397,10.408-3.623,11.051c-5.021,0.645-6.912-8.689-6.912-8.689l-29.855-148.723
				C323.3,222.019,317.741,212.076,312.247,204.609z"/>
			<polyline fill="#666666" stroke="#000000" points="317.685,188.387 317.519,193.833 317.7,187.884 			"/>
			<path fill="#F7941E" stroke="#000000" d="M317.7,187.884c0,0,0.982-1.924,2.469-3.848c0.287-0.372,1.045-0.743,2.074-1.1
				c-0.89-2.282-2.271-4.419-4.176-6.222c-6.773-6.407-17.361-6.213-23.65,0.432c-6.289,6.647-5.895,17.229,0.881,23.636
				c4.716,4.459,11.275,5.711,16.949,3.826l-0.939-1.258c0,0-5.752-7.05-0.213-12.507c2.287-2.253,6.59-2.457,6.59-2.457
				L317.7,187.884z"/>
			<line fill="none" stroke="#000000" stroke-dasharray="2,3" x1="263.877" y1="148.051" x2="294.065" y2="176.013"/>
			<line fill="none" stroke="#000000" stroke-dasharray="2,3" x1="217.873" y1="106.036" x2="242.398" y2="128.752"/>
			<line fill="none" stroke="#000000" x1="348.05" y1="223.415" x2="343.772" y2="224.114"/>
		</g>
		<g>
			<path fill="#636466" stroke="#000000" d="M359.089,27.917c18.477-19.612,39.378-11.292,50.426-1.054
				c11.05,10.238,9.319,30.073-3.863,44.301c-13.185,14.229-32.828,17.463-43.878,7.224S341.804,46.261,359.089,27.917z"/>
			
				<ellipse transform="matrix(-0.7335 -0.6797 0.6797 -0.7335 632.7505 353.3404)" fill="#999999" stroke="#000000" cx="385.645" cy="52.625" rx="27.275" ry="35.121"/>
			
				<ellipse transform="matrix(-0.713 -0.7012 0.7012 -0.713 624.0503 360.3428)" fill="#6799C8" stroke="#000000" cx="385.777" cy="52.446" rx="22.995" ry="30.561"/>
			<path fill="#999999" stroke="#000000" d="M418.354,45.985l4.277-0.7l8.152,43.902l21.154,155.067c0,0,1.397,10.406-3.623,11.05
				l-4.277,0.699L418.354,45.985z"/>
			<path fill="#808285" stroke="#000000" d="M394.981,70.382c0,0-6.691-8.308-1.152-13.765c2.287-2.253,6.59-2.457,6.59-2.457
				l0.016-0.503c0,0,0.982-1.924,2.469-3.848c0.287-0.372,1.045-0.743,2.074-1.1c4.294-1.487,13.377-2.725,13.377-2.725
				l8.152,43.902l21.154,155.067c0,0,1.397,10.408-3.623,11.05c-5.021,0.645-6.912-8.689-6.912-8.689L407.271,98.593
				C406.034,87.792,400.476,77.849,394.981,70.382z"/>
			<polyline fill="#666666" stroke="#000000" points="400.419,54.16 400.253,59.606 400.435,53.657 			"/>
			<path fill="#F7941E" stroke="#000000" d="M400.435,53.657c0,0,0.982-1.924,2.469-3.848c0.287-0.372,1.045-0.743,2.074-1.1
				c-0.89-2.282-2.271-4.419-4.176-6.222c-6.773-6.407-17.36-6.213-23.648,0.432c-6.288,6.647-5.894,17.229,0.881,23.636
				c4.715,4.459,11.273,5.711,16.947,3.826l-0.939-1.258c0,0-5.752-7.05-0.213-12.507c2.287-2.253,6.59-2.457,6.59-2.457
				L400.435,53.657z"/>
		</g>
		<g>
			<path fill="#636466" stroke="#000000" d="M74.656,214.328c18.478-19.612,39.379-11.292,50.427-1.054
				c11.051,10.238,9.32,30.073-3.863,44.301c-13.185,14.228-32.829,17.462-43.878,7.225
				C66.292,254.561,57.371,232.673,74.656,214.328z"/>
			
				<ellipse transform="matrix(-0.7335 -0.6797 0.6797 -0.7335 12.9854 483.1646)" fill="#999999" stroke="#000000" cx="101.213" cy="239.037" rx="27.275" ry="35.121"/>
			
				<ellipse transform="matrix(-0.7335 -0.6797 0.6797 -0.7335 12.984 483.165)" fill="#F26522" stroke="#000000" cx="101.212" cy="239.037" rx="22.995" ry="30.561"/>
			<path fill="#F26522" stroke="#000000" d="M128.833,263.723c11.836-12.034,32.132-11.208,41.186-2.304
				c9.056,8.905,6.801,25.876-5.034,37.909c-11.836,12.034-28.77,14.57-37.824,5.665
				C118.106,296.089,116.998,275.756,128.833,263.723z"/>
			
				<ellipse transform="matrix(-0.713 -0.7011 0.7011 -0.713 55.9677 589.3209)" fill="#6799C8" stroke="#000000" cx="148.59" cy="283.207" rx="22.993" ry="30.56"/>
			
				<ellipse transform="matrix(-0.713 -0.7011 0.7011 -0.713 57.1682 589.0917)" fill="#F7941E" stroke="#000000" cx="149.144" cy="282.846" rx="13.125" ry="16.564"/>
			
				<ellipse transform="matrix(-0.7265 -0.6872 0.6872 -0.7265 102.9494 675.6239)" fill="#F7941E" stroke="#000000" cx="185.936" cy="317.323" rx="16.882" ry="16.565"/>
			<path fill="#FFF200" stroke="#000000" d="M195.638,317.72c-1.418-1.341-3.246-1.965-5.035-1.893
				c-0.064,1.559-0.66,3.093-1.807,4.305c-1.242,1.312-2.896,2-4.584,2.068c-0.079,1.917,0.646,3.871,2.166,5.308
				c2.755,2.606,7.061,2.526,9.617-0.176C198.553,324.629,198.393,320.325,195.638,317.72z"/>
			<path stroke="#000000" d="M190.603,315.827c-1.688,0.068-3.342,0.757-4.583,2.068c-1.146,1.212-1.742,2.746-1.808,4.305
				c1.688-0.068,3.342-0.757,4.584-2.068C189.942,318.92,190.538,317.386,190.603,315.827z"/>
			<g>
				<path fill="#999999" stroke="#000000" d="M244.11,335.912l4.277-0.7l8.152,43.902l21.154,155.068c0,0,1.397,10.406-3.623,11.051
					l-4.277,0.699L244.11,335.912z"/>
				<path fill="#808285" stroke="#000000" d="M226.009,349.533l0.182-5.949c0,0,0.982-1.924,2.469-3.848
					c1.485-1.923,15.451-3.824,15.451-3.824l8.152,43.901l21.154,155.068c0,0,1.397,10.407-3.623,11.051
					c-5.021,0.645-6.912-8.69-6.912-8.69L233.026,388.52c-2.601-22.729-24.344-41.679-24.344-41.679s-4.298-5.25,0.276-9.869
					c4.574-4.62,9.175-1.178,9.175-1.178l8.057,7.79L226.009,349.533z"/>
				<path fill="#FFF200" stroke="#000000" d="M219.798,359.051c0,0-5.752-7.05-0.213-12.507c2.287-2.253,6.59-2.457,6.59-2.457
					l0.016-0.503l-8.113-7.729c0,0-4.646-3.385-9.28,1.179c-4.636,4.564-0.3,9.733-0.3,9.733S215.169,353.404,219.798,359.051z"/>
				<line fill="none" stroke="#000000" x1="256.54" y1="379.114" x2="252.263" y2="379.813"/>
			</g>
			<line fill="none" stroke="#000000" stroke-dasharray="2,3" x1="187.845" y1="318.04" x2="207.96" y2="336.671"/>
			<line fill="none" stroke="#000000" stroke-dasharray="2,3" x1="143.131" y1="276.628" x2="173.319" y2="304.587"/>
			<line fill="none" stroke="#000000" stroke-dasharray="2,3" x1="89.797" y1="227.232" x2="128.148" y2="262.754"/>
			<line fill="none" stroke="#000000" stroke-dasharray="2,3" x1="49.883" y1="190.263" x2="74.408" y2="212.979"/>
		</g>
	</g>
</g>
</svg>
