<?xml version="1.0" encoding="utf-8"?>

<!DOCTYPE svg PUBLIC "-//W3C//DTD SVG 1.1//EN" "http://www.w3.org/Graphics/SVG/1.1/DTD/svg11.dtd">
<svg version="1.1" id="Layer_1" xmlns="http://www.w3.org/2000/svg" xmlns:xlink="http://www.w3.org/1999/xlink" x="0px" y="0px"
	 width="502px" height="57px" viewBox="0 0 502 57" enable-background="new 0 0 502 57" xml:space="preserve">

<defs>
	<style type="text/css">
	text {
	  font-family: Helvetica, Verdana, ArialUnicodeMS, san-serif
	}
	</style>
</defs>

<g>
   <desc>
	PS 3.17 Part 17: Explanatory Information
   </desc>
</g>

<g>
	<rect x="1" y="1" fill="#F5EED6" width="500" height="55"/>
	<g>
		
			<rect x="133.222" y="16.536" fill="#86B2D8" stroke="#010101" stroke-width="0.75" stroke-linecap="round" stroke-linejoin="round" stroke-miterlimit="1" width="93.996" height="24"/>
		<text transform="matrix(1 0 0 1 147.1543 25.625)"><tspan x="0" y="0" font-size="9">Detector Reading</tspan><tspan x="10.598" y="10.8" font-size="9">and Binning</tspan></text>
		<g>
			<text transform="matrix(1 0 0 1 90.4458 23.105)"><tspan x="0" y="0" font-size="9">Detector</tspan><tspan x="3.471" y="15.799" font-size="9">Matrix </tspan></text>
		</g>
		<g>
			<g>
				<line fill="none" stroke="#005695" stroke-width="2" stroke-miterlimit="1" x1="81.789" y1="28.535" x2="125.645" y2="28.535"/>
				<g>
					<polygon fill="#005695" points="124.059,30.859 132.732,28.535 124.059,26.211 					"/>
				</g>
			</g>
		</g>
		<g>
			<path fill="none" d="M132.732,35.234"/>
		</g>
		
			<rect x="277.617" y="16.536" fill="#86B2D8" stroke="#010101" stroke-width="0.75" stroke-linecap="round" stroke-linejoin="round" stroke-miterlimit="1" width="93.996" height="24"/>
		<text transform="matrix(1 0 0 1 280.5996 25.625)"><tspan x="0" y="0" font-size="9">Field of View Extraction</tspan><tspan x="19.438" y="10.8" font-size="9">and Resizing</tspan></text>
		<text transform="matrix(1 0 0 1 241.0737 23.105)"><tspan x="0" y="0" font-size="9">Digital</tspan><tspan x="-0.074" y="15.799" font-size="9">Image</tspan></text>
		<g>
			<g>
				<line fill="none" stroke="#005695" stroke-width="2" stroke-miterlimit="1" x1="229.03" y1="28.535" x2="270.535" y2="28.535"/>
				<g>
					<polygon fill="#005695" points="268.95,30.859 277.623,28.535 268.95,26.211 					"/>
				</g>
			</g>
		</g>
		<text transform="matrix(1 0 0 1 382.873 23.105)"><tspan x="0" y="0" font-size="9">Stored</tspan><tspan x="0.715" y="15.799" font-size="9">Image</tspan></text>
		<g>
			<g>
				
					<line fill="none" stroke="#005695" stroke-width="2" stroke-miterlimit="1" x1="371.619" y1="28.535" x2="413.123" y2="28.535"/>
				<g>
					<polygon fill="#005695" points="411.538,30.859 420.211,28.535 411.538,26.211 					"/>
				</g>
			</g>
		</g>
		<g>
			<path fill="none" d="M277.127,35.234"/>
		</g>
	</g>
</g>
</svg>
