<?xml version="1.0" encoding="utf-8"?>

<!DOCTYPE svg PUBLIC "-//W3C//DTD SVG 1.1//EN" "http://www.w3.org/Graphics/SVG/1.1/DTD/svg11.dtd">
<svg version="1.1" id="Layer_1" xmlns="http://www.w3.org/2000/svg" xmlns:xlink="http://www.w3.org/1999/xlink" x="0px" y="0px"
	 width="502px" height="392px" viewBox="0 0 502 392" enable-background="new 0 0 502 392" xml:space="preserve">

<defs>
	<style type="text/css">
	text {
	  font-family: Helvetica, Verdana, ArialUnicodeMS, san-serif
	}
	</style>
</defs>

<g>
   <desc>
	PS 3.17 Part 17: Explanatory Information
   </desc>
</g>

<g>
	<g>
		<rect x="1" y="1" fill="#F5EED6" width="500" height="390"/>
	</g>
	<g>
		
			<rect x="177.731" y="74.587" fill="#B2CEE7" stroke="#010101" stroke-width="0.75" stroke-linecap="round" stroke-linejoin="round" stroke-miterlimit="1" width="80" height="26.996"/>
		<g>
			<text transform="matrix(1 0 0 1 180.7681 85.8057)"><tspan x="0" y="0" font-size="7">Implant Component List</tspan><tspan x="14.021" y="8.4" font-size="7">(CONTAINER)</tspan></text>
		</g>
		
			<rect x="369.842" y="55.76" fill="#B2CEE7" stroke="#010101" stroke-width="0.75" stroke-linecap="round" stroke-linejoin="round" stroke-miterlimit="1" width="97" height="26.996"/>
		<g>
			<text transform="matrix(1 0 0 1 373.2051 66.9785)"><tspan x="0" y="0" font-size="7">Selected Implant Component</tspan><tspan x="22.193" y="8.4" font-size="7">(CONTAINER)</tspan></text>
		</g>
		
			<rect x="369.842" y="94.138" fill="#B2CEE7" stroke="#010101" stroke-width="0.75" stroke-linecap="round" stroke-linejoin="round" stroke-miterlimit="1" width="97" height="26.996"/>
		<g>
			<text transform="matrix(1 0 0 1 373.2051 105.3564)"><tspan x="0" y="0" font-size="7">Selected Implant Component</tspan><tspan x="22.193" y="8.4" font-size="7">(CONTAINER)</tspan></text>
		</g>
		<g>
			<g>
				
					<line fill="none" stroke="#005695" stroke-linecap="round" stroke-miterlimit="1" x1="77.273" y1="87.727" x2="91.746" y2="87.727"/>
				<path fill="#005695" d="M94.108,86.702c-1.653-0.5-2.728-0.959-4.054-1.492v5.044c0.475-0.226,2.401-0.993,4.054-1.492
					c1.77-0.535,3.374-0.9,4.415-1.031C97.482,87.602,95.877,87.236,94.108,86.702z"/>
			</g>
		</g>
		<g>
			<g>
				
					<line fill="none" stroke="#005695" stroke-linecap="round" stroke-miterlimit="1" x1="160.729" y1="88.087" x2="171.091" y2="88.087"/>
				<path fill="#005695" d="M173.453,87.062c-1.653-0.5-2.728-0.959-4.054-1.492v5.044c0.475-0.226,2.401-0.993,4.054-1.492
					c1.77-0.535,3.374-0.9,4.415-1.031C176.827,87.962,175.222,87.596,173.453,87.062z"/>
			</g>
		</g>
		<g>
			<g>
				
					<line fill="none" stroke="#005695" stroke-linecap="round" stroke-miterlimit="1" x1="257.397" y1="88.087" x2="267.759" y2="88.087"/>
				<path fill="#005695" d="M270.121,87.062c-1.654-0.5-2.729-0.959-4.055-1.492v5.044c0.475-0.226,2.4-0.993,4.055-1.492
					c1.77-0.535,3.373-0.9,4.414-1.031C273.494,87.962,271.891,87.596,270.121,87.062z"/>
			</g>
		</g>
		<g>
			<g>
				
					<line fill="none" stroke="#005695" stroke-linecap="round" stroke-miterlimit="1" x1="77.273" y1="165.613" x2="91.746" y2="165.613"/>
				<path fill="#005695" d="M94.108,164.588c-1.653-0.5-2.728-0.959-4.054-1.492v5.044c0.475-0.226,2.401-0.993,4.054-1.492
					c1.77-0.535,3.374-0.9,4.415-1.031C97.482,165.488,95.877,165.123,94.108,164.588z"/>
			</g>
		</g>
		
			<polygon fill="#CCDEF0" stroke="#010101" stroke-width="0.75" stroke-linecap="round" stroke-linejoin="round" stroke-miterlimit="1" points="
			97.519,87.763 128.995,74.587 160.526,88.188 160.526,88.22 128.96,101.583 		"/>
		<g>
			<text transform="matrix(1 0.0022 -0.0022 1 110.9351 89.9663)" font-size="7">CONTAINS</text>
		</g>
		
			<polygon fill="#CCDEF0" stroke="#010101" stroke-width="0.75" stroke-linecap="round" stroke-linejoin="round" stroke-miterlimit="1" points="
			275.108,87.875 306.585,74.699 338.116,88.301 338.116,88.332 306.55,101.695 		"/>
		<g>
			<text transform="matrix(1 0.0022 -0.0022 1 288.5254 90.0786)" font-size="7">CONTAINS</text>
		</g>
		
			<polygon fill="#CCDEF0" stroke="#010101" stroke-width="0.75" stroke-linecap="round" stroke-linejoin="round" stroke-miterlimit="1" points="
			97.519,302.232 128.995,289.057 160.526,302.658 160.526,302.689 128.96,316.053 		"/>
		<g>
			<g>
				
					<line fill="none" stroke="#005695" stroke-linecap="round" stroke-miterlimit="1" x1="160.729" y1="302.555" x2="171.091" y2="302.555"/>
				<path fill="#005695" d="M173.453,301.529c-1.653-0.499-2.728-0.959-4.054-1.491v5.044c0.475-0.225,2.401-0.992,4.054-1.491
					c1.77-0.534,3.374-0.9,4.415-1.03C176.827,302.43,175.222,302.064,173.453,301.529z"/>
			</g>
		</g>
		<g>
			<text transform="matrix(1 0.0022 -0.0022 1 110.9351 304.4355)" font-size="7">CONTAINS</text>
		</g>
		<g>
			<g>
				<polyline fill="none" stroke="#005695" stroke-linecap="round" stroke-miterlimit="1" points="77.274,43.47 77.273,356.688 
					91.746,356.688 				"/>
				<path fill="#005695" d="M94.108,355.662c-1.653-0.499-2.728-0.959-4.054-1.491v5.044c0.475-0.225,2.401-0.992,4.054-1.491
					c1.77-0.534,3.374-0.9,4.415-1.03C97.482,356.562,95.877,356.197,94.108,355.662z"/>
			</g>
		</g>
		<g>
			<g>
				<polyline fill="none" stroke="#005695" stroke-linecap="round" stroke-miterlimit="1" points="338.115,88.391 349.763,88.391 
					349.763,69.258 362.976,69.258 				"/>
				<path fill="#005695" d="M365.338,68.233c-1.654-0.5-2.729-0.959-4.055-1.492v5.044c0.475-0.226,2.4-0.993,4.055-1.492
					c1.77-0.535,3.373-0.9,4.414-1.031C368.711,69.133,367.107,68.767,365.338,68.233z"/>
			</g>
		</g>
		<g>
			<g>
				<polyline fill="none" stroke="#005695" stroke-linecap="round" stroke-miterlimit="1" points="349.764,88.391 349.763,107.636 
					362.976,107.636 				"/>
				<path fill="#005695" d="M365.338,106.611c-1.654-0.5-2.729-0.959-4.055-1.492v5.044c0.475-0.226,2.4-0.993,4.055-1.492
					c1.77-0.535,3.373-0.9,4.414-1.031C368.711,107.511,367.107,107.145,365.338,106.611z"/>
			</g>
		</g>
		
			<rect x="177.731" y="151.754" fill="#B2CEE7" stroke="#010101" stroke-width="0.75" stroke-linecap="round" stroke-linejoin="round" stroke-miterlimit="1" width="80" height="26.996"/>
		<g>
			<text transform="matrix(1 0 0 1 202.561 162.9722)"><tspan x="0" y="0" font-size="7">Assembly</tspan><tspan x="-7.772" y="8.4" font-size="7">(CONTAINER)</tspan></text>
		</g>
		
			<rect x="369.842" y="132.927" fill="#B2CEE7" stroke="#010101" stroke-width="0.75" stroke-linecap="round" stroke-linejoin="round" stroke-miterlimit="1" width="97" height="26.996"/>
		<g>
			<text transform="matrix(1 0 0 1 381.5684 144.145)"><tspan x="0" y="0" font-size="7">Component Connection</tspan><tspan x="13.83" y="8.4" font-size="7">(CONTAINER)</tspan></text>
		</g>
		
			<rect x="369.842" y="171.305" fill="#B2CEE7" stroke="#010101" stroke-width="0.75" stroke-linecap="round" stroke-linejoin="round" stroke-miterlimit="1" width="97" height="26.996"/>
		<g>
			<text transform="matrix(1 0 0 1 381.5684 182.5229)"><tspan x="0" y="0" font-size="7">Component Connection</tspan><tspan x="13.83" y="8.4" font-size="7">(CONTAINER)</tspan></text>
		</g>
		<g>
			<g>
				
					<line fill="none" stroke="#005695" stroke-linecap="round" stroke-miterlimit="1" x1="160.729" y1="165.254" x2="171.091" y2="165.254"/>
				<path fill="#005695" d="M173.453,164.229c-1.653-0.5-2.728-0.959-4.054-1.492v5.044c0.475-0.226,2.401-0.993,4.054-1.492
					c1.77-0.535,3.374-0.9,4.415-1.031C176.827,165.129,175.222,164.763,173.453,164.229z"/>
			</g>
		</g>
		<g>
			<g>
				
					<line fill="none" stroke="#005695" stroke-linecap="round" stroke-miterlimit="1" x1="257.397" y1="165.254" x2="267.759" y2="165.254"/>
				<path fill="#005695" d="M270.121,164.229c-1.654-0.5-2.729-0.959-4.055-1.492v5.044c0.475-0.226,2.4-0.993,4.055-1.492
					c1.77-0.535,3.373-0.9,4.414-1.031C273.494,165.129,271.891,164.763,270.121,164.229z"/>
			</g>
		</g>
		
			<polygon fill="#CCDEF0" stroke="#010101" stroke-width="0.75" stroke-linecap="round" stroke-linejoin="round" stroke-miterlimit="1" points="
			97.519,164.93 128.995,151.754 160.526,165.355 160.526,165.387 128.96,178.75 		"/>
		<g>
			<text transform="matrix(1 0.0022 -0.0022 1 110.9351 167.1328)" font-size="7">CONTAINS</text>
		</g>
		
			<polygon fill="#CCDEF0" stroke="#010101" stroke-width="0.75" stroke-linecap="round" stroke-linejoin="round" stroke-miterlimit="1" points="
			275.108,165.042 306.585,151.866 338.116,165.468 338.116,165.499 306.55,178.862 		"/>
		<g>
			<text transform="matrix(1 0.0022 -0.0022 1 288.5254 167.2451)" font-size="7">CONTAINS</text>
		</g>
		<g>
			<g>
				<polyline fill="none" stroke="#005695" stroke-linecap="round" stroke-miterlimit="1" points="338.115,165.557 349.763,165.557 
					349.763,146.424 362.976,146.424 				"/>
				<path fill="#005695" d="M365.338,145.399c-1.654-0.5-2.729-0.959-4.055-1.492v5.044c0.475-0.226,2.4-0.993,4.055-1.492
					c1.77-0.535,3.373-0.9,4.414-1.031C368.711,146.299,367.107,145.933,365.338,145.399z"/>
			</g>
		</g>
		<g>
			<g>
				<polyline fill="none" stroke="#005695" stroke-linecap="round" stroke-miterlimit="1" points="349.764,165.557 349.763,184.802 
					362.976,184.802 				"/>
				<path fill="#005695" d="M365.338,183.777c-1.654-0.5-2.729-0.959-4.055-1.492v5.044c0.475-0.226,2.4-0.993,4.055-1.492
					c1.77-0.535,3.373-0.9,4.414-1.031C368.711,184.677,367.107,184.311,365.338,183.777z"/>
			</g>
		</g>
		<g>
			<g>
				<polyline fill="none" stroke="#005695" stroke-linecap="round" stroke-miterlimit="1" stroke-dasharray="2,3" points="
					338.115,302.318 349.763,302.318 349.763,283.186 362.976,283.186 				"/>
				<path fill="#005695" d="M365.338,282.16c-1.654-0.499-2.729-0.959-4.055-1.491v5.044c0.475-0.225,2.4-0.992,4.055-1.491
					c1.77-0.534,3.373-0.9,4.414-1.03C368.711,283.061,367.107,282.695,365.338,282.16z"/>
			</g>
		</g>
		<g>
			<g>
				<polyline fill="none" stroke="#005695" stroke-linecap="round" stroke-miterlimit="1" stroke-dasharray="2,3" points="
					349.764,302.318 349.763,321.564 362.976,321.564 				"/>
				<path fill="#005695" d="M365.338,320.539c-1.654-0.499-2.729-0.959-4.055-1.491v5.044c0.475-0.225,2.4-0.992,4.055-1.491
					c1.77-0.534,3.373-0.9,4.414-1.03C368.711,321.439,367.107,321.074,365.338,320.539z"/>
			</g>
		</g>
		<g>
			<g>
				
					<line fill="none" stroke="#005695" stroke-linecap="round" stroke-miterlimit="1" x1="77.273" y1="223.338" x2="91.746" y2="223.338"/>
				<path fill="#005695" d="M94.108,222.312c-1.653-0.499-2.728-0.959-4.054-1.491v5.044c0.475-0.225,2.401-0.992,4.054-1.491
					c1.77-0.534,3.374-0.9,4.415-1.03C97.482,223.213,95.877,222.848,94.108,222.312z"/>
			</g>
		</g>
		
			<rect x="177.731" y="209.479" fill="#B2CEE7" stroke="#010101" stroke-width="0.75" stroke-linecap="round" stroke-linejoin="round" stroke-miterlimit="1" width="80" height="26.996"/>
		<g>
			<text transform="matrix(1 0 0 1 202.561 220.6973)"><tspan x="0" y="0" font-size="7">Assembly</tspan><tspan x="-7.772" y="8.4" font-size="7">(CONTAINER)</tspan></text>
		</g>
		
			<rect x="369.842" y="209.84" fill="#B2CEE7" stroke="#010101" stroke-width="0.75" stroke-linecap="round" stroke-linejoin="round" stroke-miterlimit="1" width="97" height="26.996"/>
		<g>
			<text transform="matrix(1 0 0 1 381.5684 221.0586)"><tspan x="0" y="0" font-size="7">Component Connection</tspan><tspan x="13.83" y="8.4" font-size="7">(CONTAINER)</tspan></text>
		</g>
		<g>
			<g>
				
					<line fill="none" stroke="#005695" stroke-linecap="round" stroke-miterlimit="1" x1="160.729" y1="222.979" x2="171.091" y2="222.979"/>
				<path fill="#005695" d="M173.453,221.953c-1.653-0.499-2.728-0.959-4.054-1.491v5.044c0.475-0.225,2.401-0.992,4.054-1.491
					c1.77-0.534,3.374-0.9,4.415-1.03C176.827,222.854,175.222,222.488,173.453,221.953z"/>
			</g>
		</g>
		<g>
			<g>
				
					<line fill="none" stroke="#005695" stroke-linecap="round" stroke-miterlimit="1" x1="257.397" y1="222.979" x2="267.759" y2="222.979"/>
				<path fill="#005695" d="M270.121,221.953c-1.654-0.499-2.729-0.959-4.055-1.491v5.044c0.475-0.225,2.4-0.992,4.055-1.491
					c1.77-0.534,3.373-0.9,4.414-1.03C273.494,222.854,271.891,222.488,270.121,221.953z"/>
			</g>
		</g>
		
			<polygon fill="#CCDEF0" stroke="#010101" stroke-width="0.75" stroke-linecap="round" stroke-linejoin="round" stroke-miterlimit="1" points="
			97.519,222.654 128.995,209.479 160.526,223.08 160.526,223.111 128.96,236.475 		"/>
		<g>
			<text transform="matrix(1 0.0022 -0.0022 1 110.9351 224.8574)" font-size="7">CONTAINS</text>
		</g>
		<g>
			<g>
				
					<line fill="none" stroke="#005695" stroke-linecap="round" stroke-miterlimit="1" x1="77.273" y1="261.527" x2="91.746" y2="261.527"/>
				<path fill="#005695" d="M94.108,260.502c-1.653-0.499-2.728-0.959-4.054-1.491v5.044c0.475-0.225,2.401-0.992,4.054-1.491
					c1.77-0.534,3.374-0.9,4.415-1.03C97.482,261.402,95.877,261.037,94.108,260.502z"/>
			</g>
		</g>
		<g>
			<g>
				
					<line fill="none" stroke="#005695" stroke-linecap="round" stroke-miterlimit="1" stroke-dasharray="2,3" x1="160.729" y1="261.168" x2="171.091" y2="261.168"/>
				<path fill="#005695" d="M173.453,260.143c-1.653-0.499-2.728-0.959-4.054-1.491v5.044c0.475-0.225,2.401-0.992,4.054-1.491
					c1.77-0.534,3.374-0.9,4.415-1.03C176.827,261.043,175.222,260.678,173.453,260.143z"/>
			</g>
		</g>
		<g>
			<g>
				
					<line fill="none" stroke="#005695" stroke-linecap="round" stroke-miterlimit="1" stroke-dasharray="2,3" x1="352.615" y1="302.555" x2="362.977" y2="302.555"/>
				<path fill="#005695" d="M365.338,301.529c-1.652-0.499-2.728-0.959-4.054-1.491v5.044c0.475-0.225,2.401-0.992,4.054-1.491
					c1.77-0.534,3.375-0.9,4.415-1.03C368.713,302.43,367.107,302.064,365.338,301.529z"/>
			</g>
		</g>
		<g>
			<g>
				
					<line fill="none" stroke="#005695" stroke-linecap="round" stroke-miterlimit="1" stroke-dasharray="2,3" x1="352.615" y1="356.801" x2="362.977" y2="356.801"/>
				<path fill="#005695" d="M365.338,355.775c-1.652-0.499-2.728-0.959-4.054-1.491v5.044c0.475-0.225,2.401-0.992,4.054-1.491
					c1.77-0.534,3.375-0.9,4.415-1.03C368.713,356.676,367.107,356.311,365.338,355.775z"/>
			</g>
		</g>
		
			<polygon fill="#CCDEF0" stroke="#010101" stroke-width="0.75" stroke-linecap="round" stroke-linejoin="round" stroke-miterlimit="1" points="
			97.519,260.844 128.995,247.668 160.526,261.27 160.526,261.301 128.96,274.664 		"/>
		<g>
			<text transform="matrix(1 0.0022 -0.0022 1 110.9351 263.0459)" font-size="7">CONTAINS</text>
		</g>
		<g>
			<g>
				
					<line fill="none" stroke="#005695" stroke-linecap="round" stroke-miterlimit="1" x1="77.273" y1="302.555" x2="91.746" y2="302.555"/>
				<path fill="#005695" d="M94.108,301.529c-1.653-0.499-2.728-0.959-4.054-1.491v5.044c0.475-0.225,2.401-0.992,4.054-1.491
					c1.77-0.534,3.374-0.9,4.415-1.03C97.482,302.43,95.877,302.064,94.108,301.529z"/>
			</g>
		</g>
		<g>
			<g>
				
					<line fill="none" stroke="#005695" stroke-linecap="round" stroke-miterlimit="1" x1="160.729" y1="356.691" x2="171.091" y2="356.691"/>
				<path fill="#005695" d="M173.453,355.666c-1.653-0.499-2.728-0.959-4.054-1.491v5.044c0.475-0.225,2.401-0.992,4.054-1.491
					c1.77-0.534,3.374-0.9,4.415-1.03C176.827,356.566,175.222,356.201,173.453,355.666z"/>
			</g>
		</g>
		
			<polygon fill="#CCDEF0" stroke="#010101" stroke-width="0.75" stroke-linecap="round" stroke-linejoin="round" stroke-miterlimit="1" points="
			97.519,356.367 128.995,343.191 160.526,356.793 160.526,356.824 128.96,370.188 		"/>
		<g>
			<text transform="matrix(1 0.0022 -0.0022 1 110.9351 358.5703)" font-size="7">CONTAINS</text>
		</g>
		
			<polygon fill="#CCDEF0" stroke="#010101" stroke-width="0.75" stroke-linecap="round" stroke-linejoin="round" stroke-miterlimit="1" points="
			275.108,222.768 306.585,209.592 338.116,223.193 338.116,223.225 306.55,236.588 		"/>
		<g>
			<text transform="matrix(1 0.0022 -0.0022 1 288.5254 224.9707)" font-size="7">CONTAINS</text>
		</g>
		<g>
			<g>
				
					<line fill="none" stroke="#005695" stroke-linecap="round" stroke-miterlimit="1" x1="338.115" y1="223.281" x2="362.977" y2="223.281"/>
				<path fill="#005695" d="M365.338,222.256c-1.652-0.499-2.728-0.959-4.054-1.491v5.044c0.475-0.225,2.401-0.992,4.054-1.491
					c1.77-0.534,3.375-0.9,4.415-1.03C368.713,223.156,367.107,222.791,365.338,222.256z"/>
			</g>
		</g>
		
			<rect x="177.731" y="288.875" fill="#B2CEE7" stroke="#010101" stroke-width="0.75" stroke-linecap="round" stroke-linejoin="round" stroke-miterlimit="1" width="80" height="26.996"/>
		<g>
			<text transform="matrix(1 0 0 1 185.6284 295.9141)"><tspan x="0" y="0" font-size="7">Planning Information</tspan><tspan x="-5.444" y="8.4" font-size="7">for Intraoperative Usage</tspan><tspan x="9.16" y="16.8" font-size="7">(CONTAINER)</tspan></text>
		</g>
		<g>
			<g>
				
					<line fill="none" stroke="#005695" stroke-linecap="round" stroke-miterlimit="1" x1="257.397" y1="302.375" x2="267.759" y2="302.375"/>
				<path fill="#005695" d="M270.121,301.35c-1.654-0.499-2.729-0.959-4.055-1.491v5.044c0.475-0.225,2.4-0.992,4.055-1.491
					c1.77-0.534,3.373-0.9,4.414-1.03C273.494,302.25,271.891,301.885,270.121,301.35z"/>
			</g>
		</g>
		
			<polygon fill="#CCDEF0" stroke="#010101" stroke-width="0.75" stroke-linecap="round" stroke-linejoin="round" stroke-miterlimit="1" points="
			275.108,302.162 306.585,288.986 338.116,302.588 338.116,302.619 306.55,315.982 		"/>
		<g>
			<text transform="matrix(1 0.0022 -0.0022 1 288.5254 304.3652)" font-size="7">CONTAINS</text>
		</g>
		<g>
			<g>
				<polyline fill="none" stroke="#005695" stroke-linecap="round" stroke-miterlimit="1" stroke-dasharray="2,3" points="
					338.115,356.633 349.763,356.633 349.763,337.5 362.976,337.5 				"/>
				<path fill="#005695" d="M365.338,336.475c-1.654-0.499-2.729-0.959-4.055-1.491v5.044c0.475-0.225,2.4-0.992,4.055-1.491
					c1.77-0.534,3.373-0.9,4.414-1.03C368.711,337.375,367.107,337.01,365.338,336.475z"/>
			</g>
		</g>
		<g>
			<g>
				<polyline fill="none" stroke="#005695" stroke-linecap="round" stroke-miterlimit="1" stroke-dasharray="2,3" points="
					349.764,356.633 349.763,375.879 362.976,375.879 				"/>
				<path fill="#005695" d="M365.338,374.854c-1.654-0.499-2.729-0.959-4.055-1.491v5.044c0.475-0.225,2.4-0.992,4.055-1.491
					c1.77-0.534,3.373-0.9,4.414-1.03C368.711,375.754,367.107,375.389,365.338,374.854z"/>
			</g>
		</g>
		
			<rect x="177.731" y="343.189" fill="#B2CEE7" stroke="#010101" stroke-width="0.75" stroke-linecap="round" stroke-linejoin="round" stroke-miterlimit="1" width="80" height="26.996"/>
		<g>
			<text transform="matrix(1 0 0 1 191.6616 350.2305)"><tspan x="0" y="0" font-size="7">Information used</tspan><tspan x="7.779" y="8.4" font-size="7">for planning</tspan><tspan x="3.127" y="16.8" font-size="7">(CONTAINER)</tspan></text>
		</g>
		<g>
			<g>
				
					<line fill="none" stroke="#005695" stroke-linecap="round" stroke-miterlimit="1" x1="257.397" y1="356.689" x2="267.759" y2="356.689"/>
				<path fill="#005695" d="M270.121,355.664c-1.654-0.499-2.729-0.959-4.055-1.491v5.044c0.475-0.225,2.4-0.992,4.055-1.491
					c1.77-0.534,3.373-0.9,4.414-1.03C273.494,356.564,271.891,356.199,270.121,355.664z"/>
			</g>
		</g>
		
			<polygon fill="#CCDEF0" stroke="#010101" stroke-width="0.75" stroke-linecap="round" stroke-linejoin="round" stroke-miterlimit="1" points="
			275.108,356.477 306.585,343.301 338.116,356.902 338.116,356.934 306.55,370.297 		"/>
		<g>
			<text transform="matrix(1 0.0022 -0.0022 1 288.5254 358.6816)" font-size="7">CONTAINS</text>
		</g>
		
			<rect x="35.158" y="16.121" fill="#86B2D8" stroke="#010101" stroke-width="0.75" stroke-linecap="round" stroke-linejoin="round" stroke-miterlimit="1" width="84" height="27"/>
		<g>
			<text transform="matrix(1 0 0 1 49.3672 27.042)"><tspan x="0" y="0" font-size="8">Document Root</tspan><tspan x="1.57" y="9.6" font-size="8">(CONTAINER)</tspan></text>
		</g>
	</g>
</g>
</svg>
