<?xml version="1.0" encoding="utf-8"?>

<!DOCTYPE svg PUBLIC "-//W3C//DTD SVG 1.1//EN" "http://www.w3.org/Graphics/SVG/1.1/DTD/svg11.dtd">
<svg version="1.1" id="Layer_1" xmlns="http://www.w3.org/2000/svg" xmlns:xlink="http://www.w3.org/1999/xlink" x="0px" y="0px"
	 width="502px" height="262px" viewBox="0 0 502 262" enable-background="new 0 0 502 262" xml:space="preserve">

<defs>
	<style type="text/css">
	text {
	  font-family: Helvetica, Verdana, ArialUnicodeMS, san-serif
	}
	</style>
</defs>

<g>
   <desc>
	PS 3.17 Part 17: Explanatory Information
   </desc>
</g>

<g>
	<rect x="1" y="1" fill="#F5EED6" width="500" height="260"/>
</g>
<g>
	<g>
		<text transform="matrix(1 0 0 1 17.2407 84.6455)" font-size="9">X-Ray Detector</text>
	</g>
	<text transform="matrix(1 0 0 1 132.2783 25.1475)" font-size="9">Frame N/2</text>
	<text transform="matrix(1 0 0 1 262.4023 84.8574)" font-size="9">Frame N</text>
	
		<polygon id="Table_1_" fill="#6799C8" stroke="#000000" stroke-width="0.5" stroke-linecap="round" stroke-linejoin="round" points="
		157.672,125.197 484.76,189.118 448.915,244.831 78.277,148.568 	"/>
	
		<polygon id="Plane.3_1_" fill="#A7A9AC" stroke="#005695" stroke-linecap="round" stroke-linejoin="round" stroke-dasharray="2,3" points="
		236.718,131.887 274.563,139.091 274.563,92.461 236.718,87.271 	"/>
	<path fill="#CCDEF0" stroke="#000000" d="M210.789,119.699c-0.942-6.724-7.063-10.962-13.991-9.87
		c-5.51,0.868-16.659,0.643-16.834,8.504c-0.164,7.465,9.978,8.351,15.29,9.739c3.149,0.821,6.39,0.715,9.46-0.465
		c3.958-1.524,5.174-3.992,6.096-7.919"/>
	<path fill="#CCDEF0" stroke="#000000" d="M146.594,121.736c5.123-0.141,7.998,2.729,7.913,7.932
		c-0.059,3.688-7.333,6.424-9.81,7.984c-3.943,2.483-8.326,3.823-12.687,5.469c-3.412,1.287-8.038,2.179-10.769-0.949
		c-2.687-3.083-4.441-8.584-0.233-11.365c4.096-2.708,8.62-4.327,13.146-6.221c3.883-1.626,8.243-2.029,12.363-2.835"/>
	<polygon fill="#CCDEF0" stroke="#000000" points="166.894,123.422 162.146,124.602 158.935,124.487 144.994,122.986 
		139.218,121.639 135.178,119.238 131.29,115.587 129.708,110.237 129.169,108.038 129.905,104.07 132.293,100.555 134.374,99.052 
		139.609,95.586 145.393,94.577 150.375,94.607 155.953,96.316 168.167,101.772 170.817,103.214 173.761,106.437 174.824,107.623 
		175.792,111.686 174.921,116.141 172.378,120.155 168.626,122.975 	"/>
	<path fill="#CCDEF0" stroke="#000000" d="M202.163,112.213c4.721-2.382,9.995-2.245,13.062,2.609
		c2.571,4.073,2.302,9.302-2.004,12.143c-4.415,2.915-10.141,1.972-13.067-2.465C197.702,120.783,197.646,114.614,202.163,112.213z"
		/>
	<path fill="#CCDEF0" stroke="#000000" d="M168.438,106.396c4.886-1.029,10.194,0.67,12.288,5.722
		c2.047,4.945-1.238,10.366-5.979,11.828C163.217,127.504,156.867,111.169,168.438,106.396z"/>
	<path fill="#CCDEF0" stroke="#000000" d="M168.68,128.629c3.334,3.881,7.001,6.443,11.17,9.445
		c3.471,2.501,9.208,3.317,13.237,4.674c3.954,1.329,7.86,2.769,11.947,3.631c4.657,0.983,8.819-1.063,12.371-3.825
		c2.96-2.302,5.659-7.056,5.526-10.848c-0.163-4.661-2.881-8.196-6.681-10.731c-4.165-2.778-8.353-5.521-12.531-8.278
		c-3.246-2.141-6.792-3.05-10.498-4.169c-3.482-1.051-6.265-2.431-9.819-1.694c-3.964,0.82-6.562,2.175-9.941,4.412
		c-2.689,1.78-4.135,5.217-5.1,8.13C167.378,122.349,168.282,125.551,168.68,128.629z"/>
	<g>
		<path fill="#CCDEF0" stroke="#000000" d="M113.396,138.966c1.12,4.467,3.556,6.979,8.384,6.81
			c3.747-0.132,6.908-3.349,6.774-7.187C128.229,129.261,112.275,129.752,113.396,138.966z"/>
	</g>
	<path fill="#CCDEF0" stroke="#000000" d="M120.326,132.923c3.123-3.517,8.071-4.058,12.474-5.431
		c4.336-1.353,8.681-2.666,13.03-3.97c4.462-1.335,8.425-1.572,13.093-1.697c4.606-0.126,7.432,3.362,8.965,7.284
		c3.733,9.556-9.638,13.495-16.414,14.165c-4.529,0.445-9.053,0.889-13.583,1.286c-4.692,0.411-9.847,1.789-14.334,0.091
		C119.109,142.969,119.413,136.403,120.326,132.923z"/>
	<path fill="#CCDEF0" stroke="#000000" d="M237.587,142.865c-1.267,4.65-3.644,7.287-7.146,10.49
		c-2.17,1.987-8.596,2.95-11.226,2.017c-2.242-0.794-4.368-1.691-6.544-2.658c-2.188-0.974-2.865-2.618-4.193-4.636
		c-2.537-3.843-3.642-6.982-2.451-11.585c1.209-4.668,3.422-7.685,7.089-10.759c1.836-1.539,8.91-2.863,11.021-2.021
		c2.16,0.862,4.307,1.708,6.415,2.687c2.366,1.098,3.153,2.562,4.704,4.703C237.953,134.824,238.086,138.406,237.587,142.865z"/>
	<path fill="#CCDEF0" stroke="#000000" d="M270.161,142.43c-0.81-3.862-1.487-8.566-5.49-10.638
		c-4.348-2.248-8.523-3.135-13.299-4.112c-4.84-0.989-9.503-0.567-14.447-0.418c-3.848,0.115-7.748,0.659-10.648,3.44
		c-6.604,6.328-10.236,16.576-2.73,23.63c3.332,3.132,8.664,4.807,12.718,6.873c3.494,1.778,8.171,2.068,12.041,2.478
		C261.646,165.087,269.072,154.687,270.161,142.43z"/>
	<path fill="#CCDEF0" stroke="#000000" d="M165.906,137.881c5.108,1.715,11.21,1.062,13.612-4.537
		c2.19-5.102,0.679-10.518-4.513-13.207c-4.783-2.482-11.522-0.391-13.821,4.493C158.608,130.105,160.983,134.935,165.906,137.881z"
		/>
	<path fill="#CCDEF0" stroke="#000000" d="M281.687,150.51c-1.553,1.765-2.72,3.126-5.043,3.77
		c-0.796,0.223-2.203,0.946-3.023,0.738c-1.232-0.312-2.473-0.597-3.697-0.937c-2.182-0.606-4.043-1.849-5.229-3.871
		c-0.976-1.665-1.941-4.258-1.654-6.254c0.36-2.483,1.212-4.005,2.77-5.938c0.905-1.121,1.337-1.611,2.621-2.227
		c1.09-0.521,2.278-0.798,3.433-1.147c1.996-0.604,4.424,0.421,6.333,1.156c2.113,0.815,3.541,2.96,4.536,4.879
		C284.377,143.852,283.68,147.776,281.687,150.51z"/>
	<path fill="#CCDEF0" stroke="#000000" d="M332.04,168.38c2.341,0.91,2.533,1.187,4.662-0.376c1.673-1.23,2.405-3.396,3.077-5.288
		c1.166-3.298,2.455-9.294-0.92-11.549c-2.402-1.604-7.642-2.136-10.384-2.952c-6.23-1.853-12.462-3.702-18.691-5.553
		c-8.403-2.5-16.862-4.819-25.309-7.189c-3.15-0.886-7.358,2.898-8.424,5.626c-1.55,3.974-3.17,8.983-0.913,12.995
		c2.407,4.279,5.935,4.35,10.41,5.266c5.232,1.068,10.45,2.219,15.696,3.208C311.511,164.505,321.777,166.441,332.04,168.38z"/>
	<path fill="#CCDEF0" stroke="#000000" d="M244.836,149.96c0.847-2.32,2.306-5.236,4.757-6.169c3.458-1.314,5.275-1.656,8.815-0.593
		c5.803,1.741,7.949,6.979,6.993,12.71c-0.967,5.792-7.839,8.809-12.921,7.325c-6.507-1.896-8.671-6.981-7.666-13.343"/>
	<path fill="#CCDEF0" stroke="#000000" d="M316.132,162.057c-9.187-3.431-18.372-6.863-27.556-10.297
		c-3.962-1.479-7.973-2.837-11.956-4.254c-2.338-0.829-9.621-4.716-12.172-3.711c-1.589,0.629-4.22,1.184-5.398,2.465
		c-1.938,2.104-2.894,3.704-4.102,6.312c-1.631,3.515-1.222,8.255,0.995,11.35c1.136,1.584,1.557,2.735,3.38,3.242
		c2.882,0.799,5.761,1.598,8.643,2.396c3.801,1.055,7.595,2.163,11.412,3.155c10.812,2.812,21.659,6.147,32.455,8.777
		c5.049,1.229,8.672-3.558,9.572-8.28c0.453-2.383,1.002-4.891,0.242-7.29c-0.922-2.927-3.31-3.584-6.083-3.965"/>
	<path fill="#CCDEF0" stroke="#000000" d="M331.771,158.084c-3.474,9.869,10.811,15.294,15.541,6.193
		c2.256-4.339-0.972-9.275-4.971-10.943C338.103,151.566,333.648,154.248,331.771,158.084z"/>
	<path fill="#CCDEF0" stroke="#000000" d="M422.967,179.083c-1.979,2.874-9.44,1.152-12.453,0.816
		c-3.785-0.422-7.562-0.824-11.355-1.146c-9.218-0.787-18.562-1.133-27.685-2.699c-6.223-1.067-12.444-2.138-18.666-3.205
		c-2.975-0.513-7.929-0.828-10.319-2.908c-3.375-2.945-2.117-8.682-1.136-12.326c0.999-3.709,4.972-5.419,8.526-5.047
		c8.679,0.909,17.356,1.82,26.036,2.73c7.334,0.77,14.65,2.688,21.887,4.079c6.365,1.221,13.747,1.528,19.843,3.508
		c3.688,1.198,7.647,1.46,7.709,6.125C425.393,172.038,425.27,176.817,422.967,179.083z"/>
	<path fill="#CCDEF0" stroke="#000000" d="M329.449,178.226c-2.662,3.139-7.869,6.507-12.012,3.289
		c-3.811-2.96-6.244-7.555-3.392-12.163C320.057,159.631,335.677,168.844,329.449,178.226z"/>
	<path fill="#CCDEF0" stroke="#000000" d="M410.241,194.486c-2.04,2.892-9.02,1.234-12.131,0.837c-3.841-0.491-7.677-1-11.527-1.393
		c-9.281-0.94-18.923-1.201-28.088-2.934c-9.621-1.821-19.782-2.879-29.183-5.614c-4.184-1.217-7.577-3.832-7.149-8.706
		c0.425-4.854,1.272-8.43,5.454-11.261c2.216-1.497,6.97-0.366,9.422-0.073c6.137,0.735,12.274,1.465,18.412,2.197
		c8.159,0.977,16.095,2.795,24.142,4.469c8.254,1.717,16.499,3.315,24.796,4.814c3.347,0.606,8.461,1.96,8.549,6.078
		C413.014,186.326,413.016,191.962,410.241,194.486z"/>
	<path fill="#CCDEF0" stroke="#000000" d="M438.559,170.139c2.995,7.645-9.056,15.426-13.11,7.617
		C421.612,170.371,434.72,162.391,438.559,170.139z"/>
	<g>
		<path fill="#CCDEF0" stroke="#000000" d="M470.089,196.791c0.296-0.188,0.592-0.376,0.888-0.563
			c-2.317,1.773-3.728,1.579-6.605,1.433c-0.87-0.045-2.562-1.826-3.238-2.317c-5.155-3.755-10.313-7.509-15.469-11.262
			c-3.221-2.343-6.126-4.728-9.106-7.381c-1.735-1.545-3.152-2.846-4.506-4.716c-0.737-1.017-1.45-1.599-1.376-2.847
			c0.059-1.015,0.94-1.816,1.573-2.56c1.281-1.495,3.225-4.012,5.468-3.559c1.606,0.326,3.55,2.057,4.811,3.132
			c3.054,2.606,6.161,5.147,9.068,7.908c4.527,4.298,9.049,8.593,13.573,12.887c1.749,1.663,7.492,5.703,6.031,8.81
			c-0.074,0.157-0.147,0.315-0.224,0.472"/>
		<line fill="#CCDEF0" stroke="#000000" x1="434.172" y1="164.339" x2="470.977" y2="196.228"/>
		<polyline fill="#CCDEF0" stroke="#000000" points="432.205,166.633 432.419,167.604 435.611,171.18 443.474,178.095 
			466.086,195.918 469.212,196.889 470.089,196.791 		"/>
	</g>
	<path fill="#CCDEF0" stroke="#000000" d="M421.374,183.882c3.376,8.254-9.688,16.449-13.966,7.979
		C403.316,183.765,417.934,175.259,421.374,183.882z"/>
	<g>
		<path fill="#CCDEF0" stroke="#000000" d="M454.596,213.549c0.352-0.215,0.703-0.431,1.057-0.646
			c-0.911,0.681-1.632,1.231-2.692,1.617c-1.044,0.378-2.508-0.008-3.599-0.079c-1.357-0.085-1.996-0.836-3.09-1.665
			c-4.973-3.781-9.942-7.562-14.916-11.343c-2.898-2.204-5.98-4.271-8.648-6.757c-2.205-2.055-4.413-4.11-6.616-6.163
			c-0.492-0.461-0.812-0.923-1.198-1.485c-0.622-0.908-2.005-2.243-2.27-3.311c-0.532-2.144,2.184-4.247,3.432-5.562
			c1.031-1.085,3.802-2.923,5.275-1.903c4.215,2.914,7.884,6.186,11.714,9.597c7.279,6.479,13.914,13.823,20.81,20.71
			c1.693,1.691,3.033,4.067,1.799,6.344"/>
		<line fill="#CCDEF0" stroke="#000000" x1="416.609" y1="177.574" x2="455.652" y2="212.903"/>
		<path fill="#CCDEF0" stroke="#000000" d="M414.162,180.148c0.265,1.851,2.101,3.799,3.469,5.06
			c1.832,1.687,3.664,3.37,5.496,5.058c2.468,2.271,5.005,4.384,7.604,6.506c4.867,3.979,9.729,7.954,14.597,11.929
			c2.69,2.201,5.437,5.318,9.268,4.849"/>
	</g>
	<g>
		<g>
			
				<line fill="none" stroke="#000000" stroke-linecap="round" stroke-linejoin="round" x1="112.227" y1="158.813" x2="112.703" y2="158.66"/>
			
				<line fill="none" stroke="#000000" stroke-linecap="round" stroke-linejoin="round" stroke-dasharray="0.9967,1.9934" x1="114.601" y1="158.051" x2="253.144" y2="113.535"/>
			
				<line fill="none" stroke="#000000" stroke-linecap="round" stroke-linejoin="round" x1="254.093" y1="113.23" x2="254.568" y2="113.077"/>
		</g>
	</g>
	<polygon id="Plane.1_1_" fill="#D1D3D4" stroke="#005695" stroke-linecap="round" stroke-linejoin="round" points="
		134.076,133.951 91.166,123.656 91.166,183.079 134.076,197.003 	"/>
	
		<line fill="none" stroke="#000000" stroke-linecap="round" stroke-linejoin="round" stroke-dasharray="1,2" x1="195.73" y1="31.022" x2="195.73" y2="129.655"/>
	<path fill="none" stroke="#000000" stroke-width="0.5" stroke-linecap="round" stroke-linejoin="round" d="M272.601,138.716"/>
	<path fill="none" stroke="#000000" stroke-width="0.5" stroke-linecap="round" stroke-linejoin="round" d="M236.718,87.271"/>
	<path fill="none" stroke="#000000" stroke-width="0.5" stroke-linecap="round" stroke-linejoin="round" d="M236.718,131.887"/>
	<path fill="none" stroke="#000000" stroke-width="0.5" stroke-linecap="round" stroke-linejoin="round" d="M274.563,92.461"/>
	<text transform="matrix(1 -0.0019 0.0019 1 136.5298 113.1099)" fill="#00AEEF" font-size="11">+Z</text>
	<text transform="matrix(1 -0.0019 0.0019 1 254.4678 117.7026)" fill="#ED1C24" font-size="11">+X</text>
	<text transform="matrix(1 -0.0019 0.0019 1 187.4868 218.8701)" fill="#0DB14B" font-size="11">+Y</text>
	<g>
		<g>
			<g>
				<g>
					<line fill="none" stroke="#0DB14B" stroke-width="3" x1="195.131" y1="131.958" x2="195.131" y2="193.052"/>
					<g>
						<polygon fill="#0DB14B" points="190.773,190.08 195.131,206.341 199.489,190.08 						"/>
					</g>
				</g>
			</g>
			<g>
				<g>
					<line fill="none" stroke="#ED1C24" stroke-width="3" x1="195.028" y1="131.958" x2="241.901" y2="117.094"/>
					<g>
						<polygon fill="#ED1C24" points="240.385,122.146 254.568,113.077 237.75,113.838 						"/>
					</g>
				</g>
			</g>
			<g>
				<g>
					<line fill="none" stroke="#00AEEF" stroke-width="3" x1="195.214" y1="131.672" x2="148.042" y2="119.445"/>
					<g>
						<polygon fill="#00AEEF" points="152.012,115.972 135.178,116.11 149.825,124.409 						"/>
					</g>
				</g>
			</g>
		</g>
		<g>
			<path stroke="#000000" stroke-miterlimit="1" d="M204.683,129.955c0.005-4.894-3.961-8.854-8.851-8.854v8.858L204.683,129.955z"
				/>
			
				<path fill="#FFFFFF" stroke="#010101" stroke-width="0.75" stroke-linecap="round" stroke-linejoin="round" stroke-miterlimit="1" d="
				M195.832,121.101c-4.887,0-8.849,3.965-8.849,8.861l8.849-0.003V121.101z"/>
			<path stroke="#000000" stroke-miterlimit="1" d="M186.983,129.962c0.002,4.886,3.968,8.849,8.854,8.849l-0.006-8.852
				L186.983,129.962z"/>
			
				<path fill="#FFFFFF" stroke="#010101" stroke-width="0.75" stroke-linecap="round" stroke-linejoin="round" stroke-miterlimit="1" d="
				M195.832,129.959l0.006,8.852c4.888-0.003,8.85-3.969,8.845-8.857L195.832,129.959z"/>
		</g>
	</g>
	<path fill="#FFFFFF" stroke="#000000" stroke-linejoin="round" d="M261.646,105.325l-8.181,5.246l-7.643-10.68l4.637,1.668
		c-31.098-131.561-143.555-61.217-143.555,56.732l8.345,2.646c0-121.846,113.462-189.631,141.828-57.318L261.646,105.325z"/>
	
		<polygon id="Plane.2_2_" fill="#58595B" stroke="#005695" stroke-linecap="round" stroke-linejoin="round" stroke-dasharray="2,3" points="
		237.159,30.991 194.136,27.883 151.695,30.991 196.483,34.609 	"/>
	<text transform="matrix(1 0 0 1 95.4727 177.5781)" font-size="9">Frame 1</text>
	<g>
		<g>
			<polyline fill="none" stroke="#005695" stroke-linejoin="round" points="93.828,114.756 87.54,82.516 78.198,82.516 			"/>
			<g>
				<polygon fill="#005695" points="96.3,112.255 95.523,123.451 90.597,113.367 				"/>
			</g>
		</g>
	</g>
</g>
</svg>
