<?xml version="1.0" encoding="utf-8"?>

<!DOCTYPE svg PUBLIC "-//W3C//DTD SVG 1.1//EN" "http://www.w3.org/Graphics/SVG/1.1/DTD/svg11.dtd">
<svg version="1.1" id="Layer_1" xmlns="http://www.w3.org/2000/svg" xmlns:xlink="http://www.w3.org/1999/xlink" x="0px" y="0px"
	 width="642px" height="467px" viewBox="0 0 642 467" enable-background="new 0 0 642 467" xml:space="preserve">

<defs>
	<style type="text/css">
	text {
	  font-family: Helvetica, Verdana, ArialUnicodeMS, san-serif
	}
	</style>
</defs>

<g>
   <desc>
	PS 3.17 Part 17: Explanatory Information
   </desc>
</g>

<g>
	<rect x="1" y="1" fill="#F5EED6" width="640" height="465"/>
	<g>
		
			<line fill="none" stroke="#000000" stroke-width="0.5" stroke-linecap="round" stroke-miterlimit="1" x1="202.786" y1="50.746" x2="202.786" y2="451.415"/>
		
			<line fill="none" stroke="#000000" stroke-width="0.5" stroke-linecap="round" stroke-miterlimit="1" x1="88.919" y1="50.746" x2="88.919" y2="451.415"/>
		
			<line fill="none" stroke="#000000" stroke-width="0.5" stroke-linecap="round" stroke-miterlimit="1" x1="363.811" y1="50.746" x2="363.811" y2="451.415"/>
		
			<line fill="none" stroke="#000000" stroke-width="0.5" stroke-linecap="round" stroke-miterlimit="1" x1="35.891" y1="50.746" x2="35.891" y2="451.415"/>
		
			<rect x="69.919" y="15.585" fill="#CCDEF0" stroke="#010101" stroke-width="0.75" stroke-linecap="round" stroke-linejoin="round" stroke-miterlimit="1" width="38" height="35"/>
		
			<rect x="16.891" y="15.585" fill="#CCDEF0" stroke="#010101" stroke-width="0.75" stroke-linecap="round" stroke-linejoin="round" stroke-miterlimit="1" width="38" height="35"/>
		<text transform="matrix(1 0 0 1 26.3296 35.5806)" font-size="9">User</text>
		<text transform="matrix(1 0 0 1 73.9185 35.5806)" font-size="9">Archive</text>
		
			<rect x="329.811" y="15.585" fill="#CCDEF0" stroke="#010101" stroke-width="0.75" stroke-linecap="round" stroke-linejoin="round" stroke-miterlimit="1" width="68" height="35"/>
		
			<rect x="168.787" y="15.585" fill="#E6E6E6" stroke="#010101" stroke-width="0.75" stroke-linecap="round" stroke-linejoin="round" stroke-miterlimit="1" width="68" height="35"/>
		<text transform="matrix(1 0 0 1 343.3125 24.7808)"><tspan x="0" y="0" font-size="9">Treatment</tspan><tspan x="4.254" y="10.8" font-size="9">Delivery</tspan><tspan x="-7.744" y="21.6" font-size="9">System (TDS)</tspan></text>
		
			<line fill="none" stroke="#000000" stroke-width="0.5" stroke-linecap="round" stroke-miterlimit="1" x1="564.451" y1="50.746" x2="564.451" y2="451.415"/>
		
			<rect x="530.451" y="15.585" fill="#CCDEF0" stroke="#010101" stroke-width="0.75" stroke-linecap="round" stroke-linejoin="round" stroke-miterlimit="1" width="68" height="35"/>
		<text transform="matrix(1 0 0 1 547.4551 24.7808)"><tspan x="0" y="0" font-size="9">Machine</tspan><tspan x="-3.999" y="10.8" font-size="9">Parameter</tspan><tspan x="2.755" y="21.6" font-size="9">Verifier</tspan></text>
		<text transform="matrix(1 0 0 1 182.2788 24.7808)"><tspan x="0" y="0" font-size="9">Treatment</tspan><tspan x="-5.759" y="10.8" font-size="9">Management</tspan><tspan x="-9.492" y="21.6" font-size="9">System (TMS) </tspan></text>
		
			<rect x="559.951" y="98.765" fill="#CCDEF0" stroke="#010101" stroke-width="0.75" stroke-linecap="round" stroke-linejoin="round" stroke-miterlimit="1" width="9" height="311.559"/>
		
			<rect x="84.42" y="366.559" fill="#CCDEF0" stroke="#010101" stroke-width="0.75" stroke-linecap="round" stroke-linejoin="round" stroke-miterlimit="1" width="9" height="19.67"/>
		
			<rect x="31.394" y="85.943" fill="#CCDEF0" stroke="#010101" stroke-width="0.75" stroke-linecap="round" stroke-linejoin="round" stroke-miterlimit="1" width="9" height="326.548"/>
		<g>
			<rect x="31.394" y="58.334" fill="#E6E6E6" width="9" height="27.968"/>
			<g>
				<polyline fill="none" stroke="#010101" stroke-width="0.75" stroke-linecap="round" stroke-linejoin="round" points="
					32.394,86.302 31.394,86.302 31.394,85.302 				"/>
				
					<line fill="none" stroke="#010101" stroke-width="0.75" stroke-linecap="round" stroke-linejoin="round" stroke-dasharray="1.9975,1.9975" x1="31.394" y1="83.304" x2="31.394" y2="60.333"/>
				<polyline fill="none" stroke="#010101" stroke-width="0.75" stroke-linecap="round" stroke-linejoin="round" points="
					31.394,59.334 31.394,58.334 32.394,58.334 				"/>
				
					<line fill="none" stroke="#010101" stroke-width="0.75" stroke-linecap="round" stroke-linejoin="round" stroke-dasharray="2.3333,2.3333" x1="34.727" y1="58.334" x2="38.227" y2="58.334"/>
				<polyline fill="none" stroke="#010101" stroke-width="0.75" stroke-linecap="round" stroke-linejoin="round" points="
					39.394,58.334 40.394,58.334 40.394,59.334 				"/>
				
					<line fill="none" stroke="#010101" stroke-width="0.75" stroke-linecap="round" stroke-linejoin="round" stroke-dasharray="1.9975,1.9975" x1="40.394" y1="61.332" x2="40.394" y2="84.303"/>
				<polyline fill="none" stroke="#010101" stroke-width="0.75" stroke-linecap="round" stroke-linejoin="round" points="
					40.394,85.302 40.394,86.302 39.394,86.302 				"/>
				
					<line fill="none" stroke="#010101" stroke-width="0.75" stroke-linecap="round" stroke-linejoin="round" stroke-dasharray="2.3333,2.3333" x1="37.06" y1="86.302" x2="33.56" y2="86.302"/>
			</g>
		</g>
		<g>
			<rect x="31.394" y="412.491" fill="#E6E6E6" width="9" height="24.784"/>
			<g>
				<polyline fill="none" stroke="#010101" stroke-width="0.75" stroke-linecap="round" stroke-linejoin="round" points="
					32.394,437.275 31.394,437.275 31.394,436.275 				"/>
				
					<line fill="none" stroke="#010101" stroke-width="0.75" stroke-linecap="round" stroke-linejoin="round" stroke-dasharray="2.0713,2.0713" x1="31.394" y1="434.204" x2="31.394" y2="414.527"/>
				<polyline fill="none" stroke="#010101" stroke-width="0.75" stroke-linecap="round" stroke-linejoin="round" points="
					31.394,413.491 31.394,412.491 32.394,412.491 				"/>
				
					<line fill="none" stroke="#010101" stroke-width="0.75" stroke-linecap="round" stroke-linejoin="round" stroke-dasharray="2.3333,2.3333" x1="34.727" y1="412.491" x2="38.227" y2="412.491"/>
				<polyline fill="none" stroke="#010101" stroke-width="0.75" stroke-linecap="round" stroke-linejoin="round" points="
					39.394,412.491 40.394,412.491 40.394,413.491 				"/>
				
					<line fill="none" stroke="#010101" stroke-width="0.75" stroke-linecap="round" stroke-linejoin="round" stroke-dasharray="2.0713,2.0713" x1="40.394" y1="415.562" x2="40.394" y2="435.24"/>
				<polyline fill="none" stroke="#010101" stroke-width="0.75" stroke-linecap="round" stroke-linejoin="round" points="
					40.394,436.275 40.394,437.275 39.394,437.275 				"/>
				
					<line fill="none" stroke="#010101" stroke-width="0.75" stroke-linecap="round" stroke-linejoin="round" stroke-dasharray="2.3333,2.3333" x1="37.06" y1="437.275" x2="33.56" y2="437.275"/>
			</g>
		</g>
		
			<rect x="359.318" y="87.139" fill="#CCDEF0" stroke="#010101" stroke-width="0.75" stroke-linecap="round" stroke-linejoin="round" stroke-miterlimit="1" width="9" height="321.484"/>
		<g>
			<g>
				
					<line fill="none" stroke="#005695" stroke-linecap="round" stroke-miterlimit="1" x1="40.394" y1="96.032" x2="353.282" y2="96.032"/>
				<g>
					<polygon fill="#005695" points="352.093,97.775 358.598,96.032 352.093,94.289 					"/>
				</g>
			</g>
		</g>
		<g>
			<g>
				
					<line fill="none" stroke="#005695" stroke-linecap="round" stroke-miterlimit="1" x1="368.318" y1="123.312" x2="554.636" y2="123.312"/>
				<g>
					<polygon fill="#005695" points="553.446,125.056 559.951,123.312 553.446,121.569 					"/>
				</g>
			</g>
		</g>
		<g>
			<g>
				
					<line fill="none" stroke="#005695" stroke-linecap="round" stroke-miterlimit="1" x1="368.318" y1="160.104" x2="554.636" y2="160.104"/>
				<g>
					<polygon fill="#005695" points="553.446,161.847 559.951,160.104 553.446,158.36 					"/>
				</g>
			</g>
		</g>
		<g>
			<g>
				
					<line fill="none" stroke="#005695" stroke-linecap="round" stroke-miterlimit="1" x1="368.318" y1="140.304" x2="554.636" y2="140.304"/>
				<g>
					<polygon fill="#005695" points="553.446,142.047 559.951,140.304 553.446,138.561 					"/>
				</g>
			</g>
		</g>
		<g>
			<g>
				
					<line fill="none" stroke="#005695" stroke-linecap="round" stroke-miterlimit="1" x1="373.634" y1="194.969" x2="559.955" y2="194.969"/>
				<g>
					<polygon fill="#005695" points="374.823,196.712 368.318,194.969 374.823,193.226 					"/>
				</g>
			</g>
		</g>
		<g>
			<g>
				
					<line fill="none" stroke="#005695" stroke-linecap="round" stroke-miterlimit="1" x1="45.709" y1="213.445" x2="559.955" y2="213.445"/>
				<g>
					<polygon fill="#005695" points="46.898,215.188 40.394,213.445 46.898,211.702 					"/>
				</g>
			</g>
		</g>
		<g>
			<g>
				
					<line fill="none" stroke="#005695" stroke-linecap="round" stroke-miterlimit="1" x1="40.394" y1="232.528" x2="554.64" y2="232.528"/>
				<g>
					<polygon fill="#005695" points="553.45,234.271 559.955,232.528 553.45,230.785 					"/>
				</g>
			</g>
		</g>
		<g>
			<g>
				
					<line fill="none" stroke="#005695" stroke-linecap="round" stroke-miterlimit="1" x1="373.634" y1="311.669" x2="559.955" y2="311.669"/>
				<g>
					<polygon fill="#005695" points="374.823,313.412 368.318,311.669 374.823,309.926 					"/>
				</g>
			</g>
		</g>
		<g>
			<g>
				
					<line fill="none" stroke="#005695" stroke-linecap="round" stroke-miterlimit="1" x1="368.318" y1="338.312" x2="554.64" y2="338.312"/>
				<g>
					<polygon fill="#005695" points="553.45,340.055 559.955,338.312 553.45,336.568 					"/>
				</g>
			</g>
		</g>
		<g>
			<g>
				
					<line fill="none" stroke="#005695" stroke-linecap="round" stroke-miterlimit="1" x1="368.318" y1="268.478" x2="554.64" y2="268.478"/>
				<g>
					<polygon fill="#005695" points="553.45,270.221 559.955,268.478 553.45,266.734 					"/>
				</g>
			</g>
		</g>
		<g>
			<g>
				
					<line fill="none" stroke="#005695" stroke-linecap="round" stroke-miterlimit="1" x1="368.318" y1="402.69" x2="554.64" y2="402.69"/>
				<g>
					<polygon fill="#005695" points="553.45,404.434 559.955,402.69 553.45,400.947 					"/>
				</g>
			</g>
		</g>
		<g>
			<g>
				<polyline fill="none" stroke="#005695" stroke-linecap="round" stroke-miterlimit="1" points="368.318,346.553 378.053,346.553 
					378.053,358.729 373.634,358.729 				"/>
				<g>
					<polygon fill="#005695" points="374.823,356.985 368.318,358.729 374.823,360.472 					"/>
				</g>
			</g>
		</g>
		<g>
			<g>
				<polyline fill="none" stroke="#005695" stroke-linecap="round" stroke-miterlimit="1" points="568.951,280.164 578.688,280.164 
					578.688,292.34 574.267,292.34 				"/>
				<g>
					<polygon fill="#005695" points="575.456,290.597 568.951,292.34 575.456,294.083 					"/>
				</g>
			</g>
		</g>
		<g>
			<g>
				<polyline fill="none" stroke="#005695" stroke-linecap="round" stroke-miterlimit="1" points="568.951,167.404 578.688,167.404 
					578.688,179.58 574.267,179.58 				"/>
				<g>
					<polygon fill="#005695" points="575.456,177.837 568.951,179.58 575.456,181.323 					"/>
				</g>
			</g>
		</g>
		<g>
			<g>
				
					<line fill="none" stroke="#005695" stroke-linecap="round" stroke-miterlimit="1" x1="100.003" y1="375.681" x2="358.197" y2="375.681"/>
				<g>
					<polygon fill="#005695" points="101.192,377.424 94.688,375.681 101.192,373.938 					"/>
				</g>
			</g>
		</g>
		<rect x="45.679" y="88.257" fill="none" width="579.43" height="324.234"/>
		<text transform="matrix(1 0 0 1 45.6792 93.2676)"><tspan x="0" y="0" fill="#999999" font-size="7">1. ‘Deliver Beam X’ on TDS console</tspan><tspan x="0" y="18.4" fill="#999999" font-size="7" letter-spacing="50">	</tspan><tspan x="52" y="18.4" fill="#999999" font-size="7" letter-spacing="113">	</tspan><tspan x="167" y="18.4" fill="#999999" font-size="7" letter-spacing="166">	</tspan><tspan x="335" y="18.4" fill="#999999" font-size="7">2. Create RT Conv. Machine Verification</tspan><tspan x="0" y="26.8" fill="#999999" font-size="7" letter-spacing="50">	</tspan><tspan x="52" y="26.8" fill="#999999" font-size="7" letter-spacing="113">	</tspan><tspan x="167" y="26.8" fill="#999999" font-size="7" letter-spacing="166">	</tspan><tspan x="335" y="26.8" fill="#999999" font-size="7">(N-CREATE)</tspan><tspan x="0" y="45.2" fill="#999999" font-size="7" letter-spacing="50">	</tspan><tspan x="52" y="45.2" fill="#999999" font-size="7" letter-spacing="113">	</tspan><tspan x="167" y="45.2" fill="#999999" font-size="7" letter-spacing="166">	</tspan><tspan x="335" y="45.2" fill="#999999" font-size="7">3. Set ‘BeamX’ RT Conv. Machine Verification (N-SET)</tspan><tspan x="0" y="63.6" fill="#999999" font-size="7" letter-spacing="50">	</tspan><tspan x="52" y="63.6" fill="#999999" font-size="7" letter-spacing="113">	</tspan><tspan x="167" y="63.6" fill="#999999" font-size="7" letter-spacing="166">	</tspan><tspan x="335" y="63.6" fill="#999999" font-size="7">4. Initiate verification (N-ACTION)</tspan><tspan x="0" y="82" fill="#999999" font-size="7" letter-spacing="50">	</tspan><tspan x="52" y="82" fill="#999999" font-size="7" letter-spacing="113">	</tspan><tspan x="167" y="82" fill="#999999" font-size="7" letter-spacing="166">	</tspan><tspan x="335" y="82" fill="#999999" font-size="7" letter-spacing="198">	</tspan><tspan x="535" y="82" font-size="7">Verify Failed</tspan><tspan x="0" y="90.4" fill="#999999" font-size="7" letter-spacing="50">	</tspan><tspan x="52" y="90.4" fill="#999999" font-size="7" letter-spacing="113">	</tspan><tspan x="167" y="90.4" fill="#999999" font-size="7" letter-spacing="166">	</tspan><tspan x="335" y="90.4" fill="#999999" font-size="7">5. Notify Verification Status (N-EVENT-REPORT,</tspan><tspan x="0" y="98.8" fill="#999999" font-size="7" letter-spacing="50">	</tspan><tspan x="52" y="98.8" fill="#999999" font-size="7" letter-spacing="113">	</tspan><tspan x="167" y="98.8" fill="#999999" font-size="7" letter-spacing="166">	</tspan><tspan x="335" y="98.8" fill="#999999" font-size="7">Event-Type = ‘Done’, </tspan><tspan x="402.504" y="98.8" font-size="7">TVS = NOT_VERIFIED</tspan><tspan x="474.655" y="98.8" fill="#999999" font-size="7">)</tspan><tspan x="0" y="117.2" font-size="7">5a. Display override request or missing info message</tspan><tspan x="0" y="135.6" font-size="7">6. Supply override instruction or barcode</tspan><tspan x="0" y="172.4" font-size="7" letter-spacing="50">	</tspan><tspan x="52" y="172.4" font-size="7" letter-spacing="113">	</tspan><tspan x="167" y="172.4" font-size="7" letter-spacing="166">	</tspan><tspan x="335" y="172.4" font-size="7">7. Initiate verification (N-ACTION)</tspan><tspan x="0" y="190.8" font-size="7" letter-spacing="50">	</tspan><tspan x="52" y="190.8" font-size="7" letter-spacing="113">	</tspan><tspan x="167" y="190.8" font-size="7" letter-spacing="166">	</tspan><tspan x="335" y="190.8" font-size="7" letter-spacing="198">	</tspan><tspan x="535" y="190.8" font-size="7">Re-verify</tspan><tspan x="0" y="199.2" font-size="7" letter-spacing="50">	</tspan><tspan x="52" y="199.2" font-size="7" letter-spacing="113">	</tspan><tspan x="167" y="199.2" font-size="7" letter-spacing="166">	</tspan><tspan x="335" y="199.2" font-size="7" letter-spacing="198">	</tspan><tspan x="535" y="199.2" font-size="7">(succeeded)</tspan><tspan x="0" y="207.6" font-size="7" letter-spacing="50">	</tspan><tspan x="52" y="207.6" font-size="7" letter-spacing="113">	</tspan><tspan x="167" y="207.6" font-size="7" letter-spacing="166">	</tspan><tspan x="335" y="207.6" font-size="7">8. Notify Verification Status (N-EVENT-REPORT,</tspan><tspan x="0" y="216" font-size="7" letter-spacing="50">	</tspan><tspan x="52" y="216" font-size="7" letter-spacing="113">	</tspan><tspan x="167" y="216" font-size="7" letter-spacing="166">	</tspan><tspan x="335" y="216" font-size="7">Event-Type = ‘Done’, TVS = VERIFIED_OVR)</tspan><tspan x="0" y="234.4" fill="#999999" font-size="7" letter-spacing="50">	</tspan><tspan x="52" y="234.4" fill="#999999" font-size="7" letter-spacing="113">	</tspan><tspan x="167" y="234.4" fill="#999999" font-size="7" letter-spacing="166">	</tspan><tspan x="335" y="234.4" fill="#999999" font-size="7">9. Get RT-Conv. Machine Verification (N-GET) </tspan><tspan x="0" y="242.801" fill="#999999" font-size="7" letter-spacing="50">	</tspan><tspan x="52" y="242.801" fill="#999999" font-size="7" letter-spacing="113">	</tspan><tspan x="167" y="242.801" fill="#999999" font-size="7" letter-spacing="166">	</tspan><tspan x="335" y="242.801" fill="#999999" font-size="7">- optional instruction</tspan><tspan x="0" y="261.199" fill="#999999" font-size="7" letter-spacing="50">	</tspan><tspan x="52" y="261.199" fill="#999999" font-size="7" letter-spacing="113">	</tspan><tspan x="167" y="261.199" fill="#999999" font-size="7" letter-spacing="166">	</tspan><tspan x="335" y="261.199" fill="#999999" font-size="7">DELIVER RADIATION</tspan><tspan x="0" y="279.6" fill="#999999" font-size="7" letter-spacing="50">	</tspan><tspan x="52" y="279.6" fill="#999999" font-size="7">10. Store ‘BeamX’ RT Beams Treatment Record (C-STORE)</tspan><tspan x="0" y="298" fill="#999999" font-size="7" letter-spacing="50">	</tspan><tspan x="52" y="298" fill="#999999" font-size="7" letter-spacing="113">	</tspan><tspan x="167" y="298" fill="#999999" font-size="7" letter-spacing="166">	</tspan><tspan x="335" y="298" fill="#999999" font-size="7">11. Delete RT Conv. Machine Verification</tspan><tspan x="0" y="306.4" fill="#999999" font-size="7" letter-spacing="50">	</tspan><tspan x="52" y="306.4" fill="#999999" font-size="7" letter-spacing="113">	</tspan><tspan x="167" y="306.4" fill="#999999" font-size="7" letter-spacing="166">	</tspan><tspan x="335" y="306.4" fill="#999999" font-size="7">(N-DELETE)</tspan></text>
	</g>
</g>
</svg>
