<?xml version="1.0" encoding="utf-8"?>

<!DOCTYPE svg PUBLIC "-//W3C//DTD SVG 1.1//EN" "http://www.w3.org/Graphics/SVG/1.1/DTD/svg11.dtd">
<svg version="1.1" id="Layer_1" xmlns="http://www.w3.org/2000/svg" xmlns:xlink="http://www.w3.org/1999/xlink" x="0px" y="0px"
	 width="502px" height="242px" viewBox="0 0 502 242" enable-background="new 0 0 502 242" xml:space="preserve">

<defs>
	<style type="text/css">
	text {
	  font-family: Helvetica, Verdana, ArialUnicodeMS, san-serif
	}
	</style>
</defs>

<g>
   <desc>
	PS 3.17 Part 17: Explanatory Information
   </desc>
</g>

<g>
<rect x="1" y="1" fill="#F5EED6" width="500" height="240"/>
<g>
	<g>
		<text transform="matrix(1 0 0 1 163.9814 195.5049)"><tspan x="0" y="0" font-size="9">R</tspan><tspan x="6.499" y="5" font-size="9">3</tspan><tspan x="11.505" y="0" font-size="9"> =</tspan></text>
		<g>
			<text transform="matrix(1 0 0 1 199.7363 175.5596)"><tspan x="0" y="0" font-size="9">cos</tspan><tspan x="14.006" y="0" font-size="12">(</tspan><tspan x="18.002" y="0" font-size="9">At</tspan><tspan x="26.505" y="5" font-size="9">3</tspan><tspan x="31.51" y="0" font-size="12">)</tspan></text>
			<text transform="matrix(1 0 0 1 200.9863 197.5996)"><tspan x="0" y="0" font-size="9">sin</tspan><tspan x="11.505" y="0" font-size="12">(</tspan><tspan x="15.501" y="0" font-size="9">At</tspan><tspan x="24.004" y="5" font-size="9">3</tspan><tspan x="29.01" y="0" font-size="12">)</tspan></text>
			<text transform="matrix(1 0 0 1 214.9863 217.1191)" font-size="9">0</text>
			<text transform="matrix(1 0 0 1 247.3926 175.5596)"><tspan x="0" y="0" font-size="9">-sin</tspan><tspan x="14.502" y="0" font-size="12">(</tspan><tspan x="18.498" y="0" font-size="9">At</tspan><tspan x="27.002" y="5" font-size="9">3</tspan><tspan x="32.007" y="0" font-size="12">)</tspan></text>
			<text transform="matrix(1 0 0 1 247.6406 197.5996)"><tspan x="0" y="0" font-size="9">cos</tspan><tspan x="14.006" y="0" font-size="12">(</tspan><tspan x="18.002" y="0" font-size="9">At</tspan><tspan x="26.505" y="5" font-size="9">3</tspan><tspan x="31.51" y="0" font-size="12">)</tspan></text>
			<text transform="matrix(1 0 0 1 262.8906 217.1191)" font-size="9">0</text>
			<text transform="matrix(1 0 0 1 310.7969 175.5596)" font-size="9">0</text>
			<text transform="matrix(1 0 0 1 310.7969 197.5996)" font-size="9">0</text>
			<text transform="matrix(1 0 0 1 310.7969 217.1191)" font-size="9">1</text>
		</g>
		<g>
			<polyline fill="none" stroke="#000000" stroke-width="1.25" stroke-miterlimit="10" points="197.519,164.47 193.019,164.47 
				193.019,226.53 197.519,226.53 			"/>
			<polyline fill="none" stroke="#000000" stroke-width="1.25" stroke-miterlimit="10" points="331.518,226.53 338.018,226.53 
				338.018,164.47 331.518,164.47 			"/>
		</g>
	</g>
	<g>
		<text transform="matrix(1 0 0 1 163.9814 121.0049)"><tspan x="0" y="0" font-size="9">R</tspan><tspan x="6.499" y="5" font-size="9">2</tspan><tspan x="11.505" y="0" font-size="9"> =</tspan></text>
		<g>
			<text transform="matrix(1 0 0 1 214.9863 101.0596)" font-size="9">1</text>
			<text transform="matrix(1 0 0 1 214.9863 123.1006)" font-size="9">0</text>
			<text transform="matrix(1 0 0 1 214.9863 142.6201)" font-size="9">0</text>
			<text transform="matrix(1 0 0 1 262.8906 101.0596)" font-size="9">0</text>
			<text transform="matrix(1 0 0 1 247.6406 123.1006)"><tspan x="0" y="0" font-size="9">cos</tspan><tspan x="14.006" y="0" font-size="12">(</tspan><tspan x="18.002" y="0" font-size="9">At</tspan><tspan x="26.505" y="5" font-size="9">2</tspan><tspan x="31.51" y="0" font-size="12">)</tspan></text>
			<text transform="matrix(1 0 0 1 247.3926 142.6201)"><tspan x="0" y="0" font-size="9">-sin</tspan><tspan x="14.502" y="0" font-size="12">(</tspan><tspan x="18.498" y="0" font-size="9">At</tspan><tspan x="27.002" y="5" font-size="9">2</tspan><tspan x="32.007" y="0" font-size="12">)</tspan></text>
			<text transform="matrix(1 0 0 1 310.7969 101.0596)" font-size="9">0</text>
			<text transform="matrix(1 0 0 1 296.7969 123.1006)"><tspan x="0" y="0" font-size="9">sin</tspan><tspan x="11.504" y="0" font-size="12">(</tspan><tspan x="15.5" y="0" font-size="9">At</tspan><tspan x="24.004" y="5" font-size="9">2</tspan><tspan x="29.01" y="0" font-size="12">)</tspan></text>
			<text transform="matrix(1 0 0 1 295.5469 142.6201)"><tspan x="0" y="0" font-size="9">cos</tspan><tspan x="14.006" y="0" font-size="12">(</tspan><tspan x="18.002" y="0" font-size="9">At</tspan><tspan x="26.504" y="5" font-size="9">2</tspan><tspan x="31.51" y="0" font-size="12">)</tspan></text>
		</g>
		<g>
			<polyline fill="none" stroke="#000000" stroke-width="1.25" stroke-miterlimit="10" points="197.519,89.97 193.019,89.97 
				193.019,152.03 197.519,152.03 			"/>
			<polyline fill="none" stroke="#000000" stroke-width="1.25" stroke-miterlimit="10" points="331.518,152.03 338.018,152.03 
				338.018,89.97 331.518,89.97 			"/>
		</g>
	</g>
	<g>
		<text transform="matrix(1 0 0 1 163.9814 46.5049)"><tspan x="0" y="0" font-size="9">R</tspan><tspan x="6.499" y="5" font-size="9">1</tspan><tspan x="11.505" y="0" font-size="9"> =</tspan></text>
		<g>
			<text transform="matrix(1 0 0 1 199.7363 26.5596)"><tspan x="0" y="0" font-size="9">cos</tspan><tspan x="14.006" y="0" font-size="12">(</tspan><tspan x="18.002" y="0" font-size="9">At</tspan><tspan x="26.505" y="5" font-size="9">1</tspan><tspan x="31.51" y="0" font-size="12">)</tspan></text>
			<text transform="matrix(1 0 0 1 214.9863 48.6006)" font-size="9">0</text>
			<text transform="matrix(1 0 0 1 200.9863 68.1201)"><tspan x="0" y="0" font-size="9">sin</tspan><tspan x="11.505" y="0" font-size="12">(</tspan><tspan x="15.501" y="0" font-size="9">At</tspan><tspan x="24.004" y="5" font-size="9">1</tspan><tspan x="29.01" y="0" font-size="12">)</tspan></text>
			<text transform="matrix(1 0 0 1 262.8906 26.5596)" font-size="9">0</text>
			<text transform="matrix(1 0 0 1 262.8906 48.6006)" font-size="9">1</text>
			<text transform="matrix(1 0 0 1 262.8906 68.1201)" font-size="9">0</text>
			<text transform="matrix(1 0 0 1 295.2988 26.5596)"><tspan x="0" y="0" font-size="9">-sin</tspan><tspan x="14.502" y="0" font-size="12">(</tspan><tspan x="18.498" y="0" font-size="9">At</tspan><tspan x="27.002" y="5" font-size="9">1</tspan><tspan x="32.006" y="0" font-size="12">)</tspan></text>
			<text transform="matrix(1 0 0 1 310.7969 48.6006)" font-size="9">0</text>
			<text transform="matrix(1 0 0 1 295.5469 68.1201)"><tspan x="0" y="0" font-size="9">cos</tspan><tspan x="14.006" y="0" font-size="12">(</tspan><tspan x="18.002" y="0" font-size="9">At</tspan><tspan x="26.504" y="5" font-size="9">1</tspan><tspan x="31.51" y="0" font-size="12">)</tspan></text>
		</g>
		<g>
			<polyline fill="none" stroke="#000000" stroke-width="1.25" stroke-miterlimit="10" points="197.519,15.47 193.019,15.47 
				193.019,77.53 197.519,77.53 			"/>
			<polyline fill="none" stroke="#000000" stroke-width="1.25" stroke-miterlimit="10" points="331.518,77.53 338.018,77.53 
				338.018,15.47 331.518,15.47 			"/>
		</g>
	</g>
</g>
</g>
</svg>
