<?xml version="1.0" encoding="utf-8"?>

<!DOCTYPE svg PUBLIC "-//W3C//DTD SVG 1.1//EN" "http://www.w3.org/Graphics/SVG/1.1/DTD/svg11.dtd">
<svg version="1.1" id="Layer_1" xmlns="http://www.w3.org/2000/svg" xmlns:xlink="http://www.w3.org/1999/xlink" x="0px" y="0px"
	 width="502px" height="407px" viewBox="0 0 502 407" enable-background="new 0 0 502 407" xml:space="preserve">

<defs>
	<style type="text/css">
	text {
	  font-family: Helvetica, Verdana, ArialUnicodeMS, san-serif
	}
	</style>
</defs>

<g>
   <desc>
	PS 3.17 Part 17: Explanatory Information
   </desc>
</g>

<g>
	<rect x="1" y="1" fill="#F5EED6" width="500" height="405"/>
	<g>
		<g>
			
				<polygon fill="#CCDEF0" stroke="#010101" stroke-width="0.75" stroke-linecap="round" stroke-linejoin="round" stroke-miterlimit="1" points="
				267.729,67.823 312.69,54.655 357.736,68.249 357.736,68.28 312.64,81.635 			"/>
		</g>
		
			<rect x="166.153" y="73.365" fill="#B2CEE7" stroke="#010101" stroke-width="0.75" stroke-linecap="round" stroke-linejoin="round" stroke-miterlimit="1" width="70" height="26.996"/>
		<g>
			<text transform="matrix(1 0 0 1 170.2231 84.5898)"><tspan x="0" y="0" font-size="7">Internal Dimensions</tspan><tspan x="20.629" y="8.4" font-size="7">(NUM)</tspan></text>
		</g>
		
			<rect x="166.153" y="150.713" fill="#B2CEE7" stroke="#010101" stroke-width="0.75" stroke-linecap="round" stroke-linejoin="round" stroke-miterlimit="1" width="70" height="26.996"/>
		
			<rect x="375.42" y="131.969" fill="#B2CEE7" stroke="#010101" stroke-width="0.75" stroke-linecap="round" stroke-linejoin="round" stroke-miterlimit="1" width="103" height="26.996"/>
		
			<rect x="375.42" y="170.347" fill="#B2CEE7" stroke="#010101" stroke-width="0.75" stroke-linecap="round" stroke-linejoin="round" stroke-miterlimit="1" width="103" height="26.996"/>
		
			<rect x="375.42" y="210.164" fill="#B2CEE7" stroke="#010101" stroke-width="0.75" stroke-linecap="round" stroke-linejoin="round" stroke-miterlimit="1" width="103" height="26.996"/>
		
			<rect x="375.42" y="248.542" fill="#B2CEE7" stroke="#010101" stroke-width="0.75" stroke-linecap="round" stroke-linejoin="round" stroke-miterlimit="1" width="103" height="26.998"/>
		
			<rect x="375.42" y="288.363" fill="#B2CEE7" stroke="#010101" stroke-width="0.75" stroke-linecap="round" stroke-linejoin="round" stroke-miterlimit="1" width="103" height="26.996"/>
		
			<rect x="375.42" y="326.741" fill="#B2CEE7" stroke="#010101" stroke-width="0.75" stroke-linecap="round" stroke-linejoin="round" stroke-miterlimit="1" width="103" height="26.996"/>
		
			<rect x="375.42" y="364.759" fill="#B2CEE7" stroke="#010101" stroke-width="0.75" stroke-linecap="round" stroke-linejoin="round" stroke-miterlimit="1" width="103" height="26.996"/>
		
			<rect x="375.42" y="92.914" fill="#B2CEE7" stroke="#010101" stroke-width="0.75" stroke-linecap="round" stroke-linejoin="round" stroke-miterlimit="1" width="103" height="26.996"/>
		
			<rect x="375.42" y="54.536" fill="#B2CEE7" stroke="#010101" stroke-width="0.75" stroke-linecap="round" stroke-linejoin="round" stroke-miterlimit="1" width="103" height="26.996"/>
		<g>
			<text transform="matrix(1 0 0 1 174.5088 162.2969)"><tspan x="0" y="0" font-size="7">A-Wave Duration</tspan><tspan x="16.347" y="8.4" font-size="7">(NUM)</tspan></text>
		</g>
		
			<rect x="166.153" y="248.256" fill="#B2CEE7" stroke="#010101" stroke-width="0.75" stroke-linecap="round" stroke-linejoin="round" stroke-miterlimit="1" width="70" height="26.997"/>
		<g>
			<text transform="matrix(1 0 0 1 177.6177 259.4805)"><tspan x="0" y="0" font-size="7">Tissue Velocity</tspan><tspan x="13.234" y="8.4" font-size="7">(NUM)</tspan></text>
		</g>
		
			<rect x="166.153" y="346.608" fill="#B2CEE7" stroke="#010101" stroke-width="0.75" stroke-linecap="round" stroke-linejoin="round" stroke-miterlimit="1" width="70" height="26.995"/>
		<g>
			<text transform="matrix(1 0 0 1 179.5591 358.1953)"><tspan x="0" y="0" font-size="7">Cardiac Index</tspan><tspan x="11.293" y="8.399" font-size="7">(NUM)</tspan></text>
		</g>
		<g>
			<g>
				
					<line fill="none" stroke="#005695" stroke-linecap="round" stroke-miterlimit="1" x1="65.695" y1="86.505" x2="80.167" y2="86.505"/>
				<path fill="#005695" d="M82.529,85.48c-1.653-0.5-2.728-0.959-4.054-1.492v5.044c0.475-0.226,2.401-0.993,4.054-1.492
					c1.77-0.535,3.374-0.9,4.415-1.031C85.903,86.38,84.299,86.014,82.529,85.48z"/>
			</g>
		</g>
		<g>
			<g>
				
					<line fill="none" stroke="#005695" stroke-linecap="round" stroke-miterlimit="1" x1="149.151" y1="86.865" x2="159.513" y2="86.865"/>
				<path fill="#005695" d="M161.875,85.84c-1.653-0.5-2.728-0.959-4.054-1.492v5.044c0.475-0.226,2.401-0.993,4.054-1.492
					c1.77-0.535,3.374-0.9,4.415-1.031C165.249,86.74,163.644,86.375,161.875,85.84z"/>
			</g>
		</g>
		<g>
			<g>
				
					<line fill="none" stroke="#005695" stroke-linecap="round" stroke-miterlimit="1" x1="149.151" y1="164.57" x2="159.513" y2="164.57"/>
				<path fill="#005695" d="M161.875,163.545c-1.653-0.5-2.728-0.959-4.054-1.492v5.044c0.475-0.226,2.401-0.993,4.054-1.492
					c1.77-0.535,3.374-0.9,4.415-1.031C165.249,164.445,163.644,164.08,161.875,163.545z"/>
			</g>
		</g>
		
			<polygon fill="#CCDEF0" stroke="#010101" stroke-width="0.75" stroke-linecap="round" stroke-linejoin="round" stroke-miterlimit="1" points="
			85.94,261.432 117.417,248.256 148.948,261.857 148.948,261.889 117.382,275.253 		"/>
		<g>
			<g>
				
					<line fill="none" stroke="#005695" stroke-linecap="round" stroke-miterlimit="1" x1="65.695" y1="164.392" x2="80.167" y2="164.392"/>
				<path fill="#005695" d="M82.529,163.367c-1.653-0.5-2.728-0.959-4.054-1.492v5.044c0.475-0.226,2.401-0.993,4.054-1.492
					c1.77-0.535,3.374-0.9,4.415-1.031C85.903,164.267,84.299,163.901,82.529,163.367z"/>
			</g>
		</g>
		<g>
			<g>
				
					<line fill="none" stroke="#005695" stroke-linecap="round" stroke-miterlimit="1" x1="149.151" y1="261.754" x2="159.513" y2="261.754"/>
				<path fill="#005695" d="M161.875,260.729c-1.653-0.499-2.728-0.959-4.054-1.491v5.044c0.475-0.225,2.401-0.992,4.054-1.491
					c1.77-0.534,3.374-0.9,4.415-1.03C165.249,261.629,163.644,261.264,161.875,260.729z"/>
			</g>
		</g>
		<g>
			<text transform="matrix(1 0.0022 -0.0022 1 99.3569 263.6416)" font-size="7">CONTAINS</text>
		</g>
		
			<polygon fill="#CCDEF0" stroke="#010101" stroke-width="0.75" stroke-linecap="round" stroke-linejoin="round" stroke-miterlimit="1" points="
			85.94,164.248 117.417,151.072 148.948,164.674 148.948,164.705 117.382,178.068 		"/>
		<g>
			<text transform="matrix(1 0.0022 -0.0022 1 99.3569 166.4575)" font-size="7">CONTAINS</text>
		</g>
		
			<polygon fill="#CCDEF0" stroke="#010101" stroke-width="0.75" stroke-linecap="round" stroke-linejoin="round" stroke-miterlimit="1" points="
			85.94,86.541 117.417,73.365 148.948,86.967 148.948,86.998 117.382,100.361 		"/>
		<g>
			<text transform="matrix(1 0.0022 -0.0022 1 99.3569 88.7505)" font-size="7">CONTAINS</text>
		</g>
		
			<polygon fill="#CCDEF0" stroke="#010101" stroke-width="0.75" stroke-linecap="round" stroke-linejoin="round" stroke-miterlimit="1" points="
			85.94,360.145 117.417,346.97 148.948,360.57 148.948,360.602 117.382,373.965 		"/>
		<g>
			<g>
				
					<line fill="none" stroke="#005695" stroke-linecap="round" stroke-miterlimit="1" x1="149.151" y1="360.467" x2="159.513" y2="360.467"/>
				<path fill="#005695" d="M161.875,359.441c-1.653-0.499-2.728-0.959-4.054-1.491v5.044c0.475-0.225,2.401-0.992,4.054-1.491
					c1.77-0.534,3.374-0.9,4.415-1.03C165.249,360.342,163.644,359.977,161.875,359.441z"/>
			</g>
		</g>
		<g>
			<text transform="matrix(1 0.0022 -0.0022 1 99.3569 362.3555)" font-size="7">CONTAINS</text>
		</g>
		<g>
			<g>
				
					<line fill="none" stroke="#005695" stroke-linecap="round" stroke-miterlimit="1" x1="65.695" y1="261.733" x2="80.167" y2="261.733"/>
				<path fill="#005695" d="M82.529,260.709c-1.653-0.5-2.728-0.96-4.054-1.492v5.045c0.475-0.227,2.401-0.993,4.054-1.492
					c1.77-0.535,3.374-0.9,4.415-1.031C85.903,261.608,84.299,261.242,82.529,260.709z"/>
			</g>
		</g>
		<g>
			<g>
				<polyline fill="none" stroke="#005695" stroke-linecap="round" stroke-miterlimit="1" points="65.696,42.277 65.695,360.286 
					80.167,360.286 				"/>
				<path fill="#005695" d="M82.529,359.262c-1.653-0.5-2.728-0.96-4.054-1.492v5.045c0.475-0.227,2.401-0.993,4.054-1.492
					c1.77-0.535,3.374-0.9,4.415-1.031C85.903,360.161,84.299,359.795,82.529,359.262z"/>
			</g>
		</g>
		<g>
			<text transform="matrix(1 -0.0019 0.0019 1 404.3535 65.874)"><tspan x="0" y="0" font-size="7">Image Mode =</tspan><tspan x="8.27" y="8.4" font-size="7">2D Mode</tspan></text>
		</g>
		<g>
			<g>
				
					<line fill="none" stroke="#005695" stroke-linecap="round" stroke-miterlimit="1" x1="358.266" y1="68.145" x2="368.627" y2="68.145"/>
				<path fill="#005695" d="M370.988,67.12c-1.652-0.5-2.728-0.959-4.054-1.492v5.044c0.475-0.226,2.401-0.993,4.054-1.492
					c1.77-0.535,3.375-0.9,4.415-1.031C374.363,68.02,372.758,67.654,370.988,67.12z"/>
			</g>
		</g>
		<g>
			<text transform="matrix(1 0.0022 -0.0022 1 305.5781 63.7173)"><tspan x="0" y="0" font-size="7">HAS</tspan><tspan x="-19.054" y="8.4" font-size="7">CONCEPT MOD</tspan></text>
		</g>
		<g>
			
				<polygon fill="#CCDEF0" stroke="#010101" stroke-width="0.75" stroke-linecap="round" stroke-linejoin="round" stroke-miterlimit="1" points="
				267.729,106.09 312.69,92.922 357.736,106.516 357.736,106.547 312.64,119.902 			"/>
		</g>
		<g>
			<text transform="matrix(1 0.0022 -0.0022 1 305.5781 101.9849)"><tspan x="0" y="0" font-size="7">HAS</tspan><tspan x="-19.054" y="8.4" font-size="7">CONCEPT MOD</tspan></text>
		</g>
		<g>
			
				<polygon fill="#CCDEF0" stroke="#010101" stroke-width="0.75" stroke-linecap="round" stroke-linejoin="round" stroke-miterlimit="1" points="
				267.729,145.437 312.69,132.269 357.736,145.862 357.736,145.894 312.64,159.249 			"/>
		</g>
		<g>
			<text transform="matrix(1 0.0022 -0.0022 1 305.5781 141.332)"><tspan x="0" y="0" font-size="7">HAS</tspan><tspan x="-19.054" y="8.4" font-size="7">CONCEPT MOD</tspan></text>
		</g>
		<g>
			
				<polygon fill="#CCDEF0" stroke="#010101" stroke-width="0.75" stroke-linecap="round" stroke-linejoin="round" stroke-miterlimit="1" points="
				267.729,183.704 312.69,170.536 357.736,184.129 357.736,184.161 312.64,197.516 			"/>
		</g>
		<g>
			<text transform="matrix(1 0.0022 -0.0022 1 305.5781 179.5991)"><tspan x="0" y="0" font-size="7">HAS</tspan><tspan x="-19.054" y="8.4" font-size="7">CONCEPT MOD</tspan></text>
		</g>
		<g>
			
				<polygon fill="#CCDEF0" stroke="#010101" stroke-width="0.75" stroke-linecap="round" stroke-linejoin="round" stroke-miterlimit="1" points="
				267.729,223.41 312.69,210.242 357.736,223.836 357.736,223.867 312.64,237.223 			"/>
		</g>
		<g>
			<text transform="matrix(1 0.0022 -0.0022 1 305.5781 219.3066)"><tspan x="0" y="0" font-size="7">HAS</tspan><tspan x="-19.054" y="8.399" font-size="7">CONCEPT MOD</tspan></text>
		</g>
		<g>
			
				<polygon fill="#CCDEF0" stroke="#010101" stroke-width="0.75" stroke-linecap="round" stroke-linejoin="round" stroke-miterlimit="1" points="
				267.729,262.037 312.69,248.869 357.736,262.463 357.736,262.494 312.64,275.854 			"/>
		</g>
		<g>
			<text transform="matrix(1 0.0022 -0.0022 1 305.5781 257.9336)"><tspan x="0" y="0" font-size="7">HAS</tspan><tspan x="-19.054" y="8.4" font-size="7">CONCEPT MOD</tspan></text>
		</g>
		<g>
			
				<polygon fill="#CCDEF0" stroke="#010101" stroke-width="0.75" stroke-linecap="round" stroke-linejoin="round" stroke-miterlimit="1" points="
				267.729,301.393 312.69,288.225 357.736,301.818 357.736,301.85 312.64,315.205 			"/>
		</g>
		<g>
			<text transform="matrix(1 0.0022 -0.0022 1 305.5781 297.2812)"><tspan x="0" y="0" font-size="7">HAS</tspan><tspan x="-19.054" y="8.399" font-size="7">CONCEPT MOD</tspan></text>
		</g>
		<g>
			
				<polygon fill="#CCDEF0" stroke="#010101" stroke-width="0.75" stroke-linecap="round" stroke-linejoin="round" stroke-miterlimit="1" points="
				267.729,339.66 312.69,326.492 357.736,340.086 357.736,340.117 312.64,353.473 			"/>
		</g>
		<g>
			<text transform="matrix(1 0.0022 -0.0022 1 305.5781 335.5479)"><tspan x="0" y="0" font-size="7">HAS</tspan><tspan x="-19.054" y="8.4" font-size="7">CONCEPT MOD</tspan></text>
		</g>
		<g>
			
				<polygon fill="#CCDEF0" stroke="#010101" stroke-width="0.75" stroke-linecap="round" stroke-linejoin="round" stroke-miterlimit="1" points="
				267.729,378.288 312.69,365.12 357.736,378.714 357.736,378.745 312.64,392.101 			"/>
		</g>
		<g>
			<text transform="matrix(1 0.0022 -0.0022 1 305.5781 374.1748)"><tspan x="0" y="0" font-size="7">HAS</tspan><tspan x="-19.054" y="8.4" font-size="7">CONCEPT MOD</tspan></text>
		</g>
		<g>
			<text transform="matrix(1 -0.0019 0.0019 1 393.0742 104.48)"><tspan x="0" y="0" font-size="7">Cardiac Cycle Point =</tspan><tspan x="13.906" y="8.4" font-size="7">End Diastole</tspan></text>
		</g>
		<g>
			<text transform="matrix(1 -0.0019 0.0019 1 406.6895 143.3989)"><tspan x="0" y="0" font-size="7">Target Site =</tspan><tspan x="-27.916" y="8.4" font-size="7">Right Superior Pulmonary Vein</tspan></text>
		</g>
		<g>
			<text transform="matrix(1 -0.0019 0.0019 1 393.0742 182.0083)"><tspan x="0" y="0" font-size="7">Cardiac Cycle Point =</tspan><tspan x="15.073" y="8.4" font-size="7">End Systole</tspan></text>
		</g>
		<g>
			<g>
				
					<line fill="none" stroke="#005695" stroke-linecap="round" stroke-miterlimit="1" x1="358.264" y1="106.728" x2="368.625" y2="106.728"/>
				<path fill="#005695" d="M370.986,105.703c-1.652-0.5-2.728-0.959-4.054-1.492v5.044c0.475-0.226,2.401-0.993,4.054-1.492
					c1.77-0.535,3.375-0.9,4.415-1.031C374.361,106.603,372.756,106.237,370.986,105.703z"/>
			</g>
		</g>
		<g>
			<g>
				
					<line fill="none" stroke="#005695" stroke-linecap="round" stroke-miterlimit="1" x1="358.264" y1="145.673" x2="368.625" y2="145.673"/>
				<path fill="#005695" d="M370.986,144.648c-1.652-0.5-2.728-0.959-4.054-1.492v5.044c0.475-0.226,2.401-0.993,4.054-1.492
					c1.77-0.535,3.375-0.9,4.415-1.031C374.361,145.548,372.756,145.182,370.986,144.648z"/>
			</g>
		</g>
		<g>
			<g>
				
					<line fill="none" stroke="#005695" stroke-linecap="round" stroke-miterlimit="1" x1="358.264" y1="184.256" x2="368.625" y2="184.256"/>
				<path fill="#005695" d="M370.986,183.231c-1.652-0.5-2.728-0.959-4.054-1.492v5.044c0.475-0.226,2.401-0.993,4.054-1.492
					c1.77-0.535,3.375-0.9,4.415-1.031C374.361,184.131,372.756,183.765,370.986,183.231z"/>
			</g>
		</g>
		<g>
			<text transform="matrix(1 -0.0019 0.0019 1 406.6895 221.6465)"><tspan x="0" y="0" font-size="7">Target Site =</tspan><tspan x="-15.273" y="8.4" font-size="7">Cardiac Valve Annulus</tspan></text>
		</g>
		<g>
			<text transform="matrix(1 -0.0019 0.0019 1 393.2695 260.2568)"><tspan x="0" y="0" font-size="7">Target Site Modifier =</tspan><tspan x="23.244" y="8.4" font-size="7">Medial</tspan></text>
		</g>
		<g>
			<text transform="matrix(1 -0.0019 0.0019 1 393.0742 299.5625)"><tspan x="0" y="0" font-size="7">Cardiac Cycle Point =</tspan><tspan x="12.159" y="8.4" font-size="7">Early Diastole</tspan></text>
		</g>
		<g>
			<text transform="matrix(1 -0.0019 0.0019 1 388.791 338.1533)"><tspan x="0" y="0" font-size="7">Measurement Method = </tspan><tspan x="23.055" y="8.4" font-size="7">Teichholz</tspan></text>
		</g>
		<g>
			<g>
				
					<line fill="none" stroke="#005695" stroke-linecap="round" stroke-miterlimit="1" x1="358.264" y1="223.922" x2="368.625" y2="223.922"/>
				<path fill="#005695" d="M370.986,222.896c-1.652-0.499-2.728-0.959-4.054-1.491v5.044c0.475-0.225,2.401-0.992,4.054-1.491
					c1.77-0.534,3.375-0.9,4.415-1.03C374.361,223.797,372.756,223.432,370.986,222.896z"/>
			</g>
		</g>
		<g>
			<g>
				
					<line fill="none" stroke="#005695" stroke-linecap="round" stroke-miterlimit="1" x1="358.264" y1="262.506" x2="368.625" y2="262.506"/>
				<path fill="#005695" d="M370.986,261.48c-1.652-0.499-2.728-0.959-4.054-1.491v5.044c0.475-0.225,2.401-0.992,4.054-1.491
					c1.77-0.534,3.375-0.9,4.415-1.03C374.361,262.381,372.756,262.016,370.986,261.48z"/>
			</g>
		</g>
		<g>
			<g>
				
					<line fill="none" stroke="#005695" stroke-linecap="round" stroke-miterlimit="1" x1="358.264" y1="301.812" x2="368.625" y2="301.812"/>
				<path fill="#005695" d="M370.986,300.787c-1.652-0.5-2.728-0.96-4.054-1.492v5.045c0.475-0.227,2.401-0.993,4.054-1.492
					c1.77-0.535,3.375-0.9,4.415-1.031C374.361,301.687,372.756,301.32,370.986,300.787z"/>
			</g>
		</g>
		<g>
			<g>
				
					<line fill="none" stroke="#005695" stroke-linecap="round" stroke-miterlimit="1" x1="358.264" y1="340.394" x2="368.625" y2="340.394"/>
				<path fill="#005695" d="M370.986,339.369c-1.652-0.5-2.728-0.96-4.054-1.492v5.045c0.475-0.227,2.401-0.993,4.054-1.492
					c1.77-0.535,3.375-0.9,4.415-1.031C374.361,340.269,372.756,339.902,370.986,339.369z"/>
			</g>
		</g>
		<g>
			<text transform="matrix(1 -0.0019 0.0019 1 404.3535 376.2715)"><tspan x="0" y="0" font-size="7">Image Mode =</tspan><tspan x="8.27" y="8.4" font-size="7">2D Mode</tspan></text>
		</g>
		<g>
			<g>
				
					<line fill="none" stroke="#005695" stroke-linecap="round" stroke-miterlimit="1" x1="358.264" y1="378.542" x2="368.625" y2="378.542"/>
				<path fill="#005695" d="M370.986,377.518c-1.652-0.5-2.728-0.96-4.054-1.492v5.045c0.475-0.227,2.401-0.993,4.054-1.492
					c1.77-0.535,3.375-0.9,4.415-1.031C374.361,378.417,372.756,378.051,370.986,377.518z"/>
			</g>
		</g>
		<g>
			<g>
				
					<line fill="none" stroke="#005695" stroke-linecap="round" stroke-miterlimit="1" x1="236.153" y1="262.146" x2="261.011" y2="262.146"/>
				<path fill="#005695" d="M263.373,261.121c-1.654-0.499-2.729-0.959-4.055-1.491v5.044c0.475-0.225,2.4-0.992,4.055-1.491
					c1.77-0.534,3.373-0.9,4.414-1.03C266.746,262.021,265.143,261.656,263.373,261.121z"/>
			</g>
		</g>
		<g>
			<g>
				<polyline fill="none" stroke="#005695" stroke-linecap="round" stroke-miterlimit="1" points="247.8,262.473 247.799,301.451 
					261.012,301.451 				"/>
				<path fill="#005695" d="M263.373,300.426c-1.652-0.499-2.728-0.959-4.054-1.491v5.044c0.475-0.225,2.401-0.992,4.054-1.491
					c1.77-0.534,3.375-0.9,4.415-1.03C266.748,301.326,265.143,300.961,263.373,300.426z"/>
			</g>
		</g>
		<g>
			<g>
				<polyline fill="none" stroke="#005695" stroke-linecap="round" stroke-miterlimit="1" points="247.8,262.184 247.799,223.204 
					261.012,223.204 				"/>
				<path fill="#005695" d="M263.373,222.18c-1.652-0.5-2.728-0.96-4.054-1.492v5.045c0.475-0.227,2.401-0.993,4.054-1.492
					c1.77-0.535,3.375-0.9,4.415-1.031C266.748,223.079,265.143,222.713,263.373,222.18z"/>
			</g>
		</g>
		<g>
			<g>
				<polyline fill="none" stroke="#005695" stroke-linecap="round" stroke-miterlimit="1" points="236.154,358.962 247.799,358.962 
					247.799,339.829 261.012,339.829 				"/>
				<path fill="#005695" d="M263.373,338.805c-1.652-0.5-2.728-0.96-4.054-1.492v5.045c0.475-0.227,2.401-0.993,4.054-1.492
					c1.77-0.535,3.375-0.9,4.415-1.031C266.748,339.704,265.143,339.338,263.373,338.805z"/>
			</g>
		</g>
		<g>
			<g>
				<polyline fill="none" stroke="#005695" stroke-linecap="round" stroke-miterlimit="1" points="247.8,358.962 247.799,378.207 
					261.012,378.207 				"/>
				<path fill="#005695" d="M263.373,377.182c-1.652-0.499-2.728-0.959-4.054-1.491v5.044c0.475-0.225,2.401-0.992,4.054-1.491
					c1.77-0.534,3.375-0.9,4.415-1.03C266.748,378.082,265.143,377.717,263.373,377.182z"/>
			</g>
		</g>
		<g>
			<g>
				<polyline fill="none" stroke="#005695" stroke-linecap="round" stroke-miterlimit="1" points="236.154,164.6 247.799,164.6 
					247.799,145.467 261.012,145.467 				"/>
				<path fill="#005695" d="M263.373,144.442c-1.652-0.5-2.728-0.959-4.054-1.492v5.044c0.475-0.226,2.401-0.993,4.054-1.492
					c1.77-0.535,3.375-0.9,4.415-1.031C266.748,145.342,265.143,144.976,263.373,144.442z"/>
			</g>
		</g>
		<g>
			<g>
				<polyline fill="none" stroke="#005695" stroke-linecap="round" stroke-miterlimit="1" points="247.8,164.6 247.799,183.845 
					261.012,183.845 				"/>
				<path fill="#005695" d="M263.373,182.82c-1.652-0.5-2.728-0.959-4.054-1.492v5.044c0.475-0.226,2.401-0.993,4.054-1.492
					c1.77-0.535,3.375-0.9,4.415-1.031C266.748,183.72,265.143,183.354,263.373,182.82z"/>
			</g>
		</g>
		<g>
			<g>
				<polyline fill="none" stroke="#005695" stroke-linecap="round" stroke-miterlimit="1" points="236.154,86.807 247.799,86.807 
					247.799,67.674 261.012,67.674 				"/>
				<path fill="#005695" d="M263.373,66.649c-1.652-0.5-2.728-0.959-4.054-1.492v5.044c0.475-0.226,2.401-0.993,4.054-1.492
					c1.77-0.535,3.375-0.9,4.415-1.031C266.748,67.549,265.143,67.184,263.373,66.649z"/>
			</g>
		</g>
		<g>
			<g>
				<polyline fill="none" stroke="#005695" stroke-linecap="round" stroke-miterlimit="1" points="247.8,86.807 247.799,106.052 
					261.012,106.052 				"/>
				<path fill="#005695" d="M263.373,105.027c-1.652-0.5-2.728-0.959-4.054-1.492v5.044c0.475-0.226,2.401-0.993,4.054-1.492
					c1.77-0.535,3.375-0.9,4.415-1.031C266.748,105.927,265.143,105.562,263.373,105.027z"/>
			</g>
		</g>
		
			<rect x="23.58" y="14.899" fill="#86B2D8" stroke="#010101" stroke-width="0.75" stroke-linecap="round" stroke-linejoin="round" stroke-miterlimit="1" width="84" height="27"/>
		<g>
			<text transform="matrix(1 0 0 1 28.8965 25.8262)"><tspan x="0" y="0" font-size="8">Measurement Group</tspan><tspan x="10.463" y="9.6" font-size="8">(CONTAINER)</tspan></text>
		</g>
	</g>
</g>
</svg>
