<?xml version="1.0" encoding="utf-8"?>

<!DOCTYPE svg PUBLIC "-//W3C//DTD SVG 1.1//EN" "http://www.w3.org/Graphics/SVG/1.1/DTD/svg11.dtd">
<svg version="1.1" id="Layer_1" xmlns="http://www.w3.org/2000/svg" xmlns:xlink="http://www.w3.org/1999/xlink" x="0px" y="0px"
	 width="642px" height="512px" viewBox="0 0 642 512" enable-background="new 0 0 642 512" xml:space="preserve">

<defs>
	<style type="text/css">
	text {
	  font-family: Helvetica, Verdana, ArialUnicodeMS, san-serif
	}
	</style>
</defs>

<g>
   <desc>
	PS 3.17 Part 17: Explanatory Information
   </desc>
</g>

<g>
	<rect x="1" y="1" fill="#F5EED6" width="640" height="510"/>
	<g>
		
			<line fill="none" stroke="#000000" stroke-width="0.5" stroke-linecap="round" stroke-miterlimit="1" x1="202.786" y1="51.153" x2="202.786" y2="496.008"/>
		
			<line fill="none" stroke="#000000" stroke-width="0.5" stroke-linecap="round" stroke-miterlimit="1" x1="88.919" y1="51.153" x2="88.919" y2="495.022"/>
		
			<line fill="none" stroke="#000000" stroke-width="0.5" stroke-linecap="round" stroke-miterlimit="1" x1="363.811" y1="51.153" x2="363.811" y2="496.008"/>
		
			<line fill="none" stroke="#000000" stroke-width="0.5" stroke-linecap="round" stroke-miterlimit="1" x1="35.891" y1="51.155" x2="35.891" y2="495.018"/>
		
			<rect x="69.919" y="15.992" fill="#E6E6E6" stroke="#010101" stroke-width="0.75" stroke-linecap="round" stroke-linejoin="round" stroke-miterlimit="1" width="38" height="35"/>
		
			<rect x="16.891" y="15.992" fill="#CCDEF0" stroke="#010101" stroke-width="0.75" stroke-linecap="round" stroke-linejoin="round" stroke-miterlimit="1" width="38" height="35"/>
		<text transform="matrix(1 0 0 1 26.3296 35.9878)" font-size="9">User</text>
		<text transform="matrix(1 0 0 1 73.9185 35.9878)" font-size="9">Archive</text>
		
			<rect x="329.811" y="15.992" fill="#CCDEF0" stroke="#010101" stroke-width="0.75" stroke-linecap="round" stroke-linejoin="round" stroke-miterlimit="1" width="68" height="35"/>
		
			<rect x="168.787" y="15.992" fill="#E6E6E6" stroke="#010101" stroke-width="0.75" stroke-linecap="round" stroke-linejoin="round" stroke-miterlimit="1" width="68" height="35"/>
		<text transform="matrix(1 0 0 1 343.3125 25.188)"><tspan x="0" y="0" font-size="9">Treatment</tspan><tspan x="4.254" y="10.8" font-size="9">Delivery</tspan><tspan x="-7.744" y="21.6" font-size="9">System (TDS)</tspan></text>
		
			<line fill="none" stroke="#000000" stroke-width="0.5" stroke-linecap="round" stroke-miterlimit="1" x1="564.451" y1="51.153" x2="564.451" y2="496.008"/>
		
			<rect x="530.451" y="15.992" fill="#CCDEF0" stroke="#010101" stroke-width="0.75" stroke-linecap="round" stroke-linejoin="round" stroke-miterlimit="1" width="68" height="35"/>
		<text transform="matrix(1 0 0 1 547.4551 25.188)"><tspan x="0" y="0" font-size="9">Machine</tspan><tspan x="-3.999" y="10.8" font-size="9">Parameter</tspan><tspan x="2.755" y="21.6" font-size="9">Verifier</tspan></text>
		<text transform="matrix(1 0 0 1 182.2788 25.188)"><tspan x="0" y="0" font-size="9">Treatment</tspan><tspan x="-5.759" y="10.8" font-size="9">Management</tspan><tspan x="-9.492" y="21.6" font-size="9">System (TMS) </tspan></text>
		
			<rect x="559.964" y="99.172" fill="#CCDEF0" stroke="#010101" stroke-width="0.75" stroke-linecap="round" stroke-linejoin="round" stroke-miterlimit="1" width="9" height="381.711"/>
		
			<rect x="84.42" y="429.961" fill="#E6E6E6" stroke="#010101" stroke-width="0.75" stroke-linecap="round" stroke-linejoin="round" stroke-miterlimit="1" width="9" height="19.67"/>
		
			<rect x="31.394" y="86.712" fill="#CCDEF0" stroke="#010101" stroke-width="0.75" stroke-linecap="round" stroke-linejoin="round" stroke-miterlimit="1" width="9" height="369.382"/>
		<g>
			<rect x="31.394" y="58.741" fill="#E6E6E6" width="9" height="27.968"/>
			<g>
				<polyline fill="none" stroke="#010101" stroke-width="0.75" stroke-linecap="round" stroke-linejoin="round" points="
					32.394,86.709 31.394,86.709 31.394,85.709 				"/>
				
					<line fill="none" stroke="#010101" stroke-width="0.75" stroke-linecap="round" stroke-linejoin="round" stroke-dasharray="1.9975,1.9975" x1="31.394" y1="83.711" x2="31.394" y2="60.74"/>
				<polyline fill="none" stroke="#010101" stroke-width="0.75" stroke-linecap="round" stroke-linejoin="round" points="
					31.394,59.741 31.394,58.741 32.394,58.741 				"/>
				
					<line fill="none" stroke="#010101" stroke-width="0.75" stroke-linecap="round" stroke-linejoin="round" stroke-dasharray="2.3333,2.3333" x1="34.727" y1="58.741" x2="38.227" y2="58.741"/>
				<polyline fill="none" stroke="#010101" stroke-width="0.75" stroke-linecap="round" stroke-linejoin="round" points="
					39.394,58.741 40.394,58.741 40.394,59.741 				"/>
				
					<line fill="none" stroke="#010101" stroke-width="0.75" stroke-linecap="round" stroke-linejoin="round" stroke-dasharray="1.9975,1.9975" x1="40.394" y1="61.739" x2="40.394" y2="84.71"/>
				<polyline fill="none" stroke="#010101" stroke-width="0.75" stroke-linecap="round" stroke-linejoin="round" points="
					40.394,85.709 40.394,86.709 39.394,86.709 				"/>
				
					<line fill="none" stroke="#010101" stroke-width="0.75" stroke-linecap="round" stroke-linejoin="round" stroke-dasharray="2.3333,2.3333" x1="37.06" y1="86.709" x2="33.56" y2="86.709"/>
			</g>
		</g>
		<g>
			<rect x="31.394" y="456.094" fill="#E6E6E6" width="9" height="24.784"/>
			<g>
				<polyline fill="none" stroke="#010101" stroke-width="0.75" stroke-linecap="round" stroke-linejoin="round" points="
					32.394,480.878 31.394,480.878 31.394,479.878 				"/>
				
					<line fill="none" stroke="#010101" stroke-width="0.75" stroke-linecap="round" stroke-linejoin="round" stroke-dasharray="2.0713,2.0713" x1="31.394" y1="477.807" x2="31.394" y2="458.129"/>
				<polyline fill="none" stroke="#010101" stroke-width="0.75" stroke-linecap="round" stroke-linejoin="round" points="
					31.394,457.094 31.394,456.094 32.394,456.094 				"/>
				
					<line fill="none" stroke="#010101" stroke-width="0.75" stroke-linecap="round" stroke-linejoin="round" stroke-dasharray="2.3333,2.3333" x1="34.727" y1="456.094" x2="38.227" y2="456.094"/>
				<polyline fill="none" stroke="#010101" stroke-width="0.75" stroke-linecap="round" stroke-linejoin="round" points="
					39.394,456.094 40.394,456.094 40.394,457.094 				"/>
				
					<line fill="none" stroke="#010101" stroke-width="0.75" stroke-linecap="round" stroke-linejoin="round" stroke-dasharray="2.0713,2.0713" x1="40.394" y1="459.165" x2="40.394" y2="478.842"/>
				<polyline fill="none" stroke="#010101" stroke-width="0.75" stroke-linecap="round" stroke-linejoin="round" points="
					40.394,479.878 40.394,480.878 39.394,480.878 				"/>
				
					<line fill="none" stroke="#010101" stroke-width="0.75" stroke-linecap="round" stroke-linejoin="round" stroke-dasharray="2.3333,2.3333" x1="37.06" y1="480.878" x2="33.56" y2="480.878"/>
			</g>
		</g>
		
			<rect x="359.318" y="87.546" fill="#CCDEF0" stroke="#010101" stroke-width="0.75" stroke-linecap="round" stroke-linejoin="round" stroke-miterlimit="1" width="9" height="383.791"/>
		<g>
			<g>
				
					<line fill="none" stroke="#005695" stroke-linecap="round" stroke-miterlimit="1" x1="40.394" y1="96.439" x2="353.282" y2="96.439"/>
				<g>
					<polygon fill="#005695" points="352.093,98.183 358.598,96.439 352.093,94.696 					"/>
				</g>
			</g>
		</g>
		<g>
			<g>
				
					<line fill="none" stroke="#005695" stroke-linecap="round" stroke-miterlimit="1" x1="368.318" y1="123.72" x2="554.636" y2="123.72"/>
				<g>
					<polygon fill="#005695" points="553.446,125.463 559.951,123.72 553.446,121.977 					"/>
				</g>
			</g>
		</g>
		<g>
			<g>
				
					<line fill="none" stroke="#005695" stroke-linecap="round" stroke-miterlimit="1" x1="368.318" y1="160.511" x2="554.636" y2="160.511"/>
				<g>
					<polygon fill="#005695" points="553.446,162.254 559.951,160.511 553.446,158.768 					"/>
				</g>
			</g>
		</g>
		<g>
			<g>
				
					<line fill="none" stroke="#005695" stroke-linecap="round" stroke-miterlimit="1" x1="368.318" y1="140.711" x2="554.636" y2="140.711"/>
				<g>
					<polygon fill="#005695" points="553.446,142.454 559.951,140.711 553.446,138.968 					"/>
				</g>
			</g>
		</g>
		<g>
			<g>
				
					<line fill="none" stroke="#005695" stroke-linecap="round" stroke-miterlimit="1" x1="373.634" y1="195.376" x2="559.955" y2="195.376"/>
				<g>
					<polygon fill="#005695" points="374.823,197.119 368.318,195.376 374.823,193.633 					"/>
				</g>
			</g>
		</g>
		<g>
			<g>
				
					<line fill="none" stroke="#005695" stroke-linecap="round" stroke-miterlimit="1" x1="45.709" y1="213.853" x2="559.955" y2="213.853"/>
				<g>
					<polygon fill="#005695" points="46.898,215.596 40.394,213.853 46.898,212.109 					"/>
				</g>
			</g>
		</g>
		<g>
			<g>
				
					<line fill="none" stroke="#005695" stroke-linecap="round" stroke-miterlimit="1" x1="368.318" y1="231.496" x2="554.64" y2="231.496"/>
				<g>
					<polygon fill="#005695" points="553.45,233.239 559.955,231.496 553.45,229.753 					"/>
				</g>
			</g>
		</g>
		<g>
			<g>
				
					<line fill="none" stroke="#005695" stroke-linecap="round" stroke-miterlimit="1" x1="40.394" y1="250.705" x2="354.003" y2="250.705"/>
				<g>
					<polygon fill="#005695" points="352.813,252.448 359.318,250.705 352.813,248.962 					"/>
				</g>
			</g>
		</g>
		<g>
			<g>
				
					<line fill="none" stroke="#005695" stroke-linecap="round" stroke-miterlimit="1" x1="373.634" y1="374.715" x2="559.955" y2="374.715"/>
				<g>
					<polygon fill="#005695" points="374.823,376.458 368.318,374.715 374.823,372.972 					"/>
				</g>
			</g>
		</g>
		<g>
			<g>
				
					<line fill="none" stroke="#005695" stroke-linecap="round" stroke-miterlimit="1" x1="368.318" y1="401.357" x2="554.64" y2="401.357"/>
				<g>
					<polygon fill="#005695" points="553.45,403.101 559.955,401.357 553.45,399.614 					"/>
				</g>
			</g>
		</g>
		<g>
			<g>
				
					<line fill="none" stroke="#005695" stroke-linecap="round" stroke-miterlimit="1" x1="368.318" y1="294.803" x2="554.64" y2="294.803"/>
				<g>
					<polygon fill="#005695" points="553.45,296.546 559.955,294.803 553.45,293.06 					"/>
				</g>
			</g>
		</g>
		<g>
			<g>
				
					<line fill="none" stroke="#005695" stroke-linecap="round" stroke-miterlimit="1" x1="368.318" y1="314.603" x2="554.64" y2="314.603"/>
				<g>
					<polygon fill="#005695" points="553.45,316.346 559.955,314.603 553.45,312.859 					"/>
				</g>
			</g>
		</g>
		<g>
			<g>
				
					<line fill="none" stroke="#005695" stroke-linecap="round" stroke-miterlimit="1" x1="373.634" y1="341.241" x2="559.955" y2="341.241"/>
				<g>
					<polygon fill="#005695" points="374.823,342.984 368.318,341.241 374.823,339.498 					"/>
				</g>
			</g>
		</g>
		<g>
			<g>
				
					<line fill="none" stroke="#005695" stroke-linecap="round" stroke-miterlimit="1" x1="368.318" y1="466.093" x2="554.64" y2="466.093"/>
				<g>
					<polygon fill="#005695" points="553.45,467.836 559.955,466.093 553.45,464.35 					"/>
				</g>
			</g>
		</g>
		<g>
			<g>
				<polyline fill="none" stroke="#005695" stroke-linecap="round" stroke-miterlimit="1" points="368.318,408.878 378.053,408.878 
					378.053,421.054 373.634,421.054 				"/>
				<g>
					<polygon fill="#005695" points="374.823,419.311 368.318,421.054 374.823,422.797 					"/>
				</g>
			</g>
		</g>
		<g>
			<g>
				<polyline fill="none" stroke="#005695" stroke-linecap="round" stroke-miterlimit="1" points="368.318,258.051 378.053,258.051 
					378.053,270.227 373.634,270.227 				"/>
				<g>
					<polygon fill="#005695" points="374.823,268.483 368.318,270.227 374.823,271.97 					"/>
				</g>
			</g>
		</g>
		<g>
			<g>
				<polyline fill="none" stroke="#005695" stroke-linecap="round" stroke-miterlimit="1" points="568.951,314.604 578.688,314.604 
					578.688,374.716 574.267,374.716 				"/>
				<g>
					<polygon fill="#005695" points="575.456,372.973 568.951,374.716 575.456,376.459 					"/>
				</g>
			</g>
		</g>
		<g>
			<g>
				<polyline fill="none" stroke="#005695" stroke-linecap="round" stroke-miterlimit="1" points="568.951,167.812 578.688,167.812 
					578.688,179.987 574.267,179.987 				"/>
				<g>
					<polygon fill="#005695" points="575.456,178.244 568.951,179.987 575.456,181.73 					"/>
				</g>
			</g>
		</g>
		<g>
			<g>
				
					<line fill="none" stroke="#005695" stroke-linecap="round" stroke-miterlimit="1" x1="100.003" y1="439.083" x2="358.197" y2="439.083"/>
				<g>
					<polygon fill="#005695" points="101.192,440.826 94.688,439.083 101.192,437.34 					"/>
				</g>
			</g>
		</g>
		<rect x="45.679" y="88.665" fill="none" width="579.43" height="377.743"/>
		<text transform="matrix(1 0 0 1 45.6792 93.6748)"><tspan x="0" y="0" fill="#999999" font-size="7">1. ‘Deliver Beam X’ on TDS console</tspan><tspan x="0" y="18.4" fill="#999999" font-size="7" letter-spacing="50">	</tspan><tspan x="52" y="18.4" fill="#999999" font-size="7" letter-spacing="113">	</tspan><tspan x="167" y="18.4" fill="#999999" font-size="7" letter-spacing="166">	</tspan><tspan x="335" y="18.4" fill="#999999" font-size="7">2. Create RT Conv. Machine Verification</tspan><tspan x="0" y="26.8" fill="#999999" font-size="7" letter-spacing="50">	</tspan><tspan x="52" y="26.8" fill="#999999" font-size="7" letter-spacing="113">	</tspan><tspan x="167" y="26.8" fill="#999999" font-size="7" letter-spacing="166">	</tspan><tspan x="335" y="26.8" fill="#999999" font-size="7">(N-CREATE)</tspan><tspan x="0" y="45.2" fill="#999999" font-size="7" letter-spacing="50">	</tspan><tspan x="52" y="45.2" fill="#999999" font-size="7" letter-spacing="113">	</tspan><tspan x="167" y="45.2" fill="#999999" font-size="7" letter-spacing="166">	</tspan><tspan x="335" y="45.2" fill="#999999" font-size="7">3. Set ‘BeamX’ RT Conv. Machine Verification (N-SET)</tspan><tspan x="0" y="63.6" fill="#999999" font-size="7" letter-spacing="50">	</tspan><tspan x="52" y="63.6" fill="#999999" font-size="7" letter-spacing="113">	</tspan><tspan x="167" y="63.6" fill="#999999" font-size="7" letter-spacing="166">	</tspan><tspan x="335" y="63.6" fill="#999999" font-size="7">4. Initiate verification (N-ACTION)</tspan><tspan x="0" y="82" fill="#999999" font-size="7" letter-spacing="50">	</tspan><tspan x="52" y="82" fill="#999999" font-size="7" letter-spacing="113">	</tspan><tspan x="167" y="82" fill="#999999" font-size="7" letter-spacing="166">	</tspan><tspan x="335" y="82" fill="#999999" font-size="7" letter-spacing="198">	</tspan><tspan x="535" y="82" font-size="7">Verify Failed</tspan><tspan x="0" y="90.4" fill="#999999" font-size="7" letter-spacing="50">	</tspan><tspan x="52" y="90.4" fill="#999999" font-size="7" letter-spacing="113">	</tspan><tspan x="167" y="90.4" fill="#999999" font-size="7" letter-spacing="166">	</tspan><tspan x="335" y="90.4" fill="#999999" font-size="7">5. Notify Verification Status (N-EVENT-REPORT,</tspan><tspan x="0" y="98.8" fill="#999999" font-size="7" letter-spacing="50">	</tspan><tspan x="52" y="98.8" fill="#999999" font-size="7" letter-spacing="113">	</tspan><tspan x="167" y="98.8" fill="#999999" font-size="7" letter-spacing="166">	</tspan><tspan x="335" y="98.8" fill="#999999" font-size="7">Event-Type = ‘Done’, </tspan><tspan x="402.504" y="98.8" font-size="7">TVS = NOT_VERIFIED</tspan><tspan x="474.655" y="98.8" fill="#999999" font-size="7">)</tspan><tspan x="0" y="117.2" font-size="7">5a. Display ‘verify failed’ message to user</tspan><tspan x="0" y="135.6" font-size="7" letter-spacing="50">	</tspan><tspan x="52" y="135.6" font-size="7" letter-spacing="113">	</tspan><tspan x="167" y="135.6" font-size="7" letter-spacing="166">	</tspan><tspan x="335" y="135.6" font-size="7">6. Get RT Conv. Machine Verification (N-GET)</tspan><tspan x="0" y="154" font-size="7">7. Request machine adjustment</tspan><tspan x="0" y="172.399" font-size="7" letter-spacing="50">	</tspan><tspan x="52" y="172.399" font-size="7" letter-spacing="113">	</tspan><tspan x="167" y="172.399" font-size="7" letter-spacing="166">	</tspan><tspan x="335" y="172.399" font-size="7">Machine adjusts</tspan><tspan x="0" y="190.8" font-size="7" letter-spacing="50">	</tspan><tspan x="52" y="190.8" font-size="7" letter-spacing="113">	</tspan><tspan x="167" y="190.8" font-size="7" letter-spacing="166">	</tspan><tspan x="335" y="190.8" font-size="7">8. Set ‘BeamX’ RT Conv. Machine Verification</tspan><tspan x="0" y="199.2" font-size="7" letter-spacing="50">	</tspan><tspan x="52" y="199.2" font-size="7" letter-spacing="113">	</tspan><tspan x="167" y="199.2" font-size="7" letter-spacing="166">	</tspan><tspan x="335" y="199.2" font-size="7">(N-SET) - modifications supplied</tspan><tspan x="0" y="217.601" font-size="7" letter-spacing="50">	</tspan><tspan x="52" y="217.601" font-size="7" letter-spacing="113">	</tspan><tspan x="167" y="217.601" font-size="7" letter-spacing="166">	</tspan><tspan x="335" y="217.601" font-size="7">9. Initiate verification (N-ACTION)</tspan><tspan x="0" y="235.999" font-size="7" letter-spacing="50">	</tspan><tspan x="52" y="235.999" font-size="7" letter-spacing="113">	</tspan><tspan x="167" y="235.999" font-size="7" letter-spacing="166">	</tspan><tspan x="335" y="235.999" font-size="7">9b. Notify Verification Status (N-EVENT-REPORT,</tspan><tspan x="0" y="244.399" font-size="7" letter-spacing="50">	</tspan><tspan x="52" y="244.399" font-size="7" letter-spacing="113">	</tspan><tspan x="167" y="244.399" font-size="7" letter-spacing="166">	</tspan><tspan x="335" y="244.399" font-size="7">Event-Type = ‘Pending’)</tspan><tspan x="0" y="242.8" font-size="7" letter-spacing="50">	</tspan><tspan x="52" y="242.8" font-size="7" letter-spacing="113">	</tspan><tspan x="167" y="242.8" font-size="7" letter-spacing="166">	</tspan><tspan x="335" y="242.8" font-size="7" letter-spacing="198">	</tspan><tspan x="535" y="242.8" font-size="7">Re-verify</tspan><tspan x="0" y="251.2" font-size="7" letter-spacing="50">	</tspan><tspan x="52" y="251.2" font-size="7" letter-spacing="113">	</tspan><tspan x="167" y="251.2" font-size="7" letter-spacing="166">	</tspan><tspan x="335" y="251.2" font-size="7" letter-spacing="198">	</tspan><tspan x="535" y="251.2" font-size="7">(succeeded)</tspan><tspan x="0" y="269.601" font-size="7" letter-spacing="50">	</tspan><tspan x="52" y="269.601" font-size="7" letter-spacing="113">	</tspan><tspan x="167" y="269.601" font-size="7" letter-spacing="166">	</tspan><tspan x="335" y="269.601" font-size="7">10. Notify Verification Status (N-EVENT-REPORT,</tspan><tspan x="0" y="277.999" font-size="7" letter-spacing="50">	</tspan><tspan x="52" y="277.999" font-size="7" letter-spacing="113">	</tspan><tspan x="167" y="277.999" font-size="7" letter-spacing="166">	</tspan><tspan x="335" y="277.999" font-size="7">Event-Type = ‘Done’, TVS = VERIFIED)</tspan><tspan x="0" y="296.399" fill="#999999" font-size="7" letter-spacing="50">	</tspan><tspan x="52" y="296.399" fill="#999999" font-size="7" letter-spacing="113">	</tspan><tspan x="167" y="296.399" fill="#999999" font-size="7" letter-spacing="166">	</tspan><tspan x="335" y="296.399" fill="#999999" font-size="7">11. Get RT-Conv. Machine Verification (N-GET) </tspan><tspan x="0" y="304.8" fill="#999999" font-size="7" letter-spacing="50">	</tspan><tspan x="52" y="304.8" fill="#999999" font-size="7" letter-spacing="113">	</tspan><tspan x="167" y="304.8" fill="#999999" font-size="7" letter-spacing="166">	</tspan><tspan x="335" y="304.8" fill="#999999" font-size="7">- optional instruction</tspan><tspan x="0" y="323.2" fill="#999999" font-size="7" letter-spacing="50">	</tspan><tspan x="52" y="323.2" fill="#999999" font-size="7" letter-spacing="113">	</tspan><tspan x="167" y="323.2" fill="#999999" font-size="7" letter-spacing="166">	</tspan><tspan x="335" y="323.2" fill="#999999" font-size="7">DELIVER RADIATION</tspan><tspan x="0" y="341.601" fill="#999999" font-size="7" letter-spacing="50">	</tspan><tspan x="52" y="341.601" fill="#999999" font-size="7">12. Store ‘BeamX’ RT Beams Treatment Record (C-STORE)</tspan><tspan x="0" y="359.999" fill="#999999" font-size="7" letter-spacing="50">	</tspan><tspan x="52" y="359.999" fill="#999999" font-size="7" letter-spacing="113">	</tspan><tspan x="167" y="359.999" fill="#999999" font-size="7" letter-spacing="166">	</tspan><tspan x="335" y="359.999" fill="#999999" font-size="7">13. Delete RT Conv. Machine Verification</tspan><tspan x="0" y="368.399" fill="#999999" font-size="7" letter-spacing="50">	</tspan><tspan x="52" y="368.399" fill="#999999" font-size="7" letter-spacing="113">	</tspan><tspan x="167" y="368.399" fill="#999999" font-size="7" letter-spacing="166">	</tspan><tspan x="335" y="368.399" fill="#999999" font-size="7">(N-DELETE)</tspan></text>
	</g>
</g>
</svg>
