<?xml version="1.0" encoding="utf-8"?>

<!DOCTYPE svg PUBLIC "-//W3C//DTD SVG 1.1//EN" "http://www.w3.org/Graphics/SVG/1.1/DTD/svg11.dtd">
<svg version="1.1" id="Layer_1" xmlns="http://www.w3.org/2000/svg" xmlns:xlink="http://www.w3.org/1999/xlink" x="0px" y="0px"
	 width="582px" height="267px" viewBox="0 0 582 267" enable-background="new 0 0 582 267" xml:space="preserve">

<defs>
	<style type="text/css">
	text {
	  font-family: Helvetica, Verdana, ArialUnicodeMS, san-serif
	}
	</style>
</defs>

<g>
   <desc>
	PS 3.17 Part 17: Explanatory Information
   </desc>
</g>

<g>
	<rect x="1" y="1" fill="#F5EED6" width="580" height="265"/>
	<g>
		<g>
			<g>
				
					<line fill="none" stroke="#000000" stroke-width="2" stroke-miterlimit="1" x1="161.697" y1="91.353" x2="161.697" y2="42.729"/>
				<g>
					<polygon points="165.184,45.106 161.697,32.097 158.211,45.106 					"/>
				</g>
			</g>
		</g>
		<rect x="172.13" y="67.859" fill="none" width="8.535" height="7.793"/>
		<text transform="matrix(0.9288 0 0 1 174.5898 72.8721)" font-size="7">1</text>
		<rect x="222.131" y="67.859" fill="none" width="8.535" height="7.793"/>
		<text transform="matrix(0.9288 0 0 1 224.5908 72.8721)" font-size="7">5</text>
		<rect x="272.133" y="67.859" fill="none" width="8.535" height="7.793"/>
		<text transform="matrix(0.9288 0 0 1 274.5928 72.8721)" font-size="7">9</text>
		<rect x="322.135" y="67.859" fill="none" width="8.536" height="7.793"/>
		<text transform="matrix(0.9288 0 0 1 322.7861 72.8721)" font-size="7">13</text>
		<rect x="372.138" y="67.859" fill="none" width="8.535" height="7.793"/>
		<text transform="matrix(0.9288 0 0 1 372.7881 72.8721)" font-size="7">17</text>
		<rect x="422.14" y="67.859" fill="none" width="8.535" height="7.793"/>
		<text transform="matrix(0.9288 0 0 1 422.79 72.8721)" font-size="7">21</text>
		<rect x="472.142" y="67.859" fill="none" width="8.535" height="7.793"/>
		<text transform="matrix(0.9288 0 0 1 472.792 72.8721)" font-size="7">25</text>
		<rect x="172.13" y="90.047" fill="none" width="8.535" height="7.793"/>
		<text transform="matrix(0.9288 0 0 1 174.5898 95.0576)" font-size="7">0</text>
		<rect x="222.131" y="90.047" fill="none" width="8.535" height="7.793"/>
		<text transform="matrix(0.9288 0 0 1 224.5908 95.0576)" font-size="7">1</text>
		<rect x="272.133" y="90.047" fill="none" width="8.535" height="7.793"/>
		<text transform="matrix(0.9288 0 0 1 274.5928 95.0576)" font-size="7">2</text>
		<rect x="322.135" y="90.047" fill="none" width="8.536" height="7.793"/>
		<text transform="matrix(0.9288 0 0 1 324.5938 95.0576)" font-size="7">3</text>
		<rect x="372.138" y="90.047" fill="none" width="8.535" height="7.793"/>
		<text transform="matrix(0.9288 0 0 1 374.5957 95.0576)" font-size="7">4</text>
		<rect x="422.14" y="90.047" fill="none" width="8.535" height="7.793"/>
		<text transform="matrix(0.9288 0 0 1 424.5977 95.0576)" font-size="7">5</text>
		<rect x="472.142" y="90.047" fill="none" width="8.535" height="7.793"/>
		<text transform="matrix(0.9288 0 0 1 474.5996 95.0576)" font-size="7">6</text>
		
			<line fill="none" stroke="#000000" stroke-width="0.75" stroke-miterlimit="1" x1="164.172" y1="125.04" x2="508.11" y2="125.04"/>
		
			<line fill="none" stroke="#000000" stroke-width="0.75" stroke-miterlimit="1" x1="164.172" y1="150.377" x2="508.11" y2="150.377"/>
		
			<line fill="none" stroke="#000000" stroke-width="0.75" stroke-miterlimit="1" x1="164.172" y1="179.049" x2="508.11" y2="179.049"/>
		
			<line fill="none" stroke="#000000" stroke-width="0.75" stroke-miterlimit="1" x1="164.172" y1="205.555" x2="508.11" y2="205.555"/>
		
			<line fill="none" stroke="#000000" stroke-width="0.75" stroke-miterlimit="1" x1="164.172" y1="243.459" x2="508.11" y2="243.459"/>
		<rect x="549.555" y="75.423" fill="none" width="17.379" height="8.51"/>
		<text transform="matrix(0.9288 0 0 1 549.5518 81.8335)" font-size="9">time</text>
		
			<line fill="none" stroke="#000000" stroke-width="0.75" stroke-linecap="round" stroke-miterlimit="1" stroke-dasharray="3,4" x1="176.397" y1="98.319" x2="176.397" y2="252.479"/>
		
			<line fill="none" stroke="#000000" stroke-width="0.75" stroke-linecap="round" stroke-miterlimit="1" stroke-dasharray="3,4" x1="226.896" y1="98.319" x2="226.896" y2="220.617"/>
		<g>
			<g>
				
					<line fill="none" stroke="#000000" stroke-width="0.75" stroke-linecap="round" stroke-miterlimit="1" x1="263.737" y1="71.89" x2="263.737" y2="73.39"/>
				
					<line fill="none" stroke="#000000" stroke-width="0.75" stroke-linecap="round" stroke-miterlimit="1" stroke-dasharray="2.9392,3.9189" x1="263.737" y1="77.309" x2="263.737" y2="239.943"/>
				
					<line fill="none" stroke="#000000" stroke-width="0.75" stroke-linecap="round" stroke-miterlimit="1" x1="263.737" y1="241.902" x2="263.737" y2="243.402"/>
			</g>
		</g>
		
			<line fill="none" stroke="#000000" stroke-width="0.75" stroke-linecap="round" stroke-miterlimit="1" stroke-dasharray="3,4" x1="382.397" y1="90.86" x2="382.397" y2="221.791"/>
		
			<line fill="none" stroke="#000000" stroke-width="0.75" stroke-linecap="round" stroke-miterlimit="1" stroke-dasharray="3,4" x1="464.023" y1="71.89" x2="464.023" y2="243.402"/>
		<g>
			<g>
				
					<line fill="none" stroke="#000000" stroke-width="2" stroke-linecap="round" stroke-miterlimit="1" x1="131.638" y1="79.416" x2="537.949" y2="79.416"/>
				<g>
					<polygon points="536.364,81.74 545.037,79.416 536.364,77.092 					"/>
				</g>
			</g>
		</g>
		
			<line fill="none" stroke="#005695" stroke-width="6" stroke-linecap="round" stroke-miterlimit="1" x1="175.678" y1="125.038" x2="177.117" y2="125.038"/>
		
			<line fill="none" stroke="#005695" stroke-width="6" stroke-linecap="round" stroke-miterlimit="1" x1="226.177" y1="150.381" x2="227.616" y2="150.381"/>
		
			<line fill="none" stroke="#005695" stroke-width="6" stroke-linecap="round" stroke-miterlimit="1" x1="381.677" y1="179.049" x2="383.116" y2="179.049"/>
		
			<line fill="none" stroke="#005695" stroke-width="6" stroke-linecap="round" stroke-miterlimit="1" x1="226.896" y1="205.559" x2="383.116" y2="205.559"/>
		
			<line fill="none" stroke="#005695" stroke-width="6" stroke-linecap="round" stroke-miterlimit="1" x1="263.737" y1="243.459" x2="464.023" y2="243.459"/>
		<text transform="matrix(0.9288 0 0 1 30.8589 127.4517)"><tspan x="0" y="0" font-size="9">Acquisition DateTime (0008,002A)</tspan><tspan x="-17.002" y="26.8" font-size="9">Contrast/Bolus Start Time (0018,1042)</tspan><tspan x="-16.51" y="53.6" font-size="9">Contrast/Bolus Stop Time (0018,1043)</tspan><tspan x="34.005" y="80.4" font-size="9">Injection of contrast agent</tspan><tspan x="-6.003" y="91.201" font-size="9">Contrast Flow Duration (0018,1047)</tspan><tspan x="-2.509" y="118" font-size="9">Contrast agent visible on the pixels</tspan></text>
		<path fill-rule="evenodd" clip-rule="evenodd" fill="#ED1C24" d="M252.625,79c1.112-0.422,2.204-0.914,3.342-1.251
			c2.089-0.62,4.228-1.073,6.301-1.737c1.805-0.577,3.594-1.249,5.304-2.06c1.896-0.898,3.257-2.477,4.184-4.312
			c1.703-3.374,3.324-6.793,4.842-10.254c0.616-1.406,0.876-2.97,1.294-4.463c0.547-1.951,1.036-3.919,1.649-5.849
			c0.696-2.194,1.438-4.379,2.274-6.523c1.615-4.138,4.324-7.146,8.496-9.051c3.856-1.76,7.851-1.988,11.899-2.064
			c5.838-0.11,11.679-0.001,17.518-0.035c7.998-0.046,15.996-0.253,23.99-0.186c13.318,0.113,26.635,0.312,39.949,0.634
			c5.389,0.13,10.779,0.565,16.146,1.083c3.322,0.32,6.609,1.028,9.902,1.613c1.957,0.348,3.934,0.671,5.832,1.236
			c1.664,0.495,3.318,1.161,4.826,2.018c5.18,2.944,10.229,6.162,14.387,10.442c3.551,3.657,6.648,7.755,9.959,11.648
			c2.664,3.134,5.268,6.324,8.041,9.359c2.641,2.893,6.225,3.899,9.965,4.492c3.422,0.542,6.826,1.2,10.25,1.725
			c3.543,0.542,7.102,0.985,10.652,1.476c0.436,0.06,0.906,0.063,1.285,0.248c0.307,0.15,0.5,0.534,0.744,0.814
			c-0.303,0.207-0.619,0.61-0.904,0.59c-2.1-0.148-4.193-0.363-6.285-0.598c-0.588-0.066-1.156-0.302-1.744-0.402
			c-3.342-0.57-6.686-1.138-10.033-1.672c-0.945-0.151-1.912-0.154-2.861-0.279c-2.854-0.376-5.518-1.281-8.113-2.563
			c-4.158-2.053-6.996-5.501-9.871-8.915c-3.344-3.969-6.584-8.027-9.887-12.029c-3.166-3.834-7.117-6.753-11.223-9.476
			c-1.92-1.275-3.816-2.641-5.885-3.625c-2.102-0.999-4.355-1.792-6.627-2.293c-3.648-0.805-7.357-1.357-11.059-1.889
			c-1.773-0.255-3.59-0.187-5.383-0.321c-22.033-1.642-44.111-1.467-66.182-1.579c-9.316-0.047-18.633,0.104-27.949,0.232
			c-2.194,0.03-4.449,0.059-6.563,0.562c-4.369,1.039-8.194,3.011-10.503,7.214c-1.799,3.275-2.855,6.782-3.893,10.342
			c-1.087,3.728-1.796,7.582-3.579,11.104c-1.236,2.443-2.158,5.047-3.418,7.477c-1.322,2.549-3.101,4.765-5.876,5.911
			c-2.271,0.937-4.506,2.022-6.858,2.675c-2.321,0.644-4.769,0.838-7.165,1.2c-0.324,0.049-0.674-0.067-1.012-0.107
			C252.73,79.373,252.678,79.186,252.625,79z"/>
		<g>
			<rect x="126.313" y="14.521" fill="none" width="72.194" height="16.679"/>
			<text transform="matrix(0.9288 0 0 1 128.6162 19.5312)"><tspan x="0" y="0" font-size="7">Contrast/bolus intensity </tspan><tspan x="-0.004" y="8.4" font-size="7">visible on the pixel data</tspan></text>
		</g>
		<g>
			<rect x="268.183" y="232.35" fill="none" width="103.561" height="6.916"/>
			<text transform="matrix(0.9288 0 0 1 269.5474 237.3623)" font-size="7">Contrast agent visible on the pixels</text>
		</g>
		<rect x="228.396" y="192.796" fill="#F5EED6" width="79.062" height="8.256"/>
		<g>
			<rect x="228.396" y="193.432" fill="none" width="79.064" height="6.98"/>
			<text transform="matrix(0.9288 0 0 1 230.7007 198.4424)" font-size="7">Injection of contrast agent</text>
		</g>
		<g>
			<rect x="496.101" y="67.859" fill="none" width="38.125" height="29.981"/>
			<text transform="matrix(0.9288 0 0 1 504.1426 72.8691)"><tspan x="0" y="0" font-size="7">Frames</tspan><tspan x="-1.758" y="21.4" font-size="7">Seconds</tspan></text>
		</g>
		<g>
			<line fill="none" stroke="#000000" stroke-miterlimit="1" x1="188.896" y1="80.26" x2="188.896" y2="87.019"/>
			<line fill="none" stroke="#000000" stroke-miterlimit="1" x1="201.397" y1="80.26" x2="201.397" y2="87.019"/>
			<line fill="none" stroke="#000000" stroke-miterlimit="1" x1="213.897" y1="80.26" x2="213.897" y2="87.019"/>
			<line fill="none" stroke="#000000" stroke-miterlimit="1" x1="226.398" y1="80.26" x2="226.398" y2="87.019"/>
			<line fill="none" stroke="#000000" stroke-miterlimit="1" x1="238.898" y1="80.26" x2="238.898" y2="87.019"/>
			<line fill="none" stroke="#000000" stroke-miterlimit="1" x1="251.399" y1="80.26" x2="251.399" y2="87.019"/>
			<line fill="none" stroke="#000000" stroke-miterlimit="1" x1="263.899" y1="80.26" x2="263.899" y2="87.019"/>
			<line fill="none" stroke="#000000" stroke-miterlimit="1" x1="276.4" y1="80.26" x2="276.4" y2="87.019"/>
			<line fill="none" stroke="#000000" stroke-miterlimit="1" x1="288.901" y1="80.26" x2="288.901" y2="87.019"/>
			<line fill="none" stroke="#000000" stroke-miterlimit="1" x1="301.401" y1="80.26" x2="301.401" y2="87.019"/>
			<line fill="none" stroke="#000000" stroke-miterlimit="1" x1="313.901" y1="80.26" x2="313.901" y2="87.019"/>
			<line fill="none" stroke="#000000" stroke-miterlimit="1" x1="326.403" y1="80.26" x2="326.403" y2="87.019"/>
			<line fill="none" stroke="#000000" stroke-miterlimit="1" x1="338.903" y1="80.26" x2="338.903" y2="87.019"/>
			<line fill="none" stroke="#000000" stroke-miterlimit="1" x1="351.403" y1="80.26" x2="351.403" y2="87.019"/>
			<line fill="none" stroke="#000000" stroke-miterlimit="1" x1="363.903" y1="80.26" x2="363.903" y2="87.019"/>
			<line fill="none" stroke="#000000" stroke-miterlimit="1" x1="376.403" y1="80.26" x2="376.403" y2="87.019"/>
			<line fill="none" stroke="#000000" stroke-miterlimit="1" x1="388.903" y1="80.26" x2="388.903" y2="87.019"/>
			<line fill="none" stroke="#000000" stroke-miterlimit="1" x1="401.403" y1="80.26" x2="401.403" y2="87.019"/>
			<line fill="none" stroke="#000000" stroke-miterlimit="1" x1="413.903" y1="80.26" x2="413.903" y2="87.019"/>
			<line fill="none" stroke="#000000" stroke-miterlimit="1" x1="426.403" y1="80.26" x2="426.403" y2="87.019"/>
			<line fill="none" stroke="#000000" stroke-miterlimit="1" x1="438.903" y1="80.26" x2="438.903" y2="87.019"/>
			<line fill="none" stroke="#000000" stroke-miterlimit="1" x1="451.403" y1="80.26" x2="451.403" y2="87.019"/>
			<line fill="none" stroke="#000000" stroke-miterlimit="1" x1="463.903" y1="80.26" x2="463.903" y2="87.019"/>
			<line fill="none" stroke="#000000" stroke-miterlimit="1" x1="476.403" y1="80.26" x2="476.403" y2="87.019"/>
			<line fill="none" stroke="#000000" stroke-miterlimit="1" x1="488.903" y1="80.26" x2="488.903" y2="87.019"/>
			<line fill="none" stroke="#000000" stroke-miterlimit="1" x1="176.397" y1="80.019" x2="176.397" y2="86.778"/>
		</g>
	</g>
</g>
</svg>
