<?xml version="1.0" encoding="utf-8"?>

<!DOCTYPE svg PUBLIC "-//W3C//DTD SVG 1.1//EN" "http://www.w3.org/Graphics/SVG/1.1/DTD/svg11.dtd">
<svg version="1.1" id="Layer_1" xmlns="http://www.w3.org/2000/svg" xmlns:xlink="http://www.w3.org/1999/xlink" x="0px" y="0px"
	 width="552px" height="192px" viewBox="0 0 552 192" enable-background="new 0 0 552 192" xml:space="preserve">

<defs>
	<style type="text/css">
	text {
	  font-family: Helvetica, Verdana, ArialUnicodeMS, san-serif
	}
	</style>
</defs>

<g>
   <desc>
	PS 3.17 Part 17: Explanatory Information
   </desc>
</g>

<g>
	<rect x="1" y="1" fill="#F5EED6" width="550" height="190"/>
	<g>
		
			<rect x="60.411" y="15.657" fill="#CCDEF0" stroke="#010101" stroke-width="0.75" stroke-linecap="round" stroke-linejoin="round" stroke-miterlimit="1" width="50" height="20"/>
		
			<rect x="269.648" y="15.657" fill="#CCDEF0" stroke="#010101" stroke-width="0.75" stroke-linecap="round" stroke-linejoin="round" stroke-miterlimit="1" width="136.001" height="20"/>
		
			<line fill="none" stroke="#010101" stroke-linecap="round" stroke-linejoin="round" stroke-miterlimit="8" x1="111.411" y1="25.657" x2="143.411" y2="25.657"/>
		
			<line fill="none" stroke="#010101" stroke-linecap="round" stroke-linejoin="round" stroke-miterlimit="8" x1="27.29" y1="25.657" x2="59.29" y2="25.657"/>
		
			<rect x="143.411" y="15.657" fill="#CCDEF0" stroke="#010101" stroke-width="0.75" stroke-linecap="round" stroke-linejoin="round" stroke-miterlimit="1" width="85" height="20"/>
		
			<line fill="none" stroke="#010101" stroke-linecap="round" stroke-linejoin="round" stroke-miterlimit="8" x1="228.411" y1="25.657" x2="268.41" y2="25.657"/>
		<text transform="matrix(1 0 0 1 71.835 27.5449)"><tspan x="0" y="0" fill="#010101" font-size="10">S</tspan><tspan x="6.53" y="0" fill="#010101" font-size="10">t</tspan><tspan x="9.308" y="0" fill="#010101" font-size="10">u</tspan><tspan x="14.81" y="0" fill="#010101" font-size="10">d</tspan><tspan x="20.361" y="0" fill="#010101" font-size="10">y</tspan></text>
		<text transform="matrix(1 0 0 1 279.2969 27.5449)"><tspan x="0" y="0" fill="#010101" font-size="10">S</tspan><tspan x="6.529" y="0" fill="#010101" font-size="10">u</tspan><tspan x="12.031" y="0" fill="#010101" font-size="10">rfac</tspan><tspan x="28.701" y="0" fill="#010101" font-size="10">e</tspan><tspan x="34.232" y="0" fill="#010101" font-size="10"> </tspan><tspan x="37.011" y="0" fill="#010101" font-size="10">S</tspan><tspan x="43.541" y="0" fill="#010101" font-size="10">can </tspan><tspan x="62.441" y="0" fill="#010101" font-size="10">Point Cloud</tspan></text>
		<text transform="matrix(1 0 0 1 171.2637 28.3242)" fill="#010101" font-size="10">Series</text>
		
			<rect x="269.648" y="50.657" fill="#CCDEF0" stroke="#010101" stroke-width="0.75" stroke-linecap="round" stroke-linejoin="round" stroke-miterlimit="1" width="136.001" height="20"/>
		<text transform="matrix(1 0 0 1 279.2969 62.5449)"><tspan x="0" y="0" fill="#010101" font-size="10">S</tspan><tspan x="6.529" y="0" fill="#010101" font-size="10">u</tspan><tspan x="12.031" y="0" fill="#010101" font-size="10">rfac</tspan><tspan x="28.701" y="0" fill="#010101" font-size="10">e</tspan><tspan x="34.232" y="0" fill="#010101" font-size="10"> </tspan><tspan x="37.011" y="0" fill="#010101" font-size="10">S</tspan><tspan x="43.541" y="0" fill="#010101" font-size="10">can </tspan><tspan x="62.441" y="0" fill="#010101" font-size="10">Point Cloud</tspan></text>
		
			<rect x="269.648" y="85.936" fill="#CCDEF0" stroke="#010101" stroke-width="0.75" stroke-linecap="round" stroke-linejoin="round" stroke-miterlimit="1" width="136.001" height="20"/>
		<polyline fill="none" stroke="#010101" stroke-linecap="round" stroke-linejoin="round" stroke-miterlimit="8" points="
			143.411,165.37 127.411,165.37 127.411,26.305 		"/>
		<text transform="matrix(1 0 0 1 279.2969 97.8242)"><tspan x="0" y="0" fill="#010101" font-size="10">S</tspan><tspan x="6.529" y="0" fill="#010101" font-size="10">u</tspan><tspan x="12.031" y="0" fill="#010101" font-size="10">rfac</tspan><tspan x="28.701" y="0" fill="#010101" font-size="10">e</tspan><tspan x="34.232" y="0" fill="#010101" font-size="10"> </tspan><tspan x="37.011" y="0" fill="#010101" font-size="10">S</tspan><tspan x="43.541" y="0" fill="#010101" font-size="10">can </tspan><tspan x="62.441" y="0" fill="#010101" font-size="10">Point Cloud</tspan></text>
		<path fill="none" stroke="#000000" stroke-width="0.5" stroke-miterlimit="10" d="M422.019,35.297"/>
		<path fill="none" stroke="#000000" stroke-width="0.5" stroke-miterlimit="10" d="M422.019,35.657"/>
		<polyline fill="none" stroke="#010101" stroke-linecap="round" stroke-linejoin="round" stroke-miterlimit="8" points="
			268.371,60.187 252.371,60.187 252.371,25.307 		"/>
		<text transform="matrix(1 0 0 1 468.0254 62.5449)"><tspan x="0" y="0" fill="#010101" font-size="10">Referenced</tspan><tspan x="0" y="12" fill="#010101" font-size="10">Surface Data</tspan><tspan x="0" y="24" fill="#010101" font-size="10">Sequence</tspan></text>
		
			<rect x="269.648" y="156.343" fill="#CCDEF0" stroke="#010101" stroke-width="0.75" stroke-linecap="round" stroke-linejoin="round" stroke-miterlimit="1" width="136.001" height="20"/>
		<polyline fill="none" stroke="#010101" stroke-linecap="round" stroke-linejoin="round" stroke-miterlimit="8" points="
			268.371,95.468 252.371,95.468 252.371,60.585 		"/>
		
			<rect x="143.411" y="156.343" fill="#CCDEF0" stroke="#010101" stroke-width="0.75" stroke-linecap="round" stroke-linejoin="round" stroke-miterlimit="1" width="85" height="20"/>
		
			<line fill="none" stroke="#010101" stroke-linecap="round" stroke-linejoin="round" stroke-miterlimit="8" x1="228.411" y1="166.343" x2="268.41" y2="166.343"/>
		<text transform="matrix(1 0 0 1 279.2969 168.2344)"><tspan x="0" y="0" fill="#010101" font-size="10">S</tspan><tspan x="6.529" y="0" fill="#010101" font-size="10">u</tspan><tspan x="12.031" y="0" fill="#010101" font-size="10">rfac</tspan><tspan x="28.701" y="0" fill="#010101" font-size="10">e</tspan><tspan x="34.232" y="0" fill="#010101" font-size="10"> </tspan><tspan x="37.011" y="0" fill="#010101" font-size="10">S</tspan><tspan x="43.541" y="0" fill="#010101" font-size="10">can </tspan><tspan x="62.441" y="0" fill="#010101" font-size="10">Mesh</tspan></text>
		<text transform="matrix(1 0 0 1 171.2637 169.0137)" fill="#010101" font-size="10">Series</text>
		<g>
			<g>
				<path fill="none" stroke="#0DB14B" stroke-width="0.75" stroke-linecap="round" stroke-linejoin="round" d="M410.743,98.545
					c8.626,3.98,14.982,17.647,14.982,33.895c0,19.367-9.031,35.066-20.172,35.066"/>
				<g>
					<polygon fill="#0DB14B" points="411.434,100.656 405.554,97.374 412.287,97.275 					"/>
				</g>
			</g>
		</g>
		<g>
			<g>
				<path fill="none" stroke="#0DB14B" stroke-width="0.75" stroke-linecap="round" stroke-linejoin="round" d="M410.814,62.001
					c14.366,4.359,25.29,26.265,25.29,52.633c0,29.506-13.678,53.423-30.551,53.423"/>
				<g>
					<polygon fill="#0DB14B" points="411.682,64.005 405.554,61.212 412.257,60.566 					"/>
				</g>
			</g>
		</g>
		<g>
			<g>
				<path fill="none" stroke="#0DB14B" stroke-width="0.75" stroke-linecap="round" stroke-linejoin="round" d="M410.836,25.798
					c19.785,4.552,35.062,34.324,35.062,70.373c0,39.202-18.062,70.979-40.344,70.979"/>
				<g>
					<polygon fill="#0DB14B" points="411.784,27.75 405.554,25.195 412.227,24.292 					"/>
				</g>
			</g>
		</g>
		
			<line fill="none" stroke="#000000" stroke-width="0.5" stroke-miterlimit="10" x1="455.974" y1="59.295" x2="428.761" y2="80.866"/>
		
			<line fill="none" stroke="#000000" stroke-width="0.5" stroke-miterlimit="10" x1="455.974" y1="59.295" x2="431.979" y2="42.54"/>
		<path fill="none" stroke="#000000" stroke-width="0.5" stroke-miterlimit="10" d="M422.019,105.704"/>
		<path fill="none" stroke="#000000" stroke-width="0.5" stroke-miterlimit="10" d="M481.628,62.375"/>
		<path fill="none" stroke="#000000" stroke-width="0.5" stroke-miterlimit="10" d="M422.019,106.064"/>
		<path fill="none" stroke="#000000" stroke-width="0.5" stroke-miterlimit="10" d="M481.628,62.734"/>
		<polyline fill="none" stroke="#000000" stroke-width="0.5" stroke-miterlimit="10" points="465.817,59.295 455.952,59.295 
			424.683,117.602 		"/>
	</g>
</g>
</svg>
