<?xml version="1.0" encoding="utf-8"?>

<!DOCTYPE svg PUBLIC "-//W3C//DTD SVG 1.1//EN" "http://www.w3.org/Graphics/SVG/1.1/DTD/svg11.dtd">
<svg version="1.1" id="Layer_1" xmlns="http://www.w3.org/2000/svg" xmlns:xlink="http://www.w3.org/1999/xlink" x="0px" y="0px"
	 width="642px" height="967px" viewBox="0 0 642 967" enable-background="new 0 0 642 967" xml:space="preserve">

<defs>
	<style type="text/css">
	text {
	  font-family: Helvetica, Verdana, ArialUnicodeMS, san-serif
	}
	</style>
</defs>

<g>
   <desc>
	PS 3.17 Part 17: Explanatory Information
   </desc>
</g>

<g>
	<rect x="1" y="1" fill="#F5EED6" width="640" height="965"/>
	<g>
		
			<line fill="none" stroke="#000000" stroke-width="0.5" stroke-linecap="round" stroke-miterlimit="1" x1="203.001" y1="51.159" x2="203.001" y2="951.002"/>
		
			<line fill="none" stroke="#000000" stroke-width="0.5" stroke-linecap="round" stroke-miterlimit="1" x1="89.134" y1="51.159" x2="89.134" y2="951.002"/>
		
			<line fill="none" stroke="#000000" stroke-width="0.5" stroke-linecap="round" stroke-miterlimit="1" x1="364.025" y1="51.159" x2="364.025" y2="951.002"/>
		
			<line fill="none" stroke="#000000" stroke-width="0.5" stroke-linecap="round" stroke-miterlimit="1" x1="36.105" y1="51.159" x2="36.105" y2="951.002"/>
		
			<rect x="70.134" y="15.998" fill="#E6E6E6" stroke="#010101" stroke-width="0.75" stroke-linecap="round" stroke-linejoin="round" stroke-miterlimit="1" width="38" height="35"/>
		
			<rect x="17.105" y="15.998" fill="#E6E6E6" stroke="#010101" stroke-width="0.75" stroke-linecap="round" stroke-linejoin="round" stroke-miterlimit="1" width="38" height="35"/>
		<text transform="matrix(1 0 0 1 26.5444 36.0034)" font-size="9">User</text>
		<text transform="matrix(1 0 0 1 74.1333 36.0034)" font-size="9">Archive</text>
		
			<rect x="330.025" y="15.998" fill="#E6E6E6" stroke="#010101" stroke-width="0.75" stroke-linecap="round" stroke-linejoin="round" stroke-miterlimit="1" width="68" height="35"/>
		
			<rect x="169.002" y="15.998" fill="#E6E6E6" stroke="#010101" stroke-width="0.75" stroke-linecap="round" stroke-linejoin="round" stroke-miterlimit="1" width="68" height="35"/>
		<text transform="matrix(1 0 0 1 343.5273 25.2017)"><tspan x="0" y="0" font-size="9">Treatment</tspan><tspan x="4.254" y="10.8" font-size="9">Delivery</tspan><tspan x="-7.744" y="21.6" font-size="9">System (TDS)</tspan></text>
		
			<line fill="none" stroke="#000000" stroke-width="0.5" stroke-linecap="round" stroke-miterlimit="1" x1="564.666" y1="51.159" x2="564.666" y2="948.451"/>
		
			<rect x="530.666" y="15.998" fill="#CCDEF0" stroke="#010101" stroke-width="0.75" stroke-linecap="round" stroke-linejoin="round" stroke-miterlimit="1" width="68" height="35"/>
		<text transform="matrix(1 0 0 1 547.6699 25.2017)"><tspan x="0" y="0" font-size="9">Machine</tspan><tspan x="-3.999" y="10.8" font-size="9">Parameter</tspan><tspan x="2.755" y="21.6" font-size="9">Verifier</tspan></text>
		<text transform="matrix(1 0 0 1 182.4937 25.2031)"><tspan x="0" y="0" font-size="9">Treatment</tspan><tspan x="-5.759" y="10.8" font-size="9">Management</tspan><tspan x="-9.492" y="21.6" font-size="9">System (TMS) </tspan></text>
		<g>
			<g>
				
					<line fill="none" stroke="#005695" stroke-linecap="round" stroke-miterlimit="1" x1="40.608" y1="102.266" x2="353.497" y2="102.266"/>
				<g>
					<polygon fill="#005695" points="352.308,104.009 358.812,102.266 352.308,100.522 					"/>
				</g>
			</g>
		</g>
		<g>
			<g>
				
					<line fill="none" stroke="#005695" stroke-linecap="round" stroke-miterlimit="1" x1="40.608" y1="398.492" x2="353.497" y2="398.492"/>
				<g>
					<polygon fill="#005695" points="352.308,400.235 358.812,398.492 352.308,396.749 					"/>
				</g>
			</g>
		</g>
		<g>
			<g>
				
					<line fill="none" stroke="#005695" stroke-linecap="round" stroke-miterlimit="1" x1="40.608" y1="416.854" x2="353.497" y2="416.854"/>
				<g>
					<polygon fill="#005695" points="352.308,418.598 358.812,416.854 352.308,415.111 					"/>
				</g>
			</g>
		</g>
		<g>
			<g>
				
					<line fill="none" stroke="#005695" stroke-linecap="round" stroke-miterlimit="1" x1="40.608" y1="626.001" x2="353.497" y2="626.001"/>
				<g>
					<polygon fill="#005695" points="352.308,627.744 358.812,626.001 352.308,624.258 					"/>
				</g>
			</g>
		</g>
		<g>
			<g>
				
					<line fill="none" stroke="#005695" stroke-linecap="round" stroke-miterlimit="1" x1="368.533" y1="444.135" x2="554.564" y2="444.135"/>
				<g>
					<polygon fill="#005695" points="553.375,445.878 559.88,444.135 553.375,442.392 					"/>
				</g>
			</g>
		</g>
		<g>
			<g>
				
					<line fill="none" stroke="#005695" stroke-linecap="round" stroke-miterlimit="1" x1="368.533" y1="480.926" x2="554.564" y2="480.926"/>
				<g>
					<polygon fill="#005695" points="553.375,482.669 559.88,480.926 553.375,479.183 					"/>
				</g>
			</g>
		</g>
		<g>
			<g>
				
					<line fill="none" stroke="#005695" stroke-linecap="round" stroke-miterlimit="1" x1="368.533" y1="498.588" x2="554.564" y2="498.588"/>
				<g>
					<polygon fill="#005695" points="553.375,500.331 559.88,498.588 553.375,496.845 					"/>
				</g>
			</g>
		</g>
		<g>
			<g>
				
					<line fill="none" stroke="#005695" stroke-linecap="round" stroke-miterlimit="1" x1="368.533" y1="544.588" x2="554.564" y2="544.588"/>
				<g>
					<polygon fill="#005695" points="553.375,546.331 559.88,544.588 553.375,542.845 					"/>
				</g>
			</g>
		</g>
		<g>
			<g>
				
					<line fill="none" stroke="#005695" stroke-linecap="round" stroke-miterlimit="1" x1="373.849" y1="571.587" x2="559.88" y2="571.587"/>
				<g>
					<polygon fill="#005695" points="375.038,573.33 368.533,571.587 375.038,569.844 					"/>
				</g>
			</g>
		</g>
		<g>
			<g>
				
					<line fill="none" stroke="#005695" stroke-linecap="round" stroke-miterlimit="1" x1="368.533" y1="662.733" x2="554.564" y2="662.733"/>
				<g>
					<polygon fill="#005695" points="553.375,664.477 559.88,662.733 553.375,660.99 					"/>
				</g>
			</g>
		</g>
		<g>
			<g>
				
					<line fill="none" stroke="#005695" stroke-linecap="round" stroke-miterlimit="1" x1="368.533" y1="680.396" x2="554.564" y2="680.396"/>
				<g>
					<polygon fill="#005695" points="553.375,682.139 559.88,680.396 553.375,678.652 					"/>
				</g>
			</g>
		</g>
		<g>
			<g>
				
					<line fill="none" stroke="#005695" stroke-linecap="round" stroke-miterlimit="1" x1="368.533" y1="817.541" x2="554.564" y2="817.541"/>
				<g>
					<polygon fill="#005695" points="553.375,819.284 559.88,817.541 553.375,815.798 					"/>
				</g>
			</g>
		</g>
		<g>
			<g>
				
					<line fill="none" stroke="#005695" stroke-linecap="round" stroke-miterlimit="1" x1="368.533" y1="726.396" x2="554.564" y2="726.396"/>
				<g>
					<polygon fill="#005695" points="553.375,728.139 559.88,726.396 553.375,724.652 					"/>
				</g>
			</g>
		</g>
		<g>
			<g>
				
					<line fill="none" stroke="#005695" stroke-linecap="round" stroke-miterlimit="1" x1="373.849" y1="753.395" x2="559.88" y2="753.395"/>
				<g>
					<polygon fill="#005695" points="375.038,755.138 368.533,753.395 375.038,751.651 					"/>
				</g>
			</g>
		</g>
		<g>
			<g>
				
					<line fill="none" stroke="#005695" stroke-linecap="round" stroke-miterlimit="1" x1="40.608" y1="166.929" x2="353.097" y2="166.929"/>
				<g>
					<polygon fill="#005695" points="351.907,168.672 358.412,166.929 351.907,165.186 					"/>
				</g>
			</g>
		</g>
		<g>
			<g>
				
					<line fill="none" stroke="#005695" stroke-linecap="round" stroke-miterlimit="1" x1="94.902" y1="261.36" x2="353.097" y2="261.36"/>
				<g>
					<polygon fill="#005695" points="351.907,263.104 358.412,261.36 351.907,259.617 					"/>
				</g>
			</g>
		</g>
		<g>
			<g>
				
					<line fill="none" stroke="#005695" stroke-linecap="round" stroke-miterlimit="1" x1="206.907" y1="138.111" x2="353.073" y2="138.111"/>
				<g>
					<polygon fill="#005695" points="351.884,139.854 358.389,138.111 351.884,136.368 					"/>
				</g>
			</g>
		</g>
		<g>
			<g>
				
					<line fill="none" stroke="#005695" stroke-linecap="round" stroke-miterlimit="1" x1="207.551" y1="204.137" x2="353.097" y2="204.137"/>
				<g>
					<polygon fill="#005695" points="351.907,205.88 358.412,204.137 351.907,202.394 					"/>
				</g>
			</g>
		</g>
		<g>
			<g>
				
					<line fill="none" stroke="#005695" stroke-linecap="round" stroke-miterlimit="1" x1="207.551" y1="338.442" x2="353.097" y2="338.442"/>
				<g>
					<polygon fill="#005695" points="351.907,340.186 358.412,338.442 351.907,336.699 					"/>
				</g>
			</g>
		</g>
		<g>
			<g>
				
					<line fill="none" stroke="#005695" stroke-linecap="round" stroke-miterlimit="1" x1="207.551" y1="361.842" x2="554.564" y2="361.842"/>
				<g>
					<polygon fill="#005695" points="553.375,363.585 559.88,361.842 553.375,360.099 					"/>
				</g>
			</g>
		</g>
		<g>
			<g>
				<polyline fill="none" stroke="#005695" stroke-linecap="round" stroke-miterlimit="1" points="368.533,138.111 378.268,138.111 
					378.268,150.287 373.849,150.287 				"/>
				<g>
					<polygon fill="#005695" points="375.038,148.544 368.533,150.287 375.038,152.03 					"/>
				</g>
			</g>
		</g>
		<g>
			<g>
				<polyline fill="none" stroke="#005695" stroke-linecap="round" stroke-miterlimit="1" points="368.533,760.604 378.268,760.604 
					378.268,772.78 373.849,772.78 				"/>
				<g>
					<polygon fill="#005695" points="375.038,771.037 368.533,772.78 375.038,774.523 					"/>
				</g>
			</g>
		</g>
		<g>
			<g>
				<polyline fill="none" stroke="#005695" stroke-linecap="round" stroke-miterlimit="1" points="368.533,579.183 378.268,579.183 
					378.268,591.358 373.849,591.358 				"/>
				<g>
					<polygon fill="#005695" points="375.038,589.615 368.533,591.358 375.038,593.102 					"/>
				</g>
			</g>
		</g>
		<g>
			<g>
				<polyline fill="none" stroke="#005695" stroke-linecap="round" stroke-miterlimit="1" points="569.166,689.669 578.902,689.669 
					578.902,701.845 574.481,701.845 				"/>
				<g>
					<polygon fill="#005695" points="575.671,700.102 569.166,701.845 575.671,703.588 					"/>
				</g>
			</g>
		</g>
		<g>
			<g>
				<polyline fill="none" stroke="#005695" stroke-linecap="round" stroke-miterlimit="1" points="569.166,506.225 578.902,506.225 
					578.902,518.4 574.481,518.4 				"/>
				<g>
					<polygon fill="#005695" points="575.671,516.657 569.166,518.4 575.671,520.144 					"/>
				</g>
			</g>
		</g>
		<g>
			<g>
				<polyline fill="none" stroke="#005695" stroke-linecap="round" stroke-miterlimit="1" points="368.533,201.978 378.268,201.978 
					378.268,233.762 373.849,233.762 				"/>
				<g>
					<polygon fill="#005695" points="375.038,232.019 368.533,233.762 375.038,235.505 					"/>
				</g>
			</g>
		</g>
		<g>
			<g>
				
					<line fill="none" stroke="#005695" stroke-linecap="round" stroke-miterlimit="1" x1="100.218" y1="232.683" x2="358.412" y2="232.683"/>
				<g>
					<polygon fill="#005695" points="101.407,234.426 94.902,232.683 101.407,230.939 					"/>
				</g>
			</g>
		</g>
		<g>
			<g>
				
					<line fill="none" stroke="#005695" stroke-linecap="round" stroke-miterlimit="1" x1="212.223" y1="120.929" x2="358.389" y2="120.929"/>
				<g>
					<polygon fill="#005695" points="213.412,122.672 206.907,120.929 213.412,119.186 					"/>
				</g>
			</g>
		</g>
		<g>
			<g>
				
					<line fill="none" stroke="#005695" stroke-linecap="round" stroke-miterlimit="1" x1="212.866" y1="184.795" x2="358.412" y2="184.795"/>
				<g>
					<polygon fill="#005695" points="214.055,186.538 207.551,184.795 214.055,183.052 					"/>
				</g>
			</g>
		</g>
		<g>
			<g>
				
					<line fill="none" stroke="#005695" stroke-linecap="round" stroke-miterlimit="1" x1="212.866" y1="283.481" x2="358.412" y2="283.481"/>
				<g>
					<polygon fill="#005695" points="214.055,285.225 207.551,283.481 214.055,281.738 					"/>
				</g>
			</g>
		</g>
		<g>
			<g>
				
					<line fill="none" stroke="#005695" stroke-linecap="round" stroke-miterlimit="1" x1="100.218" y1="607.594" x2="358.412" y2="607.594"/>
				<g>
					<polygon fill="#005695" points="101.407,609.337 94.902,607.594 101.407,605.851 					"/>
				</g>
			</g>
		</g>
		<g>
			<g>
				
					<line fill="none" stroke="#005695" stroke-linecap="round" stroke-miterlimit="1" x1="100.218" y1="791.174" x2="358.412" y2="791.174"/>
				<g>
					<polygon fill="#005695" points="101.407,792.917 94.902,791.174 101.407,789.431 					"/>
				</g>
			</g>
		</g>
		<g>
			<g>
				
					<line fill="none" stroke="#005695" stroke-linecap="round" stroke-miterlimit="1" x1="100.218" y1="854.529" x2="358.412" y2="854.529"/>
				<g>
					<polygon fill="#005695" points="101.407,856.272 94.902,854.529 101.407,852.786 					"/>
				</g>
			</g>
		</g>
		<g>
			<g>
				
					<line fill="none" stroke="#005695" stroke-linecap="round" stroke-miterlimit="1" x1="212.866" y1="462.896" x2="358.412" y2="462.896"/>
				<g>
					<polygon fill="#005695" points="214.055,464.639 207.551,462.896 214.055,461.152 					"/>
				</g>
			</g>
		</g>
		<g>
			<g>
				
					<line fill="none" stroke="#005695" stroke-linecap="round" stroke-miterlimit="1" x1="212.866" y1="646.003" x2="358.412" y2="646.003"/>
				<g>
					<polygon fill="#005695" points="214.055,647.746 207.551,646.003 214.055,644.26 					"/>
				</g>
			</g>
		</g>
		<g>
			<g>
				
					<line fill="none" stroke="#005695" stroke-linecap="round" stroke-miterlimit="1" x1="212.866" y1="835.589" x2="358.412" y2="835.589"/>
				<g>
					<polygon fill="#005695" points="214.055,837.332 207.551,835.589 214.055,833.846 					"/>
				</g>
			</g>
		</g>
		<g>
			<g>
				
					<line fill="none" stroke="#005695" stroke-linecap="round" stroke-miterlimit="1" x1="212.866" y1="871.585" x2="358.412" y2="871.585"/>
				<g>
					<polygon fill="#005695" points="214.055,873.328 207.551,871.585 214.055,869.842 					"/>
				</g>
			</g>
		</g>
		<g>
			<g>
				
					<line fill="none" stroke="#005695" stroke-linecap="round" stroke-miterlimit="1" x1="212.866" y1="890.494" x2="358.412" y2="890.494"/>
				<g>
					<polygon fill="#005695" points="214.055,892.237 207.551,890.494 214.055,888.751 					"/>
				</g>
			</g>
		</g>
		<g>
			<g>
				
					<line fill="none" stroke="#005695" stroke-linecap="round" stroke-miterlimit="1" x1="45.924" y1="908.853" x2="358.412" y2="908.853"/>
				<g>
					<polygon fill="#005695" points="47.113,910.596 40.608,908.853 47.113,907.109 					"/>
				</g>
			</g>
		</g>
		<g>
			<g>
				
					<line fill="none" stroke="#005695" stroke-linecap="round" stroke-miterlimit="1" x1="212.866" y1="305.209" x2="358.412" y2="305.209"/>
				<g>
					<polygon fill="#005695" points="214.055,306.952 207.551,305.209 214.055,303.466 					"/>
				</g>
			</g>
		</g>
		
			<rect x="359.533" y="95.762" fill="#E6E6E6" stroke="#010101" stroke-width="0.75" stroke-linecap="round" stroke-linejoin="round" stroke-miterlimit="1" width="9" height="57.834"/>
		
			<rect x="198.502" y="112.849" fill="#E6E6E6" stroke="#010101" stroke-width="0.75" stroke-linecap="round" stroke-linejoin="round" stroke-miterlimit="1" width="9" height="29.08"/>
		
			<rect x="198.502" y="176.516" fill="#E6E6E6" stroke="#010101" stroke-width="0.75" stroke-linecap="round" stroke-linejoin="round" stroke-miterlimit="1" width="9" height="30.879"/>
		
			<rect x="198.502" y="266.516" fill="#E6E6E6" stroke="#010101" stroke-width="0.75" stroke-linecap="round" stroke-linejoin="round" stroke-miterlimit="1" width="9" height="24.246"/>
		
			<rect x="31.605" y="91.569" fill="#E6E6E6" stroke="#010101" stroke-width="0.75" stroke-linecap="round" stroke-linejoin="round" stroke-miterlimit="1" width="9" height="78.692"/>
		
			<rect x="84.635" y="225.795" fill="#E6E6E6" stroke="#010101" stroke-width="0.75" stroke-linecap="round" stroke-linejoin="round" stroke-miterlimit="1" width="9" height="39.346"/>
		
			<rect x="359.533" y="160.262" fill="#E6E6E6" stroke="#010101" stroke-width="0.75" stroke-linecap="round" stroke-linejoin="round" stroke-miterlimit="1" width="9" height="191"/>
		
			<rect x="198.502" y="299.201" fill="#E6E6E6" stroke="#010101" stroke-width="0.75" stroke-linecap="round" stroke-linejoin="round" stroke-miterlimit="1" width="9" height="64.979"/>
		
			<rect x="560.166" y="351.262" fill="#CCDEF0" stroke="#010101" stroke-width="0.75" stroke-linecap="round" stroke-linejoin="round" stroke-miterlimit="1" width="9" height="31.764"/>
		
			<rect x="560.166" y="419.587" fill="#CCDEF0" stroke="#010101" stroke-width="0.75" stroke-linecap="round" stroke-linejoin="round" stroke-miterlimit="1" width="9" height="408.748"/>
		
			<rect x="198.502" y="404.619" fill="#E6E6E6" stroke="#010101" stroke-width="0.75" stroke-linecap="round" stroke-linejoin="round" stroke-miterlimit="1" width="9" height="491.05"/>
		
			<rect x="84.635" y="594.876" fill="#E6E6E6" stroke="#010101" stroke-width="0.75" stroke-linecap="round" stroke-linejoin="round" stroke-miterlimit="1" width="9" height="19.67"/>
		
			<rect x="31.608" y="386.356" fill="#E6E6E6" stroke="#010101" stroke-width="0.75" stroke-linecap="round" stroke-linejoin="round" stroke-miterlimit="1" width="9" height="531.979"/>
		
			<rect x="359.533" y="389.96" fill="#E6E6E6" stroke="#010101" stroke-width="0.75" stroke-linecap="round" stroke-linejoin="round" stroke-miterlimit="1" width="9" height="524.507"/>
		
			<rect x="84.635" y="778.456" fill="#E6E6E6" stroke="#010101" stroke-width="0.75" stroke-linecap="round" stroke-linejoin="round" stroke-miterlimit="1" width="9" height="19.67"/>
		
			<rect x="84.635" y="843.97" fill="#E6E6E6" stroke="#010101" stroke-width="0.75" stroke-linecap="round" stroke-linejoin="round" stroke-miterlimit="1" width="9" height="19.67"/>
		<rect x="45.894" y="92.523" fill="none" width="579" height="818.531"/>
		<text transform="matrix(1.003 0 0 1 45.894 97.5322)"><tspan x="0" y="0" fill="#999999" font-size="7">1. ‘List Procedures for Delivery’ on TDS console</tspan><tspan x="0" y="18.4" fill="#999999" font-size="7" letter-spacing="49.85">	</tspan><tspan x="52" y="18.4" fill="#999999" font-size="7" letter-spacing="112.661">	</tspan><tspan x="166.999" y="18.4" fill="#999999" font-size="7">2. Query UPS (CFIND)</tspan><tspan x="0" y="36.8" fill="#999999" font-size="7" letter-spacing="49.85">	</tspan><tspan x="52" y="36.8" fill="#999999" font-size="7" letter-spacing="112.661">	</tspan><tspan x="166.999" y="36.8" fill="#999999" font-size="7">3. Receive 0-n UPS</tspan><tspan x="0" y="48.2" fill="#999999" font-size="7" letter-spacing="49.85">	</tspan><tspan x="52" y="48.2" fill="#999999" font-size="7" letter-spacing="112.661">	</tspan><tspan x="166.999" y="48.2" fill="#999999" font-size="7" letter-spacing="165.502">	</tspan><tspan x="334.999" y="48.2" fill="#999999" font-size="7">Display list to User</tspan><tspan x="0" y="66.6" fill="#999999" font-size="7">4. ‘Select Procedure’ on TDS console (optional, if only one procedure in list)</tspan><tspan x="0" y="85" fill="#999999" font-size="7" letter-spacing="49.85">	</tspan><tspan x="52" y="85" fill="#999999" font-size="7" letter-spacing="112.661">	</tspan><tspan x="166.999" y="85" fill="#999999" font-size="7">5. Get UPS details (C-GET)</tspan><tspan x="0" y="103.4" fill="#999999" font-size="7" letter-spacing="49.85">	</tspan><tspan x="52" y="103.4" fill="#999999" font-size="7" letter-spacing="112.661">	</tspan><tspan x="166.999" y="103.4" fill="#999999" font-size="7">Receive UPS details</tspan><tspan x="0" y="121.8" fill="#999999" font-size="7" letter-spacing="49.85">	</tspan><tspan x="52" y="121.8" fill="#999999" font-size="7" letter-spacing="112.661">	</tspan><tspan x="166.999" y="121.8" fill="#999999" font-size="7" letter-spacing="165.502">	</tspan><tspan x="334.999" y="121.8" fill="#999999" font-size="7">Extract input UIDs from selected UPS</tspan><tspan x="0" y="133.2" fill="#999999" font-size="7" letter-spacing="49.85">	</tspan><tspan x="52" y="133.2" fill="#999999" font-size="7">5a. Retrieve Archive Objects (C_MOVE)</tspan><tspan x="0" y="151.6" fill="#999999" font-size="7" letter-spacing="49.85">	</tspan><tspan x="52" y="151.6" fill="#999999" font-size="7">RT Plan and any other required objects</tspan><tspan x="0" y="160" fill="#999999" font-size="7" letter-spacing="49.85">	</tspan><tspan x="52" y="160" fill="#999999" font-size="7">(e.g., verification images, RT Beam Treatment Records)</tspan><tspan x="0" y="173.4" fill="#999999" font-size="7" letter-spacing="49.85">	</tspan><tspan x="52" y="173.4" fill="#999999" font-size="7" letter-spacing="112.661">	</tspan><tspan x="166.999" y="173.4" fill="#999999" font-size="7">6. Change UPS ‘IN PROCESS’</tspan><tspan x="0" y="181.8" fill="#999999" font-size="7" letter-spacing="49.85">	</tspan><tspan x="52" y="181.8" fill="#999999" font-size="7" letter-spacing="112.661">	</tspan><tspan x="166.999" y="181.8" fill="#999999" font-size="7">(N-ACTION with Transaction UID)</tspan><tspan x="0" y="203.2" fill="#999999" font-size="7" letter-spacing="49.85">	</tspan><tspan x="52" y="203.2" fill="#999999" font-size="7" letter-spacing="112.661">	</tspan><tspan x="166.999" y="203.2" fill="#999999" font-size="7">7. Retrieve TMS objects (C-MOVE)</tspan><tspan x="0" y="221.6" fill="#999999" font-size="7" letter-spacing="49.85">	</tspan><tspan x="52" y="221.6" fill="#999999" font-size="7" letter-spacing="112.661">	</tspan><tspan x="166.999" y="221.6" fill="#999999" font-size="7">RT Beams Delivery Instruction</tspan><tspan x="0" y="230" fill="#999999" font-size="7" letter-spacing="49.85">	</tspan><tspan x="52" y="230" fill="#999999" font-size="7" letter-spacing="112.661">	</tspan><tspan x="166.999" y="230" fill="#999999" font-size="7">RT Treatment Record Summary</tspan><tspan x="0" y="238.4" fill="#999999" font-size="7" letter-spacing="49.85">	</tspan><tspan x="52" y="238.4" fill="#999999" font-size="7" letter-spacing="112.661">	</tspan><tspan x="166.999" y="238.4" fill="#999999" font-size="7">RT Beams Treatment Rec (if not in 5)</tspan><tspan x="0" y="261.8" fill="#999999" font-size="7" letter-spacing="49.85">	</tspan><tspan x="52" y="261.8" fill="#999999" font-size="7" letter-spacing="112.661">	</tspan><tspan x="166.999" y="261.8" font-size="7">7a Communicate UPS and any required delivery data using a non-specified mechanism</tspan><tspan x="0" y="298.6" fill="#999999" font-size="7">8. ‘Start Treatment Session’ on TDS console</tspan><tspan x="0" y="317" font-size="7">8a. ‘Deliver Beam 1’ on TDS console</tspan><tspan x="0" y="335.4" font-size="7" letter-spacing="49.85">	</tspan><tspan x="52" y="335.4" font-size="7" letter-spacing="112.661">	</tspan><tspan x="166.999" y="335.4" font-size="7" letter-spacing="165.502">	</tspan><tspan x="334.999" y="335.4" font-size="7">8b. Create RT Conv. Machine Verification</tspan><tspan x="0" y="343.8" font-size="7" letter-spacing="49.85">	</tspan><tspan x="52" y="343.8" font-size="7" letter-spacing="112.661">	</tspan><tspan x="166.999" y="343.8" font-size="7" letter-spacing="165.502">	</tspan><tspan x="334.999" y="343.8" font-size="7">(N-CREATE)</tspan><tspan x="0" y="362.2" fill="#999999" font-size="7" letter-spacing="49.85">	</tspan><tspan x="52" y="362.2" fill="#999999" font-size="7" letter-spacing="112.661">	</tspan><tspan x="166.999" y="362.2" fill="#999999" font-size="7">9. Set UPS 0% complete, Beam ‘1’ (N-SET)</tspan><tspan x="0" y="380.6" fill="#999999" font-size="7" letter-spacing="49.85">	</tspan><tspan x="52" y="380.6" fill="#999999" font-size="7" letter-spacing="112.661">	</tspan><tspan x="166.999" y="380.6" fill="#999999" font-size="7" letter-spacing="165.502">	</tspan><tspan x="334.999" y="380.6" font-size="7">9a. Set ‘Beam1’ RT Conv. Machine Verification (N-SET)</tspan><tspan x="0" y="399" font-size="7" letter-spacing="49.85">	</tspan><tspan x="52" y="399" font-size="7" letter-spacing="112.661">	</tspan><tspan x="166.999" y="399" font-size="7" letter-spacing="165.502">	</tspan><tspan x="334.999" y="399" font-size="7">9b. Initiate verification (N-ACTION)</tspan><tspan x="0" y="417.4" font-size="7" letter-spacing="49.85">	</tspan><tspan x="52" y="417.4" font-size="7" letter-spacing="112.661">	</tspan><tspan x="166.999" y="417.4" font-size="7" letter-spacing="165.502">	</tspan><tspan x="334.999" y="417.4" font-size="7" letter-spacing="197.406">	</tspan><tspan x="534.999" y="417.4" font-size="7">Verify</tspan><tspan x="0" y="435.8" font-size="7" letter-spacing="49.85">	</tspan><tspan x="52" y="435.8" font-size="7" letter-spacing="112.661">	</tspan><tspan x="166.999" y="435.8" font-size="7" letter-spacing="165.502">	</tspan><tspan x="334.999" y="435.8" font-size="7">9c Notify Verification Status (N-EVENT-REPORT,</tspan><tspan x="0" y="444.2" font-size="7" letter-spacing="49.85">	</tspan><tspan x="52" y="444.2" font-size="7" letter-spacing="112.661">	</tspan><tspan x="166.999" y="444.2" font-size="7" letter-spacing="165.502">	</tspan><tspan x="334.999" y="444.2" font-size="7">Event-Type = ‘Done’, TVS = VERIFIED)</tspan><tspan x="0" y="462.6" font-size="7" letter-spacing="49.85">	</tspan><tspan x="52" y="462.6" font-size="7" letter-spacing="112.661">	</tspan><tspan x="166.999" y="462.6" font-size="7" letter-spacing="165.502">	</tspan><tspan x="334.999" y="462.6" font-size="7">9d. Get RT-Conv. Machine Verification (N-GET)</tspan><tspan x="0" y="471" font-size="7" letter-spacing="49.85">	</tspan><tspan x="52" y="471" font-size="7" letter-spacing="112.661">	</tspan><tspan x="166.999" y="471" font-size="7" letter-spacing="165.502">	</tspan><tspan x="334.999" y="471" font-size="7"> - optional instruction</tspan><tspan x="0" y="489.399" fill="#999999" font-size="7" letter-spacing="49.85">	</tspan><tspan x="52" y="489.399" fill="#999999" font-size="7" letter-spacing="112.661">	</tspan><tspan x="166.999" y="489.399" fill="#999999" font-size="7" letter-spacing="165.502">	</tspan><tspan x="334.999" y="489.399" fill="#999999" font-size="7">DELIVER RADIATION</tspan><tspan x="0" y="507.8" fill="#999999" font-size="7" letter-spacing="49.85">	</tspan><tspan x="52" y="507.8" font-size="7">9e. Store ‘Beam1’ RT Beams Treatment Record (C-STORE)</tspan><tspan x="0" y="526.2" font-size="7">8a. ‘Deliver Beam 2’ on TDS console</tspan><tspan x="0" y="544.6" fill="#999999" font-size="7" letter-spacing="49.85">	</tspan><tspan x="52" y="544.6" fill="#999999" font-size="7" letter-spacing="112.661">	</tspan><tspan x="166.999" y="544.6" fill="#999999" font-size="7">9. Set UPS 50% complete, Beam ‘2’ (N-SET)</tspan><tspan x="0" y="563" fill="#999999" font-size="7" letter-spacing="49.85">	</tspan><tspan x="52" y="563" fill="#999999" font-size="7" letter-spacing="112.661">	</tspan><tspan x="166.999" y="563" fill="#999999" font-size="7" letter-spacing="165.502">	</tspan><tspan x="334.999" y="563" font-size="7">9a. Set ‘Beam2’ RT Conv. Machine Verification (N-SET)</tspan><tspan x="0" y="581.4" font-size="7" letter-spacing="49.85">	</tspan><tspan x="52" y="581.4" font-size="7" letter-spacing="112.661">	</tspan><tspan x="166.999" y="581.4" font-size="7" letter-spacing="165.502">	</tspan><tspan x="334.999" y="581.4" font-size="7">9b. Initiate verification (N-ACTION)</tspan><tspan x="0" y="599.8" font-size="7" letter-spacing="49.85">	</tspan><tspan x="52" y="599.8" font-size="7" letter-spacing="112.661">	</tspan><tspan x="166.999" y="599.8" font-size="7" letter-spacing="165.502">	</tspan><tspan x="334.999" y="599.8" font-size="7" letter-spacing="197.406">	</tspan><tspan x="534.999" y="599.8" font-size="7">Verify</tspan><tspan x="0" y="618.2" font-size="7" letter-spacing="49.85">	</tspan><tspan x="52" y="618.2" font-size="7" letter-spacing="112.661">	</tspan><tspan x="166.999" y="618.2" font-size="7" letter-spacing="165.502">	</tspan><tspan x="334.999" y="618.2" font-size="7">9c Notify Verification Status (N-EVENT-REPORT,</tspan><tspan x="0" y="626.6" font-size="7" letter-spacing="49.85">	</tspan><tspan x="52" y="626.6" font-size="7" letter-spacing="112.661">	</tspan><tspan x="166.999" y="626.6" font-size="7" letter-spacing="165.502">	</tspan><tspan x="334.999" y="626.6" font-size="7">Event-Type = ‘Done’, TVS = VERIFIED)</tspan><tspan x="0" y="645" font-size="7" letter-spacing="49.85">	</tspan><tspan x="52" y="645" font-size="7" letter-spacing="112.661">	</tspan><tspan x="166.999" y="645" font-size="7" letter-spacing="165.502">	</tspan><tspan x="334.999" y="645" font-size="7">9d. Get RT-Conv. Machine Verification (N-GET) </tspan><tspan x="0" y="653.4" font-size="7" letter-spacing="49.85">	</tspan><tspan x="52" y="653.4" font-size="7" letter-spacing="112.661">	</tspan><tspan x="166.999" y="653.4" font-size="7" letter-spacing="165.502">	</tspan><tspan x="334.999" y="653.4" font-size="7">- optional instruction</tspan><tspan x="0" y="671.8" fill="#999999" font-size="7" letter-spacing="49.85">	</tspan><tspan x="52" y="671.8" fill="#999999" font-size="7" letter-spacing="112.661">	</tspan><tspan x="166.999" y="671.8" fill="#999999" font-size="7" letter-spacing="165.502">	</tspan><tspan x="334.999" y="671.8" fill="#999999" font-size="7">DELIVER RADIATION</tspan><tspan x="0" y="690.2" fill="#999999" font-size="7" letter-spacing="49.85">	</tspan><tspan x="52" y="690.2" font-size="7">9e. Store ‘Beam2’ RT Beams Treatment Record (C-STORE)</tspan><tspan x="0" y="708.601" font-size="7" letter-spacing="49.85">	</tspan><tspan x="52" y="708.601" font-size="7" letter-spacing="112.661">	</tspan><tspan x="166.999" y="708.601" font-size="7" letter-spacing="165.502">	</tspan><tspan x="334.999" y="708.601" font-size="7">9f. Delete RT Conv. Machine Verification</tspan><tspan x="0" y="717" font-size="7" letter-spacing="49.85">	</tspan><tspan x="52" y="717" font-size="7" letter-spacing="112.661">	</tspan><tspan x="166.999" y="717" font-size="7" letter-spacing="165.502">	</tspan><tspan x="334.999" y="717" font-size="7">(N-DELETE)</tspan><tspan x="0" y="735.4" fill="#999999" font-size="7" letter-spacing="49.85">	</tspan><tspan x="52" y="735.4" fill="#999999" font-size="7" letter-spacing="112.661">	</tspan><tspan x="166.999" y="735.4" fill="#999999" font-size="7">10. Set UPS 100% complete, (N-SET)</tspan><tspan x="0" y="753.8" fill="#999999" font-size="7" letter-spacing="49.85">	</tspan><tspan x="52" y="753.8" font-size="7">11. Store other result objects (C-STORE)</tspan><tspan x="0" y="772.2" fill="#999999" font-size="7" letter-spacing="49.85">	</tspan><tspan x="52" y="772.2" fill="#999999" font-size="7" letter-spacing="112.661">	</tspan><tspan x="166.999" y="772.2" fill="#999999" font-size="7">12. Set UPS to Final State (N-SET)</tspan><tspan x="0" y="790.601" fill="#999999" font-size="7" letter-spacing="49.85">	</tspan><tspan x="52" y="790.601" fill="#999999" font-size="7" letter-spacing="112.661">	</tspan><tspan x="166.999" y="790.601" fill="#999999" font-size="7">13. Change UPS ‘COMPETED’ (N-ACTION)</tspan><tspan x="0" y="809" fill="#999999" font-size="7">14. Indicate ‘Treatment Session Completed on TDS Console</tspan></text>
	</g>
</g>
</svg>
