<?xml version="1.0" encoding="utf-8"?>

<!DOCTYPE svg PUBLIC "-//W3C//DTD SVG 1.1//EN" "http://www.w3.org/Graphics/SVG/1.1/DTD/svg11.dtd">
<svg version="1.1" id="Layer_1" xmlns="http://www.w3.org/2000/svg" xmlns:xlink="http://www.w3.org/1999/xlink" x="0px" y="0px"
	 width="502px" height="322px" viewBox="0 0 502 322" enable-background="new 0 0 502 322" xml:space="preserve">

<defs>
	<style type="text/css">
	text {
	  font-family: Helvetica, Verdana, ArialUnicodeMS, san-serif
	}
	</style>
</defs>

<g>
   <desc>
	PS 3.17 Part 17: Explanatory Information
   </desc>
</g>

<g>
	<rect x="1" y="1" fill="#F5EED6" width="500" height="320"/>
	<g>
		<path fill-rule="evenodd" clip-rule="evenodd" fill="#E4C3A8" stroke="#000000" stroke-miterlimit="1" d="M395.602,105.403
			c-0.287-0.573-0.453-1.27-0.885-1.7c-2.342-2.335-4.676-4.69-7.164-6.865c-1.451-1.27-2.992-2.347-3.709-4.266
			c-0.65-1.745-1.631-3.573-3.488-3.979c-2.1-0.457-3.443-1.764-4.936-3.002c-0.465-0.387-0.852-0.903-1.367-1.188
			c-1.795-0.991-3.021-2.442-3.932-4.262c-0.797-1.59-1.963-2.832-3.811-3.292c-0.516-0.128-1.021-0.474-1.424-0.838
			c-1.111-1.004-2.199-2.039-3.236-3.12c-1.51-1.575-2.877-3.3-4.48-4.77c-1.072-0.984-2.354-1.948-3.713-2.366
			c-2.035-0.627-3.535-1.758-4.928-3.279c-0.611-0.669-1.615-1.333-2.463-1.361c-1.973-0.068-3.297-0.924-4.555-2.346
			c-2.316-2.617-4.646-1.657-7.242-3.983c-2.912-1.462-6.556-4.665-6.986-4.911c-0.773-0.442-3.449-2.142-3.449-1.608
			c0,0,3.171,2.562,4.287,3.937c2.243,2.759,3.974,4.245,7.758,6.153c2.524,1.273,6.587,2.625,8.249,4.916
			c1.609,2.22,5.865,3.3,7.689,5.361c2.541,2.87,5.751,4.457,8.478,7.139c5.713,5.616,5.083,5.25,8.333,9.167
			c0.98,0.854,3.573,4.422,4.417,5.417c3.646,4.301,5.094,7.894,7.714,13.271c3.038,6.236,5.145,9.979,7.265,16.521
			c0.158,0.287,0.611,0.412,0.928,0.612"/>
		<path fill-rule="evenodd" clip-rule="evenodd" fill="#E4C3A8" stroke="#000000" stroke-miterlimit="1" d="M178.623,99.565
			c0.321-0.555,0.529-1.239,0.986-1.643c2.48-2.188,4.955-4.396,7.572-6.414c1.526-1.178,3.131-2.158,3.964-4.03
			c0.757-1.702,1.848-3.466,3.727-3.757c2.124-0.328,3.545-1.549,5.11-2.693c0.487-0.357,0.905-0.85,1.438-1.103
			c1.853-0.88,3.166-2.254,4.187-4.014c0.893-1.538,2.133-2.706,4.006-3.052c0.522-0.097,1.049-0.41,1.473-0.749
			c1.17-0.934,2.32-1.901,3.422-2.916c1.603-1.479,3.073-3.117,4.765-4.486c1.13-0.917,2.469-1.8,3.851-2.134
			c2.07-0.501,3.637-1.538,5.12-2.972c0.651-0.63,1.694-1.23,2.543-1.208c1.973,0.053,3.348-0.72,4.69-2.062
			c2.473-2.47,4.739-1.368,7.474-3.531c2.996-1.28,6.829-4.255,7.274-4.475c0.799-0.394,3.577-1.925,3.545-1.393
			c0,0-3.325,2.362-4.523,3.666c-2.409,2.616-4.228,3.994-8.122,5.666c-2.598,1.116-6.736,2.217-8.535,4.401
			c-1.743,2.117-6.058,2.934-8.005,4.88c-2.713,2.709-6.014,4.097-8.9,6.606c-6.047,5.255-5.396,4.928-8.88,8.639
			c-1.031,0.792-3.838,4.194-4.741,5.136c-3.903,4.069-5.568,7.566-8.514,12.773c-3.415,6.039-5.747,9.646-8.264,16.046
			c-0.176,0.276-0.637,0.374-0.965,0.555"/>
		<path fill-rule="evenodd" clip-rule="evenodd" d="M280.839,34.395c7.805-1.404,16.748-0.422,23.021,1.693
			c0.648,0.593,1.766,0.718,2.709,1.016c-2.861,0.375-5.952-1.945-9.479-2.031c-1.82-0.551-3.986-0.755-6.434-0.678
			c-3.861-0.557-9.119,0.994-10.832,0.339C280.304,34.763,280.782,34.789,280.839,34.395z"/>
		<path fill-rule="evenodd" clip-rule="evenodd" d="M335.346,58.434c-4.762-2.46-8.828-5.617-11.85-9.819
			c3.957,2.251,5.568,6.847,10.496,8.127c32.594,17.176,54.396,45.141,60.264,89.043c-0.039,3.537,0.045,6.953,0.678,9.818
			c0,0.789,0,1.58,0,2.369c-0.525,3.312-0.592,7.082-0.678,10.835c-7.602,52.998-39.088,82.119-91.412,90.396
			c-2.062-0.256-3.069,0.541-5.079,0.338c0.848-0.846,3.105-0.281,4.063-1.016c0.227,0,0.451,0,0.678,0
			c6.615-0.605,12.676-1.77,17.943-3.723c2.43-0.166,4.164-1.027,6.094-1.693c4.141-1.277,8.17-2.664,11.512-4.74
			c1.557-0.248,2.605-1.006,3.725-1.693c3.008-1.506,6.041-2.986,8.463-5.078c0.113,0,0.227,0,0.34,0
			c22.023-14.879,37.562-36.244,42.32-68.391c0-0.111,0-0.225,0-0.338c2.092-10.003,1.666-24.108-0.34-33.856
			c0-0.113,0-0.227,0-0.34c-2.871-17.893-9.035-32.492-17.604-44.689c0.246-0.924-0.674-0.682-0.678-1.355
			c-5.656-8.111-12.16-15.376-19.637-21.667c-0.113,0-0.227,0-0.338,0c-3.158-3.163-6.891-5.749-10.834-8.126
			C340.842,61.288,338.463,59.493,335.346,58.434z"/>
		<path fill-rule="evenodd" clip-rule="evenodd" d="M239.534,56.402c0.458-0.106,0.646-0.481,1.354-0.339
			c-0.21,1.031-1.821,0.662-2.031,1.693c-1.196,0.158-1.854,0.855-2.708,1.354c-1.75,0.621-2.828,1.912-4.74,2.371
			c0.119-0.445,0.596-0.533,0.677-1.016C234.829,59.371,237.048,57.753,239.534,56.402z"/>
		<path fill-rule="evenodd" clip-rule="evenodd" fill="#28903B" d="M263.233,57.757c0.977-0.041,2.217,0.186,2.709-0.339
			c1.703,0.236,2.359-0.574,4.062-0.339c-4.14,1.518-9.632,3.439-14.896,2.709C257.023,58.317,261.163,59.071,263.233,57.757z"/>
		<path fill-rule="evenodd" clip-rule="evenodd" fill="#28903B" d="M324.512,61.142c-1.604,2.182-5.18-1.279-8.125-1.015
			c-2.633-0.979-5.551-1.673-8.465-2.37C313.357,57.628,319.848,59.374,324.512,61.142z"/>
		<path fill-rule="evenodd" clip-rule="evenodd" d="M258.833,63.513c-0.881,0.135-1.021,1.01-2.031,1.016
			c-0.568-1.014-1.551-1.611-2.37-2.37c0-0.226,0-0.452,0-0.677c1.829-0.138,3.374,0.012,4.401,0.677
			c0.308-1.724,2.205-1.856,4.062-2.031C261.509,61.222,260.122,62.319,258.833,63.513z"/>
		<path fill-rule="evenodd" clip-rule="evenodd" d="M323.834,63.513c-0.646,0.933-1.436,1.723-2.369,2.369
			c-0.262-0.076-0.668-0.009-0.678-0.338c-1.268-2.229-3.902-3.094-5.416-5.078c2.607,1.115,6.061,1.387,8.463,2.708
			C323.834,63.286,323.834,63.399,323.834,63.513z"/>
		<path fill-rule="evenodd" clip-rule="evenodd" d="M259.51,68.591c-1.479-0.237-1.907,0.576-3.386,0.338
			c0.508-0.508,0.605-1.425,1.354-1.692c1.198-0.183,0.833,1.199,2.031,1.016C259.51,68.365,259.51,68.478,259.51,68.591z"/>
		<path fill-rule="evenodd" clip-rule="evenodd" fill="#EAC11D" d="M259.51,68.591c0.112,0,0.226,0,0.339,0
			c0.34-0.002,0.402,0.273,0.677,0.338c-0.862,1.17-3.101,0.963-5.078,1.016c-0.019-0.582,0.261-0.867,0.677-1.016
			C257.603,69.167,258.031,68.354,259.51,68.591z"/>
		<path fill-rule="evenodd" clip-rule="evenodd" d="M322.143,70.283c-1.361,0.233-1.934-0.323-3.047-0.339
			c0.23-0.672,1.029-0.774,1.354-1.354c1.27-0.255,0.738,1.293,1.693,1.354C322.143,70.058,322.143,70.171,322.143,70.283z"/>
		<path fill-rule="evenodd" clip-rule="evenodd" fill="#EAC11D" d="M196.537,110.911c8.727-17.793,21.398-31.643,37.581-41.982
			c0.131,0.484,0.406,0.572,0,1.016c-19.5,14.471-35.642,32.299-42.321,59.588c-0.459,0.105-0.28,0.848-0.338,1.355
			c-1.28,4.248-1.349,9.711-2.031,14.557c0,3.273,0,6.547,0,9.818c1.131,19.86,6.022,35.962,13.881,49.093
			c3.961,6.682,8.596,12.32,13.881,17.605c5.211,5.211,11.439,9.666,15.235,16.252c-0.076,0.262-0.01,0.668-0.339,0.676
			c-2.901-2.176-5.544-4.611-8.464-6.771c-12.77-11.605-22.578-26.174-29.455-43.674c-2.814-8.924-5.346-18.127-6.094-29.118
			c0.237-1.479-0.576-1.906-0.339-3.385c0-2.822,0-5.643,0-8.465c-0.237-1.479,0.576-1.906,0.339-3.385
			c0.158-4.807,1.252-8.68,1.692-13.203c1.729-6.398,3.519-12.734,6.095-18.283C196.563,112.517,195.952,111.116,196.537,110.911z"
			/>
		<path fill-rule="evenodd" clip-rule="evenodd" d="M260.525,69.269c8.239,9.832,27.038,16.4,44.35,10.834
			c4.914-2.423,9.902-4.771,12.527-9.48c1.275,1.262-1.598,3.667-3.047,4.401c-1.238,1.696-3.295,2.573-5.078,3.725
			c-3.6,2.157-8.296,3.216-13.204,4.063C278.786,83.733,267.778,78.38,260.525,69.269z"/>
		<path fill-rule="evenodd" clip-rule="evenodd" fill="#EAC11D" d="M318.418,69.944c0.227,0,0.451,0,0.678,0
			c1.113,0.016,1.686,0.572,3.047,0.339c0.738-0.062,1.076,0.277,1.016,1.017c-1.023,0.216-4.408,0.213-5.078-1.017
			C318.287,70.265,318.48,70.233,318.418,69.944z"/>
		<path fill-rule="evenodd" clip-rule="evenodd" fill="#EAC11D" d="M343.473,70.961c17.113,12.114,30.49,27.966,38.934,48.753
			c3.088,9.439,5.84,19.213,5.756,31.824c0,0.34,0,0.678,0,1.018c0.074,15.985-3.826,27.997-7.447,40.288
			c-10.07,26.156-27.984,44.471-53.494,55.188c-19.822,8.25-53.271,11.039-74.144,1.691c0.287-0.992,1.09,0.203,1.693,0
			c9.234,2.729,19.545,4.379,31.145,4.74c49.433-2.254,76.765-26.611,93.444-61.619c3.1-10.443,6.256-20.828,7.449-33.179
			c0.953-44.854-20.277-67.525-44.014-87.689C342.826,71.444,342.75,70.803,343.473,70.961z"/>
		<path fill-rule="evenodd" clip-rule="evenodd" fill="#DC4527" d="M191.797,129.532c0.256,2.496,1.096-1.35,1.016-2.369
			c0.552-1.143,0.729-2.656,1.016-4.062c1.228-2.16,1.686-5.086,3.048-7.111c2.057-4.264,4.652-9.791,7.448-12.188
			c-3.781,10.889-9.283,20.059-10.496,33.518c-1.661,13.66,0.113,28.738,3.386,39.612c5.891,23.678,17.37,41.766,35.889,52.816
			c3.355,0.143,5.961,1.035,8.463,2.031c1.674,1.6,2.448,4.098,3.387,6.434c2.519-0.078,4.646-0.545,7.447-0.34
			c10.074,4.711,16.64,12.93,32.5,11.85c3.879,1.201,8.143,2.258,12.865,1.693c3.018-0.934,5.458-2.441,7.788-4.062
			c33.279-4.189,51-23.936,65.004-47.398c14.488-22.242,14.916-66.462,2.371-91.413c16.1,17.867,15.729,59.495,5.754,83.964
			c-17.932,37.426-49.461,64.668-106.983,60.266c-6.09-1.359-12.488-2.41-17.944-4.402c-21.393,6.369-15.896,39.629-28.777,54.51
			c-7.633-3.428-14.752-7.369-22.007-11.174c2.317-6.824,5.395-12.889,8.803-18.621c0-0.113,0-0.227,0-0.338
			c3.856-4.834,7.403-9.977,12.188-13.881c4.259-4.543,8.427-9.178,8.802-17.605c0-0.113,0-0.227,0-0.34
			c0.664-0.465,0.184-2.074,0.678-2.707c-3.713-7.461-11.226-11.121-16.251-17.268c-5.692-5.594-10.41-12.16-14.559-19.299
			c-8.067-14.389-12.637-32.277-12.526-54.847c0.531-5.113,1.262-10.025,1.692-15.236c-0.075-0.262-0.009-0.668-0.338-0.676
			C191.517,130.38,191.338,129.638,191.797,129.532z"/>
		<path fill-rule="evenodd" clip-rule="evenodd" d="M184.011,118.698c1.04-1.328,1.296-3.443,2.031-5.078
			c-0.733,4.572-2.876,10.666-4.401,15.574C181.966,125.231,183.512,122.487,184.011,118.698z"/>
		<path fill-rule="evenodd" clip-rule="evenodd" d="M180.963,131.901c0.38,0.035,0.527-0.492,0.678,0
			c-0.616,2.771-0.942,5.83-1.017,9.143c0,0.225,0,0.451,0,0.678c-0.786,2.033-0.115,5.525-0.338,8.125
			c-1.71-0.289,0.446-2.432-0.677-3.047C180.11,141.884,180.191,136.548,180.963,131.901z"/>
		<path fill-rule="evenodd" clip-rule="evenodd" d="M189.428,145.444c0.563,2.488,0.563,7.332,0,9.818
			C189.428,151.991,189.428,148.718,189.428,145.444z"/>
		<path fill-rule="evenodd" clip-rule="evenodd" d="M394.256,145.784c0.533,2.965,0.654,6.344,0.678,9.818
			C394.301,152.737,394.217,149.321,394.256,145.784z"/>
		<path fill-rule="evenodd" clip-rule="evenodd" d="M187.734,147.476c0,2.822,0,5.643,0,8.465
			C187.171,153.903,187.171,149.513,187.734,147.476z"/>
		<path fill-rule="evenodd" clip-rule="evenodd" d="M180.624,156.618c0.068,3.316,0.294,6.477,1.017,9.141
			c0.84,8.302,2.934,15.349,5.417,22.007c0,0.113,0,0.227,0,0.34c2.05,6.188,4.295,12.182,7.448,17.266
			c0.684,2.025,1.658,3.76,2.708,5.418c2.38,4.166,4.588,8.504,7.787,11.85c0,0.111,0,0.227,0,0.338
			c3.101,4.348,6.356,8.541,10.157,12.188c-0.72,1.023-1.261-0.969-2.031-1.014c-17.899-20.924-31.569-46.076-33.518-82.95
			C181.103,148.497,179.6,155.673,180.624,156.618z"/>
		<path fill-rule="evenodd" clip-rule="evenodd" d="M394.934,157.972c-0.006,3.832,0.156,7.832-0.678,10.835
			C394.342,165.054,394.408,161.284,394.934,157.972z"/>
		<path fill-rule="evenodd" clip-rule="evenodd" d="M276.437,259.541c3.949,0,7.9,0,11.85,0
			C285.122,260.105,279.601,260.105,276.437,259.541z"/>
		<path fill-rule="evenodd" clip-rule="evenodd" d="M250.03,258.188c-4.979,6.533-5.664,17.359-7.787,26.746
			c-2.416,8.984-6.117,16.682-11.173,23.023c-11.972-5.973-23.665-12.223-34.872-18.961c5.553-18.484,16.092-31.984,29.455-42.658
			c-27.612-23.787-49.071-57.168-46.044-109.356c6.424-45.715,35.061-69.218,70.082-86.335c7.763-6.231,15.601-12.388,26.407-15.574
			c0.547,0.095,0.584-0.32,1.016-0.339c23.268-6.677,42.872,7.562,53.831,19.977c23.891,11.207,41.641,28.555,52.816,52.477
			c12.256,20.578,15.879,61.323,5.416,86.675c-9.24,25.857-26.395,43.801-49.77,55.523C317,260.793,280.817,264.219,250.03,258.188z
			 M303.859,36.088c-6.272-2.115-15.216-3.098-23.021-1.693c-0.885,0.132-1.859,0.174-2.371,0.678
			c-15.088,3.08-22.586,13.752-35.209,19.299c-1.096,0.822-2.876,0.961-3.725,2.031c-2.486,1.351-4.705,2.969-7.448,4.063
			c-0.112,0-0.226,0-0.339,0c-0.651,0.814-1.811,1.123-2.369,2.031c-4.117,2.768-8.073,5.695-12.188,8.464
			c-3.586,3.186-7.351,6.192-10.495,9.817c-7.755,8.836-14.81,18.369-19.637,30.133c-1.526,2.086-2.1,5.123-3.047,7.787
			c-0.499,3.789-2.045,6.533-2.37,10.496c-0.334,0.795-0.595,1.662-0.678,2.707c-0.771,4.646-0.853,9.982-1.354,14.898
			c-0.577,1.602-0.055,2.609,0,4.4c1.948,36.874,15.618,62.026,33.518,82.95c1.89,2.172,3.921,4.203,6.094,6.094
			c2.413,1.988,5.295,3.508,7.11,6.094c-1.473,1.35-2.952,2.691-4.74,3.725c-3.148,2.832-6.157,5.805-8.803,9.141
			c-6.548,8.688-12.362,18.107-16.251,29.455c11.098,6.508,22.699,12.512,34.194,18.621c12.112-10.91,9.992-36.053,19.299-49.77
			c5.463,1.197,11.799,1.52,17.605,2.371c10.773,1.156,25.26,1.143,35.208-0.678c52.324-8.277,83.811-37.398,91.412-90.396
			c0.834-3.003,0.672-7.003,0.678-10.835c0-0.789,0-1.58,0-2.369c-0.023-3.475-0.145-6.854-0.678-9.818
			c-5.867-43.902-27.67-71.867-60.264-89.043c-5.283-2.619-8.412-7.389-12.865-10.835c-3.197-1.881-5.768-4.39-9.141-6.094
			C309.68,38.167,307.02,36.877,303.859,36.088z"/>
		<path fill-rule="evenodd" clip-rule="evenodd" d="M303.859,36.088c3.16,0.789,5.82,2.079,8.127,3.725
			c-0.848-0.281-1.33-0.928-2.371-1.016c-0.41,0.071-0.209,0.375,0,0.677c-3.725-1.807-7.77-3.29-12.526-4.063
			c0-0.112,0-0.226,0-0.338c3.527,0.086,6.618,2.406,9.479,2.031C305.625,36.806,304.508,36.681,303.859,36.088z"/>
		<path fill-rule="evenodd" clip-rule="evenodd" d="M309.955,39.474c4.518,2.254,8.479,5.063,12.188,8.125
			c0.16-1.062-0.912-0.895-1.016-1.692c4.453,3.446,7.582,8.216,12.865,10.835c-4.928-1.28-6.539-5.876-10.496-8.127
			c3.021,4.202,7.088,7.359,11.85,9.819c-10.236-4.436-14.828-14.513-25.391-18.621C309.955,39.699,309.955,39.586,309.955,39.474z"
			/>
		<path fill-rule="evenodd" clip-rule="evenodd" fill="#B9BEC6" d="M335.346,58.434c3.117,1.06,5.496,2.854,8.127,4.401
			c3.529,2.789,7.416,5.223,10.834,8.126c0.111,0,0.225,0,0.338,0c7.166,6.603,13.666,13.87,19.637,21.667
			c0.004,0.674,0.924,0.432,0.678,1.355c8.254,12.512,14.223,27.307,17.604,44.689c0,0.113,0,0.227,0,0.34
			c1.479,10.621,1.703,22.938,0.34,33.856c0,0.113,0,0.227,0,0.338c-5.264,31.641-20.521,53.287-42.32,68.391
			c-0.113,0-0.227,0-0.34,0c-2.801,1.713-5.826,3.201-8.463,5.078c-1.119,0.688-2.168,1.445-3.725,1.693
			c-3.773,1.643-7.77,3.064-11.512,4.74c-1.93,0.666-3.664,1.527-6.094,1.693c-5.799,1.424-11.857,2.588-17.943,3.723
			c-0.227,0-0.451,0-0.678,0c-3.698,0.592-8.056,0.521-11.851,1.016c-0.562,0-1.127,0-1.691,0c-3.949,0-7.9,0-11.85,0
			c-5.441,0.025-10.626-0.205-15.234-1.016c-3.748-0.877-8.176-1.078-11.85-2.031c-4.498,5.658-6.256,14.059-7.448,23.023
			c-0.06,1.971-0.496,3.566-1.016,5.078c-2.726,8.107-5.387,16.281-10.834,21.668c-1.401-0.855-2.635-1.879-4.401-2.369
			c3.871-7.189,7.982-14.139,9.48-23.701c0-0.111,0-0.225,0-0.338c3.119-12.115,5.312-25.156,16.25-29.455
			c13.394,6.016,34.211,7.891,52.476,5.078c16.994-2.98,31.209-8.74,42.998-16.928c23.85-16.213,37.893-42.234,42.32-77.87
			c0.035-5.992,0.203-10.09,0-15.912c-2.311-22.18-10.43-38.551-21.33-52.141c-10.938-13.438-23.482-25.27-41.305-31.824
			c-5.176-6.788-11.658-12.267-18.959-16.929c-21.616-12.012-46.207,3.347-56.877,15.913c-15.178,5.588-27.404,14.126-37.58,24.715
			c0,0.113,0,0.227,0,0.338c-14.191,14.588-23.822,33.734-26.408,59.928c-0.889,47.95,19.447,74.675,45.367,95.813
			c-0.252,3.586-0.856,6.818-2.37,9.141c-3.727,7.785-11.275,11.748-15.573,18.961c-5.122,6.275-8.722,14.074-11.85,22.344
			c-1.837-0.307-2.802-1.486-4.401-2.031c-0.385-3.242,1.849-6.701,3.047-9.479c1.842-3.238,3.637-6.52,5.417-9.818
			c0.477-1.555,1.571-2.492,2.37-3.725c5.561-7.305,11.752-13.979,18.959-19.637c-8.256-7.094-16.143-14.555-22.684-23.361
			c0-0.111,0-0.227,0-0.338c-2.821-3.725-5.039-8.053-7.787-11.85c-1.05-1.658-2.024-3.393-2.708-5.418
			c-2.734-5.504-4.992-11.484-7.448-17.266c0-0.113,0-0.227,0-0.34c-2.068-7.072-4.007-14.275-5.417-22.007
			c-0.723-2.664-0.948-5.824-1.017-9.141c0-4.967,0-9.932,0-14.896c0-0.227,0-0.453,0-0.678
			c1.706-16.014,5.996-29.441,12.527-40.629c0-0.113,0-0.225,0-0.338c8.325-13.568,19.261-24.527,31.825-33.856
			c0.112,0,0.226,0,0.339,0c3.42-2.561,7.281-4.681,10.834-7.11c0.854-0.498,1.512-1.195,2.708-1.354
			c17.792-7.262,26.858-23.25,51.798-23.362c2.447-0.077,4.613,0.127,6.434,0.678c0,0.112,0,0.226,0,0.338
			c4.757,0.773,8.802,2.257,12.526,4.063c0.113,0,0.227,0,0.34,0c0,0.112,0,0.226,0,0.339
			C320.518,43.921,325.109,53.998,335.346,58.434z"/>
		<path fill-rule="evenodd" clip-rule="evenodd" d="M343.473,62.835c3.943,2.377,7.676,4.963,10.834,8.126
			C350.889,68.058,347.002,65.624,343.473,62.835z"/>
		<path fill-rule="evenodd" clip-rule="evenodd" d="M354.645,70.961c7.477,6.291,13.98,13.556,19.637,21.667
			C368.311,84.831,361.811,77.563,354.645,70.961z"/>
		<path fill-rule="evenodd" clip-rule="evenodd" d="M374.959,93.983c8.568,12.197,14.732,26.797,17.604,44.689
			C389.182,121.29,383.213,106.495,374.959,93.983z"/>
		<path fill-rule="evenodd" clip-rule="evenodd" d="M392.562,139.013c2.006,9.748,2.432,23.854,0.34,33.856
			C394.266,161.95,394.041,149.634,392.562,139.013z"/>
		<path fill-rule="evenodd" clip-rule="evenodd" d="M392.902,173.207c-4.758,32.146-20.297,53.512-42.32,68.391
			C372.381,226.494,387.639,204.848,392.902,173.207z"/>
		<path fill-rule="evenodd" clip-rule="evenodd" d="M341.779,246.676c2.637-1.877,5.662-3.365,8.463-5.078
			C347.82,243.689,344.787,245.17,341.779,246.676z"/>
		<path fill-rule="evenodd" clip-rule="evenodd" d="M326.543,253.109c3.742-1.676,7.738-3.098,11.512-4.74
			C334.713,250.445,330.684,251.832,326.543,253.109z"/>
		<path fill-rule="evenodd" clip-rule="evenodd" d="M302.506,258.525c6.086-1.135,12.145-2.299,17.943-3.723
			C315.182,256.756,309.121,257.92,302.506,258.525z"/>
		<path fill-rule="evenodd" clip-rule="evenodd" d="M301.828,258.525c-0.958,0.734-3.216,0.17-4.063,1.016
			c2.01,0.203,3.018-0.594,5.079-0.338c-9.948,1.82-24.435,1.834-35.208,0.678c9.25,0.41,19.555,0.561,28.775,0
			c-1.473-0.785-4.396-0.117-6.434-0.34C293.772,259.047,298.13,259.117,301.828,258.525z"/>
		<path fill-rule="evenodd" clip-rule="evenodd" d="M241.904,279.518c1.192-8.965,2.95-17.365,7.448-23.023
			c3.674,0.953,8.102,1.154,11.85,2.031c-4.096-0.305-8.139-0.662-11.511-1.691C244.73,262.029,243.948,271.404,241.904,279.518z"/>
		<path fill-rule="evenodd" clip-rule="evenodd" d="M240.889,284.596c-1.767,8.953-5.769,15.674-10.157,22.006
			c-2.082-0.738-3.897-1.744-5.416-3.047c4.326-6.732,7.451-14.668,9.818-23.361c-1.498,9.562-5.609,16.512-9.48,23.701
			c1.767,0.49,3,1.514,4.401,2.369C235.502,300.877,238.163,292.703,240.889,284.596z"/>
		<path fill-rule="evenodd" clip-rule="evenodd" d="M213.127,84.503c10.176-10.589,22.402-19.127,37.58-24.715
			c10.67-12.566,35.261-27.925,56.877-15.913c7.301,4.662,13.783,10.141,18.959,16.929c17.822,6.555,30.367,18.387,41.305,31.824
			c10.9,13.59,19.02,29.961,21.33,52.141c0.203,5.822,0.035,9.92,0,15.912c-4.428,35.636-18.471,61.657-42.32,77.87
			c-11.789,8.188-26.004,13.947-42.998,16.928c-18.265,2.812-39.082,0.938-52.476-5.078c-10.938,4.299-13.131,17.34-16.25,29.455
			c1.668-8.715,3.527-17.236,7.786-23.361c3.153-2.664,7.242-7.795,11.851-6.771c-0.604,0.203-1.406-0.992-1.693,0
			c20.873,9.348,54.321,6.559,74.144-1.691c25.59-9.057,44.973-29.061,53.494-55.188c3.621-12.291,7.521-24.303,7.447-40.288
			c1.523,0.465-0.809,5.285,0.338,6.432c-0.703-0.703,1.246-11.287,0.34-13.203c-1.006,1.139,0.326,4.615-0.678,5.754
			c0.084-12.611-2.668-22.385-5.756-31.824c0.705,0.379,0.717,0.365,0.34-0.338c-8.77-22.605-23.559-39.189-42.66-51.462
			c-4.414-2.357-8.104-5.438-13.543-6.772c-3.723-4.402-7.73-8.52-12.188-12.188c0.408,1.852,4.186,3.26,5.416,5.418
			c1.469,1.561,5.131,4.22,4.402,5.756c-0.395,0.055-0.604-0.075-0.678-0.339c0.395,0.055,0.602-0.074,0.678-0.339
			c-7.904-8.687-16.416-16.764-30.81-18.96c-19.715-0.419-29.689,8.904-39.949,17.944c0.01,0.329,0.415,0.263,0.678,0.339
			c0.062,0.288-0.133,0.319-0.339,0.338c-1.11-2.391,4.136-4.188,5.417-6.433c-3.119,1.847-5.452,4.479-7.787,7.11
			c-5.218,1.44-9.207,4.109-13.542,6.433c-9.593,4.628-17.306,11.134-24.377,18.282C213.353,84.503,213.239,84.503,213.127,84.503z"
			/>
		<path fill-rule="evenodd" clip-rule="evenodd" d="M189.766,130.888c-0.44,4.523-1.534,8.396-1.692,13.203
			c-1.697,2.992-1.591,12.225,0,15.234c0.748,10.991,3.279,20.194,6.094,29.118c-0.315-0.191-0.513-0.941-0.677-0.338
			c7.034,18.695,17.294,34.168,31.486,45.705c-0.229-0.785-1.126-0.906-1.354-1.693c2.92,2.16,5.562,4.596,8.464,6.771
			c-0.362,1.266,0.841,0.965,0.677,2.031c0,0.113,0,0.227,0,0.34c-1.986,15.506-15.306,19.678-20.99,31.486c0,0.111,0,0.225,0,0.338
			c-4.458,4.684-6.136,12.148-9.479,17.943c3.128-8.27,6.728-16.068,11.85-22.344c4.298-7.213,11.847-11.176,15.573-18.961
			c1.514-2.322,2.118-5.555,2.37-9.141c-25.92-21.139-46.256-47.863-45.367-95.813c2.586-26.193,12.217-45.34,26.408-59.928
			c-6.886,7.447-12.701,15.965-17.267,25.732c-0.016,0.865,0.251,0.412,0.677,0.338c-0.585,0.205,0.026,1.605-0.677,1.693
			c0.028-0.48,0.056-0.959-0.339-1.016C193.245,117.438,189.979,124.103,189.766,130.888z"/>
		<path fill-rule="evenodd" clip-rule="evenodd" d="M206.355,269.699c-1.78,3.299-3.575,6.58-5.417,9.818
			c1.313-3.652,3.432-6.5,5.078-9.818C206.13,269.699,206.242,269.699,206.355,269.699z"/>
		<path fill-rule="evenodd" clip-rule="evenodd" d="M208.726,265.975c5.123-7.629,11.443-14.061,18.621-19.637
			c-3.307-3.691-7.746-6.248-11.173-9.818c-0.188,1.1,2.392,2.342,3.047,3.725c-2.173-1.891-4.204-3.922-6.094-6.094
			c0.771,0.045,1.312,2.037,2.031,1.014c-3.801-3.646-7.057-7.84-10.157-12.188c6.541,8.807,14.428,16.268,22.684,23.361
			C220.478,251.996,214.286,258.67,208.726,265.975z"/>
		<path fill-rule="evenodd" clip-rule="evenodd" d="M197.214,210.789c2.748,3.797,4.966,8.125,7.787,11.85
			C201.802,219.293,199.594,214.955,197.214,210.789z"/>
		<path fill-rule="evenodd" clip-rule="evenodd" d="M187.058,188.105c2.456,5.781,4.714,11.762,7.448,17.266
			C191.353,200.287,189.107,194.293,187.058,188.105z"/>
		<path fill-rule="evenodd" clip-rule="evenodd" d="M181.641,165.759c1.41,7.731,3.349,14.935,5.417,22.007
			C184.574,181.107,182.48,174.061,181.641,165.759z"/>
		<path fill-rule="evenodd" clip-rule="evenodd" d="M193.151,100.415c-6.531,11.188-10.821,24.615-12.527,40.629
			c0.074-3.312,0.4-6.371,1.017-9.143c-0.15-0.492-0.298,0.035-0.678,0c0.083-1.045,0.344-1.912,0.678-2.707
			c1.525-4.908,3.668-11.002,4.401-15.574c-0.735,1.635-0.991,3.75-2.031,5.078c0.947-2.664,1.521-5.701,3.047-7.787
			c2.023-2.041,3.694-7.363,5.755-10.496C192.926,100.415,193.039,100.415,193.151,100.415z"/>
		<path fill-rule="evenodd" clip-rule="evenodd" d="M224.977,66.221c-12.564,9.329-23.5,20.288-31.825,33.856
			C201.16,86.192,212.061,75.198,224.977,66.221z"/>
		<path fill-rule="evenodd" clip-rule="evenodd" d="M225.315,66.221c1.31-1.511,3.209-2.433,4.739-3.724
			c-0.149-0.492-0.297,0.033-0.677,0c0.559-0.908,1.718-1.217,2.369-2.031c0.113,0,0.227,0,0.339,0
			c-0.081,0.482-0.558,0.57-0.677,1.016c1.912-0.459,2.99-1.75,4.74-2.371C232.597,61.54,228.735,63.66,225.315,66.221z"/>
		<path fill-rule="evenodd" clip-rule="evenodd" d="M238.857,57.757c0.21-1.031,1.821-0.662,2.031-1.693
			c-0.708-0.143-0.896,0.232-1.354,0.339c0.849-1.07,2.629-1.209,3.725-2.031c-0.211,1.03-1.821,0.661-2.031,1.692
			c14.06-5.577,21.744-17.529,38.256-20.653c-0.055-0.396-0.617-0.285-1.016-0.338c0.512-0.504,1.486-0.546,2.371-0.678
			c-0.057,0.395-0.535,0.368-1.016,0.339c1.713,0.655,6.971-0.896,10.832-0.339C265.716,34.507,256.649,50.495,238.857,57.757z"/>
		<path fill-rule="evenodd" clip-rule="evenodd" d="M243.259,54.371c12.623-5.547,20.121-16.219,35.209-19.299
			c0.398,0.053,0.961-0.059,1.016,0.338c-16.512,3.124-24.196,15.076-38.256,20.653C241.438,55.032,243.048,55.401,243.259,54.371z"
			/>
		<path fill-rule="evenodd" clip-rule="evenodd" d="M309.615,39.474c-0.209-0.302-0.41-0.605,0-0.677
			c1.041,0.088,1.523,0.734,2.371,1.016c3.373,1.704,5.943,4.213,9.141,6.094c0.104,0.798,1.176,0.63,1.016,1.692
			c-3.709-3.062-7.67-5.871-12.188-8.125C309.842,39.474,309.729,39.474,309.615,39.474z"/>
		<path fill-rule="evenodd" clip-rule="evenodd" fill="#FFFFFF" d="M254.093,58.772c-0.263-0.076-0.668-0.01-0.678-0.339
			c10.26-9.04,20.234-18.363,39.949-17.944c14.394,2.196,22.905,10.273,30.81,18.96c-0.076,0.265-0.283,0.394-0.678,0.339
			c-3.268-0.57-6.334-1.34-9.48-2.031c-10.516-2.326-25.384-4.021-37.917-1.354c-1.484,0.356-1.111-1.146-2.369-1.016
			c-0.635,0.494-2.244,0.013-2.709,0.677c-0.113,0-0.225,0-0.338,0c-3.26,0.352-6.206,1.018-9.142,1.693
			C259.388,58.424,256.617,58.476,254.093,58.772z"/>
		<path fill-rule="evenodd" clip-rule="evenodd" d="M271.021,56.063c0.465-0.664,2.074-0.183,2.709-0.677
			c1.258-0.13,0.885,1.372,2.369,1.016c12.533-2.666,27.401-0.972,37.917,1.354c-4.004,0.137-8.152-2.705-11.51-1.016
			c1.227,0.805,3.062,0.999,4.74,1.354c0,0.113,0,0.227,0,0.339c-9.731-2.915-24.048-3.021-34.532-0.677
			c0.625-0.502,1.607-0.648,2.707-0.678C274.802,55.19,273.097,56.038,271.021,56.063z"/>
		<path fill-rule="evenodd" clip-rule="evenodd" d="M270.683,56.063c-0.846,1.186-3.895,0.169-4.74,1.354
			c-0.492,0.524-1.732,0.298-2.709,0.339c-0.563,0-1.128,0-1.692,0C264.477,57.081,267.423,56.415,270.683,56.063z"/>
		<path fill-rule="evenodd" clip-rule="evenodd" d="M251.384,59.788c2.335-2.631,4.668-5.264,7.787-7.11
			c-1.281,2.245-6.527,4.042-5.417,6.433c0.206-0.019,0.401-0.05,0.339-0.338c2.524-0.297,5.295-0.349,7.448-1.016
			c0.564,0,1.129,0,1.692,0c-2.07,1.314-6.21,0.561-8.125,2.031c5.265,0.73,10.757-1.191,14.896-2.709
			c-1.703-0.235-2.359,0.575-4.062,0.339c0.846-1.186,3.895-0.169,4.74-1.354c0.113,0,0.225,0,0.338,0
			c2.076-0.025,3.781-0.873,4.4,1.016c-1.1,0.029-2.082,0.176-2.707,0.678c-0.113,0-0.227,0-0.34,0
			c-5.807,1.188-10.844,3.148-13.541,7.448c-0.373,1.519,1.95,2.09,1.016,3.047c-0.699-1.609-1.814-2.442-1.016-4.739
			c1.289-1.193,2.676-2.291,4.062-3.386c-1.857,0.175-3.755,0.308-4.062,2.031c-1.027-0.665-2.572-0.814-4.401-0.677
			c0,0.225,0,0.451,0,0.677C253.253,61.53,253.295,59.684,251.384,59.788z"/>
		<path fill-rule="evenodd" clip-rule="evenodd" d="M323.496,59.788c0.074,0.264,0.283,0.394,0.678,0.339
			c0.729-1.536-2.934-4.195-4.402-5.756c-1.23-2.158-5.008-3.566-5.416-5.418c4.457,3.669,8.465,7.786,12.188,12.188
			c-1.326,0.253-1.82,1.34-2.369,2.371c-0.113,0-0.227,0-0.34,0c0-0.113,0-0.227,0-0.339c-2.402-1.321-5.855-1.593-8.463-2.708
			c1.514,1.984,4.148,2.85,5.416,5.078c-0.271-0.18-0.549-0.354-1.016-0.339c-3.424-2.896-7.037-5.603-12.188-6.771
			c-0.113,0-0.225,0-0.338,0c0-0.112,0-0.226,0-0.339c-1.678-0.354-3.514-0.549-4.74-1.354c3.357-1.689,7.506,1.152,11.51,1.016
			C317.162,58.448,320.229,59.218,323.496,59.788z M307.922,57.757c2.914,0.697,5.832,1.392,8.465,2.37
			c2.945-0.265,6.521,3.196,8.125,1.015C319.848,59.374,313.357,57.628,307.922,57.757z"/>
		<path fill-rule="evenodd" clip-rule="evenodd" d="M307.584,58.434c5.15,1.169,8.764,3.876,12.188,6.771c0,0.226,0,0.452,0,0.677
			C316.596,62.513,312.328,60.235,307.584,58.434z"/>
		<path fill-rule="evenodd" clip-rule="evenodd" fill="#6D6E71" d="M319.771,66.56c1.113,1.355-1.607,1.764-1.354,3.385
			c0.062,0.289-0.131,0.32-0.338,0.339c0.67,1.229,4.055,1.232,5.078,1.017c0.287-0.062,0.318,0.131,0.338,0.338
			s0.051,0.401,0.338,0.338c1.791,0.098,1.791-1.594,3.049-2.031c1.492,1.083,2.74,1.781,4.062,0
			c1.471,0.449,1.76,2.077,3.047,2.709c2.357-2.197,3.594-0.063,6.771-0.678c11.498,8.025,20.98,18.066,28.777,29.795
			c5.201,13.758,10.59,27.33,11.85,45.029c1.078,31.235-9.291,53.491-23.361,70.083c-12.664,14.934-29.205,27.326-52.477,29.793
			c-2.811,1.365-5.138,3.215-8.464,4.062c-1.58,0-3.16,0-4.74,0c-3.23-0.605-6.121-1.553-9.48-2.031
			c-13.086,0.562-19.729-5.322-27.082-10.494c-1.627-0.406-3.025-1.039-4.74-1.355c-2.295-0.262-3.623,0.439-5.418,0.678
			c-0.793-1.35-1.091-3.197-2.031-4.402c-0.35-0.891-1.342-1.139-1.692-2.029c-2.604-1.234-5.761-1.914-9.142-2.371
			c-24.707-16.033-37.795-43.686-38.935-83.288c0.286-19.238,8.185-30.863,12.527-46.045c7.673-11.061,16.961-20.506,27.763-28.438
			c4.667,0.507,6.78-1.879,9.818,0.339c1.275-0.529,2.179-1.433,2.708-2.709c2.153,1.532,3.201,1.248,5.079-0.339
			c0.477,1.113,1.771,3.179,3.385,2.031c-0.062-0.288,0.133-0.319,0.339-0.339c1.978-0.053,4.216,0.154,5.078-1.016
			c-0.274-0.064-0.337-0.34-0.677-0.338c0-0.113,0-0.226,0-0.339c0.935-0.957-1.389-1.528-1.016-3.047
			c2.697-4.3,7.734-6.26,13.541-7.448c-5.073,1.922-10.957,3.035-13.203,7.787c6.693,15.922,39.627,22.057,54.507,9.141
			C315.996,72.265,318.148,69.675,319.771,66.56z M296.073,82.812c4.908-0.848,9.604-1.906,13.204-4.063
			c1.783-1.151,3.84-2.028,5.078-3.725c1.449-0.734,4.322-3.14,3.047-4.401c-2.625,4.71-7.613,7.058-12.527,9.48
			c-17.312,5.566-36.11-1.002-44.35-10.834C267.778,78.38,278.786,83.733,296.073,82.812z"/>
		<path fill-rule="evenodd" clip-rule="evenodd" d="M255.108,70.283c-1.613,1.147-2.908-0.918-3.385-2.031
			c-1.878,1.587-2.926,1.871-5.079,0.339c-0.529,1.276-1.433,2.18-2.708,2.709c-3.038-2.218-5.151,0.168-9.818-0.339
			c-10.802,7.933-20.09,17.378-27.763,28.438c-4.343,15.182-12.241,26.807-12.527,46.045c1.14,39.603,14.228,67.255,38.935,83.288
			c3.381,0.457,6.537,1.137,9.142,2.371c0.351,0.891,1.343,1.139,1.692,2.029c0.94,1.205,1.238,3.053,2.031,4.402
			c1.795-0.238,3.123-0.939,5.418-0.678c1.715,0.316,3.113,0.949,4.74,1.355c7.354,5.172,13.996,11.057,27.082,10.494
			c3.359,0.479,6.25,1.426,9.48,2.031c1.58,0,3.16,0,4.74,0c3.326-0.848,5.653-2.697,8.464-4.062
			c23.271-2.467,39.812-14.859,52.477-29.793c14.07-16.592,24.439-38.848,23.361-70.083c-1.26-17.699-6.648-31.271-11.85-45.029
			c-7.797-11.729-17.279-21.77-28.777-29.795c-3.178,0.614-4.414-1.52-6.771,0.678c-1.287-0.632-1.576-2.26-3.047-2.709
			c-1.322,1.781-2.57,1.083-4.062,0c-1.258,0.438-1.258,2.129-3.049,2.031c-0.287,0.063-0.318-0.131-0.338-0.338
			c1.924,0.005,2.002-1.834,3.387-2.369c2.475,2.4,5.637-1.053,7.109,3.047c2.855-2.134,5.131-0.494,8.803-0.34
			c23.736,20.164,44.967,42.836,44.014,87.689c-1.193,12.351-4.35,22.735-7.449,33.179c-16.68,35.008-44.012,59.365-93.444,61.619
			c-11.6-0.361-21.91-2.012-31.145-4.74c-4.608-1.023-8.697,4.107-11.851,6.771c-4.259,6.125-6.118,14.646-7.786,23.361
			c0,0.113,0,0.227,0,0.338c-2.367,8.693-5.492,16.629-9.818,23.361c1.519,1.303,3.334,2.309,5.416,3.047
			c4.389-6.332,8.391-13.053,10.157-22.006c0.52-1.512,0.956-3.107,1.016-5.078c2.044-8.113,2.826-17.488,7.787-22.684
			c3.372,1.029,7.415,1.387,11.511,1.691c4.608,0.811,9.793,1.041,15.234,1.016c3.164,0.564,8.686,0.564,11.85,0
			c0.564,0,1.129,0,1.691,0c2.037,0.223,4.961-0.445,6.434,0.34c-9.221,0.561-19.525,0.41-28.775,0
			c-5.807-0.852-12.143-1.174-17.605-2.371c-9.307,13.717-7.187,38.859-19.299,49.77c-11.495-6.109-23.097-12.113-34.194-18.621
			c3.889-11.348,9.703-20.768,16.251-29.455c3.01-2.973,5.891-6.072,8.803-9.141c1.788-1.033,3.268-2.375,4.74-3.725
			c-1.815-2.586-4.697-4.105-7.11-6.094c-0.655-1.383-3.234-2.625-3.047-3.725c3.427,3.57,7.866,6.127,11.173,9.818
			c-7.178,5.576-13.498,12.008-18.621,19.637c-0.799,1.232-1.894,2.17-2.37,3.725c-0.113,0-0.226,0-0.339,0
			c-1.646,3.318-3.765,6.166-5.078,9.818c-1.198,2.777-3.432,6.236-3.047,9.479c1.6,0.545,2.564,1.725,4.401,2.031
			c3.344-5.795,5.021-13.26,9.479-17.943c-3.408,5.732-6.485,11.797-8.803,18.621c7.255,3.805,14.374,7.746,22.007,11.174
			c12.882-14.881,7.385-48.141,28.777-54.51c5.456,1.992,11.854,3.043,17.944,4.402c57.522,4.402,89.052-22.84,106.983-60.266
			c9.975-24.469,10.346-66.097-5.754-83.964c12.545,24.951,12.117,69.171-2.371,91.413c-14.004,23.463-31.725,43.209-65.004,47.398
			c-2.33,1.621-4.771,3.129-7.788,4.062c-4.723,0.564-8.986-0.492-12.865-1.693c-15.86,1.08-22.426-7.139-32.5-11.85
			c-2.802-0.205-4.929,0.262-7.447,0.34c-0.938-2.336-1.713-4.834-3.387-6.434c-2.502-0.996-5.107-1.889-8.463-2.031
			c-18.519-11.051-29.998-29.139-35.889-52.816c-3.272-10.874-5.047-25.952-3.386-39.612c1.213-13.459,6.715-22.629,10.496-33.518
			c-2.796,2.396-5.392,7.924-7.448,12.188c-1.362,2.025-1.82,4.951-3.048,7.111c-0.286,1.406-0.464,2.92-1.016,4.062
			c0.08,1.02-0.76,4.865-1.016,2.369c6.68-27.289,22.821-45.117,42.321-59.588c4.284,1.807,6.796-1.58,10.156,0.678
			c1.588-0.105,1.369-2.016,2.709-2.37c1.883,1.55,2.763,1.175,4.4-0.338C253.081,68.249,252.636,70.725,255.108,70.283z"/>
		<path fill-rule="evenodd" clip-rule="evenodd" d="M340.086,67.914c19.102,12.272,33.891,28.856,42.66,51.462
			c0.377,0.703,0.365,0.717-0.34,0.338c-8.443-20.787-21.82-36.639-38.934-48.753c-1.086-0.946-2.281-1.782-3.387-2.709
			C340.086,68.14,340.086,68.026,340.086,67.914z"/>
		<path fill-rule="evenodd" clip-rule="evenodd" d="M229.378,62.497c0.38,0.033,0.527-0.492,0.677,0
			c-1.53,1.291-3.43,2.213-4.739,3.724c-0.113,0-0.227,0-0.339,0c-12.916,8.978-23.816,19.972-31.825,33.856
			c0,0.113,0,0.225,0,0.338c-0.112,0-0.226,0-0.339,0c-2.061,3.133-3.731,8.455-5.755,10.496
			c4.827-11.764,11.882-21.297,19.637-30.133c3.427-3.343,7.216-6.326,10.495-9.817C221.305,68.192,225.261,65.265,229.378,62.497z"
			/>
		<path fill-rule="evenodd" clip-rule="evenodd" d="M206.694,80.778c3.145-3.625,6.909-6.632,10.495-9.817
			C213.91,74.452,210.121,77.436,206.694,80.778z"/>
		<path fill-rule="evenodd" clip-rule="evenodd" d="M234.118,68.929c-16.183,10.34-28.854,24.189-37.581,41.982
			c-0.426,0.074-0.692,0.527-0.677-0.338c4.565-9.768,10.381-18.285,17.267-25.732c0-0.111,0-0.225,0-0.338c0.112,0,0.226,0,0.338,0
			c7.071-7.148,14.784-13.654,24.377-18.282C236.914,67.438,235.841,68.509,234.118,68.929z"/>
		<path fill-rule="evenodd" clip-rule="evenodd" d="M232.763,241.26c-0.375,8.428-4.543,13.062-8.802,17.605
			c-4.785,3.904-8.332,9.047-12.188,13.881C217.457,260.938,230.776,256.766,232.763,241.26z"/>
		<path fill-rule="evenodd" clip-rule="evenodd" d="M191.459,130.888c0.329,0.008,0.263,0.414,0.338,0.676
			c-0.431,5.211-1.161,10.123-1.692,15.236c-0.11,22.569,4.459,40.458,12.526,54.847c4.148,7.139,8.866,13.705,14.559,19.299
			c5.025,6.146,12.538,9.807,16.251,17.268c-0.494,0.633-0.014,2.242-0.678,2.707c0.164-1.066-1.039-0.766-0.677-2.031
			c0.329-0.008,0.263-0.414,0.339-0.676c-3.796-6.586-10.024-11.041-15.235-16.252c-5.285-5.285-9.92-10.924-13.881-17.605
			c-7.858-13.131-12.75-29.232-13.881-49.093c0.563-2.486,0.563-7.33,0-9.818C190.11,140.599,190.179,135.136,191.459,130.888z"/>
		<path fill-rule="evenodd" clip-rule="evenodd" d="M195.86,112.604c-2.576,5.549-4.365,11.885-6.095,18.283
			c0.214-6.785,3.479-13.449,5.756-19.299C195.916,111.646,195.889,112.124,195.86,112.604z"/>
		<path fill-rule="evenodd" clip-rule="evenodd" d="M179.609,146.8c1.123,0.615-1.033,2.758,0.677,3.047
			c0.223-2.6-0.448-6.092,0.338-8.125c0,4.965,0,9.93,0,14.896c-1.024-0.945,0.479-8.121-1.015-5.418
			C179.555,149.409,179.032,148.401,179.609,146.8z"/>
		<path fill-rule="evenodd" clip-rule="evenodd" d="M380.715,192.844c-8.521,26.127-27.904,46.131-53.494,55.188
			C352.73,237.314,370.645,219,380.715,192.844z"/>
		<path fill-rule="evenodd" clip-rule="evenodd" d="M223.622,232.117c0.229,0.787,1.125,0.908,1.354,1.693
			c-14.192-11.537-24.452-27.01-31.486-45.705c0.164-0.604,0.361,0.146,0.677,0.338
			C201.044,205.943,210.853,220.512,223.622,232.117z"/>
		<path fill-rule="evenodd" clip-rule="evenodd" d="M212.788,259.203c2.646-3.336,5.654-6.309,8.803-9.141
			C218.679,253.131,215.798,256.23,212.788,259.203z"/>
		<path fill-rule="evenodd" clip-rule="evenodd" d="M256.802,66.221c-0.751-0.187-0.482,0.646-1.016,0.677
			c-1.261,0.02-0.977-1.506-1.016-2.708C255.794,64.52,256.472,65.196,256.802,66.221z"/>
		<path fill-rule="evenodd" clip-rule="evenodd" fill="#DC4527" d="M326.543,61.142c5.439,1.334,9.129,4.415,13.543,6.772
			c0,0.112,0,0.226,0,0.338c1.105,0.927,2.301,1.763,3.387,2.709c-0.723-0.158-0.646,0.483-0.678,1.015
			c-3.672-0.154-5.947-1.794-8.803,0.34c-1.473-4.1-4.635-0.646-7.109-3.047c-1.385,0.535-1.463,2.374-3.387,2.369
			c-0.02-0.207-0.051-0.4-0.338-0.338c0.061-0.739-0.277-1.078-1.016-1.017c0-0.112,0-0.226,0-0.339
			c-0.955-0.061-0.424-1.608-1.693-1.354c-0.324,0.579-1.123,0.682-1.354,1.354c-0.227,0-0.451,0-0.678,0
			c-0.254-1.621,2.467-2.029,1.354-3.385c0-0.227,0-0.451,0-0.678c0-0.225,0-0.451,0-0.677c0.467-0.015,0.744,0.159,1.016,0.339
			c0.01,0.329,0.416,0.262,0.678,0.338c0.934-0.646,1.723-1.437,2.369-2.369c0.113,0,0.227,0,0.34,0
			C324.723,62.481,325.217,61.395,326.543,61.142z"/>
		<path fill-rule="evenodd" clip-rule="evenodd" d="M188.073,159.325c-1.591-3.01-1.697-12.242,0-15.234
			c0.237,1.479-0.576,1.906-0.339,3.385c-0.563,2.037-0.563,6.428,0,8.465C187.497,157.419,188.311,157.847,188.073,159.325z"/>
		<path fill-rule="evenodd" clip-rule="evenodd" d="M388.162,151.538c1.004-1.139-0.328-4.615,0.678-5.754
			c0.906,1.916-1.043,12.5-0.34,13.203c-1.146-1.146,1.186-5.967-0.338-6.432C388.162,152.216,388.162,151.878,388.162,151.538z"/>
		<path fill-rule="evenodd" clip-rule="evenodd" fill="#DC4527" d="M251.384,59.788c1.911-0.104,1.869,1.742,3.048,2.37
			c0.819,0.759,1.802,1.356,2.37,2.37c1.01-0.006,1.15-0.881,2.031-1.016c-0.799,2.297,0.316,3.13,1.016,4.739
			c0,0.113,0,0.226,0,0.339c-0.113,0-0.227,0-0.339,0c0-0.113,0-0.226,0-0.339c-1.198,0.184-0.833-1.198-2.031-1.016
			c-0.749,0.268-0.847,1.185-1.354,1.692c-0.416,0.148-0.695,0.434-0.677,1.016c-0.206,0.02-0.401,0.051-0.339,0.339
			c-2.473,0.441-2.027-2.034-3.725-2.369c-1.638,1.513-2.518,1.888-4.4,0.338c-1.34,0.354-1.121,2.265-2.709,2.37
			c-3.36-2.258-5.872,1.129-10.156-0.678c0.406-0.443,0.131-0.531,0-1.016c1.723-0.42,2.796-1.491,3.724-2.708
			C242.177,63.897,246.166,61.229,251.384,59.788z M254.771,64.189c0.039,1.202-0.245,2.728,1.016,2.708
			c0.533-0.03,0.265-0.863,1.016-0.677C256.472,65.196,255.794,64.52,254.771,64.189z"/>
		<path fill-rule="evenodd" clip-rule="evenodd" fill="#B2CEE7" stroke="#000000" d="M272.714,56.678
			c10.484-2.571,24.801-2.455,34.532,0.743c0.113,0,0.225,0,0.338,0c4.744,1.976,9.012,4.474,12.188,8.17c0,0.248,0,0.495,0,0.742
			c-1.623,3.418-3.775,6.259-6.094,8.914c-14.88,14.168-47.813,7.438-54.507-10.027c2.246-5.213,8.13-6.434,13.203-8.542
			C272.487,56.678,272.601,56.678,272.714,56.678z"/>
		<g>
			<text transform="matrix(1 0 0 1 136.4136 22.9077)"><tspan x="0" y="0" font-size="10">Pupil</tspan><tspan x="-10.562" y="21" font-size="10">Cornea</tspan><tspan x="-30.015" y="42" font-size="10">Conjunctiva</tspan><tspan x="8.906" y="84" font-size="10">Iris</tspan><tspan x="0.552" y="105" font-size="10">Lens</tspan><tspan x="-6.67" y="126" font-size="10">Retina</tspan><tspan x="-6.108" y="147" font-size="10">Sclera</tspan><tspan x="-28.896" y="231" font-size="10">Optic nerve</tspan></text>
		</g>
		<g>
			<g>
				<g>
					<polyline fill="none" stroke="#0DB14B" stroke-miterlimit="1" points="164.946,19.93 280.099,19.93 290.655,54.874 					"/>
				</g>
			</g>
		</g>
		<g>
			<g>
				<g>
					<polyline fill="none" stroke="#0DB14B" stroke-miterlimit="1" points="164.946,125.669 231.287,125.669 288.728,70.937 					
						"/>
				</g>
			</g>
		</g>
		<g>
			<g>
				<g>
					<line fill="none" stroke="#0DB14B" stroke-miterlimit="1" x1="164.946" y1="40.4" x2="263.439" y2="40.4"/>
				</g>
			</g>
		</g>
		<g>
			<g>
				<g>
					<line fill="none" stroke="#0DB14B" stroke-miterlimit="1" x1="164.946" y1="62.365" x2="195.038" y2="87.565"/>
				</g>
			</g>
		</g>
		<g>
			<g>
				<g>
					<polyline fill="none" stroke="#0DB14B" stroke-miterlimit="1" points="164.946,103.344 234.64,103.344 256.396,65.978 					"/>
				</g>
			</g>
		</g>
		<g>
			<g>
				<g>
					<line fill="none" stroke="#0DB14B" stroke-miterlimit="1" x1="164.946" y1="145.811" x2="191.4" y2="145.811"/>
				</g>
			</g>
		</g>
		<g>
			<g>
				<g>
					<line fill="none" stroke="#0DB14B" stroke-miterlimit="1" x1="164.946" y1="167.41" x2="183.841" y2="167.41"/>
				</g>
			</g>
		</g>
		<g>
			<g>
				<g>
					<polyline fill="none" stroke="#0DB14B" stroke-miterlimit="1" points="164.946,251.51 201.292,251.51 225.579,280.307 					"/>
				</g>
			</g>
		</g>
	</g>
</g>
</svg>
