<?xml version="1.0" encoding="utf-8"?>

<!DOCTYPE svg PUBLIC "-//W3C//DTD SVG 1.1//EN" "http://www.w3.org/Graphics/SVG/1.1/DTD/svg11.dtd">
<svg version="1.1" id="Layer_1" xmlns="http://www.w3.org/2000/svg" xmlns:xlink="http://www.w3.org/1999/xlink" x="0px" y="0px"
	 width="502px" height="327px" viewBox="0 0 502 327" enable-background="new 0 0 502 327" xml:space="preserve">

<defs>
	<style type="text/css">
	text {
	  font-family: Helvetica, Verdana, ArialUnicodeMS, san-serif
	}
	</style>
</defs>

<g>
   <desc>
	PS 3.17 Part 17: Explanatory Information
   </desc>
</g>

<g>
	<rect x="1" y="1" fill="#F5EED6" width="500" height="325"/>
	<g>
		
			<line fill="none" stroke="#000000" stroke-width="0.5" stroke-miterlimit="10" stroke-dasharray="4,4,2,2" x1="443.076" y1="32.976" x2="293.039" y2="32.976"/>
		<g>
			<text transform="matrix(1 0 0 1 446.5918 189.6621)"><tspan x="0" y="0" font-size="9">Table </tspan><tspan x="0" y="10.801" font-size="9">Reference</tspan><tspan x="0" y="21.6" font-size="9">System</tspan></text>
		</g>
		<g>
			<text transform="matrix(1 0 0 1 446.5918 26.3843)"><tspan x="0" y="0" font-size="9">Isocenter</tspan><tspan x="0" y="10.8" font-size="9">Reference</tspan><tspan x="0" y="21.6" font-size="9">System</tspan></text>
		</g>
		<text transform="matrix(1 0 0 1 405.8164 213.5586)" fill="#ED1C24" font-size="9">Frame 1</text>
		<text transform="matrix(1 0 0 1 252.3213 241.3438)" fill="#ED1C24" font-size="9">Frame i</text>
		<text transform="matrix(1 0 0 1 64.355 275.8623)" fill="#ED1C24" font-size="9">Frame N</text>
		<g>
			<g>
				<polyline fill="none" stroke="#005695" stroke-width="2" points="400.002,201.803 400.018,32.215 400.003,191.172 				"/>
				<g>
					<polygon fill="#005695" points="396.517,188.793 400.002,201.803 403.489,188.794 					"/>
				</g>
			</g>
		</g>
		<g>
			<g>
				<line fill="none" stroke="#005695" stroke-width="2" x1="69.338" y1="205.797" x2="400.016" y2="205.797"/>
				<g>
					<polygon fill="#005695" points="71.716,209.283 58.707,205.797 71.716,202.311 					"/>
				</g>
			</g>
		</g>
		<g>
			<g>
				<line fill="none" stroke="#005695" stroke-width="2" x1="58.707" y1="252.07" x2="58.707" y2="205.804"/>
				<g>
					<polygon fill="#005695" points="62.193,249.692 58.707,262.701 55.221,249.692 					"/>
				</g>
			</g>
		</g>
		<g>
			<g>
				<line fill="none" stroke="#005695" stroke-width="2" x1="400.369" y1="205.18" x2="72.191" y2="263.693"/>
				<g>
					<polygon fill="#005695" points="73.919,259.844 61.725,265.56 75.144,266.708 					"/>
				</g>
			</g>
		</g>
		
			<line fill="none" stroke="#000000" stroke-width="0.5" stroke-miterlimit="10" stroke-dasharray="4,4,2,2" x1="443.076" y1="197.927" x2="16" y2="273.53"/>
		<g>
			<g>
				<line fill="none" stroke="#0DB14B" stroke-width="2" x1="400.176" y1="32.974" x2="400.176" y2="50.245"/>
				<g>
					<polygon fill="#0DB14B" points="396.689,47.867 400.176,60.876 403.662,47.867 					"/>
				</g>
			</g>
		</g>
		<g>
			<g>
				<line fill="none" stroke="#00AEEF" stroke-width="2" x1="400.176" y1="32.976" x2="385.979" y2="32.976"/>
				<g>
					<polygon fill="#00AEEF" points="388.356,29.489 375.348,32.976 388.356,36.462 					"/>
				</g>
			</g>
		</g>
		<text transform="matrix(1 -0.0019 0.0019 1 358.0078 25.3398)"><tspan x="0" y="0" fill="#00AEEF" font-size="11">Z</tspan><tspan x="6.718" y="4.271" fill="#00AEEF" font-size="11">iso</tspan></text>
		<text transform="matrix(1 -0.0019 0.0019 1 404.6211 63.2422)"><tspan x="0" y="0" fill="#0DB14B" font-size="11">Y</tspan><tspan x="7.336" y="4.271" fill="#0DB14B" font-size="11">iso</tspan></text>
		<g>
			<path stroke="#000000" stroke-miterlimit="1" d="M403.062,33.048c0-1.652-1.338-2.99-2.99-2.99v2.992L403.062,33.048z"/>
			
				<path fill="#FFFFFF" stroke="#010101" stroke-width="0.75" stroke-linecap="round" stroke-linejoin="round" stroke-miterlimit="1" d="
				M400.072,30.058c-1.65,0-2.988,1.34-2.988,2.993l2.988-0.001V30.058z"/>
			<path stroke="#000000" stroke-miterlimit="1" d="M397.084,33.051c0,1.65,1.34,2.989,2.99,2.988l-0.002-2.989L397.084,33.051z"/>
			
				<path fill="#FFFFFF" stroke="#010101" stroke-width="0.75" stroke-linecap="round" stroke-linejoin="round" stroke-miterlimit="1" d="
				M400.072,33.05l0.002,2.989c1.652-0.001,2.988-1.341,2.988-2.991L400.072,33.05z"/>
		</g>
		<g>
			<g>
				<line fill="none" stroke="#0DB14B" stroke-width="2" x1="400.287" y1="205.58" x2="403.285" y2="222.588"/>
				<g>
					<polygon fill="#0DB14B" points="399.439,220.852 405.131,233.058 406.306,219.641 					"/>
				</g>
			</g>
		</g>
		<g>
			<g>
				<line fill="none" stroke="#00AEEF" stroke-width="2" x1="400.287" y1="205.581" x2="386.308" y2="208.046"/>
				<g>
					<polygon fill="#00AEEF" points="388.044,204.2 375.838,209.893 389.255,211.066 					"/>
				</g>
			</g>
		</g>
		<text transform="matrix(0.9845 -0.1755 0.1755 0.9845 374.166 220.748)"><tspan x="0" y="0" fill="#00AEEF" font-size="11">Z</tspan><tspan x="6.72" y="4.269" fill="#00AEEF" font-size="11">t</tspan></text>
		<text transform="matrix(0.9845 -0.1755 0.1755 0.9845 403.6602 243.3223)"><tspan x="0" y="0" fill="#0DB14B" font-size="11">Y</tspan><tspan x="7.337" y="4.272" fill="#0DB14B" font-size="11">t</tspan></text>
		<text transform="matrix(0.9845 -0.1755 0.1755 0.9845 219.2222 248.377)"><tspan x="0" y="0" fill="#00AEEF" font-size="11">Z</tspan><tspan x="6.719" y="4.271" fill="#00AEEF" font-size="11">t</tspan></text>
		<text transform="matrix(0.9845 -0.1755 0.1755 0.9845 248.7153 270.9531)"><tspan x="0" y="0" fill="#0DB14B" font-size="11">Y</tspan><tspan x="7.336" y="4.272" fill="#0DB14B" font-size="11">t</tspan></text>
		<text transform="matrix(0.9845 -0.1755 0.1755 0.9845 32.4917 280.9473)"><tspan x="0" y="0" fill="#00AEEF" font-size="11">Z</tspan><tspan x="6.719" y="4.271" fill="#00AEEF" font-size="11">t</tspan></text>
		<text transform="matrix(0.9845 -0.1755 0.1755 0.9845 61.9844 303.5234)"><tspan x="0" y="0" fill="#0DB14B" font-size="11">Y</tspan><tspan x="7.337" y="4.272" fill="#0DB14B" font-size="11">t</tspan></text>
		<g>
			<path stroke="#000000" stroke-miterlimit="1" d="M403.621,204.575c-0.326-1.859-2.098-3.1-3.957-2.771l0.594,3.366
				L403.621,204.575z"/>
			
				<path fill="#FFFFFF" stroke="#010101" stroke-width="0.75" stroke-linecap="round" stroke-linejoin="round" stroke-miterlimit="1" d="
				M399.664,201.805c-1.857,0.327-3.098,2.1-2.77,3.96l3.363-0.594L399.664,201.805z"/>
			<path stroke="#000000" stroke-miterlimit="1" d="M396.895,205.765c0.328,1.857,2.102,3.098,3.959,2.77l-0.596-3.363
				L396.895,205.765z"/>
			
				<path fill="#FFFFFF" stroke="#010101" stroke-width="0.75" stroke-linecap="round" stroke-linejoin="round" stroke-miterlimit="1" d="
				M400.258,205.171l0.596,3.363c1.857-0.328,3.098-2.102,2.768-3.959L400.258,205.171z"/>
		</g>
		<g>
			<g>
				<line fill="none" stroke="#0DB14B" stroke-width="2" x1="58.732" y1="265.925" x2="61.731" y2="282.935"/>
				<g>
					<polygon fill="#0DB14B" points="57.885,281.198 63.577,293.404 64.751,279.987 					"/>
				</g>
			</g>
		</g>
		<g>
			<g>
				<line fill="none" stroke="#00AEEF" stroke-width="2" x1="58.733" y1="265.927" x2="44.752" y2="268.393"/>
				<g>
					<polygon fill="#00AEEF" points="46.488,264.546 34.283,270.239 47.7,271.413 					"/>
				</g>
			</g>
		</g>
		<g>
			<path stroke="#000000" stroke-miterlimit="1" d="M61.77,265.492c-0.286-1.628-1.836-2.713-3.464-2.426l0.52,2.946L61.77,265.492z
				"/>
			
				<path fill="#FFFFFF" stroke="#010101" stroke-width="0.75" stroke-linecap="round" stroke-linejoin="round" stroke-miterlimit="1" d="
				M58.306,263.066c-1.625,0.288-2.71,1.838-2.424,3.466l2.944-0.52L58.306,263.066z"/>
			<path stroke="#000000" stroke-miterlimit="1" d="M55.882,266.532c0.288,1.626,1.838,2.712,3.465,2.423l-0.521-2.942
				L55.882,266.532z"/>
			
				<path fill="#FFFFFF" stroke="#010101" stroke-width="0.75" stroke-linecap="round" stroke-linejoin="round" stroke-miterlimit="1" d="
				M58.826,266.013l0.521,2.942c1.625-0.286,2.709-1.838,2.423-3.463L58.826,266.013z"/>
		</g>
		<g>
			<g>
				<line fill="none" stroke="#0DB14B" stroke-width="2" x1="246.158" y1="232.453" x2="249.156" y2="249.463"/>
				<g>
					<polygon fill="#0DB14B" points="245.311,247.727 251.002,259.933 252.177,246.516 					"/>
				</g>
			</g>
		</g>
		<g>
			<g>
				<line fill="none" stroke="#00AEEF" stroke-width="2" x1="246.158" y1="232.455" x2="232.179" y2="234.92"/>
				<g>
					<polygon fill="#00AEEF" points="233.915,231.074 221.709,236.767 235.126,237.94 					"/>
				</g>
			</g>
		</g>
		<g>
			<path stroke="#000000" stroke-miterlimit="1" d="M248.949,231.978c-0.285-1.628-1.836-2.714-3.461-2.427l0.52,2.947
				L248.949,231.978z"/>
			
				<path fill="#FFFFFF" stroke="#010101" stroke-width="0.75" stroke-linecap="round" stroke-linejoin="round" stroke-miterlimit="1" d="
				M245.488,229.551c-1.623,0.287-2.709,1.838-2.422,3.467l2.941-0.52L245.488,229.551z"/>
			<path stroke="#000000" stroke-miterlimit="1" d="M243.066,233.018c0.287,1.626,1.84,2.713,3.463,2.424l-0.521-2.943
				L243.066,233.018z"/>
			
				<path fill="#FFFFFF" stroke="#010101" stroke-width="0.75" stroke-linecap="round" stroke-linejoin="round" stroke-miterlimit="1" d="
				M246.008,232.498l0.521,2.943c1.623-0.287,2.709-1.839,2.42-3.464L246.008,232.498z"/>
		</g>
		<g>
			<rect x="106.783" y="199.815" fill="#F5EED6" width="46.125" height="11.958"/>
			<g>
				<text transform="matrix(1 0 0 1 108.959 208.6777)" fill="#003468" font-size="9.3957">984.8 mm</text>
			</g>
		</g>
		<g>
			<text transform="matrix(1 0 0 1 151.4272 227.5371)" font-size="9.3957">-10 deg</text>
		</g>
		<g>
			<rect x="35.813" y="229.074" fill="#F5EED6" width="46.125" height="11.958"/>
			<g>
				<text transform="matrix(1 0 0 1 37.9878 237.9336)" fill="#003468" font-size="9.3957">173.6 mm</text>
			</g>
		</g>
		<g>
			<rect x="377.01" y="117.009" fill="#F5EED6" width="46.125" height="11.958"/>
			<g>
				<text transform="matrix(1 0 0 1 383.1035 125.8691)" fill="#003468" font-size="9">500 mm</text>
			</g>
		</g>
		<g>
			
				<rect x="109.646" y="247.206" transform="matrix(0.9848 -0.1737 0.1737 0.9848 -41.9505 26.8921)" fill="#F5EED6" width="46.125" height="11.958"/>
			<g>
				
					<text transform="matrix(0.9848 -0.1736 0.1736 0.9848 113.9565 259.4316)" fill="#003468" font-size="9.3957">1000 mm</text>
			</g>
		</g>
		<g>
			<g>
				<path fill="none" stroke="#000000" stroke-width="1.5" d="M186.377,205.171c0,10.079,0.696,19.995,2.045,29.704"/>
				<g>
					<polygon points="185.59,233.507 189.666,242.749 190.758,232.707 					"/>
				</g>
			</g>
		</g>
	</g>
</g>
</svg>
