<?xml version="1.0" encoding="utf-8"?>

<!DOCTYPE svg PUBLIC "-//W3C//DTD SVG 1.1//EN" "http://www.w3.org/Graphics/SVG/1.1/DTD/svg11.dtd">
<svg version="1.1" id="Layer_1" xmlns="http://www.w3.org/2000/svg" xmlns:xlink="http://www.w3.org/1999/xlink" x="0px" y="0px"
	 width="502px" height="152px" viewBox="0 0 502 152" enable-background="new 0 0 502 152" xml:space="preserve">

<defs>
	<style type="text/css">
	text {
	  font-family: Helvetica, Verdana, ArialUnicodeMS, san-serif
	}
	</style>
</defs>

<g>
   <desc>
	PS 3.17 Part 17: Explanatory Information
   </desc>
</g>

<g>
	<rect x="1" y="1" fill="#F5EED6" width="500" height="150"/>
	<g>
		<rect x="90.442" y="28.611" fill="#CCDEF0" width="75.746" height="107.979"/>
		<text transform="matrix(1 0 0 1 90.4507 23.3872)"><tspan x="0" y="0" font-size="9">Acquisition </tspan><tspan x="49.048" y="0" font-size="9">M</tspan><tspan x="56.635" y="0" font-size="9">od</tspan><tspan x="66.682" y="0" font-size="9">a</tspan><tspan x="72.191" y="0" font-size="9">li</tspan><tspan x="76.694" y="0" font-size="9">t</tspan><tspan x="78.96" y="0" font-size="9">y</tspan></text>
		<text transform="matrix(1 0 0 1 175.1309 79.7051)"><tspan x="0" y="0" font-size="9">S</tspan><tspan x="6.228" y="0" font-size="9">O</tspan><tspan x="13.156" y="0" font-size="9">P</tspan><tspan x="19.384" y="0" font-size="9"> I</tspan><tspan x="24.889" y="0" font-size="9">n</tspan><tspan x="29.913" y="0" font-size="9">s</tspan><tspan x="33.567" y="0" font-size="9">t</tspan><tspan x="35.833" y="0" font-size="9">a</tspan><tspan x="41.343" y="0" font-size="9">n</tspan><tspan x="46.366" y="0" font-size="9">c</tspan><tspan x="50.704" y="0" font-size="9">e A </tspan></text>
		
			<rect x="99.189" y="70.601" fill="#86B2D8" stroke="#010101" stroke-width="0.75" stroke-linecap="round" stroke-linejoin="round" stroke-miterlimit="1" width="58" height="24"/>
		<text transform="matrix(1 0 0 1 112.7153 85.1055)" font-size="9">LINEAR</text>
		<rect x="249.911" y="28.611" fill="#CCDEF0" width="74.331" height="107.979"/>
		<text transform="matrix(1 0 0 1 249.9116 23.3872)" font-size="9">Workstation 1</text>
		
			<rect x="264.268" y="70.602" fill="#86B2D8" stroke="#010101" stroke-width="0.75" stroke-linecap="round" stroke-linejoin="round" stroke-miterlimit="1" width="50" height="24"/>
		<text transform="matrix(1 0 0 1 277.29 85.1055)" font-size="9">SQRT</text>
		<g>
			<path fill="none" d="M138.321,55.897"/>
		</g>
		<g>
			<g>
				
					<line fill="none" stroke="#005695" stroke-width="2" stroke-miterlimit="1" x1="314.798" y1="82.601" x2="404.471" y2="82.601"/>
				<g>
					<polygon fill="#005695" points="402.886,84.925 411.559,82.601 402.886,80.276 					"/>
				</g>
			</g>
		</g>
		<g>
			<g>
				<line fill="none" stroke="#005695" stroke-width="2" stroke-miterlimit="1" x1="157.189" y1="82.601" x2="257.18" y2="82.601"/>
				<g>
					<polygon fill="#005695" points="255.595,84.925 264.268,82.601 255.595,80.276 					"/>
				</g>
			</g>
		</g>
		<text transform="matrix(1 0 0 1 329.6914 79.7051)"><tspan x="0" y="0" font-size="9">S</tspan><tspan x="6.228" y="0" font-size="9">O</tspan><tspan x="13.156" y="0" font-size="9">P</tspan><tspan x="19.384" y="0" font-size="9"> I</tspan><tspan x="24.889" y="0" font-size="9">n</tspan><tspan x="29.912" y="0" font-size="9">s</tspan><tspan x="33.566" y="0" font-size="9">t</tspan><tspan x="35.832" y="0" font-size="9">a</tspan><tspan x="41.342" y="0" font-size="9">n</tspan><tspan x="46.365" y="0" font-size="9">c</tspan><tspan x="50.703" y="0" font-size="9">e B </tspan></text>
	</g>
</g>
</svg>
