<?xml version="1.0" encoding="utf-8"?>

<!DOCTYPE svg PUBLIC "-//W3C//DTD SVG 1.1//EN" "http://www.w3.org/Graphics/SVG/1.1/DTD/svg11.dtd">
<svg version="1.1" id="Layer_1" xmlns="http://www.w3.org/2000/svg" xmlns:xlink="http://www.w3.org/1999/xlink" x="0px" y="0px"
	 width="502px" height="227px" viewBox="0 0 502 227" enable-background="new 0 0 502 227" xml:space="preserve">

<defs>
	<style type="text/css">
	text {
	  font-family: Helvetica, Verdana, ArialUnicodeMS, san-serif
	}
	</style>
</defs>

<g>
   <desc>
	PS 3.17 Part 17: Explanatory Information
   </desc>
</g>

<g>
	<rect x="1" y="1" fill="#F5EED6" width="500" height="225"/>
	<g>
		<g>
			<g>
				
					<line fill="none" stroke="#005695" stroke-linecap="round" stroke-miterlimit="1" x1="75.715" y1="188.982" x2="75.715" y2="202.434"/>
				<g>
					<polygon fill="#005695" points="73.391,200.849 75.715,209.521 78.039,200.849 					"/>
				</g>
			</g>
		</g>
		<g>
			<g>
				<path fill="none" stroke="#005695" stroke-linecap="round" stroke-miterlimit="1" d="M192.714,188.984
					c0,5.998,0,10.347,0,13.452"/>
				<g>
					<polygon fill="#005695" points="190.39,200.849 192.714,209.521 195.038,200.849 					"/>
				</g>
			</g>
		</g>
		<g>
			<g>
				
					<line fill="none" stroke="#005695" stroke-linecap="round" stroke-miterlimit="1" x1="426.715" y1="188.982" x2="426.715" y2="202.434"/>
				<g>
					<polygon fill="#005695" points="424.391,200.849 426.715,209.521 429.039,200.849 					"/>
				</g>
			</g>
		</g>
		<g>
			<g>
				
					<line fill="none" stroke="#005695" stroke-linecap="round" stroke-miterlimit="1" x1="309.448" y1="188.982" x2="309.448" y2="202.434"/>
				<g>
					<polygon fill="#005695" points="307.124,200.849 309.448,209.521 311.772,200.849 					"/>
				</g>
			</g>
		</g>
		
			<rect x="156.719" y="13.784" fill="#86B2D8" stroke="#010101" stroke-width="0.75" stroke-linecap="round" stroke-linejoin="round" stroke-miterlimit="1" width="170.999" height="45.001"/>
		<g>
			<text transform="matrix(1 0 0 1 203.9775 24.0825)"><tspan x="0" y="0" font-size="8">CAD Processing and </tspan><tspan x="4.896" y="9.6" font-size="8">Findings Summary</tspan><tspan x="-44.24" y="19.2" font-size="8">CODE: All algorithms succeeded; with findings</tspan><tspan x="32.68" y="28.8" font-size="8">1.2</tspan></text>
		</g>
		
			<rect x="372.715" y="143.982" fill="#B2CEE7" stroke="#010101" stroke-width="0.75" stroke-linecap="round" stroke-linejoin="round" stroke-miterlimit="1" width="108.002" height="45"/>
		<g>
			<text transform="matrix(1 0 0 1 409.8145 154.2871)"><tspan x="0" y="0" font-size="8">Individual</tspan><tspan x="-35.123" y="9.601" font-size="8">Impression/Recommendation</tspan><tspan x="-6.656" y="19.2" font-size="8">CONTAINER</tspan><tspan x="8.004" y="28.8" font-size="8">1.2.4</tspan></text>
		</g>
		
			<rect x="138.715" y="143.982" fill="#B2CEE7" stroke="#010101" stroke-width="0.75" stroke-linecap="round" stroke-linejoin="round" stroke-miterlimit="1" width="107.999" height="45"/>
		<g>
			<text transform="matrix(1 0 0 1 175.814 154.2871)"><tspan x="0" y="0" font-size="8">Individual</tspan><tspan x="-35.123" y="9.601" font-size="8">Impression/Recommendation</tspan><tspan x="-6.656" y="19.2" font-size="8">CONTAINER</tspan><tspan x="8.004" y="28.8" font-size="8">1.2.2</tspan></text>
		</g>
		
			<rect x="255.718" y="143.982" fill="#B2CEE7" stroke="#010101" stroke-width="0.75" stroke-linecap="round" stroke-linejoin="round" stroke-miterlimit="1" width="108" height="45"/>
		<g>
			<text transform="matrix(1 0 0 1 292.8174 154.2871)"><tspan x="0" y="0" font-size="8">Individual</tspan><tspan x="-35.123" y="9.601" font-size="8">Impression/Recommendation</tspan><tspan x="-6.656" y="19.2" font-size="8">CONTAINER</tspan><tspan x="8.004" y="28.8" font-size="8">1.2.3</tspan></text>
		</g>
		
			<rect x="21.716" y="143.982" fill="#B2CEE7" stroke="#010101" stroke-width="0.75" stroke-linecap="round" stroke-linejoin="round" stroke-miterlimit="1" width="108.001" height="45"/>
		<g>
			<text transform="matrix(1 0 0 1 58.8159 154.2871)"><tspan x="0" y="0" font-size="8">Individual</tspan><tspan x="-35.123" y="9.601" font-size="8">Impression/Recommendation</tspan><tspan x="-6.656" y="19.2" font-size="8">CONTAINER</tspan><tspan x="8.004" y="28.8" font-size="8">1.2.1</tspan></text>
		</g>
		<g>
			<g>
				
					<line fill="none" stroke="#005695" stroke-linecap="round" stroke-miterlimit="1" x1="75.715" y1="126.287" x2="75.715" y2="136.176"/>
				<g>
					<polygon fill="#005695" points="73.391,134.591 75.715,143.264 78.039,134.591 					"/>
				</g>
			</g>
		</g>
		<g>
			<g>
				<polyline fill="none" stroke="#005695" stroke-linecap="round" stroke-miterlimit="1" points="242.039,58.785 242.039,79.792 
					75.715,79.792 75.715,92.565 				"/>
				<g>
					<polygon fill="#005695" points="73.391,90.979 75.715,99.652 78.039,90.979 					"/>
				</g>
			</g>
		</g>
		<g>
			<g>
				
					<line fill="none" stroke="#005695" stroke-linecap="round" stroke-miterlimit="1" x1="192.714" y1="126.287" x2="192.714" y2="136.176"/>
				<g>
					<polygon fill="#005695" points="190.39,134.591 192.714,143.264 195.038,134.591 					"/>
				</g>
			</g>
		</g>
		<g>
			<g>
				<path fill="none" stroke="#005695" stroke-linecap="round" stroke-miterlimit="1" d="M242.039,79.792h-49.324
					c0,0,0,6.534-0.001,12.778"/>
				<g>
					<polygon fill="#005695" points="190.39,90.979 192.714,99.652 195.039,90.98 					"/>
				</g>
			</g>
		</g>
		<g>
			<g>
				
					<line fill="none" stroke="#005695" stroke-linecap="round" stroke-miterlimit="1" x1="426.715" y1="126.287" x2="426.715" y2="136.176"/>
				<g>
					<polygon fill="#005695" points="424.391,134.591 426.715,143.264 429.039,134.591 					"/>
				</g>
			</g>
		</g>
		<g>
			<g>
				<polyline fill="none" stroke="#005695" stroke-linecap="round" stroke-miterlimit="1" points="308.892,79.792 426.715,79.792 
					426.715,92.565 				"/>
				<g>
					<polygon fill="#005695" points="424.391,90.979 426.715,99.652 429.039,90.979 					"/>
				</g>
			</g>
		</g>
		<g>
			<g>
				
					<line fill="none" stroke="#005695" stroke-linecap="round" stroke-miterlimit="1" x1="309.448" y1="126.287" x2="309.448" y2="136.176"/>
				<g>
					<polygon fill="#005695" points="307.124,134.591 309.448,143.264 311.772,134.591 					"/>
				</g>
			</g>
		</g>
		<g>
			<g>
				<polyline fill="none" stroke="#005695" stroke-linecap="round" stroke-miterlimit="1" points="242.832,79.792 309.448,79.792 
					309.448,92.565 				"/>
				<g>
					<polygon fill="#005695" points="307.124,90.979 309.448,99.652 311.772,90.979 					"/>
				</g>
			</g>
		</g>
		<g>
			
				<polygon fill="#CCDEF0" stroke="#010101" stroke-width="0.75" stroke-linecap="round" stroke-linejoin="round" stroke-miterlimit="1" points="
				26.213,112.467 75.672,99.292 125.219,112.893 125.219,112.924 75.62,126.287 			"/>
		</g>
		<rect x="40.217" y="110.214" fill="none" width="71" height="5.151"/>
		<text transform="matrix(1 0 0 1 46.5513 115.2246)" font-size="7">INFERRED FROM</text>
		<g>
			
				<polygon fill="#CCDEF0" stroke="#010101" stroke-width="0.75" stroke-linecap="round" stroke-linejoin="round" stroke-miterlimit="1" points="
				143.211,112.467 192.67,99.292 242.217,112.893 242.217,112.924 192.618,126.287 			"/>
		</g>
		<rect x="157.215" y="110.214" fill="none" width="71" height="5.151"/>
		<text transform="matrix(1 0 0 1 163.5493 115.2246)" font-size="7">INFERRED FROM</text>
		<g>
			
				<polygon fill="#CCDEF0" stroke="#010101" stroke-width="0.75" stroke-linecap="round" stroke-linejoin="round" stroke-miterlimit="1" points="
				260.209,112.467 309.668,99.292 359.215,112.893 359.215,112.924 309.615,126.287 			"/>
		</g>
		<rect x="274.213" y="110.214" fill="none" width="71" height="5.151"/>
		<text transform="matrix(1 0 0 1 280.5469 115.2246)" font-size="7">INFERRED FROM</text>
		<g>
			
				<polygon fill="#CCDEF0" stroke="#010101" stroke-width="0.75" stroke-linecap="round" stroke-linejoin="round" stroke-miterlimit="1" points="
				377.207,112.467 426.666,99.292 476.213,112.893 476.213,112.924 426.613,126.287 			"/>
		</g>
		<rect x="391.211" y="110.214" fill="none" width="71" height="5.151"/>
		<text transform="matrix(1 0 0 1 397.5449 115.2246)" font-size="7">INFERRED FROM</text>
	</g>
</g>
</svg>
