<?xml version="1.0" encoding="utf-8"?>

<!DOCTYPE svg PUBLIC "-//W3C//DTD SVG 1.1//EN" "http://www.w3.org/Graphics/SVG/1.1/DTD/svg11.dtd">
<svg version="1.1" id="Layer_1" xmlns="http://www.w3.org/2000/svg" xmlns:xlink="http://www.w3.org/1999/xlink" x="0px" y="0px"
	 width="677px" height="412px" viewBox="0 0 677 412" enable-background="new 0 0 677 412" xml:space="preserve">

<defs>
	<style type="text/css">
	text {
	  font-family: Helvetica, Verdana, ArialUnicodeMS, san-serif
	}
	</style>
</defs>

<g>
   <desc>
	PS 3.17 Part 17: Explanatory Information
   </desc>
</g>

<g>
	<rect x="1" y="1" fill="#F5EED6" width="675" height="410"/>
	<g>
		<g>
			
				<line fill="none" stroke="#000000" stroke-width="0.5" stroke-linecap="round" stroke-miterlimit="1" x1="235.631" y1="42.998" x2="235.631" y2="395.002"/>
			
				<line fill="none" stroke="#000000" stroke-width="0.5" stroke-linecap="round" stroke-miterlimit="1" x1="145.631" y1="42.998" x2="145.631" y2="395.002"/>
			
				<line fill="none" stroke="#000000" stroke-width="0.5" stroke-linecap="round" stroke-miterlimit="1" x1="325.631" y1="42.998" x2="325.631" y2="395.002"/>
			
				<line fill="none" stroke="#000000" stroke-width="0.5" stroke-linecap="round" stroke-miterlimit="1" x1="55.574" y1="42.998" x2="55.574" y2="395.002"/>
			
				<line fill="none" stroke="#000000" stroke-width="0.5" stroke-linecap="round" stroke-miterlimit="1" x1="505.687" y1="42.998" x2="505.687" y2="395.002"/>
			
				<line fill="none" stroke="#000000" stroke-width="0.5" stroke-linecap="round" stroke-miterlimit="1" x1="415.687" y1="42.998" x2="415.687" y2="395.002"/>
			
				<line fill="none" stroke="#000000" stroke-width="0.5" stroke-linecap="round" stroke-miterlimit="1" x1="595.687" y1="42.998" x2="595.687" y2="395.002"/>
			<g>
				
					<rect x="15.63" y="16.998" fill="#CCDEF0" stroke="#010101" stroke-width="0.75" stroke-linecap="round" stroke-linejoin="round" stroke-miterlimit="1" width="80" height="26"/>
				<text transform="matrix(1 0 0 1 31.874 27.1035)"><tspan x="0" y="0" font-size="9">Workstation</tspan><tspan x="7.001" y="10.8" font-size="9">Provider</tspan></text>
			</g>
			<g>
				
					<rect x="105.63" y="16.998" fill="#CCDEF0" stroke="#010101" stroke-width="0.75" stroke-linecap="round" stroke-linejoin="round" stroke-miterlimit="1" width="80" height="26"/>
				<text transform="matrix(1 0 0 1 119.5664 32.5034)" font-size="9">RRD Creator</text>
			</g>
			<g>
				
					<rect x="195.63" y="16.998" fill="#CCDEF0" stroke="#010101" stroke-width="0.75" stroke-linecap="round" stroke-linejoin="round" stroke-miterlimit="1" width="80" height="26"/>
				<text transform="matrix(1 0 0 1 221.6206 32.5034)" font-size="9">Patient</text>
			</g>
			<g>
				
					<rect x="285.63" y="16.998" fill="#CCDEF0" stroke="#010101" stroke-width="0.75" stroke-linecap="round" stroke-linejoin="round" stroke-miterlimit="1" width="80.002" height="26"/>
				<text transform="matrix(1 0 0 1 291.623 32.5034)" font-size="9">PET\CT Modality</text>
			</g>
			<g>
				
					<rect x="375.632" y="16.998" fill="#CCDEF0" stroke="#010101" stroke-width="0.75" stroke-linecap="round" stroke-linejoin="round" stroke-miterlimit="1" width="80" height="26"/>
				<text transform="matrix(1 0 0 1 377.8682 32.5034)" font-size="9">Image Mgr\Archive</text>
			</g>
			<g>
				
					<rect x="465.632" y="16.998" fill="#CCDEF0" stroke="#010101" stroke-width="0.75" stroke-linecap="round" stroke-linejoin="round" stroke-miterlimit="1" width="80" height="26"/>
				<text transform="matrix(1 0 0 1 471.3643 27.1035)"><tspan x="0" y="0" font-size="9">Dose Information</tspan><tspan x="16.759" y="10.8" font-size="9">Reporter</tspan></text>
			</g>
			<g>
				
					<rect x="555.632" y="16.998" fill="#CCDEF0" stroke="#010101" stroke-width="0.75" stroke-linecap="round" stroke-linejoin="round" stroke-miterlimit="1" width="80" height="26"/>
				<text transform="matrix(1 0 0 1 567.0596 32.5034)" font-size="9">Dose Register</text>
			</g>
			
				<rect x="142.01" y="83.408" fill="#CCDEF0" stroke="#010101" stroke-width="0.75" stroke-linecap="round" stroke-linejoin="round" stroke-miterlimit="1" width="9" height="110.408"/>
			
				<rect x="51.074" y="83.408" fill="#CCDEF0" stroke="#010101" stroke-width="0.75" stroke-linecap="round" stroke-linejoin="round" stroke-miterlimit="1" width="9" height="156.186"/>
			
				<rect x="321.131" y="193.816" fill="#CCDEF0" stroke="#010101" stroke-width="0.75" stroke-linecap="round" stroke-linejoin="round" stroke-miterlimit="1" width="9" height="135.339"/>
			
				<rect x="231.338" y="139.502" fill="#CCDEF0" stroke="#010101" stroke-width="0.75" stroke-linecap="round" stroke-linejoin="round" stroke-miterlimit="1" width="9" height="166.553"/>
			
				<rect x="501.187" y="278.002" fill="#CCDEF0" stroke="#010101" stroke-width="0.75" stroke-linecap="round" stroke-linejoin="round" stroke-miterlimit="1" width="9" height="92.253"/>
			
				<rect x="411.602" y="176.502" fill="#CCDEF0" stroke="#010101" stroke-width="0.75" stroke-linecap="round" stroke-linejoin="round" stroke-miterlimit="1" width="9" height="25.932"/>
			
				<rect x="411.602" y="212.145" fill="#CCDEF0" stroke="#010101" stroke-width="0.75" stroke-linecap="round" stroke-linejoin="round" stroke-miterlimit="1" width="9" height="67.859"/>
			
				<rect x="411.187" y="288.056" fill="#CCDEF0" stroke="#010101" stroke-width="0.75" stroke-linecap="round" stroke-linejoin="round" stroke-miterlimit="1" width="9" height="82.199"/>
			
				<rect x="591.865" y="317.152" fill="#CCDEF0" stroke="#010101" stroke-width="0.75" stroke-linecap="round" stroke-linejoin="round" stroke-miterlimit="1" width="9" height="66.425"/>
			<g>
				<g>
					
						<line fill="none" stroke="#005695" stroke-linecap="round" stroke-miterlimit="1" x1="65.393" y1="93.535" x2="142.01" y2="93.535"/>
					<g>
						<polygon fill="#005695" points="66.582,95.278 60.077,93.535 66.582,91.792 						"/>
					</g>
				</g>
			</g>
			<g>
				<g>
					
						<line fill="none" stroke="#005695" stroke-linecap="round" stroke-miterlimit="1" x1="60.077" y1="111.835" x2="136.694" y2="111.835"/>
					<g>
						<polygon fill="#005695" points="135.505,113.578 142.01,111.835 135.505,110.092 						"/>
					</g>
				</g>
			</g>
			<g>
				<g>
					
						<line fill="none" stroke="#005695" stroke-linecap="round" stroke-miterlimit="1" x1="151.01" y1="148.136" x2="226.022" y2="148.136"/>
					<g>
						<polygon fill="#005695" points="224.833,149.879 231.338,148.136 224.833,146.393 						"/>
					</g>
				</g>
			</g>
			<g>
				<g>
					
						<line fill="none" stroke="#005695" stroke-linecap="round" stroke-miterlimit="1" x1="151.01" y1="184.735" x2="406.286" y2="184.735"/>
					<g>
						<polygon fill="#005695" points="405.097,186.479 411.602,184.735 405.097,182.992 						"/>
					</g>
				</g>
			</g>
			<g>
				<g>
					
						<line fill="none" stroke="#005695" stroke-linecap="round" stroke-miterlimit="1" x1="65.39" y1="203.036" x2="322.273" y2="203.036"/>
					<g>
						<polygon fill="#005695" points="66.579,204.779 60.074,203.036 66.579,201.292 						"/>
					</g>
				</g>
			</g>
			<g>
				<g>
					
						<line fill="none" stroke="#005695" stroke-linecap="round" stroke-miterlimit="1" x1="60.074" y1="221.335" x2="316.958" y2="221.335"/>
					<g>
						<polygon fill="#005695" points="315.769,223.079 322.273,221.335 315.769,219.592 						"/>
					</g>
				</g>
			</g>
			<g>
				<g>
					
						<line fill="none" stroke="#005695" stroke-linecap="round" stroke-miterlimit="1" x1="331.273" y1="239.636" x2="407.09" y2="239.636"/>
					<g>
						<polygon fill="#005695" points="405.9,241.379 412.405,239.636 405.9,237.893 						"/>
					</g>
				</g>
			</g>
			<g>
				<g>
					
						<line fill="none" stroke="#005695" stroke-linecap="round" stroke-miterlimit="1" x1="331.273" y1="269.757" x2="406.286" y2="269.757"/>
					<g>
						<polygon fill="#005695" points="405.097,271.5 411.602,269.757 405.097,268.014 						"/>
					</g>
				</g>
			</g>
			<g>
				<g>
					
						<line fill="none" stroke="#005695" stroke-linecap="round" stroke-miterlimit="1" x1="425.917" y1="306.354" x2="502.537" y2="306.354"/>
					<g>
						<polygon fill="#005695" points="427.106,308.097 420.602,306.354 427.106,304.61 						"/>
					</g>
				</g>
			</g>
			<g>
				<g>
					
						<line fill="none" stroke="#005695" stroke-linecap="round" stroke-miterlimit="1" x1="420.602" y1="324.653" x2="497.222" y2="324.653"/>
					<g>
						<polygon fill="#005695" points="496.032,326.396 502.537,324.653 496.032,322.91 						"/>
					</g>
				</g>
			</g>
			<g>
				<g>
					
						<line fill="none" stroke="#005695" stroke-linecap="round" stroke-miterlimit="1" x1="511.537" y1="342.953" x2="586.55" y2="342.953"/>
					<g>
						<polygon fill="#005695" points="585.36,344.696 591.865,342.953 585.36,341.21 						"/>
					</g>
				</g>
			</g>
			<g>
				<g>
					<polyline fill="none" stroke="#005695" stroke-linecap="round" stroke-miterlimit="1" points="151.01,112.436 160.745,112.436 
						160.745,130.436 156.325,130.436 					"/>
					<g>
						<polygon fill="#005695" points="157.514,128.693 151.01,130.436 157.514,132.179 						"/>
					</g>
				</g>
			</g>
			<g>
				<g>
					<polyline fill="none" stroke="#005695" stroke-linecap="round" stroke-miterlimit="1" points="151.01,166.435 160.745,166.435 
						160.745,180.705 156.325,180.705 					"/>
					<g>
						<polygon fill="#005695" points="157.514,178.962 151.01,180.705 157.514,182.448 						"/>
					</g>
				</g>
			</g>
			<g>
				<g>
					<polyline fill="none" stroke="#005695" stroke-linecap="round" stroke-miterlimit="1" points="240.338,148.436 
						250.073,148.436 250.073,166.436 245.653,166.436 					"/>
					<g>
						<polygon fill="#005695" points="246.842,164.692 240.338,166.436 246.842,168.179 						"/>
					</g>
				</g>
			</g>
			<g>
				<g>
					<polyline fill="none" stroke="#005695" stroke-linecap="round" stroke-miterlimit="1" points="511.537,288.055 
						521.272,288.055 521.272,306.055 516.853,306.055 					"/>
					<g>
						<polygon fill="#005695" points="518.042,304.312 511.537,306.055 518.042,307.798 						"/>
					</g>
				</g>
			</g>
			<g>
				<g>
					<polyline fill="none" stroke="#005695" stroke-linecap="round" stroke-miterlimit="1" points="600.865,361.255 
						610.601,361.255 610.601,379.255 606.181,379.255 					"/>
					<g>
						<polygon fill="#005695" points="607.37,377.512 600.865,379.255 607.37,380.998 						"/>
					</g>
				</g>
			</g>
			<g>
				<g>
					<polyline fill="none" stroke="#005695" stroke-linecap="round" stroke-miterlimit="1" points="321.418,239.593 
						311.683,239.593 311.683,257.593 316.103,257.593 					"/>
					<g>
						<polygon fill="#005695" points="314.914,259.336 321.418,257.593 314.914,255.85 						"/>
					</g>
				</g>
			</g>
		</g>
		<rect x="67.164" y="85.441" fill="none" width="594.205" height="305.02"/>
		<text transform="matrix(1.0017 0 0 1 67.1641 90.4517)"><tspan x="0" y="0" font-size="7">Worklist Query</tspan><tspan x="0" y="18.4" font-size="7">Procedure Steps</tspan><tspan x="52.141" y="18.4" font-size="7" letter-spacing="34.942">	</tspan><tspan x="89.359" y="18.4" font-size="7">Dose Assayed</tspan><tspan x="0" y="55.2" font-size="7" letter-spacing="86.856">	</tspan><tspan x="89.359" y="55.2" font-size="7">Product Administered</tspan><tspan x="156.28" y="55.2" font-size="7" letter-spacing="20.965">	</tspan><tspan x="179.702" y="55.2" font-size="7">Uptake</tspan><tspan x="0" y="73.6" font-size="7" letter-spacing="86.856">	</tspan><tspan x="89.359" y="73.6" font-size="7">Does Assayed</tspan><tspan x="0" y="92" font-size="7" letter-spacing="86.856">	</tspan><tspan x="89.359" y="92" font-size="7" letter-spacing="87.854">	</tspan><tspan x="179.702" y="92" font-size="7" letter-spacing="87.854">	</tspan><tspan x="269.553" y="92" font-size="7">Store RRD SR</tspan><tspan x="0" y="110.4" font-size="7" letter-spacing="86.856">	</tspan><tspan x="89.359" y="110.4" font-size="7" letter-spacing="87.854">	</tspan><tspan x="179.702" y="110.4" font-size="7">Worklist Query</tspan><tspan x="0" y="128.8" font-size="7" letter-spacing="86.856">	</tspan><tspan x="89.359" y="128.8" font-size="7" letter-spacing="87.854">	</tspan><tspan x="179.702" y="128.8" font-size="7">Procedure Steps</tspan><tspan x="231.843" y="128.8" font-size="7" letter-spacing="34.942">	</tspan><tspan x="269.553" y="128.8" font-size="7">Query RRD SR</tspan><tspan x="0" y="147.2" font-size="7" letter-spacing="86.856">	</tspan><tspan x="89.359" y="147.2" font-size="7" letter-spacing="87.854">	</tspan><tspan x="179.702" y="147.2" font-size="7">PET\CT Performed</tspan><tspan x="239.216" y="147.2" font-size="7" letter-spacing="27.954">	</tspan><tspan x="269.553" y="147.2" font-size="7">Retrieve RRD SR</tspan><tspan x="0" y="177" font-size="7" letter-spacing="86.856">	</tspan><tspan x="89.359" y="177" font-size="7" letter-spacing="87.854">	</tspan><tspan x="179.702" y="177" font-size="7" letter-spacing="87.854">	</tspan><tspan x="269.553" y="177" font-size="7">CT Dose SR</tspan><tspan x="0" y="195.4" font-size="7" letter-spacing="86.856">	</tspan><tspan x="89.359" y="195.4" font-size="7" letter-spacing="87.854">	</tspan><tspan x="179.702" y="195.4" font-size="7" letter-spacing="87.854">	</tspan><tspan x="269.553" y="195.4" font-size="7" letter-spacing="87.854">	</tspan><tspan x="359.377" y="195.4" font-size="7" letter-spacing="87.854">	</tspan><tspan x="449.839" y="195.4" font-size="7">Start Report Task</tspan><tspan x="0" y="213.799" font-size="7" letter-spacing="86.856">	</tspan><tspan x="89.359" y="213.799" font-size="7" letter-spacing="87.854">	</tspan><tspan x="179.702" y="213.799" font-size="7" letter-spacing="87.854">	</tspan><tspan x="269.553" y="213.799" font-size="7" letter-spacing="87.854">	</tspan><tspan x="359.377" y="213.799" font-size="7">Query Dose Reports</tspan><tspan x="0" y="232.2" font-size="7" letter-spacing="86.856">	</tspan><tspan x="89.359" y="232.2" font-size="7" letter-spacing="87.854">	</tspan><tspan x="179.702" y="232.2" font-size="7" letter-spacing="87.854">	</tspan><tspan x="269.553" y="232.2" font-size="7" letter-spacing="87.854">	</tspan><tspan x="359.377" y="232.2" font-size="7">Retrieve Reports</tspan><tspan x="0" y="250.6" font-size="7" letter-spacing="86.856">	</tspan><tspan x="89.359" y="250.6" font-size="7" letter-spacing="87.854">	</tspan><tspan x="179.702" y="250.6" font-size="7" letter-spacing="87.854">	</tspan><tspan x="269.553" y="250.6" font-size="7" letter-spacing="87.854">	</tspan><tspan x="359.377" y="250.6" font-size="7" letter-spacing="87.854">	</tspan><tspan x="449.839" y="250.6" font-size="7">Submit Reports</tspan><tspan x="0" y="269" font-size="7" letter-spacing="86.856">	</tspan><tspan x="89.359" y="269" font-size="7" letter-spacing="87.854">	</tspan><tspan x="179.702" y="269" font-size="7" letter-spacing="87.854">	</tspan><tspan x="269.553" y="269" font-size="7" letter-spacing="87.854">	</tspan><tspan x="359.377" y="269" font-size="7" letter-spacing="87.854">	</tspan><tspan x="449.839" y="269" font-size="7" letter-spacing="87.854">	</tspan><tspan x="539.937" y="269" font-size="7">Perform Analysis</tspan></text>
	</g>
</g>
</svg>
