<?xml version="1.0" encoding="utf-8"?>

<!DOCTYPE svg PUBLIC "-//W3C//DTD SVG 1.1//EN" "http://www.w3.org/Graphics/SVG/1.1/DTD/svg11.dtd">
<svg version="1.1" id="Layer_1" xmlns="http://www.w3.org/2000/svg" xmlns:xlink="http://www.w3.org/1999/xlink" x="0px" y="0px"
	 width="502px" height="1022px" viewBox="0 0 502 1022" enable-background="new 0 0 502 1022" xml:space="preserve">

<defs>
	<style type="text/css">
	text {
	  font-family: Helvetica, Verdana, ArialUnicodeMS, san-serif
	}
	</style>
</defs>

<g>
   <desc>
	PS 3.17 Part 17: Explanatory Information
   </desc>
</g>

<g>
<rect x="1" y="1" fill="#F5EED6" width="500" height="1020"/>
<g>
	<rect x="324.404" y="19.064" fill="none" width="157.383" height="303.217"/>
	<text transform="matrix(0.9288 0 0 1 324.4043 24.791)"><tspan x="0" y="0" font-size="8">= DERIVED\...</tspan><tspan x="0" y="14" font-size="8">= UID “D”</tspan><tspan x="0" y="98" font-size="8">= SUBTRACTION</tspan><tspan x="0" y="140" font-size="8">= 113062</tspan><tspan x="0" y="154" font-size="8">= DCM</tspan><tspan x="0" y="168" font-size="8">= Pixel by pixel subtraction</tspan><tspan x="0" y="210" font-size="8">= 1.2.840.10008.5.1.4.1.1.12.1.1</tspan><tspan x="0" y="224" font-size="8">= UID “A”</tspan><tspan x="0" y="266" font-size="8">= 121321</tspan><tspan x="0" y="280" font-size="8">= DCM</tspan><tspan x="0" y="294" font-size="8">= Mask image for image processing operation</tspan></text>
	<rect x="324.404" y="339.422" fill="none" width="157.383" height="666.98"/>
	<text transform="matrix(0.9288 0 0 1 324.4043 345.1343)"><tspan x="0" y="0" font-size="8">= 1.2.840.10008.5.1.4.1.1.12.1.1</tspan><tspan x="0" y="14" font-size="8">= UID “B”</tspan><tspan x="0" y="56" font-size="8">= 121322</tspan><tspan x="0" y="70" font-size="8">= DCM</tspan><tspan x="0" y="84" font-size="8">= Source image for image processing operation</tspan><tspan x="0" y="112" font-size="8">= FILTER and ZOOM</tspan><tspan x="0" y="154" font-size="8">= 113086</tspan><tspan x="0" y="168" font-size="8">= DCM</tspan><tspan x="0" y="182" font-size="8">= Edge enhancement</tspan><tspan x="0" y="210" font-size="8">= 113085</tspan><tspan x="0" y="224" font-size="8">= DCM</tspan><tspan x="0" y="238" font-size="8">= Spatial resampling</tspan><tspan x="0" y="280" font-size="8">= 1.2.840.10008.5.1.4.1.1.12.1.1</tspan><tspan x="0" y="294" font-size="8">= UID “C”</tspan><tspan x="0" y="336" font-size="8">= 121322</tspan><tspan x="0" y="350" font-size="8">= DCM</tspan><tspan x="0" y="364" font-size="8">= Source image for image processing operation</tspan><tspan x="0" y="406" font-size="8">= FILTER and ZOOM</tspan><tspan x="0" y="448" font-size="8">= 113086</tspan><tspan x="0" y="462" font-size="8">= DCM</tspan><tspan x="0" y="476" font-size="8">= Edge enhancement</tspan><tspan x="0" y="504" font-size="8">= 113085</tspan><tspan x="0" y="518" font-size="8">= DCM</tspan><tspan x="0" y="532" font-size="8">= Spatial resampling</tspan><tspan x="0" y="546" font-size="8">= Time filtered</tspan><tspan x="0" y="588" font-size="8">= DERIVED\...</tspan><tspan x="0" y="602" font-size="8">= OTHER</tspan><tspan x="0" y="616" font-size="8">= 1</tspan><tspan x="0" y="630" font-size="8">= UNIFORM</tspan><tspan x="0" y="644" font-size="8">= FRAME_AVERAGING\DIGITAL_SUBTR\</tspan><tspan x="0" y="653.6" font-size="8">HIGH_PASS_FILTER\SPATIAL_RESAMPLING</tspan></text>
	
		<rect x="20.213" y="57.587" fill="#B2CEE7" stroke="#010101" stroke-width="0.75" stroke-linecap="round" stroke-linejoin="round" stroke-miterlimit="1" width="286.333" height="948.82"/>
	
		<rect x="36.989" y="71.585" fill="#86B2D8" stroke="#010101" stroke-width="0.75" stroke-linecap="round" stroke-linejoin="round" stroke-miterlimit="1" width="269.576" height="934.817"/>
	
		<rect x="20.213" y="43.589" fill="#B2CEE7" stroke="#010101" stroke-width="0.75" stroke-linecap="round" stroke-linejoin="round" stroke-miterlimit="1" width="286.333" height="13.998"/>
	<rect x="24.354" y="61.059" fill="none" width="164.911" height="7.717"/>
	<text transform="matrix(0.9288 0 0 1 24.3579 66.7832)" font-size="8">Shared Functional Groups Sequence</text>
	<rect x="24.354" y="47.061" fill="none" width="164.911" height="7.717"/>
	<text transform="matrix(0.9288 0 0 1 24.3579 52.7852)" font-size="8">...</text>
	
		<rect x="20.213" y="29.591" fill="#B2CEE7" stroke="#010101" stroke-width="0.75" stroke-linecap="round" stroke-linejoin="round" stroke-miterlimit="1" width="286.333" height="13.998"/>
	<rect x="24.354" y="33.062" fill="none" width="164.911" height="7.717"/>
	<text transform="matrix(0.9288 0 0 1 24.3579 38.7871)" font-size="8">SOP Instance UID</text>
	
		<rect x="20.213" y="15.593" fill="#B2CEE7" stroke="#010101" stroke-width="0.75" stroke-linecap="round" stroke-linejoin="round" stroke-miterlimit="1" width="286.333" height="13.998"/>
	<rect x="24.354" y="19.064" fill="none" width="164.911" height="7.717"/>
	<text transform="matrix(0.9288 0 0 1 24.3579 24.7891)" font-size="8">Image Type</text>
	
		<rect x="53.785" y="85.225" fill="#FFFFFF" stroke="#010101" stroke-width="0.75" stroke-linecap="round" stroke-linejoin="round" stroke-miterlimit="1" width="252.762" height="627.648"/>
	
		<rect x="65.744" y="99.272" fill="#86B2D8" stroke="#010101" stroke-width="0.75" stroke-linecap="round" stroke-linejoin="round" stroke-miterlimit="1" width="240.821" height="334.567"/>
	
		<rect x="78.448" y="127.178" fill="#FFFFFF" stroke="#010101" stroke-width="0.75" stroke-linecap="round" stroke-linejoin="round" stroke-miterlimit="1" width="228.117" height="69.754"/>
	
		<rect x="91.448" y="141.13" fill="#86B2D8" stroke="#010101" stroke-width="0.75" stroke-linecap="round" stroke-linejoin="round" stroke-miterlimit="1" width="215.117" height="55.802"/>
	
		<rect x="104.136" y="155.13" fill="#FFFFFF" stroke="#010101" stroke-width="0.75" stroke-linecap="round" stroke-linejoin="round" stroke-miterlimit="1" width="202.428" height="14"/>
	
		<rect x="104.136" y="182.933" fill="#FFFFFF" stroke="#010101" stroke-width="0.75" stroke-linecap="round" stroke-linejoin="round" stroke-miterlimit="1" width="202.428" height="14"/>
	<rect x="108.407" y="159.716" fill="none" width="127.75" height="7.721"/>
	<text transform="matrix(0.9288 0 0 1 108.4116 165.4282)" font-size="8">&gt;&gt;&gt;Code Value</text>
	<rect x="261.305" y="186.074" fill="none" width="44.984" height="7.717"/>
	<text transform="matrix(0.9288 0 0 1 261.2852 191.7837)" font-size="8">(0008,0104)</text>
	<rect x="57.911" y="89.813" fill="none" width="158.98" height="7.717"/>
	<text transform="matrix(0.9288 0 0 1 57.9155 95.5376)" font-size="8">&gt;Derivation Image Sequence</text>
	<rect x="261.305" y="89.814" fill="none" width="44.984" height="7.716"/>
	<text transform="matrix(0.9288 0 0 1 261.2852 95.5396)" font-size="8">(0008,9124)</text>
	<rect x="261.305" y="61.059" fill="none" width="44.984" height="7.716"/>
	<text transform="matrix(0.9288 0 0 1 261.2852 66.7837)" font-size="8">(5200,9229)</text>
	
		<rect x="78.448" y="113.225" fill="#FFFFFF" stroke="#010101" stroke-width="0.75" stroke-linecap="round" stroke-linejoin="round" stroke-miterlimit="1" width="228.117" height="14"/>
	
		<rect x="104.136" y="169.13" fill="#FFFFFF" stroke="#010101" stroke-width="0.75" stroke-linecap="round" stroke-linejoin="round" stroke-miterlimit="1" width="202.428" height="14"/>
	<rect x="73.202" y="103.968" fill="none" width="108.835" height="7.717"/>
	<text transform="matrix(0.9288 0 0 1 73.2065 109.6948)" font-size="8">Item 1</text>
	<rect x="85.907" y="131.801" fill="none" width="136.597" height="7.717"/>
	<text transform="matrix(0.9288 0 0 1 85.9111 137.5215)" font-size="8">&gt;&gt;Derivation Code Sequence</text>
	<rect x="39.594" y="76.171" fill="none" width="127.731" height="7.721"/>
	<text transform="matrix(0.9288 0 0 1 39.5986 81.895)" font-size="8">Item 1</text>
	<rect x="261.707" y="131.801" fill="none" width="44.582" height="7.717"/>
	<text transform="matrix(0.9288 0 0 1 261.6875 137.5244)" font-size="8">(0008,9215)</text>
	<rect x="85.907" y="117.885" fill="none" width="136.597" height="7.717"/>
	<text transform="matrix(0.9288 0 0 1 85.9111 123.6035)" font-size="8">&gt;&gt;Derivation Description</text>
	<rect x="261.707" y="117.885" fill="none" width="44.582" height="7.717"/>
	<text transform="matrix(0.9288 0 0 1 261.6875 123.6089)" font-size="8">(0008,2111)</text>
	<rect x="98.907" y="145.718" fill="none" width="158.987" height="7.717"/>
	<text transform="matrix(0.9288 0 0 1 98.9121 151.4438)" font-size="8">Item 1</text>
	<rect x="261.305" y="159.719" fill="none" width="44.984" height="7.716"/>
	<text transform="matrix(0.9288 0 0 1 261.2852 165.4277)" font-size="8">(0008,0100)</text>
	<rect x="261.305" y="172.272" fill="none" width="44.984" height="7.716"/>
	<text transform="matrix(0.9288 0 0 1 261.2852 177.9814)" font-size="8">(0008,0102)</text>
	<rect x="261.305" y="33.063" fill="none" width="44.984" height="7.716"/>
	<text transform="matrix(0.9288 0 0 1 261.2852 38.7876)" font-size="8">(0020,000E)</text>
	<rect x="261.305" y="19.065" fill="none" width="44.984" height="7.716"/>
	<text transform="matrix(0.9288 0 0 1 261.2852 24.7896)" font-size="8">(0008,0008)</text>
	<rect x="108.407" y="172.27" fill="none" width="111.413" height="7.721"/>
	<text transform="matrix(0.9288 0 0 1 108.4116 177.9819)" font-size="8">&gt;&gt;&gt;Coding Scheme Designator</text>
	<rect x="108.407" y="186.072" fill="none" width="111.698" height="7.721"/>
	<text transform="matrix(0.9288 0 0 1 108.4116 191.7842)" font-size="8">&gt;&gt;&gt;Code Meaning</text>
	
		<rect x="53.785" y="713.199" fill="#FFFFFF" stroke="#010101" stroke-width="0.75" stroke-linecap="round" stroke-linejoin="round" stroke-miterlimit="1" width="252.762" height="181.511"/>
	
		<rect x="65.744" y="727.246" fill="#86B2D8" stroke="#010101" stroke-width="0.75" stroke-linecap="round" stroke-linejoin="round" stroke-miterlimit="1" width="240.821" height="167.465"/>
	
		<rect x="78.448" y="755.152" fill="#FFFFFF" stroke="#010101" stroke-width="0.75" stroke-linecap="round" stroke-linejoin="round" stroke-miterlimit="1" width="228.117" height="125.558"/>
	
		<rect x="91.448" y="769.104" fill="#86B2D8" stroke="#010101" stroke-width="0.75" stroke-linecap="round" stroke-linejoin="round" stroke-miterlimit="1" width="215.117" height="55.802"/>
	
		<rect x="104.136" y="783.105" fill="#FFFFFF" stroke="#010101" stroke-width="0.75" stroke-linecap="round" stroke-linejoin="round" stroke-miterlimit="1" width="202.428" height="14"/>
	
		<rect x="104.136" y="810.907" fill="#FFFFFF" stroke="#010101" stroke-width="0.75" stroke-linecap="round" stroke-linejoin="round" stroke-miterlimit="1" width="202.428" height="14"/>
	<rect x="108.407" y="787.691" fill="none" width="127.75" height="7.721"/>
	<text transform="matrix(0.9288 0 0 1 108.4116 793.3984)" font-size="8">&gt;&gt;&gt;Code Value</text>
	<rect x="261.305" y="814.049" fill="none" width="44.984" height="7.717"/>
	<text transform="matrix(0.9288 0 0 1 261.2852 819.7539)" font-size="8">(0008,0104)</text>
	<rect x="57.911" y="716.706" fill="none" width="158.98" height="7.717"/>
	<text transform="matrix(0.9288 0 0 1 57.9155 722.4141)" font-size="8">&gt;XA/XRF Frame Characteristics Sequence</text>
	<rect x="261.305" y="716.707" fill="none" width="44.984" height="7.715"/>
	<text transform="matrix(0.9288 0 0 1 261.2852 722.4141)" font-size="8">(0018,9412)</text>
	
		<rect x="78.448" y="741.199" fill="#FFFFFF" stroke="#010101" stroke-width="0.75" stroke-linecap="round" stroke-linejoin="round" stroke-miterlimit="1" width="228.117" height="14"/>
	
		<rect x="104.136" y="797.105" fill="#FFFFFF" stroke="#010101" stroke-width="0.75" stroke-linecap="round" stroke-linejoin="round" stroke-miterlimit="1" width="202.428" height="14"/>
	<rect x="73.202" y="731.943" fill="none" width="108.835" height="7.717"/>
	<text transform="matrix(0.9288 0 0 1 73.2065 737.6494)" font-size="8">Item 1</text>
	<rect x="85.907" y="759.775" fill="none" width="136.597" height="7.717"/>
	<text transform="matrix(0.9288 0 0 1 85.9111 765.4766)" font-size="8">&gt;&gt;Derivation Code Sequence</text>
	<rect x="261.707" y="759.775" fill="none" width="44.582" height="7.717"/>
	<text transform="matrix(0.9288 0 0 1 261.6875 765.4805)" font-size="8">(0008,9215)</text>
	<rect x="85.907" y="744.34" fill="none" width="136.597" height="7.717"/>
	<text transform="matrix(0.9288 0 0 1 85.9111 750.04)" font-size="8">&gt;&gt;Derivation Description</text>
	<rect x="261.707" y="744.342" fill="none" width="44.582" height="7.717"/>
	<text transform="matrix(0.9288 0 0 1 261.6875 750.0469)" font-size="8">(0008,2111)</text>
	
		<rect x="78.448" y="880.71" fill="#FFFFFF" stroke="#010101" stroke-width="0.75" stroke-linecap="round" stroke-linejoin="round" stroke-miterlimit="1" width="228.117" height="14"/>
	<rect x="85.907" y="883.852" fill="none" width="171.978" height="7.717"/>
	<text transform="matrix(0.9288 0 0 1 85.9082 889.5586)" font-size="8">&gt;&gt;Acquisition Device Processing Description</text>
	<rect x="261.707" y="883.852" fill="none" width="44.582" height="7.717"/>
	<text transform="matrix(0.9288 0 0 1 261.6875 889.5566)" font-size="8">(0018,1400)</text>
	<rect x="98.907" y="773.693" fill="none" width="158.987" height="7.717"/>
	<text transform="matrix(0.9288 0 0 1 98.9121 779.4004)" font-size="8">Item 1</text>
	<rect x="261.305" y="787.693" fill="none" width="44.984" height="7.716"/>
	<text transform="matrix(0.9288 0 0 1 261.2852 793.3975)" font-size="8">(0008,0100)</text>
	<rect x="261.305" y="800.247" fill="none" width="44.984" height="7.716"/>
	<text transform="matrix(0.9288 0 0 1 261.2852 805.9512)" font-size="8">(0008,0102)</text>
	<rect x="108.407" y="800.244" fill="none" width="111.413" height="7.721"/>
	<text transform="matrix(0.9288 0 0 1 108.4116 805.9521)" font-size="8">&gt;&gt;&gt;Coding Scheme Designator</text>
	<rect x="108.407" y="814.047" fill="none" width="111.698" height="7.721"/>
	<text transform="matrix(0.9288 0 0 1 108.4116 819.7539)" font-size="8">&gt;&gt;&gt;Code Meaning</text>
	
		<rect x="91.448" y="824.907" fill="#86B2D8" stroke="#010101" stroke-width="0.75" stroke-linecap="round" stroke-linejoin="round" stroke-miterlimit="1" width="215.117" height="55.802"/>
	
		<rect x="104.136" y="838.908" fill="#FFFFFF" stroke="#010101" stroke-width="0.75" stroke-linecap="round" stroke-linejoin="round" stroke-miterlimit="1" width="202.428" height="14"/>
	
		<rect x="104.136" y="866.71" fill="#FFFFFF" stroke="#010101" stroke-width="0.75" stroke-linecap="round" stroke-linejoin="round" stroke-miterlimit="1" width="202.428" height="14"/>
	<rect x="108.407" y="843.494" fill="none" width="127.75" height="7.721"/>
	<text transform="matrix(0.9288 0 0 1 108.4116 849.2012)" font-size="8">&gt;&gt;&gt;Code Value</text>
	<rect x="261.305" y="869.852" fill="none" width="44.984" height="7.717"/>
	<text transform="matrix(0.9288 0 0 1 261.2852 875.5566)" font-size="8">(0008,0104)</text>
	
		<rect x="104.136" y="852.908" fill="#FFFFFF" stroke="#010101" stroke-width="0.75" stroke-linecap="round" stroke-linejoin="round" stroke-miterlimit="1" width="202.428" height="14"/>
	<rect x="98.907" y="829.496" fill="none" width="158.987" height="7.717"/>
	<text transform="matrix(0.9288 0 0 1 98.9121 835.2031)" font-size="8">Item 2</text>
	<rect x="261.305" y="843.496" fill="none" width="44.984" height="7.716"/>
	<text transform="matrix(0.9288 0 0 1 261.2852 849.2002)" font-size="8">(0008,0100)</text>
	<rect x="261.305" y="856.05" fill="none" width="44.984" height="7.716"/>
	<text transform="matrix(0.9288 0 0 1 261.2852 861.7539)" font-size="8">(0008,0102)</text>
	<rect x="108.407" y="856.047" fill="none" width="111.413" height="7.721"/>
	<text transform="matrix(0.9288 0 0 1 108.4116 861.7549)" font-size="8">&gt;&gt;&gt;Coding Scheme Designator</text>
	<rect x="108.407" y="869.85" fill="none" width="111.698" height="7.721"/>
	<text transform="matrix(0.9288 0 0 1 108.4116 875.5566)" font-size="8">&gt;&gt;&gt;Code Meaning</text>
	
		<rect x="53.785" y="894.71" fill="#FFFFFF" stroke="#010101" stroke-width="0.75" stroke-linecap="round" stroke-linejoin="round" stroke-miterlimit="1" width="252.762" height="97.845"/>
	
		<rect x="65.744" y="908.757" fill="#86B2D8" stroke="#010101" stroke-width="0.75" stroke-linecap="round" stroke-linejoin="round" stroke-miterlimit="1" width="240.821" height="83.732"/>
	
		<rect x="78.451" y="950.71" fill="#FFFFFF" stroke="#010101" stroke-width="0.75" stroke-linecap="round" stroke-linejoin="round" stroke-miterlimit="1" width="228.11" height="14"/>
	
		<rect x="78.451" y="936.711" fill="#FFFFFF" stroke="#010101" stroke-width="0.75" stroke-linecap="round" stroke-linejoin="round" stroke-miterlimit="1" width="228.11" height="14"/>
	
		<rect x="78.451" y="978.512" fill="#FFFFFF" stroke="#010101" stroke-width="0.75" stroke-linecap="round" stroke-linejoin="round" stroke-miterlimit="1" width="228.11" height="14"/>
	<rect x="85.907" y="953.85" fill="none" width="127.748" height="7.721"/>
	<text transform="matrix(0.9288 0 0 1 85.9116 959.5566)" font-size="8">&gt;&gt;Pixel Intensity Relationship Sign</text>
	<rect x="261.305" y="982.381" fill="none" width="44.984" height="7.717"/>
	<text transform="matrix(0.9288 0 0 1 261.2852 988.0859)" font-size="8">(0008,0104)</text>
	<rect x="57.911" y="898.217" fill="none" width="158.98" height="7.717"/>
	<text transform="matrix(0.9288 0 0 1 57.9155 903.9258)" font-size="8">&gt;Frame Pixel Data Properties Sequence</text>
	<rect x="261.305" y="898.218" fill="none" width="44.984" height="7.715"/>
	<text transform="matrix(0.9288 0 0 1 261.2852 903.9258)" font-size="8">(0028,9443)</text>
	
		<rect x="78.448" y="922.71" fill="#FFFFFF" stroke="#010101" stroke-width="0.75" stroke-linecap="round" stroke-linejoin="round" stroke-miterlimit="1" width="228.117" height="14"/>
	
		<rect x="78.451" y="964.71" fill="#FFFFFF" stroke="#010101" stroke-width="0.75" stroke-linecap="round" stroke-linejoin="round" stroke-miterlimit="1" width="228.11" height="14"/>
	<rect x="73.202" y="913.454" fill="none" width="108.835" height="7.717"/>
	<text transform="matrix(0.9288 0 0 1 73.2065 919.1611)" font-size="8">Item 1</text>
	<rect x="85.907" y="941.286" fill="none" width="136.597" height="7.717"/>
	<text transform="matrix(0.9288 0 0 1 85.9111 946.9883)" font-size="8">&gt;&gt;Pixel Intensity Relationship</text>
	<rect x="261.707" y="941.286" fill="none" width="44.582" height="7.717"/>
	<text transform="matrix(0.9288 0 0 1 261.6875 946.9922)" font-size="8">(0028,1040)</text>
	<rect x="85.907" y="925.851" fill="none" width="136.597" height="7.717"/>
	<text transform="matrix(0.9288 0 0 1 85.9111 931.5508)" font-size="8">&gt;&gt;Frame Type</text>
	<rect x="261.707" y="925.853" fill="none" width="44.582" height="7.717"/>
	<text transform="matrix(0.9288 0 0 1 261.6875 931.5576)" font-size="8">(0008,9007)</text>
	
		<rect x="53.784" y="992.407" fill="#FFFFFF" stroke="#010101" stroke-width="0.75" stroke-linecap="round" stroke-linejoin="round" stroke-miterlimit="1" width="252.781" height="14"/>
	<rect x="57.914" y="995.549" fill="none" width="171.977" height="7.717"/>
	<text transform="matrix(0.9288 0 0 1 57.9155 1001.2559)" font-size="8">...</text>
	<rect x="261.305" y="953.852" fill="none" width="44.984" height="7.717"/>
	<text transform="matrix(0.9288 0 0 1 261.2852 959.5566)" font-size="8">(0008,0100)</text>
	<rect x="261.305" y="967.852" fill="none" width="44.984" height="7.717"/>
	<text transform="matrix(0.9288 0 0 1 261.2852 973.5566)" font-size="8">(0008,0102)</text>
	<rect x="85.907" y="967.85" fill="none" width="111.41" height="7.721"/>
	<text transform="matrix(0.9288 0 0 1 85.9116 973.5576)" font-size="8">&gt;&gt;Geometrical Properties</text>
	<rect x="85.907" y="981.651" fill="none" width="111.695" height="7.721"/>
	<text transform="matrix(0.9288 0 0 1 85.9116 987.3584)" font-size="8">&gt;&gt;Image Processing Applied</text>
	
		<rect x="78.448" y="196.772" fill="#FFFFFF" stroke="#010101" stroke-width="0.75" stroke-linecap="round" stroke-linejoin="round" stroke-miterlimit="1" width="228.117" height="237.067"/>
	
		<rect x="91.448" y="210.724" fill="#86B2D8" stroke="#010101" stroke-width="0.75" stroke-linecap="round" stroke-linejoin="round" stroke-miterlimit="1" width="215.117" height="111.558"/>
	
		<rect x="104.136" y="224.725" fill="#FFFFFF" stroke="#010101" stroke-width="0.75" stroke-linecap="round" stroke-linejoin="round" stroke-miterlimit="1" width="202.428" height="14"/>
	
		<rect x="104.136" y="252.527" fill="#FFFFFF" stroke="#010101" stroke-width="0.75" stroke-linecap="round" stroke-linejoin="round" stroke-miterlimit="1" width="202.428" height="69.755"/>
	<rect x="108.407" y="227.864" fill="none" width="127.75" height="7.721"/>
	<text transform="matrix(0.9288 0 0 1 108.4116 233.5762)" font-size="8">&gt;&gt;&gt;Referenced SOP Class UID</text>
	<rect x="261.305" y="255.668" fill="none" width="44.984" height="7.717"/>
	<text transform="matrix(0.9288 0 0 1 261.2852 261.3779)" font-size="8">(0040,A170)</text>
	
		<rect x="104.136" y="238.725" fill="#FFFFFF" stroke="#010101" stroke-width="0.75" stroke-linecap="round" stroke-linejoin="round" stroke-miterlimit="1" width="202.428" height="14"/>
	<rect x="85.907" y="201.396" fill="none" width="136.597" height="7.717"/>
	<text transform="matrix(0.9288 0 0 1 85.9111 207.1016)" font-size="8">&gt;&gt;Source Image Sequence</text>
	<rect x="261.707" y="201.396" fill="none" width="44.582" height="7.717"/>
	<text transform="matrix(0.9288 0 0 1 261.6875 207.1055)" font-size="8">(0008,2112)</text>
	<rect x="261.707" y="227.866" fill="none" width="44.582" height="7.717"/>
	<text transform="matrix(0.9288 0 0 1 261.6875 233.5762)" font-size="8">(0008,1150)</text>
	<rect x="261.707" y="241.866" fill="none" width="44.582" height="7.717"/>
	<text transform="matrix(0.9288 0 0 1 261.6875 247.5762)" font-size="8">(0008,1155)</text>
	<rect x="98.907" y="215.312" fill="none" width="158.987" height="7.717"/>
	<text transform="matrix(0.9288 0 0 1 98.9121 221.0244)" font-size="8">Item 1</text>
	<rect x="108.407" y="241.864" fill="none" width="114.226" height="7.721"/>
	<text transform="matrix(0.9288 0 0 1 108.4116 247.5762)" font-size="8">&gt;&gt;&gt;Referenced SOP Instance UID</text>
	<rect x="108.407" y="255.667" fill="none" width="142.799" height="7.721"/>
	<text transform="matrix(0.9288 0 0 1 108.4116 261.3784)" font-size="8">&gt;&gt;&gt;Purpose of Reference Code Sequence</text>
	
		<rect x="117.265" y="266.479" fill="#86B2D8" stroke="#010101" stroke-width="0.75" stroke-linecap="round" stroke-linejoin="round" stroke-miterlimit="1" width="189.286" height="55.802"/>
	
		<rect x="129.954" y="280.479" fill="#FFFFFF" stroke="#010101" stroke-width="0.75" stroke-linecap="round" stroke-linejoin="round" stroke-miterlimit="1" width="176.597" height="14"/>
	
		<rect x="129.954" y="308.282" fill="#FFFFFF" stroke="#010101" stroke-width="0.75" stroke-linecap="round" stroke-linejoin="round" stroke-miterlimit="1" width="176.597" height="14"/>
	<rect x="134.224" y="283.619" fill="none" width="123.659" height="7.721"/>
	<text transform="matrix(0.9288 0 0 1 134.2256 289.3311)" font-size="8">&gt;&gt;&gt;&gt;Code Value</text>
	<rect x="261.307" y="311.063" fill="none" width="44.984" height="7.717"/>
	<text transform="matrix(0.9288 0 0 1 261.2852 316.7729)" font-size="8">(0008,0104)</text>
	
		<rect x="129.954" y="294.479" fill="#FFFFFF" stroke="#010101" stroke-width="0.75" stroke-linecap="round" stroke-linejoin="round" stroke-miterlimit="1" width="176.597" height="14"/>
	<rect x="261.307" y="283.261" fill="none" width="44.582" height="7.717"/>
	<text transform="matrix(0.9288 0 0 1 261.2852 288.9712)" font-size="8">(0008,0100)</text>
	<rect x="261.307" y="297.261" fill="none" width="44.582" height="7.717"/>
	<text transform="matrix(0.9288 0 0 1 261.2852 302.9712)" font-size="8">(0008,0102)</text>
	<rect x="124.724" y="271.067" fill="none" width="158.989" height="7.717"/>
	<text transform="matrix(0.9288 0 0 1 124.7295 276.7793)" font-size="8">Item 1</text>
	<rect x="134.223" y="297.619" fill="none" width="123.955" height="7.721"/>
	<text transform="matrix(0.9288 0 0 1 134.2251 303.3311)" font-size="8">&gt;&gt;&gt;&gt;Coding Scheme Designator</text>
	<rect x="134.224" y="311.421" fill="none" width="123.952" height="7.721"/>
	<text transform="matrix(0.9288 0 0 1 134.2261 317.1333)" font-size="8">&gt;&gt;&gt;&gt;Code Meaning</text>
	
		<rect x="91.448" y="322.281" fill="#86B2D8" stroke="#010101" stroke-width="0.75" stroke-linecap="round" stroke-linejoin="round" stroke-miterlimit="1" width="215.117" height="111.558"/>
	
		<rect x="104.136" y="336.281" fill="#FFFFFF" stroke="#010101" stroke-width="0.75" stroke-linecap="round" stroke-linejoin="round" stroke-miterlimit="1" width="202.428" height="14"/>
	
		<rect x="104.136" y="364.084" fill="#FFFFFF" stroke="#010101" stroke-width="0.75" stroke-linecap="round" stroke-linejoin="round" stroke-miterlimit="1" width="202.428" height="69.755"/>
	<rect x="108.407" y="339.422" fill="none" width="127.75" height="7.721"/>
	<text transform="matrix(0.9288 0 0 1 108.4116 345.1333)" font-size="8">&gt;&gt;&gt;Referenced SOP Class UID</text>
	<rect x="261.305" y="367.226" fill="none" width="44.984" height="7.717"/>
	<text transform="matrix(0.9288 0 0 1 261.2852 372.9351)" font-size="8">(0040,A170)</text>
	
		<rect x="104.136" y="350.281" fill="#FFFFFF" stroke="#010101" stroke-width="0.75" stroke-linecap="round" stroke-linejoin="round" stroke-miterlimit="1" width="202.428" height="14"/>
	<rect x="261.707" y="339.424" fill="none" width="44.582" height="7.717"/>
	<text transform="matrix(0.9288 0 0 1 261.6875 345.1333)" font-size="8">(0008,1150)</text>
	<rect x="261.707" y="353.424" fill="none" width="44.582" height="7.717"/>
	<text transform="matrix(0.9288 0 0 1 261.6875 359.1333)" font-size="8">(0008,1155)</text>
	<rect x="98.907" y="326.87" fill="none" width="158.987" height="7.717"/>
	<text transform="matrix(0.9288 0 0 1 98.9121 332.5815)" font-size="8">Item 2</text>
	<rect x="108.407" y="353.422" fill="none" width="114.226" height="7.721"/>
	<text transform="matrix(0.9288 0 0 1 108.4116 359.1333)" font-size="8">&gt;&gt;&gt;Referenced SOP Instance UID</text>
	<rect x="108.407" y="367.224" fill="none" width="142.799" height="7.721"/>
	<text transform="matrix(0.9288 0 0 1 108.4116 372.9355)" font-size="8">&gt;&gt;&gt;Purpose of Reference Code Sequence</text>
	
		<rect x="117.265" y="378.036" fill="#86B2D8" stroke="#010101" stroke-width="0.75" stroke-linecap="round" stroke-linejoin="round" stroke-miterlimit="1" width="189.286" height="55.802"/>
	
		<rect x="129.954" y="392.037" fill="#FFFFFF" stroke="#010101" stroke-width="0.75" stroke-linecap="round" stroke-linejoin="round" stroke-miterlimit="1" width="176.597" height="14"/>
	
		<rect x="129.954" y="419.839" fill="#FFFFFF" stroke="#010101" stroke-width="0.75" stroke-linecap="round" stroke-linejoin="round" stroke-miterlimit="1" width="176.597" height="14"/>
	<rect x="134.224" y="395.176" fill="none" width="123.659" height="7.721"/>
	<text transform="matrix(0.9288 0 0 1 134.2256 400.8882)" font-size="8">&gt;&gt;&gt;&gt;Code Value</text>
	<rect x="261.307" y="422.621" fill="none" width="44.984" height="7.717"/>
	<text transform="matrix(0.9288 0 0 1 261.2852 428.3301)" font-size="8">(0008,0104)</text>
	
		<rect x="129.954" y="406.037" fill="#FFFFFF" stroke="#010101" stroke-width="0.75" stroke-linecap="round" stroke-linejoin="round" stroke-miterlimit="1" width="176.597" height="14"/>
	<rect x="261.307" y="394.818" fill="none" width="44.582" height="7.717"/>
	<text transform="matrix(0.9288 0 0 1 261.2852 400.5283)" font-size="8">(0008,0100)</text>
	<rect x="261.307" y="408.818" fill="none" width="44.582" height="7.717"/>
	<text transform="matrix(0.9288 0 0 1 261.2852 414.5283)" font-size="8">(0008,0102)</text>
	<rect x="124.724" y="382.625" fill="none" width="158.989" height="7.717"/>
	<text transform="matrix(0.9288 0 0 1 124.7295 388.3364)" font-size="8">Item 1</text>
	<rect x="134.223" y="409.176" fill="none" width="123.955" height="7.721"/>
	<text transform="matrix(0.9288 0 0 1 134.2251 414.8882)" font-size="8">&gt;&gt;&gt;&gt;Coding Scheme Designator</text>
	<rect x="134.224" y="422.979" fill="none" width="123.952" height="7.721"/>
	<text transform="matrix(0.9288 0 0 1 134.2261 428.6904)" font-size="8">&gt;&gt;&gt;&gt;Code Meaning</text>
	
		<rect x="65.744" y="433.836" fill="#86B2D8" stroke="#010101" stroke-width="0.75" stroke-linecap="round" stroke-linejoin="round" stroke-miterlimit="1" width="240.821" height="279.037"/>
	
		<rect x="78.448" y="461.741" fill="#FFFFFF" stroke="#010101" stroke-width="0.75" stroke-linecap="round" stroke-linejoin="round" stroke-miterlimit="1" width="228.117" height="125.558"/>
	
		<rect x="91.448" y="475.693" fill="#86B2D8" stroke="#010101" stroke-width="0.75" stroke-linecap="round" stroke-linejoin="round" stroke-miterlimit="1" width="215.117" height="55.803"/>
	
		<rect x="104.136" y="489.693" fill="#FFFFFF" stroke="#010101" stroke-width="0.75" stroke-linecap="round" stroke-linejoin="round" stroke-miterlimit="1" width="202.428" height="14"/>
	
		<rect x="104.136" y="517.496" fill="#FFFFFF" stroke="#010101" stroke-width="0.75" stroke-linecap="round" stroke-linejoin="round" stroke-miterlimit="1" width="202.428" height="14"/>
	<rect x="108.407" y="494.279" fill="none" width="127.75" height="7.721"/>
	<text transform="matrix(0.9288 0 0 1 108.4116 499.9961)" font-size="8">&gt;&gt;&gt;Code Value</text>
	<rect x="261.305" y="520.638" fill="none" width="44.984" height="7.717"/>
	<text transform="matrix(0.9288 0 0 1 261.2852 526.3516)" font-size="8">(0008,0104)</text>
	
		<rect x="78.448" y="447.789" fill="#FFFFFF" stroke="#010101" stroke-width="0.75" stroke-linecap="round" stroke-linejoin="round" stroke-miterlimit="1" width="228.117" height="14"/>
	
		<rect x="104.136" y="503.693" fill="#FFFFFF" stroke="#010101" stroke-width="0.75" stroke-linecap="round" stroke-linejoin="round" stroke-miterlimit="1" width="202.428" height="14"/>
	<rect x="73.202" y="438.531" fill="none" width="108.835" height="7.717"/>
	<text transform="matrix(0.9288 0 0 1 73.2065 444.248)" font-size="8">Item 2</text>
	<rect x="85.907" y="466.365" fill="none" width="136.597" height="7.717"/>
	<text transform="matrix(0.9288 0 0 1 85.9111 472.0752)" font-size="8">&gt;&gt;Derivation Code Sequence</text>
	<rect x="261.707" y="466.365" fill="none" width="44.582" height="7.717"/>
	<text transform="matrix(0.9288 0 0 1 261.6875 472.0791)" font-size="8">(0008,9215)</text>
	<rect x="85.907" y="452.449" fill="none" width="136.597" height="7.717"/>
	<text transform="matrix(0.9288 0 0 1 85.9111 458.1572)" font-size="8">&gt;&gt;Derivation Description</text>
	<rect x="261.707" y="452.449" fill="none" width="44.582" height="7.717"/>
	<text transform="matrix(0.9288 0 0 1 261.6875 458.1626)" font-size="8">(0008,2111)</text>
	<rect x="98.907" y="480.281" fill="none" width="158.987" height="7.717"/>
	<text transform="matrix(0.9288 0 0 1 98.9121 485.998)" font-size="8">Item 1</text>
	<rect x="261.305" y="494.282" fill="none" width="44.984" height="7.716"/>
	<text transform="matrix(0.9288 0 0 1 261.2852 499.9956)" font-size="8">(0008,0100)</text>
	<rect x="261.305" y="506.836" fill="none" width="44.984" height="7.716"/>
	<text transform="matrix(0.9288 0 0 1 261.2852 512.5488)" font-size="8">(0008,0102)</text>
	<rect x="108.407" y="506.834" fill="none" width="111.413" height="7.721"/>
	<text transform="matrix(0.9288 0 0 1 108.4116 512.5498)" font-size="8">&gt;&gt;&gt;Coding Scheme Designator</text>
	<rect x="108.407" y="520.636" fill="none" width="111.698" height="7.721"/>
	<text transform="matrix(0.9288 0 0 1 108.4116 526.3516)" font-size="8">&gt;&gt;&gt;Code Meaning</text>
	
		<rect x="91.448" y="531.496" fill="#86B2D8" stroke="#010101" stroke-width="0.75" stroke-linecap="round" stroke-linejoin="round" stroke-miterlimit="1" width="215.117" height="55.803"/>
	
		<rect x="104.136" y="545.496" fill="#FFFFFF" stroke="#010101" stroke-width="0.75" stroke-linecap="round" stroke-linejoin="round" stroke-miterlimit="1" width="202.428" height="14"/>
	
		<rect x="104.136" y="573.299" fill="#FFFFFF" stroke="#010101" stroke-width="0.75" stroke-linecap="round" stroke-linejoin="round" stroke-miterlimit="1" width="202.428" height="14"/>
	
		<rect x="78.448" y="587.299" fill="#FFFFFF" stroke="#010101" stroke-width="0.75" stroke-linecap="round" stroke-linejoin="round" stroke-miterlimit="1" width="228.117" height="125.574"/>
	<rect x="108.407" y="550.082" fill="none" width="127.75" height="7.721"/>
	<text transform="matrix(0.9288 0 0 1 108.4116 555.7988)" font-size="8">&gt;&gt;&gt;Code Value</text>
	<rect x="261.305" y="576.44" fill="none" width="44.984" height="7.717"/>
	<text transform="matrix(0.9288 0 0 1 261.2852 582.1543)" font-size="8">(0008,0104)</text>
	
		<rect x="104.136" y="559.496" fill="#FFFFFF" stroke="#010101" stroke-width="0.75" stroke-linecap="round" stroke-linejoin="round" stroke-miterlimit="1" width="202.428" height="14"/>
	<rect x="98.907" y="536.084" fill="none" width="158.987" height="7.717"/>
	<text transform="matrix(0.9288 0 0 1 98.9121 541.8008)" font-size="8">Item 2</text>
	<rect x="261.305" y="550.085" fill="none" width="44.984" height="7.716"/>
	<text transform="matrix(0.9288 0 0 1 261.2852 555.7988)" font-size="8">(0008,0100)</text>
	<rect x="261.305" y="562.639" fill="none" width="44.984" height="7.716"/>
	<text transform="matrix(0.9288 0 0 1 261.2852 568.3516)" font-size="8">(0008,0102)</text>
	<rect x="108.407" y="562.637" fill="none" width="111.413" height="7.721"/>
	<text transform="matrix(0.9288 0 0 1 108.4116 568.3525)" font-size="8">&gt;&gt;&gt;Coding Scheme Designator</text>
	<rect x="108.407" y="576.438" fill="none" width="111.698" height="7.721"/>
	<text transform="matrix(0.9288 0 0 1 108.4116 582.1543)" font-size="8">&gt;&gt;&gt;Code Meaning</text>
	
		<rect x="91.448" y="601.312" fill="#86B2D8" stroke="#010101" stroke-width="0.75" stroke-linecap="round" stroke-linejoin="round" stroke-miterlimit="1" width="215.117" height="111.559"/>
	
		<rect x="104.136" y="615.312" fill="#FFFFFF" stroke="#010101" stroke-width="0.75" stroke-linecap="round" stroke-linejoin="round" stroke-miterlimit="1" width="202.428" height="14"/>
	
		<rect x="104.136" y="643.114" fill="#FFFFFF" stroke="#010101" stroke-width="0.75" stroke-linecap="round" stroke-linejoin="round" stroke-miterlimit="1" width="202.428" height="69.756"/>
	<rect x="108.407" y="618.452" fill="none" width="127.75" height="7.721"/>
	<text transform="matrix(0.9288 0 0 1 108.4116 624.1719)" font-size="8">&gt;&gt;&gt;Referenced SOP Class UID</text>
	<rect x="261.305" y="646.257" fill="none" width="44.984" height="7.717"/>
	<text transform="matrix(0.9288 0 0 1 261.2852 651.9727)" font-size="8">(0040,A170)</text>
	
		<rect x="104.136" y="629.312" fill="#FFFFFF" stroke="#010101" stroke-width="0.75" stroke-linecap="round" stroke-linejoin="round" stroke-miterlimit="1" width="202.428" height="14"/>
	<rect x="85.907" y="591.983" fill="none" width="136.597" height="7.717"/>
	<text transform="matrix(0.9288 0 0 1 85.9111 597.6973)" font-size="8">&gt;&gt;Source Image Sequence</text>
	<rect x="261.707" y="591.983" fill="none" width="44.582" height="7.717"/>
	<text transform="matrix(0.9288 0 0 1 261.6875 597.7012)" font-size="8">(0008,2112)</text>
	<rect x="261.707" y="618.454" fill="none" width="44.582" height="7.717"/>
	<text transform="matrix(0.9288 0 0 1 261.6875 624.1719)" font-size="8">(0008,1150)</text>
	<rect x="261.707" y="632.454" fill="none" width="44.582" height="7.717"/>
	<text transform="matrix(0.9288 0 0 1 261.6875 638.1719)" font-size="8">(0008,1155)</text>
	<rect x="98.907" y="605.9" fill="none" width="158.987" height="7.717"/>
	<text transform="matrix(0.9288 0 0 1 98.9121 611.6201)" font-size="8">Item 1</text>
	<rect x="108.407" y="632.452" fill="none" width="114.226" height="7.721"/>
	<text transform="matrix(0.9288 0 0 1 108.4116 638.1719)" font-size="8">&gt;&gt;&gt;Referenced SOP Instance UID</text>
	<rect x="108.407" y="646.255" fill="none" width="142.799" height="7.721"/>
	<text transform="matrix(0.9288 0 0 1 108.4116 651.9736)" font-size="8">&gt;&gt;&gt;Purpose of Reference Code Sequence</text>
	
		<rect x="117.265" y="657.067" fill="#86B2D8" stroke="#010101" stroke-width="0.75" stroke-linecap="round" stroke-linejoin="round" stroke-miterlimit="1" width="189.286" height="55.802"/>
	
		<rect x="129.954" y="671.067" fill="#FFFFFF" stroke="#010101" stroke-width="0.75" stroke-linecap="round" stroke-linejoin="round" stroke-miterlimit="1" width="176.597" height="14"/>
	
		<rect x="129.954" y="698.87" fill="#FFFFFF" stroke="#010101" stroke-width="0.75" stroke-linecap="round" stroke-linejoin="round" stroke-miterlimit="1" width="176.597" height="14"/>
	<rect x="134.224" y="674.207" fill="none" width="123.659" height="7.721"/>
	<text transform="matrix(0.9288 0 0 1 134.2256 679.9258)" font-size="8">&gt;&gt;&gt;&gt;Code Value</text>
	<rect x="261.307" y="701.651" fill="none" width="44.984" height="7.717"/>
	<text transform="matrix(0.9288 0 0 1 261.2852 707.3682)" font-size="8">(0008,0104)</text>
	
		<rect x="129.954" y="685.067" fill="#FFFFFF" stroke="#010101" stroke-width="0.75" stroke-linecap="round" stroke-linejoin="round" stroke-miterlimit="1" width="176.597" height="14"/>
	<rect x="261.307" y="673.849" fill="none" width="44.582" height="7.717"/>
	<text transform="matrix(0.9288 0 0 1 261.2852 679.5664)" font-size="8">(0008,0100)</text>
	<rect x="261.307" y="687.849" fill="none" width="44.582" height="7.717"/>
	<text transform="matrix(0.9288 0 0 1 261.2852 693.5664)" font-size="8">(0008,0102)</text>
	<rect x="124.724" y="661.655" fill="none" width="158.989" height="7.717"/>
	<text transform="matrix(0.9288 0 0 1 124.7295 667.375)" font-size="8">Item 1</text>
	<rect x="134.223" y="688.207" fill="none" width="123.955" height="7.721"/>
	<text transform="matrix(0.9288 0 0 1 134.2251 693.9258)" font-size="8">&gt;&gt;&gt;&gt;Coding Scheme Designator</text>
	<rect x="134.224" y="702.009" fill="none" width="123.952" height="7.721"/>
	<text transform="matrix(0.9288 0 0 1 134.2261 707.7285)" font-size="8">&gt;&gt;&gt;&gt;Code Meaning</text>
</g>
</g>
</svg>
