<?xml version="1.0" encoding="utf-8"?>

<!DOCTYPE svg PUBLIC "-//W3C//DTD SVG 1.1//EN" "http://www.w3.org/Graphics/SVG/1.1/DTD/svg11.dtd">
<svg version="1.1" id="Layer_1" xmlns="http://www.w3.org/2000/svg" xmlns:xlink="http://www.w3.org/1999/xlink" x="0px" y="0px"
	 width="502.002px" height="312px" viewBox="0 0 502.002 312" enable-background="new 0 0 502.002 312" xml:space="preserve">

<defs>
	<style type="text/css">
	text {
	  font-family: Helvetica, Verdana, ArialUnicodeMS, san-serif
	}
	</style>
</defs>

<g>
   <desc>
	PS 3.17 Part 17: Explanatory Information
   </desc>
</g>

<g>
	<rect x="1" y="1" fill="#F5EED6" width="500.002" height="310"/>
	<g>
		
			<rect x="142.702" y="81.92" fill="#CCDEF0" stroke="#010101" stroke-width="0.75" stroke-linecap="round" stroke-linejoin="round" stroke-miterlimit="1" width="216.598" height="172.91"/>
		<g>
			<g>
				<path fill="none" stroke="#ED1C24" stroke-width="2" stroke-miterlimit="10" d="M253.563,116.464
					c41.553,0,75.236,37.433,75.236,83.608c0,42.179-28.104,77.062-64.64,82.785"/>
				<g>
					<polygon fill="#ED1C24" points="266.226,279.091 253.563,283.681 266.823,286.038 					"/>
				</g>
			</g>
		</g>
		<text transform="matrix(1 0 0 1 172.5532 62.5376)" font-size="9">DICOM Worklist</text>
		
			<rect x="159.565" y="16.32" fill="#86B2D8" stroke="#010101" stroke-width="0.75" stroke-linecap="round" stroke-linejoin="round" stroke-miterlimit="1" width="94" height="24"/>
		<g>
			<text transform="matrix(1 0 0 1 171.376 30.8252)" font-size="9">Procedure Orders</text>
		</g>
		<path id="path29274_7_" fill="#E6E6E6" stroke="#000000" stroke-width="0.5" stroke-linecap="round" stroke-linejoin="round" d="
			M200.72,154.464l1.594,1.594c0,3.899,0,6.111,0,10.098c-1.062,1.594-7.265,13.466-10.631,20.198
			c-1.062,2.126-1.061,4.783,0.534,6.909c1.063,1.595,2.919,2.128,4.781,2.128c6.378,0,12.757,0,19.135,0
			c1.862,0,3.718-0.533,4.781-2.128c1.595-2.126,1.597-4.783,0.534-6.909c-3.012-6.732-6.556-13.466-9.567-20.198
			c0-3.898,0-6.199,0-10.098l1.542-1.542l0.052-0.052H200.72z"/>
		<path id="path29274_6_" fill="#8DC63F" stroke="#000000" stroke-width="0.25" stroke-linecap="round" stroke-miterlimit="10" d="
			M199.938,170.409c-2.403,4.485-5.978,11.392-8.255,15.945c-1.062,2.126-1.061,4.783,0.534,6.909
			c1.063,1.595,2.919,2.128,4.781,2.128c6.378,0,12.757,0,19.135,0c1.862,0,3.718-0.533,4.781-2.128
			c1.595-2.126,1.597-4.783,0.534-6.909c-2.377-5.312-5.085-10.625-7.601-15.938L199.938,170.409z"/>
		<path id="path6038_3_" fill="#FFFFFF" d="M211.087,156.014c0,3.438,0,6.875,0,10.313c3.384,7.154,6.782,14.305,10.155,21.462
			c0.944,2.233-0.232,4.838-2.274,5.982c-1.819,1.222-4.062,0.75-6.111,0.834c-1.45,0-2.9,0-4.351,0
			c2.597-0.334,5.246-0.397,7.808-0.914c1.683-0.525,3.726-1.461,3.829-3.493c0.105-2.169-1.255-4.005-1.979-5.965
			c-2.609-5.969-5.218-11.938-7.827-17.906c0-3.438,0-6.875,0-10.313l1.356-1.362h0.754L211.087,156.014L211.087,156.014z"/>
		<path id="path1613_6_" fill="#010101" fill-opacity="0.1762" d="M203.208,156.014c0,3.438,0,6.875,0,10.313
			c-3.384,7.154-7.454,13.655-10.827,20.812c-0.943,2.234-0.188,5.25,1.688,6.562c1.875,0.938,1.312,0.75,3.433,0.996
			c1.449,0,6.838-0.093,8.287-0.093c-2.596-0.334-5.245-0.397-7.807-0.914c-1.683-0.525-3.727-1.461-3.829-3.493
			c-0.106-2.169,1.255-4.005,1.979-5.965c2.608-5.969,5.218-11.938,7.827-17.906c0-3.438,0-6.875,0-10.313l-1.355-1.362h-0.756
			L203.208,156.014L203.208,156.014z"/>
		
			<rect x="159.565" y="98.464" fill="#FFC20E" stroke="#010101" stroke-width="0.75" stroke-linecap="round" stroke-linejoin="round" stroke-miterlimit="1" width="94" height="36"/>
		<text transform="matrix(1 0 0 1 191.6265 108.1699)"><tspan x="0" y="0" font-size="9">Hot Lab</tspan><tspan x="-10.114" y="10.8" font-size="9">Management</tspan><tspan x="0.627" y="21.6" font-size="9">System</tspan></text>
		
			<rect x="159.565" y="214.769" fill="#B2CEE7" stroke="#010101" stroke-width="0.75" stroke-linecap="round" stroke-linejoin="round" stroke-miterlimit="1" width="94" height="24"/>
		
			<rect x="159.565" y="271.69" fill="#86B2D8" stroke="#010101" stroke-width="0.75" stroke-linecap="round" stroke-linejoin="round" stroke-miterlimit="1" width="94" height="24"/>
		<text transform="matrix(1 0 0 1 179.5034 286.1855)" font-size="9">Image Archive</text>
		<text transform="matrix(1 0 0 1 166.7715 223.874)"><tspan x="0" y="0" font-size="9">Radiopharmaceutical</tspan><tspan x="15.098" y="10.8" font-size="9">Administered</tspan></text>
		<rect x="159.565" y="174.929" opacity="0.6" fill="#FFFFFF" width="94" height="12"/>
		<text transform="matrix(1 0 0 1 166.7715 183.4102)" font-size="9">Radiopharmaceutical</text>
		<rect x="296.505" y="172.33" fill="#CCDEF0" width="44.529" height="17.197"/>
		<text transform="matrix(1 0 0 1 302.2969 184.4902)" font-size="9">RRD SR</text>
		<text transform="matrix(1 0 0 1 298.1943 77.3682)" font-size="9">Consistent Time</text>
		<g>
			<line x1="206.565" y1="189.155" x2="206.565" y2="212.509"/>
			<g>
				
					<line fill="none" stroke="#000000" stroke-width="2" stroke-miterlimit="1" x1="206.565" y1="189.155" x2="206.565" y2="205.421"/>
				<g>
					<polygon points="204.241,203.836 206.565,212.509 208.89,203.836 					"/>
				</g>
			</g>
		</g>
		<g>
			<line x1="206.565" y1="134.464" x2="206.565" y2="163.156"/>
			<g>
				
					<line fill="none" stroke="#000000" stroke-width="2" stroke-miterlimit="1" x1="206.565" y1="141.552" x2="206.565" y2="163.156"/>
				<g>
					<polygon points="204.241,143.137 206.565,134.464 208.89,143.137 					"/>
				</g>
			</g>
		</g>
		<g>
			<g>
				
					<line fill="none" stroke="#005695" stroke-width="2" stroke-miterlimit="1" x1="206.565" y1="66.096" x2="206.565" y2="90.657"/>
				<g>
					<polygon fill="#005695" points="204.241,89.072 206.565,97.745 208.89,89.072 					"/>
				</g>
			</g>
		</g>
		<line fill="none" stroke="#005695" stroke-width="2" stroke-miterlimit="1" x1="206.565" y1="40.32" x2="206.565" y2="53.149"/>
	</g>
</g>
</svg>
