<?xml version="1.0" encoding="utf-8"?>

<!DOCTYPE svg PUBLIC "-//W3C//DTD SVG 1.1//EN" "http://www.w3.org/Graphics/SVG/1.1/DTD/svg11.dtd">
<svg version="1.1" id="Layer_1" xmlns="http://www.w3.org/2000/svg" xmlns:xlink="http://www.w3.org/1999/xlink" x="0px" y="0px"
	 width="502.002px" height="397px" viewBox="0 0 502.002 397" enable-background="new 0 0 502.002 397" xml:space="preserve">

<defs>
	<style type="text/css">
	text {
	  font-family: Helvetica, Verdana, ArialUnicodeMS, san-serif
	}
	</style>
</defs>

<g>
   <desc>
	PS 3.17 Part 17: Explanatory Information
   </desc>
</g>

<g>
	<rect x="1" y="1" fill="#F5EED6" width="500.002" height="395"/>
	<g>
		
			<rect x="150.257" y="77.621" fill="#CCDEF0" stroke="#010101" stroke-width="0.75" stroke-linecap="round" stroke-linejoin="round" stroke-miterlimit="1" width="216.598" height="263.909"/>
		<g>
			<g>
				<path fill="none" stroke="#ED1C24" stroke-width="2" stroke-miterlimit="10" d="M261.118,112.165
					c41.553,0,75.236,59.516,75.236,132.933c0,67.091-28.129,122.572-64.688,131.636"/>
				<g>
					<polygon fill="#ED1C24" points="273.539,372.822 261.118,378.029 274.479,379.731 					"/>
				</g>
			</g>
		</g>
		<g>
			<g>
				<path fill="none" stroke="#ED1C24" stroke-width="2" stroke-miterlimit="10" d="M271.579,299.271
					c12.95,4.897,22.275,18.639,22.275,34.822c0,20.289-14.656,36.736-32.736,36.736"/>
				<g>
					<polygon fill="#ED1C24" points="273.155,303.396 261.118,297.355 274.563,296.567 					"/>
				</g>
			</g>
		</g>
		<g>
			<g>
				<line fill="none" stroke="#005695" stroke-width="3" stroke-miterlimit="1" x1="214.12" y1="334.309" x2="214.12" y2="350.35"/>
				<g>
					<polygon fill="#005695" points="210.634,347.972 214.12,360.98 217.606,347.972 					"/>
				</g>
			</g>
		</g>
		<line fill="none" stroke="#005695" stroke-width="3" stroke-miterlimit="1" x1="214.12" y1="310.035" x2="214.12" y2="322.309"/>
		<text transform="matrix(1 0 0 1 180.1079 58.2378)" font-size="9">DICOM Worklist</text>
		
			<rect x="167.12" y="12.02" fill="#86B2D8" stroke="#010101" stroke-width="0.75" stroke-linecap="round" stroke-linejoin="round" stroke-miterlimit="1" width="94" height="24"/>
		<g>
			<text transform="matrix(1 0 0 1 178.9307 26.5254)" font-size="9">Procedure Orders</text>
		</g>
		<path id="path29274_3_" fill="#E6E6E6" stroke="#000000" stroke-width="0.5" stroke-linecap="round" stroke-linejoin="round" d="
			M208.274,150.165l1.594,1.594c0,3.898,0,6.11,0,10.098c-1.062,1.594-7.265,13.466-10.631,20.198
			c-1.062,2.126-1.061,4.783,0.534,6.909c1.063,1.595,2.919,2.128,4.781,2.128c6.378,0,12.757,0,19.135,0
			c1.862,0,3.718-0.533,4.781-2.128c1.595-2.126,1.597-4.783,0.534-6.909c-3.012-6.732-6.556-13.466-9.567-20.198
			c0-3.898,0-6.199,0-10.098l1.542-1.542l0.052-0.052H208.274z"/>
		<path id="path29274_2_" fill="#8DC63F" stroke="#000000" stroke-width="0.25" stroke-linecap="round" stroke-miterlimit="10" d="
			M207.492,166.109c-2.403,4.485-5.978,11.392-8.255,15.945c-1.062,2.126-1.061,4.783,0.534,6.909
			c1.063,1.595,2.919,2.128,4.781,2.128c6.378,0,12.757,0,19.135,0c1.862,0,3.718-0.533,4.781-2.128
			c1.595-2.126,1.597-4.783,0.534-6.909c-2.377-5.312-5.085-10.625-7.601-15.938L207.492,166.109z"/>
		<path id="path6038_1_" fill="#FFFFFF" d="M218.642,151.714c0,3.438,0,6.875,0,10.312c3.384,7.154,6.782,14.305,10.155,21.462
			c0.944,2.233-0.232,4.838-2.274,5.982c-1.819,1.222-4.062,0.75-6.111,0.834c-1.45,0-2.9,0-4.351,0
			c2.597-0.334,5.246-0.397,7.808-0.914c1.683-0.525,3.726-1.461,3.829-3.493c0.105-2.169-1.255-4.005-1.979-5.965
			c-2.609-5.969-5.218-11.938-7.827-17.906c0-3.438,0-6.875,0-10.312l1.356-1.362h0.754L218.642,151.714L218.642,151.714z"/>
		<path id="path1613_1_" fill="#010101" fill-opacity="0.1762" d="M210.763,151.714c0,3.438,0,6.875,0,10.312
			c-3.384,7.154-7.454,13.655-10.827,20.812c-0.943,2.234-0.188,5.25,1.688,6.562c1.875,0.938,1.312,0.75,3.433,0.996
			c1.449,0,6.838-0.093,8.287-0.093c-2.596-0.334-5.245-0.397-7.807-0.914c-1.683-0.525-3.727-1.461-3.829-3.493
			c-0.106-2.169,1.255-4.005,1.979-5.965c2.608-5.969,5.218-11.938,7.827-17.906c0-3.438,0-6.875,0-10.312l-1.355-1.362h-0.756
			L210.763,151.714L210.763,151.714z"/>
		
			<rect x="167.12" y="94.165" fill="#FFC20E" stroke="#010101" stroke-width="0.75" stroke-linecap="round" stroke-linejoin="round" stroke-miterlimit="1" width="94" height="36"/>
		<text transform="matrix(1 0 0 1 199.1812 103.8701)"><tspan x="0" y="0" font-size="9">Hot Lab</tspan><tspan x="-10.114" y="10.8" font-size="9">Management</tspan><tspan x="0.627" y="21.6" font-size="9">System</tspan></text>
		<text transform="matrix(1 0 0 1 199.2471 330.8125)"><tspan x="0" y="0" font-size="9">D</tspan><tspan x="6.238" y="0" font-size="9">I</tspan><tspan x="8.991" y="0" font-size="9">C</tspan><tspan x="15.229" y="0" font-size="9">O</tspan><tspan x="22.158" y="0" font-size="9">M</tspan></text>
		
			<rect x="167.12" y="286.035" fill="#86B2D8" stroke="#010101" stroke-width="0.75" stroke-linecap="round" stroke-linejoin="round" stroke-miterlimit="1" width="94" height="24"/>
		
			<rect x="167.12" y="210.469" fill="#B2CEE7" stroke="#010101" stroke-width="0.75" stroke-linecap="round" stroke-linejoin="round" stroke-miterlimit="1" width="94" height="24"/>
		<text transform="matrix(1 0 0 1 198.312 300.541)" font-size="9">Modality</text>
		
			<rect x="167.12" y="360.98" fill="#86B2D8" stroke="#010101" stroke-width="0.75" stroke-linecap="round" stroke-linejoin="round" stroke-miterlimit="1" width="94" height="24"/>
		<text transform="matrix(1 0 0 1 187.0581 375.4854)" font-size="9">Image Archive</text>
		<text transform="matrix(1 0 0 1 174.3262 219.5742)"><tspan x="0" y="0" font-size="9">Radiopharmaceutical</tspan><tspan x="15.098" y="10.8" font-size="9">Administered</tspan></text>
		<rect x="167.12" y="170.628" opacity="0.6" fill="#FFFFFF" width="94" height="12"/>
		<text transform="matrix(1 0 0 1 174.3262 179.1108)" font-size="9">Radiopharmaceutical</text>
		<rect x="304.06" y="168.03" fill="#CCDEF0" width="44.529" height="17.197"/>
		<text transform="matrix(1 0 0 1 309.8516 180.1909)" font-size="9">RRD SR</text>
		<rect x="269.878" y="313.635" fill="#CCDEF0" width="44.529" height="17.197"/>
		<text transform="matrix(1 0 0 1 275.6709 325.0762)" font-size="9">RRD SR</text>
		<text transform="matrix(1 0 0 1 183.0522 263.0684)" font-size="9">Patient Scanned</text>
		<text transform="matrix(1 0 0 1 305.749 73.0693)" font-size="9">Consistent Time</text>
		<g>
			<g>
				<line fill="none" stroke="#000000" stroke-miterlimit="1" x1="214.12" y1="266.105" x2="214.12" y2="278.312"/>
				<g>
					<polygon points="211.796,276.728 214.12,285.4 216.444,276.728 					"/>
				</g>
			</g>
		</g>
		<line fill="none" stroke="#000000" stroke-miterlimit="1" x1="214.12" y1="236.258" x2="214.12" y2="254.326"/>
		<g>
			<line x1="214.12" y1="184.855" x2="214.12" y2="208.209"/>
			<g>
				
					<line fill="none" stroke="#000000" stroke-width="2" stroke-miterlimit="1" x1="214.12" y1="184.855" x2="214.12" y2="201.121"/>
				<g>
					<polygon points="211.796,199.536 214.12,208.209 216.444,199.536 					"/>
				</g>
			</g>
		</g>
		<g>
			<line x1="214.12" y1="130.165" x2="214.12" y2="158.856"/>
			<g>
				
					<line fill="none" stroke="#000000" stroke-width="2" stroke-miterlimit="1" x1="214.12" y1="137.252" x2="214.12" y2="158.856"/>
				<g>
					<polygon points="211.796,138.837 214.12,130.165 216.444,138.837 					"/>
				</g>
			</g>
		</g>
		<g>
			<g>
				<line fill="none" stroke="#005695" stroke-width="2" stroke-miterlimit="1" x1="214.12" y1="61.796" x2="214.12" y2="86.357"/>
				<g>
					<polygon fill="#005695" points="211.796,84.772 214.12,93.445 216.444,84.772 					"/>
				</g>
			</g>
		</g>
		<line fill="none" stroke="#005695" stroke-width="2" stroke-miterlimit="1" x1="214.12" y1="36.02" x2="214.12" y2="48.849"/>
		<g>
			<g>
				
					<line fill="none" stroke="#005695" stroke-width="2" stroke-miterlimit="1" x1="160.033" y1="297.355" x2="159.033" y2="297.355"/>
				
					<line fill="none" stroke="#005695" stroke-width="2" stroke-miterlimit="1" stroke-dasharray="2.0805,2.0805" x1="156.952" y1="297.355" x2="137.188" y2="297.355"/>
				<polyline fill="none" stroke="#005695" stroke-width="2" stroke-miterlimit="1" points="136.147,297.355 135.147,297.355 
					135.147,296.355 				"/>
				
					<line fill="none" stroke="#005695" stroke-width="2" stroke-miterlimit="1" stroke-dasharray="1.9909,1.9909" x1="135.147" y1="294.364" x2="135.147" y2="68.4"/>
				<polyline fill="none" stroke="#005695" stroke-width="2" stroke-miterlimit="1" points="135.147,67.405 135.147,66.405 
					136.147,66.405 				"/>
				
					<line fill="none" stroke="#005695" stroke-width="2" stroke-miterlimit="1" stroke-dasharray="1.9645,1.9645" x1="138.112" y1="66.405" x2="211.78" y2="66.405"/>
				
					<line fill="none" stroke="#005695" stroke-width="2" stroke-miterlimit="1" x1="212.763" y1="66.405" x2="213.763" y2="66.405"/>
				<g>
					<polygon fill="#005695" points="158.447,295.031 167.12,297.355 158.447,299.68 					"/>
				</g>
			</g>
		</g>
	</g>
</g>
</svg>
