<?xml version="1.0" encoding="utf-8"?>

<!DOCTYPE svg PUBLIC "-//W3C//DTD SVG 1.1//EN" "http://www.w3.org/Graphics/SVG/1.1/DTD/svg11.dtd">
<svg version="1.1" id="Layer_1" xmlns="http://www.w3.org/2000/svg" xmlns:xlink="http://www.w3.org/1999/xlink" x="0px" y="0px"
	 width="502px" height="327px" viewBox="0 0 502 327" enable-background="new 0 0 502 327" xml:space="preserve">

<defs>
	<style type="text/css">
	text {
	  font-family: Helvetica, Verdana, ArialUnicodeMS, san-serif
	}
	</style>
</defs>

<g>
   <desc>
	PS 3.17 Part 17: Explanatory Information
   </desc>
</g>

<g>
	<rect x="1" y="1" fill="#F5EED6" width="500" height="325"/>
	<g>
		<rect x="24.968" y="91.828" fill="#B2CEE7" width="78" height="220"/>
		<rect x="441.033" y="91.828" fill="#B2CEE7" width="36" height="220"/>
		<g>
			<g>
				<line fill="none" stroke="#003468" stroke-miterlimit="10" x1="415.534" y1="41.172" x2="416.534" y2="41.172"/>
				
					<line fill="none" stroke="#003468" stroke-miterlimit="10" stroke-dasharray="1.9761,1.9761" x1="418.511" y1="41.172" x2="457.045" y2="41.172"/>
				<polyline fill="none" stroke="#003468" stroke-miterlimit="10" points="458.033,41.172 459.033,41.172 459.033,42.172 				"/>
				
					<line fill="none" stroke="#003468" stroke-miterlimit="10" stroke-dasharray="1.9133,1.9133" x1="459.033" y1="44.085" x2="459.033" y2="81.395"/>
				<line fill="none" stroke="#003468" stroke-miterlimit="10" x1="459.033" y1="82.351" x2="459.033" y2="83.351"/>
				<g>
					<polygon fill="#003468" points="456.128,81.37 459.033,92.21 461.938,81.37 					"/>
				</g>
			</g>
		</g>
		<g>
			<g>
				<polyline fill="none" stroke="#003468" stroke-miterlimit="10" points="415.534,100.278 433.296,100.278 444.363,104.126 				
					"/>
				<g>
					<polygon fill="#003468" points="441.538,106.22 452.731,107.037 443.446,100.732 					"/>
				</g>
			</g>
		</g>
		<g>
			<g>
				<line fill="none" stroke="#003468" stroke-miterlimit="10" x1="127.965" y1="59.32" x2="126.965" y2="59.32"/>
				
					<line fill="none" stroke="#003468" stroke-miterlimit="10" stroke-dasharray="2.0468,2.0468" x1="124.918" y1="59.32" x2="60.445" y2="59.32"/>
				<polyline fill="none" stroke="#003468" stroke-miterlimit="10" points="59.422,59.32 58.422,59.32 58.422,60.32 				"/>
				
					<line fill="none" stroke="#003468" stroke-miterlimit="10" stroke-dasharray="2.0028,2.0028" x1="58.422" y1="62.323" x2="58.422" y2="81.35"/>
				<line fill="none" stroke="#003468" stroke-miterlimit="10" x1="58.422" y1="82.351" x2="58.422" y2="83.351"/>
				<g>
					<polygon fill="#003468" points="55.517,81.37 58.422,92.21 61.327,81.37 					"/>
				</g>
			</g>
		</g>
		<g>
			<g>
				<polyline fill="none" stroke="#003468" stroke-miterlimit="10" points="127.965,223.265 105.223,223.265 83.058,137.166 				"/>
				<g>
					<polygon fill="#003468" points="86.365,138.361 80.849,128.586 80.738,139.809 					"/>
				</g>
			</g>
		</g>
		<g>
			<g>
				<rect x="128.201" y="92.21" fill="#CCDEF0" stroke="#000000" width="287.333" height="62.692"/>
				<rect x="128.201" y="154.851" fill="#FFFFFF" stroke="#000000" width="287.333" height="34.747"/>
			</g>
			<g>
				<rect x="128.2" y="92.21" fill="none" stroke="#000000" width="287.336" height="97.387"/>
				<line fill="none" stroke="#000000" x1="128.2" y1="172.071" x2="415.536" y2="172.071"/>
				<line fill="none" stroke="#000000" x1="128.2" y1="154.903" x2="415.536" y2="154.903"/>
				<line fill="none" stroke="#000000" x1="128.2" y1="126.907" x2="415.536" y2="126.907"/>
				<line fill="none" stroke="#000000" x1="128.2" y1="109.74" x2="415.536" y2="109.74"/>
				<line fill="none" stroke="#000000" x1="276.587" y1="126.771" x2="276.587" y2="189.598"/>
				<line fill="none" stroke="#000000" x1="206.626" y1="126.771" x2="206.626" y2="189.598"/>
			</g>
			<text transform="matrix(1 0 0 1 134.2012 104.876)"><tspan x="0" y="0" font-size="12">MATING FEATURE ID: 1</tspan><tspan x="0" y="17" font-size="10">2D Mating Feature Coordinates Sequence</tspan><tspan x="0" y="33.6" font-size="8">Referenced HPGL</tspan><tspan x="0" y="43.2" font-size="8">Document ID</tspan><tspan x="0" y="60.8" font-size="8">1</tspan><tspan x="0" y="78.399" font-size="8">2</tspan></text>
			<text transform="matrix(1 0 0 1 212.8677 143.0757)"><tspan x="0" y="0" font-size="8">2D Mating Point</tspan><tspan x="0" y="22.6" font-size="8">6.87 / 44.91</tspan><tspan x="0" y="40.2" font-size="8">44.24 / 16.7</tspan></text>
			<text transform="matrix(1 0 0 1 285.5352 143.0757)"><tspan x="0" y="0" font-size="8">2D Mating Axes</tspan><tspan x="0" y="22.6" font-size="8">1 / 0 / 0 / 1</tspan><tspan x="0" y="40.2" font-size="8">0.6947 / 0.7193 / -0.7193 / 0.6947</tspan></text>
		</g>
		<g>
			<g>
				<rect x="128.201" y="214.439" fill="#CCDEF0" stroke="#000000" width="287.333" height="62.693"/>
				<rect x="128.201" y="277.08" fill="#FFFFFF" stroke="#000000" width="287.333" height="34.748"/>
			</g>
			<g>
				<rect x="128.2" y="214.439" fill="none" stroke="#000000" width="287.336" height="97.389"/>
				<line fill="none" stroke="#000000" x1="128.2" y1="294.301" x2="415.536" y2="294.301"/>
				<line fill="none" stroke="#000000" x1="128.2" y1="277.133" x2="415.536" y2="277.133"/>
				<line fill="none" stroke="#000000" x1="128.2" y1="249.137" x2="415.536" y2="249.137"/>
				<line fill="none" stroke="#000000" x1="128.2" y1="231.97" x2="415.536" y2="231.97"/>
				<line fill="none" stroke="#000000" x1="276.587" y1="249" x2="276.587" y2="311.828"/>
				<line fill="none" stroke="#000000" x1="206.626" y1="249" x2="206.626" y2="311.828"/>
			</g>
			<text transform="matrix(1 0 0 1 134.2012 227.1055)"><tspan x="0" y="0" font-size="12">MATING FEATURE ID: 2</tspan><tspan x="0" y="17" font-size="10">2D Mating Feature Coordinates Sequence</tspan><tspan x="0" y="33.6" font-size="8">Referenced HPGL</tspan><tspan x="0" y="43.2" font-size="8">Document ID</tspan><tspan x="0" y="60.8" font-size="8">1</tspan><tspan x="0" y="78.4" font-size="8">2</tspan></text>
			<text transform="matrix(1 0 0 1 212.8677 265.3047)"><tspan x="0" y="0" font-size="8">2D Mating Point</tspan><tspan x="0" y="22.601" font-size="8">6.87 / 44.23</tspan><tspan x="0" y="40.201" font-size="8">43.58 / 16</tspan></text>
			<text transform="matrix(1 0 0 1 285.5352 265.3047)"><tspan x="0" y="0" font-size="8">2D Mating Axes</tspan><tspan x="0" y="22.601" font-size="8">1 / 0 / 0 / 1</tspan><tspan x="0" y="40.201" font-size="8">0.6947 / 0.7193 / -0.7193 / 0.6947</tspan></text>
		</g>
		<g>
			<rect x="128.201" y="15.172" fill="#CCDEF0" stroke="#000000" width="287.333" height="17.329"/>
			<rect x="128.201" y="32.501" fill="#FFFFFF" stroke="#000000" width="287.333" height="34.671"/>
			<g>
				<rect x="128.201" y="15.172" fill="none" stroke="#000000" width="287.333" height="52"/>
				<line fill="none" stroke="#000000" x1="128.201" y1="49.843" x2="415.534" y2="49.843"/>
				<line fill="none" stroke="#000000" x1="128.201" y1="32.501" x2="415.534" y2="32.501"/>
				<line fill="none" stroke="#000000" x1="263.771" y1="15.172" x2="263.771" y2="67.172"/>
			</g>
			<text transform="matrix(1 0 0 1 134.4683 28.5029)"><tspan x="0" y="0" font-size="12">HPGL Document ID</tspan><tspan x="0" y="17" font-size="10">1</tspan><tspan x="0" y="34" font-size="10">2</tspan></text>
			<text transform="matrix(1 0 0 1 273.0547 28.5029)"><tspan x="0" y="0" font-size="12">View Orientation</tspan><tspan x="0" y="17" font-size="10">MEDIAL-LATERAL</tspan><tspan x="0" y="34" font-size="10">ANTERIOR-POSTERIOR</tspan></text>
		</g>
		<g>
			<g>
				<path fill="#8A8C8E" stroke="#000000" stroke-linejoin="bevel" d="M82.784,123.842c0,0,6.609-5.624,1.32-11.682
					c-2.18-2.5-6.742-3.715-6.742-3.715l0,0c-9.811,5.567-21.855,15.743-21.855,15.743l-18.416,4.604c0,0-5.807,14.642-5.859,19.672
					s-1.496,150.391-1.496,151.786s2.717,6.766,6.953,6.736c4.238-0.031,5.15-11.188,5.15-11.188l6.451-101.08
					c4.291-15.912,15.84-41.077,17.889-45.836C69.13,142.028,79.126,127.499,82.784,123.842z"/>
				<path fill="none" stroke="#4D4D4F" stroke-linecap="round" d="M35.995,304.57c3.758-0.676,3.432-10.58,3.432-10.58l6.453-99.877
					c4.896-15.307,15.838-40.471,17.893-45.231c2.947-6.854,13.422-22.712,17.076-26.367"/>
				<path fill="none" stroke="#A6A6A6" stroke-width="2" stroke-linecap="round" stroke-linejoin="bevel" d="M77.362,111.256
					l-21.424,15.503l-17.047,3.812c0,0-5.209,14.038-5.258,19.069c-0.053,5.032-1.5,148.583-1.5,149.979
					c0,1.393,1.164,3.961,4.377,4.951"/>
				<path fill="#FFF200" stroke="#000000" d="M82.784,123.842c0,0,6.557-5.945,1.273-12.003c-2.184-2.5-6.695-3.394-6.695-3.394l0,0
					l9.367-6.454c0,0,5.24-2.439,9.666,2.626c4.422,5.066-0.672,9.239-0.672,9.239S88.233,119.264,82.784,123.842z"/>
			</g>
			<text transform="matrix(1 0 0 1 86.1562 112.6245)" fill="#ED1C24" font-size="18">x</text>
			<text transform="matrix(1 0 0 1 72.8232 122.9951)" fill="#ED1C24" font-size="18">x</text>
		</g>
		<g>
			<g>
				<path fill="none" stroke="#4D4D4F" d="M465.368,110.552"/>
				<path fill="#8A8C8E" stroke="#000000" stroke-linejoin="bevel" d="M459.438,306.986c4.058-0.031,5.606-11.539,5.606-11.539
					l2.632-128.273c0-13.301,4.854-42.125,4.854-42.125h-6.109l-0.947-14.024c0-5.365-2.852-9.715-6.369-9.715
					s-6.369,4.35-6.369,9.715l-1.09,14.024h-6.109c0,0,4.854,28.824,4.854,42.125l2.632,128.273c0,0,1.953,11.508,6.011,11.539
					H459.438z"/>
				<path fill="none" stroke="#4D4D4F" stroke-linecap="round" d="M460.442,301.98c1.729-3.34,2.443-8.531,2.443-8.531
					l2.632-125.465c0-13.011,4.854-41.205,4.854-41.205"/>
				<path fill="none" stroke="#A6A6A6" stroke-width="2" stroke-linecap="round" stroke-linejoin="bevel" d="M454.894,113.288
					l-1.09,13.684h-6.109c0,0,4.854,28.124,4.854,41.101l2.632,125.156c0,0,1.462,8.404,4.484,10.689"/>
				<path fill="#FFF200" stroke="#000000" d="M465.417,111.024c0-5.365-2.852-9.715-6.369-9.715s-6.369,4.35-6.369,9.715
					l-0.644,8.814c0-6.218,3.133-11.258,6.998-11.258s6.998,5.04,6.998,11.258L465.417,111.024z"/>
			</g>
			<text transform="matrix(1 0 0 1 454.5332 113.5278)" fill="#ED1C24" font-size="18">x</text>
			<text transform="matrix(1 0 0 1 454.5332 123.8984)" fill="#ED1C24" font-size="18">x</text>
		</g>
	</g>
</g>
</svg>
