<?xml version="1.0" encoding="utf-8"?>

<!DOCTYPE svg PUBLIC "-//W3C//DTD SVG 1.1//EN" "http://www.w3.org/Graphics/SVG/1.1/DTD/svg11.dtd">
<svg version="1.1" id="Layer_1" xmlns="http://www.w3.org/2000/svg" xmlns:xlink="http://www.w3.org/1999/xlink" x="0px" y="0px"
	 width="672px" height="332px" viewBox="0 0 672 332" enable-background="new 0 0 672 332" xml:space="preserve">

<defs>
	<style type="text/css">
	text {
	  font-family: Helvetica, Verdana, ArialUnicodeMS, san-serif
	}
	</style>
</defs>

<g>
   <desc>
	PS 3.17 Part 17: Explanatory Information
   </desc>
</g>

<g>
	<rect x="1" y="1" fill="#F5EED6" width="670" height="330"/>
	<g>
		<polygon fill="#CCDEF0" stroke="#999999" stroke-miterlimit="10" points="550.602,137.059 520.592,109.205 421.543,109.205 
			393.781,94.906 332.242,94.906 306.722,111.465 306.722,298.333 332.242,314.892 393.781,314.892 421.543,300.593 
			520.592,300.593 550.602,272.739 		"/>
		<rect x="540.842" y="192.592" fill="#0DB14B" width="2.26" height="25.596"/>
		
			<line fill="none" stroke="#000000" stroke-width="0.5" stroke-dasharray="4" x1="334.502" y1="152.703" x2="594.143" y2="152.703"/>
		
			<line fill="none" stroke="#000000" stroke-width="0.5" stroke-dasharray="4" x1="350.242" y1="130.113" x2="639.152" y2="130.113"/>
		<g>
			<text transform="matrix(1 0 0 1 74.0605 148.0781)" font-size="10">X-RAY TUBE</text>
		</g>
		<g>
			<text transform="matrix(1 0 0 1 155.5806 25.9712)"><tspan x="0" y="0" font-size="10">RECEPTOR PLANE</tspan><tspan x="-12.676" y="42" font-size="10">DETECTOR HOUSING</tspan></text>
		</g>
		<g>
			<text transform="matrix(1 0 0 1 387.0869 25.9712)"><tspan x="0" y="0" font-size="10">INPUT PHOSPHOR SCREEN</tspan><tspan x="-24" y="42" font-size="10">OUTPUT PHOSPHOR SCREEN</tspan></text>
		</g>
		<g>
			<g>
				<path fill-rule="evenodd" clip-rule="evenodd" fill="#FFF200" stroke="#000000" stroke-width="0.5" stroke-miterlimit="10" d="
					M312.925,206.807c0-18.957,4.74-37.047,13.341-53.586L46.492,202.129v6.77l278.351,48.661
					C317.146,241.795,312.925,224.688,312.925,206.807z"/>
			</g>
			
				<line fill="none" stroke="#FFFFFF" stroke-width="1.25" stroke-miterlimit="10" x1="312.936" y1="205.391" x2="46.492" y2="205.391"/>
			
				<line fill="none" stroke="#FFFFFF" stroke-width="1.25" stroke-miterlimit="10" x1="312.936" y1="210.349" x2="46.493" y2="205.698"/>
			
				<line fill="none" stroke="#FFFFFF" stroke-width="1.25" stroke-miterlimit="10" x1="312.936" y1="215.31" x2="46.492" y2="206.006"/>
			
				<line fill="none" stroke="#FFFFFF" stroke-width="1.25" stroke-miterlimit="10" x1="313.737" y1="220.319" x2="46.491" y2="206.313"/>
			
				<line fill="none" stroke="#FFFFFF" stroke-width="1.25" stroke-miterlimit="10" x1="314.461" y1="225.36" x2="46.492" y2="206.622"/>
			
				<line fill="none" stroke="#FFFFFF" stroke-width="1.25" stroke-miterlimit="10" x1="315.432" y1="230.461" x2="46.492" y2="206.931"/>
			
				<line fill="none" stroke="#FFFFFF" stroke-width="1.25" stroke-miterlimit="10" x1="316.667" y1="235.638" x2="46.491" y2="207.241"/>
			
				<line fill="none" stroke="#FFFFFF" stroke-width="1.25" stroke-miterlimit="10" x1="318.19" y1="240.912" x2="46.492" y2="207.553"/>
			
				<line fill="none" stroke="#FFFFFF" stroke-width="1.25" stroke-miterlimit="10" x1="320.032" y1="246.308" x2="46.491" y2="207.865"/>
			
				<line fill="none" stroke="#FFFFFF" stroke-width="1.25" stroke-miterlimit="10" x1="322.236" y1="251.852" x2="46.493" y2="208.179"/>
			
				<line fill="none" stroke="#FFFFFF" stroke-width="1.25" stroke-miterlimit="10" x1="313.106" y1="200.424" x2="46.492" y2="205.076"/>
			
				<line fill="none" stroke="#FFFFFF" stroke-width="1.25" stroke-miterlimit="10" x1="313.5" y1="195.44" x2="46.493" y2="204.764"/>
			
				<line fill="none" stroke="#FFFFFF" stroke-width="1.25" stroke-miterlimit="10" x1="314.12" y1="190.424" x2="46.492" y2="204.449"/>
			
				<line fill="none" stroke="#FFFFFF" stroke-width="1.25" stroke-miterlimit="10" x1="314.98" y1="185.361" x2="46.491" y2="204.136"/>
			
				<line fill="none" stroke="#FFFFFF" stroke-width="1.25" stroke-miterlimit="10" x1="316.094" y1="180.232" x2="46.493" y2="203.819"/>
			
				<line fill="none" stroke="#FFFFFF" stroke-width="1.25" stroke-miterlimit="10" x1="317.483" y1="175.021" x2="46.492" y2="203.502"/>
			
				<line fill="none" stroke="#FFFFFF" stroke-width="1.25" stroke-miterlimit="10" x1="319.173" y1="169.704" x2="46.493" y2="203.184"/>
			
				<line fill="none" stroke="#FFFFFF" stroke-width="1.25" stroke-miterlimit="10" x1="321.2" y1="164.259" x2="46.492" y2="202.864"/>
			
				<line fill="none" stroke="#FFFFFF" stroke-width="1.25" stroke-miterlimit="10" x1="323.608" y1="158.655" x2="46.492" y2="202.543"/>
			<g>
				<text transform="matrix(1 0 0 1 185.0498 201.6504)" font-size="10">X-RAY BEAM</text>
			</g>
		</g>
		<polygon fill="#F26522" stroke="#000000" stroke-width="0.7447" stroke-linejoin="round" stroke-miterlimit="10" points="
			17.223,185.812 30.727,185.812 30.727,197.854 46.491,188.822 46.491,221.191 30.727,211.412 30.727,222.705 17.223,222.705 		"/>
		<path fill="#999999" d="M306.722,204.633"/>
		
			<line fill="none" stroke="#000000" stroke-width="0.5" stroke-dasharray="4" x1="334.502" y1="257.334" x2="594.143" y2="257.334"/>
		
			<line fill="none" stroke="#000000" stroke-width="0.5" stroke-dasharray="4" x1="350.242" y1="279.926" x2="639.152" y2="279.926"/>
		<g>
			<g>
				<line fill="none" stroke="#005695" stroke-miterlimit="10" x1="579.121" y1="200.609" x2="579.121" y2="247.613"/>
				<g>
					<polygon fill="#005695" points="576.216,245.632 579.121,256.473 582.026,245.632 					"/>
				</g>
			</g>
		</g>
		<g>
			<g>
				<line fill="none" stroke="#005695" stroke-miterlimit="10" x1="579.121" y1="162.393" x2="579.121" y2="177.859"/>
				<g>
					<polygon fill="#005695" points="576.216,164.374 579.121,153.533 582.026,164.374 					"/>
				</g>
			</g>
		</g>
		<g>
			<g>
				<line fill="none" stroke="#005695" stroke-miterlimit="10" x1="625.643" y1="238.609" x2="625.643" y2="271.066"/>
				<g>
					<polygon fill="#005695" points="622.737,269.085 625.643,279.926 628.548,269.085 					"/>
				</g>
			</g>
		</g>
		<g>
			<g>
				<line fill="none" stroke="#005695" stroke-miterlimit="10" x1="625.643" y1="138.225" x2="625.643" y2="214.609"/>
				<g>
					<polygon fill="#005695" points="622.737,140.206 625.643,129.365 628.548,140.206 					"/>
				</g>
			</g>
		</g>
		<g>
			<text transform="matrix(1 0 0 1 596.0117 223.9463)"><tspan x="0" y="0" font-size="10">INTENSIFIER</tspan><tspan x="18.881" y="12" font-size="10">SIZE</tspan></text>
		</g>
		<g>
			<text transform="matrix(1 0 0 1 562.5303 186.8555)"><tspan x="0" y="0" font-size="10">ACTIVE</tspan><tspan x="-9.796" y="12" font-size="10">DIMENSION</tspan></text>
		</g>
		<g>
			<g>
				<polyline fill="none" stroke="#005695" stroke-linejoin="round" points="34.783,166.426 49.467,144.631 70.384,144.631 				"/>
				<g>
					<polygon fill="#005695" points="38.3,166.406 29.833,173.773 33.481,163.159 					"/>
				</g>
			</g>
		</g>
		<g>
			<g>
				<polyline fill="none" stroke="#005695" stroke-linejoin="round" points="345.601,114.14 362.571,22.426 383.49,22.426 				"/>
				<g>
					<polygon fill="#005695" points="348.817,112.72 343.988,122.852 343.104,111.663 					"/>
				</g>
			</g>
		</g>
		<g>
			<g>
				<polyline fill="none" stroke="#005695" stroke-linejoin="round" points="540.19,180.635 525.539,64.453 504.621,64.453 				"/>
				<g>
					<polygon fill="#005695" points="542.825,178.306 541.299,189.425 537.06,179.032 					"/>
				</g>
			</g>
		</g>
		<g>
			<g>
				<polyline fill="none" stroke="#005695" stroke-linejoin="round" points="295.305,105.835 266.329,64.164 245.412,64.164 				"/>
				<g>
					<polygon fill="#005695" points="296.559,102.55 300.363,113.109 291.789,105.868 					"/>
				</g>
			</g>
		</g>
		
			<line fill="none" stroke="#000000" stroke-miterlimit="10" stroke-dasharray="6,3,1,3" x1="543.102" y1="205.018" x2="17.074" y2="205.018"/>
		
			<line fill="none" stroke="#000000" stroke-miterlimit="10" stroke-dasharray="2,2" x1="342.002" y1="280.67" x2="29.833" y2="204.935"/>
		
			<line fill="none" stroke="#000000" stroke-miterlimit="10" stroke-dasharray="2,2" x1="342.002" y1="129.337" x2="29.833" y2="205.079"/>
		
			<line fill="none" stroke="#000000" stroke-miterlimit="10" stroke-dasharray="2,2" x1="342.002" y1="129.337" x2="540.842" y2="218.188"/>
		
			<line fill="none" stroke="#000000" stroke-miterlimit="10" stroke-dasharray="2,2" x1="342.002" y1="280.67" x2="540.842" y2="192.592"/>
		
			<line fill="none" stroke="#000000" stroke-miterlimit="10" stroke-dasharray="8,4" x1="325.492" y1="153.456" x2="540.842" y2="218.188"/>
		
			<line fill="none" stroke="#000000" stroke-miterlimit="10" stroke-dasharray="8,4" x1="327.752" y1="257.334" x2="540.842" y2="192.592"/>
		<path fill="none" stroke="#005695" stroke-width="4" stroke-miterlimit="10" d="M342.645,280.389
			c-17.522-21.87-27.652-47.736-27.652-75.454c0-27.674,10.098-53.502,27.568-75.351"/>
		<path fill="none" stroke="#0DB14B" stroke-width="2" stroke-miterlimit="10" d="M393.736,124.17h-53.229
			c-19.915,23.11-31.526,50.886-31.526,80.765c0,30.304,11.943,58.444,32.379,81.747h52.375"/>
		<g>
			<g>
				<polyline fill="none" stroke="#005695" stroke-linejoin="round" points="331.731,129.025 266.329,22.426 245.412,22.426 				"/>
				<g>
					<polygon fill="#005695" points="333.171,125.816 336.364,136.576 328.218,128.855 					"/>
				</g>
			</g>
		</g>
		<polygon fill="#00AEEF" stroke="#00AEEF" stroke-miterlimit="10" points="306.441,293.592 305.691,294.332 302.691,294.332 
			299.691,290.562 299.691,119.583 302.691,115.812 305.691,115.812 306.441,116.553 		"/>
	</g>
</g>
</svg>
