<?xml version="1.0" encoding="utf-8"?>

<!DOCTYPE svg PUBLIC "-//W3C//DTD SVG 1.1//EN" "http://www.w3.org/Graphics/SVG/1.1/DTD/svg11.dtd">
<svg version="1.1" id="Layer_1" xmlns="http://www.w3.org/2000/svg" xmlns:xlink="http://www.w3.org/1999/xlink" x="0px" y="0px"
	 width="502.001px" height="107px" viewBox="0 0 502.001 107" enable-background="new 0 0 502.001 107" xml:space="preserve">

<defs>
	<style type="text/css">
	text {
	  font-family: Helvetica, Verdana, ArialUnicodeMS, san-serif
	}
	</style>
</defs>

<g>
   <desc>
	PS 3.17 Part 17: Explanatory Information
   </desc>
</g>

<g>
	<rect x="1" y="1" fill="#F5EED6" width="500.001" height="105"/>
	<g>
		<g>
			<g>
				
					<line fill="none" stroke="#005695" stroke-width="2" stroke-linecap="round" stroke-miterlimit="1" x1="128.219" y1="53.681" x2="205.24" y2="53.681"/>
				<g>
					<polygon fill="#005695" points="202.862,57.167 215.871,53.681 202.862,50.194 					"/>
				</g>
			</g>
		</g>
		<g>
			<g>
				<polyline fill="none" stroke="#005695" stroke-width="2" stroke-linecap="round" stroke-miterlimit="1" points="278.871,53.681 
					288.236,53.681 288.236,28.12 363.155,28.12 				"/>
				<g>
					<polygon fill="#005695" points="360.777,31.606 373.786,28.12 360.777,24.634 					"/>
				</g>
			</g>
		</g>
		<g>
			<g>
				<polyline fill="none" stroke="#005695" stroke-width="2" stroke-linecap="round" stroke-miterlimit="1" points="278.871,53.321 
					288.236,53.321 288.236,78.881 363.155,78.881 				"/>
				<g>
					<polygon fill="#005695" points="360.777,82.367 373.786,78.881 360.777,75.395 					"/>
				</g>
			</g>
		</g>
		
			<rect x="65.219" y="40.82" fill="#86B2D8" stroke="#010101" stroke-width="0.75" stroke-linecap="round" stroke-linejoin="round" stroke-miterlimit="1" width="63" height="25.721"/>
		
			<rect x="215.871" y="40.82" fill="#86B2D8" stroke="#010101" stroke-width="0.75" stroke-linecap="round" stroke-linejoin="round" stroke-miterlimit="1" width="63" height="25.721"/>
		<g>
			<text transform="matrix(1 0 0 1 82.7085 50.439)"><tspan x="0" y="0" font-size="9">Patient</tspan><tspan x="-8.743" y="10.799" font-size="9">(CT Image)</tspan></text>
		</g>
		<g>
			<text transform="matrix(1 0 0 1 228.1104 55.8398)" font-size="9">Bite Plate</text>
		</g>
		<g>
			<text transform="matrix(1 0 0 1 135.4307 50.4399)" font-size="9">Spatial Relation</text>
		</g>
		
			<rect x="373.786" y="15.259" fill="#86B2D8" stroke="#010101" stroke-width="0.75" stroke-linecap="round" stroke-linejoin="round" stroke-miterlimit="1" width="63" height="25.722"/>
		<g>
			<text transform="matrix(1 0 0 1 292.2324 24.519)" font-size="9">Spatial Relation</text>
		</g>
		<g>
			<text transform="matrix(1 0 0 1 390.5264 30.626)" font-size="9">Implant</text>
		</g>
		
			<rect x="373.786" y="66.02" fill="#86B2D8" stroke="#010101" stroke-width="0.75" stroke-linecap="round" stroke-linejoin="round" stroke-miterlimit="1" width="63" height="25.721"/>
		<g>
			<text transform="matrix(1 0 0 1 292.2324 75.2793)" font-size="9">Spatial Relation</text>
		</g>
		<g>
			<text transform="matrix(1 0 0 1 377.2715 75.6387)"><tspan x="0" y="0" font-size="9">Dental Drilling</tspan><tspan x="9.254" y="10.801" font-size="9">Template</tspan></text>
		</g>
	</g>
</g>
</svg>
