<?xml version="1.0" encoding="utf-8"?>

<!DOCTYPE svg PUBLIC "-//W3C//DTD SVG 1.1//EN" "http://www.w3.org/Graphics/SVG/1.1/DTD/svg11.dtd">
<svg version="1.1" id="Layer_1" xmlns="http://www.w3.org/2000/svg" xmlns:xlink="http://www.w3.org/1999/xlink" x="0px" y="0px"
	 width="502px" height="492px" viewBox="0 0 502 492" enable-background="new 0 0 502 492" xml:space="preserve">

<defs>
	<style type="text/css">
	text {
	  font-family: Helvetica, Verdana, ArialUnicodeMS, san-serif
	}
	</style>
</defs>

<g>
   <desc>
	PS 3.17 Part 17: Explanatory Information
   </desc>
</g>

<g>
	<rect x="1" y="1" fill="#F5EED6" width="500" height="490"/>
	<g>
		<rect x="34.151" y="26.419" fill="#CCDEF0" stroke="#000000" width="450" height="450"/>
		<circle fill="#86B2D8" stroke="#000000" cx="264.101" cy="256.368" r="22.5"/>
		<rect x="124.151" y="138.919" fill="#86B2D8" stroke="#000000" width="33.3" height="235.799"/>
		<rect x="371.651" y="138.919" fill="#86B2D8" stroke="#000000" width="33.3" height="235.799"/>
		
			<line fill="none" stroke="#000000" stroke-width="0.5" stroke-dasharray="4" x1="266.208" y1="256.368" x2="34.151" y2="256.368"/>
		<g>
			<g>
				<line fill="none" stroke="#000000" stroke-width="0.5" x1="264.101" y1="256.368" x2="264.101" y2="254.368"/>
				
					<line fill="none" stroke="#000000" stroke-width="0.5" stroke-dasharray="3.964,3.964" x1="264.101" y1="250.404" x2="264.101" y2="30.401"/>
				<line fill="none" stroke="#000000" stroke-width="0.5" x1="264.101" y1="28.419" x2="264.101" y2="26.419"/>
			</g>
		</g>
		<g>
			<g>
				<line fill="none" stroke="#000000" stroke-width="0.5" x1="157.451" y1="138.919" x2="157.451" y2="136.919"/>
				
					<line fill="none" stroke="#000000" stroke-width="0.5" stroke-dasharray="4.0018,4.0018" x1="157.451" y1="132.917" x2="157.451" y2="30.87"/>
				<line fill="none" stroke="#000000" stroke-width="0.5" x1="157.451" y1="28.869" x2="157.451" y2="26.869"/>
			</g>
		</g>
		<g>
			<g>
				<line fill="none" stroke="#000000" stroke-width="0.5" x1="124.151" y1="138.919" x2="124.151" y2="136.919"/>
				
					<line fill="none" stroke="#000000" stroke-width="0.5" stroke-dasharray="4.0018,4.0018" x1="124.151" y1="132.917" x2="124.151" y2="30.87"/>
				<line fill="none" stroke="#000000" stroke-width="0.5" x1="124.151" y1="28.869" x2="124.151" y2="26.869"/>
			</g>
		</g>
		<g>
			<g>
				<line fill="none" stroke="#000000" stroke-width="0.5" x1="371.651" y1="138.559" x2="371.651" y2="136.559"/>
				
					<line fill="none" stroke="#000000" stroke-width="0.5" stroke-dasharray="4.0018,4.0018" x1="371.651" y1="132.557" x2="371.651" y2="30.511"/>
				<line fill="none" stroke="#000000" stroke-width="0.5" x1="371.651" y1="28.51" x2="371.651" y2="26.51"/>
			</g>
		</g>
		<g>
			<g>
				<line fill="none" stroke="#000000" stroke-width="0.5" x1="404.951" y1="138.559" x2="404.951" y2="136.559"/>
				
					<line fill="none" stroke="#000000" stroke-width="0.5" stroke-dasharray="4.0018,4.0018" x1="404.951" y1="132.557" x2="404.951" y2="30.511"/>
				<line fill="none" stroke="#000000" stroke-width="0.5" x1="404.951" y1="28.51" x2="404.951" y2="26.51"/>
			</g>
		</g>
		
			<line fill="none" stroke="#000000" stroke-width="0.5" stroke-dasharray="4" x1="371.651" y1="138.919" x2="34.151" y2="138.919"/>
		
			<line fill="none" stroke="#000000" stroke-width="0.5" stroke-dasharray="4" x1="371.651" y1="374.718" x2="34.151" y2="374.718"/>
		<text transform="matrix(1 0 0 1 26.9707 33.2573)" font-size="9">1</text>
		<text transform="matrix(1 0 0 1 17.8506 142.1577)" font-size="9">250</text>
		<text transform="matrix(1 0 0 1 17.8506 259.6074)" font-size="9">511</text>
		<text transform="matrix(1 0 0 1 17.8506 377.0566)" font-size="9">774</text>
		<text transform="matrix(1 0 0 1 34.1509 23.5581)" font-size="9">1</text>
		<text transform="matrix(1 0 0 1 116.3608 23.5581)" font-size="9">200</text>
		<text transform="matrix(1 0 0 1 149.8311 23.5581)" font-size="9">274</text>
		<text transform="matrix(1 0 0 1 363.7212 23.5581)" font-size="9">750</text>
		<text transform="matrix(1 0 0 1 397.1909 23.5581)" font-size="9">824</text>
		<text transform="matrix(1 0 0 1 256.4067 23.5581)" font-size="9">511</text>
		<text transform="matrix(1 0 0 1 376.7573 151.5898)" font-size="11">3</text>
		<text transform="matrix(1 0 0 1 251.064 249.6172)" font-size="11">2</text>
		<text transform="matrix(1 0 0 1 66.0239 440.5781)" font-size="11">Pixel Data Matrix</text>
		<text transform="matrix(1 0 0 1 128.5044 151.5898)" font-size="11">1</text>
	</g>
</g>
</svg>
