<?xml version="1.0" encoding="utf-8"?>

<!DOCTYPE svg PUBLIC "-//W3C//DTD SVG 1.1//EN" "http://www.w3.org/Graphics/SVG/1.1/DTD/svg11.dtd">
<svg version="1.1" id="Layer_1" xmlns="http://www.w3.org/2000/svg" xmlns:xlink="http://www.w3.org/1999/xlink" x="0px" y="0px"
	 width="602px" height="407px" viewBox="0 0 602 407" enable-background="new 0 0 602 407" xml:space="preserve">

<defs>
	<style type="text/css">
	text {
	  font-family: Helvetica, Verdana, ArialUnicodeMS, san-serif
	}
	</style>
</defs>

<g>
   <desc>
	PS 3.17 Part 17: Explanatory Information
   </desc>
</g>

<g>
	<rect x="1" y="1" fill="#F5EED6" width="600" height="405"/>
	<g>
		<rect x="39.7" y="34.132" fill="#86B2D8" stroke="#000000" width="522.6" height="292.397"/>
		<g>
			<rect x="49.7" y="57.328" fill="#B2CEE7" stroke="#000000" width="145" height="260"/>
		</g>
		<g>
			<rect x="59.7" y="207.328" fill="#F4F8FC" stroke="#000000" width="125" height="100"/>
		</g>
		<g>
			<rect x="203.499" y="57.328" fill="#B2CEE7" stroke="#000000" width="170.004" height="260"/>
		</g>
		<g>
			<rect x="382.298" y="57.328" fill="#B2CEE7" stroke="#000000" width="170.004" height="260"/>
		</g>
		<g>
			<rect x="213.499" y="107.328" fill="#F4F8FC" stroke="#000000" width="150.004" height="200"/>
		</g>
		<g>
			<rect x="392.3" y="107.328" fill="#DCDDDE" stroke="#000000" width="150" height="200"/>
		</g>
		<g>
			<rect x="392.3" y="107.328" fill="#F4F8FC" stroke="#000000" width="150" height="200"/>
		</g>
		<g>
			<text transform="matrix(0.9288 0 0 1 66.9009 225.4961)"><tspan x="0" y="0" font-size="12">DD #3</tspan><tspan x="0" y="14.4" font-size="12">H: 1280</tspan><tspan x="0" y="28.8" font-size="12">V: 1024</tspan></text>
		</g>
		<g>
			<text transform="matrix(0.9288 0 0 1 220.9136 125.3628)"><tspan x="0" y="0" font-size="12">DD #6</tspan><tspan x="0" y="14.4" font-size="12">H: 1536</tspan><tspan x="0" y="28.8" font-size="12">V: 2048</tspan></text>
		</g>
		<g>
			<text transform="matrix(0.9288 0 0 1 399.5 125.3628)"><tspan x="0" y="0" font-size="12">DD #8</tspan><tspan x="0" y="14.4" font-size="12">H: 1536</tspan><tspan x="0" y="28.8" font-size="12">V: 2048</tspan></text>
		</g>
		<g>
			<text transform="matrix(0.9288 0 0 1 39.7007 28.4814)" font-size="14">Display System X</text>
		</g>
		<g>
			<text transform="matrix(0.9288 0 0 1 56.9004 71.5654)" font-size="12">DSS #1</text>
		</g>
		<g>
			<text transform="matrix(0.9288 0 0 1 210.6992 71.5654)" font-size="12">DSS #2</text>
		</g>
		<g>
			<text transform="matrix(0.9288 0 0 1 389.498 71.5654)" font-size="12">DSS #3</text>
		</g>
		<rect x="49.7" y="340.928" fill="#FFFFFF" width="160.002" height="50"/>
		<rect x="56.9" y="347.33" fill="none" width="103.817" height="39.797"/>
		<text transform="matrix(0.9288 0 0 1 56.9004 353.7725)"><tspan x="0" y="0" font-size="9">Legend:</tspan><tspan x="0" y="18.8" font-size="9">DSS = Display Subsystem</tspan><tspan x="0" y="29.6" font-size="9">DD = Display Device</tspan></text>
	</g>
</g>
</svg>
