<?xml version="1.0" encoding="utf-8"?>

<!DOCTYPE svg PUBLIC "-//W3C//DTD SVG 1.1//EN" "http://www.w3.org/Graphics/SVG/1.1/DTD/svg11.dtd">
<svg version="1.1" id="Layer_1" xmlns="http://www.w3.org/2000/svg" xmlns:xlink="http://www.w3.org/1999/xlink" x="0px" y="0px"
	 width="502px" height="322px" viewBox="0 0 502 322" enable-background="new 0 0 502 322" xml:space="preserve">

<defs>
    <style type="text/css">
      text {
        font-family: Helvetica, Verdana, san-serif
      }
    </style>
  </defs>

<g>
  <desc>
	DICOM PS 3.15 Part 15: Security and System Management Profiles
  </desc>
</g>

<g>
	<rect x="1" y="1" fill="#F5EED6" width="500" height="320"/>
	<g>
		<path fill="#B2CEE7" d="M198.753,17H489.5v288H198.753V17z"/>
		<path fill="#FFFFFF" d="M58.727,17h140.026v288H58.727V17z"/>
		<g>
			<path fill="#86B2D8" d="M263.062,34.581c0-1.608,1.315-2.924,2.924-2.924h64.654c1.608,0,2.924,1.316,2.924,2.924v57.6
				c0,1.608-1.315,2.924-2.924,2.924h-64.654c-1.608,0-2.924-1.316-2.924-2.924V34.581z"/>
			
				<path fill="none" stroke="#010101" stroke-width="0.6091" stroke-linecap="round" stroke-linejoin="round" stroke-miterlimit="10" d="
				M263.062,34.581c0-1.608,1.315-2.924,2.924-2.924h64.654c1.608,0,2.924,1.316,2.924,2.924v57.6c0,1.608-1.315,2.924-2.924,2.924
				h-64.654c-1.608,0-2.924-1.316-2.924-2.924V34.581z"/>
		</g>
		<g>
			<path fill="#CCDEF0" d="M67.625,124.201c0-1.551,1.269-2.82,2.82-2.82h64.36c1.551,0,2.82,1.269,2.82,2.82v17.475
				c0,1.551-1.269,2.82-2.82,2.82h-64.36c-1.551,0-2.82-1.269-2.82-2.82V124.201z"/>
			
				<path fill="none" stroke="#010101" stroke-width="0.5875" stroke-linecap="round" stroke-linejoin="round" stroke-miterlimit="1" d="
				M67.625,124.201c0-1.551,1.269-2.82,2.82-2.82h64.36c1.551,0,2.82,1.269,2.82,2.82v17.475c0,1.551-1.269,2.82-2.82,2.82h-64.36
				c-1.551,0-2.82-1.269-2.82-2.82V124.201z"/>
		</g>
		<g>
			<text transform="matrix(0.9288 0 0 1 82.0059 135.1157)" font-size="7.833">DHCP Client</text>
		</g>
		<g>
			<path fill="#86B2D8" d="M263.297,124.203c0-1.551,1.269-2.82,2.82-2.82h64.365c1.552,0,2.82,1.269,2.82,2.82v17.469
				c0,1.551-1.269,2.82-2.82,2.82h-64.365c-1.552,0-2.82-1.269-2.82-2.82V124.203z"/>
			
				<path fill="none" stroke="#010101" stroke-width="0.5875" stroke-linecap="round" stroke-linejoin="round" stroke-miterlimit="1" d="
				M263.297,124.203c0-1.551,1.269-2.82,2.82-2.82h64.365c1.552,0,2.82,1.269,2.82,2.82v17.469c0,1.551-1.269,2.82-2.82,2.82
				h-64.365c-1.552,0-2.82-1.269-2.82-2.82V124.203z"/>
		</g>
		<g>
			<text transform="matrix(0.9288 0 0 1 276.2754 135.1177)" font-size="7.833">DHCP Server</text>
		</g>
		<g>
			<text transform="matrix(0.9288 0 0 1 154.5474 35.479)" font-size="7.833">Find NTP Server (Broadcast)</text>
		</g>
		<g>
			<text transform="matrix(0.9288 0 0 1 178.6025 49.5464)" font-size="7.833">Maintain Time</text>
		</g>
		<g>
			<text transform="matrix(0.9288 0 0 1 178.6025 86.4561)" font-size="7.833">Maintain Time</text>
		</g>
		<g>
			<text transform="matrix(0.9288 0 0 1 156.7197 122.1226)" font-size="7.833">Find DHCP and Use Server</text>
		</g>
		<g>
			<text transform="matrix(0.9288 0 0 1 176.7739 136.4253)" font-size="7.833">Maintain Lease</text>
		</g>
		<g>
			<text transform="matrix(0.9288 0 0 1 270.1289 112.2002)" font-size="7.833">Resolve Hostname</text>
		</g>
		<g>
			<text transform="matrix(0.9288 0 0 1 170.6738 214.293)" font-size="7.833">FIND LDAP Server</text>
		</g>
		<g>
			<text transform="matrix(0.9288 0 0 1 160.1567 226.4746)"><tspan x="0" y="0" font-size="7.833">Find Query LDAP Server,</tspan><tspan x="-3.27" y="10.607" font-size="7.833">Client Update LDAP Server</tspan></text>
		</g>
		<g>
			<path fill="#CCDEF0" d="M67.625,80.047c0-1.551,1.269-2.82,2.82-2.82h64.36c1.551,0,2.82,1.269,2.82,2.82v17.474
				c0,1.551-1.269,2.82-2.82,2.82h-64.36c-1.551,0-2.82-1.269-2.82-2.82V80.047z"/>
			
				<path fill="none" stroke="#010101" stroke-width="0.5875" stroke-linecap="round" stroke-linejoin="round" stroke-miterlimit="1" d="
				M67.625,80.047c0-1.551,1.269-2.82,2.82-2.82h64.36c1.551,0,2.82,1.269,2.82,2.82v17.474c0,1.551-1.269,2.82-2.82,2.82h-64.36
				c-1.551,0-2.82-1.269-2.82-2.82V80.047z"/>
		</g>
		<g>
			<text transform="matrix(0.9288 0 0 1 82.6118 90.9639)" font-size="7.833">SNTP Client</text>
		</g>
		<g>
			<text transform="matrix(0.9288 0 0 1 24.4238 81.4644)"><tspan x="0" y="0" font-size="7.833">Find</tspan><tspan x="-12.838" y="9.399" font-size="7.833">NTP Server</tspan><tspan x="-6.087" y="18.799" font-size="7.833">(DHCP)</tspan></text>
		</g>
		<g>
			<path fill="#86B2D8" d="M263.305,220.316c0-1.552,1.269-2.82,2.82-2.82h64.32c1.552,0,2.82,1.269,2.82,2.82v17.46
				c0,1.552-1.269,2.82-2.82,2.82h-64.32c-1.552,0-2.82-1.269-2.82-2.82V220.316z"/>
			
				<path fill="none" stroke="#010101" stroke-width="0.5875" stroke-linecap="round" stroke-linejoin="round" stroke-miterlimit="1" d="
				M263.305,220.316c0-1.552,1.269-2.82,2.82-2.82h64.32c1.552,0,2.82,1.269,2.82,2.82v17.46c0,1.552-1.269,2.82-2.82,2.82h-64.32
				c-1.552,0-2.82-1.269-2.82-2.82V220.316z"/>
		</g>
		<g>
			<text transform="matrix(0.9288 0 0 1 277.0723 231.2266)" font-size="7.833">LDAP Server</text>
		</g>
		<g>
			<path fill="#CCDEF0" d="M67.625,168.349c0-1.552,1.269-2.82,2.82-2.82h64.36c1.551,0,2.82,1.269,2.82,2.82v17.478
				c0,1.552-1.269,2.82-2.82,2.82h-64.36c-1.551,0-2.82-1.269-2.82-2.82V168.349z"/>
			
				<path fill="none" stroke="#010101" stroke-width="0.5875" stroke-linecap="round" stroke-linejoin="round" stroke-miterlimit="1" d="
				M67.625,168.349c0-1.552,1.269-2.82,2.82-2.82h64.36c1.551,0,2.82,1.269,2.82,2.82v17.478c0,1.552-1.269,2.82-2.82,2.82h-64.36
				c-1.551,0-2.82-1.269-2.82-2.82V168.349z"/>
		</g>
		<g>
			<text transform="matrix(0.9288 0 0 1 84.5933 179.2656)" font-size="7.833">DNS Client</text>
		</g>
		<g>
			<path fill="#CCDEF0" d="M67.625,212.503c0-1.552,1.269-2.82,2.82-2.82h64.36c1.551,0,2.82,1.269,2.82,2.82v17.469
				c0,1.552-1.269,2.82-2.82,2.82h-64.36c-1.551,0-2.82-1.269-2.82-2.82V212.503z"/>
			
				<path fill="none" stroke="#010101" stroke-width="0.5875" stroke-linecap="round" stroke-linejoin="round" stroke-miterlimit="1" d="
				M67.625,212.503c0-1.552,1.269-2.82,2.82-2.82h64.36c1.551,0,2.82,1.269,2.82,2.82v17.469c0,1.552-1.269,2.82-2.82,2.82h-64.36
				c-1.551,0-2.82-1.269-2.82-2.82V212.503z"/>
		</g>
		<g>
			<text transform="matrix(0.9288 0 0 1 82.7705 223.416)" font-size="7.833">LDAP Client</text>
		</g>
		<g>
			<text transform="matrix(0.9288 0 0 1 279.2617 65.561)" font-size="7.833">NTP Server</text>
		</g>
		<g>
			<path fill="#86B2D8" d="M410.674,116.776c0-1.608,1.315-2.924,2.924-2.924h64.652c1.608,0,2.924,1.316,2.924,2.924v57.604
				c0,1.608-1.315,2.924-2.924,2.924h-64.652c-1.608,0-2.924-1.315-2.924-2.924V116.776z"/>
			
				<path fill="none" stroke="#010101" stroke-width="0.6091" stroke-linecap="round" stroke-linejoin="round" stroke-miterlimit="10" d="
				M410.674,116.776c0-1.608,1.315-2.924,2.924-2.924h64.652c1.608,0,2.924,1.316,2.924,2.924v57.604
				c0,1.608-1.315,2.924-2.924,2.924h-64.652c-1.608,0-2.924-1.315-2.924-2.924V116.776z"/>
		</g>
		<g>
			<text transform="matrix(0.9288 0 0 1 426.4707 147.7534)" font-size="7.833">DNS Server</text>
		</g>
		<g>
			<path fill="#CCDEF0" d="M67.624,35.894c0-1.551,1.269-2.82,2.82-2.82h64.361c1.551,0,2.82,1.269,2.82,2.82v17.475
				c0,1.551-1.269,2.82-2.82,2.82H70.443c-1.551,0-2.82-1.269-2.82-2.82V35.894z"/>
			
				<path fill="none" stroke="#010101" stroke-width="0.5875" stroke-linecap="round" stroke-linejoin="round" stroke-miterlimit="1" d="
				M67.624,35.894c0-1.551,1.269-2.82,2.82-2.82h64.361c1.551,0,2.82,1.269,2.82,2.82v17.475c0,1.551-1.269,2.82-2.82,2.82H70.443
				c-1.551,0-2.82-1.269-2.82-2.82V35.894z"/>
		</g>
		<g>
			<text transform="matrix(0.9288 0 0 1 85.5684 46.812)" font-size="7.833">NTP Client</text>
		</g>
		<g>
			<g>
				
					<line fill="none" stroke="#003468" stroke-width="1.5666" stroke-linecap="round" stroke-linejoin="round" stroke-miterlimit="10" x1="145.046" y1="38.444" x2="257.848" y2="38.444"/>
				<path fill="#003468" d="M260.067,37.481c-1.554-0.47-2.563-0.902-3.811-1.402v4.742c0.446-0.212,2.257-0.933,3.811-1.402
					c1.663-0.503,3.172-0.847,4.149-0.969C263.239,38.327,261.73,37.983,260.067,37.481z"/>
				<path fill="#003468" d="M142.826,39.408c1.554,0.469,2.564,0.902,3.811,1.402v-4.741c-0.446,0.212-2.257,0.933-3.811,1.402
					c-1.663,0.503-3.171,0.847-4.149,0.969C139.655,38.562,141.163,38.906,142.826,39.408z"/>
			</g>
		</g>
		<g>
			<g>
				
					<line fill="none" stroke="#003468" stroke-width="1.5666" stroke-linecap="round" stroke-linejoin="round" stroke-miterlimit="10" x1="257.848" y1="51.606" x2="145.046" y2="51.606"/>
				<path fill="#003468" d="M142.826,52.57c1.554,0.469,2.564,0.902,3.811,1.402V49.23c-0.446,0.212-2.257,0.933-3.811,1.402
					c-1.663,0.503-3.171,0.847-4.149,0.969C139.655,51.724,141.163,52.068,142.826,52.57z"/>
				<path fill="#003468" d="M260.067,50.643c-1.554-0.47-2.563-0.902-3.811-1.402v4.742c0.446-0.212,2.257-0.933,3.811-1.402
					c1.663-0.503,3.172-0.847,4.149-0.969C263.239,51.489,261.73,51.145,260.067,50.643z"/>
			</g>
		</g>
		<g>
			<text transform="matrix(0.9288 0 0 1 337.209 122.1226)" font-size="7.833">DDNS Coordination</text>
		</g>
		<g>
			<text transform="matrix(0.9288 0 0 1 338.4219 136.4253)" font-size="7.833">Resolve Hostname</text>
		</g>
		<g>
			<text transform="matrix(0.9288 0 0 1 170.7134 175.5254)" font-size="7.833">Resolve Hostname</text>
		</g>
		<g>
			<g>
				
					<line fill="none" stroke="#003468" stroke-width="1.4785" stroke-linecap="round" stroke-linejoin="round" stroke-miterlimit="10" x1="334.525" y1="124.92" x2="403.896" y2="124.92"/>
				<path fill="#003468" d="M405.992,124.011c-1.467-0.443-2.421-0.851-3.597-1.323v4.475c0.421-0.2,2.13-0.881,3.597-1.324
					c1.569-0.474,2.992-0.798,3.916-0.914C408.984,124.809,407.562,124.484,405.992,124.011z"/>
			</g>
		</g>
		<g>
			<g>
				
					<line fill="none" stroke="#003468" stroke-width="1.4785" stroke-linecap="round" stroke-linejoin="round" stroke-miterlimit="10" x1="403.896" y1="139.489" x2="339.598" y2="139.489"/>
				<path fill="#003468" d="M337.502,140.398c1.467,0.443,2.421,0.851,3.597,1.323v-4.475c-0.421,0.2-2.13,0.881-3.597,1.324
					c-1.569,0.474-2.993,0.798-3.916,0.914C334.509,139.6,335.933,139.925,337.502,140.398z"/>
				<path fill="#003468" d="M405.992,138.58c-1.467-0.443-2.421-0.851-3.597-1.323v4.475c0.421-0.2,2.13-0.881,3.597-1.324
					c1.569-0.474,2.993-0.798,3.916-0.914C408.985,139.378,407.562,139.054,405.992,138.58z"/>
			</g>
		</g>
		<g>
			<g>
				
					<line fill="none" stroke="#003468" stroke-width="1.5666" stroke-linecap="round" stroke-linejoin="round" stroke-miterlimit="10" x1="137.435" y1="124.921" x2="257.82" y2="124.921"/>
				<path fill="#003468" d="M260.04,123.958c-1.554-0.47-2.563-0.902-3.811-1.402v4.742c0.446-0.212,2.257-0.933,3.811-1.402
					c1.663-0.503,3.172-0.847,4.149-0.969C263.212,124.803,261.703,124.459,260.04,123.958z"/>
			</g>
		</g>
		<g>
			<g>
				
					<polyline fill="none" stroke="#003468" stroke-width="1.6177" stroke-linecap="round" stroke-linejoin="round" stroke-miterlimit="10" points="
					67.625,132.935 55.179,132.935 55.179,89.15 61.471,89.15 				"/>
				<path fill="#003468" d="M63.764,88.156c-1.605-0.485-2.648-0.932-3.935-1.448v4.896c0.46-0.219,2.33-0.963,3.935-1.448
					c1.717-0.519,3.275-0.874,4.285-1C67.039,89.029,65.481,88.674,63.764,88.156z"/>
			</g>
		</g>
		<g>
			<g>
				
					<polyline fill="none" stroke="#003468" stroke-width="1.6177" stroke-linecap="round" stroke-linejoin="round" stroke-miterlimit="10" points="
					55.179,94.154 55.179,44.731 61.471,44.731 				"/>
				<path fill="#003468" d="M63.764,43.737c-1.605-0.485-2.648-0.932-3.935-1.448v4.896c0.46-0.219,2.33-0.963,3.935-1.448
					c1.717-0.519,3.275-0.874,4.285-1C67.039,44.61,65.481,44.255,63.764,43.737z"/>
			</g>
		</g>
		<g>
			<g>
				
					<line fill="none" stroke="#003468" stroke-width="1.5132" stroke-linecap="round" stroke-linejoin="round" stroke-miterlimit="10" x1="257.848" y1="139.487" x2="145.046" y2="139.487"/>
				<path fill="#003468" d="M142.902,140.418c1.501,0.453,2.477,0.871,3.681,1.354v-4.58c-0.431,0.205-2.18,0.901-3.681,1.354
					c-1.606,0.486-3.063,0.818-4.008,0.936C139.838,139.601,141.295,139.933,142.902,140.418z"/>
				<path fill="#003468" d="M259.992,138.557c-1.501-0.454-2.477-0.871-3.681-1.354v4.58c0.431-0.205,2.18-0.901,3.681-1.354
					c1.606-0.486,3.063-0.818,4.008-0.936C263.056,139.374,261.599,139.042,259.992,138.557z"/>
			</g>
		</g>
		<g>
			<g>
				
					<line fill="none" stroke="#003468" stroke-width="1.5666" stroke-linecap="round" stroke-linejoin="round" stroke-miterlimit="10" x1="257.848" y1="229.047" x2="145.046" y2="229.047"/>
				<path fill="#003468" d="M142.826,230.01c1.554,0.47,2.564,0.902,3.811,1.402v-4.741c-0.446,0.212-2.257,0.933-3.811,1.402
					c-1.663,0.502-3.171,0.846-4.149,0.969C139.655,229.164,141.163,229.508,142.826,230.01z"/>
				<path fill="#003468" d="M260.067,228.084c-1.554-0.47-2.563-0.902-3.811-1.402v4.741c0.446-0.212,2.257-0.933,3.811-1.402
					c1.663-0.502,3.172-0.846,4.149-0.969C263.239,228.93,261.73,228.586,260.067,228.084z"/>
			</g>
		</g>
		<g>
			<g>
				
					<line fill="none" stroke="#003468" stroke-width="1.5132" stroke-linecap="round" stroke-linejoin="round" stroke-miterlimit="10" x1="257.848" y1="88.785" x2="145.046" y2="88.785"/>
				<path fill="#003468" d="M142.902,89.716c1.501,0.453,2.477,0.871,3.681,1.354v-4.58c-0.431,0.205-2.18,0.901-3.681,1.354
					c-1.606,0.486-3.063,0.818-4.008,0.936C139.838,88.898,141.295,89.23,142.902,89.716z"/>
				<path fill="#003468" d="M259.992,87.854c-1.501-0.454-2.477-0.871-3.681-1.354v4.58c0.431-0.205,2.18-0.901,3.681-1.354
					c1.606-0.486,3.063-0.818,4.008-0.936C263.056,88.672,261.599,88.34,259.992,87.854z"/>
			</g>
		</g>
		<g>
			<g>
				
					<polyline fill="none" stroke="#003468" stroke-width="1.5285" stroke-linecap="round" stroke-linejoin="round" stroke-miterlimit="10" points="
					143.897,177.46 238.631,177.46 238.631,152.131 403.896,152.131 				"/>
				<path fill="#003468" d="M406.062,151.191c-1.517-0.458-2.502-0.88-3.718-1.368v4.626c0.435-0.207,2.201-0.911,3.718-1.368
					c1.623-0.49,3.094-0.826,4.049-0.945C409.156,152.016,407.686,151.681,406.062,151.191z"/>
				<path fill="#003468" d="M141.731,178.399c1.516,0.459,2.502,0.88,3.718,1.368v-4.626c-0.436,0.207-2.202,0.91-3.718,1.368
					c-1.623,0.49-3.094,0.826-4.048,0.945C138.637,177.574,140.108,177.91,141.731,178.399z"/>
			</g>
		</g>
		<g>
			<g>
				
					<polyline fill="none" stroke="#003468" stroke-width="1.5087" stroke-linecap="round" stroke-linejoin="round" stroke-miterlimit="10" points="
					145.046,215.965 251.469,215.965 251.469,165.816 403.896,165.816 				"/>
				<path fill="#003468" d="M406.034,164.889c-1.496-0.452-2.469-0.868-3.67-1.351v4.566c0.43-0.204,2.174-0.898,3.67-1.351
					c1.603-0.483,3.055-0.814,3.996-0.933C409.089,165.703,407.637,165.372,406.034,164.889z"/>
				<path fill="#003468" d="M142.908,216.893c1.497,0.452,2.47,0.868,3.67,1.351v-4.566c-0.429,0.204-2.173,0.898-3.67,1.351
					c-1.602,0.483-3.054,0.814-3.996,0.933C139.854,216.078,141.307,216.409,142.908,216.893z"/>
			</g>
		</g>
		<rect x="67.625" y="276.361" fill="none" width="91.934" height="17.702"/>
		<text transform="matrix(0.9108 0 0 1 71.9443 282.0781)"><tspan x="0" y="0" font-size="7.9882">One or more Client actors </tspan><tspan x="-0.893" y="9.586" font-size="7.9882">will be in the same device.</tspan></text>
		<rect x="322.787" y="276.361" fill="none" width="91.934" height="17.702"/>
		<text transform="matrix(0.9108 0 0 1 325.6934 282.0791)"><tspan x="0" y="0" font-size="7.9882">One or more Server actors </tspan><tspan x="-1.34" y="9.586" font-size="7.9882">may be in the same device.</tspan></text>
		<path fill="none" stroke="#005695" stroke-width="1.8321" stroke-linecap="round" stroke-miterlimit="1" d="M253.127,255.128
			c0,3.746,0.635,3.29,1.9,4.218c1.268,0.928,3.078,1.556,5.434,1.883c2.357,0.328,63.311,0,73.898,0
			c11.504,0,19.588,1.465,24.248,3.412c4.662,1.946,8.057,4.775,10.184,8.487c2.486-3.748,5.412-6.413,8.779-7.996
			c3.373-1.583,7.541-3.558,12.504-3.903c4.969-0.345,67.502,0,78.648,0c6.639,0,10.908-0.136,12.809-1.392
			c1.9-1.255,2.85-0.963,2.85-4.709"/>
		<path fill="none" stroke="#005695" stroke-width="2" stroke-linecap="round" stroke-miterlimit="1" d="M65.297,255.128
			c0,3.746,0.266,3.29,0.794,4.218c0.53,0.928,1.286,1.556,2.27,1.883c0.984,0.328,26.442,0,30.865,0
			c4.805,0,8.181,1.465,10.127,3.412c1.948,1.946,3.365,4.775,4.254,8.487c1.038-3.748,2.261-6.413,3.667-7.996
			c1.408-1.583,3.149-3.558,5.223-3.903c2.075-0.345,28.193,0,32.849,0c2.772,0,4.556-0.136,5.35-1.392
			c0.794-1.255,1.19-0.963,1.19-4.709"/>
	</g>
</g>
</svg>
