<?xml version="1.0" encoding="utf-8"?>

<!DOCTYPE svg PUBLIC "-//W3C//DTD SVG 1.1//EN" "http://www.w3.org/Graphics/SVG/1.1/DTD/svg11.dtd">
<svg version="1.1" id="Layer_1" xmlns="http://www.w3.org/2000/svg" xmlns:xlink="http://www.w3.org/1999/xlink" x="0px" y="0px"
	 width="502px" height="282px" viewBox="0 0 502 282" enable-background="new 0 0 502 282" xml:space="preserve">

<defs>
    <style type="text/css">
      text {
        font-family: Helvetica, Verdana, san-serif
      }
    </style>
  </defs>

<g>
  <desc>
	DICOM PS 3.15 Part 15: Security and System Management Profiles
  </desc>
</g>

<g>
	<rect x="1" y="1" fill="#F5EED6" width="500" height="280"/>
	<g>
		<rect x="40.057" y="175.793" fill="#CCDEF0" stroke="#000000" stroke-miterlimit="1" width="90" height="90"/>
		<rect x="256.39" y="175.793" fill="#CCDEF0" stroke="#000000" stroke-miterlimit="1" width="90" height="90"/>
		<polyline fill="none" stroke="#005695" stroke-linecap="round" stroke-miterlimit="1" points="87.676,196.724 87.676,204.365 
			64.239,204.365 64.239,212.217 		"/>
		
			<rect x="45.523" y="246.214" fill="#B2CEE7" stroke="#010101" stroke-width="0.75" stroke-linecap="round" stroke-linejoin="round" stroke-miterlimit="1" width="37.132" height="15.913"/>
		<g>
			<text transform="matrix(1 0 0 1 52.9189 252.4619)"><tspan x="0" y="0" font-size="6">Transfer</tspan><tspan x="-4.339" y="7.2" font-size="6">Capabilities</tspan></text>
		</g>
		
			<line fill="none" stroke="#005695" stroke-linecap="round" stroke-miterlimit="1" x1="64.239" y1="233.191" x2="64.239" y2="241.15"/>
		<polyline fill="none" stroke="#005695" stroke-linecap="round" stroke-miterlimit="1" points="87.7,196.935 87.7,204.365 
			111.137,204.365 111.137,212.43 		"/>
		
			<rect x="45.523" y="217.387" fill="#B2CEE7" stroke="#010101" stroke-width="0.75" stroke-linecap="round" stroke-linejoin="round" stroke-miterlimit="1" width="37.132" height="15.912"/>
		<g>
			<text transform="matrix(1 0 0 1 46.7505 226.8174)" font-size="6">Network AEs</text>
		</g>
		
			<rect x="87.96" y="217.387" fill="#B2CEE7" stroke="#010101" stroke-width="0.75" stroke-linecap="round" stroke-linejoin="round" stroke-miterlimit="1" width="37.131" height="15.912"/>
		<g>
			<text transform="matrix(1 0 0 1 89.8452 226.8174)" font-size="6">Connections</text>
		</g>
		
			<rect x="69.106" y="180.345" fill="#B2CEE7" stroke="#010101" stroke-width="0.75" stroke-linecap="round" stroke-linejoin="round" stroke-miterlimit="1" width="37.132" height="15.915"/>
		<g>
			<text transform="matrix(1 0 0 1 75.667 189.7764)" font-size="6">Device A</text>
		</g>
		<rect x="137.816" y="175.793" fill="#CCDEF0" stroke="#000000" stroke-miterlimit="1" width="90" height="90"/>
		<polyline fill="none" stroke="#005695" stroke-linecap="round" stroke-miterlimit="1" points="185.238,196.724 185.238,204.365 
			161.802,204.365 161.802,212.217 		"/>
		
			<rect x="143.086" y="246.214" fill="#B2CEE7" stroke="#010101" stroke-width="0.75" stroke-linecap="round" stroke-linejoin="round" stroke-miterlimit="1" width="37.132" height="15.913"/>
		<g>
			<text transform="matrix(1 0 0 1 150.4819 252.4619)"><tspan x="0" y="0" font-size="6">Transfer</tspan><tspan x="-4.339" y="7.2" font-size="6">Capabilities</tspan></text>
		</g>
		
			<line fill="none" stroke="#005695" stroke-linecap="round" stroke-miterlimit="1" x1="161.802" y1="233.191" x2="161.802" y2="241.15"/>
		<polyline fill="none" stroke="#005695" stroke-linecap="round" stroke-miterlimit="1" points="185.263,196.935 185.263,204.365 
			208.699,204.365 208.699,212.43 		"/>
		
			<rect x="143.086" y="217.387" fill="#B2CEE7" stroke="#010101" stroke-width="0.75" stroke-linecap="round" stroke-linejoin="round" stroke-miterlimit="1" width="37.132" height="15.912"/>
		<g>
			<text transform="matrix(1 0 0 1 144.3135 226.8174)" font-size="6">Network AEs</text>
		</g>
		
			<rect x="185.522" y="217.387" fill="#B2CEE7" stroke="#010101" stroke-width="0.75" stroke-linecap="round" stroke-linejoin="round" stroke-miterlimit="1" width="37.131" height="15.912"/>
		<g>
			<text transform="matrix(1 0 0 1 187.4082 226.8174)" font-size="6">Connections</text>
		</g>
		
			<rect x="166.669" y="180.345" fill="#B2CEE7" stroke="#010101" stroke-width="0.75" stroke-linecap="round" stroke-linejoin="round" stroke-miterlimit="1" width="37.132" height="15.915"/>
		<g>
			<text transform="matrix(1 0 0 1 173.23 189.7764)" font-size="6">Device B</text>
		</g>
		<polyline fill="none" stroke="#005695" stroke-linecap="round" stroke-miterlimit="1" points="303.68,196.724 303.68,204.365 
			280.246,204.365 280.246,212.217 		"/>
		
			<rect x="261.529" y="246.214" fill="#B2CEE7" stroke="#010101" stroke-width="0.75" stroke-linecap="round" stroke-linejoin="round" stroke-miterlimit="1" width="37.131" height="15.913"/>
		<g>
			<text transform="matrix(1 0 0 1 268.9258 252.4619)"><tspan x="0" y="0" font-size="6">Transfer</tspan><tspan x="-4.34" y="7.2" font-size="6">Capabilities</tspan></text>
		</g>
		
			<line fill="none" stroke="#005695" stroke-linecap="round" stroke-miterlimit="1" x1="280.246" y1="233.191" x2="280.246" y2="241.15"/>
		<polyline fill="none" stroke="#005695" stroke-linecap="round" stroke-miterlimit="1" points="303.704,196.935 303.704,204.365 
			327.139,204.365 327.139,212.43 		"/>
		
			<rect x="261.529" y="217.387" fill="#B2CEE7" stroke="#010101" stroke-width="0.75" stroke-linecap="round" stroke-linejoin="round" stroke-miterlimit="1" width="37.131" height="15.912"/>
		<g>
			<text transform="matrix(1 0 0 1 262.7568 226.8174)" font-size="6">Network AEs</text>
		</g>
		
			<rect x="303.964" y="217.387" fill="#B2CEE7" stroke="#010101" stroke-width="0.75" stroke-linecap="round" stroke-linejoin="round" stroke-miterlimit="1" width="37.129" height="15.912"/>
		<g>
			<text transform="matrix(1 0 0 1 305.8516 226.8174)" font-size="6">Connections</text>
		</g>
		
			<rect x="285.112" y="180.345" fill="#B2CEE7" stroke="#010101" stroke-width="0.75" stroke-linecap="round" stroke-linejoin="round" stroke-miterlimit="1" width="37.128" height="15.915"/>
		<g>
			<text transform="matrix(1 0 0 1 289.8408 189.7764)" font-size="6">Device N  </text>
		</g>
		<g>
			<g>
				<polyline fill="none" stroke="#005695" stroke-miterlimit="1" points="272.201,110.127 185.635,110.127 185.635,120.043 				"/>
				<g>
					<polygon fill="#005695" points="183.311,118.458 185.635,127.131 187.959,118.458 					"/>
				</g>
			</g>
		</g>
		<g>
			<g>
				<line fill="none" stroke="#005695" stroke-miterlimit="1" x1="272.263" y1="43.208" x2="272.263" y2="57.982"/>
				<g>
					<polygon fill="#005695" points="269.938,56.397 272.263,65.07 274.587,56.397 					"/>
				</g>
			</g>
		</g>
		<g>
			<g>
				<line fill="none" stroke="#005695" stroke-miterlimit="1" x1="185.387" y1="145.23" x2="185.387" y2="167.858"/>
				<g>
					<polygon fill="#005695" points="183.062,166.273 185.387,174.946 187.711,166.273 					"/>
				</g>
			</g>
		</g>
		<g>
			<g>
				<polyline fill="none" stroke="#005695" stroke-miterlimit="1" points="272.449,91.926 272.449,110.127 380.7,110.127 
					380.7,120.043 				"/>
				<g>
					<polygon fill="#005695" points="378.376,118.458 380.7,127.131 383.024,118.458 					"/>
				</g>
			</g>
		</g>
		
			<rect x="222.764" y="16.208" fill="#B2CEE7" stroke="#010101" stroke-width="0.75" stroke-linecap="round" stroke-linejoin="round" stroke-miterlimit="1" width="98.995" height="27"/>
		<g>
			<text transform="matrix(1 0 0 1 226.7393 26.814)"><tspan x="0" y="0" font-size="9">Hospital, Organization,</tspan><tspan x="17.76" y="10.8" font-size="9">Country, Root</tspan></text>
		</g>
		
			<rect x="222.765" y="65.07" fill="#B2CEE7" stroke="#010101" stroke-width="0.75" stroke-linecap="round" stroke-linejoin="round" stroke-miterlimit="1" width="98.993" height="27"/>
		<g>
			<text transform="matrix(1 0 0 1 229.2466 81.0762)" font-size="9">DICOM Configuration</text>
		</g>
		<g>
			<g>
				<polyline fill="none" stroke="#005695" stroke-miterlimit="1" points="185.387,145.23 185.387,156.251 88.38,156.251 
					88.38,168.039 				"/>
				<g>
					<polygon fill="#005695" points="86.056,166.454 88.38,175.127 90.704,166.454 					"/>
				</g>
			</g>
		</g>
		<g>
			<g>
				<polyline fill="none" stroke="#005695" stroke-miterlimit="1" points="185.387,145.23 185.387,156.251 303.677,156.251 
					303.677,168.039 				"/>
				<g>
					<polygon fill="#005695" points="301.353,166.454 303.677,175.127 306.001,166.454 					"/>
				</g>
			</g>
		</g>
		
			<rect x="153.884" y="127.346" fill="#B2CEE7" stroke="#010101" stroke-width="0.75" stroke-linecap="round" stroke-linejoin="round" stroke-miterlimit="1" width="63" height="17.996"/>
		<g>
			<text transform="matrix(1 0 0 1 169.377 138.8501)" font-size="9">Devices</text>
		</g>
		
			<rect x="407.944" y="180.566" fill="#B2CEE7" stroke="#010101" stroke-width="0.75" stroke-linecap="round" stroke-linejoin="round" stroke-miterlimit="1" stroke-dasharray="3,4" width="54" height="15.915"/>
		<g>
			<text transform="matrix(1 0 0 1 410.6211 189.998)" font-size="7">Unique AE Title</text>
		</g>
		
			<rect x="407.944" y="201.789" fill="#B2CEE7" stroke="#010101" stroke-width="0.75" stroke-linecap="round" stroke-linejoin="round" stroke-miterlimit="1" stroke-dasharray="3,4" width="54" height="15.915"/>
		<g>
			<text transform="matrix(1 0 0 1 410.6211 211.2207)" font-size="7">Unique AE Title</text>
		</g>
		
			<rect x="407.944" y="223.011" fill="#B2CEE7" stroke="#010101" stroke-width="0.75" stroke-linecap="round" stroke-linejoin="round" stroke-miterlimit="1" stroke-dasharray="3,4" width="54" height="15.915"/>
		<g>
			<text transform="matrix(1 0 0 1 410.6211 232.4424)" font-size="7">Unique AE Title</text>
		</g>
		
			<rect x="407.944" y="159.345" fill="#B2CEE7" stroke="#010101" stroke-width="0.75" stroke-linecap="round" stroke-linejoin="round" stroke-miterlimit="1" width="54" height="15.915"/>
		<g>
			<text transform="matrix(1 0 0 1 410.6211 168.7764)" font-size="7">Unique AE Title</text>
		</g>
		<polyline fill="none" stroke="#005695" stroke-linecap="round" stroke-miterlimit="1" points="380.873,145.23 380.873,166.655 
			399.141,166.655 		"/>
		<polyline fill="none" stroke="#005695" stroke-linecap="round" stroke-miterlimit="1" stroke-dasharray="3,4" points="
			380.873,166.23 380.873,187.655 399.141,187.655 		"/>
		<polyline fill="none" stroke="#005695" stroke-linecap="round" stroke-miterlimit="1" stroke-dasharray="3,4" points="
			380.873,187.23 380.873,208.655 399.141,208.655 		"/>
		<polyline fill="none" stroke="#005695" stroke-linecap="round" stroke-miterlimit="1" stroke-dasharray="3,4" points="
			380.873,208.23 380.873,229.655 399.141,229.655 		"/>
		
			<rect x="326.62" y="127.346" fill="#B2CEE7" stroke="#010101" stroke-width="0.75" stroke-linecap="round" stroke-linejoin="round" stroke-miterlimit="1" width="108" height="17.996"/>
		<g>
			<text transform="matrix(1 0 0 1 329.3535 138.8501)" font-size="9">Unique AE Titles Registry</text>
		</g>
		
			<line fill="none" stroke="#005695" stroke-width="2" stroke-linecap="round" stroke-miterlimit="1" stroke-dasharray="3,4" x1="233.043" y1="225.793" x2="251.043" y2="225.793"/>
	</g>
</g>
</svg>
