<?xml version="1.0" encoding="utf-8"?>

<!DOCTYPE svg PUBLIC "-//W3C//DTD SVG 1.1//EN" "http://www.w3.org/Graphics/SVG/1.1/DTD/svg11.dtd">
<svg version="1.1" id="Layer_1" xmlns="http://www.w3.org/2000/svg" xmlns:xlink="http://www.w3.org/1999/xlink" x="0px" y="0px"
	 width="502px" height="167px" viewBox="0 0 502 167" enable-background="new 0 0 502 167" xml:space="preserve">

<defs>
    <style type="text/css">
      text {
        font-family: Helvetica, Verdana, san-serif
      }
    </style>
  </defs>

<g>
  <desc>
	DICOM PS 3.15 Part 15: Security and System Management Profiles
  </desc>
</g>

<g>
	<rect x="1" y="1" fill="#F5EED6" width="500" height="165"/>
	<g>
		<g>
			<path fill="#B2CEE7" d="M326.306,26.899c0-0.992,0.812-1.803,1.803-1.803h59.395c0.991,0,1.803,0.812,1.803,1.803v23.392
				c0,0.992-0.812,1.803-1.803,1.803h-59.395c-0.991,0-1.803-0.812-1.803-1.803V26.899z"/>
			
				<path fill="none" stroke="#010101" stroke-width="0.3756" stroke-linecap="round" stroke-linejoin="round" stroke-miterlimit="10" d="
				M326.306,26.899c0-0.992,0.812-1.803,1.803-1.803h59.395c0.991,0,1.803,0.812,1.803,1.803v23.392
				c0,0.992-0.812,1.803-1.803,1.803h-59.395c-0.991,0-1.803-0.812-1.803-1.803V26.899z"/>
		</g>
		<g>
			<path fill="#B2CEE7" d="M322.213,22.806c0-0.992,0.812-1.803,1.803-1.803h59.395c0.991,0,1.803,0.812,1.803,1.803v23.392
				c0,0.992-0.812,1.803-1.803,1.803h-59.395c-0.991,0-1.803-0.812-1.803-1.803V22.806z"/>
			
				<path fill="none" stroke="#010101" stroke-width="0.3756" stroke-linecap="round" stroke-linejoin="round" stroke-miterlimit="10" d="
				M322.213,22.806c0-0.992,0.812-1.803,1.803-1.803h59.395c0.991,0,1.803,0.812,1.803,1.803v23.392
				c0,0.992-0.812,1.803-1.803,1.803h-59.395c-0.991,0-1.803-0.812-1.803-1.803V22.806z"/>
		</g>
		<g>
			<path fill="#B2CEE7" d="M318.12,18.713c0-0.992,0.812-1.803,1.803-1.803h59.395c0.991,0,1.803,0.812,1.803,1.803v23.392
				c0,0.992-0.812,1.803-1.803,1.803h-59.395c-0.991,0-1.803-0.812-1.803-1.803V18.713z"/>
			
				<path fill="none" stroke="#010101" stroke-width="0.3756" stroke-linecap="round" stroke-linejoin="round" stroke-miterlimit="10" d="
				M318.12,18.713c0-0.992,0.812-1.803,1.803-1.803h59.395c0.991,0,1.803,0.812,1.803,1.803v23.392c0,0.992-0.812,1.803-1.803,1.803
				h-59.395c-0.991,0-1.803-0.812-1.803-1.803V18.713z"/>
		</g>
		<g>
			<text transform="matrix(0.9288 0 0 1 325.6494 32.9155)" font-size="9">NTP Servers</text>
		</g>
		<g>
			<path fill="#B2CEE7" d="M215.351,18.713c0-0.992,0.812-1.803,1.803-1.803h59.394c0.991,0,1.803,0.812,1.803,1.803v23.392
				c0,0.992-0.812,1.803-1.803,1.803h-59.394c-0.992,0-1.803-0.812-1.803-1.803V18.713z"/>
			
				<path fill="none" stroke="#010101" stroke-width="0.3756" stroke-linecap="round" stroke-linejoin="round" stroke-miterlimit="10" d="
				M215.351,18.713c0-0.992,0.812-1.803,1.803-1.803h59.394c0.991,0,1.803,0.812,1.803,1.803v23.392
				c0,0.992-0.812,1.803-1.803,1.803h-59.394c-0.992,0-1.803-0.812-1.803-1.803V18.713z"/>
		</g>
		<g>
			<text transform="matrix(0.9288 0 0 1 226.6436 32.9155)" font-size="9">NTP Client</text>
		</g>
		<g>
			<path fill="#B2CEE7" d="M112.695,18.713c0-0.992,0.812-1.803,1.803-1.803h59.394c0.992,0,1.803,0.812,1.803,1.803v23.392
				c0,0.992-0.812,1.803-1.803,1.803h-59.394c-0.992,0-1.803-0.812-1.803-1.803V18.713z"/>
			
				<path fill="none" stroke="#010101" stroke-width="0.3756" stroke-linecap="round" stroke-linejoin="round" stroke-miterlimit="10" d="
				M112.695,18.713c0-0.992,0.812-1.803,1.803-1.803h59.394c0.992,0,1.803,0.812,1.803,1.803v23.392
				c0,0.992-0.812,1.803-1.803,1.803h-59.394c-0.992,0-1.803-0.812-1.803-1.803V18.713z"/>
		</g>
		<g>
			<text transform="matrix(0.9288 0 0 1 120.5039 32.5845)" font-size="9">DHCP Client</text>
		</g>
		<g>
			<path fill="#B2CEE7" d="M318.12,102.394c0-0.991,0.812-1.803,1.803-1.803h59.395c0.991,0,1.803,0.812,1.803,1.803v23.394
				c0,0.991-0.812,1.803-1.803,1.803h-59.395c-0.991,0-1.803-0.812-1.803-1.803V102.394z"/>
			
				<path fill="none" stroke="#010101" stroke-width="0.3756" stroke-linecap="round" stroke-linejoin="round" stroke-miterlimit="10" d="
				M318.12,102.394c0-0.991,0.812-1.803,1.803-1.803h59.395c0.991,0,1.803,0.812,1.803,1.803v23.394
				c0,0.991-0.812,1.803-1.803,1.803h-59.395c-0.991,0-1.803-0.812-1.803-1.803V102.394z"/>
		</g>
		<g>
			<text transform="matrix(0.9288 0 0 1 324.2559 116.5957)" font-size="9">DHCP Server</text>
		</g>
		<g>
			<path fill="#B2CEE7" d="M112.695,102.394c0-0.991,0.812-1.803,1.803-1.803h59.394c0.992,0,1.803,0.812,1.803,1.803v23.394
				c0,0.991-0.812,1.803-1.803,1.803h-59.394c-0.992,0-1.803-0.812-1.803-1.803V102.394z"/>
			
				<path fill="none" stroke="#010101" stroke-width="0.3756" stroke-linecap="round" stroke-linejoin="round" stroke-miterlimit="10" d="
				M112.695,102.394c0-0.991,0.812-1.803,1.803-1.803h59.394c0.992,0,1.803,0.812,1.803,1.803v23.394
				c0,0.991-0.812,1.803-1.803,1.803h-59.394c-0.992,0-1.803-0.812-1.803-1.803V102.394z"/>
		</g>
		<g>
			<text transform="matrix(0.9288 0 0 1 121.2002 116.2656)" font-size="9">SNTP Client</text>
		</g>
		<path fill="#CCDEF0" stroke="#010101" stroke-width="0.6316" d="M282.905,114.09c0-19.882-16.117-36-36.002-36
			c-19.88,0-35.997,16.118-35.997,36s16.117,36,35.997,36C266.788,150.09,282.905,133.972,282.905,114.09z"/>
		<g>
			<text transform="matrix(1 0 0 1 236.2065 103.9531)"><tspan x="0" y="0" font-size="11">Find</tspan><tspan x="-0.301" y="13.199" font-size="11">NTP</tspan><tspan x="-8.25" y="26.399" font-size="11">Servers</tspan></text>
		</g>
		<g>
			<g>
				<line fill="#4F8ABE" x1="278.462" y1="84.1" x2="318.062" y2="44.5"/>
				<path fill="#4F8ABE" d="M277.895,85.536c0.913-0.489,1.564-0.75,2.354-1.087l-2.141-2.14c-0.105,0.297-0.598,1.44-1.087,2.353
					c-0.524,0.978-1.05,1.813-1.436,2.311C276.081,86.586,276.917,86.061,277.895,85.536z"/>
			</g>
			<g>
				
					<line fill="none" stroke="#005695" stroke-width="1.4951" stroke-linecap="round" stroke-miterlimit="1" x1="278.462" y1="84.1" x2="318.062" y2="44.5"/>
				<path fill="#005695" d="M277.614,86.248c1.365-0.732,2.339-1.122,3.518-1.626l-3.2-3.199c-0.157,0.444-0.893,2.152-1.625,3.518
					c-0.783,1.462-1.569,2.712-2.146,3.454C274.902,87.817,276.152,87.031,277.614,86.248z"/>
			</g>
		</g>
		<g>
			<g>
				<line fill="#4F8ABE" x1="215.351" y1="84.101" x2="175.75" y2="44.501"/>
				<path fill="#4F8ABE" d="M216.788,84.668c-0.49-0.914-0.75-1.564-1.087-2.353l-2.14,2.14c0.297,0.105,1.44,0.598,2.353,1.087
					c0.978,0.524,1.813,1.05,2.31,1.436C217.837,86.481,217.312,85.646,216.788,84.668z"/>
			</g>
			<g>
				
					<line fill="none" stroke="#005695" stroke-width="1.4951" stroke-linecap="round" stroke-miterlimit="1" x1="215.351" y1="84.101" x2="175.75" y2="44.501"/>
				<path fill="#005695" d="M217.499,84.948c-0.732-1.365-1.122-2.339-1.625-3.518l-3.2,3.2c0.444,0.157,2.152,0.893,3.518,1.625
					c1.462,0.783,2.711,1.569,3.454,2.146C219.068,87.66,218.283,86.41,217.499,84.948z"/>
			</g>
		</g>
		<g>
			<g>
				<line fill="#4F8ABE" x1="246.905" y1="45.348" x2="246.905" y2="70.429"/>
				<path fill="#4F8ABE" d="M247.52,71.846c0.3-0.992,0.576-1.637,0.895-2.433h-3.026c0.135,0.285,0.596,1.441,0.895,2.433
					c0.321,1.062,0.54,2.024,0.618,2.649C246.98,73.87,247.2,72.908,247.52,71.846z"/>
			</g>
			<g>
				
					<line fill="none" stroke="#005695" stroke-width="1.4951" stroke-linecap="round" stroke-miterlimit="1" x1="246.905" y1="45.348" x2="246.905" y2="70.429"/>
				<path fill="#005695" d="M247.825,72.547c0.448-1.483,0.861-2.447,1.338-3.637h-4.525c0.202,0.426,0.891,2.154,1.338,3.637
					c0.48,1.587,0.808,3.027,0.925,3.96C247.018,75.574,247.346,74.135,247.825,72.547z"/>
			</g>
		</g>
		<g>
			<g>
				<line fill="#4F8ABE" x1="175.695" y1="114.09" x2="204.924" y2="114.09"/>
				<path fill="#4F8ABE" d="M206.341,113.475c-0.992-0.3-1.637-0.575-2.433-0.895v3.026c0.285-0.136,1.441-0.596,2.433-0.895
					c1.062-0.321,2.024-0.541,2.649-0.619C208.365,114.015,207.403,113.795,206.341,113.475z"/>
			</g>
			<g>
				
					<line fill="none" stroke="#005695" stroke-width="1.6141" stroke-linecap="round" stroke-miterlimit="1" x1="175.695" y1="114.09" x2="204.924" y2="114.09"/>
				<path fill="#005695" d="M207.211,113.098c-1.601-0.484-2.642-0.93-3.926-1.445v4.886c0.46-0.219,2.325-0.962,3.926-1.444
					c1.714-0.519,3.268-0.872,4.275-0.999C210.479,113.969,208.925,113.614,207.211,113.098z"/>
			</g>
		</g>
		<g>
			<g>
				<line fill="#4F8ABE" x1="318.12" y1="114.09" x2="288.895" y2="114.09"/>
				<path fill="#4F8ABE" d="M287.478,114.705c0.992,0.3,1.637,0.575,2.433,0.895v-3.026c-0.285,0.135-1.44,0.596-2.433,0.895
					c-1.062,0.321-2.024,0.541-2.648,0.619C285.453,114.165,286.416,114.384,287.478,114.705z"/>
			</g>
			<g>
				
					<line fill="none" stroke="#005695" stroke-width="1.614" stroke-linecap="round" stroke-miterlimit="1" x1="318.12" y1="114.09" x2="288.895" y2="114.09"/>
				<path fill="#005695" d="M286.607,115.082c1.601,0.484,2.642,0.93,3.926,1.445v-4.886c-0.459,0.219-2.325,0.962-3.926,1.445
					c-1.714,0.518-3.268,0.871-4.275,0.998C283.34,114.211,284.894,114.565,286.607,115.082z"/>
			</g>
		</g>
	</g>
</g>
</svg>
