<?xml version="1.0" encoding="utf-8"?>

<!DOCTYPE svg PUBLIC "-//W3C//DTD SVG 1.1//EN" "http://www.w3.org/Graphics/SVG/1.1/DTD/svg11.dtd">
<svg version="1.1" id="Layer_1" xmlns="http://www.w3.org/2000/svg" xmlns:xlink="http://www.w3.org/1999/xlink" x="0px" y="0px"
	 width="502px" height="267px" viewBox="0 0 502 267" enable-background="new 0 0 502 267" xml:space="preserve">

<defs>
    <style type="text/css">
      text {
        font-family: Helvetica, Verdana, san-serif
      }
    </style>
  </defs>

<g>
  <desc>
	DICOM PS 3.15 Part 15: Security and System Management Profiles
  </desc>
</g>

<g>
<rect x="1" y="1" fill="#F5EED6" width="500" height="265"/>
<g>
	<g>
		
			<line fill="none" stroke="#005695" stroke-linecap="round" stroke-miterlimit="1" x1="91.823" y1="70.193" x2="269.028" y2="70.193"/>
		<g>
			<polygon fill="#005695" points="267.839,71.937 274.344,70.193 267.839,68.45 			"/>
		</g>
	</g>
</g>
<g>
	<line fill="#4F8ABE" x1="91.823" y1="169.717" x2="273.625" y2="169.717"/>
	<g>
		
			<line fill="none" stroke="#005695" stroke-linecap="round" stroke-miterlimit="1" x1="91.823" y1="169.717" x2="268.31" y2="169.717"/>
		<g>
			<polygon fill="#005695" points="267.12,171.46 273.625,169.717 267.12,167.974 			"/>
		</g>
	</g>
</g>
<g>
	<g>
		
			<line fill="none" stroke="#005695" stroke-linecap="round" stroke-miterlimit="1" x1="273.64" y1="94.172" x2="101.155" y2="94.172"/>
		<g>
			<polygon fill="#005695" points="102.344,92.429 95.839,94.172 102.344,95.915 			"/>
		</g>
	</g>
</g>
<g>
	<g>
		
			<line fill="none" stroke="#005695" stroke-linecap="round" stroke-miterlimit="1" x1="273.64" y1="216.955" x2="97.195" y2="216.955"/>
		<g>
			<polygon fill="#005695" points="98.384,215.212 91.879,216.955 98.384,218.698 			"/>
		</g>
	</g>
</g>
<line fill="#4F8ABE" stroke="#005695" stroke-linecap="round" stroke-miterlimit="1" stroke-dasharray="3" x1="87.338" y1="249.734" x2="87.338" y2="41.3"/>
<path fill="#CCDEF0" stroke="#010101" stroke-width="0.75" stroke-linecap="round" stroke-linejoin="round" stroke-miterlimit="1" d="
	M64.837,17.267h45.001v27H64.837V17.267z"/>
<text transform="matrix(1 0 0 1 75.8389 33.834)" font-size="9">Client</text>
<line fill="#4F8ABE" stroke="#005695" stroke-linecap="round" stroke-miterlimit="1" stroke-dasharray="3" x1="278.668" y1="249.734" x2="278.668" y2="41.3"/>
<path fill="#CCDEF0" stroke="#010101" stroke-width="0.75" stroke-linecap="round" stroke-linejoin="round" stroke-miterlimit="1" d="
	M247.164,17.267h63v27h-63V17.267z"/>
<text transform="matrix(1 0 0 1 251.9155 27.2334)"><tspan x="0" y="0" font-size="9">DHCP Server</tspan><tspan x="6.746" y="10.8" font-size="9">(Selected)</tspan></text>
<line fill="#4F8ABE" stroke="#005695" stroke-linecap="round" stroke-miterlimit="1" stroke-dasharray="3" x1="405.668" y1="249.734" x2="405.668" y2="41.3"/>
<path fill="#CCDEF0" stroke="#010101" stroke-width="0.75" stroke-linecap="round" stroke-linejoin="round" stroke-miterlimit="1" d="
	M374.164,17.267h63v27h-63V17.267z"/>
<text transform="matrix(1 0 0 1 378.916 27.2334)"><tspan x="0" y="0" font-size="9">DHCP Server</tspan><tspan x="-1.508" y="10.8" font-size="9">(Not Selected)</tspan></text>
<text transform="matrix(1 0 0 1 109.9482 66.5625)"><tspan x="0" y="0" font-size="8">1. DHCP Query (broadcast)</tspan><tspan x="0" y="24.6" font-size="8">2.Responses from all DHCP Servers</tspan><tspan x="0" y="73.8" font-size="8">3. Select Server</tspan><tspan x="0" y="98.4" font-size="8">4. Request Parameters</tspan><tspan x="0" y="123" font-size="8">5. Determine Parameters, establish lease</tspan><tspan x="0" y="147.6" font-size="8">7. Parameters</tspan></text>
<rect x="82.868" y="56.205" fill="#CCDEF0" stroke="#010101" stroke-width="0.75" stroke-linecap="round" stroke-linejoin="round" stroke-miterlimit="1" width="9" height="27.251"/>
<rect x="82.868" y="120.187" fill="#CCDEF0" stroke="#010101" stroke-width="0.75" stroke-linecap="round" stroke-linejoin="round" stroke-miterlimit="1" width="9" height="57.769"/>
<rect x="274.484" y="134.587" fill="#CCDEF0" stroke="#010101" stroke-width="0.75" stroke-linecap="round" stroke-linejoin="round" stroke-miterlimit="1" width="9" height="91.981"/>
<rect x="82.618" y="209.287" fill="#CCDEF0" stroke="#010101" stroke-width="0.75" stroke-linecap="round" stroke-linejoin="round" stroke-miterlimit="1" width="9" height="33.002"/>
<rect x="274.312" y="57.956" fill="#CCDEF0" stroke="#010101" stroke-width="0.75" stroke-linecap="round" stroke-linejoin="round" stroke-miterlimit="1" width="9" height="45"/>
<rect x="401.312" y="57.956" fill="#CCDEF0" stroke="#010101" stroke-width="0.75" stroke-linecap="round" stroke-linejoin="round" stroke-miterlimit="1" width="9" height="52.5"/>
<g>
	<g>
		<polyline fill="none" stroke="#005695" stroke-linecap="round" stroke-miterlimit="1" points="92.605,129.378 105.356,129.378 
			105.356,144.516 97.556,144.516 		"/>
		<g>
			<polygon fill="#005695" points="98.745,142.772 92.241,144.516 98.745,146.259 			"/>
		</g>
	</g>
</g>
<g>
	<g>
		<polyline fill="none" stroke="#005695" stroke-linecap="round" stroke-miterlimit="1" points="273.763,179.955 261.731,179.955 
			261.731,195.094 269.164,195.094 		"/>
		<g>
			<polygon fill="#005695" points="267.975,196.837 274.479,195.094 267.975,193.351 			"/>
		</g>
	</g>
</g>
<g>
	<line fill="#4F8ABE" x1="91.869" y1="73.793" x2="401.561" y2="73.793"/>
	<g>
		
			<line fill="none" stroke="#005695" stroke-linecap="round" stroke-miterlimit="1" x1="91.869" y1="73.793" x2="396.245" y2="73.793"/>
		<g>
			<polygon fill="#005695" points="395.056,75.536 401.561,73.793 395.056,72.05 			"/>
		</g>
	</g>
</g>
<g>
	<g>
		
			<line fill="none" stroke="#005695" stroke-linecap="round" stroke-miterlimit="1" x1="401.64" y1="98.852" x2="101.155" y2="98.852"/>
		<g>
			<polygon fill="#005695" points="102.344,97.108 95.839,98.852 102.344,100.595 			"/>
		</g>
	</g>
</g>
</g>
</svg>
