<?xml version="1.0" encoding="utf-8"?>

<!DOCTYPE svg PUBLIC "-//W3C//DTD SVG 1.1//EN" "http://www.w3.org/Graphics/SVG/1.1/DTD/svg11.dtd">
<svg version="1.1" id="Layer_1" xmlns="http://www.w3.org/2000/svg" xmlns:xlink="http://www.w3.org/1999/xlink" x="0px" y="0px"
	 width="502px" height="267px" viewBox="0 0 502 267" enable-background="new 0 0 502 267" xml:space="preserve">

<defs>
    <style type="text/css">
      text {
        font-family: Helvetica, Verdana, san-serif
      }
    </style>
  </defs>

<g>
  <desc>
	DICOM PS 3.15 Part 15: Security and System Management Profiles
  </desc>
</g>

<g>
<rect x="1" y="1" fill="#F5EED6" width="500" height="265"/>
<rect x="220.872" y="15.521" fill="#86B2D8" stroke="#010101" stroke-width="0.75" stroke-linecap="round" stroke-linejoin="round" stroke-miterlimit="1" width="107.996" height="22.5"/>
<g>
	<text transform="matrix(1 0 0 1 261.1172 29.2827)" font-size="9">Device</text>
</g>
<line fill="none" stroke="#005695" stroke-width="2" stroke-linecap="round" stroke-miterlimit="1" x1="187.676" y1="99.902" x2="187.676" y2="112.688"/>
<path fill="#005695" d="M188.906,115.521c0.598-1.984,1.15-3.273,1.789-4.865h-6.053c0.27,0.569,1.191,2.881,1.789,4.865
	c0.643,2.123,1.08,4.049,1.238,5.297C187.826,119.57,188.264,117.645,188.906,115.521z"/>
<rect x="147.47" y="122.23" fill="#86B2D8" stroke="#010101" stroke-width="0.75" stroke-linecap="round" stroke-linejoin="round" stroke-miterlimit="1" width="80.999" height="22.5"/>
<g>
	<text transform="matrix(1 0 0 1 149.9482 135.9863)" font-size="9">Application Entities</text>
</g>
<g>
	<text transform="matrix(1 0 0 1 232.4614 78.1187)" font-size="9">1</text>
</g>
<g>
	<text transform="matrix(1 0 0 1 222.9648 100.1235)" font-size="9">1-N</text>
</g>
<polygon fill="#B2CEE7" stroke="#010101" stroke-width="0.75" stroke-linecap="round" stroke-linejoin="round" stroke-miterlimit="1" points="
	138.472,86.177 187.893,72.885 237.467,86.37 237.467,86.399 187.893,99.884 "/>
<g>
	<text transform="matrix(1 0 0 1 170.8115 88.8955)" font-size="9">provides</text>
</g>
<g>
	<text transform="matrix(1 0 0 1 413.1504 79.522)" font-size="9">1</text>
</g>
<g>
	<text transform="matrix(1 0 0 1 402.6562 101.5269)" font-size="9">1-M</text>
</g>
<polygon fill="#B2CEE7" stroke="#010101" stroke-width="0.75" stroke-linecap="round" stroke-linejoin="round" stroke-miterlimit="1" points="
	319.154,87.585 368.574,74.293 418.148,87.777 418.148,87.808 368.574,101.292 "/>
<g>
	<text transform="matrix(1 0 0 1 351.749 90.2988)" font-size="9">contains</text>
</g>
<polyline fill="none" stroke="#005695" stroke-width="2" stroke-linecap="round" stroke-miterlimit="1" points="274.465,38.464 
	274.465,51.248 187.898,51.248 187.898,64.753 "/>
<path fill="#005695" d="M189.129,67.587c0.6-1.984,1.151-3.273,1.79-4.865h-6.054c0.271,0.569,1.191,2.881,1.791,4.865
	c0.641,2.123,1.08,4.049,1.236,5.298C188.049,71.636,188.488,69.71,189.129,67.587z"/>
<polyline fill="none" stroke="#005695" stroke-width="2" stroke-linecap="round" stroke-miterlimit="1" points="274.713,38.464 
	274.713,51.248 368.572,51.248 368.572,64.753 "/>
<path fill="#005695" d="M369.803,67.587c0.6-1.984,1.15-3.273,1.789-4.865h-6.053c0.271,0.569,1.191,2.881,1.791,4.865
	c0.641,2.123,1.08,4.049,1.236,5.298C368.723,71.636,369.162,69.71,369.803,67.587z"/>
<line fill="none" stroke="#005695" stroke-width="2" stroke-linecap="round" stroke-miterlimit="1" x1="133.049" y1="206.651" x2="133.049" y2="219.437"/>
<path fill="#005695" d="M134.279,222.271c0.598-1.984,1.15-3.273,1.789-4.865h-6.053c0.27,0.568,1.191,2.881,1.789,4.865
	c0.643,2.123,1.08,4.049,1.238,5.297C133.199,226.319,133.637,224.394,134.279,222.271z"/>
<rect x="92.843" y="228.979" fill="#86B2D8" stroke="#010101" stroke-width="0.75" stroke-linecap="round" stroke-linejoin="round" stroke-miterlimit="1" width="80.999" height="22.5"/>
<g>
	<text transform="matrix(1 0 0 1 95.5786 242.7393)" font-size="9">Transfer Capability</text>
</g>
<g>
	<text transform="matrix(1 0 0 1 177.835 184.8672)" font-size="9">1</text>
</g>
<g>
	<text transform="matrix(1 0 0 1 168.3384 206.8721)" font-size="9">1-N</text>
</g>
<polygon fill="#B2CEE7" stroke="#010101" stroke-width="0.75" stroke-linecap="round" stroke-linejoin="round" stroke-miterlimit="1" points="
	83.845,192.925 133.266,179.634 182.84,193.118 182.84,193.147 133.266,206.632 "/>
<g>
	<text transform="matrix(1 0 0 1 125.9385 195.6445)" font-size="9">has</text>
</g>
<g>
	<text transform="matrix(1 0 0 1 277.0273 186.2705)" font-size="9">1-N</text>
</g>
<g>
	<text transform="matrix(1 0 0 1 276.0293 208.2754)" font-size="9">1-M</text>
</g>
<polygon fill="#B2CEE7" stroke="#010101" stroke-width="0.75" stroke-linecap="round" stroke-linejoin="round" stroke-miterlimit="1" points="
	192.535,194.333 241.955,181.042 291.529,194.526 291.529,194.556 241.955,208.04 "/>
<g>
	<text transform="matrix(1 0 0 1 217.8647 197.0469)" font-size="9">available on</text>
</g>
<polyline fill="none" stroke="#005695" stroke-width="2" stroke-linecap="round" stroke-miterlimit="1" points="187.441,145.212 
	187.441,157.997 160.456,157.997 133.271,157.997 133.271,171.501 "/>
<path fill="#005695" d="M134.502,174.335c0.6-1.984,1.151-3.273,1.79-4.865h-6.054c0.271,0.57,1.191,2.881,1.791,4.865
	c0.641,2.123,1.08,4.049,1.236,5.299C133.422,178.384,133.861,176.458,134.502,174.335z"/>
<polyline fill="none" stroke="#005695" stroke-width="2" stroke-linecap="round" stroke-miterlimit="1" points="187.689,145.212 
	187.689,157.997 214.723,157.997 214.922,157.997 241.953,157.997 241.953,171.501 "/>
<path fill="#005695" d="M243.184,174.335c0.6-1.984,1.15-3.273,1.789-4.865h-6.053c0.271,0.57,1.191,2.881,1.791,4.865
	c0.641,2.123,1.08,4.049,1.236,5.299C242.104,178.384,242.543,176.458,243.184,174.335z"/>
<line fill="none" stroke="#005695" stroke-width="2" stroke-linecap="round" stroke-miterlimit="1" x1="368.992" y1="101.141" x2="368.992" y2="113.926"/>
<path fill="#005695" d="M370.223,116.76c0.598-1.984,1.15-3.273,1.789-4.865h-6.053c0.27,0.569,1.191,2.881,1.789,4.865
	c0.643,2.123,1.08,4.049,1.238,5.297C369.143,120.809,369.58,118.883,370.223,116.76z"/>
<rect x="324.285" y="122.23" fill="#86B2D8" stroke="#010101" stroke-width="0.7906" stroke-linecap="round" stroke-linejoin="round" stroke-miterlimit="1" width="90" height="22.5"/>
<g>
	<text transform="matrix(1 0 0 1 326.5234 135.9863)" font-size="9">Network Connections</text>
</g>
<g>
	<g>
		<polyline fill="none" stroke="#005695" stroke-width="2" stroke-linecap="round" stroke-miterlimit="1" points="241.81,208.957 
			241.81,223.18 301.978,223.18 301.978,102.186 345.346,102.186 345.346,113.888 		"/>
		<path fill="#005695" d="M346.575,116.722c0.6-1.984,1.151-3.273,1.79-4.865h-6.053c0.271,0.569,1.191,2.881,1.79,4.865
			c0.642,2.124,1.08,4.049,1.236,5.298C345.496,120.771,345.935,118.845,346.575,116.722z"/>
	</g>
</g>
</g>
</svg>
