<?xml version="1.0" encoding="utf-8"?>

<!DOCTYPE svg PUBLIC "-//W3C//DTD SVG 1.1//EN" "http://www.w3.org/Graphics/SVG/1.1/DTD/svg11.dtd">
<svg version="1.1" id="Layer_1" xmlns="http://www.w3.org/2000/svg" xmlns:xlink="http://www.w3.org/1999/xlink" x="0px" y="0px"
	 width="502px" height="402px" viewBox="0 0 502 402" enable-background="new 0 0 502 402" xml:space="preserve">

<defs>
    <style type="text/css">
      text {
        font-family: Helvetica, Verdana, san-serif
      }
    </style>
  </defs>

<g>
  <desc>
	DICOM PS 3.15 Part 15: Security and System Management Profiles
  </desc>
</g>

<g>
	<rect x="1" y="1" fill="#F5EED6" width="500" height="400"/>
	<g>
		
			<rect x="186.911" y="16.087" fill="#86B2D8" stroke="#010101" stroke-width="0.75" stroke-linecap="round" stroke-linejoin="round" stroke-miterlimit="1" width="134.999" height="54"/>
		<g>
			<text transform="matrix(1 0 0 1 233.6533 42.4961)"><tspan x="0" y="0" font-size="9">RFC-1035</tspan><tspan x="0" y="10.8" font-size="9">RFC-2181</tspan><tspan x="0" y="21.6" font-size="9">etc.</tspan></text>
		</g>
		<g>
			<text transform="matrix(1 0 0 1 191.6353 26.5103)" font-size="9">Base DNS Protocol Documents</text>
		</g>
		
			<rect x="47.823" y="107.322" fill="#86B2D8" stroke="#010101" stroke-width="0.75" stroke-linecap="round" stroke-linejoin="round" stroke-miterlimit="1" width="99" height="55.576"/>
		<g>
			<text transform="matrix(1 0 0 1 76.5654 136.9717)"><tspan x="0" y="0" font-size="9">RFC-2538</tspan><tspan x="0" y="10.8" font-size="9">RFC-2931</tspan><tspan x="7.256" y="21.6" font-size="9">DSIG  </tspan></text>
		</g>
		<g>
			<text transform="matrix(1 0 0 1 49.4785 117.4414)" font-size="9">New Security RRs</text>
		</g>
		
			<rect x="204.741" y="286.338" fill="#86B2D8" stroke="#010101" stroke-width="0.75" stroke-linecap="round" stroke-linejoin="round" stroke-miterlimit="1" width="98.997" height="58.91"/>
		
			<rect x="204.741" y="107.322" fill="#86B2D8" stroke="#010101" stroke-width="0.75" stroke-linecap="round" stroke-linejoin="round" stroke-miterlimit="1" width="98.997" height="143.6"/>
		<g>
			<text transform="matrix(1 0 0 1 233.4824 137.6401)"><tspan x="0" y="0" font-size="9">RFC-2535</tspan><tspan x="0" y="10.8" font-size="9">RFC-3007</tspan><tspan x="0" y="21.6" font-size="9">RFC-3008</tspan><tspan x="0" y="32.4" font-size="9">RFC-3090</tspan><tspan x="10.756" y="43.2" font-size="9">SIZE</tspan><tspan x="7.256" y="54" font-size="9">OKBIT</tspan><tspan x="7.506" y="64.799" font-size="9">ADBIT</tspan><tspan x="7.007" y="75.6" font-size="9">OPTIN</tspan><tspan x="3.753" y="86.4" font-size="9">PARSIG</tspan><tspan x="5.502" y="97.2" font-size="9">PARKY</tspan><tspan x="9.257" y="108" font-size="9">LIMIT</tspan></text>
		</g>
		<g>
			<text transform="matrix(1 0 0 1 207.3066 117.4409)" font-size="9">DNSSEC protocol</text>
		</g>
		
			<rect x="355.178" y="107.322" fill="#86B2D8" stroke="#010101" stroke-width="0.75" stroke-linecap="round" stroke-linejoin="round" stroke-miterlimit="1" width="99" height="36"/>
		
			<rect x="355.178" y="286.338" fill="#86B2D8" stroke="#010101" stroke-width="0.75" stroke-linecap="round" stroke-linejoin="round" stroke-miterlimit="1" width="99" height="58.91"/>
		<g>
			<text transform="matrix(1 0 0 1 356.6416 117.4414)" font-size="9">New Security Uses</text>
		</g>
		<g>
			<text transform="matrix(1 0 0 1 384.4258 136.3066)" font-size="9">SSH-DNS</text>
		</g>
		
			<line fill="none" stroke="#005695" stroke-width="2" stroke-linecap="round" stroke-miterlimit="1" x1="254.299" y1="71.628" x2="254.299" y2="98.812"/>
		<path fill="#005695" d="M255.529,101.646c0.598-1.984,1.15-3.273,1.789-4.865h-6.054c0.27,0.568,1.192,2.881,1.79,4.865
			c0.643,2.123,1.08,4.049,1.238,5.297C254.449,105.695,254.887,103.769,255.529,101.646z"/>
		<polyline fill="none" stroke="#005695" stroke-width="2" stroke-linecap="round" stroke-miterlimit="1" points="254.605,83.286 
			404.35,83.286 404.35,98.812 		"/>
		<path fill="#005695" d="M405.58,101.646c0.598-1.984,1.15-3.273,1.789-4.865h-6.053c0.27,0.568,1.191,2.881,1.789,4.865
			c0.643,2.123,1.08,4.049,1.238,5.297C404.5,105.695,404.938,103.769,405.58,101.646z"/>
		<polyline fill="none" stroke="#005695" stroke-width="2" stroke-linecap="round" stroke-miterlimit="1" points="254.273,83.286 
			97.325,83.286 97.325,98.812 		"/>
		<path fill="#005695" d="M96.094,101.646c-0.598-1.984-1.15-3.273-1.789-4.865h6.053c-0.27,0.568-1.191,2.881-1.789,4.865
			c-0.643,2.123-1.08,4.049-1.238,5.297C97.174,105.695,96.737,103.769,96.094,101.646z"/>
		
			<rect x="47.823" y="286.338" fill="#86B2D8" stroke="#010101" stroke-width="0.75" stroke-linecap="round" stroke-linejoin="round" stroke-miterlimit="1" width="99" height="99.576"/>
		<g>
			<text transform="matrix(1 0 0 1 49.9927 296.9004)" font-size="9">DS Alg. Impl</text>
		</g>
		<g>
			<text transform="matrix(1 0 0 1 76.5649 316.2646)"><tspan x="0" y="0" font-size="9">RFC-2536</tspan><tspan x="0" y="10.8" font-size="9">RFC-2537</tspan><tspan x="0" y="21.601" font-size="9">RFC-2539</tspan><tspan x="-0.745" y="32.399" font-size="9">GSS-TSIG</tspan><tspan x="0" y="43.2" font-size="9">RFC-3110</tspan><tspan x="11.257" y="54" font-size="9">ECC</tspan><tspan x="14.258" y="64.8" font-size="9">DH</tspan></text>
		</g>
		<g>
			<text transform="matrix(1 0 0 1 233.4829 316.123)"><tspan x="0" y="0" font-size="9">RFC-2845</tspan><tspan x="0" y="10.8" font-size="9">RFC-2930</tspan><tspan x="4.008" y="21.6" font-size="9">RENEW</tspan></text>
		</g>
		<g>
			<text transform="matrix(1 0 0 1 207.1719 296.8984)" font-size="9">Transactions</text>
		</g>
		<g>
			<text transform="matrix(1 0 0 1 356.3477 296.9004)" font-size="9">Implementation Notes</text>
		</g>
		<g>
			<text transform="matrix(1 0 0 1 390.6768 316.2646)"><tspan x="0" y="0" font-size="9">CAIRN</tspan><tspan x="-10.507" y="10.8" font-size="9">ROLLOVER</tspan><tspan x="-19.76" y="21.601" font-size="9">RESROLLOVER</tspan></text>
		</g>
		
			<line fill="none" stroke="#005695" stroke-width="2" stroke-linecap="round" stroke-miterlimit="1" x1="254.299" y1="250.922" x2="254.299" y2="278.105"/>
		<path fill="#005695" d="M255.529,280.939c0.598-1.984,1.15-3.273,1.789-4.865h-6.054c0.27,0.568,1.192,2.881,1.79,4.865
			c0.643,2.123,1.08,4.049,1.238,5.297C254.449,284.988,254.887,283.062,255.529,280.939z"/>
		<polyline fill="none" stroke="#005695" stroke-width="2" stroke-linecap="round" stroke-miterlimit="1" points="254.605,262.58 
			404.35,262.58 404.35,278.105 		"/>
		<path fill="#005695" d="M405.58,280.939c0.598-1.984,1.15-3.273,1.789-4.865h-6.053c0.27,0.568,1.191,2.881,1.789,4.865
			c0.643,2.123,1.08,4.049,1.238,5.297C404.5,284.988,404.938,283.062,405.58,280.939z"/>
		<polyline fill="none" stroke="#005695" stroke-width="2" stroke-linecap="round" stroke-miterlimit="1" points="254.273,262.58 
			97.325,262.58 97.325,278.105 		"/>
		<path fill="#005695" d="M96.094,280.939c-0.598-1.984-1.15-3.273-1.789-4.865h6.053c-0.27,0.568-1.191,2.881-1.789,4.865
			c-0.643,2.123-1.08,4.049-1.238,5.297C97.174,284.988,96.737,283.062,96.094,280.939z"/>
	</g>
</g>
</svg>
