<?xml version="1.0" encoding="utf-8"?>

<!DOCTYPE svg PUBLIC "-//W3C//DTD SVG 1.1//EN" "http://www.w3.org/Graphics/SVG/1.1/DTD/svg11.dtd">
<svg version="1.1" id="Layer_1" xmlns="http://www.w3.org/2000/svg" xmlns:xlink="http://www.w3.org/1999/xlink" x="0px" y="0px"
	 width="502px" height="162px" viewBox="0 0 502 162" enable-background="new 0 0 502 162" xml:space="preserve">

<defs>
    <style type="text/css">
      text {
        font-family: Helvetica, Verdana, san-serif
      }
    </style>
  </defs>

<g>
  <desc>
	DICOM PS 3.15 Part 15: Security and System Management Profiles
  </desc>
</g>

<g>
	<rect x="1" y="1" fill="#F5EED6" width="500" height="160"/>
	<g>
		<g>
			<path fill="#B2CEE7" d="M322.213,16.213c0-0.992,0.812-1.803,1.803-1.803h59.395c0.991,0,1.803,0.812,1.803,1.803v23.393
				c0,0.992-0.812,1.803-1.803,1.803h-59.395c-0.991,0-1.803-0.812-1.803-1.803V16.213z"/>
			
				<path fill="none" stroke="#010101" stroke-width="0.3756" stroke-linecap="round" stroke-linejoin="round" stroke-miterlimit="10" d="
				M322.213,16.213c0-0.992,0.812-1.803,1.803-1.803h59.395c0.991,0,1.803,0.812,1.803,1.803v23.393
				c0,0.992-0.812,1.803-1.803,1.803h-59.395c-0.991,0-1.803-0.812-1.803-1.803V16.213z"/>
		</g>
		<g>
			<text transform="matrix(0.9288 0 0 1 329.9688 30.4155)" font-size="9">Service Staff</text>
		</g>
		<g>
			<path fill="#B2CEE7" d="M214.998,16.337c0-1.06,0.867-1.927,1.927-1.927h68.145c1.061,0,1.928,0.867,1.928,1.927v23.145
				c0,1.06-0.867,1.927-1.928,1.927h-68.145c-1.06,0-1.927-0.867-1.927-1.927V16.337z"/>
			
				<path fill="none" stroke="#010101" stroke-width="0.4015" stroke-linecap="round" stroke-linejoin="round" stroke-miterlimit="10" d="
				M214.998,16.337c0-1.06,0.867-1.927,1.927-1.927h68.145c1.061,0,1.928,0.867,1.928,1.927v23.145c0,1.06-0.867,1.927-1.928,1.927
				h-68.145c-1.06,0-1.927-0.867-1.927-1.927V16.337z"/>
		</g>
		<g>
			<text transform="matrix(0.9288 0 0 1 217.959 30.4155)" font-size="9">Site Administrator</text>
		</g>
		<g>
			<path fill="#B2CEE7" d="M116.788,16.213c0-0.992,0.812-1.803,1.803-1.803h59.394c0.992,0,1.803,0.812,1.803,1.803v23.393
				c0,0.992-0.812,1.803-1.803,1.803h-59.394c-0.992,0-1.803-0.812-1.803-1.803V16.213z"/>
			
				<path fill="none" stroke="#010101" stroke-width="0.3756" stroke-linecap="round" stroke-linejoin="round" stroke-miterlimit="10" d="
				M116.788,16.213c0-0.992,0.812-1.803,1.803-1.803h59.394c0.992,0,1.803,0.812,1.803,1.803v23.393
				c0,0.992-0.812,1.803-1.803,1.803h-59.394c-0.992,0-1.803-0.812-1.803-1.803V16.213z"/>
		</g>
		<g>
			<text transform="matrix(0.9288 0 0 1 122.9727 30.0845)" font-size="9">DHCP Server</text>
		</g>
		<circle fill="#CCDEF0" stroke="#010101" stroke-width="0.6316" cx="250.999" cy="111.59" r="36"/>
		<g>
			<text transform="matrix(1 0 0 1 227.1509 101.4531)"><tspan x="0" y="0" font-size="11">Configure</tspan><tspan x="8.263" y="13.199" font-size="11">DHCP</tspan><tspan x="7.648" y="26.399" font-size="11">Server</tspan></text>
		</g>
		<g>
			<g>
				<line fill="#4F8ABE" x1="282.555" y1="81.601" x2="322.154" y2="42"/>
				<path fill="#4F8ABE" d="M281.987,83.037c0.913-0.489,1.564-0.75,2.354-1.087l-2.141-2.14c-0.105,0.297-0.598,1.44-1.087,2.353
					c-0.524,0.978-1.05,1.813-1.436,2.311C280.174,84.087,281.01,83.562,281.987,83.037z"/>
			</g>
			<g>
				
					<line fill="none" stroke="#005695" stroke-width="1.4951" stroke-linecap="round" stroke-miterlimit="1" x1="282.555" y1="81.601" x2="322.154" y2="42"/>
				<path fill="#005695" d="M281.707,83.749c1.365-0.732,2.339-1.122,3.518-1.626l-3.2-3.199c-0.157,0.444-0.893,2.152-1.625,3.518
					c-0.783,1.462-1.569,2.712-2.146,3.454C278.996,85.318,280.245,84.532,281.707,83.749z"/>
			</g>
		</g>
		<g>
			<g>
				<line fill="#4F8ABE" x1="219.442" y1="81.601" x2="179.843" y2="42.001"/>
				<path fill="#4F8ABE" d="M220.879,82.168c-0.49-0.914-0.75-1.564-1.087-2.353l-2.14,2.14c0.297,0.105,1.44,0.598,2.353,1.087
					c0.978,0.524,1.813,1.05,2.31,1.436C221.929,83.981,221.403,83.146,220.879,82.168z"/>
			</g>
			<g>
				
					<line fill="none" stroke="#005695" stroke-width="1.4951" stroke-linecap="round" stroke-miterlimit="1" x1="219.442" y1="81.601" x2="179.843" y2="42.001"/>
				<path fill="#005695" d="M221.591,82.448c-0.732-1.365-1.122-2.339-1.625-3.518l-3.2,3.2c0.444,0.157,2.153,0.893,3.518,1.625
					c1.462,0.783,2.711,1.569,3.454,2.146C223.16,85.16,222.375,83.91,221.591,82.448z"/>
			</g>
		</g>
		<g>
			<g>
				<line fill="#4F8ABE" x1="250.998" y1="42.849" x2="250.998" y2="67.929"/>
				<path fill="#4F8ABE" d="M251.613,69.346c0.3-0.992,0.576-1.637,0.895-2.433h-3.026c0.135,0.285,0.596,1.441,0.895,2.433
					c0.321,1.062,0.54,2.024,0.618,2.649C251.073,71.37,251.292,70.408,251.613,69.346z"/>
			</g>
			<g>
				
					<line fill="none" stroke="#005695" stroke-width="1.4951" stroke-linecap="round" stroke-miterlimit="1" x1="250.998" y1="42.849" x2="250.998" y2="67.929"/>
				<path fill="#005695" d="M251.917,70.047c0.448-1.483,0.861-2.447,1.338-3.637h-4.525c0.202,0.426,0.891,2.154,1.338,3.637
					c0.48,1.587,0.808,3.027,0.925,3.96C251.11,73.074,251.438,71.635,251.917,70.047z"/>
			</g>
		</g>
	</g>
</g>
</svg>
