<?xml version="1.0" encoding="utf-8"?>

<!DOCTYPE svg PUBLIC "-//W3C//DTD SVG 1.1//EN" "http://www.w3.org/Graphics/SVG/1.1/DTD/svg11.dtd">
<svg version="1.1" id="Layer_1" xmlns="http://www.w3.org/2000/svg" xmlns:xlink="http://www.w3.org/1999/xlink" x="0px" y="0px"
	 width="502px" height="162px" viewBox="0 0 502 162" enable-background="new 0 0 502 162" xml:space="preserve">

<defs>
    <style type="text/css">
      text {
        font-family: Helvetica, Verdana, san-serif
      }
    </style>
  </defs>

<g>
  <desc>
	DICOM PS 3.15 Part 15: Security and System Management Profiles
  </desc>
</g>

<g>
	<rect x="1" y="1" fill="#F5EED6" width="500" height="160"/>
	<g>
		<g>
			<g>
				
					<line fill="none" stroke="#005695" stroke-linecap="round" stroke-miterlimit="1" x1="155.323" y1="70.388" x2="330.756" y2="70.388"/>
				<g>
					<polygon fill="#005695" points="329.171,72.712 337.844,70.388 329.171,68.063 					"/>
				</g>
			</g>
		</g>
		<g>
			<g>
				
					<line fill="none" stroke="#005695" stroke-linecap="round" stroke-miterlimit="1" x1="337.14" y1="94.366" x2="162.827" y2="94.366"/>
				<g>
					<polygon fill="#005695" points="164.412,92.042 155.739,94.366 164.412,96.69 					"/>
				</g>
			</g>
		</g>
		
			<line fill="#4F8ABE" stroke="#005695" stroke-linecap="round" stroke-miterlimit="1" stroke-dasharray="3" x1="150.838" y1="144.538" x2="150.838" y2="36.171"/>
		
			<path fill="#CCDEF0" stroke="#010101" stroke-width="0.75" stroke-linecap="round" stroke-linejoin="round" stroke-miterlimit="1" d="
			M128.337,17.462h45.001v27h-45.001V17.462z"/>
		<text transform="matrix(1 0 0 1 139.0884 29.0288)"><tspan x="0" y="0" font-size="9">LDAP</tspan><tspan x="0.25" y="10.8" font-size="9">Client</tspan></text>
		
			<line fill="#4F8ABE" stroke="#005695" stroke-linecap="round" stroke-miterlimit="1" stroke-dasharray="3" x1="342.168" y1="144.538" x2="342.168" y2="36.171"/>
		
			<path fill="#CCDEF0" stroke="#010101" stroke-width="0.75" stroke-linecap="round" stroke-linejoin="round" stroke-miterlimit="1" d="
			M310.664,17.462h63v27h-63V17.462z"/>
		<text transform="matrix(1 0 0 1 333.1699 27.4282)"><tspan x="0" y="0" font-size="9">DNS</tspan><tspan x="-3.754" y="10.8" font-size="9">Server</tspan></text>
		<text transform="matrix(1 0 0 1 173.4482 66.7573)"><tspan x="0" y="0" font-size="8">1. Request all LDAP Servers</tspan><tspan x="0" y="24.6" font-size="8">2.List of servers, priority, ports, etc.</tspan><tspan x="0" y="49.2" font-size="8">3. Select Server</tspan></text>
		
			<rect x="146.368" y="56.399" fill="#CCDEF0" stroke="#010101" stroke-width="0.75" stroke-linecap="round" stroke-linejoin="round" stroke-miterlimit="1" width="9" height="41.297"/>
		
			<rect x="146.368" y="107.362" fill="#CCDEF0" stroke="#010101" stroke-width="0.75" stroke-linecap="round" stroke-linejoin="round" stroke-miterlimit="1" width="9" height="28"/>
		
			<rect x="337.812" y="58.151" fill="#CCDEF0" stroke="#010101" stroke-width="0.75" stroke-linecap="round" stroke-linejoin="round" stroke-miterlimit="1" width="9" height="45"/>
		<g>
			<g>
				<polyline fill="none" stroke="#005695" stroke-linecap="round" stroke-miterlimit="1" points="156.105,113.737 168.856,113.737 
					168.856,128.874 162.827,128.874 				"/>
				<g>
					<polygon fill="#005695" points="164.412,126.55 155.739,128.874 164.412,131.198 					"/>
				</g>
			</g>
		</g>
	</g>
</g>
</svg>
