<?xml version="1.0" encoding="utf-8"?>

<!DOCTYPE svg PUBLIC "-//W3C//DTD SVG 1.1//EN" "http://www.w3.org/Graphics/SVG/1.1/DTD/svg11.dtd">
<svg version="1.1" id="Layer_1" xmlns="http://www.w3.org/2000/svg" xmlns:xlink="http://www.w3.org/1999/xlink" x="0px" y="0px"
	 width="502px" height="167px" viewBox="0 0 502 167" enable-background="new 0 0 502 167" xml:space="preserve">

<defs>
    <style type="text/css">
      text {
        font-family: Helvetica, Verdana, san-serif
      }
    </style>
  </defs>

<g>
  <desc>
	DICOM PS 3.15 Part 15: Security and System Management Profiles
  </desc>
</g>

<g>
	<rect x="1" y="1" fill="#F5EED6" width="500" height="165"/>
	<g>
		<g>
			<path fill="#B2CEE7" d="M322.213,18.713c0-0.992,0.812-1.803,1.803-1.803h59.395c0.991,0,1.803,0.812,1.803,1.803v23.393
				c0,0.992-0.812,1.803-1.803,1.803h-59.395c-0.991,0-1.803-0.812-1.803-1.803V18.713z"/>
			
				<path fill="none" stroke="#010101" stroke-width="0.3756" stroke-linecap="round" stroke-linejoin="round" stroke-miterlimit="10" d="
				M322.213,18.713c0-0.992,0.812-1.803,1.803-1.803h59.395c0.991,0,1.803,0.812,1.803,1.803v23.393
				c0,0.992-0.812,1.803-1.803,1.803h-59.395c-0.991,0-1.803-0.812-1.803-1.803V18.713z"/>
		</g>
		<g>
			<text transform="matrix(0.9288 0 0 1 331.3662 32.5845)" font-size="9">DNS Server</text>
		</g>
		<g>
			<path fill="#B2CEE7" d="M116.788,18.713c0-0.992,0.812-1.803,1.803-1.803h59.394c0.992,0,1.803,0.812,1.803,1.803v23.393
				c0,0.992-0.812,1.803-1.803,1.803h-59.394c-0.992,0-1.803-0.812-1.803-1.803V18.713z"/>
			
				<path fill="none" stroke="#010101" stroke-width="0.3756" stroke-linecap="round" stroke-linejoin="round" stroke-miterlimit="10" d="
				M116.788,18.713c0-0.992,0.812-1.803,1.803-1.803h59.394c0.992,0,1.803,0.812,1.803,1.803v23.393
				c0,0.992-0.812,1.803-1.803,1.803h-59.394c-0.992,0-1.803-0.812-1.803-1.803V18.713z"/>
		</g>
		<g>
			<text transform="matrix(0.9288 0 0 1 127.6152 32.5845)" font-size="9">DNS Client</text>
		</g>
		<circle fill="#CCDEF0" stroke="#010101" stroke-width="0.6316" cx="250.999" cy="114.09" r="36"/>
		<g>
			<text transform="matrix(1 0 0 1 231.1279 110.2285)"><tspan x="0" y="0" font-size="11">Resolve</tspan><tspan x="-5.196" y="13.201" font-size="11">Hostname</tspan></text>
		</g>
		<g>
			<g>
				<line fill="#4F8ABE" x1="283.955" y1="84.101" x2="321.555" y2="44.913"/>
				<path fill="#4F8ABE" d="M283.418,85.549c0.902-0.508,1.549-0.782,2.33-1.136l-2.185-2.095c-0.1,0.299-0.567,1.452-1.038,2.375
					c-0.504,0.988-1.012,1.835-1.388,2.34C281.627,86.636,282.451,86.093,283.418,85.549z"/>
			</g>
			<g>
				
					<line fill="none" stroke="#005695" stroke-width="1.5942" stroke-linecap="round" stroke-miterlimit="1" x1="283.955" y1="84.101" x2="321.555" y2="44.913"/>
				<path fill="#005695" d="M283.099,86.409c1.439-0.811,2.469-1.247,3.714-1.811l-3.481-3.34c-0.158,0.477-0.904,2.314-1.655,3.786
					c-0.803,1.575-1.612,2.925-2.212,3.729C280.243,88.143,281.558,87.277,283.099,86.409z"/>
			</g>
		</g>
		<g>
			<g>
				<line fill="#4F8ABE" x1="218.042" y1="84.101" x2="180.442" y2="44.914"/>
				<path fill="#4F8ABE" d="M219.467,84.697c-0.471-0.923-0.718-1.58-1.038-2.375l-2.184,2.096c0.295,0.111,1.427,0.627,2.33,1.136
					c0.966,0.544,1.791,1.087,2.28,1.482C220.479,86.532,219.971,85.686,219.467,84.697z"/>
			</g>
			<g>
				
					<line fill="none" stroke="#005695" stroke-width="1.5942" stroke-linecap="round" stroke-miterlimit="1" x1="218.042" y1="84.101" x2="180.442" y2="44.914"/>
				<path fill="#005695" d="M220.313,85.052c-0.75-1.472-1.145-2.518-1.655-3.786l-3.481,3.34c0.47,0.179,2.275,1,3.714,1.811
					c1.541,0.867,2.856,1.732,3.635,2.364C221.927,87.977,221.117,86.627,220.313,85.052z"/>
			</g>
		</g>
	</g>
</g>
</svg>
