<?xml version="1.0" encoding="utf-8"?>

<!DOCTYPE svg PUBLIC "-//W3C//DTD SVG 1.1//EN" "http://www.w3.org/Graphics/SVG/1.1/DTD/svg11.dtd">
<svg version="1.1" id="Layer_1" xmlns="http://www.w3.org/2000/svg" xmlns:xlink="http://www.w3.org/1999/xlink" x="0px" y="0px"
	 width="502px" height="167px" viewBox="0 0 502 167" enable-background="new 0 0 502 167" xml:space="preserve">

<defs>
    <style type="text/css">
      text {
        font-family: Helvetica, Verdana, san-serif
      }
    </style>
  </defs>

<g>
  <desc>
	DICOM PS 3.15 Part 15: Security and System Management Profiles
  </desc>
</g>

<g>
	<rect x="1" y="1" fill="#F5EED6" width="500" height="165"/>
	<g>
		<g>
			<path fill="#B2CEE7" d="M322.213,18.713c0-0.992,0.812-1.803,1.803-1.803h59.395c0.991,0,1.803,0.812,1.803,1.803v23.393
				c0,0.992-0.812,1.803-1.803,1.803h-59.395c-0.991,0-1.803-0.812-1.803-1.803V18.713z"/>
			
				<path fill="none" stroke="#010101" stroke-width="0.3756" stroke-linecap="round" stroke-linejoin="round" stroke-miterlimit="10" d="
				M322.213,18.713c0-0.992,0.812-1.803,1.803-1.803h59.395c0.991,0,1.803,0.812,1.803,1.803v23.393
				c0,0.992-0.812,1.803-1.803,1.803h-59.395c-0.991,0-1.803-0.812-1.803-1.803V18.713z"/>
		</g>
		<g>
			<text transform="matrix(0.9288 0 0 1 328.3486 32.5845)" font-size="9">DHCP Server</text>
		</g>
		<g>
			<path fill="#B2CEE7" d="M116.788,18.713c0-0.992,0.812-1.803,1.803-1.803h59.394c0.992,0,1.803,0.812,1.803,1.803v23.393
				c0,0.992-0.812,1.803-1.803,1.803h-59.394c-0.992,0-1.803-0.812-1.803-1.803V18.713z"/>
			
				<path fill="none" stroke="#010101" stroke-width="0.3756" stroke-linecap="round" stroke-linejoin="round" stroke-miterlimit="10" d="
				M116.788,18.713c0-0.992,0.812-1.803,1.803-1.803h59.394c0.992,0,1.803,0.812,1.803,1.803v23.393
				c0,0.992-0.812,1.803-1.803,1.803h-59.394c-0.992,0-1.803-0.812-1.803-1.803V18.713z"/>
		</g>
		<g>
			<text transform="matrix(0.9288 0 0 1 124.5967 32.5845)" font-size="9">DHCP Client</text>
		</g>
		<circle fill="#CCDEF0" stroke="#010101" stroke-width="0.6316" cx="250.999" cy="114.09" r="36"/>
		<g>
			<text transform="matrix(1 0 0 1 230.21 110.2285)"><tspan x="0" y="0" font-size="11">Maintain</tspan><tspan x="5.803" y="13.201" font-size="11">Lease</tspan></text>
		</g>
		<g>
			<g>
				<line fill="#4F8ABE" x1="282.555" y1="84.101" x2="318.555" y2="48.101"/>
				<path fill="#4F8ABE" d="M319.122,46.664c-0.913,0.49-1.564,0.75-2.354,1.087l2.141,2.14c0.105-0.297,0.598-1.44,1.087-2.353
					c0.524-0.978,1.05-1.813,1.436-2.31C320.936,45.614,320.1,46.14,319.122,46.664z"/>
				<path fill="#4F8ABE" d="M281.987,85.537c0.913-0.489,1.564-0.75,2.354-1.087l-2.141-2.14c-0.105,0.297-0.598,1.44-1.087,2.353
					c-0.524,0.978-1.05,1.813-1.436,2.311C280.174,86.587,281.01,86.062,281.987,85.537z"/>
			</g>
			<g>
				
					<line fill="none" stroke="#005695" stroke-width="1.4951" stroke-linecap="round" stroke-miterlimit="1" x1="282.555" y1="84.101" x2="318.555" y2="48.101"/>
				<path fill="#005695" d="M319.402,45.952c-1.365,0.732-2.339,1.122-3.518,1.625l3.2,3.2c0.157-0.444,0.893-2.152,1.625-3.518
					c0.783-1.462,1.569-2.711,2.146-3.454C322.114,44.383,320.864,45.168,319.402,45.952z"/>
				<path fill="#005695" d="M281.707,86.249c1.365-0.732,2.339-1.122,3.518-1.626l-3.2-3.199c-0.157,0.444-0.893,2.152-1.625,3.518
					c-0.783,1.462-1.569,2.712-2.146,3.454C278.995,87.818,280.245,87.032,281.707,86.249z"/>
			</g>
		</g>
		<g>
			<g>
				<line fill="#4F8ABE" x1="219.442" y1="84.101" x2="183.442" y2="48.101"/>
				<path fill="#4F8ABE" d="M182.005,47.533c0.49,0.914,0.75,1.564,1.087,2.353l2.14-2.14c-0.297-0.105-1.44-0.597-2.353-1.087
					c-0.978-0.524-1.813-1.05-2.31-1.436C180.956,45.72,181.481,46.556,182.005,47.533z"/>
				<path fill="#4F8ABE" d="M220.879,84.668c-0.49-0.914-0.75-1.564-1.087-2.353l-2.14,2.14c0.297,0.105,1.44,0.598,2.353,1.087
					c0.978,0.524,1.813,1.05,2.31,1.436C221.929,86.481,221.403,85.646,220.879,84.668z"/>
			</g>
			<g>
				
					<line fill="none" stroke="#005695" stroke-width="1.4951" stroke-linecap="round" stroke-miterlimit="1" x1="219.442" y1="84.101" x2="183.442" y2="48.101"/>
				<path fill="#005695" d="M181.294,47.252c0.732,1.366,1.122,2.339,1.625,3.518l3.2-3.2c-0.444-0.158-2.152-0.894-3.518-1.625
					c-1.462-0.784-2.711-1.569-3.454-2.146C179.725,44.542,180.51,45.791,181.294,47.252z"/>
				<path fill="#005695" d="M221.591,84.948c-0.732-1.365-1.122-2.339-1.625-3.518l-3.2,3.2c0.444,0.157,2.153,0.893,3.518,1.625
					c1.462,0.783,2.711,1.569,3.454,2.146C223.16,87.66,222.375,86.41,221.591,84.948z"/>
			</g>
		</g>
	</g>
</g>
</svg>
