<?xml version="1.0" encoding="utf-8"?>

<!DOCTYPE svg PUBLIC "-//W3C//DTD SVG 1.1//EN" "http://www.w3.org/Graphics/SVG/1.1/DTD/svg11.dtd">
<svg version="1.1" id="Layer_1" xmlns="http://www.w3.org/2000/svg" xmlns:xlink="http://www.w3.org/1999/xlink" x="0px" y="0px"
	 width="502px" height="137px" viewBox="0 0 502 137" enable-background="new 0 0 502 137" xml:space="preserve">

<defs>
	<style type="text/css">
	text {
	  font-family: Helvetica, Verdana, ArialUnicodeMS, san-serif
	}
	</style>
</defs>

<g>
  <desc>
	PS 3.18 Part 18: Web Services  </desc>
</g>

<g>
	<rect x="1" y="1" fill="#F5EED6" width="500" height="135"/>
	<g>
		
			<line fill="#4F8ABE" stroke="#005695" stroke-linecap="round" stroke-miterlimit="1" stroke-dasharray="3" x1="396.267" y1="119.581" x2="396.267" y2="22.941"/>
		
			<rect x="364.215" y="17.419" fill="#CCDEF0" stroke="#010101" stroke-width="0.75" stroke-linecap="round" stroke-linejoin="round" stroke-miterlimit="1" width="64.348" height="27"/>
		<text transform="matrix(1.0079 0 0 1 369.04 28.9414)"><tspan x="0" y="0" font-size="9">Web Enabled</tspan><tspan x="-2.485" y="10.8" font-size="9">DICOM Server</tspan></text>
		<g>
			<line fill="#4F8ABE" x1="100.281" y1="70.346" x2="390.886" y2="70.346"/>
			<g>
				
					<line fill="none" stroke="#005695" stroke-linecap="round" stroke-miterlimit="1" x1="100.281" y1="70.346" x2="383.798" y2="70.346"/>
				<g>
					<polygon fill="#005695" points="382.213,72.67 390.886,70.346 382.213,68.021 					"/>
				</g>
			</g>
		</g>
		<g>
			<line fill="#4F8ABE" x1="390.516" y1="96.937" x2="100.27" y2="96.937"/>
			<g>
				
					<line fill="none" stroke="#005695" stroke-linecap="round" stroke-miterlimit="1" x1="390.516" y1="96.937" x2="107.357" y2="96.937"/>
				<g>
					<polygon fill="#005695" points="108.943,94.612 100.27,96.937 108.943,99.261 					"/>
				</g>
			</g>
		</g>
		
			<line fill="#4F8ABE" stroke="#005695" stroke-linecap="round" stroke-miterlimit="1" stroke-dasharray="3" x1="96.116" y1="119.581" x2="96.116" y2="22.941"/>
		
			<rect x="73.438" y="17.419" fill="#CCDEF0" stroke="#010101" stroke-width="0.75" stroke-linecap="round" stroke-linejoin="round" stroke-miterlimit="1" width="45.357" height="27"/>
		<text transform="matrix(1.0079 0 0 1 73.939 28.9414)"><tspan x="0" y="0" font-size="9">Web Client</tspan><tspan x="7.005" y="10.8" font-size="9">System</tspan></text>
		<text transform="matrix(1.0079 0 0 1 118.564 66.71)"><tspan x="0" y="0" font-size="8">1. Object(s) request (GET HTTP Request)</tspan><tspan x="0" y="27.6" font-size="8">2. Object(s) send (HTTP Response to the GET Request)</tspan></text>
		
			<path fill="#CCDEF0" stroke="#010101" stroke-width="0.75" stroke-linecap="round" stroke-linejoin="round" stroke-miterlimit="1" d="
			M100.304,58.872c-2.993,0-5.955,0-9.073,0v21.6c2.961,0,6.044,0,9.073,0V58.872z"/>
		
			<path fill="#CCDEF0" stroke="#010101" stroke-width="0.75" stroke-linecap="round" stroke-linejoin="round" stroke-miterlimit="1" d="
			M100.281,86.212c-2.992,0-5.954,0-9.072,0v21.6c2.959,0,6.044,0,9.072,0V86.212z"/>
		
			<path fill="#CCDEF0" stroke="#010101" stroke-width="0.75" stroke-linecap="round" stroke-linejoin="round" stroke-miterlimit="1" d="
			M400.604,58.872c-2.992,0-5.955,0-9.073,0v21.6c2.959,0,6.046,0,9.073,0V58.872z"/>
		
			<path fill="#CCDEF0" stroke="#010101" stroke-width="0.75" stroke-linecap="round" stroke-linejoin="round" stroke-miterlimit="1" d="
			M400.603,86.212c-2.99,0-5.953,0-9.073,0v21.6c2.961,0,6.046,0,9.073,0V86.212z"/>
	</g>
</g>
</svg>
